%TF.GenerationSoftware,KiCad,Pcbnew,(5.1.12)-1*%
%TF.CreationDate,2026-05-01T10:30:42+02:00*%
%TF.ProjectId,FLO-80,464c4f2d-3830-42e6-9b69-6361645f7063,Rev. 1.1*%
%TF.SameCoordinates,Original*%
%TF.FileFunction,Copper,L1,Top*%
%TF.FilePolarity,Positive*%
%FSLAX46Y46*%
G04 Gerber Fmt 4.6, Leading zero omitted, Abs format (unit mm)*
G04 Created by KiCad (PCBNEW (5.1.12)-1) date 2026-05-01 10:30:42*
%MOMM*%
%LPD*%
G01*
G04 APERTURE LIST*
%TA.AperFunction,ComponentPad*%
%ADD10O,1.700000X1.700000*%
%TD*%
%TA.AperFunction,ComponentPad*%
%ADD11R,1.700000X1.700000*%
%TD*%
%TA.AperFunction,ComponentPad*%
%ADD12C,1.600000*%
%TD*%
%TA.AperFunction,ComponentPad*%
%ADD13R,1.600000X1.600000*%
%TD*%
%TA.AperFunction,ComponentPad*%
%ADD14O,1.600000X1.600000*%
%TD*%
%TA.AperFunction,ComponentPad*%
%ADD15C,2.000000*%
%TD*%
%TA.AperFunction,ComponentPad*%
%ADD16C,1.500000*%
%TD*%
%TA.AperFunction,ComponentPad*%
%ADD17C,1.550000*%
%TD*%
%TA.AperFunction,ViaPad*%
%ADD18C,0.800000*%
%TD*%
%TA.AperFunction,ViaPad*%
%ADD19C,1.600000*%
%TD*%
%TA.AperFunction,ViaPad*%
%ADD20C,1.000000*%
%TD*%
%TA.AperFunction,Conductor*%
%ADD21C,0.400000*%
%TD*%
%TA.AperFunction,Conductor*%
%ADD22C,1.500000*%
%TD*%
%TA.AperFunction,Conductor*%
%ADD23C,1.200000*%
%TD*%
%TA.AperFunction,Conductor*%
%ADD24C,0.800000*%
%TD*%
%TA.AperFunction,Conductor*%
%ADD25C,2.400000*%
%TD*%
%TA.AperFunction,Conductor*%
%ADD26C,0.300000*%
%TD*%
%TA.AperFunction,Conductor*%
%ADD27C,2.000000*%
%TD*%
G04 APERTURE END LIST*
D10*
%TO.P,JP7,2*%
%TO.N,Net-(JP7-Pad2)*%
X113284000Y-60325000D03*
D11*
%TO.P,JP7,1*%
%TO.N,Net-(JP7-Pad1)*%
X115824000Y-60325000D03*
%TD*%
D10*
%TO.P,JP3,2*%
%TO.N,Net-(JP3-Pad2)*%
X175260000Y-74676000D03*
D11*
%TO.P,JP3,1*%
%TO.N,Net-(JP3-Pad1)*%
X172720000Y-74676000D03*
%TD*%
D12*
%TO.P,X1,7*%
%TO.N,GND*%
X146304000Y-62230000D03*
%TO.P,X1,8*%
%TO.N,Net-(U13-Pad13)*%
X146304000Y-69850000D03*
%TO.P,X1,14*%
%TO.N,+5V*%
X161544000Y-69850000D03*
D13*
%TO.P,X1,1*%
%TO.N,N/C*%
X161544000Y-62230000D03*
%TD*%
D14*
%TO.P,R17,2*%
%TO.N,Net-(JP3-Pad2)*%
X178308000Y-74549000D03*
D12*
%TO.P,R17,1*%
%TO.N,+5V*%
X188468000Y-74549000D03*
%TD*%
D14*
%TO.P,U4,16*%
%TO.N,+5V*%
X82804000Y-62484000D03*
%TO.P,U4,8*%
%TO.N,GND*%
X100584000Y-70104000D03*
%TO.P,U4,15*%
%TO.N,Net-(U2-Pad19)*%
X85344000Y-62484000D03*
%TO.P,U4,7*%
%TO.N,N/C*%
X98044000Y-70104000D03*
%TO.P,U4,14*%
%TO.N,CS_U3*%
X87884000Y-62484000D03*
%TO.P,U4,6*%
%TO.N,Net-(U4-Pad6)*%
X95504000Y-70104000D03*
%TO.P,U4,13*%
%TO.N,N/C*%
X90424000Y-62484000D03*
%TO.P,U4,5*%
%TO.N,GND*%
X92964000Y-70104000D03*
%TO.P,U4,12*%
%TO.N,N/C*%
X92964000Y-62484000D03*
%TO.P,U4,4*%
%TO.N,~IOREQ*%
X90424000Y-70104000D03*
%TO.P,U4,11*%
%TO.N,N/C*%
X95504000Y-62484000D03*
%TO.P,U4,3*%
%TO.N,GND*%
X87884000Y-70104000D03*
%TO.P,U4,10*%
%TO.N,N/C*%
X98044000Y-62484000D03*
%TO.P,U4,2*%
%TO.N,A3*%
X85344000Y-70104000D03*
%TO.P,U4,9*%
%TO.N,N/C*%
X100584000Y-62484000D03*
D13*
%TO.P,U4,1*%
%TO.N,A2*%
X82804000Y-70104000D03*
%TD*%
D11*
%TO.P,TP1,1*%
%TO.N,GND*%
X213360000Y-131064000D03*
%TD*%
D15*
%TO.P,C10,2*%
%TO.N,GND*%
X112268000Y-78406000D03*
%TO.P,C10,1*%
%TO.N,+5V*%
X112268000Y-73406000D03*
%TD*%
D16*
%TO.P,Y1,2*%
%TO.N,Net-(JP3-Pad1)*%
X160200000Y-104648000D03*
%TO.P,Y1,1*%
%TO.N,Net-(JP7-Pad1)*%
X165100000Y-104648000D03*
%TD*%
D14*
%TO.P,U14,14*%
%TO.N,+5V*%
X119888000Y-96520000D03*
%TO.P,U14,7*%
%TO.N,GND*%
X127508000Y-81280000D03*
%TO.P,U14,13*%
%TO.N,L-3*%
X119888000Y-93980000D03*
%TO.P,U14,6*%
%TO.N,DS2*%
X127508000Y-83820000D03*
%TO.P,U14,12*%
%TO.N,Net-(U13-Pad6)*%
X119888000Y-91440000D03*
%TO.P,U14,5*%
X127508000Y-86360000D03*
%TO.P,U14,11*%
%TO.N,DS4*%
X119888000Y-88900000D03*
%TO.P,U14,4*%
%TO.N,L-1*%
X127508000Y-88900000D03*
%TO.P,U14,10*%
%TO.N,L-0*%
X119888000Y-86360000D03*
%TO.P,U14,3*%
%TO.N,DS3*%
X127508000Y-91440000D03*
%TO.P,U14,9*%
%TO.N,Net-(U13-Pad6)*%
X119888000Y-83820000D03*
%TO.P,U14,2*%
X127508000Y-93980000D03*
%TO.P,U14,8*%
%TO.N,DS1*%
X119888000Y-81280000D03*
D13*
%TO.P,U14,1*%
%TO.N,L-2*%
X127508000Y-96520000D03*
%TD*%
D14*
%TO.P,U13,14*%
%TO.N,+5V*%
X119888000Y-73152000D03*
%TO.P,U13,7*%
%TO.N,GND*%
X127508000Y-57912000D03*
%TO.P,U13,13*%
%TO.N,Net-(U13-Pad13)*%
X119888000Y-70612000D03*
%TO.P,U13,6*%
%TO.N,Net-(U13-Pad6)*%
X127508000Y-60452000D03*
%TO.P,U13,12*%
%TO.N,Net-(JP7-Pad2)*%
X119888000Y-68072000D03*
%TO.P,U13,5*%
%TO.N,HEADLOAD*%
X127508000Y-62992000D03*
%TO.P,U13,11*%
%TO.N,N/C*%
X119888000Y-65532000D03*
%TO.P,U13,4*%
%TO.N,Net-(U13-Pad4)*%
X127508000Y-65532000D03*
%TO.P,U13,10*%
%TO.N,N/C*%
X119888000Y-62992000D03*
%TO.P,U13,3*%
%TO.N,READY*%
X127508000Y-68072000D03*
%TO.P,U13,9*%
%TO.N,N/C*%
X119888000Y-60452000D03*
%TO.P,U13,2*%
X127508000Y-70612000D03*
%TO.P,U13,8*%
X119888000Y-57912000D03*
D13*
%TO.P,U13,1*%
X127508000Y-73152000D03*
%TD*%
D14*
%TO.P,U12,14*%
%TO.N,+5V*%
X173228000Y-88900000D03*
%TO.P,U12,7*%
%TO.N,GND*%
X188468000Y-96520000D03*
%TO.P,U12,13*%
%TO.N,TG43-F*%
X175768000Y-88900000D03*
%TO.P,U12,6*%
%TO.N,SIDE*%
X185928000Y-96520000D03*
%TO.P,U12,12*%
%TO.N,TG43*%
X178308000Y-88900000D03*
%TO.P,U12,5*%
%TO.N,Net-(JP1-Pad2)*%
X183388000Y-96520000D03*
%TO.P,U12,11*%
%TO.N,HLD_F*%
X180848000Y-88900000D03*
%TO.P,U12,4*%
%TO.N,N/C*%
X180848000Y-96520000D03*
%TO.P,U12,10*%
%TO.N,HEADLOAD*%
X183388000Y-88900000D03*
%TO.P,U12,3*%
X178308000Y-96520000D03*
%TO.P,U12,9*%
%TO.N,WDOUT*%
X185928000Y-88900000D03*
%TO.P,U12,2*%
%TO.N,~INT*%
X175768000Y-96520000D03*
%TO.P,U12,8*%
%TO.N,WDATA*%
X188468000Y-88900000D03*
D13*
%TO.P,U12,1*%
%TO.N,Net-(U12-Pad1)*%
X173228000Y-96520000D03*
%TD*%
D14*
%TO.P,U11,14*%
%TO.N,+5V*%
X173228000Y-110490000D03*
%TO.P,U11,7*%
%TO.N,GND*%
X188468000Y-118110000D03*
%TO.P,U11,13*%
%TO.N,N/C*%
X175768000Y-110490000D03*
%TO.P,U11,6*%
%TO.N,DIRC*%
X185928000Y-118110000D03*
%TO.P,U11,12*%
%TO.N,N/C*%
X178308000Y-110490000D03*
%TO.P,U11,5*%
%TO.N,DIR-F*%
X183388000Y-118110000D03*
%TO.P,U11,11*%
%TO.N,N/C*%
X180848000Y-110490000D03*
%TO.P,U11,4*%
%TO.N,WG*%
X180848000Y-118110000D03*
%TO.P,U11,10*%
%TO.N,N/C*%
X183388000Y-110490000D03*
%TO.P,U11,3*%
%TO.N,WG-F*%
X178308000Y-118110000D03*
%TO.P,U11,9*%
%TO.N,N/C*%
X185928000Y-110490000D03*
%TO.P,U11,2*%
%TO.N,STEP*%
X175768000Y-118110000D03*
%TO.P,U11,8*%
%TO.N,N/C*%
X188468000Y-110490000D03*
D13*
%TO.P,U11,1*%
%TO.N,ST-F*%
X173228000Y-118110000D03*
%TD*%
D14*
%TO.P,U10,14*%
%TO.N,+5V*%
X173228000Y-99568000D03*
%TO.P,U10,7*%
%TO.N,GND*%
X188468000Y-107188000D03*
%TO.P,U10,13*%
%TO.N,N/C*%
X175768000Y-99568000D03*
%TO.P,U10,6*%
X185928000Y-107188000D03*
%TO.P,U10,12*%
X178308000Y-99568000D03*
%TO.P,U10,5*%
X183388000Y-107188000D03*
%TO.P,U10,11*%
X180848000Y-99568000D03*
%TO.P,U10,4*%
%TO.N,Net-(U10-Pad1)*%
X180848000Y-107188000D03*
%TO.P,U10,10*%
%TO.N,N/C*%
X183388000Y-99568000D03*
%TO.P,U10,3*%
%TO.N,RAWRQ*%
X178308000Y-107188000D03*
%TO.P,U10,9*%
%TO.N,N/C*%
X185928000Y-99568000D03*
%TO.P,U10,2*%
%TO.N,RAWIN*%
X175768000Y-107188000D03*
%TO.P,U10,8*%
%TO.N,N/C*%
X188468000Y-99568000D03*
D13*
%TO.P,U10,1*%
%TO.N,Net-(U10-Pad1)*%
X173228000Y-107188000D03*
%TD*%
D14*
%TO.P,R18,2*%
%TO.N,RAWRQ*%
X165100000Y-85598000D03*
D12*
%TO.P,R18,1*%
%TO.N,+5V*%
X165100000Y-75438000D03*
%TD*%
D14*
%TO.P,R16,2*%
%TO.N,TK0*%
X150368000Y-85598000D03*
D12*
%TO.P,R16,1*%
%TO.N,+5V*%
X150368000Y-75438000D03*
%TD*%
D14*
%TO.P,R15,2*%
%TO.N,INDEX*%
X160528000Y-85598000D03*
D12*
%TO.P,R15,1*%
%TO.N,+5V*%
X160528000Y-75438000D03*
%TD*%
D14*
%TO.P,R14,2*%
%TO.N,WRTPT*%
X155448000Y-85598000D03*
D12*
%TO.P,R14,1*%
%TO.N,+5V*%
X155448000Y-75438000D03*
%TD*%
D14*
%TO.P,R13,2*%
%TO.N,READY*%
X132080000Y-66294000D03*
D12*
%TO.P,R13,1*%
%TO.N,+5V*%
X132080000Y-76454000D03*
%TD*%
D10*
%TO.P,JP6,2*%
%TO.N,Net-(D3-Pad1)*%
X185166000Y-69850000D03*
D11*
%TO.P,JP6,1*%
%TO.N,DS2*%
X187706000Y-69850000D03*
%TD*%
D10*
%TO.P,JP5,2*%
%TO.N,Net-(D2-Pad1)*%
X185166000Y-62230000D03*
D11*
%TO.P,JP5,1*%
%TO.N,DS1*%
X187706000Y-62230000D03*
%TD*%
D10*
%TO.P,JP4,2*%
%TO.N,Net-(D1-Pad1)*%
X185166000Y-58420000D03*
D11*
%TO.P,JP4,1*%
%TO.N,DS4*%
X187706000Y-58420000D03*
%TD*%
D10*
%TO.P,JP2,2*%
%TO.N,Net-(D4-Pad1)*%
X185166000Y-66040000D03*
D11*
%TO.P,JP2,1*%
%TO.N,DS3*%
X187706000Y-66040000D03*
%TD*%
D10*
%TO.P,JP1,3*%
%TO.N,Net-(JP1-Pad3)*%
X161544000Y-143764000D03*
%TO.P,JP1,2*%
%TO.N,Net-(JP1-Pad2)*%
X159004000Y-143764000D03*
D11*
%TO.P,JP1,1*%
%TO.N,L-7*%
X156464000Y-143764000D03*
%TD*%
D10*
%TO.P,J6,6*%
%TO.N,MOTORON*%
X132080000Y-57912000D03*
%TO.P,J6,5*%
%TO.N,GND*%
X134620000Y-57912000D03*
%TO.P,J6,4*%
%TO.N,MOTORON*%
X132080000Y-60452000D03*
%TO.P,J6,3*%
%TO.N,HEADLOAD*%
X134620000Y-60452000D03*
%TO.P,J6,2*%
%TO.N,MOTORON*%
X132080000Y-62992000D03*
D11*
%TO.P,J6,1*%
%TO.N,L-6*%
X134620000Y-62992000D03*
%TD*%
D14*
%TO.P,D4,2*%
%TO.N,READY*%
X173482000Y-66040000D03*
D13*
%TO.P,D4,1*%
%TO.N,Net-(D4-Pad1)*%
X181102000Y-66040000D03*
%TD*%
D14*
%TO.P,D3,2*%
%TO.N,READY*%
X173482000Y-69850000D03*
D13*
%TO.P,D3,1*%
%TO.N,Net-(D3-Pad1)*%
X181102000Y-69850000D03*
%TD*%
D14*
%TO.P,D2,2*%
%TO.N,READY*%
X173482000Y-62230000D03*
D13*
%TO.P,D2,1*%
%TO.N,Net-(D2-Pad1)*%
X181102000Y-62230000D03*
%TD*%
D14*
%TO.P,D1,2*%
%TO.N,READY*%
X173482000Y-58420000D03*
D13*
%TO.P,D1,1*%
%TO.N,Net-(D1-Pad1)*%
X181102000Y-58420000D03*
%TD*%
D10*
%TO.P,J3,12*%
%TO.N,GND*%
X154432000Y-103124000D03*
%TO.P,J3,11*%
%TO.N,Net-(J3-Pad11)*%
X154432000Y-105664000D03*
%TO.P,J3,10*%
%TO.N,TG43-F*%
X151892000Y-103124000D03*
%TO.P,J3,9*%
%TO.N,Net-(J3-Pad11)*%
X151892000Y-105664000D03*
%TO.P,J3,8*%
%TO.N,GND*%
X149352000Y-103124000D03*
%TO.P,J3,7*%
%TO.N,Net-(J3-Pad5)*%
X149352000Y-105664000D03*
%TO.P,J3,6*%
%TO.N,TG43-F*%
X146812000Y-103124000D03*
%TO.P,J3,5*%
%TO.N,Net-(J3-Pad5)*%
X146812000Y-105664000D03*
%TO.P,J3,4*%
%TO.N,GND*%
X144272000Y-103124000D03*
%TO.P,J3,3*%
%TO.N,Net-(J3-Pad1)*%
X144272000Y-105664000D03*
%TO.P,J3,2*%
%TO.N,TG43-F*%
X141732000Y-103124000D03*
D11*
%TO.P,J3,1*%
%TO.N,Net-(J3-Pad1)*%
X141732000Y-105664000D03*
%TD*%
D14*
%TO.P,R6,2*%
%TO.N,Net-(R6-Pad2)*%
X127508000Y-113792000D03*
D12*
%TO.P,R6,1*%
%TO.N,+5V*%
X137668000Y-113792000D03*
%TD*%
D14*
%TO.P,U9,14*%
%TO.N,+5V*%
X132588000Y-96520000D03*
%TO.P,U9,7*%
%TO.N,GND*%
X140208000Y-81280000D03*
%TO.P,U9,13*%
%TO.N,CS_U3*%
X132588000Y-93980000D03*
%TO.P,U9,6*%
%TO.N,N/C*%
X140208000Y-83820000D03*
%TO.P,U9,12*%
%TO.N,~RD*%
X132588000Y-91440000D03*
%TO.P,U9,5*%
%TO.N,N/C*%
X140208000Y-86360000D03*
%TO.P,U9,11*%
%TO.N,Net-(U3-Pad19)*%
X132588000Y-88900000D03*
%TO.P,U9,4*%
%TO.N,N/C*%
X140208000Y-88900000D03*
%TO.P,U9,10*%
%TO.N,~WR*%
X132588000Y-86360000D03*
%TO.P,U9,3*%
%TO.N,N/C*%
X140208000Y-91440000D03*
%TO.P,U9,9*%
%TO.N,CS_U3*%
X132588000Y-83820000D03*
%TO.P,U9,2*%
%TO.N,N/C*%
X140208000Y-93980000D03*
%TO.P,U9,8*%
%TO.N,Net-(U1-Pad11)*%
X132588000Y-81280000D03*
D13*
%TO.P,U9,1*%
%TO.N,N/C*%
X140208000Y-96520000D03*
%TD*%
D14*
%TO.P,U7,20*%
%TO.N,+5V*%
X141732000Y-110236000D03*
%TO.P,U7,10*%
%TO.N,GND*%
X164592000Y-117856000D03*
%TO.P,U7,19*%
%TO.N,Net-(J3-Pad1)*%
X144272000Y-110236000D03*
%TO.P,U7,9*%
%TO.N,CL_F*%
X162052000Y-117856000D03*
%TO.P,U7,18*%
%TO.N,Net-(J3-Pad5)*%
X146812000Y-110236000D03*
%TO.P,U7,8*%
%TO.N,HLT_F*%
X159512000Y-117856000D03*
%TO.P,U7,17*%
%TO.N,Net-(J3-Pad11)*%
X149352000Y-110236000D03*
%TO.P,U7,7*%
%TO.N,WDOUT*%
X156972000Y-117856000D03*
%TO.P,U7,16*%
%TO.N,Net-(JP3-Pad1)*%
X151892000Y-110236000D03*
%TO.P,U7,6*%
%TO.N,DA_F*%
X154432000Y-117856000D03*
%TO.P,U7,15*%
%TO.N,HLD_F*%
X154432000Y-110236000D03*
%TO.P,U7,5*%
%TO.N,SEPC*%
X151892000Y-117856000D03*
%TO.P,U7,14*%
%TO.N,Late*%
X156972000Y-110236000D03*
%TO.P,U7,4*%
%TO.N,Net-(U1-Pad12)*%
X149352000Y-117856000D03*
%TO.P,U7,13*%
%TO.N,Early*%
X159512000Y-110236000D03*
%TO.P,U7,3*%
%TO.N,Net-(U1-Pad15)*%
X146812000Y-117856000D03*
%TO.P,U7,12*%
%TO.N,WD_F*%
X162052000Y-110236000D03*
%TO.P,U7,2*%
%TO.N,GND*%
X144272000Y-117856000D03*
%TO.P,U7,11*%
%TO.N,Net-(JP7-Pad1)*%
X164592000Y-110236000D03*
D13*
%TO.P,U7,1*%
%TO.N,RAWIN*%
X141732000Y-117856000D03*
%TD*%
D14*
%TO.P,R9,2*%
%TO.N,Net-(R9-Pad2)*%
X92964000Y-97536000D03*
D12*
%TO.P,R9,1*%
%TO.N,+5V*%
X82804000Y-97536000D03*
%TD*%
%TO.P,J1,A1*%
%TO.N,+5V*%
%TA.AperFunction,ComponentPad*%
G36*
G01*
X65775450Y-140025000D02*
X64724550Y-140025000D01*
G75*
G02*
X64475000Y-139775450I0J249550D01*
G01*
X64475000Y-138724550D01*
G75*
G02*
X64724550Y-138475000I249550J0D01*
G01*
X65775450Y-138475000D01*
G75*
G02*
X66025000Y-138724550I0J-249550D01*
G01*
X66025000Y-139775450D01*
G75*
G02*
X65775450Y-140025000I-249550J0D01*
G01*
G37*
%TD.AperFunction*%
D17*
%TO.P,J1,A2*%
%TO.N,D5*%
X65250000Y-136710000D03*
%TO.P,J1,A3*%
%TO.N,D6*%
X65250000Y-134170000D03*
%TO.P,J1,A4*%
%TO.N,D3*%
X65250000Y-131630000D03*
%TO.P,J1,A5*%
%TO.N,D4*%
X65250000Y-129090000D03*
%TO.P,J1,A6*%
%TO.N,A2*%
X65250000Y-126550000D03*
%TO.P,J1,A7*%
%TO.N,A4*%
X65250000Y-124010000D03*
%TO.P,J1,A8*%
%TO.N,A5*%
X65250000Y-121470000D03*
%TO.P,J1,A9*%
%TO.N,A6*%
X65250000Y-118930000D03*
%TO.P,J1,A10*%
%TO.N,N/C*%
X65250000Y-116390000D03*
%TO.P,J1,A11*%
X65250000Y-113850000D03*
%TO.P,J1,A12*%
X65250000Y-111310000D03*
%TO.P,J1,A13*%
%TO.N,+12V*%
X65250000Y-108770000D03*
%TO.P,J1,A14*%
%TO.N,N/C*%
X65250000Y-106230000D03*
%TO.P,J1,A15*%
X65250000Y-103690000D03*
%TO.P,J1,A16*%
X65250000Y-101150000D03*
%TO.P,J1,A17*%
X65250000Y-98610000D03*
%TO.P,J1,A18*%
X65250000Y-96070000D03*
%TO.P,J1,A19*%
X65250000Y-93530000D03*
%TO.P,J1,A20*%
%TO.N,~M1*%
X65250000Y-90990000D03*
%TO.P,J1,A21*%
%TO.N,N/C*%
X65250000Y-88450000D03*
%TO.P,J1,A22*%
X65250000Y-85910000D03*
%TO.P,J1,A23*%
X65250000Y-83370000D03*
%TO.P,J1,A24*%
X65250000Y-80830000D03*
%TO.P,J1,A25*%
X65250000Y-78290000D03*
%TO.P,J1,A26*%
X65250000Y-75750000D03*
%TO.P,J1,A27*%
%TO.N,~IOREQ*%
X65250000Y-73210000D03*
%TO.P,J1,A28*%
%TO.N,N/C*%
X65250000Y-70670000D03*
%TO.P,J1,A29*%
X65250000Y-68130000D03*
%TO.P,J1,A30*%
X65250000Y-65590000D03*
%TO.P,J1,A31*%
X65250000Y-63050000D03*
%TO.P,J1,A32*%
%TO.N,GND*%
X65250000Y-60510000D03*
%TO.P,J1,C1*%
%TO.N,+5V*%
X70330000Y-139250000D03*
%TO.P,J1,C2*%
%TO.N,D0*%
X70330000Y-136710000D03*
%TO.P,J1,C3*%
%TO.N,D7*%
X70330000Y-134170000D03*
%TO.P,J1,C4*%
%TO.N,D2*%
X70330000Y-131630000D03*
%TO.P,J1,C5*%
%TO.N,A0*%
X70330000Y-129090000D03*
%TO.P,J1,C6*%
%TO.N,A3*%
X70330000Y-126550000D03*
%TO.P,J1,C7*%
%TO.N,A1*%
X70330000Y-124010000D03*
%TO.P,J1,C8*%
%TO.N,N/C*%
X70330000Y-121470000D03*
%TO.P,J1,C9*%
%TO.N,A7*%
X70330000Y-118930000D03*
%TO.P,J1,C10*%
%TO.N,N/C*%
X70330000Y-116390000D03*
%TO.P,J1,C11*%
%TO.N,Net-(J1-PadC11)*%
X70330000Y-113850000D03*
%TO.P,J1,C12*%
%TO.N,N/C*%
X70330000Y-111310000D03*
%TO.P,J1,C13*%
X70330000Y-108770000D03*
%TO.P,J1,C14*%
%TO.N,D1*%
X70330000Y-106230000D03*
%TO.P,J1,C15*%
%TO.N,N/C*%
X70330000Y-103690000D03*
%TO.P,J1,C16*%
%TO.N,Net-(J1-PadC11)*%
X70330000Y-101150000D03*
%TO.P,J1,C17*%
%TO.N,N/C*%
X70330000Y-98610000D03*
%TO.P,J1,C18*%
X70330000Y-96070000D03*
%TO.P,J1,C19*%
X70330000Y-93530000D03*
%TO.P,J1,C20*%
X70330000Y-90990000D03*
%TO.P,J1,C21*%
%TO.N,~INT*%
X70330000Y-88450000D03*
%TO.P,J1,C22*%
%TO.N,~WR*%
X70330000Y-85910000D03*
%TO.P,J1,C23*%
%TO.N,N/C*%
X70330000Y-83370000D03*
%TO.P,J1,C24*%
%TO.N,~RD*%
X70330000Y-80830000D03*
%TO.P,J1,C25*%
%TO.N,N/C*%
X70330000Y-78290000D03*
%TO.P,J1,C26*%
X70330000Y-75750000D03*
%TO.P,J1,C27*%
X70330000Y-73210000D03*
%TO.P,J1,C28*%
X70330000Y-70670000D03*
%TO.P,J1,C29*%
X70330000Y-68130000D03*
%TO.P,J1,C30*%
X70330000Y-65590000D03*
%TO.P,J1,C31*%
%TO.N,~RESET*%
X70330000Y-63050000D03*
%TO.P,J1,C32*%
%TO.N,GND*%
X70330000Y-60510000D03*
%TD*%
D10*
%TO.P,J2,8*%
%TO.N,GND*%
X99060000Y-78232000D03*
%TO.P,J2,7*%
%TO.N,Net-(J2-Pad7)*%
X99060000Y-80772000D03*
%TO.P,J2,6*%
%TO.N,GND*%
X96520000Y-78232000D03*
%TO.P,J2,5*%
%TO.N,Net-(J2-Pad5)*%
X96520000Y-80772000D03*
%TO.P,J2,4*%
%TO.N,GND*%
X93980000Y-78232000D03*
%TO.P,J2,3*%
%TO.N,Net-(J2-Pad3)*%
X93980000Y-80772000D03*
%TO.P,J2,2*%
%TO.N,GND*%
X91440000Y-78232000D03*
D11*
%TO.P,J2,1*%
%TO.N,Net-(J2-Pad1)*%
X91440000Y-80772000D03*
%TD*%
D14*
%TO.P,U8,16*%
%TO.N,+5V*%
X145288000Y-88900000D03*
%TO.P,U8,8*%
%TO.N,GND*%
X163068000Y-96520000D03*
%TO.P,U8,15*%
X147828000Y-88900000D03*
%TO.P,U8,7*%
%TO.N,TR0-F*%
X160528000Y-96520000D03*
%TO.P,U8,14*%
%TO.N,N/C*%
X150368000Y-88900000D03*
%TO.P,U8,6*%
%TO.N,TK0*%
X157988000Y-96520000D03*
%TO.P,U8,13*%
%TO.N,N/C*%
X152908000Y-88900000D03*
%TO.P,U8,5*%
%TO.N,Net-(U3-Pad11)*%
X155448000Y-96520000D03*
%TO.P,U8,12*%
%TO.N,WRTPT*%
X155448000Y-88900000D03*
%TO.P,U8,4*%
%TO.N,Net-(R8-Pad2)*%
X152908000Y-96520000D03*
%TO.P,U8,11*%
%TO.N,WRPT-F*%
X157988000Y-88900000D03*
%TO.P,U8,3*%
%TO.N,Net-(U12-Pad1)*%
X150368000Y-96520000D03*
%TO.P,U8,10*%
%TO.N,INDEX*%
X160528000Y-88900000D03*
%TO.P,U8,2*%
%TO.N,Net-(R6-Pad2)*%
X147828000Y-96520000D03*
%TO.P,U8,9*%
%TO.N,IP-F*%
X163068000Y-88900000D03*
D13*
%TO.P,U8,1*%
%TO.N,GND*%
X145288000Y-96520000D03*
%TD*%
D14*
%TO.P,U6,16*%
%TO.N,+5V*%
X82804000Y-86360000D03*
%TO.P,U6,8*%
%TO.N,GND*%
X100584000Y-93980000D03*
%TO.P,U6,15*%
%TO.N,Net-(J2-Pad1)*%
X85344000Y-86360000D03*
%TO.P,U6,7*%
%TO.N,N/C*%
X98044000Y-93980000D03*
%TO.P,U6,14*%
%TO.N,A5*%
X87884000Y-86360000D03*
%TO.P,U6,6*%
%TO.N,Net-(U4-Pad6)*%
X95504000Y-93980000D03*
%TO.P,U6,13*%
%TO.N,Net-(J2-Pad3)*%
X90424000Y-86360000D03*
%TO.P,U6,5*%
%TO.N,N/C*%
X92964000Y-93980000D03*
%TO.P,U6,12*%
%TO.N,Net-(J2-Pad5)*%
X92964000Y-86360000D03*
%TO.P,U6,4*%
%TO.N,Net-(R9-Pad2)*%
X90424000Y-93980000D03*
%TO.P,U6,11*%
%TO.N,A6*%
X95504000Y-86360000D03*
%TO.P,U6,3*%
%TO.N,~M1*%
X87884000Y-93980000D03*
%TO.P,U6,10*%
%TO.N,Net-(J2-Pad7)*%
X98044000Y-86360000D03*
%TO.P,U6,2*%
%TO.N,Net-(R9-Pad2)*%
X85344000Y-93980000D03*
%TO.P,U6,9*%
%TO.N,A7*%
X100584000Y-86360000D03*
D13*
%TO.P,U6,1*%
%TO.N,A4*%
X82804000Y-93980000D03*
%TD*%
D14*
%TO.P,U3,20*%
%TO.N,+5V*%
X82804000Y-116078000D03*
%TO.P,U3,10*%
%TO.N,GND*%
X105664000Y-123698000D03*
%TO.P,U3,19*%
%TO.N,Net-(U3-Pad19)*%
X85344000Y-116078000D03*
%TO.P,U3,9*%
%TO.N,D7*%
X103124000Y-123698000D03*
%TO.P,U3,18*%
%TO.N,N/C*%
X87884000Y-116078000D03*
%TO.P,U3,8*%
%TO.N,D6*%
X100584000Y-123698000D03*
%TO.P,U3,17*%
%TO.N,N/C*%
X90424000Y-116078000D03*
%TO.P,U3,7*%
%TO.N,D5*%
X98044000Y-123698000D03*
%TO.P,U3,16*%
%TO.N,N/C*%
X92964000Y-116078000D03*
%TO.P,U3,6*%
%TO.N,D4*%
X95504000Y-123698000D03*
%TO.P,U3,15*%
%TO.N,N/C*%
X95504000Y-116078000D03*
%TO.P,U3,5*%
%TO.N,D3*%
X92964000Y-123698000D03*
%TO.P,U3,14*%
%TO.N,N/C*%
X98044000Y-116078000D03*
%TO.P,U3,4*%
%TO.N,D2*%
X90424000Y-123698000D03*
%TO.P,U3,13*%
%TO.N,Net-(U13-Pad6)*%
X100584000Y-116078000D03*
%TO.P,U3,3*%
%TO.N,D1*%
X87884000Y-123698000D03*
%TO.P,U3,12*%
%TO.N,Net-(U12-Pad1)*%
X103124000Y-116078000D03*
%TO.P,U3,2*%
%TO.N,D0*%
X85344000Y-123698000D03*
%TO.P,U3,11*%
%TO.N,Net-(U3-Pad11)*%
X105664000Y-116078000D03*
D13*
%TO.P,U3,1*%
%TO.N,GND*%
X82804000Y-123698000D03*
%TD*%
D14*
%TO.P,U2,20*%
%TO.N,+5V*%
X82804000Y-131572000D03*
%TO.P,U2,10*%
%TO.N,GND*%
X105664000Y-139192000D03*
%TO.P,U2,19*%
%TO.N,Net-(U2-Pad19)*%
X85344000Y-131572000D03*
%TO.P,U2,9*%
%TO.N,D7*%
X103124000Y-139192000D03*
%TO.P,U2,18*%
%TO.N,Net-(RN1-Pad2)*%
X87884000Y-131572000D03*
%TO.P,U2,8*%
%TO.N,D6*%
X100584000Y-139192000D03*
%TO.P,U2,17*%
%TO.N,Net-(RN1-Pad3)*%
X90424000Y-131572000D03*
%TO.P,U2,7*%
%TO.N,D5*%
X98044000Y-139192000D03*
%TO.P,U2,16*%
%TO.N,Net-(RN1-Pad4)*%
X92964000Y-131572000D03*
%TO.P,U2,6*%
%TO.N,D4*%
X95504000Y-139192000D03*
%TO.P,U2,15*%
%TO.N,Net-(RN1-Pad5)*%
X95504000Y-131572000D03*
%TO.P,U2,5*%
%TO.N,D3*%
X92964000Y-139192000D03*
%TO.P,U2,14*%
%TO.N,Net-(RN1-Pad6)*%
X98044000Y-131572000D03*
%TO.P,U2,4*%
%TO.N,D2*%
X90424000Y-139192000D03*
%TO.P,U2,13*%
%TO.N,Net-(RN1-Pad7)*%
X100584000Y-131572000D03*
%TO.P,U2,3*%
%TO.N,D1*%
X87884000Y-139192000D03*
%TO.P,U2,12*%
%TO.N,Net-(RN1-Pad8)*%
X103124000Y-131572000D03*
%TO.P,U2,2*%
%TO.N,D0*%
X85344000Y-139192000D03*
%TO.P,U2,11*%
%TO.N,Net-(RN1-Pad9)*%
X105664000Y-131572000D03*
D13*
%TO.P,U2,1*%
%TO.N,~RD*%
X82804000Y-139192000D03*
%TD*%
D14*
%TO.P,U1,20*%
%TO.N,+5V*%
X82804000Y-101092000D03*
%TO.P,U1,10*%
%TO.N,GND*%
X105664000Y-108712000D03*
%TO.P,U1,19*%
%TO.N,L-7*%
X85344000Y-101092000D03*
%TO.P,U1,9*%
%TO.N,L-3*%
X103124000Y-108712000D03*
%TO.P,U1,18*%
%TO.N,D7*%
X87884000Y-101092000D03*
%TO.P,U1,8*%
%TO.N,D3*%
X100584000Y-108712000D03*
%TO.P,U1,17*%
%TO.N,D6*%
X90424000Y-101092000D03*
%TO.P,U1,7*%
%TO.N,D2*%
X98044000Y-108712000D03*
%TO.P,U1,16*%
%TO.N,L-6*%
X92964000Y-101092000D03*
%TO.P,U1,6*%
%TO.N,L-2*%
X95504000Y-108712000D03*
%TO.P,U1,15*%
%TO.N,Net-(U1-Pad15)*%
X95504000Y-101092000D03*
%TO.P,U1,5*%
%TO.N,L-1*%
X92964000Y-108712000D03*
%TO.P,U1,14*%
%TO.N,D5*%
X98044000Y-101092000D03*
%TO.P,U1,4*%
%TO.N,D1*%
X90424000Y-108712000D03*
%TO.P,U1,13*%
%TO.N,D4*%
X100584000Y-101092000D03*
%TO.P,U1,3*%
%TO.N,D0*%
X87884000Y-108712000D03*
%TO.P,U1,12*%
%TO.N,Net-(U1-Pad12)*%
X103124000Y-101092000D03*
%TO.P,U1,2*%
%TO.N,L-0*%
X85344000Y-108712000D03*
%TO.P,U1,11*%
%TO.N,Net-(U1-Pad11)*%
X105664000Y-101092000D03*
D13*
%TO.P,U1,1*%
%TO.N,~RESET*%
X82804000Y-108712000D03*
%TD*%
D10*
%TO.P,J5,34*%
%TO.N,READY*%
X210820000Y-70104000D03*
%TO.P,J5,33*%
%TO.N,GND*%
X213360000Y-70104000D03*
%TO.P,J5,32*%
%TO.N,SIDE*%
X210820000Y-72644000D03*
%TO.P,J5,31*%
%TO.N,GND*%
X213360000Y-72644000D03*
%TO.P,J5,30*%
%TO.N,RAWRQ*%
X210820000Y-75184000D03*
%TO.P,J5,29*%
%TO.N,GND*%
X213360000Y-75184000D03*
%TO.P,J5,28*%
%TO.N,WRTPT*%
X210820000Y-77724000D03*
%TO.P,J5,27*%
%TO.N,GND*%
X213360000Y-77724000D03*
%TO.P,J5,26*%
%TO.N,TK0*%
X210820000Y-80264000D03*
%TO.P,J5,25*%
%TO.N,GND*%
X213360000Y-80264000D03*
%TO.P,J5,24*%
%TO.N,WG*%
X210820000Y-82804000D03*
%TO.P,J5,23*%
%TO.N,GND*%
X213360000Y-82804000D03*
%TO.P,J5,22*%
%TO.N,WDATA*%
X210820000Y-85344000D03*
%TO.P,J5,21*%
%TO.N,GND*%
X213360000Y-85344000D03*
%TO.P,J5,20*%
%TO.N,STEP*%
X210820000Y-87884000D03*
%TO.P,J5,19*%
%TO.N,GND*%
X213360000Y-87884000D03*
%TO.P,J5,18*%
%TO.N,DIRC*%
X210820000Y-90424000D03*
%TO.P,J5,17*%
%TO.N,GND*%
X213360000Y-90424000D03*
%TO.P,J5,16*%
%TO.N,MOTORON*%
X210820000Y-92964000D03*
%TO.P,J5,15*%
%TO.N,GND*%
X213360000Y-92964000D03*
%TO.P,J5,14*%
%TO.N,DS3*%
X210820000Y-95504000D03*
%TO.P,J5,13*%
%TO.N,GND*%
X213360000Y-95504000D03*
%TO.P,J5,12*%
%TO.N,DS2*%
X210820000Y-98044000D03*
%TO.P,J5,11*%
%TO.N,GND*%
X213360000Y-98044000D03*
%TO.P,J5,10*%
%TO.N,DS1*%
X210820000Y-100584000D03*
%TO.P,J5,9*%
%TO.N,GND*%
X213360000Y-100584000D03*
%TO.P,J5,8*%
%TO.N,INDEX*%
X210820000Y-103124000D03*
%TO.P,J5,7*%
%TO.N,GND*%
X213360000Y-103124000D03*
%TO.P,J5,6*%
%TO.N,DS4*%
X210820000Y-105664000D03*
%TO.P,J5,5*%
%TO.N,GND*%
X213360000Y-105664000D03*
%TO.P,J5,4*%
%TO.N,N/C*%
X210820000Y-108204000D03*
%TO.P,J5,3*%
%TO.N,GND*%
X213360000Y-108204000D03*
%TO.P,J5,2*%
%TO.N,N/C*%
X210820000Y-110744000D03*
D11*
%TO.P,J5,1*%
%TO.N,GND*%
X213360000Y-110744000D03*
%TD*%
D14*
%TO.P,U5,40*%
%TO.N,+12V*%
X116332000Y-123952000D03*
%TO.P,U5,20*%
%TO.N,GND*%
X164592000Y-139192000D03*
%TO.P,U5,39*%
%TO.N,Net-(R6-Pad2)*%
X118872000Y-123952000D03*
%TO.P,U5,19*%
%TO.N,~RESET*%
X162052000Y-139192000D03*
%TO.P,U5,38*%
%TO.N,Net-(R8-Pad2)*%
X121412000Y-123952000D03*
%TO.P,U5,18*%
%TO.N,Late*%
X159512000Y-139192000D03*
%TO.P,U5,37*%
%TO.N,Net-(U1-Pad12)*%
X123952000Y-123952000D03*
%TO.P,U5,17*%
%TO.N,Early*%
X156972000Y-139192000D03*
%TO.P,U5,36*%
%TO.N,WRPT-F*%
X126492000Y-123952000D03*
%TO.P,U5,16*%
%TO.N,DIR-F*%
X154432000Y-139192000D03*
%TO.P,U5,35*%
%TO.N,IP-F*%
X129032000Y-123952000D03*
%TO.P,U5,15*%
%TO.N,ST-F*%
X151892000Y-139192000D03*
%TO.P,U5,34*%
%TO.N,TR0-F*%
X131572000Y-123952000D03*
%TO.P,U5,14*%
%TO.N,Net-(RN1-Pad9)*%
X149352000Y-139192000D03*
%TO.P,U5,33*%
%TO.N,Net-(R3-Pad2)*%
X134112000Y-123952000D03*
%TO.P,U5,13*%
%TO.N,Net-(RN1-Pad8)*%
X146812000Y-139192000D03*
%TO.P,U5,32*%
%TO.N,Net-(U13-Pad4)*%
X136652000Y-123952000D03*
%TO.P,U5,12*%
%TO.N,Net-(RN1-Pad7)*%
X144272000Y-139192000D03*
%TO.P,U5,31*%
%TO.N,WD_F*%
X139192000Y-123952000D03*
%TO.P,U5,11*%
%TO.N,Net-(RN1-Pad6)*%
X141732000Y-139192000D03*
%TO.P,U5,30*%
%TO.N,WG-F*%
X141732000Y-123952000D03*
%TO.P,U5,10*%
%TO.N,Net-(RN1-Pad5)*%
X139192000Y-139192000D03*
%TO.P,U5,29*%
%TO.N,TG43-F*%
X144272000Y-123952000D03*
%TO.P,U5,9*%
%TO.N,Net-(RN1-Pad4)*%
X136652000Y-139192000D03*
%TO.P,U5,28*%
%TO.N,HLD_F*%
X146812000Y-123952000D03*
%TO.P,U5,8*%
%TO.N,Net-(RN1-Pad3)*%
X134112000Y-139192000D03*
%TO.P,U5,27*%
%TO.N,DA_F*%
X149352000Y-123952000D03*
%TO.P,U5,7*%
%TO.N,Net-(RN1-Pad2)*%
X131572000Y-139192000D03*
%TO.P,U5,26*%
%TO.N,SEPC*%
X151892000Y-123952000D03*
%TO.P,U5,6*%
%TO.N,A1*%
X129032000Y-139192000D03*
%TO.P,U5,25*%
%TO.N,Net-(JP1-Pad3)*%
X154432000Y-123952000D03*
%TO.P,U5,5*%
%TO.N,A0*%
X126492000Y-139192000D03*
%TO.P,U5,24*%
%TO.N,CL_F*%
X156972000Y-123952000D03*
%TO.P,U5,4*%
%TO.N,~RD*%
X123952000Y-139192000D03*
%TO.P,U5,23*%
%TO.N,HLT_F*%
X159512000Y-123952000D03*
%TO.P,U5,3*%
%TO.N,Net-(U2-Pad19)*%
X121412000Y-139192000D03*
%TO.P,U5,22*%
%TO.N,Net-(R4-Pad2)*%
X162052000Y-123952000D03*
%TO.P,U5,2*%
%TO.N,~WR*%
X118872000Y-139192000D03*
%TO.P,U5,21*%
%TO.N,+5V*%
X164592000Y-123952000D03*
D13*
%TO.P,U5,1*%
%TO.N,N/C*%
X116332000Y-139192000D03*
%TD*%
D14*
%TO.P,RN1,9*%
%TO.N,Net-(RN1-Pad9)*%
X149352000Y-143764000D03*
%TO.P,RN1,8*%
%TO.N,Net-(RN1-Pad8)*%
X146812000Y-143764000D03*
%TO.P,RN1,7*%
%TO.N,Net-(RN1-Pad7)*%
X144272000Y-143764000D03*
%TO.P,RN1,6*%
%TO.N,Net-(RN1-Pad6)*%
X141732000Y-143764000D03*
%TO.P,RN1,5*%
%TO.N,Net-(RN1-Pad5)*%
X139192000Y-143764000D03*
%TO.P,RN1,4*%
%TO.N,Net-(RN1-Pad4)*%
X136652000Y-143764000D03*
%TO.P,RN1,3*%
%TO.N,Net-(RN1-Pad3)*%
X134112000Y-143764000D03*
%TO.P,RN1,2*%
%TO.N,Net-(RN1-Pad2)*%
X131572000Y-143764000D03*
D13*
%TO.P,RN1,1*%
%TO.N,+5V*%
X129032000Y-143764000D03*
%TD*%
D14*
%TO.P,R12,2*%
%TO.N,Net-(J3-Pad11)*%
X137668000Y-110236000D03*
D12*
%TO.P,R12,1*%
%TO.N,+5V*%
X127508000Y-110236000D03*
%TD*%
D14*
%TO.P,R11,2*%
%TO.N,Net-(J3-Pad5)*%
X137668000Y-106680000D03*
D12*
%TO.P,R11,1*%
%TO.N,+5V*%
X127508000Y-106680000D03*
%TD*%
D14*
%TO.P,R10,2*%
%TO.N,Net-(J3-Pad1)*%
X137668000Y-103124000D03*
D12*
%TO.P,R10,1*%
%TO.N,+5V*%
X127508000Y-103124000D03*
%TD*%
D14*
%TO.P,R8,2*%
%TO.N,Net-(R8-Pad2)*%
X127508000Y-117348000D03*
D12*
%TO.P,R8,1*%
%TO.N,+5V*%
X137668000Y-117348000D03*
%TD*%
D14*
%TO.P,R7,2*%
%TO.N,+5V*%
X82804000Y-73152000D03*
D12*
%TO.P,R7,1*%
%TO.N,Net-(J2-Pad1)*%
X82804000Y-83312000D03*
%TD*%
D14*
%TO.P,R5,2*%
%TO.N,+5V*%
X86360000Y-73152000D03*
D12*
%TO.P,R5,1*%
%TO.N,Net-(J2-Pad3)*%
X86360000Y-83312000D03*
%TD*%
D14*
%TO.P,R4,2*%
%TO.N,Net-(R4-Pad2)*%
X172212000Y-127000000D03*
D12*
%TO.P,R4,1*%
%TO.N,+5V*%
X172212000Y-137160000D03*
%TD*%
D14*
%TO.P,R3,2*%
%TO.N,Net-(R3-Pad2)*%
X177292000Y-127000000D03*
D12*
%TO.P,R3,1*%
%TO.N,+5V*%
X177292000Y-137160000D03*
%TD*%
D14*
%TO.P,R2,2*%
%TO.N,+5V*%
X103632000Y-73152000D03*
D12*
%TO.P,R2,1*%
%TO.N,Net-(J2-Pad5)*%
X103632000Y-83312000D03*
%TD*%
D14*
%TO.P,R1,2*%
%TO.N,+5V*%
X107188000Y-73152000D03*
D12*
%TO.P,R1,1*%
%TO.N,Net-(J2-Pad7)*%
X107188000Y-83312000D03*
%TD*%
D10*
%TO.P,J4,50*%
%TO.N,N/C*%
X199390000Y-70104000D03*
%TO.P,J4,49*%
%TO.N,GND*%
X201930000Y-70104000D03*
%TO.P,J4,48*%
%TO.N,N/C*%
X199390000Y-72644000D03*
%TO.P,J4,47*%
%TO.N,GND*%
X201930000Y-72644000D03*
%TO.P,J4,46*%
%TO.N,RAWRQ*%
X199390000Y-75184000D03*
%TO.P,J4,45*%
%TO.N,GND*%
X201930000Y-75184000D03*
%TO.P,J4,44*%
%TO.N,WRTPT*%
X199390000Y-77724000D03*
%TO.P,J4,43*%
%TO.N,GND*%
X201930000Y-77724000D03*
%TO.P,J4,42*%
%TO.N,TK0*%
X199390000Y-80264000D03*
%TO.P,J4,41*%
%TO.N,GND*%
X201930000Y-80264000D03*
%TO.P,J4,40*%
%TO.N,WG*%
X199390000Y-82804000D03*
%TO.P,J4,39*%
%TO.N,GND*%
X201930000Y-82804000D03*
%TO.P,J4,38*%
%TO.N,WDATA*%
X199390000Y-85344000D03*
%TO.P,J4,37*%
%TO.N,GND*%
X201930000Y-85344000D03*
%TO.P,J4,36*%
%TO.N,STEP*%
X199390000Y-87884000D03*
%TO.P,J4,35*%
%TO.N,GND*%
X201930000Y-87884000D03*
%TO.P,J4,34*%
%TO.N,DIRC*%
X199390000Y-90424000D03*
%TO.P,J4,33*%
%TO.N,GND*%
X201930000Y-90424000D03*
%TO.P,J4,32*%
%TO.N,DS4*%
X199390000Y-92964000D03*
%TO.P,J4,31*%
%TO.N,GND*%
X201930000Y-92964000D03*
%TO.P,J4,30*%
%TO.N,DS3*%
X199390000Y-95504000D03*
%TO.P,J4,29*%
%TO.N,GND*%
X201930000Y-95504000D03*
%TO.P,J4,28*%
%TO.N,DS2*%
X199390000Y-98044000D03*
%TO.P,J4,27*%
%TO.N,GND*%
X201930000Y-98044000D03*
%TO.P,J4,26*%
%TO.N,DS1*%
X199390000Y-100584000D03*
%TO.P,J4,25*%
%TO.N,GND*%
X201930000Y-100584000D03*
%TO.P,J4,24*%
%TO.N,N/C*%
X199390000Y-103124000D03*
%TO.P,J4,23*%
%TO.N,GND*%
X201930000Y-103124000D03*
%TO.P,J4,22*%
%TO.N,READY*%
X199390000Y-105664000D03*
%TO.P,J4,21*%
%TO.N,GND*%
X201930000Y-105664000D03*
%TO.P,J4,20*%
%TO.N,INDEX*%
X199390000Y-108204000D03*
%TO.P,J4,19*%
%TO.N,GND*%
X201930000Y-108204000D03*
%TO.P,J4,18*%
%TO.N,HEADLOAD*%
X199390000Y-110744000D03*
%TO.P,J4,17*%
%TO.N,GND*%
X201930000Y-110744000D03*
%TO.P,J4,16*%
%TO.N,N/C*%
X199390000Y-113284000D03*
%TO.P,J4,15*%
%TO.N,GND*%
X201930000Y-113284000D03*
%TO.P,J4,14*%
%TO.N,SIDE*%
X199390000Y-115824000D03*
%TO.P,J4,13*%
%TO.N,GND*%
X201930000Y-115824000D03*
%TO.P,J4,12*%
%TO.N,N/C*%
X199390000Y-118364000D03*
%TO.P,J4,11*%
%TO.N,GND*%
X201930000Y-118364000D03*
%TO.P,J4,10*%
%TO.N,N/C*%
X199390000Y-120904000D03*
%TO.P,J4,9*%
%TO.N,GND*%
X201930000Y-120904000D03*
%TO.P,J4,8*%
%TO.N,N/C*%
X199390000Y-123444000D03*
%TO.P,J4,7*%
%TO.N,GND*%
X201930000Y-123444000D03*
%TO.P,J4,6*%
%TO.N,N/C*%
X199390000Y-125984000D03*
%TO.P,J4,5*%
%TO.N,GND*%
X201930000Y-125984000D03*
%TO.P,J4,4*%
%TO.N,N/C*%
X199390000Y-128524000D03*
%TO.P,J4,3*%
%TO.N,GND*%
X201930000Y-128524000D03*
%TO.P,J4,2*%
%TO.N,TG43*%
X199390000Y-131064000D03*
D11*
%TO.P,J4,1*%
%TO.N,GND*%
X201930000Y-131064000D03*
%TD*%
D15*
%TO.P,C9,2*%
%TO.N,GND*%
X112268000Y-128952000D03*
%TO.P,C9,1*%
%TO.N,+12V*%
X112268000Y-123952000D03*
%TD*%
D12*
%TO.P,C8,2*%
%TO.N,GND*%
X118364000Y-119340000D03*
D13*
%TO.P,C8,1*%
%TO.N,+12V*%
X118364000Y-116840000D03*
%TD*%
D15*
%TO.P,C19,2*%
%TO.N,GND*%
X112268000Y-141812000D03*
%TO.P,C19,1*%
%TO.N,+5V*%
X112268000Y-146812000D03*
%TD*%
%TO.P,C7,2*%
%TO.N,GND*%
X191516000Y-141812000D03*
%TO.P,C7,1*%
%TO.N,+5V*%
X191516000Y-146812000D03*
%TD*%
%TO.P,C6,2*%
%TO.N,GND*%
X169244000Y-86106000D03*
%TO.P,C6,1*%
%TO.N,+5V*%
X174244000Y-86106000D03*
%TD*%
%TO.P,C5,2*%
%TO.N,GND*%
X169164000Y-141812000D03*
%TO.P,C5,1*%
%TO.N,+5V*%
X169164000Y-146812000D03*
%TD*%
%TO.P,C4,2*%
%TO.N,GND*%
X166624000Y-66755000D03*
%TO.P,C4,1*%
%TO.N,+5V*%
X166624000Y-71755000D03*
%TD*%
%TO.P,C3,2*%
%TO.N,GND*%
X75692000Y-54436000D03*
%TO.P,C3,1*%
%TO.N,+5V*%
X75692000Y-59436000D03*
%TD*%
D12*
%TO.P,C2,2*%
%TO.N,GND*%
X200660000Y-138978000D03*
D13*
%TO.P,C2,1*%
%TO.N,+5V*%
X200660000Y-141478000D03*
%TD*%
D12*
%TO.P,C1,2*%
%TO.N,GND*%
X83312000Y-54904000D03*
D13*
%TO.P,C1,1*%
%TO.N,+5V*%
X83312000Y-57404000D03*
%TD*%
D18*
%TO.N,*%
X148043999Y-111721999D03*
%TO.N,GND*%
X109728000Y-119888000D03*
D19*
X169164000Y-54356000D03*
X109728000Y-54356000D03*
X201930000Y-54356000D03*
D20*
X109220000Y-93980000D03*
X109220000Y-108712000D03*
D18*
X169164000Y-102108000D03*
D19*
X191262000Y-54356000D03*
X169164000Y-96520000D03*
X140208000Y-54102000D03*
D18*
X169164000Y-117856000D03*
D19*
X191262000Y-118110000D03*
D18*
X142240000Y-54102000D03*
D20*
%TO.N,+5V*%
X78740000Y-146304000D03*
D19*
X174752000Y-123952000D03*
X119888000Y-109982000D03*
X132080000Y-112268000D03*
X166878000Y-113792000D03*
X141732000Y-113792000D03*
X145288000Y-76454000D03*
D18*
X188468000Y-86741000D03*
%TO.N,D5*%
X98552000Y-110744000D03*
X103124000Y-110744000D03*
D20*
%TO.N,D6*%
X73152000Y-141224000D03*
X73050999Y-135534999D03*
D18*
X90424000Y-105156000D03*
X104324001Y-105340001D03*
%TO.N,D3*%
X93980000Y-136144000D03*
%TO.N,D4*%
X95504000Y-127254000D03*
%TO.N,A2*%
X68072000Y-69596000D03*
%TO.N,A4*%
X75082999Y-122834999D03*
X75082999Y-94081001D03*
%TO.N,A5*%
X74066999Y-120294999D03*
X74066999Y-88493001D03*
%TO.N,A6*%
X111861001Y-117754999D03*
X95504000Y-89916000D03*
X111760000Y-89916000D03*
%TO.N,D7*%
X69088000Y-105156000D03*
X87884000Y-105156000D03*
%TO.N,D2*%
X91440000Y-135128000D03*
%TO.N,A0*%
X74168000Y-144780000D03*
%TO.N,A3*%
X73094000Y-126550000D03*
X73152000Y-68072000D03*
%TO.N,A1*%
X74226000Y-124010000D03*
%TO.N,A7*%
X113052030Y-118595970D03*
X112776000Y-86360000D03*
%TO.N,D1*%
X89466000Y-106230000D03*
%TO.N,~WR*%
X118872000Y-128016000D03*
X76238001Y-128054001D03*
X74551002Y-85852000D03*
X130048000Y-113030000D03*
%TO.N,~RD*%
X82804000Y-143764000D03*
X77038002Y-139369998D03*
X76650000Y-80830000D03*
X122682000Y-95250000D03*
X135636000Y-91440000D03*
X135636000Y-95250000D03*
%TO.N,~RESET*%
X83820000Y-129032000D03*
X67056000Y-107696000D03*
X160782000Y-131318000D03*
%TO.N,RAWRQ*%
X178562000Y-104394000D03*
X193294000Y-103124000D03*
X193294000Y-75184000D03*
X192786000Y-85598000D03*
%TO.N,TK0*%
X195326000Y-92456000D03*
X195326000Y-80264000D03*
%TO.N,WG*%
X180594000Y-114808000D03*
X196088000Y-114808000D03*
%TO.N,STEP*%
X196596000Y-120904000D03*
%TO.N,DIRC*%
X197866000Y-119888000D03*
%TO.N,DS4*%
X206736001Y-91713999D03*
X206736001Y-58439999D03*
X122682000Y-88900000D03*
X122682000Y-79756000D03*
X189738000Y-79756000D03*
%TO.N,DS3*%
X205720001Y-94253999D03*
X205720001Y-66313999D03*
X130175000Y-85217000D03*
X183134000Y-82550000D03*
%TO.N,DS2*%
X188506001Y-91655999D03*
X143256000Y-90424000D03*
X143256000Y-83566000D03*
%TO.N,DS1*%
X204958001Y-99333999D03*
X204558002Y-62318002D03*
%TO.N,READY*%
X195326000Y-94996000D03*
X195326000Y-105664000D03*
X207264000Y-103632000D03*
X207772000Y-70104000D03*
X182118000Y-94742000D03*
%TO.N,INDEX*%
X184658000Y-105410000D03*
X184658000Y-90424000D03*
%TO.N,SIDE*%
X194564000Y-98044000D03*
X194818000Y-115824000D03*
%TO.N,Net-(R3-Pad2)*%
X134112000Y-128524000D03*
%TO.N,Net-(R6-Pad2)*%
X129032000Y-98552000D03*
%TO.N,Net-(R8-Pad2)*%
X145611999Y-130994001D03*
X121412000Y-131064000D03*
%TO.N,Net-(U1-Pad15)*%
X124968000Y-104394000D03*
X127508000Y-120396000D03*
%TO.N,Net-(U1-Pad12)*%
X103124000Y-103124000D03*
X123952000Y-103124000D03*
%TO.N,Net-(U2-Pad19)*%
X114300000Y-131572000D03*
X114300000Y-67056000D03*
%TO.N,WD_F*%
X145542000Y-112522000D03*
X145034000Y-120904000D03*
X141224000Y-120904000D03*
%TO.N,HLD_F*%
X179578000Y-102362000D03*
X179578000Y-102362000D03*
X179578000Y-102362000D03*
%TO.N,CL_F*%
X156972000Y-120650000D03*
X162052000Y-120650000D03*
%TO.N,Net-(U1-Pad11)*%
X105664000Y-90932000D03*
X135820001Y-90100001D03*
%TO.N,Net-(U3-Pad19)*%
X85344000Y-112014000D03*
X130810000Y-108204000D03*
X105410000Y-110744000D03*
%TO.N,Net-(U3-Pad11)*%
X107372001Y-105479999D03*
X134112000Y-105156000D03*
X134112000Y-100330000D03*
X155448000Y-99822000D03*
%TO.N,CS_U3*%
X115316000Y-65786000D03*
X115316000Y-82550000D03*
%TO.N,~INT*%
X175768000Y-92202000D03*
%TO.N,TG43-F*%
X174498000Y-101092000D03*
%TO.N,HEADLOAD*%
X183134000Y-93726000D03*
X194310000Y-93726000D03*
X194056000Y-110744000D03*
X179508001Y-81603999D03*
X143002000Y-81280000D03*
X141732000Y-60706000D03*
%TO.N,TG43*%
X179832000Y-131064000D03*
%TO.N,MOTORON*%
X208788000Y-92964000D03*
X208788000Y-60452000D03*
%TO.N,L-6*%
X94234000Y-64770000D03*
%TO.N,Net-(JP1-Pad2)*%
X181356000Y-144018000D03*
%TO.N,L-7*%
X120142000Y-132080000D03*
X118110000Y-99314000D03*
%TO.N,L-3*%
X101923999Y-96081999D03*
%TO.N,L-2*%
X97790000Y-98298000D03*
%TO.N,L-1*%
X97282000Y-92202000D03*
X125406001Y-92779999D03*
%TO.N,L-0*%
X84143999Y-89731999D03*
X117602000Y-88900000D03*
%TO.N,Net-(U12-Pad1)*%
X107950000Y-114300000D03*
X107696000Y-100330000D03*
%TO.N,WRPT-F*%
X129540000Y-120396000D03*
X139446000Y-120396000D03*
X142494000Y-93726000D03*
X157988000Y-93472000D03*
%TO.N,DIR-F*%
X183388000Y-138938000D03*
%TO.N,IP-F*%
X160528000Y-127762000D03*
%TO.N,ST-F*%
X171450000Y-134874000D03*
%TO.N,TR0-F*%
X161290000Y-126492000D03*
%TO.N,Net-(U13-Pad4)*%
X137922000Y-69342000D03*
%TO.N,WG-F*%
X178308000Y-120904000D03*
%TO.N,WDOUT*%
X187198000Y-116078000D03*
%TO.N,Net-(U13-Pad6)*%
X115570000Y-113284000D03*
%TO.N,Net-(JP3-Pad1)*%
X158750000Y-99568000D03*
X167513000Y-74549000D03*
X166624000Y-99060000D03*
%TO.N,Net-(JP7-Pad1)*%
X157988000Y-68326000D03*
X122936000Y-68961000D03*
%TD*%
D21*
%TO.N,*%
X145157999Y-111721999D02*
X148043999Y-111721999D01*
X145119998Y-111760000D02*
X145157999Y-111721999D01*
X139446000Y-111760000D02*
X145119998Y-111760000D01*
X148043999Y-111721999D02*
X148043999Y-111721999D01*
D22*
%TO.N,GND*%
X65250000Y-60510000D02*
X67622000Y-60510000D01*
X67622000Y-60510000D02*
X70330000Y-60510000D01*
D23*
X69722998Y-54356000D02*
X69088000Y-54356000D01*
X65250000Y-58194000D02*
X65250000Y-60510000D01*
X69088000Y-54356000D02*
X65250000Y-58194000D01*
X70330000Y-54963002D02*
X69722998Y-54356000D01*
X70330000Y-60510000D02*
X70330000Y-54963002D01*
D22*
X105664000Y-108712000D02*
X109220000Y-108712000D01*
D21*
X82804000Y-123698000D02*
X82804000Y-124460000D01*
X84235990Y-125891990D02*
X104740010Y-125891990D01*
X82804000Y-124460000D02*
X84235990Y-125891990D01*
X105664000Y-124968000D02*
X105664000Y-123698000D01*
X104740010Y-125891990D02*
X105664000Y-124968000D01*
D22*
X100584000Y-93980000D02*
X109220000Y-93980000D01*
D24*
X118364000Y-119340000D02*
X117388000Y-119340000D01*
X117388000Y-119340000D02*
X116840000Y-119888000D01*
X116840000Y-119888000D02*
X109728000Y-119888000D01*
X109728000Y-119888000D02*
X109728000Y-119888000D01*
D21*
X164084000Y-115824000D02*
X164592000Y-116332000D01*
X144780000Y-115824000D02*
X164084000Y-115824000D01*
X144272000Y-116332000D02*
X144780000Y-115824000D01*
X164592000Y-116332000D02*
X164592000Y-117856000D01*
X144272000Y-117856000D02*
X144272000Y-116332000D01*
D24*
X154178000Y-102870000D02*
X154432000Y-103124000D01*
D22*
X109220000Y-108712000D02*
X109220000Y-108712000D01*
X109220000Y-108712000D02*
X109220000Y-108712000D01*
X109220000Y-93980000D02*
X109220000Y-93980000D01*
X109220000Y-93980000D02*
X109220000Y-93980000D01*
X109220000Y-108712000D02*
X109220000Y-108712000D01*
D21*
X144272000Y-103124000D02*
X144272000Y-103632000D01*
X144272000Y-103632000D02*
X145053999Y-104413999D01*
X154432000Y-103632000D02*
X154432000Y-103124000D01*
X153650001Y-104413999D02*
X154432000Y-103632000D01*
X149352000Y-104179998D02*
X149586001Y-104413999D01*
X149352000Y-103124000D02*
X149352000Y-104179998D01*
X149586001Y-104413999D02*
X153650001Y-104413999D01*
X145053999Y-104413999D02*
X149586001Y-104413999D01*
X154432000Y-103124000D02*
X155448000Y-102108000D01*
X155448000Y-102108000D02*
X168910000Y-102108000D01*
D23*
X127508000Y-54864000D02*
X127000000Y-54356000D01*
X127508000Y-57912000D02*
X127508000Y-54864000D01*
D25*
X69722998Y-54356000D02*
X127000000Y-54356000D01*
D23*
X169164000Y-96520000D02*
X169164000Y-96520000D01*
X134620000Y-57912000D02*
X134620000Y-54864000D01*
X134620000Y-54864000D02*
X135128000Y-54356000D01*
D25*
X135128000Y-54356000D02*
X191262000Y-54356000D01*
X127000000Y-54356000D02*
X135128000Y-54356000D01*
D24*
X163068000Y-96520000D02*
X169164000Y-96520000D01*
X164592000Y-117856000D02*
X169164000Y-117856000D01*
X169164000Y-117856000D02*
X169164000Y-117856000D01*
D21*
X91440000Y-78232000D02*
X99060000Y-78232000D01*
D26*
X87884000Y-70104000D02*
X87884000Y-68834000D01*
X87884000Y-68834000D02*
X88392000Y-68326000D01*
X100584000Y-69469000D02*
X100584000Y-70104000D01*
X99441000Y-68326000D02*
X100584000Y-69469000D01*
X92964000Y-68453000D02*
X93091000Y-68326000D01*
X92964000Y-70104000D02*
X92964000Y-68453000D01*
X93091000Y-68326000D02*
X99441000Y-68326000D01*
X88392000Y-68326000D02*
X93091000Y-68326000D01*
D27*
X191262000Y-54356000D02*
X201930000Y-54356000D01*
D23*
%TO.N,+5V*%
X65250000Y-139250000D02*
X70330000Y-139250000D01*
D22*
X65250000Y-139250000D02*
X65250000Y-140434000D01*
X70330000Y-145514000D02*
X70358000Y-145542000D01*
X70330000Y-139250000D02*
X70330000Y-145514000D01*
D27*
X70358000Y-145542000D02*
X71628000Y-146812000D01*
X65250000Y-140434000D02*
X70358000Y-145542000D01*
D23*
X129032000Y-146304000D02*
X128524000Y-146812000D01*
X129032000Y-143764000D02*
X129032000Y-146304000D01*
D27*
X71628000Y-146812000D02*
X128524000Y-146812000D01*
D23*
X82804000Y-73152000D02*
X107188000Y-73152000D01*
D27*
X128524000Y-146812000D02*
X171704000Y-146812000D01*
D23*
X174752000Y-123952000D02*
X174752000Y-123952000D01*
X165100000Y-123952000D02*
X174752000Y-123952000D01*
X164592000Y-123952000D02*
X165100000Y-123952000D01*
D22*
X127508000Y-110236000D02*
X130048000Y-110236000D01*
X133604000Y-113792000D02*
X137668000Y-113792000D01*
X130048000Y-110236000D02*
X133604000Y-113792000D01*
D23*
X107188000Y-73152000D02*
X119888000Y-73152000D01*
X127254000Y-109982000D02*
X127508000Y-110236000D01*
X119888000Y-109982000D02*
X127254000Y-109982000D01*
X166878000Y-113792000D02*
X172720000Y-113792000D01*
X173228000Y-113284000D02*
X173228000Y-110490000D01*
X172720000Y-113792000D02*
X173228000Y-113284000D01*
X166878000Y-113792000D02*
X166878000Y-113792000D01*
X143256000Y-113792000D02*
X141732000Y-113792000D01*
X166878000Y-113792000D02*
X143256000Y-113792000D01*
X141732000Y-113792000D02*
X137668000Y-113792000D01*
X119888000Y-73152000D02*
X119888000Y-75438000D01*
X120904000Y-76454000D02*
X132080000Y-76454000D01*
X119888000Y-75438000D02*
X120904000Y-76454000D01*
X132080000Y-76454000D02*
X143764000Y-76454000D01*
X143764000Y-76454000D02*
X145288000Y-76454000D01*
X145288000Y-76454000D02*
X145288000Y-76454000D01*
X146304000Y-75438000D02*
X145288000Y-76454000D01*
X160528000Y-75438000D02*
X146304000Y-75438000D01*
X160528000Y-75438000D02*
X165100000Y-75438000D01*
D27*
X169164000Y-146812000D02*
X191516000Y-146812000D01*
X200660000Y-141478000D02*
X200660000Y-144018000D01*
X197866000Y-146812000D02*
X191516000Y-146812000D01*
X200660000Y-144018000D02*
X197866000Y-146812000D01*
D23*
X165100000Y-73279000D02*
X166624000Y-71755000D01*
X165100000Y-75438000D02*
X165100000Y-73279000D01*
X163449000Y-71755000D02*
X166624000Y-71755000D01*
X161544000Y-69850000D02*
X163449000Y-71755000D01*
D21*
X174244000Y-86106000D02*
X184531000Y-86106000D01*
X184531000Y-86106000D02*
X185166000Y-86741000D01*
X185166000Y-86741000D02*
X188468000Y-86741000D01*
X188468000Y-86741000D02*
X188468000Y-86741000D01*
D24*
%TO.N,+12V*%
X112268000Y-123952000D02*
X116332000Y-123952000D01*
D21*
X118364000Y-113030000D02*
X118364000Y-116840000D01*
X117478011Y-112144011D02*
X118364000Y-113030000D01*
X92325989Y-112144011D02*
X117478011Y-112144011D01*
X91655999Y-112814001D02*
X92325989Y-112144011D01*
X81064001Y-112814001D02*
X91655999Y-112814001D01*
X78384999Y-110134999D02*
X81064001Y-112814001D01*
X66614999Y-110134999D02*
X78384999Y-110134999D01*
X65250000Y-108770000D02*
X66614999Y-110134999D01*
%TO.N,D5*%
X67824002Y-136710000D02*
X65250000Y-136710000D01*
X97536000Y-141732000D02*
X75692000Y-141732000D01*
X98044000Y-141224000D02*
X97536000Y-141732000D01*
X98044000Y-139192000D02*
X98044000Y-141224000D01*
X67824002Y-136710000D02*
X67824002Y-136912002D01*
X68986999Y-138074999D02*
X74574999Y-138074999D01*
X67824002Y-136912002D02*
X68986999Y-138074999D01*
X74574999Y-138074999D02*
X75184000Y-138684000D01*
X75184000Y-141224000D02*
X75692000Y-141732000D01*
X75184000Y-138684000D02*
X75184000Y-141224000D01*
X98552000Y-110744000D02*
X103124000Y-110744000D01*
%TO.N,D6*%
X73152000Y-141224000D02*
X73152000Y-141224000D01*
X65250000Y-134170000D02*
X67114000Y-134170000D01*
X68478999Y-135534999D02*
X73050999Y-135534999D01*
X67114000Y-134170000D02*
X68478999Y-135534999D01*
X73050999Y-135534999D02*
X73050999Y-135534999D01*
X73152000Y-142240000D02*
X73152000Y-141224000D01*
X100076000Y-142748000D02*
X73660000Y-142748000D01*
X100584000Y-142240000D02*
X100076000Y-142748000D01*
X73660000Y-142748000D02*
X73152000Y-142240000D01*
X100584000Y-139192000D02*
X100584000Y-142240000D01*
X104140000Y-105156000D02*
X104324001Y-105340001D01*
X90424000Y-105156000D02*
X104140000Y-105156000D01*
%TO.N,D3*%
X65250000Y-131630000D02*
X66606000Y-131630000D01*
X67970999Y-132994999D02*
X79146999Y-132994999D01*
X66606000Y-131630000D02*
X67970999Y-132994999D01*
X79146999Y-132994999D02*
X80772000Y-134620000D01*
X93980000Y-136144000D02*
X93980000Y-136144000D01*
X93980000Y-136144000D02*
X93980000Y-136144000D01*
X93980000Y-136144000D02*
X87376000Y-136144000D01*
X87376000Y-136144000D02*
X85852000Y-134620000D01*
X85852000Y-134620000D02*
X80772000Y-134620000D01*
%TO.N,D4*%
X65982000Y-129090000D02*
X65250000Y-129090000D01*
X67157001Y-127914999D02*
X65982000Y-129090000D01*
X74269001Y-127914999D02*
X67157001Y-127914999D01*
X74930000Y-127254000D02*
X74269001Y-127914999D01*
X95504000Y-127254000D02*
X74930000Y-127254000D01*
%TO.N,A2*%
X82194999Y-69494999D02*
X82804000Y-70104000D01*
X68173001Y-69494999D02*
X82194999Y-69494999D01*
X68072000Y-69596000D02*
X68173001Y-69494999D01*
%TO.N,A4*%
X66490000Y-124010000D02*
X65250000Y-124010000D01*
X67665001Y-122834999D02*
X66490000Y-124010000D01*
X67665001Y-122834999D02*
X75082999Y-122834999D01*
X75082999Y-122834999D02*
X75082999Y-122834999D01*
X82702999Y-94081001D02*
X82804000Y-93980000D01*
X75082999Y-94081001D02*
X82702999Y-94081001D01*
%TO.N,A5*%
X66425001Y-120294999D02*
X74066999Y-120294999D01*
X65250000Y-121470000D02*
X66425001Y-120294999D01*
X74066999Y-120294999D02*
X74066999Y-120294999D01*
X74676000Y-87884000D02*
X74066999Y-88493001D01*
X87630000Y-87884000D02*
X74676000Y-87884000D01*
X87884000Y-87630000D02*
X87630000Y-87884000D01*
X87884000Y-86360000D02*
X87884000Y-87630000D01*
%TO.N,A6*%
X65250000Y-118930000D02*
X66490000Y-118930000D01*
X67665001Y-117754999D02*
X111861001Y-117754999D01*
X66490000Y-118930000D02*
X67665001Y-117754999D01*
X95504000Y-89916000D02*
X111760000Y-89916000D01*
%TO.N,D0*%
X70330000Y-136710000D02*
X84640000Y-136710000D01*
X85344000Y-137414000D02*
X85344000Y-139192000D01*
X84640000Y-136710000D02*
X85344000Y-137414000D01*
%TO.N,D7*%
X70330000Y-134170000D02*
X78798000Y-134170000D01*
X78798000Y-134170000D02*
X80264000Y-135636000D01*
X80264000Y-135636000D02*
X85344000Y-135636000D01*
X85344000Y-135636000D02*
X86868000Y-137160000D01*
X86868000Y-137160000D02*
X102108000Y-137160000D01*
X103124000Y-138176000D02*
X103124000Y-139192000D01*
X102108000Y-137160000D02*
X103124000Y-138176000D01*
X69088000Y-105156000D02*
X69189001Y-105054999D01*
X87782999Y-105054999D02*
X87884000Y-105156000D01*
X69765999Y-105054999D02*
X87782999Y-105054999D01*
X69664998Y-105156000D02*
X69765999Y-105054999D01*
X69088000Y-105156000D02*
X69664998Y-105156000D01*
%TO.N,D2*%
X70330000Y-131630000D02*
X79814000Y-131630000D01*
X79814000Y-131630000D02*
X81280000Y-133096000D01*
X81280000Y-133096000D02*
X81788000Y-133604000D01*
X81788000Y-133604000D02*
X86360000Y-133604000D01*
X86360000Y-133604000D02*
X87884000Y-135128000D01*
X87884000Y-135128000D02*
X90932000Y-135128000D01*
X90932000Y-135128000D02*
X91440000Y-135128000D01*
X91440000Y-135128000D02*
X91440000Y-135128000D01*
%TO.N,A0*%
X74168000Y-144780000D02*
X74168000Y-144780000D01*
X123952000Y-144780000D02*
X74168000Y-144780000D01*
X124460000Y-144780000D02*
X123952000Y-144780000D01*
X124968000Y-144272000D02*
X124460000Y-144780000D01*
X124968000Y-141224000D02*
X124968000Y-144272000D01*
X126492000Y-139700000D02*
X124968000Y-141224000D01*
X126492000Y-139192000D02*
X126492000Y-139700000D01*
%TO.N,A3*%
X70330000Y-126550000D02*
X73094000Y-126550000D01*
X73094000Y-126550000D02*
X73094000Y-126550000D01*
X85344000Y-70104000D02*
X85344000Y-68580000D01*
X85344000Y-68580000D02*
X84836000Y-68072000D01*
X84836000Y-68072000D02*
X73152000Y-68072000D01*
X73152000Y-68072000D02*
X73152000Y-68072000D01*
%TO.N,A1*%
X74226000Y-124010000D02*
X70330000Y-124010000D01*
%TO.N,A7*%
X70330000Y-118930000D02*
X79698000Y-118930000D01*
X80032030Y-118595970D02*
X113052030Y-118595970D01*
X79698000Y-118930000D02*
X80032030Y-118595970D01*
X100584000Y-86360000D02*
X112776000Y-86360000D01*
%TO.N,D1*%
X70330000Y-106230000D02*
X89466000Y-106230000D01*
X89466000Y-106230000D02*
X89466000Y-106230000D01*
%TO.N,~WR*%
X118872000Y-128016000D02*
X118833999Y-128054001D01*
X76238001Y-128054001D02*
X76238001Y-128054001D01*
X74493002Y-85910000D02*
X74551002Y-85852000D01*
X70330000Y-85910000D02*
X74493002Y-85910000D01*
X76238001Y-128054001D02*
X97497999Y-128054001D01*
X97497999Y-128054001D02*
X98552000Y-127000000D01*
X98552000Y-127000000D02*
X106172000Y-127000000D01*
X106172000Y-127000000D02*
X107188000Y-125984000D01*
X107188000Y-125984000D02*
X116840000Y-125984000D01*
X121666000Y-114046000D02*
X121666000Y-118364000D01*
X117671999Y-126815999D02*
X117729000Y-126873000D01*
X117671999Y-122358001D02*
X117671999Y-126815999D01*
X121666000Y-118364000D02*
X117671999Y-122358001D01*
X117729000Y-126873000D02*
X118872000Y-128016000D01*
X116840000Y-125984000D02*
X117729000Y-126873000D01*
X121666000Y-114046000D02*
X121666000Y-113792000D01*
X121666000Y-113792000D02*
X121666000Y-113538000D01*
X121666000Y-113538000D02*
X122936000Y-112268000D01*
X122936000Y-112268000D02*
X129286000Y-112268000D01*
X129286000Y-112268000D02*
X130048000Y-113030000D01*
X130048000Y-113030000D02*
X130048000Y-113030000D01*
%TO.N,~RD*%
X123952000Y-141478000D02*
X123952000Y-139192000D01*
X121666000Y-143764000D02*
X123571000Y-141859000D01*
X82804000Y-143764000D02*
X121666000Y-143764000D01*
X123571000Y-141859000D02*
X123952000Y-141478000D01*
X123444000Y-141986000D02*
X123571000Y-141859000D01*
X82626002Y-139369998D02*
X82804000Y-139192000D01*
X77038002Y-139369998D02*
X82626002Y-139369998D01*
X70330000Y-80830000D02*
X76650000Y-80830000D01*
X76650000Y-80830000D02*
X76708000Y-80772000D01*
X76650000Y-80830000D02*
X76650000Y-80830000D01*
X129286000Y-95250000D02*
X122682000Y-95250000D01*
X129286000Y-95250000D02*
X135636000Y-95250000D01*
X132588000Y-91440000D02*
X135636000Y-91440000D01*
X135636000Y-91440000D02*
X135636000Y-91440000D01*
X135636000Y-95250000D02*
X135636000Y-95250000D01*
%TO.N,~RESET*%
X82804000Y-108712000D02*
X73660000Y-108712000D01*
X72542999Y-107594999D02*
X68986999Y-107594999D01*
X73660000Y-108712000D02*
X72542999Y-107594999D01*
X68986999Y-107594999D02*
X67157001Y-107594999D01*
X67157001Y-107594999D02*
X67056000Y-107696000D01*
X67056000Y-107696000D02*
X67056000Y-107696000D01*
X160782000Y-131318000D02*
X160782000Y-131318000D01*
X159512000Y-130048000D02*
X160782000Y-131318000D01*
X118872000Y-130048000D02*
X159512000Y-130048000D01*
X115824000Y-127000000D02*
X118872000Y-130048000D01*
X109728000Y-127000000D02*
X115824000Y-127000000D01*
X107696000Y-129032000D02*
X109728000Y-127000000D01*
X83820000Y-129032000D02*
X107696000Y-129032000D01*
%TO.N,Net-(J3-Pad11)*%
X151892000Y-105664000D02*
X154432000Y-105664000D01*
X137668000Y-110236000D02*
X137668000Y-109728000D01*
X139099990Y-108296010D02*
X148243990Y-108296010D01*
X137668000Y-109728000D02*
X139099990Y-108296010D01*
X149352000Y-109404020D02*
X149352000Y-110236000D01*
X148243990Y-108296010D02*
X149352000Y-109404020D01*
X149352000Y-109220000D02*
X149352000Y-110236000D01*
X149352000Y-109728000D02*
X149352000Y-110236000D01*
X151892000Y-107188000D02*
X149352000Y-109728000D01*
X151892000Y-105664000D02*
X151892000Y-107188000D01*
%TO.N,Net-(J3-Pad5)*%
X146812000Y-105664000D02*
X149352000Y-105664000D01*
X137668000Y-106680000D02*
X138684000Y-107696000D01*
X138684000Y-107696000D02*
X145796000Y-107696000D01*
X146812000Y-106680000D02*
X146812000Y-105664000D01*
X145796000Y-107696000D02*
X146812000Y-106680000D01*
%TO.N,Net-(J3-Pad1)*%
X137668000Y-103124000D02*
X138684000Y-103124000D01*
X138684000Y-103124000D02*
X139700000Y-104140000D01*
X139700000Y-104140000D02*
X139700000Y-104648000D01*
X140716000Y-105664000D02*
X141732000Y-105664000D01*
X139700000Y-104648000D02*
X140716000Y-105664000D01*
X141732000Y-105664000D02*
X144272000Y-105664000D01*
%TO.N,RAWRQ*%
X200640001Y-73933999D02*
X208807999Y-73933999D01*
X199390000Y-75184000D02*
X200640001Y-73933999D01*
X210058000Y-75184000D02*
X210820000Y-75184000D01*
X208807999Y-73933999D02*
X210058000Y-75184000D01*
X178562000Y-104394000D02*
X192024000Y-104394000D01*
X192024000Y-104394000D02*
X193294000Y-103124000D01*
X193294000Y-103124000D02*
X193294000Y-103124000D01*
X193294000Y-75184000D02*
X199390000Y-75184000D01*
X192786000Y-85598000D02*
X192786000Y-85598000D01*
X165100000Y-85598000D02*
X166277990Y-84420010D01*
X166277990Y-84420010D02*
X185004010Y-84420010D01*
X186182000Y-85598000D02*
X192786000Y-85598000D01*
X185004010Y-84420010D02*
X186182000Y-85598000D01*
%TO.N,WRTPT*%
X200679999Y-76434001D02*
X208768001Y-76434001D01*
X199390000Y-77724000D02*
X200679999Y-76434001D01*
X210058000Y-77724000D02*
X210820000Y-77724000D01*
X208768001Y-76434001D02*
X210058000Y-77724000D01*
X199390000Y-77724000D02*
X194818000Y-77724000D01*
X194818000Y-77724000D02*
X194056000Y-78486000D01*
X194056000Y-78486000D02*
X194056000Y-82550000D01*
X194056000Y-82550000D02*
X192786000Y-83820000D01*
X157226000Y-83820000D02*
X155448000Y-85598000D01*
X192786000Y-83820000D02*
X157226000Y-83820000D01*
%TO.N,TK0*%
X200640001Y-79013999D02*
X208553999Y-79013999D01*
X199390000Y-80264000D02*
X200640001Y-79013999D01*
X209804000Y-80264000D02*
X210820000Y-80264000D01*
X208553999Y-79013999D02*
X209804000Y-80264000D01*
X157988000Y-96520000D02*
X157988000Y-95250000D01*
X157988000Y-95250000D02*
X158750000Y-94488000D01*
X158750000Y-94488000D02*
X177800000Y-94488000D01*
X177800000Y-94488000D02*
X179578000Y-92710000D01*
X179578000Y-92710000D02*
X179832000Y-92456000D01*
X179832000Y-92456000D02*
X195326000Y-92456000D01*
X195326000Y-92456000D02*
X195326000Y-92456000D01*
X199390000Y-80264000D02*
X195326000Y-80264000D01*
X195326000Y-80264000D02*
X195326000Y-80264000D01*
%TO.N,WG*%
X200640001Y-81553999D02*
X208553999Y-81553999D01*
X199390000Y-82804000D02*
X200640001Y-81553999D01*
X209804000Y-82804000D02*
X210820000Y-82804000D01*
X208553999Y-81553999D02*
X209804000Y-82804000D01*
X180594000Y-114808000D02*
X196088000Y-114808000D01*
X196088000Y-114808000D02*
X196088000Y-114808000D01*
%TO.N,WDATA*%
X200640001Y-84093999D02*
X208553999Y-84093999D01*
X199390000Y-85344000D02*
X200640001Y-84093999D01*
X209804000Y-85344000D02*
X210820000Y-85344000D01*
X208553999Y-84093999D02*
X209804000Y-85344000D01*
X188468000Y-88900000D02*
X195834000Y-88900000D01*
X195834000Y-88900000D02*
X199390000Y-85344000D01*
%TO.N,STEP*%
X200640001Y-86633999D02*
X208299999Y-86633999D01*
X199390000Y-87884000D02*
X200640001Y-86633999D01*
X209550000Y-87884000D02*
X210820000Y-87884000D01*
X208299999Y-86633999D02*
X209550000Y-87884000D01*
X196596000Y-120904000D02*
X180340000Y-120904000D01*
X180340000Y-120904000D02*
X179508001Y-120072001D01*
X179508001Y-120072001D02*
X176599999Y-120072001D01*
X175768000Y-119240002D02*
X175768000Y-118110000D01*
X176599999Y-120072001D02*
X175768000Y-119240002D01*
%TO.N,DIRC*%
X200640001Y-89173999D02*
X208045999Y-89173999D01*
X199390000Y-90424000D02*
X200640001Y-89173999D01*
X209296000Y-90424000D02*
X210820000Y-90424000D01*
X208045999Y-89173999D02*
X209296000Y-90424000D01*
X185928000Y-118110000D02*
X185928000Y-119380000D01*
X185928000Y-119380000D02*
X185928000Y-119634000D01*
X185928000Y-119634000D02*
X186182000Y-119888000D01*
X186182000Y-119888000D02*
X197104000Y-119888000D01*
X197104000Y-119888000D02*
X197104000Y-119888000D01*
X197104000Y-119888000D02*
X197612000Y-119888000D01*
%TO.N,DS4*%
X200640001Y-91713999D02*
X206736001Y-91713999D01*
X199390000Y-92964000D02*
X200640001Y-91713999D01*
X214903999Y-91713999D02*
X215392000Y-92202000D01*
X215392000Y-92202000D02*
X215392000Y-104140000D01*
X215118001Y-104413999D02*
X212324001Y-104413999D01*
X215392000Y-104140000D02*
X215118001Y-104413999D01*
X211074000Y-105664000D02*
X210820000Y-105664000D01*
X212324001Y-104413999D02*
X211074000Y-105664000D01*
X206736001Y-91713999D02*
X214903999Y-91713999D01*
X206716002Y-58420000D02*
X206736001Y-58439999D01*
X187706000Y-58420000D02*
X206716002Y-58420000D01*
X119888000Y-88900000D02*
X122682000Y-88900000D01*
X122682000Y-88900000D02*
X122682000Y-88900000D01*
X122682000Y-79756000D02*
X189738000Y-79756000D01*
X189738000Y-79756000D02*
X189738000Y-79756000D01*
%TO.N,DS3*%
X200640001Y-94253999D02*
X205720001Y-94253999D01*
X199390000Y-95504000D02*
X200640001Y-94253999D01*
X209296000Y-95504000D02*
X210820000Y-95504000D01*
X208045999Y-94253999D02*
X209296000Y-95504000D01*
X205720001Y-94253999D02*
X208045999Y-94253999D01*
X205446002Y-66040000D02*
X205720001Y-66313999D01*
X187706000Y-66040000D02*
X205446002Y-66040000D01*
X130232001Y-85159999D02*
X146996001Y-85159999D01*
X130175000Y-85217000D02*
X130232001Y-85159999D01*
X146996001Y-85159999D02*
X149352000Y-82804000D01*
X182880000Y-82804000D02*
X183134000Y-82550000D01*
X183134000Y-82550000D02*
X183134000Y-82550000D01*
X149352000Y-82804000D02*
X182880000Y-82804000D01*
%TO.N,DS2*%
X200640001Y-96793999D02*
X208299999Y-96793999D01*
X199390000Y-98044000D02*
X200640001Y-96793999D01*
X209550000Y-98044000D02*
X209804000Y-98044000D01*
X208299999Y-96793999D02*
X209550000Y-98044000D01*
X209550000Y-98044000D02*
X210820000Y-98044000D01*
X199390000Y-98044000D02*
X197866000Y-98044000D01*
X197866000Y-98044000D02*
X197104000Y-97282000D01*
X197104000Y-97282000D02*
X196850000Y-97028000D01*
X196850000Y-97028000D02*
X196850000Y-92202000D01*
X196303999Y-91655999D02*
X188506001Y-91655999D01*
X196850000Y-92202000D02*
X196303999Y-91655999D01*
X176999999Y-91655999D02*
X176530000Y-91186000D01*
X176530000Y-91186000D02*
X154940000Y-91186000D01*
X154940000Y-91186000D02*
X144018000Y-91186000D01*
X144018000Y-91186000D02*
X143256000Y-90424000D01*
X143256000Y-83566000D02*
X143256000Y-83566000D01*
X142309999Y-82619999D02*
X143256000Y-83566000D01*
X128708001Y-82619999D02*
X142309999Y-82619999D01*
X127508000Y-83820000D02*
X128708001Y-82619999D01*
X188506001Y-91655999D02*
X176999999Y-91655999D01*
X143256000Y-90424000D02*
X143256000Y-90424000D01*
%TO.N,DS1*%
X209296000Y-100584000D02*
X210820000Y-100584000D01*
X208045999Y-99333999D02*
X209296000Y-100584000D01*
X204958001Y-99333999D02*
X208045999Y-99333999D01*
X204470000Y-62230000D02*
X204558002Y-62318002D01*
X187706000Y-62230000D02*
X204470000Y-62230000D01*
X119888000Y-78994000D02*
X120650000Y-78232000D01*
X119888000Y-81280000D02*
X119888000Y-78994000D01*
X199390000Y-100584000D02*
X199390000Y-100330000D01*
X200386001Y-99333999D02*
X204958001Y-99333999D01*
X199390000Y-100330000D02*
X200386001Y-99333999D01*
D26*
X187706000Y-62230000D02*
X187706000Y-62738000D01*
X186366001Y-64077999D02*
X186366001Y-77666999D01*
X187706000Y-62738000D02*
X186366001Y-64077999D01*
X185801000Y-78232000D02*
X176911000Y-78232000D01*
X186366001Y-77666999D02*
X185801000Y-78232000D01*
D21*
X176911000Y-78232000D02*
X177800000Y-78232000D01*
X120650000Y-78232000D02*
X176911000Y-78232000D01*
%TO.N,READY*%
X200640001Y-104413999D02*
X206482001Y-104413999D01*
X199390000Y-105664000D02*
X200640001Y-104413999D01*
X206482001Y-104413999D02*
X206482001Y-104413999D01*
X130302000Y-68072000D02*
X132080000Y-66294000D01*
X127508000Y-68072000D02*
X130302000Y-68072000D01*
X195326000Y-94996000D02*
X195326000Y-94996000D01*
X195326000Y-105664000D02*
X199390000Y-105664000D01*
X206482001Y-104413999D02*
X207264000Y-103632000D01*
X207264000Y-103632000D02*
X207264000Y-103632000D01*
X207772000Y-70104000D02*
X210820000Y-70104000D01*
X173228000Y-66294000D02*
X173482000Y-66040000D01*
X195326000Y-94996000D02*
X182372000Y-94996000D01*
X182372000Y-94996000D02*
X182118000Y-94742000D01*
X182118000Y-94742000D02*
X182118000Y-94742000D01*
X132080000Y-66294000D02*
X161290000Y-66294000D01*
X161290000Y-66294000D02*
X163957000Y-68961000D01*
X172593000Y-68961000D02*
X173482000Y-69850000D01*
X163957000Y-68961000D02*
X172593000Y-68961000D01*
%TO.N,INDEX*%
X200640001Y-106953999D02*
X208006001Y-106953999D01*
X199390000Y-108204000D02*
X200640001Y-106953999D01*
X208006001Y-106953999D02*
X208534000Y-106426000D01*
X208534000Y-106426000D02*
X208534000Y-103886000D01*
X209296000Y-103124000D02*
X210820000Y-103124000D01*
X208534000Y-103886000D02*
X209296000Y-103124000D01*
X199390000Y-108204000D02*
X193040000Y-108204000D01*
X193040000Y-108204000D02*
X190246000Y-105410000D01*
X190246000Y-105410000D02*
X184658000Y-105410000D01*
X184658000Y-105410000D02*
X184658000Y-105410000D01*
X184658000Y-90424000D02*
X161036000Y-90424000D01*
X160528000Y-89916000D02*
X160528000Y-88900000D01*
X161036000Y-90424000D02*
X160528000Y-89916000D01*
%TO.N,SIDE*%
X212109999Y-73933999D02*
X210820000Y-72644000D01*
X215919999Y-73933999D02*
X212109999Y-73933999D01*
X216408000Y-74422000D02*
X215919999Y-73933999D01*
X216408000Y-114085998D02*
X216408000Y-74422000D01*
X215919999Y-114573999D02*
X216408000Y-114085998D01*
X200640001Y-114573999D02*
X215919999Y-114573999D01*
X199390000Y-115824000D02*
X200640001Y-114573999D01*
X185928000Y-96520000D02*
X185928000Y-97282000D01*
X185928000Y-97282000D02*
X186690000Y-98044000D01*
X186690000Y-98044000D02*
X194310000Y-98044000D01*
X194310000Y-98044000D02*
X194310000Y-98044000D01*
X194310000Y-98044000D02*
X194564000Y-98044000D01*
X194564000Y-98044000D02*
X194564000Y-98044000D01*
X194818000Y-115824000D02*
X199390000Y-115824000D01*
%TO.N,Net-(R3-Pad2)*%
X175260000Y-129032000D02*
X136652000Y-129032000D01*
X177292000Y-127000000D02*
X175260000Y-129032000D01*
X136652000Y-129032000D02*
X136144000Y-129032000D01*
X136144000Y-129032000D02*
X134620000Y-129032000D01*
X134620000Y-129032000D02*
X134112000Y-128524000D01*
X134112000Y-128524000D02*
X134112000Y-128524000D01*
%TO.N,Net-(R4-Pad2)*%
X162052000Y-123952000D02*
X162052000Y-125476000D01*
X163576000Y-127000000D02*
X172212000Y-127000000D01*
X162052000Y-125476000D02*
X163576000Y-127000000D01*
%TO.N,Net-(R6-Pad2)*%
X118872000Y-123952000D02*
X118872000Y-122428000D01*
X118872000Y-122428000D02*
X123698000Y-117602000D01*
X123698000Y-117602000D02*
X123698000Y-114300000D01*
X124206000Y-113792000D02*
X127508000Y-113792000D01*
X123698000Y-114300000D02*
X124206000Y-113792000D01*
X129032000Y-98552000D02*
X129032000Y-98552000D01*
X147828000Y-96520000D02*
X147828000Y-97282000D01*
X147828000Y-97282000D02*
X147066000Y-98044000D01*
X129540000Y-98044000D02*
X129032000Y-98552000D01*
X147066000Y-98044000D02*
X129540000Y-98044000D01*
%TO.N,Net-(R8-Pad2)*%
X121412000Y-123952000D02*
X121412000Y-121920000D01*
X125984000Y-117348000D02*
X127508000Y-117348000D01*
X121412000Y-121920000D02*
X125984000Y-117348000D01*
X145542000Y-131064000D02*
X145611999Y-130994001D01*
X121412000Y-131064000D02*
X145542000Y-131064000D01*
%TO.N,Net-(R9-Pad2)*%
X85344000Y-93980000D02*
X85344000Y-92964000D01*
X85344000Y-92964000D02*
X85852000Y-92456000D01*
X85852000Y-92456000D02*
X89916000Y-92456000D01*
X90424000Y-92964000D02*
X90424000Y-93980000D01*
X89916000Y-92456000D02*
X90424000Y-92964000D01*
%TO.N,Net-(RN1-Pad9)*%
X105664000Y-131572000D02*
X107188000Y-133096000D01*
X107188000Y-133096000D02*
X146812000Y-133096000D01*
X149352000Y-135636000D02*
X149352000Y-139192000D01*
X146812000Y-133096000D02*
X149352000Y-135636000D01*
%TO.N,Net-(RN1-Pad8)*%
X104095941Y-132543941D02*
X104269026Y-132543942D01*
X103124000Y-131572000D02*
X104095941Y-132543941D01*
X105793024Y-134067940D02*
X145751940Y-134067940D01*
X104269026Y-132543942D02*
X105793024Y-134067940D01*
X146812000Y-135128000D02*
X146812000Y-139192000D01*
X145751940Y-134067940D02*
X146812000Y-135128000D01*
%TO.N,Net-(RN1-Pad7)*%
X144272000Y-136652000D02*
X144272000Y-139192000D01*
X142287950Y-134667950D02*
X144272000Y-136652000D01*
X105544492Y-134667950D02*
X142287950Y-134667950D01*
X104020493Y-133143951D02*
X105544492Y-134667950D01*
X101139950Y-133143950D02*
X104020493Y-133143951D01*
X100584000Y-132588000D02*
X101139950Y-133143950D01*
X100584000Y-131572000D02*
X100584000Y-132588000D01*
%TO.N,Net-(RN1-Pad6)*%
X98044000Y-133096000D02*
X98691960Y-133743960D01*
X98044000Y-131572000D02*
X98044000Y-133096000D01*
X98691960Y-133743960D02*
X103771960Y-133743960D01*
X105295960Y-135267960D02*
X140347960Y-135267960D01*
X103771960Y-133743960D02*
X105295960Y-135267960D01*
X141732000Y-136652000D02*
X141732000Y-139192000D01*
X140347960Y-135267960D02*
X141732000Y-136652000D01*
%TO.N,Net-(RN1-Pad5)*%
X95504000Y-133096000D02*
X96751970Y-134343970D01*
X95504000Y-131572000D02*
X95504000Y-133096000D01*
X96751970Y-134343970D02*
X103355970Y-134343970D01*
X103355970Y-134343970D02*
X104879970Y-135867970D01*
X104879970Y-135867970D02*
X138407970Y-135867970D01*
X139192000Y-136652000D02*
X139192000Y-139192000D01*
X138407970Y-135867970D02*
X139192000Y-136652000D01*
%TO.N,Net-(RN1-Pad4)*%
X136652000Y-137668000D02*
X136652000Y-139192000D01*
X135451980Y-136467980D02*
X136652000Y-137668000D01*
X104463980Y-136467980D02*
X135451980Y-136467980D01*
X102939980Y-134943980D02*
X104463980Y-136467980D01*
X96335980Y-134943980D02*
X102939980Y-134943980D01*
X93795980Y-133927980D02*
X95319980Y-133927980D01*
X92964000Y-133096000D02*
X93795980Y-133927980D01*
X95319980Y-133927980D02*
X96335980Y-134943980D01*
X92964000Y-131572000D02*
X92964000Y-133096000D01*
%TO.N,Net-(RN1-Pad3)*%
X134112000Y-138176000D02*
X134112000Y-139192000D01*
X133003990Y-137067990D02*
X134112000Y-138176000D01*
X103880532Y-137067990D02*
X133003990Y-137067990D01*
X102356533Y-135543991D02*
X103880532Y-137067990D01*
X95919990Y-135543990D02*
X102356533Y-135543991D01*
X94903990Y-134527990D02*
X95919990Y-135543990D01*
X93379990Y-134527990D02*
X94903990Y-134527990D01*
X91948000Y-133096000D02*
X93379990Y-134527990D01*
X90932000Y-133096000D02*
X91948000Y-133096000D01*
X90424000Y-132588000D02*
X90932000Y-133096000D01*
X90424000Y-131572000D02*
X90424000Y-132588000D01*
%TO.N,Net-(RN1-Pad2)*%
X87884000Y-131572000D02*
X87884000Y-133604000D01*
X87884000Y-133604000D02*
X88392000Y-134112000D01*
X88392000Y-134112000D02*
X91948000Y-134112000D01*
X91948000Y-134112000D02*
X92964000Y-135128000D01*
X92964000Y-135128000D02*
X94488000Y-135128000D01*
X94488000Y-135128000D02*
X95504000Y-136144000D01*
X95504000Y-136144000D02*
X96520000Y-136144000D01*
X96012000Y-136144000D02*
X96520000Y-136144000D01*
X131572000Y-138176000D02*
X131572000Y-139192000D01*
X131064000Y-137668000D02*
X131572000Y-138176000D01*
X103632000Y-137668000D02*
X131064000Y-137668000D01*
X102108000Y-136144000D02*
X103632000Y-137668000D01*
X96520000Y-136144000D02*
X102108000Y-136144000D01*
%TO.N,Net-(U1-Pad15)*%
X95504000Y-101092000D02*
X95504000Y-102362000D01*
X95504000Y-102362000D02*
X97282000Y-104140000D01*
X102616000Y-104140000D02*
X102870000Y-104394000D01*
X97282000Y-104140000D02*
X102616000Y-104140000D01*
X102870000Y-104394000D02*
X124968000Y-104394000D01*
X124968000Y-104394000D02*
X124968000Y-104394000D01*
X128524000Y-119380000D02*
X127508000Y-120396000D01*
X146304000Y-119380000D02*
X128524000Y-119380000D01*
X146812000Y-118872000D02*
X146304000Y-119380000D01*
X146812000Y-117856000D02*
X146812000Y-118872000D01*
%TO.N,Net-(U1-Pad12)*%
X103124000Y-103124000D02*
X123952000Y-103124000D01*
X123952000Y-103124000D02*
X123952000Y-103124000D01*
X124460000Y-121920000D02*
X123952000Y-122428000D01*
X146812000Y-121920000D02*
X124460000Y-121920000D01*
X149352000Y-119380000D02*
X146812000Y-121920000D01*
X123952000Y-122428000D02*
X123952000Y-123952000D01*
X149352000Y-117856000D02*
X149352000Y-119380000D01*
%TO.N,Net-(U2-Pad19)*%
X85344000Y-131572000D02*
X85344000Y-130556000D01*
X85344000Y-130556000D02*
X86267990Y-129632010D01*
X86267990Y-129632010D02*
X108296010Y-129632010D01*
X108296010Y-129632010D02*
X110236000Y-131572000D01*
X110236000Y-131572000D02*
X114300000Y-131572000D01*
X114300000Y-131572000D02*
X114300000Y-131572000D01*
X114046000Y-67056000D02*
X114300000Y-67056000D01*
X114300000Y-67056000D02*
X114300000Y-67056000D01*
X85344000Y-62484000D02*
X85344000Y-64516000D01*
X87884000Y-67056000D02*
X114300000Y-67056000D01*
X85344000Y-64516000D02*
X87884000Y-67056000D01*
%TO.N,WD_F*%
X162052000Y-110236000D02*
X162052000Y-111252000D01*
X162052000Y-111252000D02*
X162052000Y-111506000D01*
X162052000Y-111506000D02*
X161036000Y-112522000D01*
X161036000Y-112522000D02*
X145542000Y-112522000D01*
X145542000Y-112522000D02*
X145542000Y-112522000D01*
X141224000Y-120904000D02*
X145034000Y-120904000D01*
%TO.N,HLD_F*%
X154432000Y-110236000D02*
X154432000Y-109474000D01*
X154432000Y-109474000D02*
X155194000Y-108712000D01*
X155194000Y-108712000D02*
X168910000Y-108712000D01*
X168910000Y-108712000D02*
X170434000Y-107188000D01*
X170434000Y-107188000D02*
X170434000Y-104140000D01*
X170434000Y-104140000D02*
X172212000Y-102362000D01*
X172212000Y-102362000D02*
X179578000Y-102362000D01*
X179578000Y-102362000D02*
X179578000Y-102362000D01*
X179578000Y-102362000D02*
X179578000Y-102362000D01*
X179578000Y-102362000D02*
X179578000Y-102362000D01*
%TO.N,DA_F*%
X154432000Y-117856000D02*
X154432000Y-119888000D01*
X154432000Y-119888000D02*
X153924000Y-120396000D01*
X153924000Y-120396000D02*
X149860000Y-120396000D01*
X149352000Y-120904000D02*
X149352000Y-123952000D01*
X149860000Y-120396000D02*
X149352000Y-120904000D01*
%TO.N,CL_F*%
X156972000Y-120650000D02*
X162052000Y-120650000D01*
%TO.N,Net-(U1-Pad11)*%
X105664000Y-90932000D02*
X118110000Y-90932000D01*
X118110000Y-90932000D02*
X118941999Y-90100001D01*
X105664000Y-101092000D02*
X106172000Y-101600000D01*
X118941999Y-90100001D02*
X135312001Y-90100001D01*
X135312001Y-90100001D02*
X135820001Y-90100001D01*
X135820001Y-90100001D02*
X135820001Y-90100001D01*
%TO.N,Net-(U3-Pad19)*%
X130810000Y-108204000D02*
X130810000Y-108204000D01*
X105410000Y-110744000D02*
X105410000Y-110744000D01*
X104609999Y-111544001D02*
X105410000Y-110744000D01*
X88861999Y-111544001D02*
X104609999Y-111544001D01*
X88392000Y-112014000D02*
X88861999Y-111544001D01*
X85344000Y-112014000D02*
X88392000Y-112014000D01*
X105410000Y-110744000D02*
X110236000Y-110744000D01*
X110236000Y-110744000D02*
X112776000Y-108204000D01*
X112776000Y-108204000D02*
X116332000Y-108204000D01*
X116332000Y-108204000D02*
X121666000Y-108204000D01*
X121666000Y-108204000D02*
X130810000Y-108204000D01*
X121412000Y-108204000D02*
X121666000Y-108204000D01*
%TO.N,Net-(U3-Pad11)*%
X107372001Y-105479999D02*
X107257999Y-105479999D01*
X107372001Y-105479999D02*
X125406001Y-105479999D01*
X125406001Y-105479999D02*
X125730000Y-105156000D01*
X125730000Y-105156000D02*
X134112000Y-105156000D01*
X134112000Y-105156000D02*
X134112000Y-105156000D01*
X155194000Y-99822000D02*
X155448000Y-99822000D01*
X155448000Y-99822000D02*
X155448000Y-99822000D01*
X134781990Y-100999990D02*
X134112000Y-100330000D01*
X151222010Y-100999990D02*
X134781990Y-100999990D01*
X152400000Y-99822000D02*
X151222010Y-100999990D01*
X155448000Y-99822000D02*
X152400000Y-99822000D01*
%TO.N,CS_U3*%
X87884000Y-62484000D02*
X87884000Y-65024000D01*
X87884000Y-65278000D02*
X88392000Y-65786000D01*
X87884000Y-65024000D02*
X87884000Y-65278000D01*
X88392000Y-65786000D02*
X115316000Y-65786000D01*
X115316000Y-65786000D02*
X115316000Y-65786000D01*
X132588000Y-83820000D02*
X129794000Y-83820000D01*
X129794000Y-83820000D02*
X128778000Y-84836000D01*
X128454001Y-85159999D02*
X126307999Y-85159999D01*
X128778000Y-84836000D02*
X128454001Y-85159999D01*
X126307999Y-85159999D02*
X123698000Y-82550000D01*
X123698000Y-82550000D02*
X115316000Y-82550000D01*
X115316000Y-82550000D02*
X115316000Y-82550000D01*
%TO.N,Net-(D1-Pad1)*%
X181102000Y-58420000D02*
X185166000Y-58420000D01*
%TO.N,Net-(D2-Pad1)*%
X181102000Y-62230000D02*
X185166000Y-62230000D01*
%TO.N,Net-(D3-Pad1)*%
X181102000Y-69850000D02*
X185166000Y-69850000D01*
%TO.N,Net-(D4-Pad1)*%
X181102000Y-66040000D02*
X185166000Y-66040000D01*
%TO.N,~IOREQ*%
X73406000Y-71882000D02*
X68326000Y-71882000D01*
X66998000Y-73210000D02*
X65250000Y-73210000D01*
X68326000Y-71882000D02*
X66998000Y-73210000D01*
D26*
X73406000Y-71882000D02*
X88646000Y-71882000D01*
X88646000Y-71882000D02*
X90424000Y-70104000D01*
D21*
%TO.N,~INT*%
X72898000Y-89662000D02*
X71686000Y-88450000D01*
X82296000Y-89662000D02*
X72898000Y-89662000D01*
X93893458Y-88646000D02*
X83312000Y-88646000D01*
X94979457Y-87560001D02*
X93893458Y-88646000D01*
X141662001Y-87560001D02*
X94979457Y-87560001D01*
X71686000Y-88450000D02*
X70330000Y-88450000D01*
X141986000Y-87884000D02*
X141662001Y-87560001D01*
X142494000Y-92202000D02*
X141986000Y-91694000D01*
X83312000Y-88646000D02*
X82296000Y-89662000D01*
X141986000Y-91694000D02*
X141986000Y-87884000D01*
X175768000Y-92202000D02*
X142494000Y-92202000D01*
%TO.N,TG43-F*%
X141732000Y-103124000D02*
X141732000Y-101854000D01*
X141732000Y-101854000D02*
X141986000Y-101600000D01*
X141986000Y-101600000D02*
X146558000Y-101600000D01*
X146812000Y-101854000D02*
X146812000Y-103124000D01*
X146558000Y-101600000D02*
X146812000Y-101854000D01*
X146812000Y-103124000D02*
X146812000Y-102108000D01*
X146812000Y-102108000D02*
X147320000Y-101600000D01*
X147320000Y-101600000D02*
X151638000Y-101600000D01*
X151892000Y-101854000D02*
X151892000Y-103124000D01*
X151638000Y-101600000D02*
X151892000Y-101854000D01*
X152438001Y-101307999D02*
X152438001Y-101307999D01*
X152654000Y-101092000D02*
X152400000Y-101346000D01*
X152400000Y-101346000D02*
X152438001Y-101307999D01*
X151892000Y-101854000D02*
X152400000Y-101346000D01*
X174498000Y-101092000D02*
X152654000Y-101092000D01*
%TO.N,HEADLOAD*%
X178308000Y-96520000D02*
X178308000Y-95250000D01*
X178308000Y-95250000D02*
X179832000Y-93726000D01*
X179832000Y-93726000D02*
X183134000Y-93726000D01*
X193548000Y-93726000D02*
X193548000Y-93726000D01*
X183134000Y-93726000D02*
X193548000Y-93726000D01*
X193548000Y-93726000D02*
X194310000Y-93726000D01*
X194310000Y-93726000D02*
X194310000Y-93726000D01*
X199390000Y-110744000D02*
X194056000Y-110744000D01*
X194056000Y-110744000D02*
X194056000Y-110744000D01*
X179508001Y-81603999D02*
X143325999Y-81603999D01*
X143325999Y-81603999D02*
X143002000Y-81280000D01*
X143002000Y-81280000D02*
X143002000Y-81280000D01*
X134874000Y-60706000D02*
X134620000Y-60452000D01*
D26*
X127508000Y-62992000D02*
X129159000Y-62992000D01*
X129159000Y-62992000D02*
X130429000Y-61722000D01*
X133350000Y-61722000D02*
X134620000Y-60452000D01*
X130429000Y-61722000D02*
X133350000Y-61722000D01*
D21*
X141732000Y-60706000D02*
X134874000Y-60706000D01*
%TO.N,TG43*%
X179832000Y-131064000D02*
X199390000Y-131064000D01*
%TO.N,MOTORON*%
X210820000Y-92964000D02*
X208788000Y-92964000D01*
X208788000Y-92964000D02*
X208788000Y-92964000D01*
X172212000Y-60452000D02*
X208788000Y-60452000D01*
D26*
X170872001Y-59112001D02*
X171132500Y-59372500D01*
X133280001Y-59112001D02*
X170872001Y-59112001D01*
X132080000Y-57912000D02*
X133280001Y-59112001D01*
D21*
X171132500Y-59372500D02*
X172212000Y-60452000D01*
X170961999Y-59201999D02*
X171132500Y-59372500D01*
%TO.N,L-6*%
X94672001Y-64331999D02*
X133673999Y-64331999D01*
X94234000Y-64770000D02*
X94672001Y-64331999D01*
X134620000Y-63385998D02*
X134620000Y-62992000D01*
X133673999Y-64331999D02*
X134620000Y-63385998D01*
%TO.N,Net-(JP1-Pad2)*%
X181356000Y-144018000D02*
X164592000Y-144018000D01*
X164592000Y-144018000D02*
X164084000Y-143510000D01*
X164084000Y-143510000D02*
X164084000Y-143002000D01*
X164084000Y-143002000D02*
X163068000Y-141986000D01*
X163068000Y-141986000D02*
X159258000Y-141986000D01*
X159004000Y-142240000D02*
X159004000Y-143764000D01*
X159258000Y-141986000D02*
X159004000Y-142240000D01*
%TO.N,L-7*%
X156464000Y-143764000D02*
X152908000Y-143764000D01*
X150552001Y-141408001D02*
X150552001Y-135058001D01*
X152908000Y-143764000D02*
X150552001Y-141408001D01*
X150552001Y-135058001D02*
X147574000Y-132080000D01*
X147574000Y-132080000D02*
X120142000Y-132080000D01*
X120142000Y-132080000D02*
X120142000Y-132080000D01*
X85344000Y-101092000D02*
X85344000Y-100330000D01*
X85344000Y-100330000D02*
X86360000Y-99314000D01*
X86360000Y-99314000D02*
X118110000Y-99314000D01*
X118110000Y-99314000D02*
X118110000Y-99314000D01*
%TO.N,L-3*%
X119380000Y-93980000D02*
X119888000Y-93980000D01*
X119888000Y-93980000D02*
X112268000Y-93980000D01*
X110166001Y-96081999D02*
X101923999Y-96081999D01*
X112268000Y-93980000D02*
X110166001Y-96081999D01*
%TO.N,L-2*%
X97790000Y-98298000D02*
X126746000Y-98298000D01*
X127508000Y-97536000D02*
X127508000Y-96520000D01*
X126746000Y-98298000D02*
X127508000Y-97536000D01*
%TO.N,L-1*%
X97282000Y-92202000D02*
X117602000Y-92202000D01*
X118179999Y-92779999D02*
X125406001Y-92779999D01*
X117602000Y-92202000D02*
X118179999Y-92779999D01*
X125406001Y-92779999D02*
X125406001Y-92779999D01*
%TO.N,L-0*%
X84143999Y-89731999D02*
X93656001Y-89731999D01*
X93656001Y-89731999D02*
X94488000Y-88900000D01*
X94488000Y-88900000D02*
X117602000Y-88900000D01*
X117602000Y-88900000D02*
X117602000Y-88900000D01*
%TO.N,Net-(U12-Pad1)*%
X103124000Y-116078000D02*
X103124000Y-115062000D01*
X103124000Y-115062000D02*
X103124000Y-114808000D01*
X103124000Y-114808000D02*
X103632000Y-114300000D01*
X103632000Y-114300000D02*
X107950000Y-114300000D01*
X107950000Y-114300000D02*
X107950000Y-114300000D01*
X173228000Y-96520000D02*
X172974000Y-96520000D01*
X150368000Y-97790000D02*
X150368000Y-96520000D01*
X107696000Y-100330000D02*
X107696000Y-100330000D01*
X107696000Y-100330000D02*
X107696000Y-100330000D01*
X150368000Y-98044000D02*
X150368000Y-96520000D01*
X149767990Y-98644010D02*
X150368000Y-98044000D01*
X133765990Y-98644010D02*
X149767990Y-98644010D01*
X132080000Y-100330000D02*
X133765990Y-98644010D01*
X107696000Y-100330000D02*
X132080000Y-100330000D01*
D26*
X173228000Y-96520000D02*
X173228000Y-96774000D01*
X172331999Y-97670001D02*
X167266001Y-97670001D01*
X173228000Y-96774000D02*
X172331999Y-97670001D01*
X167266001Y-97670001D02*
X167259000Y-97663000D01*
X167259000Y-97663000D02*
X164211000Y-97663000D01*
X164211000Y-97663000D02*
X163449000Y-98425000D01*
X151003000Y-98425000D02*
X150368000Y-97790000D01*
X163449000Y-98425000D02*
X151003000Y-98425000D01*
D21*
%TO.N,WRPT-F*%
X129540000Y-120396000D02*
X139446000Y-120396000D01*
X139446000Y-120396000D02*
X139446000Y-120396000D01*
X157734000Y-93726000D02*
X157988000Y-93472000D01*
X142494000Y-93726000D02*
X157734000Y-93726000D01*
%TO.N,DIR-F*%
X168402000Y-138938000D02*
X182626000Y-138938000D01*
X166370000Y-140970000D02*
X168402000Y-138938000D01*
X155448000Y-140970000D02*
X166370000Y-140970000D01*
X154432000Y-139954000D02*
X155448000Y-140970000D01*
X154432000Y-139192000D02*
X154432000Y-139954000D01*
X182626000Y-138938000D02*
X183388000Y-138938000D01*
X183388000Y-138938000D02*
X183388000Y-138938000D01*
%TO.N,IP-F*%
X129032000Y-123952000D02*
X129032000Y-125476000D01*
X129032000Y-125476000D02*
X130302000Y-126746000D01*
X130302000Y-126746000D02*
X140208000Y-126746000D01*
X140208000Y-126746000D02*
X140716000Y-127254000D01*
X140716000Y-127254000D02*
X160020000Y-127254000D01*
X160020000Y-127254000D02*
X160528000Y-127762000D01*
X160528000Y-127762000D02*
X160528000Y-127762000D01*
%TO.N,ST-F*%
X171450000Y-134874000D02*
X152654000Y-134874000D01*
X151892000Y-135636000D02*
X151892000Y-139192000D01*
X152654000Y-134874000D02*
X151892000Y-135636000D01*
%TO.N,TR0-F*%
X131572000Y-123952000D02*
X131572000Y-125476000D01*
X131572000Y-125476000D02*
X132080000Y-125984000D01*
X132080000Y-125984000D02*
X140970000Y-125984000D01*
X140970000Y-125984000D02*
X141478000Y-126492000D01*
X141478000Y-126492000D02*
X160782000Y-126492000D01*
X160782000Y-126492000D02*
X161290000Y-126492000D01*
X161290000Y-126492000D02*
X161290000Y-126492000D01*
%TO.N,Net-(U13-Pad4)*%
X134181999Y-69411999D02*
X134181999Y-69411999D01*
X136074001Y-69411999D02*
X136074001Y-69411999D01*
X137852001Y-69411999D02*
X137922000Y-69342000D01*
X124968000Y-68580000D02*
X125799999Y-69411999D01*
X124968000Y-65786000D02*
X124968000Y-68580000D01*
X125222000Y-65532000D02*
X124968000Y-65786000D01*
X125799999Y-69411999D02*
X137852001Y-69411999D01*
X127508000Y-65532000D02*
X125222000Y-65532000D01*
%TO.N,WG-F*%
X160851999Y-125406001D02*
X160851999Y-122358001D01*
X160528000Y-125730000D02*
X160851999Y-125406001D01*
X142494000Y-125730000D02*
X160528000Y-125730000D01*
X141732000Y-124968000D02*
X142494000Y-125730000D01*
X141732000Y-123952000D02*
X141732000Y-124968000D01*
X178308000Y-120904000D02*
X178308000Y-120904000D01*
X161290000Y-121920000D02*
X160851999Y-122358001D01*
X177292000Y-121920000D02*
X161290000Y-121920000D01*
X178308000Y-120904000D02*
X177292000Y-121920000D01*
%TO.N,WDOUT*%
X156972000Y-117856000D02*
X156972000Y-118872000D01*
X157949999Y-119849999D02*
X170141999Y-119849999D01*
X156972000Y-118872000D02*
X157949999Y-119849999D01*
X170141999Y-119849999D02*
X170942000Y-119049998D01*
X170942000Y-119049998D02*
X170942000Y-117348000D01*
X170942000Y-117348000D02*
X172212000Y-116078000D01*
X172212000Y-116078000D02*
X187198000Y-116078000D01*
X187198000Y-116078000D02*
X187198000Y-116078000D01*
%TO.N,RAWIN*%
X141732000Y-117856000D02*
X141732000Y-116078000D01*
X142586010Y-115223990D02*
X175860010Y-115223990D01*
X141732000Y-116078000D02*
X142586010Y-115223990D01*
X176968001Y-114115999D02*
X176968001Y-109035999D01*
X175860010Y-115223990D02*
X176968001Y-114115999D01*
X175768000Y-107835998D02*
X175768000Y-107188000D01*
X176968001Y-109035999D02*
X175768000Y-107835998D01*
%TO.N,Net-(U13-Pad6)*%
X119888000Y-83820000D02*
X123444000Y-83820000D01*
X125984000Y-86360000D02*
X127508000Y-86360000D01*
X123444000Y-83820000D02*
X125984000Y-86360000D01*
X100584000Y-116078000D02*
X100584000Y-114300000D01*
X100584000Y-114300000D02*
X101600000Y-113284000D01*
X101600000Y-113284000D02*
X115570000Y-113284000D01*
X115570000Y-113284000D02*
X115570000Y-113284000D01*
%TO.N,Net-(U10-Pad1)*%
X173228000Y-107188000D02*
X173228000Y-106172000D01*
X173228000Y-106172000D02*
X173990000Y-105410000D01*
X173990000Y-105410000D02*
X180086000Y-105410000D01*
X180848000Y-106172000D02*
X180848000Y-107188000D01*
X180086000Y-105410000D02*
X180848000Y-106172000D01*
%TO.N,Net-(J2-Pad7)*%
X106680000Y-84836000D02*
X107188000Y-84328000D01*
X98552000Y-84836000D02*
X106680000Y-84836000D01*
X98044000Y-85344000D02*
X98552000Y-84836000D01*
X107188000Y-84328000D02*
X107188000Y-83312000D01*
X98044000Y-86360000D02*
X98044000Y-85344000D01*
%TO.N,Net-(J2-Pad5)*%
X92964000Y-86360000D02*
X92964000Y-85344000D01*
X96520000Y-81788000D02*
X96520000Y-80772000D01*
X92964000Y-85344000D02*
X96520000Y-81788000D01*
X96520000Y-80772000D02*
X96520000Y-82296000D01*
X97536000Y-83312000D02*
X103632000Y-83312000D01*
X96520000Y-82296000D02*
X97536000Y-83312000D01*
%TO.N,Net-(J2-Pad3)*%
X86360000Y-83312000D02*
X89408000Y-83312000D01*
X90424000Y-84328000D02*
X90424000Y-86360000D01*
X89408000Y-83312000D02*
X90424000Y-84328000D01*
X93980000Y-80772000D02*
X93980000Y-82804000D01*
X93980000Y-82804000D02*
X92456000Y-84328000D01*
X92456000Y-84328000D02*
X91440000Y-84328000D01*
X90424000Y-85344000D02*
X90424000Y-86360000D01*
X91440000Y-84328000D02*
X90424000Y-85344000D01*
%TO.N,Net-(J2-Pad1)*%
X91440000Y-80772000D02*
X83820000Y-80772000D01*
X82804000Y-81788000D02*
X82804000Y-83312000D01*
X83820000Y-80772000D02*
X82804000Y-81788000D01*
X82804000Y-83312000D02*
X83312000Y-83312000D01*
X85344000Y-85344000D02*
X85344000Y-86360000D01*
X83312000Y-83312000D02*
X85344000Y-85344000D01*
D26*
%TO.N,~M1*%
X87884000Y-93980000D02*
X87884000Y-95123000D01*
X87884000Y-95123000D02*
X87249000Y-95758000D01*
X73100999Y-94944999D02*
X73914000Y-95758000D01*
X68528999Y-94944999D02*
X73100999Y-94944999D01*
X67437000Y-93853000D02*
X68528999Y-94944999D01*
X67437000Y-91694000D02*
X67437000Y-93853000D01*
X66733000Y-90990000D02*
X67437000Y-91694000D01*
X65250000Y-90990000D02*
X66733000Y-90990000D01*
X87249000Y-95758000D02*
X73914000Y-95758000D01*
%TO.N,Net-(U13-Pad13)*%
X146304000Y-71501000D02*
X146304000Y-69850000D01*
X132080000Y-73533000D02*
X144272000Y-73533000D01*
X130937000Y-74676000D02*
X132080000Y-73533000D01*
X144272000Y-73533000D02*
X146304000Y-71501000D01*
X123698000Y-74676000D02*
X130937000Y-74676000D01*
X122555000Y-73533000D02*
X123698000Y-74676000D01*
X121285000Y-70612000D02*
X122555000Y-71882000D01*
X122555000Y-71882000D02*
X122555000Y-73533000D01*
X119888000Y-70612000D02*
X121285000Y-70612000D01*
D21*
%TO.N,Net-(JP3-Pad2)*%
X178181000Y-74676000D02*
X178308000Y-74549000D01*
X175260000Y-74676000D02*
X178181000Y-74676000D01*
%TO.N,Net-(JP3-Pad1)*%
X151892000Y-110236000D02*
X151892000Y-109220000D01*
X151892000Y-109220000D02*
X153416000Y-107696000D01*
X153416000Y-107696000D02*
X158496000Y-107696000D01*
X160200000Y-105992000D02*
X160200000Y-104648000D01*
X158496000Y-107696000D02*
X160200000Y-105992000D01*
D26*
X166624000Y-99060000D02*
X166624000Y-99060000D01*
X159258000Y-99060000D02*
X158750000Y-99568000D01*
X158750000Y-99568000D02*
X158623000Y-99695000D01*
D21*
X172720000Y-74676000D02*
X167640000Y-74676000D01*
X167640000Y-74676000D02*
X167513000Y-74549000D01*
X167513000Y-74549000D02*
X167513000Y-74549000D01*
D26*
X166624000Y-99060000D02*
X159258000Y-99060000D01*
%TO.N,Net-(JP7-Pad1)*%
X122936000Y-70993000D02*
X122936000Y-68961000D01*
X123825000Y-71882000D02*
X122936000Y-70993000D01*
X137160000Y-71882000D02*
X123825000Y-71882000D01*
X140716000Y-68326000D02*
X137160000Y-71882000D01*
X157988000Y-68326000D02*
X140716000Y-68326000D01*
%TD*%
M02*
