M48
; DRILL file {KiCad (5.1.12)-1} date 05/01/26 10:30:46
; FORMAT={-:-/ absolute / inch / decimal}
; #@! TF.CreationDate,2026-05-01T10:30:46+02:00
; #@! TF.GenerationSoftware,Kicad,Pcbnew,(5.1.12)-1
; #@! TF.FileFunction,Plated,1,2,PTH
FMAT,2
INCH
T1C0.0157
T2C0.0197
T3C0.0315
T4C0.0394
%
G90
G05
T1
X2.64Y-4.24
X2.68Y-2.74
X2.72Y-4.14
X2.8777Y-4.9823
X2.88Y-2.68
X2.916Y-3.484
X2.916Y-4.736
X2.92Y-5.7
X2.9223Y-4.8823
X2.9351Y-3.38
X2.956Y-3.704
X2.956Y-4.836
X3.0015Y-5.0415
X3.0177Y-3.1823
X3.033Y-5.487
X3.26Y-5.66
X3.3Y-5.08
X3.3128Y-3.5328
X3.36Y-4.41
X3.46Y-4.14
X3.5223Y-4.1823
X3.56Y-4.14
X3.6Y-5.32
X3.7Y-5.36
X3.71Y-2.55
X3.76Y-3.54
X3.76Y-5.01
X3.83Y-3.63
X3.85Y-3.87
X3.88Y-4.36
X4.0128Y-3.7828
X4.06Y-4.06
X4.06Y-4.36
X4.1072Y-4.1472
X4.15Y-4.36
X4.16Y-3.58
X4.2272Y-4.1528
X4.24Y-3.95
X4.25Y-4.5
X4.32Y-4.72
X4.4Y-3.54
X4.404Y-4.636
X4.44Y-3.4
X4.4509Y-4.6691
X4.5Y-2.64
X4.5Y-5.18
X4.54Y-2.59
X4.54Y-3.25
X4.55Y-4.46
X4.63Y-3.5
X4.65Y-3.91
X4.68Y-5.04
X4.73Y-5.2
X4.78Y-5.16
X4.83Y-3.14
X4.83Y-3.5
X4.83Y-3.75
X4.84Y-2.715
X4.88Y-4.06
X4.92Y-4.11
X4.9372Y-3.6528
X5.02Y-4.74
X5.08Y-3.88
X5.1Y-4.74
X5.12Y-4.45
X5.125Y-3.355
X5.15Y-4.26
X5.28Y-3.95
X5.28Y-4.14
X5.28Y-5.06
X5.34Y-3.6
X5.34Y-3.75
X5.3472Y-3.5472
X5.43Y-2.73
X5.49Y-4.74
X5.56Y-4.76
X5.58Y-2.39
X5.6Y-2.13
X5.61Y-3.69
X5.63Y-3.2
X5.64Y-3.29
X5.64Y-3.56
X5.71Y-4.76
X5.73Y-4.43
X5.7328Y-5.1572
X5.8285Y-4.3985
X6.12Y-3.93
X6.18Y-4.75
X6.22Y-2.69
X6.22Y-3.68
X6.25Y-3.92
X6.32Y-5.03
X6.33Y-5.17
X6.35Y-4.98
X6.38Y-4.75
X6.56Y-3.9
X6.595Y-2.935
X6.66Y-4.02
X6.66Y-4.64
X6.75Y-5.31
X6.87Y-3.98
X6.92Y-3.63
X7.02Y-4.76
X7.03Y-4.11
X7.0672Y-3.2128
X7.07Y-4.03
X7.07Y-4.03
X7.07Y-4.03
X7.08Y-5.16
X7.11Y-4.52
X7.14Y-5.67
X7.17Y-3.73
X7.21Y-3.25
X7.21Y-3.69
X7.22Y-5.47
X7.27Y-3.56
X7.27Y-4.15
X7.37Y-4.57
X7.42Y-3.415
X7.4215Y-3.6085
X7.47Y-3.14
X7.59Y-3.37
X7.61Y-2.96
X7.61Y-4.06
X7.64Y-4.36
X7.65Y-3.69
X7.66Y-3.86
X7.67Y-4.56
X7.69Y-3.16
X7.69Y-3.64
X7.69Y-3.74
X7.69Y-4.16
X7.72Y-4.52
X7.74Y-4.76
X7.79Y-4.72
X8.0535Y-2.4535
X8.0692Y-3.9108
X8.0992Y-2.6108
X8.0992Y-3.7108
X8.1392Y-2.3008
X8.1392Y-3.6108
X8.16Y-4.08
X8.18Y-2.76
X8.22Y-2.38
X8.22Y-3.66
T2
X2.876Y-5.336
X2.88Y-5.56
X3.1Y-5.76
X4.3Y-3.7
X4.3Y-4.28
T3
X3.26Y-2.46
X3.26Y-2.76
X3.26Y-2.88
X3.26Y-3.28
X3.26Y-3.4
X3.26Y-3.7
X3.26Y-3.84
X3.26Y-3.98
X3.26Y-4.28
X3.26Y-4.57
X3.26Y-4.87
X3.26Y-5.18
X3.26Y-5.48
X3.28Y-2.1616
X3.28Y-2.26
X3.36Y-2.46
X3.36Y-2.76
X3.36Y-3.4
X3.36Y-3.7
X3.36Y-3.98
X3.36Y-4.28
X3.36Y-4.57
X3.36Y-4.87
X3.36Y-5.18
X3.36Y-5.48
X3.4Y-2.88
X3.4Y-3.28
X3.46Y-2.46
X3.46Y-2.76
X3.46Y-3.4
X3.46Y-3.7
X3.46Y-3.98
X3.46Y-4.28
X3.46Y-4.57
X3.46Y-4.87
X3.46Y-5.18
X3.46Y-5.48
X3.56Y-2.46
X3.56Y-2.76
X3.56Y-3.4
X3.56Y-3.7
X3.56Y-3.98
X3.56Y-4.28
X3.56Y-4.57
X3.56Y-4.87
X3.56Y-5.18
X3.56Y-5.48
X3.66Y-2.46
X3.66Y-2.76
X3.66Y-3.4
X3.66Y-3.7
X3.66Y-3.84
X3.66Y-3.98
X3.66Y-4.28
X3.66Y-4.57
X3.66Y-4.87
X3.66Y-5.18
X3.66Y-5.48
X3.76Y-2.46
X3.76Y-2.76
X3.76Y-3.4
X3.76Y-3.7
X3.76Y-3.98
X3.76Y-4.28
X3.76Y-4.57
X3.76Y-4.87
X3.76Y-5.18
X3.76Y-5.48
X3.86Y-2.46
X3.86Y-2.76
X3.86Y-3.4
X3.86Y-3.7
X3.86Y-3.98
X3.86Y-4.28
X3.86Y-4.57
X3.86Y-4.87
X3.86Y-5.18
X3.86Y-5.48
X3.96Y-2.46
X3.96Y-2.76
X3.96Y-3.4
X3.96Y-3.7
X3.96Y-3.98
X3.96Y-4.28
X3.96Y-4.57
X3.96Y-4.87
X3.96Y-5.18
X3.96Y-5.48
X4.06Y-3.98
X4.06Y-4.28
X4.06Y-4.57
X4.06Y-4.87
X4.06Y-5.18
X4.06Y-5.48
X4.08Y-2.88
X4.08Y-3.28
X4.16Y-3.98
X4.16Y-4.28
X4.16Y-4.57
X4.16Y-4.87
X4.16Y-5.18
X4.16Y-5.48
X4.22Y-2.88
X4.22Y-3.28
X4.32Y-2.14
X4.58Y-4.88
X4.58Y-5.48
X4.66Y-4.6
X4.66Y-4.6984
X4.68Y-4.88
X4.68Y-5.48
X4.72Y-2.28
X4.72Y-2.38
X4.72Y-2.48
X4.72Y-2.58
X4.72Y-2.68
X4.72Y-2.78
X4.72Y-2.88
X4.72Y-3.2
X4.72Y-3.3
X4.72Y-3.4
X4.72Y-3.5
X4.72Y-3.6
X4.72Y-3.7
X4.72Y-3.8
X4.72Y-4.33
X4.78Y-4.88
X4.78Y-5.48
X4.88Y-4.88
X4.88Y-5.48
X4.98Y-4.88
X4.98Y-5.48
X5.02Y-2.28
X5.02Y-2.38
X5.02Y-2.48
X5.02Y-2.58
X5.02Y-2.68
X5.02Y-2.78
X5.02Y-2.88
X5.02Y-3.2
X5.02Y-3.3
X5.02Y-3.4
X5.02Y-3.5
X5.02Y-3.6
X5.02Y-3.7
X5.02Y-3.8
X5.02Y-4.06
X5.02Y-4.2
X5.02Y-4.34
X5.02Y-4.48
X5.02Y-4.62
X5.08Y-4.88
X5.08Y-5.48
X5.08Y-5.66
X5.18Y-4.88
X5.18Y-5.48
X5.18Y-5.66
X5.2Y-2.61
X5.2Y-3.01
X5.2Y-4.42
X5.22Y-3.2
X5.22Y-3.3
X5.22Y-3.4
X5.22Y-3.5
X5.22Y-3.6
X5.22Y-3.7
X5.22Y-3.8
X5.28Y-4.88
X5.28Y-5.48
X5.28Y-5.66
X5.38Y-4.88
X5.38Y-5.48
X5.38Y-5.66
X5.42Y-4.06
X5.42Y-4.2
X5.42Y-4.34
X5.42Y-4.48
X5.42Y-4.62
X5.48Y-4.88
X5.48Y-5.48
X5.48Y-5.66
X5.52Y-2.13
X5.52Y-3.2
X5.52Y-3.3
X5.52Y-3.4
X5.52Y-3.5
X5.52Y-3.6
X5.52Y-3.7
X5.52Y-3.8
X5.58Y-4.34
X5.58Y-4.48
X5.58Y-4.64
X5.58Y-4.88
X5.58Y-5.48
X5.58Y-5.66
X5.68Y-4.34
X5.68Y-4.64
X5.68Y-4.88
X5.68Y-5.48
X5.68Y-5.66
X5.72Y-3.01
X5.72Y-3.5
X5.72Y-3.8
X5.76Y-2.45
X5.76Y-2.75
X5.78Y-4.34
X5.78Y-4.64
X5.78Y-4.88
X5.78Y-5.48
X5.78Y-5.66
X5.82Y-3.5
X5.82Y-3.8
X5.88Y-4.34
X5.88Y-4.64
X5.88Y-4.88
X5.88Y-5.48
X5.88Y-5.66
X5.92Y-2.97
X5.92Y-3.37
X5.92Y-3.5
X5.92Y-3.8
X5.98Y-4.34
X5.98Y-4.64
X5.98Y-4.88
X5.98Y-5.48
X6.02Y-3.5
X6.02Y-3.8
X6.08Y-4.34
X6.08Y-4.64
X6.08Y-4.88
X6.08Y-5.48
X6.12Y-2.97
X6.12Y-3.37
X6.12Y-3.5
X6.12Y-3.8
X6.18Y-4.34
X6.18Y-4.64
X6.18Y-4.88
X6.18Y-5.48
X6.22Y-3.5
X6.22Y-3.8
X6.28Y-4.34
X6.28Y-4.64
X6.28Y-4.88
X6.28Y-5.48
X6.3071Y-4.12
X6.32Y-2.97
X6.32Y-3.37
X6.32Y-3.5
X6.32Y-3.8
X6.36Y-2.45
X6.36Y-2.75
X6.38Y-4.34
X6.38Y-4.64
X6.38Y-4.88
X6.38Y-5.48
X6.42Y-3.5
X6.42Y-3.8
X6.48Y-4.34
X6.48Y-4.64
X6.48Y-4.88
X6.48Y-5.48
X6.5Y-2.97
X6.5Y-3.37
X6.5Y-4.12
X6.57Y-4.48
X6.66Y-2.14
X6.66Y-3.8
X6.78Y-5.0
X6.78Y-5.4
X6.82Y-3.5
X6.82Y-3.8
X6.82Y-3.92
X6.82Y-4.22
X6.82Y-4.35
X6.82Y-4.65
X6.83Y-2.3
X6.83Y-2.45
X6.83Y-2.6
X6.83Y-2.75
X6.88Y-4.88
X6.92Y-3.5
X6.92Y-3.8
X6.92Y-3.92
X6.92Y-4.22
X6.92Y-4.35
X6.92Y-4.65
X6.98Y-5.0
X6.98Y-5.4
X7.02Y-2.935
X7.02Y-3.5
X7.02Y-3.8
X7.02Y-3.92
X7.02Y-4.22
X7.02Y-4.35
X7.02Y-4.65
X7.12Y-3.5
X7.12Y-3.8
X7.12Y-3.92
X7.12Y-4.22
X7.12Y-4.35
X7.12Y-4.65
X7.13Y-2.3
X7.13Y-2.45
X7.13Y-2.6
X7.13Y-2.75
X7.22Y-3.5
X7.22Y-3.8
X7.22Y-3.92
X7.22Y-4.22
X7.22Y-4.35
X7.22Y-4.65
X7.32Y-3.5
X7.32Y-3.8
X7.32Y-3.92
X7.32Y-4.22
X7.32Y-4.35
X7.32Y-4.65
X7.42Y-2.935
X7.42Y-3.5
X7.42Y-3.8
X7.42Y-3.92
X7.42Y-4.22
X7.42Y-4.35
X7.42Y-4.65
X7.53Y-2.14
X7.53Y-4.65
X7.9Y-5.4716
X7.9Y-5.57
X7.95Y-2.14
T4
X2.5689Y-2.3823
X2.5689Y-2.4823
X2.5689Y-2.5823
X2.5689Y-2.6823
X2.5689Y-2.7823
X2.5689Y-2.8823
X2.5689Y-2.9823
X2.5689Y-3.0823
X2.5689Y-3.1823
X2.5689Y-3.2823
X2.5689Y-3.3823
X2.5689Y-3.4823
X2.5689Y-3.5823
X2.5689Y-3.6823
X2.5689Y-3.7823
X2.5689Y-3.8823
X2.5689Y-3.9823
X2.5689Y-4.0823
X2.5689Y-4.1823
X2.5689Y-4.2823
X2.5689Y-4.3823
X2.5689Y-4.4823
X2.5689Y-4.5823
X2.5689Y-4.6823
X2.5689Y-4.7823
X2.5689Y-4.8823
X2.5689Y-4.9823
X2.5689Y-5.0823
X2.5689Y-5.1823
X2.5689Y-5.2823
X2.5689Y-5.3823
X2.5689Y-5.4823
X2.7689Y-2.3823
X2.7689Y-2.4823
X2.7689Y-2.5823
X2.7689Y-2.6823
X2.7689Y-2.7823
X2.7689Y-2.8823
X2.7689Y-2.9823
X2.7689Y-3.0823
X2.7689Y-3.1823
X2.7689Y-3.2823
X2.7689Y-3.3823
X2.7689Y-3.4823
X2.7689Y-3.5823
X2.7689Y-3.6823
X2.7689Y-3.7823
X2.7689Y-3.8823
X2.7689Y-3.9823
X2.7689Y-4.0823
X2.7689Y-4.1823
X2.7689Y-4.2823
X2.7689Y-4.3823
X2.7689Y-4.4823
X2.7689Y-4.5823
X2.7689Y-4.6823
X2.7689Y-4.7823
X2.7689Y-4.8823
X2.7689Y-4.9823
X2.7689Y-5.0823
X2.7689Y-5.1823
X2.7689Y-5.2823
X2.7689Y-5.3823
X2.7689Y-5.4823
X2.98Y-2.1431
X2.98Y-2.34
X3.6Y-3.08
X3.6Y-3.18
X3.7Y-3.08
X3.7Y-3.18
X3.8Y-3.08
X3.8Y-3.18
X3.9Y-3.08
X3.9Y-3.18
X4.42Y-2.89
X4.42Y-3.0869
X4.42Y-4.88
X4.42Y-5.0769
X4.42Y-5.5831
X4.42Y-5.78
X4.46Y-2.375
X4.56Y-2.375
X5.2Y-2.28
X5.2Y-2.38
X5.2Y-2.48
X5.3Y-2.28
X5.3Y-2.38
X5.3Y-2.48
X5.58Y-4.06
X5.58Y-4.16
X5.68Y-4.06
X5.68Y-4.16
X5.78Y-4.06
X5.78Y-4.16
X5.88Y-4.06
X5.88Y-4.16
X5.98Y-4.06
X5.98Y-4.16
X6.08Y-4.06
X6.08Y-4.16
X6.16Y-5.66
X6.26Y-5.66
X6.36Y-5.66
X6.56Y-2.6281
X6.56Y-2.825
X6.66Y-5.5831
X6.66Y-5.78
X6.6631Y-3.39
X6.8Y-2.94
X6.86Y-3.39
X6.9Y-2.94
X7.29Y-2.3
X7.29Y-2.45
X7.29Y-2.6
X7.29Y-2.75
X7.39Y-2.3
X7.39Y-2.45
X7.39Y-2.6
X7.39Y-2.75
X7.54Y-5.5831
X7.54Y-5.78
X7.85Y-2.76
X7.85Y-2.86
X7.85Y-2.96
X7.85Y-3.06
X7.85Y-3.16
X7.85Y-3.26
X7.85Y-3.36
X7.85Y-3.46
X7.85Y-3.56
X7.85Y-3.66
X7.85Y-3.76
X7.85Y-3.86
X7.85Y-3.96
X7.85Y-4.06
X7.85Y-4.16
X7.85Y-4.26
X7.85Y-4.36
X7.85Y-4.46
X7.85Y-4.56
X7.85Y-4.66
X7.85Y-4.76
X7.85Y-4.86
X7.85Y-4.96
X7.85Y-5.06
X7.85Y-5.16
X7.95Y-2.76
X7.95Y-2.86
X7.95Y-2.96
X7.95Y-3.06
X7.95Y-3.16
X7.95Y-3.26
X7.95Y-3.36
X7.95Y-3.46
X7.95Y-3.56
X7.95Y-3.66
X7.95Y-3.76
X7.95Y-3.86
X7.95Y-3.96
X7.95Y-4.06
X7.95Y-4.16
X7.95Y-4.26
X7.95Y-4.36
X7.95Y-4.46
X7.95Y-4.56
X7.95Y-4.66
X7.95Y-4.76
X7.95Y-4.86
X7.95Y-4.96
X7.95Y-5.06
X7.95Y-5.16
X8.3Y-2.76
X8.3Y-2.86
X8.3Y-2.96
X8.3Y-3.06
X8.3Y-3.16
X8.3Y-3.26
X8.3Y-3.36
X8.3Y-3.46
X8.3Y-3.56
X8.3Y-3.66
X8.3Y-3.76
X8.3Y-3.86
X8.3Y-3.96
X8.3Y-4.06
X8.3Y-4.16
X8.3Y-4.26
X8.3Y-4.36
X8.4Y-2.76
X8.4Y-2.86
X8.4Y-2.96
X8.4Y-3.06
X8.4Y-3.16
X8.4Y-3.26
X8.4Y-3.36
X8.4Y-3.46
X8.4Y-3.56
X8.4Y-3.66
X8.4Y-3.76
X8.4Y-3.86
X8.4Y-3.96
X8.4Y-4.06
X8.4Y-4.16
X8.4Y-4.26
X8.4Y-4.36
X8.4Y-5.16
T0
M30
