%TF.GenerationSoftware,KiCad,Pcbnew,9.0.7*%
%TF.CreationDate,2026-05-02T09:27:22+02:00*%
%TF.ProjectId,BUS-80-5,4255532d-3830-42d3-952e-6b696361645f,V2*%
%TF.SameCoordinates,Original*%
%TF.FileFunction,Legend,Top*%
%TF.FilePolarity,Positive*%
%FSLAX46Y46*%
G04 Gerber Fmt 4.6, Leading zero omitted, Abs format (unit mm)*
G04 Created by KiCad (PCBNEW 9.0.7) date 2026-05-02 09:27:22*
%MOMM*%
%LPD*%
G01*
G04 APERTURE LIST*
G04 Aperture macros list*
%AMOutline5P*
0 Free polygon, 5 corners , with rotation*
0 The origin of the aperture is its center*
0 number of corners: always 5*
0 $1 to $10 corner X, Y*
0 $11 Rotation angle, in degrees counterclockwise*
0 create outline with 5 corners*
4,1,5,$1,$2,$3,$4,$5,$6,$7,$8,$9,$10,$1,$2,$11*%
%AMOutline6P*
0 Free polygon, 6 corners , with rotation*
0 The origin of the aperture is its center*
0 number of corners: always 6*
0 $1 to $12 corner X, Y*
0 $13 Rotation angle, in degrees counterclockwise*
0 create outline with 6 corners*
4,1,6,$1,$2,$3,$4,$5,$6,$7,$8,$9,$10,$11,$12,$1,$2,$13*%
%AMOutline7P*
0 Free polygon, 7 corners , with rotation*
0 The origin of the aperture is its center*
0 number of corners: always 7*
0 $1 to $14 corner X, Y*
0 $15 Rotation angle, in degrees counterclockwise*
0 create outline with 7 corners*
4,1,7,$1,$2,$3,$4,$5,$6,$7,$8,$9,$10,$11,$12,$13,$14,$1,$2,$15*%
%AMOutline8P*
0 Free polygon, 8 corners , with rotation*
0 The origin of the aperture is its center*
0 number of corners: always 8*
0 $1 to $16 corner X, Y*
0 $17 Rotation angle, in degrees counterclockwise*
0 create outline with 8 corners*
4,1,8,$1,$2,$3,$4,$5,$6,$7,$8,$9,$10,$11,$12,$13,$14,$15,$16,$1,$2,$17*%
G04 Aperture macros list end*
%ADD10C,0.304800*%
%ADD11C,0.203200*%
%ADD12C,0.254000*%
%ADD13C,0.150000*%
%ADD14C,0.120000*%
%ADD15R,1.397000X1.397000*%
%ADD16C,1.397000*%
%ADD17R,1.524000X1.524000*%
%ADD18Outline8P,-0.762000X0.457200X-0.457200X0.762000X0.457200X0.762000X0.762000X0.457200X0.762000X-0.457200X0.457200X-0.762000X-0.457200X-0.762000X-0.762000X-0.457200X270.000000*%
G04 APERTURE END LIST*
D10*
X67764857Y-76496752D02*
X67619715Y-76424181D01*
X67619715Y-76424181D02*
X67402000Y-76424181D01*
X67402000Y-76424181D02*
X67184286Y-76496752D01*
X67184286Y-76496752D02*
X67039143Y-76641895D01*
X67039143Y-76641895D02*
X66966572Y-76787038D01*
X66966572Y-76787038D02*
X66894000Y-77077324D01*
X66894000Y-77077324D02*
X66894000Y-77295038D01*
X66894000Y-77295038D02*
X66966572Y-77585324D01*
X66966572Y-77585324D02*
X67039143Y-77730467D01*
X67039143Y-77730467D02*
X67184286Y-77875610D01*
X67184286Y-77875610D02*
X67402000Y-77948181D01*
X67402000Y-77948181D02*
X67547143Y-77948181D01*
X67547143Y-77948181D02*
X67764857Y-77875610D01*
X67764857Y-77875610D02*
X67837429Y-77803038D01*
X67837429Y-77803038D02*
X67837429Y-77295038D01*
X67837429Y-77295038D02*
X67547143Y-77295038D01*
X68490572Y-77948181D02*
X68490572Y-76424181D01*
X68490572Y-76424181D02*
X69361429Y-77948181D01*
X69361429Y-77948181D02*
X69361429Y-76424181D01*
X70087143Y-77948181D02*
X70087143Y-76424181D01*
X70087143Y-76424181D02*
X70450000Y-76424181D01*
X70450000Y-76424181D02*
X70667714Y-76496752D01*
X70667714Y-76496752D02*
X70812857Y-76641895D01*
X70812857Y-76641895D02*
X70885428Y-76787038D01*
X70885428Y-76787038D02*
X70958000Y-77077324D01*
X70958000Y-77077324D02*
X70958000Y-77295038D01*
X70958000Y-77295038D02*
X70885428Y-77585324D01*
X70885428Y-77585324D02*
X70812857Y-77730467D01*
X70812857Y-77730467D02*
X70667714Y-77875610D01*
X70667714Y-77875610D02*
X70450000Y-77948181D01*
X70450000Y-77948181D02*
X70087143Y-77948181D01*
X72209857Y-47286752D02*
X72064715Y-47214181D01*
X72064715Y-47214181D02*
X71847000Y-47214181D01*
X71847000Y-47214181D02*
X71629286Y-47286752D01*
X71629286Y-47286752D02*
X71484143Y-47431895D01*
X71484143Y-47431895D02*
X71411572Y-47577038D01*
X71411572Y-47577038D02*
X71339000Y-47867324D01*
X71339000Y-47867324D02*
X71339000Y-48085038D01*
X71339000Y-48085038D02*
X71411572Y-48375324D01*
X71411572Y-48375324D02*
X71484143Y-48520467D01*
X71484143Y-48520467D02*
X71629286Y-48665610D01*
X71629286Y-48665610D02*
X71847000Y-48738181D01*
X71847000Y-48738181D02*
X71992143Y-48738181D01*
X71992143Y-48738181D02*
X72209857Y-48665610D01*
X72209857Y-48665610D02*
X72282429Y-48593038D01*
X72282429Y-48593038D02*
X72282429Y-48085038D01*
X72282429Y-48085038D02*
X71992143Y-48085038D01*
X72935572Y-48738181D02*
X72935572Y-47214181D01*
X72935572Y-47214181D02*
X73806429Y-48738181D01*
X73806429Y-48738181D02*
X73806429Y-47214181D01*
X74532143Y-48738181D02*
X74532143Y-47214181D01*
X74532143Y-47214181D02*
X74895000Y-47214181D01*
X74895000Y-47214181D02*
X75112714Y-47286752D01*
X75112714Y-47286752D02*
X75257857Y-47431895D01*
X75257857Y-47431895D02*
X75330428Y-47577038D01*
X75330428Y-47577038D02*
X75403000Y-47867324D01*
X75403000Y-47867324D02*
X75403000Y-48085038D01*
X75403000Y-48085038D02*
X75330428Y-48375324D01*
X75330428Y-48375324D02*
X75257857Y-48520467D01*
X75257857Y-48520467D02*
X75112714Y-48665610D01*
X75112714Y-48665610D02*
X74895000Y-48738181D01*
X74895000Y-48738181D02*
X74532143Y-48738181D01*
X70085857Y-51967610D02*
X71247000Y-51967610D01*
X70666428Y-52548181D02*
X70666428Y-51387038D01*
X72770999Y-52548181D02*
X71900142Y-52548181D01*
X72335571Y-52548181D02*
X72335571Y-51024181D01*
X72335571Y-51024181D02*
X72190428Y-51241895D01*
X72190428Y-51241895D02*
X72045285Y-51387038D01*
X72045285Y-51387038D02*
X71900142Y-51459610D01*
X73351571Y-51169324D02*
X73424143Y-51096752D01*
X73424143Y-51096752D02*
X73569286Y-51024181D01*
X73569286Y-51024181D02*
X73932143Y-51024181D01*
X73932143Y-51024181D02*
X74077286Y-51096752D01*
X74077286Y-51096752D02*
X74149857Y-51169324D01*
X74149857Y-51169324D02*
X74222428Y-51314467D01*
X74222428Y-51314467D02*
X74222428Y-51459610D01*
X74222428Y-51459610D02*
X74149857Y-51677324D01*
X74149857Y-51677324D02*
X73279000Y-52548181D01*
X73279000Y-52548181D02*
X74222428Y-52548181D01*
X74657857Y-51024181D02*
X75165857Y-52548181D01*
X75165857Y-52548181D02*
X75673857Y-51024181D01*
X84440485Y-143267687D02*
X84440485Y-144707021D01*
X84440485Y-144707021D02*
X84513056Y-144876354D01*
X84513056Y-144876354D02*
X84585628Y-144961021D01*
X84585628Y-144961021D02*
X84730770Y-145045687D01*
X84730770Y-145045687D02*
X85021056Y-145045687D01*
X85021056Y-145045687D02*
X85166199Y-144961021D01*
X85166199Y-144961021D02*
X85238770Y-144876354D01*
X85238770Y-144876354D02*
X85311342Y-144707021D01*
X85311342Y-144707021D02*
X85311342Y-143267687D01*
X86254770Y-145045687D02*
X86109627Y-144961021D01*
X86109627Y-144961021D02*
X86037056Y-144791687D01*
X86037056Y-144791687D02*
X86037056Y-143267687D01*
X86835342Y-145045687D02*
X86835342Y-143860354D01*
X86835342Y-144199021D02*
X86907913Y-144029687D01*
X86907913Y-144029687D02*
X86980485Y-143945021D01*
X86980485Y-143945021D02*
X87125627Y-143860354D01*
X87125627Y-143860354D02*
X87270770Y-143860354D01*
X87778771Y-145045687D02*
X87778771Y-143860354D01*
X87778771Y-143267687D02*
X87706199Y-143352354D01*
X87706199Y-143352354D02*
X87778771Y-143437021D01*
X87778771Y-143437021D02*
X87851342Y-143352354D01*
X87851342Y-143352354D02*
X87778771Y-143267687D01*
X87778771Y-143267687D02*
X87778771Y-143437021D01*
X89157628Y-144961021D02*
X89012485Y-145045687D01*
X89012485Y-145045687D02*
X88722199Y-145045687D01*
X88722199Y-145045687D02*
X88577056Y-144961021D01*
X88577056Y-144961021D02*
X88504485Y-144876354D01*
X88504485Y-144876354D02*
X88431913Y-144707021D01*
X88431913Y-144707021D02*
X88431913Y-144199021D01*
X88431913Y-144199021D02*
X88504485Y-144029687D01*
X88504485Y-144029687D02*
X88577056Y-143945021D01*
X88577056Y-143945021D02*
X88722199Y-143860354D01*
X88722199Y-143860354D02*
X89012485Y-143860354D01*
X89012485Y-143860354D02*
X89157628Y-143945021D01*
X89810771Y-145045687D02*
X89810771Y-143267687D01*
X90463914Y-145045687D02*
X90463914Y-144114354D01*
X90463914Y-144114354D02*
X90391342Y-143945021D01*
X90391342Y-143945021D02*
X90246199Y-143860354D01*
X90246199Y-143860354D02*
X90028485Y-143860354D01*
X90028485Y-143860354D02*
X89883342Y-143945021D01*
X89883342Y-143945021D02*
X89810771Y-144029687D01*
X92350771Y-145045687D02*
X92350771Y-143267687D01*
X92350771Y-144114354D02*
X93221628Y-144114354D01*
X93221628Y-145045687D02*
X93221628Y-143267687D01*
X94600485Y-145045687D02*
X94600485Y-144114354D01*
X94600485Y-144114354D02*
X94527913Y-143945021D01*
X94527913Y-143945021D02*
X94382770Y-143860354D01*
X94382770Y-143860354D02*
X94092485Y-143860354D01*
X94092485Y-143860354D02*
X93947342Y-143945021D01*
X94600485Y-144961021D02*
X94455342Y-145045687D01*
X94455342Y-145045687D02*
X94092485Y-145045687D01*
X94092485Y-145045687D02*
X93947342Y-144961021D01*
X93947342Y-144961021D02*
X93874770Y-144791687D01*
X93874770Y-144791687D02*
X93874770Y-144622354D01*
X93874770Y-144622354D02*
X93947342Y-144453021D01*
X93947342Y-144453021D02*
X94092485Y-144368354D01*
X94092485Y-144368354D02*
X94455342Y-144368354D01*
X94455342Y-144368354D02*
X94600485Y-144283687D01*
X95979342Y-143860354D02*
X95979342Y-145045687D01*
X95326199Y-143860354D02*
X95326199Y-144791687D01*
X95326199Y-144791687D02*
X95398770Y-144961021D01*
X95398770Y-144961021D02*
X95543913Y-145045687D01*
X95543913Y-145045687D02*
X95761627Y-145045687D01*
X95761627Y-145045687D02*
X95906770Y-144961021D01*
X95906770Y-144961021D02*
X95979342Y-144876354D01*
X96705056Y-145045687D02*
X96705056Y-143860354D01*
X96705056Y-144029687D02*
X96777627Y-143945021D01*
X96777627Y-143945021D02*
X96922770Y-143860354D01*
X96922770Y-143860354D02*
X97140484Y-143860354D01*
X97140484Y-143860354D02*
X97285627Y-143945021D01*
X97285627Y-143945021D02*
X97358199Y-144114354D01*
X97358199Y-144114354D02*
X97358199Y-145045687D01*
X97358199Y-144114354D02*
X97430770Y-143945021D01*
X97430770Y-143945021D02*
X97575913Y-143860354D01*
X97575913Y-143860354D02*
X97793627Y-143860354D01*
X97793627Y-143860354D02*
X97938770Y-143945021D01*
X97938770Y-143945021D02*
X98011341Y-144114354D01*
X98011341Y-144114354D02*
X98011341Y-145045687D01*
X99390199Y-145045687D02*
X99390199Y-144114354D01*
X99390199Y-144114354D02*
X99317627Y-143945021D01*
X99317627Y-143945021D02*
X99172484Y-143860354D01*
X99172484Y-143860354D02*
X98882199Y-143860354D01*
X98882199Y-143860354D02*
X98737056Y-143945021D01*
X99390199Y-144961021D02*
X99245056Y-145045687D01*
X99245056Y-145045687D02*
X98882199Y-145045687D01*
X98882199Y-145045687D02*
X98737056Y-144961021D01*
X98737056Y-144961021D02*
X98664484Y-144791687D01*
X98664484Y-144791687D02*
X98664484Y-144622354D01*
X98664484Y-144622354D02*
X98737056Y-144453021D01*
X98737056Y-144453021D02*
X98882199Y-144368354D01*
X98882199Y-144368354D02*
X99245056Y-144368354D01*
X99245056Y-144368354D02*
X99390199Y-144283687D01*
X100115913Y-143860354D02*
X100115913Y-145045687D01*
X100115913Y-144029687D02*
X100188484Y-143945021D01*
X100188484Y-143945021D02*
X100333627Y-143860354D01*
X100333627Y-143860354D02*
X100551341Y-143860354D01*
X100551341Y-143860354D02*
X100696484Y-143945021D01*
X100696484Y-143945021D02*
X100769056Y-144114354D01*
X100769056Y-144114354D02*
X100769056Y-145045687D01*
X101494770Y-143860354D02*
X101494770Y-145045687D01*
X101494770Y-144029687D02*
X101567341Y-143945021D01*
X101567341Y-143945021D02*
X101712484Y-143860354D01*
X101712484Y-143860354D02*
X101930198Y-143860354D01*
X101930198Y-143860354D02*
X102075341Y-143945021D01*
X102075341Y-143945021D02*
X102147913Y-144114354D01*
X102147913Y-144114354D02*
X102147913Y-145045687D01*
X103962198Y-143183021D02*
X102655912Y-145469021D01*
X104687912Y-143267687D02*
X104687912Y-143691021D01*
X104325055Y-143521687D02*
X104687912Y-143691021D01*
X104687912Y-143691021D02*
X105050769Y-143521687D01*
X104470198Y-144029687D02*
X104687912Y-143691021D01*
X104687912Y-143691021D02*
X104905626Y-144029687D01*
X106284484Y-145045687D02*
X106284484Y-143267687D01*
X106284484Y-144961021D02*
X106139341Y-145045687D01*
X106139341Y-145045687D02*
X105849055Y-145045687D01*
X105849055Y-145045687D02*
X105703912Y-144961021D01*
X105703912Y-144961021D02*
X105631341Y-144876354D01*
X105631341Y-144876354D02*
X105558769Y-144707021D01*
X105558769Y-144707021D02*
X105558769Y-144199021D01*
X105558769Y-144199021D02*
X105631341Y-144029687D01*
X105631341Y-144029687D02*
X105703912Y-143945021D01*
X105703912Y-143945021D02*
X105849055Y-143860354D01*
X105849055Y-143860354D02*
X106139341Y-143860354D01*
X106139341Y-143860354D02*
X106284484Y-143945021D01*
X107663341Y-143860354D02*
X107663341Y-145299687D01*
X107663341Y-145299687D02*
X107590769Y-145469021D01*
X107590769Y-145469021D02*
X107518198Y-145553687D01*
X107518198Y-145553687D02*
X107373055Y-145638354D01*
X107373055Y-145638354D02*
X107155341Y-145638354D01*
X107155341Y-145638354D02*
X107010198Y-145553687D01*
X107663341Y-144961021D02*
X107518198Y-145045687D01*
X107518198Y-145045687D02*
X107227912Y-145045687D01*
X107227912Y-145045687D02*
X107082769Y-144961021D01*
X107082769Y-144961021D02*
X107010198Y-144876354D01*
X107010198Y-144876354D02*
X106937626Y-144707021D01*
X106937626Y-144707021D02*
X106937626Y-144199021D01*
X106937626Y-144199021D02*
X107010198Y-144029687D01*
X107010198Y-144029687D02*
X107082769Y-143945021D01*
X107082769Y-143945021D02*
X107227912Y-143860354D01*
X107227912Y-143860354D02*
X107518198Y-143860354D01*
X107518198Y-143860354D02*
X107663341Y-143945021D01*
X108606769Y-143267687D02*
X108606769Y-143691021D01*
X108243912Y-143521687D02*
X108606769Y-143691021D01*
X108606769Y-143691021D02*
X108969626Y-143521687D01*
X108389055Y-144029687D02*
X108606769Y-143691021D01*
X108606769Y-143691021D02*
X108824483Y-144029687D01*
X112162769Y-143267687D02*
X112307912Y-143267687D01*
X112307912Y-143267687D02*
X112453055Y-143352354D01*
X112453055Y-143352354D02*
X112525627Y-143437021D01*
X112525627Y-143437021D02*
X112598198Y-143606354D01*
X112598198Y-143606354D02*
X112670769Y-143945021D01*
X112670769Y-143945021D02*
X112670769Y-144368354D01*
X112670769Y-144368354D02*
X112598198Y-144707021D01*
X112598198Y-144707021D02*
X112525627Y-144876354D01*
X112525627Y-144876354D02*
X112453055Y-144961021D01*
X112453055Y-144961021D02*
X112307912Y-145045687D01*
X112307912Y-145045687D02*
X112162769Y-145045687D01*
X112162769Y-145045687D02*
X112017627Y-144961021D01*
X112017627Y-144961021D02*
X111945055Y-144876354D01*
X111945055Y-144876354D02*
X111872484Y-144707021D01*
X111872484Y-144707021D02*
X111799912Y-144368354D01*
X111799912Y-144368354D02*
X111799912Y-143945021D01*
X111799912Y-143945021D02*
X111872484Y-143606354D01*
X111872484Y-143606354D02*
X111945055Y-143437021D01*
X111945055Y-143437021D02*
X112017627Y-143352354D01*
X112017627Y-143352354D02*
X112162769Y-143267687D01*
X114049627Y-143267687D02*
X113323913Y-143267687D01*
X113323913Y-143267687D02*
X113251341Y-144114354D01*
X113251341Y-144114354D02*
X113323913Y-144029687D01*
X113323913Y-144029687D02*
X113469056Y-143945021D01*
X113469056Y-143945021D02*
X113831913Y-143945021D01*
X113831913Y-143945021D02*
X113977056Y-144029687D01*
X113977056Y-144029687D02*
X114049627Y-144114354D01*
X114049627Y-144114354D02*
X114122198Y-144283687D01*
X114122198Y-144283687D02*
X114122198Y-144707021D01*
X114122198Y-144707021D02*
X114049627Y-144876354D01*
X114049627Y-144876354D02*
X113977056Y-144961021D01*
X113977056Y-144961021D02*
X113831913Y-145045687D01*
X113831913Y-145045687D02*
X113469056Y-145045687D01*
X113469056Y-145045687D02*
X113323913Y-144961021D01*
X113323913Y-144961021D02*
X113251341Y-144876354D01*
X115863913Y-143183021D02*
X114557627Y-145469021D01*
X116299341Y-143437021D02*
X116371913Y-143352354D01*
X116371913Y-143352354D02*
X116517056Y-143267687D01*
X116517056Y-143267687D02*
X116879913Y-143267687D01*
X116879913Y-143267687D02*
X117025056Y-143352354D01*
X117025056Y-143352354D02*
X117097627Y-143437021D01*
X117097627Y-143437021D02*
X117170198Y-143606354D01*
X117170198Y-143606354D02*
X117170198Y-143775687D01*
X117170198Y-143775687D02*
X117097627Y-144029687D01*
X117097627Y-144029687D02*
X116226770Y-145045687D01*
X116226770Y-145045687D02*
X117170198Y-145045687D01*
X118113627Y-143267687D02*
X118258770Y-143267687D01*
X118258770Y-143267687D02*
X118403913Y-143352354D01*
X118403913Y-143352354D02*
X118476485Y-143437021D01*
X118476485Y-143437021D02*
X118549056Y-143606354D01*
X118549056Y-143606354D02*
X118621627Y-143945021D01*
X118621627Y-143945021D02*
X118621627Y-144368354D01*
X118621627Y-144368354D02*
X118549056Y-144707021D01*
X118549056Y-144707021D02*
X118476485Y-144876354D01*
X118476485Y-144876354D02*
X118403913Y-144961021D01*
X118403913Y-144961021D02*
X118258770Y-145045687D01*
X118258770Y-145045687D02*
X118113627Y-145045687D01*
X118113627Y-145045687D02*
X117968485Y-144961021D01*
X117968485Y-144961021D02*
X117895913Y-144876354D01*
X117895913Y-144876354D02*
X117823342Y-144707021D01*
X117823342Y-144707021D02*
X117750770Y-144368354D01*
X117750770Y-144368354D02*
X117750770Y-143945021D01*
X117750770Y-143945021D02*
X117823342Y-143606354D01*
X117823342Y-143606354D02*
X117895913Y-143437021D01*
X117895913Y-143437021D02*
X117968485Y-143352354D01*
X117968485Y-143352354D02*
X118113627Y-143267687D01*
X119202199Y-143437021D02*
X119274771Y-143352354D01*
X119274771Y-143352354D02*
X119419914Y-143267687D01*
X119419914Y-143267687D02*
X119782771Y-143267687D01*
X119782771Y-143267687D02*
X119927914Y-143352354D01*
X119927914Y-143352354D02*
X120000485Y-143437021D01*
X120000485Y-143437021D02*
X120073056Y-143606354D01*
X120073056Y-143606354D02*
X120073056Y-143775687D01*
X120073056Y-143775687D02*
X120000485Y-144029687D01*
X120000485Y-144029687D02*
X119129628Y-145045687D01*
X119129628Y-145045687D02*
X120073056Y-145045687D01*
X121379343Y-143267687D02*
X121089057Y-143267687D01*
X121089057Y-143267687D02*
X120943914Y-143352354D01*
X120943914Y-143352354D02*
X120871343Y-143437021D01*
X120871343Y-143437021D02*
X120726200Y-143691021D01*
X120726200Y-143691021D02*
X120653628Y-144029687D01*
X120653628Y-144029687D02*
X120653628Y-144707021D01*
X120653628Y-144707021D02*
X120726200Y-144876354D01*
X120726200Y-144876354D02*
X120798771Y-144961021D01*
X120798771Y-144961021D02*
X120943914Y-145045687D01*
X120943914Y-145045687D02*
X121234200Y-145045687D01*
X121234200Y-145045687D02*
X121379343Y-144961021D01*
X121379343Y-144961021D02*
X121451914Y-144876354D01*
X121451914Y-144876354D02*
X121524485Y-144707021D01*
X121524485Y-144707021D02*
X121524485Y-144283687D01*
X121524485Y-144283687D02*
X121451914Y-144114354D01*
X121451914Y-144114354D02*
X121379343Y-144029687D01*
X121379343Y-144029687D02*
X121234200Y-143945021D01*
X121234200Y-143945021D02*
X120943914Y-143945021D01*
X120943914Y-143945021D02*
X120798771Y-144029687D01*
X120798771Y-144029687D02*
X120726200Y-144114354D01*
X120726200Y-144114354D02*
X120653628Y-144283687D01*
X70811571Y-44347610D02*
X71972714Y-44347610D01*
X71392142Y-44928181D02*
X71392142Y-43767038D01*
X73424142Y-43404181D02*
X72698428Y-43404181D01*
X72698428Y-43404181D02*
X72625856Y-44129895D01*
X72625856Y-44129895D02*
X72698428Y-44057324D01*
X72698428Y-44057324D02*
X72843571Y-43984752D01*
X72843571Y-43984752D02*
X73206428Y-43984752D01*
X73206428Y-43984752D02*
X73351571Y-44057324D01*
X73351571Y-44057324D02*
X73424142Y-44129895D01*
X73424142Y-44129895D02*
X73496713Y-44275038D01*
X73496713Y-44275038D02*
X73496713Y-44637895D01*
X73496713Y-44637895D02*
X73424142Y-44783038D01*
X73424142Y-44783038D02*
X73351571Y-44855610D01*
X73351571Y-44855610D02*
X73206428Y-44928181D01*
X73206428Y-44928181D02*
X72843571Y-44928181D01*
X72843571Y-44928181D02*
X72698428Y-44855610D01*
X72698428Y-44855610D02*
X72625856Y-44783038D01*
X73932142Y-43404181D02*
X74440142Y-44928181D01*
X74440142Y-44928181D02*
X74948142Y-43404181D01*
X138687628Y-144235154D02*
X138905342Y-144319821D01*
X138905342Y-144319821D02*
X138977913Y-144404487D01*
X138977913Y-144404487D02*
X139050485Y-144573821D01*
X139050485Y-144573821D02*
X139050485Y-144827821D01*
X139050485Y-144827821D02*
X138977913Y-144997154D01*
X138977913Y-144997154D02*
X138905342Y-145081821D01*
X138905342Y-145081821D02*
X138760199Y-145166487D01*
X138760199Y-145166487D02*
X138179628Y-145166487D01*
X138179628Y-145166487D02*
X138179628Y-143388487D01*
X138179628Y-143388487D02*
X138687628Y-143388487D01*
X138687628Y-143388487D02*
X138832771Y-143473154D01*
X138832771Y-143473154D02*
X138905342Y-143557821D01*
X138905342Y-143557821D02*
X138977913Y-143727154D01*
X138977913Y-143727154D02*
X138977913Y-143896487D01*
X138977913Y-143896487D02*
X138905342Y-144065821D01*
X138905342Y-144065821D02*
X138832771Y-144150487D01*
X138832771Y-144150487D02*
X138687628Y-144235154D01*
X138687628Y-144235154D02*
X138179628Y-144235154D01*
X139703628Y-143388487D02*
X139703628Y-144827821D01*
X139703628Y-144827821D02*
X139776199Y-144997154D01*
X139776199Y-144997154D02*
X139848771Y-145081821D01*
X139848771Y-145081821D02*
X139993913Y-145166487D01*
X139993913Y-145166487D02*
X140284199Y-145166487D01*
X140284199Y-145166487D02*
X140429342Y-145081821D01*
X140429342Y-145081821D02*
X140501913Y-144997154D01*
X140501913Y-144997154D02*
X140574485Y-144827821D01*
X140574485Y-144827821D02*
X140574485Y-143388487D01*
X141227627Y-145081821D02*
X141445342Y-145166487D01*
X141445342Y-145166487D02*
X141808199Y-145166487D01*
X141808199Y-145166487D02*
X141953342Y-145081821D01*
X141953342Y-145081821D02*
X142025913Y-144997154D01*
X142025913Y-144997154D02*
X142098484Y-144827821D01*
X142098484Y-144827821D02*
X142098484Y-144658487D01*
X142098484Y-144658487D02*
X142025913Y-144489154D01*
X142025913Y-144489154D02*
X141953342Y-144404487D01*
X141953342Y-144404487D02*
X141808199Y-144319821D01*
X141808199Y-144319821D02*
X141517913Y-144235154D01*
X141517913Y-144235154D02*
X141372770Y-144150487D01*
X141372770Y-144150487D02*
X141300199Y-144065821D01*
X141300199Y-144065821D02*
X141227627Y-143896487D01*
X141227627Y-143896487D02*
X141227627Y-143727154D01*
X141227627Y-143727154D02*
X141300199Y-143557821D01*
X141300199Y-143557821D02*
X141372770Y-143473154D01*
X141372770Y-143473154D02*
X141517913Y-143388487D01*
X141517913Y-143388487D02*
X141880770Y-143388487D01*
X141880770Y-143388487D02*
X142098484Y-143473154D01*
X142751628Y-144489154D02*
X143912771Y-144489154D01*
X144856199Y-144150487D02*
X144711056Y-144065821D01*
X144711056Y-144065821D02*
X144638485Y-143981154D01*
X144638485Y-143981154D02*
X144565913Y-143811821D01*
X144565913Y-143811821D02*
X144565913Y-143727154D01*
X144565913Y-143727154D02*
X144638485Y-143557821D01*
X144638485Y-143557821D02*
X144711056Y-143473154D01*
X144711056Y-143473154D02*
X144856199Y-143388487D01*
X144856199Y-143388487D02*
X145146485Y-143388487D01*
X145146485Y-143388487D02*
X145291628Y-143473154D01*
X145291628Y-143473154D02*
X145364199Y-143557821D01*
X145364199Y-143557821D02*
X145436770Y-143727154D01*
X145436770Y-143727154D02*
X145436770Y-143811821D01*
X145436770Y-143811821D02*
X145364199Y-143981154D01*
X145364199Y-143981154D02*
X145291628Y-144065821D01*
X145291628Y-144065821D02*
X145146485Y-144150487D01*
X145146485Y-144150487D02*
X144856199Y-144150487D01*
X144856199Y-144150487D02*
X144711056Y-144235154D01*
X144711056Y-144235154D02*
X144638485Y-144319821D01*
X144638485Y-144319821D02*
X144565913Y-144489154D01*
X144565913Y-144489154D02*
X144565913Y-144827821D01*
X144565913Y-144827821D02*
X144638485Y-144997154D01*
X144638485Y-144997154D02*
X144711056Y-145081821D01*
X144711056Y-145081821D02*
X144856199Y-145166487D01*
X144856199Y-145166487D02*
X145146485Y-145166487D01*
X145146485Y-145166487D02*
X145291628Y-145081821D01*
X145291628Y-145081821D02*
X145364199Y-144997154D01*
X145364199Y-144997154D02*
X145436770Y-144827821D01*
X145436770Y-144827821D02*
X145436770Y-144489154D01*
X145436770Y-144489154D02*
X145364199Y-144319821D01*
X145364199Y-144319821D02*
X145291628Y-144235154D01*
X145291628Y-144235154D02*
X145146485Y-144150487D01*
X146380199Y-143388487D02*
X146525342Y-143388487D01*
X146525342Y-143388487D02*
X146670485Y-143473154D01*
X146670485Y-143473154D02*
X146743057Y-143557821D01*
X146743057Y-143557821D02*
X146815628Y-143727154D01*
X146815628Y-143727154D02*
X146888199Y-144065821D01*
X146888199Y-144065821D02*
X146888199Y-144489154D01*
X146888199Y-144489154D02*
X146815628Y-144827821D01*
X146815628Y-144827821D02*
X146743057Y-144997154D01*
X146743057Y-144997154D02*
X146670485Y-145081821D01*
X146670485Y-145081821D02*
X146525342Y-145166487D01*
X146525342Y-145166487D02*
X146380199Y-145166487D01*
X146380199Y-145166487D02*
X146235057Y-145081821D01*
X146235057Y-145081821D02*
X146162485Y-144997154D01*
X146162485Y-144997154D02*
X146089914Y-144827821D01*
X146089914Y-144827821D02*
X146017342Y-144489154D01*
X146017342Y-144489154D02*
X146017342Y-144065821D01*
X146017342Y-144065821D02*
X146089914Y-143727154D01*
X146089914Y-143727154D02*
X146162485Y-143557821D01*
X146162485Y-143557821D02*
X146235057Y-143473154D01*
X146235057Y-143473154D02*
X146380199Y-143388487D01*
X147541343Y-144489154D02*
X148702486Y-144489154D01*
X150153914Y-143388487D02*
X149428200Y-143388487D01*
X149428200Y-143388487D02*
X149355628Y-144235154D01*
X149355628Y-144235154D02*
X149428200Y-144150487D01*
X149428200Y-144150487D02*
X149573343Y-144065821D01*
X149573343Y-144065821D02*
X149936200Y-144065821D01*
X149936200Y-144065821D02*
X150081343Y-144150487D01*
X150081343Y-144150487D02*
X150153914Y-144235154D01*
X150153914Y-144235154D02*
X150226485Y-144404487D01*
X150226485Y-144404487D02*
X150226485Y-144827821D01*
X150226485Y-144827821D02*
X150153914Y-144997154D01*
X150153914Y-144997154D02*
X150081343Y-145081821D01*
X150081343Y-145081821D02*
X149936200Y-145166487D01*
X149936200Y-145166487D02*
X149573343Y-145166487D01*
X149573343Y-145166487D02*
X149428200Y-145081821D01*
X149428200Y-145081821D02*
X149355628Y-144997154D01*
X151823057Y-143388487D02*
X152331057Y-145166487D01*
X152331057Y-145166487D02*
X152839057Y-143388487D01*
X153274486Y-143557821D02*
X153347058Y-143473154D01*
X153347058Y-143473154D02*
X153492201Y-143388487D01*
X153492201Y-143388487D02*
X153855058Y-143388487D01*
X153855058Y-143388487D02*
X154000201Y-143473154D01*
X154000201Y-143473154D02*
X154072772Y-143557821D01*
X154072772Y-143557821D02*
X154145343Y-143727154D01*
X154145343Y-143727154D02*
X154145343Y-143896487D01*
X154145343Y-143896487D02*
X154072772Y-144150487D01*
X154072772Y-144150487D02*
X153201915Y-145166487D01*
X153201915Y-145166487D02*
X154145343Y-145166487D01*
X67764857Y-96576752D02*
X67619715Y-96504181D01*
X67619715Y-96504181D02*
X67402000Y-96504181D01*
X67402000Y-96504181D02*
X67184286Y-96576752D01*
X67184286Y-96576752D02*
X67039143Y-96721895D01*
X67039143Y-96721895D02*
X66966572Y-96867038D01*
X66966572Y-96867038D02*
X66894000Y-97157324D01*
X66894000Y-97157324D02*
X66894000Y-97375038D01*
X66894000Y-97375038D02*
X66966572Y-97665324D01*
X66966572Y-97665324D02*
X67039143Y-97810467D01*
X67039143Y-97810467D02*
X67184286Y-97955610D01*
X67184286Y-97955610D02*
X67402000Y-98028181D01*
X67402000Y-98028181D02*
X67547143Y-98028181D01*
X67547143Y-98028181D02*
X67764857Y-97955610D01*
X67764857Y-97955610D02*
X67837429Y-97883038D01*
X67837429Y-97883038D02*
X67837429Y-97375038D01*
X67837429Y-97375038D02*
X67547143Y-97375038D01*
X68490572Y-98028181D02*
X68490572Y-96504181D01*
X68490572Y-96504181D02*
X69361429Y-98028181D01*
X69361429Y-98028181D02*
X69361429Y-96504181D01*
X70087143Y-98028181D02*
X70087143Y-96504181D01*
X70087143Y-96504181D02*
X70450000Y-96504181D01*
X70450000Y-96504181D02*
X70667714Y-96576752D01*
X70667714Y-96576752D02*
X70812857Y-96721895D01*
X70812857Y-96721895D02*
X70885428Y-96867038D01*
X70885428Y-96867038D02*
X70958000Y-97157324D01*
X70958000Y-97157324D02*
X70958000Y-97375038D01*
X70958000Y-97375038D02*
X70885428Y-97665324D01*
X70885428Y-97665324D02*
X70812857Y-97810467D01*
X70812857Y-97810467D02*
X70667714Y-97955610D01*
X70667714Y-97955610D02*
X70450000Y-98028181D01*
X70450000Y-98028181D02*
X70087143Y-98028181D01*
X68790429Y-107489096D02*
X69951572Y-107489096D01*
X69371000Y-108263191D02*
X69371000Y-106715001D01*
X65685857Y-87447610D02*
X66847000Y-87447610D01*
X66266428Y-88028181D02*
X66266428Y-86867038D01*
X68370999Y-88028181D02*
X67500142Y-88028181D01*
X67935571Y-88028181D02*
X67935571Y-86504181D01*
X67935571Y-86504181D02*
X67790428Y-86721895D01*
X67790428Y-86721895D02*
X67645285Y-86867038D01*
X67645285Y-86867038D02*
X67500142Y-86939610D01*
X69749857Y-86504181D02*
X69024143Y-86504181D01*
X69024143Y-86504181D02*
X68951571Y-87229895D01*
X68951571Y-87229895D02*
X69024143Y-87157324D01*
X69024143Y-87157324D02*
X69169286Y-87084752D01*
X69169286Y-87084752D02*
X69532143Y-87084752D01*
X69532143Y-87084752D02*
X69677286Y-87157324D01*
X69677286Y-87157324D02*
X69749857Y-87229895D01*
X69749857Y-87229895D02*
X69822428Y-87375038D01*
X69822428Y-87375038D02*
X69822428Y-87737895D01*
X69822428Y-87737895D02*
X69749857Y-87883038D01*
X69749857Y-87883038D02*
X69677286Y-87955610D01*
X69677286Y-87955610D02*
X69532143Y-88028181D01*
X69532143Y-88028181D02*
X69169286Y-88028181D01*
X69169286Y-88028181D02*
X69024143Y-87955610D01*
X69024143Y-87955610D02*
X68951571Y-87883038D01*
X70257857Y-86504181D02*
X70765857Y-88028181D01*
X70765857Y-88028181D02*
X71273857Y-86504181D01*
X66966571Y-82447610D02*
X68127714Y-82447610D01*
X69579142Y-81504181D02*
X68853428Y-81504181D01*
X68853428Y-81504181D02*
X68780856Y-82229895D01*
X68780856Y-82229895D02*
X68853428Y-82157324D01*
X68853428Y-82157324D02*
X68998571Y-82084752D01*
X68998571Y-82084752D02*
X69361428Y-82084752D01*
X69361428Y-82084752D02*
X69506571Y-82157324D01*
X69506571Y-82157324D02*
X69579142Y-82229895D01*
X69579142Y-82229895D02*
X69651713Y-82375038D01*
X69651713Y-82375038D02*
X69651713Y-82737895D01*
X69651713Y-82737895D02*
X69579142Y-82883038D01*
X69579142Y-82883038D02*
X69506571Y-82955610D01*
X69506571Y-82955610D02*
X69361428Y-83028181D01*
X69361428Y-83028181D02*
X68998571Y-83028181D01*
X68998571Y-83028181D02*
X68853428Y-82955610D01*
X68853428Y-82955610D02*
X68780856Y-82883038D01*
X70087142Y-81504181D02*
X70595142Y-83028181D01*
X70595142Y-83028181D02*
X71103142Y-81504181D01*
X65685857Y-92447610D02*
X66847000Y-92447610D01*
X68370999Y-93028181D02*
X67500142Y-93028181D01*
X67935571Y-93028181D02*
X67935571Y-91504181D01*
X67935571Y-91504181D02*
X67790428Y-91721895D01*
X67790428Y-91721895D02*
X67645285Y-91867038D01*
X67645285Y-91867038D02*
X67500142Y-91939610D01*
X68951571Y-91649324D02*
X69024143Y-91576752D01*
X69024143Y-91576752D02*
X69169286Y-91504181D01*
X69169286Y-91504181D02*
X69532143Y-91504181D01*
X69532143Y-91504181D02*
X69677286Y-91576752D01*
X69677286Y-91576752D02*
X69749857Y-91649324D01*
X69749857Y-91649324D02*
X69822428Y-91794467D01*
X69822428Y-91794467D02*
X69822428Y-91939610D01*
X69822428Y-91939610D02*
X69749857Y-92157324D01*
X69749857Y-92157324D02*
X68879000Y-93028181D01*
X68879000Y-93028181D02*
X69822428Y-93028181D01*
X70257857Y-91504181D02*
X70765857Y-93028181D01*
X70765857Y-93028181D02*
X71273857Y-91504181D01*
X73891286Y-114528181D02*
X73165572Y-114528181D01*
X73165572Y-114528181D02*
X73165572Y-113004181D01*
X74399286Y-113729895D02*
X74907286Y-113729895D01*
X75125000Y-114528181D02*
X74399286Y-114528181D01*
X74399286Y-114528181D02*
X74399286Y-113004181D01*
X74399286Y-113004181D02*
X75125000Y-113004181D01*
X75778143Y-114528181D02*
X75778143Y-113004181D01*
X75778143Y-113004181D02*
X76141000Y-113004181D01*
X76141000Y-113004181D02*
X76358714Y-113076752D01*
X76358714Y-113076752D02*
X76503857Y-113221895D01*
X76503857Y-113221895D02*
X76576428Y-113367038D01*
X76576428Y-113367038D02*
X76649000Y-113657324D01*
X76649000Y-113657324D02*
X76649000Y-113875038D01*
X76649000Y-113875038D02*
X76576428Y-114165324D01*
X76576428Y-114165324D02*
X76503857Y-114310467D01*
X76503857Y-114310467D02*
X76358714Y-114455610D01*
X76358714Y-114455610D02*
X76141000Y-114528181D01*
X76141000Y-114528181D02*
X75778143Y-114528181D01*
D11*
X72159333Y-123974711D02*
X71735999Y-123309473D01*
X71433618Y-123974711D02*
X71433618Y-122577711D01*
X71433618Y-122577711D02*
X71917428Y-122577711D01*
X71917428Y-122577711D02*
X72038380Y-122644235D01*
X72038380Y-122644235D02*
X72098857Y-122710759D01*
X72098857Y-122710759D02*
X72159333Y-122843807D01*
X72159333Y-122843807D02*
X72159333Y-123043378D01*
X72159333Y-123043378D02*
X72098857Y-123176426D01*
X72098857Y-123176426D02*
X72038380Y-123242949D01*
X72038380Y-123242949D02*
X71917428Y-123309473D01*
X71917428Y-123309473D02*
X71433618Y-123309473D01*
X73368857Y-123974711D02*
X72643142Y-123974711D01*
X73005999Y-123974711D02*
X73005999Y-122577711D01*
X73005999Y-122577711D02*
X72885047Y-122777283D01*
X72885047Y-122777283D02*
X72764095Y-122910330D01*
X72764095Y-122910330D02*
X72643142Y-122976854D01*
X69300378Y-124561619D02*
X70231711Y-124561619D01*
X68768188Y-124864000D02*
X69766045Y-125166381D01*
X69766045Y-125166381D02*
X69766045Y-124380190D01*
X68834711Y-124017333D02*
X68834711Y-123170666D01*
X68834711Y-123170666D02*
X70231711Y-123714952D01*
X68834711Y-122444952D02*
X68834711Y-122323999D01*
X68834711Y-122323999D02*
X68901235Y-122203047D01*
X68901235Y-122203047D02*
X68967759Y-122142571D01*
X68967759Y-122142571D02*
X69100807Y-122082095D01*
X69100807Y-122082095D02*
X69366902Y-122021618D01*
X69366902Y-122021618D02*
X69699521Y-122021618D01*
X69699521Y-122021618D02*
X69965616Y-122082095D01*
X69965616Y-122082095D02*
X70098664Y-122142571D01*
X70098664Y-122142571D02*
X70165188Y-122203047D01*
X70165188Y-122203047D02*
X70231711Y-122323999D01*
X70231711Y-122323999D02*
X70231711Y-122444952D01*
X70231711Y-122444952D02*
X70165188Y-122565904D01*
X70165188Y-122565904D02*
X70098664Y-122626380D01*
X70098664Y-122626380D02*
X69965616Y-122686857D01*
X69965616Y-122686857D02*
X69699521Y-122747333D01*
X69699521Y-122747333D02*
X69366902Y-122747333D01*
X69366902Y-122747333D02*
X69100807Y-122686857D01*
X69100807Y-122686857D02*
X68967759Y-122626380D01*
X68967759Y-122626380D02*
X68901235Y-122565904D01*
X68901235Y-122565904D02*
X68834711Y-122444952D01*
X95461667Y-47121692D02*
X95413286Y-47170073D01*
X95413286Y-47170073D02*
X95268143Y-47218453D01*
X95268143Y-47218453D02*
X95171381Y-47218453D01*
X95171381Y-47218453D02*
X95026238Y-47170073D01*
X95026238Y-47170073D02*
X94929476Y-47073311D01*
X94929476Y-47073311D02*
X94881095Y-46976549D01*
X94881095Y-46976549D02*
X94832714Y-46783025D01*
X94832714Y-46783025D02*
X94832714Y-46637882D01*
X94832714Y-46637882D02*
X94881095Y-46444358D01*
X94881095Y-46444358D02*
X94929476Y-46347596D01*
X94929476Y-46347596D02*
X95026238Y-46250834D01*
X95026238Y-46250834D02*
X95171381Y-46202453D01*
X95171381Y-46202453D02*
X95268143Y-46202453D01*
X95268143Y-46202453D02*
X95413286Y-46250834D01*
X95413286Y-46250834D02*
X95461667Y-46299215D01*
X96429286Y-47218453D02*
X95848714Y-47218453D01*
X96139000Y-47218453D02*
X96139000Y-46202453D01*
X96139000Y-46202453D02*
X96042238Y-46347596D01*
X96042238Y-46347596D02*
X95945476Y-46444358D01*
X95945476Y-46444358D02*
X95848714Y-46492739D01*
X115781667Y-47121692D02*
X115733286Y-47170073D01*
X115733286Y-47170073D02*
X115588143Y-47218453D01*
X115588143Y-47218453D02*
X115491381Y-47218453D01*
X115491381Y-47218453D02*
X115346238Y-47170073D01*
X115346238Y-47170073D02*
X115249476Y-47073311D01*
X115249476Y-47073311D02*
X115201095Y-46976549D01*
X115201095Y-46976549D02*
X115152714Y-46783025D01*
X115152714Y-46783025D02*
X115152714Y-46637882D01*
X115152714Y-46637882D02*
X115201095Y-46444358D01*
X115201095Y-46444358D02*
X115249476Y-46347596D01*
X115249476Y-46347596D02*
X115346238Y-46250834D01*
X115346238Y-46250834D02*
X115491381Y-46202453D01*
X115491381Y-46202453D02*
X115588143Y-46202453D01*
X115588143Y-46202453D02*
X115733286Y-46250834D01*
X115733286Y-46250834D02*
X115781667Y-46299215D01*
X116168714Y-46299215D02*
X116217095Y-46250834D01*
X116217095Y-46250834D02*
X116313857Y-46202453D01*
X116313857Y-46202453D02*
X116555762Y-46202453D01*
X116555762Y-46202453D02*
X116652524Y-46250834D01*
X116652524Y-46250834D02*
X116700905Y-46299215D01*
X116700905Y-46299215D02*
X116749286Y-46395977D01*
X116749286Y-46395977D02*
X116749286Y-46492739D01*
X116749286Y-46492739D02*
X116700905Y-46637882D01*
X116700905Y-46637882D02*
X116120333Y-47218453D01*
X116120333Y-47218453D02*
X116749286Y-47218453D01*
X136101667Y-47121692D02*
X136053286Y-47170073D01*
X136053286Y-47170073D02*
X135908143Y-47218453D01*
X135908143Y-47218453D02*
X135811381Y-47218453D01*
X135811381Y-47218453D02*
X135666238Y-47170073D01*
X135666238Y-47170073D02*
X135569476Y-47073311D01*
X135569476Y-47073311D02*
X135521095Y-46976549D01*
X135521095Y-46976549D02*
X135472714Y-46783025D01*
X135472714Y-46783025D02*
X135472714Y-46637882D01*
X135472714Y-46637882D02*
X135521095Y-46444358D01*
X135521095Y-46444358D02*
X135569476Y-46347596D01*
X135569476Y-46347596D02*
X135666238Y-46250834D01*
X135666238Y-46250834D02*
X135811381Y-46202453D01*
X135811381Y-46202453D02*
X135908143Y-46202453D01*
X135908143Y-46202453D02*
X136053286Y-46250834D01*
X136053286Y-46250834D02*
X136101667Y-46299215D01*
X136440333Y-46202453D02*
X137069286Y-46202453D01*
X137069286Y-46202453D02*
X136730619Y-46589501D01*
X136730619Y-46589501D02*
X136875762Y-46589501D01*
X136875762Y-46589501D02*
X136972524Y-46637882D01*
X136972524Y-46637882D02*
X137020905Y-46686263D01*
X137020905Y-46686263D02*
X137069286Y-46783025D01*
X137069286Y-46783025D02*
X137069286Y-47024930D01*
X137069286Y-47024930D02*
X137020905Y-47121692D01*
X137020905Y-47121692D02*
X136972524Y-47170073D01*
X136972524Y-47170073D02*
X136875762Y-47218453D01*
X136875762Y-47218453D02*
X136585476Y-47218453D01*
X136585476Y-47218453D02*
X136488714Y-47170073D01*
X136488714Y-47170073D02*
X136440333Y-47121692D01*
X156421667Y-47121692D02*
X156373286Y-47170073D01*
X156373286Y-47170073D02*
X156228143Y-47218453D01*
X156228143Y-47218453D02*
X156131381Y-47218453D01*
X156131381Y-47218453D02*
X155986238Y-47170073D01*
X155986238Y-47170073D02*
X155889476Y-47073311D01*
X155889476Y-47073311D02*
X155841095Y-46976549D01*
X155841095Y-46976549D02*
X155792714Y-46783025D01*
X155792714Y-46783025D02*
X155792714Y-46637882D01*
X155792714Y-46637882D02*
X155841095Y-46444358D01*
X155841095Y-46444358D02*
X155889476Y-46347596D01*
X155889476Y-46347596D02*
X155986238Y-46250834D01*
X155986238Y-46250834D02*
X156131381Y-46202453D01*
X156131381Y-46202453D02*
X156228143Y-46202453D01*
X156228143Y-46202453D02*
X156373286Y-46250834D01*
X156373286Y-46250834D02*
X156421667Y-46299215D01*
X157292524Y-46541120D02*
X157292524Y-47218453D01*
X157050619Y-46154073D02*
X156808714Y-46879787D01*
X156808714Y-46879787D02*
X157437667Y-46879787D01*
X95461667Y-136021692D02*
X95413286Y-136070073D01*
X95413286Y-136070073D02*
X95268143Y-136118453D01*
X95268143Y-136118453D02*
X95171381Y-136118453D01*
X95171381Y-136118453D02*
X95026238Y-136070073D01*
X95026238Y-136070073D02*
X94929476Y-135973311D01*
X94929476Y-135973311D02*
X94881095Y-135876549D01*
X94881095Y-135876549D02*
X94832714Y-135683025D01*
X94832714Y-135683025D02*
X94832714Y-135537882D01*
X94832714Y-135537882D02*
X94881095Y-135344358D01*
X94881095Y-135344358D02*
X94929476Y-135247596D01*
X94929476Y-135247596D02*
X95026238Y-135150834D01*
X95026238Y-135150834D02*
X95171381Y-135102453D01*
X95171381Y-135102453D02*
X95268143Y-135102453D01*
X95268143Y-135102453D02*
X95413286Y-135150834D01*
X95413286Y-135150834D02*
X95461667Y-135199215D01*
X96332524Y-135102453D02*
X96139000Y-135102453D01*
X96139000Y-135102453D02*
X96042238Y-135150834D01*
X96042238Y-135150834D02*
X95993857Y-135199215D01*
X95993857Y-135199215D02*
X95897095Y-135344358D01*
X95897095Y-135344358D02*
X95848714Y-135537882D01*
X95848714Y-135537882D02*
X95848714Y-135924930D01*
X95848714Y-135924930D02*
X95897095Y-136021692D01*
X95897095Y-136021692D02*
X95945476Y-136070073D01*
X95945476Y-136070073D02*
X96042238Y-136118453D01*
X96042238Y-136118453D02*
X96235762Y-136118453D01*
X96235762Y-136118453D02*
X96332524Y-136070073D01*
X96332524Y-136070073D02*
X96380905Y-136021692D01*
X96380905Y-136021692D02*
X96429286Y-135924930D01*
X96429286Y-135924930D02*
X96429286Y-135683025D01*
X96429286Y-135683025D02*
X96380905Y-135586263D01*
X96380905Y-135586263D02*
X96332524Y-135537882D01*
X96332524Y-135537882D02*
X96235762Y-135489501D01*
X96235762Y-135489501D02*
X96042238Y-135489501D01*
X96042238Y-135489501D02*
X95945476Y-135537882D01*
X95945476Y-135537882D02*
X95897095Y-135586263D01*
X95897095Y-135586263D02*
X95848714Y-135683025D01*
X115781667Y-136021692D02*
X115733286Y-136070073D01*
X115733286Y-136070073D02*
X115588143Y-136118453D01*
X115588143Y-136118453D02*
X115491381Y-136118453D01*
X115491381Y-136118453D02*
X115346238Y-136070073D01*
X115346238Y-136070073D02*
X115249476Y-135973311D01*
X115249476Y-135973311D02*
X115201095Y-135876549D01*
X115201095Y-135876549D02*
X115152714Y-135683025D01*
X115152714Y-135683025D02*
X115152714Y-135537882D01*
X115152714Y-135537882D02*
X115201095Y-135344358D01*
X115201095Y-135344358D02*
X115249476Y-135247596D01*
X115249476Y-135247596D02*
X115346238Y-135150834D01*
X115346238Y-135150834D02*
X115491381Y-135102453D01*
X115491381Y-135102453D02*
X115588143Y-135102453D01*
X115588143Y-135102453D02*
X115733286Y-135150834D01*
X115733286Y-135150834D02*
X115781667Y-135199215D01*
X116120333Y-135102453D02*
X116797667Y-135102453D01*
X116797667Y-135102453D02*
X116362238Y-136118453D01*
X136101667Y-136021692D02*
X136053286Y-136070073D01*
X136053286Y-136070073D02*
X135908143Y-136118453D01*
X135908143Y-136118453D02*
X135811381Y-136118453D01*
X135811381Y-136118453D02*
X135666238Y-136070073D01*
X135666238Y-136070073D02*
X135569476Y-135973311D01*
X135569476Y-135973311D02*
X135521095Y-135876549D01*
X135521095Y-135876549D02*
X135472714Y-135683025D01*
X135472714Y-135683025D02*
X135472714Y-135537882D01*
X135472714Y-135537882D02*
X135521095Y-135344358D01*
X135521095Y-135344358D02*
X135569476Y-135247596D01*
X135569476Y-135247596D02*
X135666238Y-135150834D01*
X135666238Y-135150834D02*
X135811381Y-135102453D01*
X135811381Y-135102453D02*
X135908143Y-135102453D01*
X135908143Y-135102453D02*
X136053286Y-135150834D01*
X136053286Y-135150834D02*
X136101667Y-135199215D01*
X136682238Y-135537882D02*
X136585476Y-135489501D01*
X136585476Y-135489501D02*
X136537095Y-135441120D01*
X136537095Y-135441120D02*
X136488714Y-135344358D01*
X136488714Y-135344358D02*
X136488714Y-135295977D01*
X136488714Y-135295977D02*
X136537095Y-135199215D01*
X136537095Y-135199215D02*
X136585476Y-135150834D01*
X136585476Y-135150834D02*
X136682238Y-135102453D01*
X136682238Y-135102453D02*
X136875762Y-135102453D01*
X136875762Y-135102453D02*
X136972524Y-135150834D01*
X136972524Y-135150834D02*
X137020905Y-135199215D01*
X137020905Y-135199215D02*
X137069286Y-135295977D01*
X137069286Y-135295977D02*
X137069286Y-135344358D01*
X137069286Y-135344358D02*
X137020905Y-135441120D01*
X137020905Y-135441120D02*
X136972524Y-135489501D01*
X136972524Y-135489501D02*
X136875762Y-135537882D01*
X136875762Y-135537882D02*
X136682238Y-135537882D01*
X136682238Y-135537882D02*
X136585476Y-135586263D01*
X136585476Y-135586263D02*
X136537095Y-135634644D01*
X136537095Y-135634644D02*
X136488714Y-135731406D01*
X136488714Y-135731406D02*
X136488714Y-135924930D01*
X136488714Y-135924930D02*
X136537095Y-136021692D01*
X136537095Y-136021692D02*
X136585476Y-136070073D01*
X136585476Y-136070073D02*
X136682238Y-136118453D01*
X136682238Y-136118453D02*
X136875762Y-136118453D01*
X136875762Y-136118453D02*
X136972524Y-136070073D01*
X136972524Y-136070073D02*
X137020905Y-136021692D01*
X137020905Y-136021692D02*
X137069286Y-135924930D01*
X137069286Y-135924930D02*
X137069286Y-135731406D01*
X137069286Y-135731406D02*
X137020905Y-135634644D01*
X137020905Y-135634644D02*
X136972524Y-135586263D01*
X136972524Y-135586263D02*
X136875762Y-135537882D01*
X156421667Y-136021692D02*
X156373286Y-136070073D01*
X156373286Y-136070073D02*
X156228143Y-136118453D01*
X156228143Y-136118453D02*
X156131381Y-136118453D01*
X156131381Y-136118453D02*
X155986238Y-136070073D01*
X155986238Y-136070073D02*
X155889476Y-135973311D01*
X155889476Y-135973311D02*
X155841095Y-135876549D01*
X155841095Y-135876549D02*
X155792714Y-135683025D01*
X155792714Y-135683025D02*
X155792714Y-135537882D01*
X155792714Y-135537882D02*
X155841095Y-135344358D01*
X155841095Y-135344358D02*
X155889476Y-135247596D01*
X155889476Y-135247596D02*
X155986238Y-135150834D01*
X155986238Y-135150834D02*
X156131381Y-135102453D01*
X156131381Y-135102453D02*
X156228143Y-135102453D01*
X156228143Y-135102453D02*
X156373286Y-135150834D01*
X156373286Y-135150834D02*
X156421667Y-135199215D01*
X156905476Y-136118453D02*
X157099000Y-136118453D01*
X157099000Y-136118453D02*
X157195762Y-136070073D01*
X157195762Y-136070073D02*
X157244143Y-136021692D01*
X157244143Y-136021692D02*
X157340905Y-135876549D01*
X157340905Y-135876549D02*
X157389286Y-135683025D01*
X157389286Y-135683025D02*
X157389286Y-135295977D01*
X157389286Y-135295977D02*
X157340905Y-135199215D01*
X157340905Y-135199215D02*
X157292524Y-135150834D01*
X157292524Y-135150834D02*
X157195762Y-135102453D01*
X157195762Y-135102453D02*
X157002238Y-135102453D01*
X157002238Y-135102453D02*
X156905476Y-135150834D01*
X156905476Y-135150834D02*
X156857095Y-135199215D01*
X156857095Y-135199215D02*
X156808714Y-135295977D01*
X156808714Y-135295977D02*
X156808714Y-135537882D01*
X156808714Y-135537882D02*
X156857095Y-135634644D01*
X156857095Y-135634644D02*
X156905476Y-135683025D01*
X156905476Y-135683025D02*
X157002238Y-135731406D01*
X157002238Y-135731406D02*
X157195762Y-135731406D01*
X157195762Y-135731406D02*
X157292524Y-135683025D01*
X157292524Y-135683025D02*
X157340905Y-135634644D01*
X157340905Y-135634644D02*
X157389286Y-135537882D01*
D12*
X72427571Y-133830823D02*
X71919571Y-133105109D01*
X71556714Y-133830823D02*
X71556714Y-132306823D01*
X71556714Y-132306823D02*
X72137285Y-132306823D01*
X72137285Y-132306823D02*
X72282428Y-132379394D01*
X72282428Y-132379394D02*
X72354999Y-132451966D01*
X72354999Y-132451966D02*
X72427571Y-132597109D01*
X72427571Y-132597109D02*
X72427571Y-132814823D01*
X72427571Y-132814823D02*
X72354999Y-132959966D01*
X72354999Y-132959966D02*
X72282428Y-133032537D01*
X72282428Y-133032537D02*
X72137285Y-133105109D01*
X72137285Y-133105109D02*
X71556714Y-133105109D01*
X73080714Y-133032537D02*
X73588714Y-133032537D01*
X73806428Y-133830823D02*
X73080714Y-133830823D01*
X73080714Y-133830823D02*
X73080714Y-132306823D01*
X73080714Y-132306823D02*
X73806428Y-132306823D01*
X74386999Y-133758252D02*
X74604714Y-133830823D01*
X74604714Y-133830823D02*
X74967571Y-133830823D01*
X74967571Y-133830823D02*
X75112714Y-133758252D01*
X75112714Y-133758252D02*
X75185285Y-133685680D01*
X75185285Y-133685680D02*
X75257856Y-133540537D01*
X75257856Y-133540537D02*
X75257856Y-133395394D01*
X75257856Y-133395394D02*
X75185285Y-133250252D01*
X75185285Y-133250252D02*
X75112714Y-133177680D01*
X75112714Y-133177680D02*
X74967571Y-133105109D01*
X74967571Y-133105109D02*
X74677285Y-133032537D01*
X74677285Y-133032537D02*
X74532142Y-132959966D01*
X74532142Y-132959966D02*
X74459571Y-132887394D01*
X74459571Y-132887394D02*
X74386999Y-132742252D01*
X74386999Y-132742252D02*
X74386999Y-132597109D01*
X74386999Y-132597109D02*
X74459571Y-132451966D01*
X74459571Y-132451966D02*
X74532142Y-132379394D01*
X74532142Y-132379394D02*
X74677285Y-132306823D01*
X74677285Y-132306823D02*
X75040142Y-132306823D01*
X75040142Y-132306823D02*
X75257856Y-132379394D01*
X75911000Y-133032537D02*
X76419000Y-133032537D01*
X76636714Y-133830823D02*
X75911000Y-133830823D01*
X75911000Y-133830823D02*
X75911000Y-132306823D01*
X75911000Y-132306823D02*
X76636714Y-132306823D01*
X77072142Y-132306823D02*
X77943000Y-132306823D01*
X77507571Y-133830823D02*
X77507571Y-132306823D01*
X71810714Y-103506823D02*
X72149381Y-105030823D01*
X72149381Y-105030823D02*
X72488048Y-103506823D01*
X73407286Y-104885680D02*
X73358905Y-104958252D01*
X73358905Y-104958252D02*
X73213762Y-105030823D01*
X73213762Y-105030823D02*
X73117000Y-105030823D01*
X73117000Y-105030823D02*
X72971857Y-104958252D01*
X72971857Y-104958252D02*
X72875095Y-104813109D01*
X72875095Y-104813109D02*
X72826714Y-104667966D01*
X72826714Y-104667966D02*
X72778333Y-104377680D01*
X72778333Y-104377680D02*
X72778333Y-104159966D01*
X72778333Y-104159966D02*
X72826714Y-103869680D01*
X72826714Y-103869680D02*
X72875095Y-103724537D01*
X72875095Y-103724537D02*
X72971857Y-103579394D01*
X72971857Y-103579394D02*
X73117000Y-103506823D01*
X73117000Y-103506823D02*
X73213762Y-103506823D01*
X73213762Y-103506823D02*
X73358905Y-103579394D01*
X73358905Y-103579394D02*
X73407286Y-103651966D01*
X74616809Y-105030823D02*
X74616809Y-103506823D01*
X74616809Y-103506823D02*
X74955476Y-104595394D01*
X74955476Y-104595394D02*
X75294143Y-103506823D01*
X75294143Y-103506823D02*
X75294143Y-105030823D01*
X75971476Y-103506823D02*
X76165000Y-103506823D01*
X76165000Y-103506823D02*
X76261762Y-103579394D01*
X76261762Y-103579394D02*
X76358524Y-103724537D01*
X76358524Y-103724537D02*
X76406905Y-104014823D01*
X76406905Y-104014823D02*
X76406905Y-104522823D01*
X76406905Y-104522823D02*
X76358524Y-104813109D01*
X76358524Y-104813109D02*
X76261762Y-104958252D01*
X76261762Y-104958252D02*
X76165000Y-105030823D01*
X76165000Y-105030823D02*
X75971476Y-105030823D01*
X75971476Y-105030823D02*
X75874714Y-104958252D01*
X75874714Y-104958252D02*
X75777952Y-104813109D01*
X75777952Y-104813109D02*
X75729571Y-104522823D01*
X75729571Y-104522823D02*
X75729571Y-104014823D01*
X75729571Y-104014823D02*
X75777952Y-103724537D01*
X75777952Y-103724537D02*
X75874714Y-103579394D01*
X75874714Y-103579394D02*
X75971476Y-103506823D01*
X76793952Y-104958252D02*
X76939095Y-105030823D01*
X76939095Y-105030823D02*
X77181000Y-105030823D01*
X77181000Y-105030823D02*
X77277762Y-104958252D01*
X77277762Y-104958252D02*
X77326143Y-104885680D01*
X77326143Y-104885680D02*
X77374524Y-104740537D01*
X77374524Y-104740537D02*
X77374524Y-104595394D01*
X77374524Y-104595394D02*
X77326143Y-104450252D01*
X77326143Y-104450252D02*
X77277762Y-104377680D01*
X77277762Y-104377680D02*
X77181000Y-104305109D01*
X77181000Y-104305109D02*
X76987476Y-104232537D01*
X76987476Y-104232537D02*
X76890714Y-104159966D01*
X76890714Y-104159966D02*
X76842333Y-104087394D01*
X76842333Y-104087394D02*
X76793952Y-103942252D01*
X76793952Y-103942252D02*
X76793952Y-103797109D01*
X76793952Y-103797109D02*
X76842333Y-103651966D01*
X76842333Y-103651966D02*
X76890714Y-103579394D01*
X76890714Y-103579394D02*
X76987476Y-103506823D01*
X76987476Y-103506823D02*
X77229381Y-103506823D01*
X77229381Y-103506823D02*
X77374524Y-103579394D01*
D13*
X79831588Y-52078819D02*
X79260160Y-52078819D01*
X79545874Y-52078819D02*
X79545874Y-51078819D01*
X79545874Y-51078819D02*
X79450636Y-51221676D01*
X79450636Y-51221676D02*
X79355398Y-51316914D01*
X79355398Y-51316914D02*
X79260160Y-51364533D01*
X78212541Y-130078819D02*
X78831588Y-130078819D01*
X78831588Y-130078819D02*
X78498255Y-130459771D01*
X78498255Y-130459771D02*
X78641112Y-130459771D01*
X78641112Y-130459771D02*
X78736350Y-130507390D01*
X78736350Y-130507390D02*
X78783969Y-130555009D01*
X78783969Y-130555009D02*
X78831588Y-130650247D01*
X78831588Y-130650247D02*
X78831588Y-130888342D01*
X78831588Y-130888342D02*
X78783969Y-130983580D01*
X78783969Y-130983580D02*
X78736350Y-131031200D01*
X78736350Y-131031200D02*
X78641112Y-131078819D01*
X78641112Y-131078819D02*
X78355398Y-131078819D01*
X78355398Y-131078819D02*
X78260160Y-131031200D01*
X78260160Y-131031200D02*
X78212541Y-130983580D01*
X79212541Y-130174057D02*
X79260160Y-130126438D01*
X79260160Y-130126438D02*
X79355398Y-130078819D01*
X79355398Y-130078819D02*
X79593493Y-130078819D01*
X79593493Y-130078819D02*
X79688731Y-130126438D01*
X79688731Y-130126438D02*
X79736350Y-130174057D01*
X79736350Y-130174057D02*
X79783969Y-130269295D01*
X79783969Y-130269295D02*
X79783969Y-130364533D01*
X79783969Y-130364533D02*
X79736350Y-130507390D01*
X79736350Y-130507390D02*
X79164922Y-131078819D01*
X79164922Y-131078819D02*
X79783969Y-131078819D01*
X91879207Y-49483580D02*
X91831588Y-49531200D01*
X91831588Y-49531200D02*
X91688731Y-49578819D01*
X91688731Y-49578819D02*
X91593493Y-49578819D01*
X91593493Y-49578819D02*
X91450636Y-49531200D01*
X91450636Y-49531200D02*
X91355398Y-49435961D01*
X91355398Y-49435961D02*
X91307779Y-49340723D01*
X91307779Y-49340723D02*
X91260160Y-49150247D01*
X91260160Y-49150247D02*
X91260160Y-49007390D01*
X91260160Y-49007390D02*
X91307779Y-48816914D01*
X91307779Y-48816914D02*
X91355398Y-48721676D01*
X91355398Y-48721676D02*
X91450636Y-48626438D01*
X91450636Y-48626438D02*
X91593493Y-48578819D01*
X91593493Y-48578819D02*
X91688731Y-48578819D01*
X91688731Y-48578819D02*
X91831588Y-48626438D01*
X91831588Y-48626438D02*
X91879207Y-48674057D01*
X79260160Y-49293104D02*
X79736350Y-49293104D01*
X79164922Y-49578819D02*
X79498255Y-48578819D01*
X79498255Y-48578819D02*
X79831588Y-49578819D01*
X99580160Y-48793104D02*
X100056350Y-48793104D01*
X99484922Y-49078819D02*
X99818255Y-48078819D01*
X99818255Y-48078819D02*
X100151588Y-49078819D01*
X98532541Y-130078819D02*
X99151588Y-130078819D01*
X99151588Y-130078819D02*
X98818255Y-130459771D01*
X98818255Y-130459771D02*
X98961112Y-130459771D01*
X98961112Y-130459771D02*
X99056350Y-130507390D01*
X99056350Y-130507390D02*
X99103969Y-130555009D01*
X99103969Y-130555009D02*
X99151588Y-130650247D01*
X99151588Y-130650247D02*
X99151588Y-130888342D01*
X99151588Y-130888342D02*
X99103969Y-130983580D01*
X99103969Y-130983580D02*
X99056350Y-131031200D01*
X99056350Y-131031200D02*
X98961112Y-131078819D01*
X98961112Y-131078819D02*
X98675398Y-131078819D01*
X98675398Y-131078819D02*
X98580160Y-131031200D01*
X98580160Y-131031200D02*
X98532541Y-130983580D01*
X99532541Y-130174057D02*
X99580160Y-130126438D01*
X99580160Y-130126438D02*
X99675398Y-130078819D01*
X99675398Y-130078819D02*
X99913493Y-130078819D01*
X99913493Y-130078819D02*
X100008731Y-130126438D01*
X100008731Y-130126438D02*
X100056350Y-130174057D01*
X100056350Y-130174057D02*
X100103969Y-130269295D01*
X100103969Y-130269295D02*
X100103969Y-130364533D01*
X100103969Y-130364533D02*
X100056350Y-130507390D01*
X100056350Y-130507390D02*
X99484922Y-131078819D01*
X99484922Y-131078819D02*
X100103969Y-131078819D01*
X112199207Y-49483580D02*
X112151588Y-49531200D01*
X112151588Y-49531200D02*
X112008731Y-49578819D01*
X112008731Y-49578819D02*
X111913493Y-49578819D01*
X111913493Y-49578819D02*
X111770636Y-49531200D01*
X111770636Y-49531200D02*
X111675398Y-49435961D01*
X111675398Y-49435961D02*
X111627779Y-49340723D01*
X111627779Y-49340723D02*
X111580160Y-49150247D01*
X111580160Y-49150247D02*
X111580160Y-49007390D01*
X111580160Y-49007390D02*
X111627779Y-48816914D01*
X111627779Y-48816914D02*
X111675398Y-48721676D01*
X111675398Y-48721676D02*
X111770636Y-48626438D01*
X111770636Y-48626438D02*
X111913493Y-48578819D01*
X111913493Y-48578819D02*
X112008731Y-48578819D01*
X112008731Y-48578819D02*
X112151588Y-48626438D01*
X112151588Y-48626438D02*
X112199207Y-48674057D01*
X100151588Y-52078819D02*
X99580160Y-52078819D01*
X99865874Y-52078819D02*
X99865874Y-51078819D01*
X99865874Y-51078819D02*
X99770636Y-51221676D01*
X99770636Y-51221676D02*
X99675398Y-51316914D01*
X99675398Y-51316914D02*
X99580160Y-51364533D01*
X132519207Y-49483580D02*
X132471588Y-49531200D01*
X132471588Y-49531200D02*
X132328731Y-49578819D01*
X132328731Y-49578819D02*
X132233493Y-49578819D01*
X132233493Y-49578819D02*
X132090636Y-49531200D01*
X132090636Y-49531200D02*
X131995398Y-49435961D01*
X131995398Y-49435961D02*
X131947779Y-49340723D01*
X131947779Y-49340723D02*
X131900160Y-49150247D01*
X131900160Y-49150247D02*
X131900160Y-49007390D01*
X131900160Y-49007390D02*
X131947779Y-48816914D01*
X131947779Y-48816914D02*
X131995398Y-48721676D01*
X131995398Y-48721676D02*
X132090636Y-48626438D01*
X132090636Y-48626438D02*
X132233493Y-48578819D01*
X132233493Y-48578819D02*
X132328731Y-48578819D01*
X132328731Y-48578819D02*
X132471588Y-48626438D01*
X132471588Y-48626438D02*
X132519207Y-48674057D01*
X119900160Y-48793104D02*
X120376350Y-48793104D01*
X119804922Y-49078819D02*
X120138255Y-48078819D01*
X120138255Y-48078819D02*
X120471588Y-49078819D01*
X120471588Y-52078819D02*
X119900160Y-52078819D01*
X120185874Y-52078819D02*
X120185874Y-51078819D01*
X120185874Y-51078819D02*
X120090636Y-51221676D01*
X120090636Y-51221676D02*
X119995398Y-51316914D01*
X119995398Y-51316914D02*
X119900160Y-51364533D01*
X118852541Y-130078819D02*
X119471588Y-130078819D01*
X119471588Y-130078819D02*
X119138255Y-130459771D01*
X119138255Y-130459771D02*
X119281112Y-130459771D01*
X119281112Y-130459771D02*
X119376350Y-130507390D01*
X119376350Y-130507390D02*
X119423969Y-130555009D01*
X119423969Y-130555009D02*
X119471588Y-130650247D01*
X119471588Y-130650247D02*
X119471588Y-130888342D01*
X119471588Y-130888342D02*
X119423969Y-130983580D01*
X119423969Y-130983580D02*
X119376350Y-131031200D01*
X119376350Y-131031200D02*
X119281112Y-131078819D01*
X119281112Y-131078819D02*
X118995398Y-131078819D01*
X118995398Y-131078819D02*
X118900160Y-131031200D01*
X118900160Y-131031200D02*
X118852541Y-130983580D01*
X119852541Y-130174057D02*
X119900160Y-130126438D01*
X119900160Y-130126438D02*
X119995398Y-130078819D01*
X119995398Y-130078819D02*
X120233493Y-130078819D01*
X120233493Y-130078819D02*
X120328731Y-130126438D01*
X120328731Y-130126438D02*
X120376350Y-130174057D01*
X120376350Y-130174057D02*
X120423969Y-130269295D01*
X120423969Y-130269295D02*
X120423969Y-130364533D01*
X120423969Y-130364533D02*
X120376350Y-130507390D01*
X120376350Y-130507390D02*
X119804922Y-131078819D01*
X119804922Y-131078819D02*
X120423969Y-131078819D01*
X161111588Y-52078819D02*
X160540160Y-52078819D01*
X160825874Y-52078819D02*
X160825874Y-51078819D01*
X160825874Y-51078819D02*
X160730636Y-51221676D01*
X160730636Y-51221676D02*
X160635398Y-51316914D01*
X160635398Y-51316914D02*
X160540160Y-51364533D01*
X159492541Y-130078819D02*
X160111588Y-130078819D01*
X160111588Y-130078819D02*
X159778255Y-130459771D01*
X159778255Y-130459771D02*
X159921112Y-130459771D01*
X159921112Y-130459771D02*
X160016350Y-130507390D01*
X160016350Y-130507390D02*
X160063969Y-130555009D01*
X160063969Y-130555009D02*
X160111588Y-130650247D01*
X160111588Y-130650247D02*
X160111588Y-130888342D01*
X160111588Y-130888342D02*
X160063969Y-130983580D01*
X160063969Y-130983580D02*
X160016350Y-131031200D01*
X160016350Y-131031200D02*
X159921112Y-131078819D01*
X159921112Y-131078819D02*
X159635398Y-131078819D01*
X159635398Y-131078819D02*
X159540160Y-131031200D01*
X159540160Y-131031200D02*
X159492541Y-130983580D01*
X160492541Y-130174057D02*
X160540160Y-130126438D01*
X160540160Y-130126438D02*
X160635398Y-130078819D01*
X160635398Y-130078819D02*
X160873493Y-130078819D01*
X160873493Y-130078819D02*
X160968731Y-130126438D01*
X160968731Y-130126438D02*
X161016350Y-130174057D01*
X161016350Y-130174057D02*
X161063969Y-130269295D01*
X161063969Y-130269295D02*
X161063969Y-130364533D01*
X161063969Y-130364533D02*
X161016350Y-130507390D01*
X161016350Y-130507390D02*
X160444922Y-131078819D01*
X160444922Y-131078819D02*
X161063969Y-131078819D01*
X160540160Y-48793104D02*
X161016350Y-48793104D01*
X160444922Y-49078819D02*
X160778255Y-48078819D01*
X160778255Y-48078819D02*
X161111588Y-49078819D01*
X152839207Y-49483580D02*
X152791588Y-49531200D01*
X152791588Y-49531200D02*
X152648731Y-49578819D01*
X152648731Y-49578819D02*
X152553493Y-49578819D01*
X152553493Y-49578819D02*
X152410636Y-49531200D01*
X152410636Y-49531200D02*
X152315398Y-49435961D01*
X152315398Y-49435961D02*
X152267779Y-49340723D01*
X152267779Y-49340723D02*
X152220160Y-49150247D01*
X152220160Y-49150247D02*
X152220160Y-49007390D01*
X152220160Y-49007390D02*
X152267779Y-48816914D01*
X152267779Y-48816914D02*
X152315398Y-48721676D01*
X152315398Y-48721676D02*
X152410636Y-48626438D01*
X152410636Y-48626438D02*
X152553493Y-48578819D01*
X152553493Y-48578819D02*
X152648731Y-48578819D01*
X152648731Y-48578819D02*
X152791588Y-48626438D01*
X152791588Y-48626438D02*
X152839207Y-48674057D01*
X140220160Y-48793104D02*
X140696350Y-48793104D01*
X140124922Y-49078819D02*
X140458255Y-48078819D01*
X140458255Y-48078819D02*
X140791588Y-49078819D01*
X140791588Y-52078819D02*
X140220160Y-52078819D01*
X140505874Y-52078819D02*
X140505874Y-51078819D01*
X140505874Y-51078819D02*
X140410636Y-51221676D01*
X140410636Y-51221676D02*
X140315398Y-51316914D01*
X140315398Y-51316914D02*
X140220160Y-51364533D01*
X139172541Y-130078819D02*
X139791588Y-130078819D01*
X139791588Y-130078819D02*
X139458255Y-130459771D01*
X139458255Y-130459771D02*
X139601112Y-130459771D01*
X139601112Y-130459771D02*
X139696350Y-130507390D01*
X139696350Y-130507390D02*
X139743969Y-130555009D01*
X139743969Y-130555009D02*
X139791588Y-130650247D01*
X139791588Y-130650247D02*
X139791588Y-130888342D01*
X139791588Y-130888342D02*
X139743969Y-130983580D01*
X139743969Y-130983580D02*
X139696350Y-131031200D01*
X139696350Y-131031200D02*
X139601112Y-131078819D01*
X139601112Y-131078819D02*
X139315398Y-131078819D01*
X139315398Y-131078819D02*
X139220160Y-131031200D01*
X139220160Y-131031200D02*
X139172541Y-130983580D01*
X140172541Y-130174057D02*
X140220160Y-130126438D01*
X140220160Y-130126438D02*
X140315398Y-130078819D01*
X140315398Y-130078819D02*
X140553493Y-130078819D01*
X140553493Y-130078819D02*
X140648731Y-130126438D01*
X140648731Y-130126438D02*
X140696350Y-130174057D01*
X140696350Y-130174057D02*
X140743969Y-130269295D01*
X140743969Y-130269295D02*
X140743969Y-130364533D01*
X140743969Y-130364533D02*
X140696350Y-130507390D01*
X140696350Y-130507390D02*
X140124922Y-131078819D01*
X140124922Y-131078819D02*
X140743969Y-131078819D01*
D10*
X77344181Y-62607000D02*
X78432752Y-62607000D01*
X78432752Y-62607000D02*
X78650467Y-62679571D01*
X78650467Y-62679571D02*
X78795610Y-62824714D01*
X78795610Y-62824714D02*
X78868181Y-63042428D01*
X78868181Y-63042428D02*
X78868181Y-63187571D01*
X78868181Y-61083000D02*
X78868181Y-61953857D01*
X78868181Y-61518428D02*
X77344181Y-61518428D01*
X77344181Y-61518428D02*
X77561895Y-61663571D01*
X77561895Y-61663571D02*
X77707038Y-61808714D01*
X77707038Y-61808714D02*
X77779610Y-61953857D01*
%TO.C,D1*%
X68961000Y-115593000D02*
X68961000Y-116228000D01*
X70231000Y-115593000D02*
X68961000Y-115593000D01*
X70231000Y-116228000D02*
X70231000Y-115593000D01*
X72136000Y-113688000D02*
G75*
G02*
X67056000Y-113688000I-2540000J0D01*
G01*
X67056000Y-113688000D02*
G75*
G02*
X72136000Y-113688000I2540000J0D01*
G01*
%TO.C,R1*%
X68580000Y-120292000D02*
X68580000Y-126896000D01*
X68580000Y-126896000D02*
X69596000Y-126896000D01*
X69596000Y-119784000D02*
X69596000Y-120292000D01*
X69596000Y-126896000D02*
X70612000Y-126896000D01*
X69596000Y-127404000D02*
X69596000Y-126896000D01*
X70104000Y-120292000D02*
X70612000Y-120800000D01*
X70612000Y-120292000D02*
X68580000Y-120292000D01*
X70612000Y-126896000D02*
X70612000Y-120292000D01*
%TO.C,C1*%
X92075000Y-45743000D02*
X99187000Y-45743000D01*
X92075000Y-46251000D02*
X92583000Y-45743000D01*
X92075000Y-47775000D02*
X92075000Y-45743000D01*
X99187000Y-45743000D02*
X99187000Y-47775000D01*
X99187000Y-47775000D02*
X92075000Y-47775000D01*
%TO.C,C2*%
X112395000Y-45743000D02*
X119507000Y-45743000D01*
X112395000Y-46251000D02*
X112903000Y-45743000D01*
X112395000Y-47775000D02*
X112395000Y-45743000D01*
X119507000Y-45743000D02*
X119507000Y-47775000D01*
X119507000Y-47775000D02*
X112395000Y-47775000D01*
%TO.C,C3*%
X132715000Y-45743000D02*
X139827000Y-45743000D01*
X132715000Y-46251000D02*
X133223000Y-45743000D01*
X132715000Y-47775000D02*
X132715000Y-45743000D01*
X139827000Y-45743000D02*
X139827000Y-47775000D01*
X139827000Y-47775000D02*
X132715000Y-47775000D01*
%TO.C,C4*%
X153035000Y-45743000D02*
X160147000Y-45743000D01*
X153035000Y-46251000D02*
X153543000Y-45743000D01*
X153035000Y-47775000D02*
X153035000Y-45743000D01*
X160147000Y-45743000D02*
X160147000Y-47775000D01*
X160147000Y-47775000D02*
X153035000Y-47775000D01*
%TO.C,C6*%
X92075000Y-134643000D02*
X99187000Y-134643000D01*
X92075000Y-135151000D02*
X92583000Y-134643000D01*
X92075000Y-136675000D02*
X92075000Y-134643000D01*
X99187000Y-134643000D02*
X99187000Y-136675000D01*
X99187000Y-136675000D02*
X92075000Y-136675000D01*
%TO.C,C7*%
X112395000Y-134643000D02*
X119507000Y-134643000D01*
X112395000Y-135151000D02*
X112903000Y-134643000D01*
X112395000Y-136675000D02*
X112395000Y-134643000D01*
X119507000Y-134643000D02*
X119507000Y-136675000D01*
X119507000Y-136675000D02*
X112395000Y-136675000D01*
%TO.C,C8*%
X132715000Y-134643000D02*
X139827000Y-134643000D01*
X132715000Y-135151000D02*
X133223000Y-134643000D01*
X132715000Y-136675000D02*
X132715000Y-134643000D01*
X139827000Y-134643000D02*
X139827000Y-136675000D01*
X139827000Y-136675000D02*
X132715000Y-136675000D01*
%TO.C,C9*%
X153035000Y-134643000D02*
X160147000Y-134643000D01*
X153035000Y-135151000D02*
X153543000Y-134643000D01*
X153035000Y-136675000D02*
X153035000Y-134643000D01*
X160147000Y-134643000D02*
X160147000Y-136675000D01*
X160147000Y-136675000D02*
X153035000Y-136675000D01*
%TO.C,JP2*%
X68101000Y-130799000D02*
X70641000Y-130799000D01*
X68101000Y-135879000D02*
X68101000Y-130799000D01*
X70641000Y-130799000D02*
X70641000Y-135879000D01*
X70641000Y-135879000D02*
X68101000Y-135879000D01*
%TO.C,JP1*%
X68072000Y-101369000D02*
X70612000Y-101369000D01*
X68072000Y-106449000D02*
X68072000Y-101369000D01*
X70612000Y-101369000D02*
X70612000Y-106449000D01*
X70612000Y-106449000D02*
X68072000Y-106449000D01*
%TO.C,U0*%
X80391000Y-44219000D02*
X80391000Y-138199000D01*
X80391000Y-138199000D02*
X88011000Y-138199000D01*
X87971000Y-48209000D02*
X80391000Y-48209000D01*
X87971000Y-48209000D02*
X87971000Y-50209000D01*
X87971000Y-50209000D02*
X90551000Y-50209000D01*
X88011000Y-44219000D02*
X80391000Y-44219000D01*
X88011000Y-44219000D02*
X90551000Y-44219000D01*
X88011000Y-132209000D02*
X88011000Y-134209000D01*
X88011000Y-134209000D02*
X80391000Y-134209000D01*
X90551000Y-44219000D02*
X90551000Y-138199000D01*
X90551000Y-132209000D02*
X88011000Y-132209000D01*
X90551000Y-138199000D02*
X88011000Y-138199000D01*
%TO.C,U1*%
X100711000Y-44219000D02*
X100711000Y-138199000D01*
X100711000Y-138199000D02*
X108331000Y-138199000D01*
X108291000Y-48209000D02*
X100711000Y-48209000D01*
X108291000Y-48209000D02*
X108291000Y-50209000D01*
X108291000Y-50209000D02*
X110871000Y-50209000D01*
X108331000Y-44219000D02*
X100711000Y-44219000D01*
X108331000Y-44219000D02*
X110871000Y-44219000D01*
X108331000Y-132209000D02*
X108331000Y-134209000D01*
X108331000Y-134209000D02*
X100711000Y-134209000D01*
X110871000Y-44219000D02*
X110871000Y-138199000D01*
X110871000Y-132209000D02*
X108331000Y-132209000D01*
X110871000Y-138199000D02*
X108331000Y-138199000D01*
%TO.C,U2*%
X121031000Y-44219000D02*
X121031000Y-138199000D01*
X121031000Y-138199000D02*
X128651000Y-138199000D01*
X128611000Y-48209000D02*
X121031000Y-48209000D01*
X128611000Y-48209000D02*
X128611000Y-50209000D01*
X128611000Y-50209000D02*
X131191000Y-50209000D01*
X128651000Y-44219000D02*
X121031000Y-44219000D01*
X128651000Y-44219000D02*
X131191000Y-44219000D01*
X128651000Y-132209000D02*
X128651000Y-134209000D01*
X128651000Y-134209000D02*
X121031000Y-134209000D01*
X131191000Y-44219000D02*
X131191000Y-138199000D01*
X131191000Y-132209000D02*
X128651000Y-132209000D01*
X131191000Y-138199000D02*
X128651000Y-138199000D01*
%TO.C,U4*%
X161671000Y-44219000D02*
X161671000Y-138199000D01*
X161671000Y-138199000D02*
X169291000Y-138199000D01*
X169251000Y-48209000D02*
X161671000Y-48209000D01*
X169251000Y-48209000D02*
X169251000Y-50209000D01*
X169251000Y-50209000D02*
X171831000Y-50209000D01*
X169291000Y-44219000D02*
X161671000Y-44219000D01*
X169291000Y-44219000D02*
X171831000Y-44219000D01*
X169291000Y-132209000D02*
X169291000Y-134209000D01*
X169291000Y-134209000D02*
X161671000Y-134209000D01*
X171831000Y-44219000D02*
X171831000Y-138199000D01*
X171831000Y-132209000D02*
X169291000Y-132209000D01*
X171831000Y-138199000D02*
X169291000Y-138199000D01*
%TO.C,U3*%
X141351000Y-44219000D02*
X141351000Y-138199000D01*
X141351000Y-138199000D02*
X148971000Y-138199000D01*
X148931000Y-48209000D02*
X141351000Y-48209000D01*
X148931000Y-48209000D02*
X148931000Y-50209000D01*
X148931000Y-50209000D02*
X151511000Y-50209000D01*
X148971000Y-44219000D02*
X141351000Y-44219000D01*
X148971000Y-44219000D02*
X151511000Y-44219000D01*
X148971000Y-132209000D02*
X148971000Y-134209000D01*
X148971000Y-134209000D02*
X141351000Y-134209000D01*
X151511000Y-44219000D02*
X151511000Y-138199000D01*
X151511000Y-132209000D02*
X148971000Y-132209000D01*
X151511000Y-138199000D02*
X148971000Y-138199000D01*
D14*
%TO.C,J3*%
X75171694Y-82339000D02*
G75*
G02*
X71570306Y-82339000I-1800694J0D01*
G01*
X71570306Y-82339000D02*
G75*
G02*
X75171694Y-82339000I1800694J0D01*
G01*
%TO.C,J5*%
X75171694Y-87339000D02*
G75*
G02*
X71570306Y-87339000I-1800694J0D01*
G01*
X71570306Y-87339000D02*
G75*
G02*
X75171694Y-87339000I1800694J0D01*
G01*
%TO.C,J6*%
X75171694Y-92339000D02*
G75*
G02*
X71570306Y-92339000I-1800694J0D01*
G01*
X71570306Y-92339000D02*
G75*
G02*
X75171694Y-92339000I1800694J0D01*
G01*
%TO.C,J8*%
X75171694Y-97339000D02*
G75*
G02*
X71570306Y-97339000I-1800694J0D01*
G01*
X71570306Y-97339000D02*
G75*
G02*
X75171694Y-97339000I1800694J0D01*
G01*
%TO.C,J7*%
X75171694Y-77259000D02*
G75*
G02*
X71570306Y-77259000I-1800694J0D01*
G01*
X71570306Y-77259000D02*
G75*
G02*
X75171694Y-77259000I1800694J0D01*
G01*
%TO.C,J1*%
X77089000Y-54489000D02*
X68369000Y-54489000D01*
X68369000Y-69709000D01*
X77089000Y-69709000D01*
X77089000Y-54489000D01*
%TD*%
D15*
%TO.C,D1*%
X69596000Y-112418000D03*
D16*
X69596000Y-114958000D03*
%TD*%
%TO.C,R1*%
X69596000Y-119784000D03*
X69596000Y-127404000D03*
%TD*%
%TO.C,C1*%
X93091000Y-46759000D03*
X98171000Y-46759000D03*
%TD*%
%TO.C,C2*%
X113411000Y-46759000D03*
X118491000Y-46759000D03*
%TD*%
%TO.C,C3*%
X133731000Y-46759000D03*
X138811000Y-46759000D03*
%TD*%
%TO.C,C4*%
X154051000Y-46759000D03*
X159131000Y-46759000D03*
%TD*%
%TO.C,C6*%
X93091000Y-135659000D03*
X98171000Y-135659000D03*
%TD*%
%TO.C,C7*%
X113411000Y-135659000D03*
X118491000Y-135659000D03*
%TD*%
%TO.C,C8*%
X133731000Y-135659000D03*
X138811000Y-135659000D03*
%TD*%
%TO.C,C9*%
X154051000Y-135659000D03*
X159131000Y-135659000D03*
%TD*%
D15*
%TO.C,JP2*%
X69371000Y-134609000D03*
D16*
X69371000Y-132069000D03*
%TD*%
D15*
%TO.C,JP1*%
X69342000Y-105179000D03*
D16*
X69342000Y-102639000D03*
%TD*%
D17*
%TO.C,U0*%
X82931000Y-51839000D03*
D18*
X82931000Y-54379000D03*
X82931000Y-56919000D03*
X82931000Y-59459000D03*
X82931000Y-61999000D03*
X82931000Y-64539000D03*
X82931000Y-67079000D03*
X82931000Y-69619000D03*
X82931000Y-72159000D03*
X82931000Y-74699000D03*
X82931000Y-77239000D03*
X82931000Y-79779000D03*
X82931000Y-82319000D03*
X82931000Y-84859000D03*
X82931000Y-87399000D03*
X82931000Y-89939000D03*
X82931000Y-92479000D03*
X82931000Y-95019000D03*
X82931000Y-97559000D03*
X82931000Y-100099000D03*
X82931000Y-102639000D03*
X82931000Y-105179000D03*
X82931000Y-107719000D03*
X82931000Y-110259000D03*
X82931000Y-112799000D03*
X82931000Y-115339000D03*
X82931000Y-117879000D03*
X82931000Y-120419000D03*
X82931000Y-122959000D03*
X82931000Y-125499000D03*
X82931000Y-128039000D03*
X82931000Y-130579000D03*
X88011000Y-51839000D03*
X88011000Y-54379000D03*
X88011000Y-56919000D03*
X88011000Y-59459000D03*
X88011000Y-61999000D03*
X88011000Y-64539000D03*
X88011000Y-67079000D03*
X88011000Y-69619000D03*
X88011000Y-72159000D03*
X88011000Y-74699000D03*
X88011000Y-77239000D03*
X88011000Y-79779000D03*
X88011000Y-82319000D03*
X88011000Y-84859000D03*
X88011000Y-87399000D03*
X88011000Y-89939000D03*
X88011000Y-92479000D03*
X88011000Y-95019000D03*
X88011000Y-97559000D03*
X88011000Y-100099000D03*
X88011000Y-102639000D03*
X88011000Y-105179000D03*
X88011000Y-107719000D03*
X88011000Y-110259000D03*
X88011000Y-112799000D03*
X88011000Y-115339000D03*
X88011000Y-117879000D03*
X88011000Y-120419000D03*
X88011000Y-122959000D03*
X88011000Y-125499000D03*
X88011000Y-128039000D03*
X88011000Y-130579000D03*
%TD*%
D17*
%TO.C,U1*%
X103251000Y-51839000D03*
D18*
X103251000Y-54379000D03*
X103251000Y-56919000D03*
X103251000Y-59459000D03*
X103251000Y-61999000D03*
X103251000Y-64539000D03*
X103251000Y-67079000D03*
X103251000Y-69619000D03*
X103251000Y-72159000D03*
X103251000Y-74699000D03*
X103251000Y-77239000D03*
X103251000Y-79779000D03*
X103251000Y-82319000D03*
X103251000Y-84859000D03*
X103251000Y-87399000D03*
X103251000Y-89939000D03*
X103251000Y-92479000D03*
X103251000Y-95019000D03*
X103251000Y-97559000D03*
X103251000Y-100099000D03*
X103251000Y-102639000D03*
X103251000Y-105179000D03*
X103251000Y-107719000D03*
X103251000Y-110259000D03*
X103251000Y-112799000D03*
X103251000Y-115339000D03*
X103251000Y-117879000D03*
X103251000Y-120419000D03*
X103251000Y-122959000D03*
X103251000Y-125499000D03*
X103251000Y-128039000D03*
X103251000Y-130579000D03*
X108331000Y-51839000D03*
X108331000Y-54379000D03*
X108331000Y-56919000D03*
X108331000Y-59459000D03*
X108331000Y-61999000D03*
X108331000Y-64539000D03*
X108331000Y-67079000D03*
X108331000Y-69619000D03*
X108331000Y-72159000D03*
X108331000Y-74699000D03*
X108331000Y-77239000D03*
X108331000Y-79779000D03*
X108331000Y-82319000D03*
X108331000Y-84859000D03*
X108331000Y-87399000D03*
X108331000Y-89939000D03*
X108331000Y-92479000D03*
X108331000Y-95019000D03*
X108331000Y-97559000D03*
X108331000Y-100099000D03*
X108331000Y-102639000D03*
X108331000Y-105179000D03*
X108331000Y-107719000D03*
X108331000Y-110259000D03*
X108331000Y-112799000D03*
X108331000Y-115339000D03*
X108331000Y-117879000D03*
X108331000Y-120419000D03*
X108331000Y-122959000D03*
X108331000Y-125499000D03*
X108331000Y-128039000D03*
X108331000Y-130579000D03*
%TD*%
D17*
%TO.C,U2*%
X123571000Y-51839000D03*
D18*
X123571000Y-54379000D03*
X123571000Y-56919000D03*
X123571000Y-59459000D03*
X123571000Y-61999000D03*
X123571000Y-64539000D03*
X123571000Y-67079000D03*
X123571000Y-69619000D03*
X123571000Y-72159000D03*
X123571000Y-74699000D03*
X123571000Y-77239000D03*
X123571000Y-79779000D03*
X123571000Y-82319000D03*
X123571000Y-84859000D03*
X123571000Y-87399000D03*
X123571000Y-89939000D03*
X123571000Y-92479000D03*
X123571000Y-95019000D03*
X123571000Y-97559000D03*
X123571000Y-100099000D03*
X123571000Y-102639000D03*
X123571000Y-105179000D03*
X123571000Y-107719000D03*
X123571000Y-110259000D03*
X123571000Y-112799000D03*
X123571000Y-115339000D03*
X123571000Y-117879000D03*
X123571000Y-120419000D03*
X123571000Y-122959000D03*
X123571000Y-125499000D03*
X123571000Y-128039000D03*
X123571000Y-130579000D03*
X128651000Y-51839000D03*
X128651000Y-54379000D03*
X128651000Y-56919000D03*
X128651000Y-59459000D03*
X128651000Y-61999000D03*
X128651000Y-64539000D03*
X128651000Y-67079000D03*
X128651000Y-69619000D03*
X128651000Y-72159000D03*
X128651000Y-74699000D03*
X128651000Y-77239000D03*
X128651000Y-79779000D03*
X128651000Y-82319000D03*
X128651000Y-84859000D03*
X128651000Y-87399000D03*
X128651000Y-89939000D03*
X128651000Y-92479000D03*
X128651000Y-95019000D03*
X128651000Y-97559000D03*
X128651000Y-100099000D03*
X128651000Y-102639000D03*
X128651000Y-105179000D03*
X128651000Y-107719000D03*
X128651000Y-110259000D03*
X128651000Y-112799000D03*
X128651000Y-115339000D03*
X128651000Y-117879000D03*
X128651000Y-120419000D03*
X128651000Y-122959000D03*
X128651000Y-125499000D03*
X128651000Y-128039000D03*
X128651000Y-130579000D03*
%TD*%
D17*
%TO.C,U4*%
X164211000Y-51839000D03*
D18*
X164211000Y-54379000D03*
X164211000Y-56919000D03*
X164211000Y-59459000D03*
X164211000Y-61999000D03*
X164211000Y-64539000D03*
X164211000Y-67079000D03*
X164211000Y-69619000D03*
X164211000Y-72159000D03*
X164211000Y-74699000D03*
X164211000Y-77239000D03*
X164211000Y-79779000D03*
X164211000Y-82319000D03*
X164211000Y-84859000D03*
X164211000Y-87399000D03*
X164211000Y-89939000D03*
X164211000Y-92479000D03*
X164211000Y-95019000D03*
X164211000Y-97559000D03*
X164211000Y-100099000D03*
X164211000Y-102639000D03*
X164211000Y-105179000D03*
X164211000Y-107719000D03*
X164211000Y-110259000D03*
X164211000Y-112799000D03*
X164211000Y-115339000D03*
X164211000Y-117879000D03*
X164211000Y-120419000D03*
X164211000Y-122959000D03*
X164211000Y-125499000D03*
X164211000Y-128039000D03*
X164211000Y-130579000D03*
X169291000Y-51839000D03*
X169291000Y-54379000D03*
X169291000Y-56919000D03*
X169291000Y-59459000D03*
X169291000Y-61999000D03*
X169291000Y-64539000D03*
X169291000Y-67079000D03*
X169291000Y-69619000D03*
X169291000Y-72159000D03*
X169291000Y-74699000D03*
X169291000Y-77239000D03*
X169291000Y-79779000D03*
X169291000Y-82319000D03*
X169291000Y-84859000D03*
X169291000Y-87399000D03*
X169291000Y-89939000D03*
X169291000Y-92479000D03*
X169291000Y-95019000D03*
X169291000Y-97559000D03*
X169291000Y-100099000D03*
X169291000Y-102639000D03*
X169291000Y-105179000D03*
X169291000Y-107719000D03*
X169291000Y-110259000D03*
X169291000Y-112799000D03*
X169291000Y-115339000D03*
X169291000Y-117879000D03*
X169291000Y-120419000D03*
X169291000Y-122959000D03*
X169291000Y-125499000D03*
X169291000Y-128039000D03*
X169291000Y-130579000D03*
%TD*%
D17*
%TO.C,U3*%
X143891000Y-51839000D03*
D18*
X143891000Y-54379000D03*
X143891000Y-56919000D03*
X143891000Y-59459000D03*
X143891000Y-61999000D03*
X143891000Y-64539000D03*
X143891000Y-67079000D03*
X143891000Y-69619000D03*
X143891000Y-72159000D03*
X143891000Y-74699000D03*
X143891000Y-77239000D03*
X143891000Y-79779000D03*
X143891000Y-82319000D03*
X143891000Y-84859000D03*
X143891000Y-87399000D03*
X143891000Y-89939000D03*
X143891000Y-92479000D03*
X143891000Y-95019000D03*
X143891000Y-97559000D03*
X143891000Y-100099000D03*
X143891000Y-102639000D03*
X143891000Y-105179000D03*
X143891000Y-107719000D03*
X143891000Y-110259000D03*
X143891000Y-112799000D03*
X143891000Y-115339000D03*
X143891000Y-117879000D03*
X143891000Y-120419000D03*
X143891000Y-122959000D03*
X143891000Y-125499000D03*
X143891000Y-128039000D03*
X143891000Y-130579000D03*
X148971000Y-51839000D03*
X148971000Y-54379000D03*
X148971000Y-56919000D03*
X148971000Y-59459000D03*
X148971000Y-61999000D03*
X148971000Y-64539000D03*
X148971000Y-67079000D03*
X148971000Y-69619000D03*
X148971000Y-72159000D03*
X148971000Y-74699000D03*
X148971000Y-77239000D03*
X148971000Y-79779000D03*
X148971000Y-82319000D03*
X148971000Y-84859000D03*
X148971000Y-87399000D03*
X148971000Y-89939000D03*
X148971000Y-92479000D03*
X148971000Y-95019000D03*
X148971000Y-97559000D03*
X148971000Y-100099000D03*
X148971000Y-102639000D03*
X148971000Y-105179000D03*
X148971000Y-107719000D03*
X148971000Y-110259000D03*
X148971000Y-112799000D03*
X148971000Y-115339000D03*
X148971000Y-117879000D03*
X148971000Y-120419000D03*
X148971000Y-122959000D03*
X148971000Y-125499000D03*
X148971000Y-128039000D03*
X148971000Y-130579000D03*
%TD*%
M02*
