M48
; DRILL file {KiCad 9.0.7} date 2026-05-02T09:27:36+0200
; FORMAT={-:-/ absolute / metric / decimal}
; #@! TF.CreationDate,2026-05-02T09:27:36+02:00
; #@! TF.GenerationSoftware,Kicad,Pcbnew,9.0.7
; #@! TF.FileFunction,NonPlated,1,2,NPTH
FMAT,2
METRIC
; #@! TA.AperFunction,NonPlated,NPTH,ComponentDrill
T1C3.048
; #@! TA.AperFunction,NonPlated,NPTH,ComponentDrill
T2C3.050
%
G90
G05
T1
X85.166Y-46.2
X85.166Y-136.218
X105.486Y-46.2
X105.486Y-136.218
X125.806Y-46.2
X125.806Y-136.218
X146.126Y-46.2
X146.126Y-136.218
X166.446Y-46.2
X166.446Y-136.218
T2
X69.926Y-29.95
X69.926Y-152.468
X80.086Y-29.95
X80.086Y-152.468
X85.166Y-31.2
X85.166Y-151.218
X90.246Y-30.565
X90.246Y-151.853
X100.406Y-29.95
X100.406Y-152.468
X105.486Y-31.2
X105.486Y-151.218
X110.566Y-30.565
X110.566Y-151.853
X120.726Y-29.95
X120.726Y-152.468
X125.806Y-31.2
X125.806Y-151.218
X130.886Y-30.565
X130.886Y-151.853
X141.046Y-29.95
X141.046Y-152.468
X146.126Y-31.2
X146.126Y-151.218
X151.206Y-30.565
X151.206Y-151.853
X161.366Y-29.95
X161.366Y-152.468
X166.446Y-31.2
X166.446Y-151.218
M30
