M48
; DRILL file {KiCad 9.0.7} date 2026-05-02T09:27:36+0200
; FORMAT={-:-/ absolute / metric / decimal}
; #@! TF.CreationDate,2026-05-02T09:27:36+02:00
; #@! TF.GenerationSoftware,Kicad,Pcbnew,9.0.7
; #@! TF.FileFunction,Plated,1,2,PTH
FMAT,2
METRIC
; #@! TA.AperFunction,Plated,PTH,ViaDrill
T1C0.300
; #@! TA.AperFunction,Plated,PTH,ComponentDrill
T2C0.813
; #@! TA.AperFunction,Plated,PTH,ComponentDrill
T3C1.016
; #@! TA.AperFunction,Plated,PTH,ComponentDrill
T4C1.500
%
G90
G05
T1
X93.711Y-89.939
X98.751Y-83.589
X98.751Y-86.129
X98.751Y-88.669
X98.751Y-91.209
X98.771Y-81.069
X110.836Y-89.959
X110.864Y-79.772
X110.864Y-82.311
X110.864Y-84.852
X110.864Y-87.391
X114.666Y-88.669
X134.331Y-89.959
X139.391Y-81.049
X139.391Y-83.589
X139.391Y-86.129
X139.391Y-88.669
X139.391Y-91.209
X151.456Y-89.939
X151.504Y-79.772
X151.504Y-82.311
X151.504Y-84.852
X151.504Y-87.391
X154.671Y-88.669
T2
X69.342Y-102.639
X69.342Y-105.179
X69.371Y-132.069
X69.371Y-134.609
X69.596Y-112.418
X69.596Y-114.958
X69.596Y-119.784
X69.596Y-127.404
X93.091Y-46.759
X93.091Y-135.659
X98.171Y-46.759
X98.171Y-135.659
X113.411Y-46.759
X113.411Y-135.659
X118.491Y-46.759
X118.491Y-135.659
X133.731Y-46.759
X133.731Y-135.659
X138.811Y-46.759
X138.811Y-135.659
X154.051Y-46.759
X154.051Y-135.659
X159.131Y-46.759
X159.131Y-135.659
T3
X82.931Y-51.839
X82.931Y-54.379
X82.931Y-56.919
X82.931Y-59.459
X82.931Y-61.999
X82.931Y-64.539
X82.931Y-67.079
X82.931Y-69.619
X82.931Y-72.159
X82.931Y-74.699
X82.931Y-77.239
X82.931Y-79.779
X82.931Y-82.319
X82.931Y-84.859
X82.931Y-87.399
X82.931Y-89.939
X82.931Y-92.479
X82.931Y-95.019
X82.931Y-97.559
X82.931Y-100.099
X82.931Y-102.639
X82.931Y-105.179
X82.931Y-107.719
X82.931Y-110.259
X82.931Y-112.799
X82.931Y-115.339
X82.931Y-117.879
X82.931Y-120.419
X82.931Y-122.959
X82.931Y-125.499
X82.931Y-128.039
X82.931Y-130.579
X88.011Y-51.839
X88.011Y-54.379
X88.011Y-56.919
X88.011Y-59.459
X88.011Y-61.999
X88.011Y-64.539
X88.011Y-67.079
X88.011Y-69.619
X88.011Y-72.159
X88.011Y-74.699
X88.011Y-77.239
X88.011Y-79.779
X88.011Y-82.319
X88.011Y-84.859
X88.011Y-87.399
X88.011Y-89.939
X88.011Y-92.479
X88.011Y-95.019
X88.011Y-97.559
X88.011Y-100.099
X88.011Y-102.639
X88.011Y-105.179
X88.011Y-107.719
X88.011Y-110.259
X88.011Y-112.799
X88.011Y-115.339
X88.011Y-117.879
X88.011Y-120.419
X88.011Y-122.959
X88.011Y-125.499
X88.011Y-128.039
X88.011Y-130.579
X103.251Y-51.839
X103.251Y-54.379
X103.251Y-56.919
X103.251Y-59.459
X103.251Y-61.999
X103.251Y-64.539
X103.251Y-67.079
X103.251Y-69.619
X103.251Y-72.159
X103.251Y-74.699
X103.251Y-77.239
X103.251Y-79.779
X103.251Y-82.319
X103.251Y-84.859
X103.251Y-87.399
X103.251Y-89.939
X103.251Y-92.479
X103.251Y-95.019
X103.251Y-97.559
X103.251Y-100.099
X103.251Y-102.639
X103.251Y-105.179
X103.251Y-107.719
X103.251Y-110.259
X103.251Y-112.799
X103.251Y-115.339
X103.251Y-117.879
X103.251Y-120.419
X103.251Y-122.959
X103.251Y-125.499
X103.251Y-128.039
X103.251Y-130.579
X108.331Y-51.839
X108.331Y-54.379
X108.331Y-56.919
X108.331Y-59.459
X108.331Y-61.999
X108.331Y-64.539
X108.331Y-67.079
X108.331Y-69.619
X108.331Y-72.159
X108.331Y-74.699
X108.331Y-77.239
X108.331Y-79.779
X108.331Y-82.319
X108.331Y-84.859
X108.331Y-87.399
X108.331Y-89.939
X108.331Y-92.479
X108.331Y-95.019
X108.331Y-97.559
X108.331Y-100.099
X108.331Y-102.639
X108.331Y-105.179
X108.331Y-107.719
X108.331Y-110.259
X108.331Y-112.799
X108.331Y-115.339
X108.331Y-117.879
X108.331Y-120.419
X108.331Y-122.959
X108.331Y-125.499
X108.331Y-128.039
X108.331Y-130.579
X123.571Y-51.839
X123.571Y-54.379
X123.571Y-56.919
X123.571Y-59.459
X123.571Y-61.999
X123.571Y-64.539
X123.571Y-67.079
X123.571Y-69.619
X123.571Y-72.159
X123.571Y-74.699
X123.571Y-77.239
X123.571Y-79.779
X123.571Y-82.319
X123.571Y-84.859
X123.571Y-87.399
X123.571Y-89.939
X123.571Y-92.479
X123.571Y-95.019
X123.571Y-97.559
X123.571Y-100.099
X123.571Y-102.639
X123.571Y-105.179
X123.571Y-107.719
X123.571Y-110.259
X123.571Y-112.799
X123.571Y-115.339
X123.571Y-117.879
X123.571Y-120.419
X123.571Y-122.959
X123.571Y-125.499
X123.571Y-128.039
X123.571Y-130.579
X128.651Y-51.839
X128.651Y-54.379
X128.651Y-56.919
X128.651Y-59.459
X128.651Y-61.999
X128.651Y-64.539
X128.651Y-67.079
X128.651Y-69.619
X128.651Y-72.159
X128.651Y-74.699
X128.651Y-77.239
X128.651Y-79.779
X128.651Y-82.319
X128.651Y-84.859
X128.651Y-87.399
X128.651Y-89.939
X128.651Y-92.479
X128.651Y-95.019
X128.651Y-97.559
X128.651Y-100.099
X128.651Y-102.639
X128.651Y-105.179
X128.651Y-107.719
X128.651Y-110.259
X128.651Y-112.799
X128.651Y-115.339
X128.651Y-117.879
X128.651Y-120.419
X128.651Y-122.959
X128.651Y-125.499
X128.651Y-128.039
X128.651Y-130.579
X143.891Y-51.839
X143.891Y-54.379
X143.891Y-56.919
X143.891Y-59.459
X143.891Y-61.999
X143.891Y-64.539
X143.891Y-67.079
X143.891Y-69.619
X143.891Y-72.159
X143.891Y-74.699
X143.891Y-77.239
X143.891Y-79.779
X143.891Y-82.319
X143.891Y-84.859
X143.891Y-87.399
X143.891Y-89.939
X143.891Y-92.479
X143.891Y-95.019
X143.891Y-97.559
X143.891Y-100.099
X143.891Y-102.639
X143.891Y-105.179
X143.891Y-107.719
X143.891Y-110.259
X143.891Y-112.799
X143.891Y-115.339
X143.891Y-117.879
X143.891Y-120.419
X143.891Y-122.959
X143.891Y-125.499
X143.891Y-128.039
X143.891Y-130.579
X148.971Y-51.839
X148.971Y-54.379
X148.971Y-56.919
X148.971Y-59.459
X148.971Y-61.999
X148.971Y-64.539
X148.971Y-67.079
X148.971Y-69.619
X148.971Y-72.159
X148.971Y-74.699
X148.971Y-77.239
X148.971Y-79.779
X148.971Y-82.319
X148.971Y-84.859
X148.971Y-87.399
X148.971Y-89.939
X148.971Y-92.479
X148.971Y-95.019
X148.971Y-97.559
X148.971Y-100.099
X148.971Y-102.639
X148.971Y-105.179
X148.971Y-107.719
X148.971Y-110.259
X148.971Y-112.799
X148.971Y-115.339
X148.971Y-117.879
X148.971Y-120.419
X148.971Y-122.959
X148.971Y-125.499
X148.971Y-128.039
X148.971Y-130.579
X164.211Y-51.839
X164.211Y-54.379
X164.211Y-56.919
X164.211Y-59.459
X164.211Y-61.999
X164.211Y-64.539
X164.211Y-67.079
X164.211Y-69.619
X164.211Y-72.159
X164.211Y-74.699
X164.211Y-77.239
X164.211Y-79.779
X164.211Y-82.319
X164.211Y-84.859
X164.211Y-87.399
X164.211Y-89.939
X164.211Y-92.479
X164.211Y-95.019
X164.211Y-97.559
X164.211Y-100.099
X164.211Y-102.639
X164.211Y-105.179
X164.211Y-107.719
X164.211Y-110.259
X164.211Y-112.799
X164.211Y-115.339
X164.211Y-117.879
X164.211Y-120.419
X164.211Y-122.959
X164.211Y-125.499
X164.211Y-128.039
X164.211Y-130.579
X169.291Y-51.839
X169.291Y-54.379
X169.291Y-56.919
X169.291Y-59.459
X169.291Y-61.999
X169.291Y-64.539
X169.291Y-67.079
X169.291Y-69.619
X169.291Y-72.159
X169.291Y-74.699
X169.291Y-77.239
X169.291Y-79.779
X169.291Y-82.319
X169.291Y-84.859
X169.291Y-87.399
X169.291Y-89.939
X169.291Y-92.479
X169.291Y-95.019
X169.291Y-97.559
X169.291Y-100.099
X169.291Y-102.639
X169.291Y-105.179
X169.291Y-107.719
X169.291Y-110.259
X169.291Y-112.799
X169.291Y-115.339
X169.291Y-117.879
X169.291Y-120.419
X169.291Y-122.959
X169.291Y-125.499
X169.291Y-128.039
X169.291Y-130.579
T4
X73.279Y-57.099
X73.279Y-62.099
X73.279Y-67.099
X73.371Y-77.259
X73.371Y-82.339
X73.371Y-87.339
X73.371Y-92.339
X73.371Y-97.339
M30
