%TF.GenerationSoftware,KiCad,Pcbnew,9.0.7*%
%TF.CreationDate,2026-05-02T09:27:23+02:00*%
%TF.ProjectId,BUS-80-5,4255532d-3830-42d3-952e-6b696361645f,V2*%
%TF.SameCoordinates,Original*%
%TF.FileFunction,Soldermask,Top*%
%TF.FilePolarity,Negative*%
%FSLAX46Y46*%
G04 Gerber Fmt 4.6, Leading zero omitted, Abs format (unit mm)*
G04 Created by KiCad (PCBNEW 9.0.7) date 2026-05-02 09:27:23*
%MOMM*%
%LPD*%
G01*
G04 APERTURE LIST*
G04 Aperture macros list*
%AMRoundRect*
0 Rectangle with rounded corners*
0 $1 Rounding radius*
0 $2 $3 $4 $5 $6 $7 $8 $9 X,Y pos of 4 corners*
0 Add a 4 corners polygon primitive as box body*
4,1,4,$2,$3,$4,$5,$6,$7,$8,$9,$2,$3,0*
0 Add four circle primitives for the rounded corners*
1,1,$1+$1,$2,$3*
1,1,$1+$1,$4,$5*
1,1,$1+$1,$6,$7*
1,1,$1+$1,$8,$9*
0 Add four rect primitives between the rounded corners*
20,1,$1+$1,$2,$3,$4,$5,0*
20,1,$1+$1,$4,$5,$6,$7,0*
20,1,$1+$1,$6,$7,$8,$9,0*
20,1,$1+$1,$8,$9,$2,$3,0*%
%AMFreePoly0*
4,1,25,0.554402,0.996665,0.636805,0.941605,0.941605,0.636805,0.996665,0.554402,1.016000,0.457200,1.016000,-0.457200,0.996665,-0.554402,0.941605,-0.636805,0.636805,-0.941605,0.554402,-0.996665,0.457200,-1.016000,-0.457200,-1.016000,-0.554402,-0.996665,-0.636805,-0.941605,-0.941605,-0.636805,-0.996665,-0.554402,-1.016000,-0.457200,-1.016000,0.457200,-0.996665,0.554402,-0.941605,0.636805,
-0.636805,0.941605,-0.554402,0.996665,-0.457200,1.016000,0.457200,1.016000,0.554402,0.996665,0.554402,0.996665,$1*%
G04 Aperture macros list end*
%ADD10C,3.558000*%
%ADD11RoundRect,0.254000X-0.698500X0.698500X-0.698500X-0.698500X0.698500X-0.698500X0.698500X0.698500X0*%
%ADD12C,1.905000*%
%ADD13RoundRect,0.254000X0.698500X-0.698500X0.698500X0.698500X-0.698500X0.698500X-0.698500X-0.698500X0*%
%ADD14C,3.556000*%
%ADD15RoundRect,0.254000X-0.762000X0.762000X-0.762000X-0.762000X0.762000X-0.762000X0.762000X0.762000X0*%
%ADD16FreePoly0,270.000000*%
%ADD17C,3.508000*%
%ADD18RoundRect,0.297038X-1.306962X1.306962X-1.306962X-1.306962X1.306962X-1.306962X1.306962X1.306962X0*%
G04 APERTURE END LIST*
D10*
%TO.C,H13*%
X69926200Y-29950200D03*
%TD*%
%TO.C,H34*%
X69926200Y-152467800D03*
%TD*%
D11*
%TO.C,D1*%
X69596000Y-112418000D03*
D12*
X69596000Y-114958000D03*
%TD*%
%TO.C,R1*%
X69596000Y-119784000D03*
X69596000Y-127404000D03*
%TD*%
%TO.C,C1*%
X93091000Y-46759000D03*
X98171000Y-46759000D03*
%TD*%
%TO.C,C2*%
X113411000Y-46759000D03*
X118491000Y-46759000D03*
%TD*%
%TO.C,C3*%
X133731000Y-46759000D03*
X138811000Y-46759000D03*
%TD*%
%TO.C,C4*%
X154051000Y-46759000D03*
X159131000Y-46759000D03*
%TD*%
%TO.C,C6*%
X93091000Y-135659000D03*
X98171000Y-135659000D03*
%TD*%
%TO.C,C7*%
X113411000Y-135659000D03*
X118491000Y-135659000D03*
%TD*%
%TO.C,C8*%
X133731000Y-135659000D03*
X138811000Y-135659000D03*
%TD*%
%TO.C,C9*%
X154051000Y-135659000D03*
X159131000Y-135659000D03*
%TD*%
D13*
%TO.C,JP2*%
X69371000Y-134609000D03*
D12*
X69371000Y-132069000D03*
%TD*%
D13*
%TO.C,JP1*%
X69342000Y-105179000D03*
D12*
X69342000Y-102639000D03*
%TD*%
D14*
%TO.C,U0*%
X85166200Y-46200200D03*
X85166200Y-136217800D03*
D15*
X82931000Y-51839000D03*
D16*
X82931000Y-54379000D03*
X82931000Y-56919000D03*
X82931000Y-59459000D03*
X82931000Y-61999000D03*
X82931000Y-64539000D03*
X82931000Y-67079000D03*
X82931000Y-69619000D03*
X82931000Y-72159000D03*
X82931000Y-74699000D03*
X82931000Y-77239000D03*
X82931000Y-79779000D03*
X82931000Y-82319000D03*
X82931000Y-84859000D03*
X82931000Y-87399000D03*
X82931000Y-89939000D03*
X82931000Y-92479000D03*
X82931000Y-95019000D03*
X82931000Y-97559000D03*
X82931000Y-100099000D03*
X82931000Y-102639000D03*
X82931000Y-105179000D03*
X82931000Y-107719000D03*
X82931000Y-110259000D03*
X82931000Y-112799000D03*
X82931000Y-115339000D03*
X82931000Y-117879000D03*
X82931000Y-120419000D03*
X82931000Y-122959000D03*
X82931000Y-125499000D03*
X82931000Y-128039000D03*
X82931000Y-130579000D03*
X88011000Y-51839000D03*
X88011000Y-54379000D03*
X88011000Y-56919000D03*
X88011000Y-59459000D03*
X88011000Y-61999000D03*
X88011000Y-64539000D03*
X88011000Y-67079000D03*
X88011000Y-69619000D03*
X88011000Y-72159000D03*
X88011000Y-74699000D03*
X88011000Y-77239000D03*
X88011000Y-79779000D03*
X88011000Y-82319000D03*
X88011000Y-84859000D03*
X88011000Y-87399000D03*
X88011000Y-89939000D03*
X88011000Y-92479000D03*
X88011000Y-95019000D03*
X88011000Y-97559000D03*
X88011000Y-100099000D03*
X88011000Y-102639000D03*
X88011000Y-105179000D03*
X88011000Y-107719000D03*
X88011000Y-110259000D03*
X88011000Y-112799000D03*
X88011000Y-115339000D03*
X88011000Y-117879000D03*
X88011000Y-120419000D03*
X88011000Y-122959000D03*
X88011000Y-125499000D03*
X88011000Y-128039000D03*
X88011000Y-130579000D03*
%TD*%
D14*
%TO.C,U1*%
X105486200Y-46200200D03*
X105486200Y-136217800D03*
D15*
X103251000Y-51839000D03*
D16*
X103251000Y-54379000D03*
X103251000Y-56919000D03*
X103251000Y-59459000D03*
X103251000Y-61999000D03*
X103251000Y-64539000D03*
X103251000Y-67079000D03*
X103251000Y-69619000D03*
X103251000Y-72159000D03*
X103251000Y-74699000D03*
X103251000Y-77239000D03*
X103251000Y-79779000D03*
X103251000Y-82319000D03*
X103251000Y-84859000D03*
X103251000Y-87399000D03*
X103251000Y-89939000D03*
X103251000Y-92479000D03*
X103251000Y-95019000D03*
X103251000Y-97559000D03*
X103251000Y-100099000D03*
X103251000Y-102639000D03*
X103251000Y-105179000D03*
X103251000Y-107719000D03*
X103251000Y-110259000D03*
X103251000Y-112799000D03*
X103251000Y-115339000D03*
X103251000Y-117879000D03*
X103251000Y-120419000D03*
X103251000Y-122959000D03*
X103251000Y-125499000D03*
X103251000Y-128039000D03*
X103251000Y-130579000D03*
X108331000Y-51839000D03*
X108331000Y-54379000D03*
X108331000Y-56919000D03*
X108331000Y-59459000D03*
X108331000Y-61999000D03*
X108331000Y-64539000D03*
X108331000Y-67079000D03*
X108331000Y-69619000D03*
X108331000Y-72159000D03*
X108331000Y-74699000D03*
X108331000Y-77239000D03*
X108331000Y-79779000D03*
X108331000Y-82319000D03*
X108331000Y-84859000D03*
X108331000Y-87399000D03*
X108331000Y-89939000D03*
X108331000Y-92479000D03*
X108331000Y-95019000D03*
X108331000Y-97559000D03*
X108331000Y-100099000D03*
X108331000Y-102639000D03*
X108331000Y-105179000D03*
X108331000Y-107719000D03*
X108331000Y-110259000D03*
X108331000Y-112799000D03*
X108331000Y-115339000D03*
X108331000Y-117879000D03*
X108331000Y-120419000D03*
X108331000Y-122959000D03*
X108331000Y-125499000D03*
X108331000Y-128039000D03*
X108331000Y-130579000D03*
%TD*%
D14*
%TO.C,U2*%
X125806200Y-46200200D03*
X125806200Y-136217800D03*
D15*
X123571000Y-51839000D03*
D16*
X123571000Y-54379000D03*
X123571000Y-56919000D03*
X123571000Y-59459000D03*
X123571000Y-61999000D03*
X123571000Y-64539000D03*
X123571000Y-67079000D03*
X123571000Y-69619000D03*
X123571000Y-72159000D03*
X123571000Y-74699000D03*
X123571000Y-77239000D03*
X123571000Y-79779000D03*
X123571000Y-82319000D03*
X123571000Y-84859000D03*
X123571000Y-87399000D03*
X123571000Y-89939000D03*
X123571000Y-92479000D03*
X123571000Y-95019000D03*
X123571000Y-97559000D03*
X123571000Y-100099000D03*
X123571000Y-102639000D03*
X123571000Y-105179000D03*
X123571000Y-107719000D03*
X123571000Y-110259000D03*
X123571000Y-112799000D03*
X123571000Y-115339000D03*
X123571000Y-117879000D03*
X123571000Y-120419000D03*
X123571000Y-122959000D03*
X123571000Y-125499000D03*
X123571000Y-128039000D03*
X123571000Y-130579000D03*
X128651000Y-51839000D03*
X128651000Y-54379000D03*
X128651000Y-56919000D03*
X128651000Y-59459000D03*
X128651000Y-61999000D03*
X128651000Y-64539000D03*
X128651000Y-67079000D03*
X128651000Y-69619000D03*
X128651000Y-72159000D03*
X128651000Y-74699000D03*
X128651000Y-77239000D03*
X128651000Y-79779000D03*
X128651000Y-82319000D03*
X128651000Y-84859000D03*
X128651000Y-87399000D03*
X128651000Y-89939000D03*
X128651000Y-92479000D03*
X128651000Y-95019000D03*
X128651000Y-97559000D03*
X128651000Y-100099000D03*
X128651000Y-102639000D03*
X128651000Y-105179000D03*
X128651000Y-107719000D03*
X128651000Y-110259000D03*
X128651000Y-112799000D03*
X128651000Y-115339000D03*
X128651000Y-117879000D03*
X128651000Y-120419000D03*
X128651000Y-122959000D03*
X128651000Y-125499000D03*
X128651000Y-128039000D03*
X128651000Y-130579000D03*
%TD*%
D14*
%TO.C,U4*%
X166446200Y-46200200D03*
X166446200Y-136217800D03*
D15*
X164211000Y-51839000D03*
D16*
X164211000Y-54379000D03*
X164211000Y-56919000D03*
X164211000Y-59459000D03*
X164211000Y-61999000D03*
X164211000Y-64539000D03*
X164211000Y-67079000D03*
X164211000Y-69619000D03*
X164211000Y-72159000D03*
X164211000Y-74699000D03*
X164211000Y-77239000D03*
X164211000Y-79779000D03*
X164211000Y-82319000D03*
X164211000Y-84859000D03*
X164211000Y-87399000D03*
X164211000Y-89939000D03*
X164211000Y-92479000D03*
X164211000Y-95019000D03*
X164211000Y-97559000D03*
X164211000Y-100099000D03*
X164211000Y-102639000D03*
X164211000Y-105179000D03*
X164211000Y-107719000D03*
X164211000Y-110259000D03*
X164211000Y-112799000D03*
X164211000Y-115339000D03*
X164211000Y-117879000D03*
X164211000Y-120419000D03*
X164211000Y-122959000D03*
X164211000Y-125499000D03*
X164211000Y-128039000D03*
X164211000Y-130579000D03*
X169291000Y-51839000D03*
X169291000Y-54379000D03*
X169291000Y-56919000D03*
X169291000Y-59459000D03*
X169291000Y-61999000D03*
X169291000Y-64539000D03*
X169291000Y-67079000D03*
X169291000Y-69619000D03*
X169291000Y-72159000D03*
X169291000Y-74699000D03*
X169291000Y-77239000D03*
X169291000Y-79779000D03*
X169291000Y-82319000D03*
X169291000Y-84859000D03*
X169291000Y-87399000D03*
X169291000Y-89939000D03*
X169291000Y-92479000D03*
X169291000Y-95019000D03*
X169291000Y-97559000D03*
X169291000Y-100099000D03*
X169291000Y-102639000D03*
X169291000Y-105179000D03*
X169291000Y-107719000D03*
X169291000Y-110259000D03*
X169291000Y-112799000D03*
X169291000Y-115339000D03*
X169291000Y-117879000D03*
X169291000Y-120419000D03*
X169291000Y-122959000D03*
X169291000Y-125499000D03*
X169291000Y-128039000D03*
X169291000Y-130579000D03*
%TD*%
D14*
%TO.C,U3*%
X146126200Y-46200200D03*
X146126200Y-136217800D03*
D15*
X143891000Y-51839000D03*
D16*
X143891000Y-54379000D03*
X143891000Y-56919000D03*
X143891000Y-59459000D03*
X143891000Y-61999000D03*
X143891000Y-64539000D03*
X143891000Y-67079000D03*
X143891000Y-69619000D03*
X143891000Y-72159000D03*
X143891000Y-74699000D03*
X143891000Y-77239000D03*
X143891000Y-79779000D03*
X143891000Y-82319000D03*
X143891000Y-84859000D03*
X143891000Y-87399000D03*
X143891000Y-89939000D03*
X143891000Y-92479000D03*
X143891000Y-95019000D03*
X143891000Y-97559000D03*
X143891000Y-100099000D03*
X143891000Y-102639000D03*
X143891000Y-105179000D03*
X143891000Y-107719000D03*
X143891000Y-110259000D03*
X143891000Y-112799000D03*
X143891000Y-115339000D03*
X143891000Y-117879000D03*
X143891000Y-120419000D03*
X143891000Y-122959000D03*
X143891000Y-125499000D03*
X143891000Y-128039000D03*
X143891000Y-130579000D03*
X148971000Y-51839000D03*
X148971000Y-54379000D03*
X148971000Y-56919000D03*
X148971000Y-59459000D03*
X148971000Y-61999000D03*
X148971000Y-64539000D03*
X148971000Y-67079000D03*
X148971000Y-69619000D03*
X148971000Y-72159000D03*
X148971000Y-74699000D03*
X148971000Y-77239000D03*
X148971000Y-79779000D03*
X148971000Y-82319000D03*
X148971000Y-84859000D03*
X148971000Y-87399000D03*
X148971000Y-89939000D03*
X148971000Y-92479000D03*
X148971000Y-95019000D03*
X148971000Y-97559000D03*
X148971000Y-100099000D03*
X148971000Y-102639000D03*
X148971000Y-105179000D03*
X148971000Y-107719000D03*
X148971000Y-110259000D03*
X148971000Y-112799000D03*
X148971000Y-115339000D03*
X148971000Y-117879000D03*
X148971000Y-120419000D03*
X148971000Y-122959000D03*
X148971000Y-125499000D03*
X148971000Y-128039000D03*
X148971000Y-130579000D03*
%TD*%
D17*
%TO.C,J3*%
X73371000Y-82339000D03*
%TD*%
%TO.C,J5*%
X73371000Y-87339000D03*
%TD*%
%TO.C,J6*%
X73371000Y-92339000D03*
%TD*%
%TO.C,J8*%
X73371000Y-97339000D03*
%TD*%
%TO.C,J7*%
X73371000Y-77259000D03*
%TD*%
D10*
%TO.C,H36*%
X90246200Y-151852800D03*
%TD*%
D18*
%TO.C,J1*%
X73279000Y-57099000D03*
D17*
X73279000Y-62099000D03*
X73279000Y-67099000D03*
%TD*%
D10*
%TO.C,H16*%
X130886200Y-30565200D03*
%TD*%
%TO.C,H5*%
X166446200Y-31200200D03*
%TD*%
%TO.C,H36*%
X151206200Y-151852800D03*
%TD*%
%TO.C,H13*%
X161366200Y-29950200D03*
%TD*%
%TO.C,H38*%
X146126200Y-151217800D03*
%TD*%
%TO.C,H38*%
X105486200Y-151217800D03*
%TD*%
%TO.C,H13*%
X120726200Y-29950200D03*
%TD*%
%TO.C,H36*%
X130886200Y-151852800D03*
%TD*%
%TO.C,H13*%
X100406200Y-29950200D03*
%TD*%
%TO.C,H34*%
X141046200Y-152467800D03*
%TD*%
%TO.C,H13*%
X141046200Y-29950200D03*
%TD*%
%TO.C,H13*%
X80086200Y-29950200D03*
%TD*%
%TO.C,H5*%
X146126200Y-31200200D03*
%TD*%
%TO.C,H38*%
X166446200Y-151217800D03*
%TD*%
%TO.C,H36*%
X110566200Y-151852800D03*
%TD*%
%TO.C,H38*%
X125806200Y-151217800D03*
%TD*%
%TO.C,H5*%
X125806200Y-31200200D03*
%TD*%
%TO.C,H16*%
X151206200Y-30565200D03*
%TD*%
%TO.C,H34*%
X100406200Y-152467800D03*
%TD*%
%TO.C,H16*%
X90246200Y-30565200D03*
%TD*%
%TO.C,H34*%
X161366200Y-152467800D03*
%TD*%
%TO.C,H5*%
X85166200Y-31200200D03*
%TD*%
%TO.C,H34*%
X80086200Y-152467800D03*
%TD*%
%TO.C,H34*%
X120726200Y-152467800D03*
%TD*%
%TO.C,H16*%
X110566200Y-30565200D03*
%TD*%
%TO.C,H38*%
X85166200Y-151217800D03*
%TD*%
%TO.C,H5*%
X105486200Y-31200200D03*
%TD*%
M02*
