%TF.GenerationSoftware,KiCad,Pcbnew,(5.1.12)-1*%
%TF.CreationDate,2026-05-18T14:53:57+02:00*%
%TF.ProjectId,SYS-80S,5359532d-3830-4532-9e6b-696361645f70,1.2*%
%TF.SameCoordinates,Original*%
%TF.FileFunction,Copper,L1,Top*%
%TF.FilePolarity,Positive*%
%FSLAX46Y46*%
G04 Gerber Fmt 4.6, Leading zero omitted, Abs format (unit mm)*
G04 Created by KiCad (PCBNEW (5.1.12)-1) date 2026-05-18 14:53:57*
%MOMM*%
%LPD*%
G01*
G04 APERTURE LIST*
%TA.AperFunction,ComponentPad*%
%ADD10O,1.600000X1.600000*%
%TD*%
%TA.AperFunction,ComponentPad*%
%ADD11C,1.600000*%
%TD*%
%TA.AperFunction,ComponentPad*%
%ADD12O,1.700000X1.700000*%
%TD*%
%TA.AperFunction,ComponentPad*%
%ADD13R,1.700000X1.700000*%
%TD*%
%TA.AperFunction,ComponentPad*%
%ADD14R,1.600000X1.600000*%
%TD*%
%TA.AperFunction,SMDPad,CuDef*%
%ADD15R,1.000000X1.500000*%
%TD*%
%TA.AperFunction,ComponentPad*%
%ADD16C,1.500000*%
%TD*%
%TA.AperFunction,ComponentPad*%
%ADD17C,4.000000*%
%TD*%
%TA.AperFunction,ComponentPad*%
%ADD18C,1.550000*%
%TD*%
%TA.AperFunction,ViaPad*%
%ADD19C,0.800000*%
%TD*%
%TA.AperFunction,ViaPad*%
%ADD20C,1.000000*%
%TD*%
%TA.AperFunction,Conductor*%
%ADD21C,1.000000*%
%TD*%
%TA.AperFunction,Conductor*%
%ADD22C,1.500000*%
%TD*%
%TA.AperFunction,Conductor*%
%ADD23C,0.500000*%
%TD*%
%TA.AperFunction,Conductor*%
%ADD24C,0.400000*%
%TD*%
%TA.AperFunction,Conductor*%
%ADD25C,0.300000*%
%TD*%
%TA.AperFunction,Conductor*%
%ADD26C,0.250000*%
%TD*%
G04 APERTURE END LIST*
D10*
%TO.P,R13,2*%
%TO.N,GND*%
X222504000Y-103886000D03*
D11*
%TO.P,R13,1*%
%TO.N,CTS*%
X222504000Y-93726000D03*
%TD*%
D12*
%TO.P,JP9,2*%
%TO.N,BAUD*%
X182499000Y-100330000D03*
D13*
%TO.P,JP9,1*%
%TO.N,Net-(JP9-Pad1)*%
X179959000Y-100330000D03*
%TD*%
D12*
%TO.P,JP10,2*%
%TO.N,BAUD*%
X182499000Y-97790000D03*
D13*
%TO.P,JP10,1*%
%TO.N,Net-(JP10-Pad1)*%
X179959000Y-97790000D03*
%TD*%
D12*
%TO.P,JP8,2*%
%TO.N,BAUD*%
X182499000Y-102870000D03*
D13*
%TO.P,JP8,1*%
%TO.N,Net-(JP8-Pad1)*%
X179959000Y-102870000D03*
%TD*%
D10*
%TO.P,R7,2*%
%TO.N,+RESET*%
X209296000Y-88900000D03*
D11*
%TO.P,R7,1*%
%TO.N,GND*%
X219456000Y-88900000D03*
%TD*%
D10*
%TO.P,U9,32*%
%TO.N,+5V*%
X167767000Y-102616000D03*
%TO.P,U9,16*%
%TO.N,GND*%
X129667000Y-87376000D03*
%TO.P,U9,31*%
%TO.N,A15*%
X165227000Y-102616000D03*
%TO.P,U9,15*%
%TO.N,D2*%
X132207000Y-87376000D03*
%TO.P,U9,30*%
%TO.N,-CS-ROM*%
X162687000Y-102616000D03*
%TO.P,U9,14*%
%TO.N,D1*%
X134747000Y-87376000D03*
%TO.P,U9,29*%
%TO.N,-WRv*%
X160147000Y-102616000D03*
%TO.P,U9,13*%
%TO.N,D0*%
X137287000Y-87376000D03*
%TO.P,U9,28*%
%TO.N,A13*%
X157607000Y-102616000D03*
%TO.P,U9,12*%
%TO.N,A0*%
X139827000Y-87376000D03*
%TO.P,U9,27*%
%TO.N,A8*%
X155067000Y-102616000D03*
%TO.P,U9,11*%
%TO.N,A1*%
X142367000Y-87376000D03*
%TO.P,U9,26*%
%TO.N,A9*%
X152527000Y-102616000D03*
%TO.P,U9,10*%
%TO.N,A2*%
X144907000Y-87376000D03*
%TO.P,U9,25*%
%TO.N,A11*%
X149987000Y-102616000D03*
%TO.P,U9,9*%
%TO.N,A3*%
X147447000Y-87376000D03*
%TO.P,U9,24*%
%TO.N,-CS-RAM*%
X147447000Y-102616000D03*
%TO.P,U9,8*%
%TO.N,A4*%
X149987000Y-87376000D03*
%TO.P,U9,23*%
%TO.N,A10*%
X144907000Y-102616000D03*
%TO.P,U9,7*%
%TO.N,A5*%
X152527000Y-87376000D03*
%TO.P,U9,22*%
%TO.N,-MREQv*%
X142367000Y-102616000D03*
%TO.P,U9,6*%
%TO.N,A6*%
X155067000Y-87376000D03*
%TO.P,U9,21*%
%TO.N,D7*%
X139827000Y-102616000D03*
%TO.P,U9,5*%
%TO.N,A7*%
X157607000Y-87376000D03*
%TO.P,U9,20*%
%TO.N,D6*%
X137287000Y-102616000D03*
%TO.P,U9,4*%
%TO.N,A12*%
X160147000Y-87376000D03*
%TO.P,U9,19*%
%TO.N,D5*%
X134747000Y-102616000D03*
%TO.P,U9,3*%
%TO.N,A14*%
X162687000Y-87376000D03*
%TO.P,U9,18*%
%TO.N,D4*%
X132207000Y-102616000D03*
%TO.P,U9,2*%
%TO.N,Net-(JP3-Pad2)*%
X165227000Y-87376000D03*
%TO.P,U9,17*%
%TO.N,D3*%
X129667000Y-102616000D03*
D14*
%TO.P,U9,1*%
%TO.N,N/C*%
X167767000Y-87376000D03*
%TD*%
D10*
%TO.P,U19,16*%
%TO.N,+5V*%
X186309000Y-74803000D03*
%TO.P,U19,8*%
%TO.N,GND*%
X178689000Y-92583000D03*
%TO.P,U19,15*%
%TO.N,N/C*%
X186309000Y-77343000D03*
%TO.P,U19,7*%
%TO.N,Net-(JP10-Pad1)*%
X178689000Y-90043000D03*
%TO.P,U19,14*%
%TO.N,N/C*%
X186309000Y-79883000D03*
%TO.P,U19,6*%
X178689000Y-87503000D03*
%TO.P,U19,13*%
X186309000Y-82423000D03*
%TO.P,U19,5*%
%TO.N,Net-(JP9-Pad1)*%
X178689000Y-84963000D03*
%TO.P,U19,12*%
%TO.N,GND*%
X186309000Y-84963000D03*
%TO.P,U19,4*%
%TO.N,Net-(JP8-Pad1)*%
X178689000Y-82423000D03*
%TO.P,U19,11*%
%TO.N,Net-(C17-Pad2)*%
X186309000Y-87503000D03*
%TO.P,U19,3*%
%TO.N,N/C*%
X178689000Y-79883000D03*
%TO.P,U19,10*%
%TO.N,Net-(C16-Pad2)*%
X186309000Y-90043000D03*
%TO.P,U19,2*%
%TO.N,N/C*%
X178689000Y-77343000D03*
%TO.P,U19,9*%
X186309000Y-92583000D03*
D14*
%TO.P,U19,1*%
X178689000Y-74803000D03*
%TD*%
D15*
%TO.P,JP7,1*%
%TO.N,Net-(J2-Pad6)*%
X224995500Y-86360000D03*
%TO.P,JP7,2*%
%TO.N,Net-(J2-Pad4)*%
X223695500Y-86360000D03*
%TD*%
D10*
%TO.P,U13,14*%
%TO.N,+5V*%
X179705000Y-40640000D03*
%TO.P,U13,7*%
%TO.N,GND*%
X172085000Y-55880000D03*
%TO.P,U13,13*%
%TO.N,Net-(U13-Pad13)*%
X179705000Y-43180000D03*
%TO.P,U13,6*%
%TO.N,UART-CS*%
X172085000Y-53340000D03*
%TO.P,U13,12*%
%TO.N,Net-(U13-Pad12)*%
X179705000Y-45720000D03*
%TO.P,U13,5*%
%TO.N,A7*%
X172085000Y-50800000D03*
%TO.P,U13,11*%
%TO.N,Net-(U13-Pad11)*%
X179705000Y-48260000D03*
%TO.P,U13,4*%
%TO.N,Net-(J3-Pad10)*%
X172085000Y-48260000D03*
%TO.P,U13,10*%
%TO.N,-BUSAK*%
X179705000Y-50800000D03*
%TO.P,U13,3*%
%TO.N,Net-(U13-Pad12)*%
X172085000Y-45720000D03*
%TO.P,U13,9*%
%TO.N,Net-(U13-Pad9)*%
X179705000Y-53340000D03*
%TO.P,U13,2*%
%TO.N,Net-(U13-Pad2)*%
X172085000Y-43180000D03*
%TO.P,U13,8*%
%TO.N,Net-(U13-Pad8)*%
X179705000Y-55880000D03*
D14*
%TO.P,U13,1*%
%TO.N,-IORQv*%
X172085000Y-40640000D03*
%TD*%
D10*
%TO.P,R12,2*%
%TO.N,Net-(C17-Pad2)*%
X190323000Y-82749000D03*
D11*
%TO.P,R12,1*%
%TO.N,Net-(C16-Pad2)*%
X190323000Y-92909000D03*
%TD*%
D16*
%TO.P,Y2,2*%
%TO.N,Net-(C17-Pad2)*%
X195673000Y-85559000D03*
%TO.P,Y2,1*%
%TO.N,Net-(C16-Pad2)*%
X195673000Y-90459000D03*
%TD*%
D11*
%TO.P,C17,2*%
%TO.N,Net-(C17-Pad2)*%
X200359000Y-85598000D03*
%TO.P,C17,1*%
%TO.N,GND*%
X205359000Y-85598000D03*
%TD*%
%TO.P,C16,2*%
%TO.N,Net-(C16-Pad2)*%
X200359000Y-88900000D03*
%TO.P,C16,1*%
%TO.N,GND*%
X205359000Y-88900000D03*
%TD*%
D10*
%TO.P,U10,40*%
%TO.N,A10*%
X167767000Y-123698000D03*
%TO.P,U10,20*%
%TO.N,IORQ\u002A*%
X119507000Y-108458000D03*
%TO.P,U10,39*%
%TO.N,A9*%
X165227000Y-123698000D03*
%TO.P,U10,19*%
%TO.N,MREQ\u002A*%
X122047000Y-108458000D03*
%TO.P,U10,38*%
%TO.N,A8*%
X162687000Y-123698000D03*
%TO.P,U10,18*%
%TO.N,-HALT*%
X124587000Y-108458000D03*
%TO.P,U10,37*%
%TO.N,A7*%
X160147000Y-123698000D03*
%TO.P,U10,17*%
%TO.N,-NMI*%
X127127000Y-108458000D03*
%TO.P,U10,36*%
%TO.N,A6*%
X157607000Y-123698000D03*
%TO.P,U10,16*%
%TO.N,-INT*%
X129667000Y-108458000D03*
%TO.P,U10,35*%
%TO.N,A5*%
X155067000Y-123698000D03*
%TO.P,U10,15*%
%TO.N,D1*%
X132207000Y-108458000D03*
%TO.P,U10,34*%
%TO.N,A4*%
X152527000Y-123698000D03*
%TO.P,U10,14*%
%TO.N,D0*%
X134747000Y-108458000D03*
%TO.P,U10,33*%
%TO.N,A3*%
X149987000Y-123698000D03*
%TO.P,U10,13*%
%TO.N,D7*%
X137287000Y-108458000D03*
%TO.P,U10,32*%
%TO.N,A2*%
X147447000Y-123698000D03*
%TO.P,U10,12*%
%TO.N,D2*%
X139827000Y-108458000D03*
%TO.P,U10,31*%
%TO.N,A1*%
X144907000Y-123698000D03*
%TO.P,U10,11*%
%TO.N,+5V*%
X142367000Y-108458000D03*
%TO.P,U10,30*%
%TO.N,A0*%
X142367000Y-123698000D03*
%TO.P,U10,10*%
%TO.N,D6*%
X144907000Y-108458000D03*
%TO.P,U10,29*%
%TO.N,GND*%
X139827000Y-123698000D03*
%TO.P,U10,9*%
%TO.N,D5*%
X147447000Y-108458000D03*
%TO.P,U10,28*%
%TO.N,RFSH\u002A*%
X137287000Y-123698000D03*
%TO.P,U10,8*%
%TO.N,D3*%
X149987000Y-108458000D03*
%TO.P,U10,27*%
%TO.N,M1\u002A*%
X134747000Y-123698000D03*
%TO.P,U10,7*%
%TO.N,D4*%
X152527000Y-108458000D03*
%TO.P,U10,26*%
%TO.N,-RESET*%
X132207000Y-123698000D03*
%TO.P,U10,6*%
%TO.N,CLK*%
X155067000Y-108458000D03*
%TO.P,U10,25*%
%TO.N,-BUSRQ*%
X129667000Y-123698000D03*
%TO.P,U10,5*%
%TO.N,A15*%
X157607000Y-108458000D03*
%TO.P,U10,24*%
%TO.N,-WAIT*%
X127127000Y-123698000D03*
%TO.P,U10,4*%
%TO.N,A14*%
X160147000Y-108458000D03*
%TO.P,U10,23*%
%TO.N,-BUSAK*%
X124587000Y-123698000D03*
%TO.P,U10,3*%
%TO.N,A13*%
X162687000Y-108458000D03*
%TO.P,U10,22*%
%TO.N,WR\u002A*%
X122047000Y-123698000D03*
%TO.P,U10,2*%
%TO.N,A12*%
X165227000Y-108458000D03*
%TO.P,U10,21*%
%TO.N,RD\u002A*%
X119507000Y-123698000D03*
D14*
%TO.P,U10,1*%
%TO.N,A11*%
X167767000Y-108458000D03*
%TD*%
D10*
%TO.P,U17,28*%
%TO.N,D1v*%
X216535000Y-93853000D03*
%TO.P,U17,14*%
%TO.N,N/C*%
X201295000Y-126873000D03*
%TO.P,U17,27*%
%TO.N,D0v*%
X216535000Y-96393000D03*
%TO.P,U17,13*%
%TO.N,-RDv*%
X201295000Y-124333000D03*
%TO.P,U17,26*%
%TO.N,+5V*%
X216535000Y-98933000D03*
%TO.P,U17,12*%
%TO.N,A0v*%
X201295000Y-121793000D03*
%TO.P,U17,25*%
%TO.N,BAUD*%
X216535000Y-101473000D03*
%TO.P,U17,11*%
%TO.N,UART-CS*%
X201295000Y-119253000D03*
%TO.P,U17,24*%
%TO.N,Net-(U17-Pad22)*%
X216535000Y-104013000D03*
%TO.P,U17,10*%
%TO.N,-WRv*%
X201295000Y-116713000D03*
%TO.P,U17,23*%
%TO.N,RTS*%
X216535000Y-106553000D03*
%TO.P,U17,9*%
%TO.N,BAUD*%
X201295000Y-114173000D03*
%TO.P,U17,22*%
%TO.N,Net-(U17-Pad22)*%
X216535000Y-109093000D03*
%TO.P,U17,8*%
%TO.N,D7v*%
X201295000Y-111633000D03*
%TO.P,U17,21*%
%TO.N,+RESET*%
X216535000Y-111633000D03*
%TO.P,U17,7*%
%TO.N,D6v*%
X201295000Y-109093000D03*
%TO.P,U17,20*%
%TO.N,PHI*%
X216535000Y-114173000D03*
%TO.P,U17,6*%
%TO.N,D5v*%
X201295000Y-106553000D03*
%TO.P,U17,19*%
%TO.N,TXD*%
X216535000Y-116713000D03*
%TO.P,U17,5*%
%TO.N,D4v*%
X201295000Y-104013000D03*
%TO.P,U17,18*%
%TO.N,N/C*%
X216535000Y-119253000D03*
%TO.P,U17,4*%
%TO.N,GND*%
X201295000Y-101473000D03*
%TO.P,U17,17*%
%TO.N,CTS*%
X216535000Y-121793000D03*
%TO.P,U17,3*%
%TO.N,RXD*%
X201295000Y-98933000D03*
%TO.P,U17,16*%
%TO.N,N/C*%
X216535000Y-124333000D03*
%TO.P,U17,2*%
%TO.N,D3v*%
X201295000Y-96393000D03*
%TO.P,U17,15*%
%TO.N,N/C*%
X216535000Y-126873000D03*
D14*
%TO.P,U17,1*%
%TO.N,D2v*%
X201295000Y-93853000D03*
%TD*%
D10*
%TO.P,U16,16*%
%TO.N,+5V*%
X186309000Y-108966000D03*
%TO.P,U16,8*%
%TO.N,GND*%
X178689000Y-126746000D03*
%TO.P,U16,15*%
%TO.N,Net-(J3-Pad1)*%
X186309000Y-111506000D03*
%TO.P,U16,7*%
%TO.N,Net-(J3-Pad15)*%
X178689000Y-124206000D03*
%TO.P,U16,14*%
%TO.N,Net-(J3-Pad3)*%
X186309000Y-114046000D03*
%TO.P,U16,6*%
%TO.N,M1\u002A*%
X178689000Y-121666000D03*
%TO.P,U16,13*%
%TO.N,Net-(J3-Pad5)*%
X186309000Y-116586000D03*
%TO.P,U16,5*%
%TO.N,A6*%
X178689000Y-119126000D03*
%TO.P,U16,12*%
%TO.N,Net-(J3-Pad7)*%
X186309000Y-119126000D03*
%TO.P,U16,4*%
%TO.N,IORQ\u002A*%
X178689000Y-116586000D03*
%TO.P,U16,11*%
%TO.N,Net-(J3-Pad9)*%
X186309000Y-121666000D03*
%TO.P,U16,3*%
%TO.N,A5*%
X178689000Y-114046000D03*
%TO.P,U16,10*%
%TO.N,Net-(J3-Pad11)*%
X186309000Y-124206000D03*
%TO.P,U16,2*%
%TO.N,A4*%
X178689000Y-111506000D03*
%TO.P,U16,9*%
%TO.N,Net-(J3-Pad13)*%
X186309000Y-126746000D03*
D14*
%TO.P,U16,1*%
%TO.N,A3*%
X178689000Y-108966000D03*
%TD*%
D12*
%TO.P,J3,16*%
%TO.N,Net-(J3-Pad10)*%
X192913000Y-126746000D03*
%TO.P,J3,15*%
%TO.N,Net-(J3-Pad15)*%
X190373000Y-126746000D03*
%TO.P,J3,14*%
%TO.N,Net-(J3-Pad10)*%
X192913000Y-124206000D03*
%TO.P,J3,13*%
%TO.N,Net-(J3-Pad13)*%
X190373000Y-124206000D03*
%TO.P,J3,12*%
%TO.N,Net-(J3-Pad10)*%
X192913000Y-121666000D03*
%TO.P,J3,11*%
%TO.N,Net-(J3-Pad11)*%
X190373000Y-121666000D03*
%TO.P,J3,10*%
%TO.N,Net-(J3-Pad10)*%
X192913000Y-119126000D03*
%TO.P,J3,9*%
%TO.N,Net-(J3-Pad9)*%
X190373000Y-119126000D03*
%TO.P,J3,8*%
%TO.N,Net-(J3-Pad10)*%
X192913000Y-116586000D03*
%TO.P,J3,7*%
%TO.N,Net-(J3-Pad7)*%
X190373000Y-116586000D03*
%TO.P,J3,6*%
%TO.N,Net-(J3-Pad10)*%
X192913000Y-114046000D03*
%TO.P,J3,5*%
%TO.N,Net-(J3-Pad5)*%
X190373000Y-114046000D03*
%TO.P,J3,4*%
%TO.N,Net-(J3-Pad10)*%
X192913000Y-111506000D03*
%TO.P,J3,3*%
%TO.N,Net-(J3-Pad3)*%
X190373000Y-111506000D03*
%TO.P,J3,2*%
%TO.N,Net-(J3-Pad10)*%
X192913000Y-108966000D03*
D13*
%TO.P,J3,1*%
%TO.N,Net-(J3-Pad1)*%
X190373000Y-108966000D03*
%TD*%
D10*
%TO.P,U15,16*%
%TO.N,+5V*%
X212979000Y-63500000D03*
%TO.P,U15,8*%
%TO.N,Net-(J2-Pad2)*%
X205359000Y-81280000D03*
%TO.P,U15,15*%
%TO.N,GND*%
X212979000Y-66040000D03*
%TO.P,U15,7*%
%TO.N,Net-(J2-Pad3)*%
X205359000Y-78740000D03*
%TO.P,U15,14*%
%TO.N,Net-(J2-Pad7)*%
X212979000Y-68580000D03*
%TO.P,U15,6*%
%TO.N,Net-(C15-Pad2)*%
X205359000Y-76200000D03*
%TO.P,U15,13*%
%TO.N,Net-(J2-Pad8)*%
X212979000Y-71120000D03*
%TO.P,U15,5*%
%TO.N,Net-(C13-Pad2)*%
X205359000Y-73660000D03*
%TO.P,U15,12*%
%TO.N,CTS*%
X212979000Y-73660000D03*
%TO.P,U15,4*%
%TO.N,Net-(C13-Pad1)*%
X205359000Y-71120000D03*
%TO.P,U15,11*%
%TO.N,RTS*%
X212979000Y-76200000D03*
%TO.P,U15,3*%
%TO.N,Net-(C12-Pad2)*%
X205359000Y-68580000D03*
%TO.P,U15,10*%
%TO.N,TXD*%
X212979000Y-78740000D03*
%TO.P,U15,2*%
%TO.N,Net-(C14-Pad1)*%
X205359000Y-66040000D03*
%TO.P,U15,9*%
%TO.N,RXD*%
X212979000Y-81280000D03*
D14*
%TO.P,U15,1*%
%TO.N,Net-(C12-Pad1)*%
X205359000Y-63500000D03*
%TD*%
D17*
%TO.P,J2,0*%
%TO.N,Net-(J2-Pad0)*%
X219619000Y-55493000D03*
X219619000Y-80493000D03*
D11*
%TO.P,J2,9*%
%TO.N,N/C*%
X222159000Y-63838000D03*
%TO.P,J2,8*%
%TO.N,Net-(J2-Pad8)*%
X222159000Y-66608000D03*
%TO.P,J2,7*%
%TO.N,Net-(J2-Pad7)*%
X222159000Y-69378000D03*
%TO.P,J2,6*%
%TO.N,Net-(J2-Pad6)*%
X222159000Y-72148000D03*
%TO.P,J2,5*%
%TO.N,GND*%
X219319000Y-62453000D03*
%TO.P,J2,4*%
%TO.N,Net-(J2-Pad4)*%
X219319000Y-65223000D03*
%TO.P,J2,3*%
%TO.N,Net-(J2-Pad3)*%
X219319000Y-67993000D03*
%TO.P,J2,2*%
%TO.N,Net-(J2-Pad2)*%
X219319000Y-70763000D03*
D14*
%TO.P,J2,1*%
%TO.N,N/C*%
X219319000Y-73533000D03*
%TD*%
D11*
%TO.P,C15,2*%
%TO.N,Net-(C15-Pad2)*%
X200914000Y-76875000D03*
D14*
%TO.P,C15,1*%
%TO.N,GND*%
X200914000Y-79375000D03*
%TD*%
D11*
%TO.P,C14,2*%
%TO.N,GND*%
X209169000Y-56555000D03*
D14*
%TO.P,C14,1*%
%TO.N,Net-(C14-Pad1)*%
X209169000Y-59055000D03*
%TD*%
D11*
%TO.P,C13,2*%
%TO.N,Net-(C13-Pad2)*%
X200914000Y-72985000D03*
D14*
%TO.P,C13,1*%
%TO.N,Net-(C13-Pad1)*%
X200914000Y-70485000D03*
%TD*%
D11*
%TO.P,C12,2*%
%TO.N,Net-(C12-Pad2)*%
X200914000Y-66635000D03*
D14*
%TO.P,C12,1*%
%TO.N,Net-(C12-Pad1)*%
X200914000Y-64135000D03*
%TD*%
D12*
%TO.P,JP3,3*%
%TO.N,GND*%
X171577000Y-72009000D03*
%TO.P,JP3,2*%
%TO.N,Net-(JP3-Pad2)*%
X169037000Y-72009000D03*
D13*
%TO.P,JP3,1*%
%TO.N,Net-(JP3-Pad1)*%
X166497000Y-72009000D03*
%TD*%
D12*
%TO.P,JP6,2*%
%TO.N,A12*%
X171577000Y-62865000D03*
D13*
%TO.P,JP6,1*%
%TO.N,Net-(JP4-Pad1)*%
X171577000Y-60325000D03*
%TD*%
D12*
%TO.P,JP5,2*%
%TO.N,GND*%
X169037000Y-62865000D03*
D13*
%TO.P,JP5,1*%
%TO.N,Net-(JP4-Pad1)*%
X169037000Y-60325000D03*
%TD*%
D12*
%TO.P,JP4,2*%
%TO.N,Net-(JP4-Pad2)*%
X166497000Y-62865000D03*
D13*
%TO.P,JP4,1*%
%TO.N,Net-(JP4-Pad1)*%
X166497000Y-60325000D03*
%TD*%
D11*
%TO.P,C10,2*%
%TO.N,+5V*%
X143717000Y-128016000D03*
%TO.P,C10,1*%
%TO.N,GND*%
X148717000Y-128016000D03*
%TD*%
D10*
%TO.P,U6,20*%
%TO.N,+5V*%
X89319000Y-116140000D03*
%TO.P,U6,10*%
%TO.N,GND*%
X112179000Y-123760000D03*
%TO.P,U6,19*%
X91859000Y-116140000D03*
%TO.P,U6,9*%
%TO.N,D7v*%
X109639000Y-123760000D03*
%TO.P,U6,18*%
%TO.N,D0*%
X94399000Y-116140000D03*
%TO.P,U6,8*%
%TO.N,D6v*%
X107099000Y-123760000D03*
%TO.P,U6,17*%
%TO.N,D1*%
X96939000Y-116140000D03*
%TO.P,U6,7*%
%TO.N,D5v*%
X104559000Y-123760000D03*
%TO.P,U6,16*%
%TO.N,D2*%
X99479000Y-116140000D03*
%TO.P,U6,6*%
%TO.N,D4v*%
X102019000Y-123760000D03*
%TO.P,U6,15*%
%TO.N,D3*%
X102019000Y-116140000D03*
%TO.P,U6,5*%
%TO.N,D3v*%
X99479000Y-123760000D03*
%TO.P,U6,14*%
%TO.N,D4*%
X104559000Y-116140000D03*
%TO.P,U6,4*%
%TO.N,D2v*%
X96939000Y-123760000D03*
%TO.P,U6,13*%
%TO.N,D5*%
X107099000Y-116140000D03*
%TO.P,U6,3*%
%TO.N,D1v*%
X94399000Y-123760000D03*
%TO.P,U6,12*%
%TO.N,D6*%
X109639000Y-116140000D03*
%TO.P,U6,2*%
%TO.N,D0v*%
X91859000Y-123760000D03*
%TO.P,U6,11*%
%TO.N,D7*%
X112179000Y-116140000D03*
D14*
%TO.P,U6,1*%
%TO.N,IO-Data*%
X89319000Y-123760000D03*
%TD*%
D10*
%TO.P,U5,20*%
%TO.N,+5V*%
X89319000Y-100640000D03*
%TO.P,U5,10*%
%TO.N,GND*%
X112179000Y-108260000D03*
%TO.P,U5,19*%
X91859000Y-100640000D03*
%TO.P,U5,9*%
%TO.N,A7v*%
X109639000Y-108260000D03*
%TO.P,U5,18*%
%TO.N,A0*%
X94399000Y-100640000D03*
%TO.P,U5,8*%
%TO.N,A6v*%
X107099000Y-108260000D03*
%TO.P,U5,17*%
%TO.N,A1*%
X96939000Y-100640000D03*
%TO.P,U5,7*%
%TO.N,A5v*%
X104559000Y-108260000D03*
%TO.P,U5,16*%
%TO.N,A2*%
X99479000Y-100640000D03*
%TO.P,U5,6*%
%TO.N,A4v*%
X102019000Y-108260000D03*
%TO.P,U5,15*%
%TO.N,A3*%
X102019000Y-100640000D03*
%TO.P,U5,5*%
%TO.N,A3v*%
X99479000Y-108260000D03*
%TO.P,U5,14*%
%TO.N,A4*%
X104559000Y-100640000D03*
%TO.P,U5,4*%
%TO.N,A2v*%
X96939000Y-108260000D03*
%TO.P,U5,13*%
%TO.N,A5*%
X107099000Y-100640000D03*
%TO.P,U5,3*%
%TO.N,A1v*%
X94399000Y-108260000D03*
%TO.P,U5,12*%
%TO.N,A6*%
X109639000Y-100640000D03*
%TO.P,U5,2*%
%TO.N,A0v*%
X91859000Y-108260000D03*
%TO.P,U5,11*%
%TO.N,A7*%
X112179000Y-100640000D03*
D14*
%TO.P,U5,1*%
%TO.N,BUSAK*%
X89319000Y-108260000D03*
%TD*%
D10*
%TO.P,U14,14*%
%TO.N,+5V*%
X168021000Y-40640000D03*
%TO.P,U14,7*%
%TO.N,GND*%
X160401000Y-55880000D03*
%TO.P,U14,13*%
%TO.N,-BUSAK*%
X168021000Y-43180000D03*
%TO.P,U14,6*%
%TO.N,IO-Data*%
X160401000Y-53340000D03*
%TO.P,U14,12*%
%TO.N,-BUSAK*%
X168021000Y-45720000D03*
%TO.P,U14,5*%
%TO.N,Net-(U13-Pad8)*%
X160401000Y-50800000D03*
%TO.P,U14,11*%
%TO.N,Net-(U13-Pad13)*%
X168021000Y-48260000D03*
%TO.P,U14,4*%
%TO.N,Net-(U13-Pad11)*%
X160401000Y-48260000D03*
%TO.P,U14,10*%
%TO.N,-CS-RAM*%
X168021000Y-50800000D03*
%TO.P,U14,3*%
%TO.N,Net-(U13-Pad2)*%
X160401000Y-45720000D03*
%TO.P,U14,9*%
%TO.N,-CS-RAM*%
X168021000Y-53340000D03*
%TO.P,U14,2*%
%TO.N,-WRv*%
X160401000Y-43180000D03*
%TO.P,U14,8*%
%TO.N,Net-(U13-Pad9)*%
X168021000Y-55880000D03*
D14*
%TO.P,U14,1*%
%TO.N,-WRv*%
X160401000Y-40640000D03*
%TD*%
D10*
%TO.P,U12,28*%
%TO.N,+5V*%
X162687000Y-81788000D03*
%TO.P,U12,14*%
%TO.N,GND*%
X129667000Y-66548000D03*
%TO.P,U12,27*%
%TO.N,+5V*%
X160147000Y-81788000D03*
%TO.P,U12,13*%
%TO.N,D2*%
X132207000Y-66548000D03*
%TO.P,U12,26*%
%TO.N,+5V*%
X157607000Y-81788000D03*
%TO.P,U12,12*%
%TO.N,D1*%
X134747000Y-66548000D03*
%TO.P,U12,25*%
%TO.N,A8*%
X155067000Y-81788000D03*
%TO.P,U12,11*%
%TO.N,D0*%
X137287000Y-66548000D03*
%TO.P,U12,24*%
%TO.N,A9*%
X152527000Y-81788000D03*
%TO.P,U12,10*%
%TO.N,A0*%
X139827000Y-66548000D03*
%TO.P,U12,23*%
%TO.N,A11*%
X149987000Y-81788000D03*
%TO.P,U12,9*%
%TO.N,A1*%
X142367000Y-66548000D03*
%TO.P,U12,22*%
%TO.N,-RDv*%
X147447000Y-81788000D03*
%TO.P,U12,8*%
%TO.N,A2*%
X144907000Y-66548000D03*
%TO.P,U12,21*%
%TO.N,A10*%
X144907000Y-81788000D03*
%TO.P,U12,7*%
%TO.N,A3*%
X147447000Y-66548000D03*
%TO.P,U12,20*%
%TO.N,-CS-ROM*%
X142367000Y-81788000D03*
%TO.P,U12,6*%
%TO.N,A4*%
X149987000Y-66548000D03*
%TO.P,U12,19*%
%TO.N,D7*%
X139827000Y-81788000D03*
%TO.P,U12,5*%
%TO.N,A5*%
X152527000Y-66548000D03*
%TO.P,U12,18*%
%TO.N,D6*%
X137287000Y-81788000D03*
%TO.P,U12,4*%
%TO.N,A6*%
X155067000Y-66548000D03*
%TO.P,U12,17*%
%TO.N,D5*%
X134747000Y-81788000D03*
%TO.P,U12,3*%
%TO.N,A7*%
X157607000Y-66548000D03*
%TO.P,U12,16*%
%TO.N,D4*%
X132207000Y-81788000D03*
%TO.P,U12,2*%
%TO.N,Net-(JP4-Pad1)*%
X160147000Y-66548000D03*
%TO.P,U12,15*%
%TO.N,D3*%
X129667000Y-81788000D03*
D14*
%TO.P,U12,1*%
%TO.N,+5V*%
X162687000Y-66548000D03*
%TD*%
D10*
%TO.P,U11,14*%
%TO.N,+5V*%
X203327000Y-40640000D03*
%TO.P,U11,7*%
%TO.N,GND*%
X195707000Y-55880000D03*
%TO.P,U11,13*%
%TO.N,-RESET*%
X203327000Y-43180000D03*
%TO.P,U11,6*%
%TO.N,Net-(U11-Pad6)*%
X195707000Y-53340000D03*
%TO.P,U11,12*%
%TO.N,Net-(U11-Pad12)*%
X203327000Y-45720000D03*
%TO.P,U11,5*%
%TO.N,A14*%
X195707000Y-50800000D03*
%TO.P,U11,11*%
%TO.N,Net-(U11-Pad10)*%
X203327000Y-48260000D03*
%TO.P,U11,4*%
%TO.N,Net-(U11-Pad3)*%
X195707000Y-48260000D03*
%TO.P,U11,10*%
%TO.N,Net-(U11-Pad10)*%
X203327000Y-50800000D03*
%TO.P,U11,3*%
%TO.N,Net-(U11-Pad3)*%
X195707000Y-45720000D03*
%TO.P,U11,9*%
%TO.N,Net-(U11-Pad9)*%
X203327000Y-53340000D03*
%TO.P,U11,2*%
%TO.N,A15*%
X195707000Y-43180000D03*
%TO.P,U11,8*%
%TO.N,Net-(U11-Pad12)*%
X203327000Y-55880000D03*
D14*
%TO.P,U11,1*%
%TO.N,A15*%
X195707000Y-40640000D03*
%TD*%
D10*
%TO.P,U8,14*%
%TO.N,+5V*%
X191643000Y-40640000D03*
%TO.P,U8,7*%
%TO.N,GND*%
X184023000Y-55880000D03*
%TO.P,U8,13*%
%TO.N,-MREQv*%
X191643000Y-43180000D03*
%TO.P,U8,6*%
%TO.N,Net-(U11-Pad9)*%
X184023000Y-53340000D03*
%TO.P,U8,12*%
%TO.N,Net-(U8-Pad12)*%
X191643000Y-45720000D03*
%TO.P,U8,5*%
%TO.N,Net-(U11-Pad6)*%
X184023000Y-50800000D03*
%TO.P,U8,11*%
%TO.N,-CS-ROM*%
X191643000Y-48260000D03*
%TO.P,U8,4*%
%TO.N,-CS-RAM*%
X184023000Y-48260000D03*
%TO.P,U8,10*%
%TO.N,A15*%
X191643000Y-50800000D03*
%TO.P,U8,3*%
%TO.N,-CS-RAM*%
X184023000Y-45720000D03*
%TO.P,U8,9*%
%TO.N,Net-(U11-Pad12)*%
X191643000Y-53340000D03*
%TO.P,U8,2*%
%TO.N,-MREQv*%
X184023000Y-43180000D03*
%TO.P,U8,8*%
%TO.N,Net-(U8-Pad12)*%
X191643000Y-55880000D03*
D14*
%TO.P,U8,1*%
%TO.N,-RDv*%
X184023000Y-40640000D03*
%TD*%
D10*
%TO.P,R4,2*%
%TO.N,-BUSRQ*%
X129540000Y-128016000D03*
D11*
%TO.P,R4,1*%
%TO.N,+5V*%
X139700000Y-128016000D03*
%TD*%
D10*
%TO.P,R3,2*%
%TO.N,-INT*%
X132969000Y-58928000D03*
D11*
%TO.P,R3,1*%
%TO.N,+5V*%
X143129000Y-58928000D03*
%TD*%
D10*
%TO.P,R2,2*%
%TO.N,-WAIT*%
X82931000Y-101854000D03*
D11*
%TO.P,R2,1*%
%TO.N,+5V*%
X82931000Y-91694000D03*
%TD*%
D10*
%TO.P,R1,2*%
%TO.N,-NMI*%
X153289000Y-128143000D03*
D11*
%TO.P,R1,1*%
%TO.N,+5V*%
X163449000Y-128143000D03*
%TD*%
%TO.P,C11,2*%
%TO.N,GND*%
X78653000Y-39751000D03*
D14*
%TO.P,C11,1*%
%TO.N,+5V*%
X81153000Y-39751000D03*
%TD*%
D11*
%TO.P,C7,2*%
%TO.N,+5V*%
X208915000Y-40720000D03*
%TO.P,C7,1*%
%TO.N,GND*%
X208915000Y-45720000D03*
%TD*%
%TO.P,C5,2*%
%TO.N,+5V*%
X219456000Y-98853000D03*
%TO.P,C5,1*%
%TO.N,GND*%
X219456000Y-93853000D03*
%TD*%
D10*
%TO.P,U2,14*%
%TO.N,+5V*%
X128339000Y-40560000D03*
%TO.P,U2,7*%
%TO.N,GND*%
X120719000Y-55800000D03*
%TO.P,U2,13*%
%TO.N,N/C*%
X128339000Y-43100000D03*
%TO.P,U2,6*%
%TO.N,Net-(U2-Pad2)*%
X120719000Y-53260000D03*
%TO.P,U2,12*%
%TO.N,Net-(U2-Pad12)*%
X128339000Y-45640000D03*
%TO.P,U2,5*%
%TO.N,Net-(JP1-Pad1)*%
X120719000Y-50720000D03*
%TO.P,U2,11*%
X128339000Y-48180000D03*
%TO.P,U2,4*%
%TO.N,N/C*%
X120719000Y-48180000D03*
%TO.P,U2,10*%
X128339000Y-50720000D03*
%TO.P,U2,3*%
%TO.N,Net-(U1-Pad6)*%
X120719000Y-45640000D03*
%TO.P,U2,9*%
%TO.N,Net-(JP1-Pad3)*%
X128339000Y-53260000D03*
%TO.P,U2,2*%
%TO.N,Net-(U2-Pad2)*%
X120719000Y-43100000D03*
%TO.P,U2,8*%
%TO.N,Net-(U2-Pad12)*%
X128339000Y-55800000D03*
D14*
%TO.P,U2,1*%
%TO.N,N/C*%
X120719000Y-40560000D03*
%TD*%
D10*
%TO.P,U4,20*%
%TO.N,+5V*%
X89319000Y-83140000D03*
%TO.P,U4,10*%
%TO.N,GND*%
X112179000Y-90760000D03*
%TO.P,U4,19*%
X91859000Y-83140000D03*
%TO.P,U4,9*%
%TO.N,A15v*%
X109639000Y-90760000D03*
%TO.P,U4,18*%
%TO.N,A8*%
X94399000Y-83140000D03*
%TO.P,U4,8*%
%TO.N,A14v*%
X107099000Y-90760000D03*
%TO.P,U4,17*%
%TO.N,A9*%
X96939000Y-83140000D03*
%TO.P,U4,7*%
%TO.N,A13v*%
X104559000Y-90760000D03*
%TO.P,U4,16*%
%TO.N,A10*%
X99479000Y-83140000D03*
%TO.P,U4,6*%
%TO.N,A12v*%
X102019000Y-90760000D03*
%TO.P,U4,15*%
%TO.N,A11*%
X102019000Y-83140000D03*
%TO.P,U4,5*%
%TO.N,A11v*%
X99479000Y-90760000D03*
%TO.P,U4,14*%
%TO.N,A12*%
X104559000Y-83140000D03*
%TO.P,U4,4*%
%TO.N,A10v*%
X96939000Y-90760000D03*
%TO.P,U4,13*%
%TO.N,A13*%
X107099000Y-83140000D03*
%TO.P,U4,3*%
%TO.N,A9v*%
X94399000Y-90760000D03*
%TO.P,U4,12*%
%TO.N,A14*%
X109639000Y-83140000D03*
%TO.P,U4,2*%
%TO.N,A8v*%
X91859000Y-90760000D03*
%TO.P,U4,11*%
%TO.N,A15*%
X112179000Y-83140000D03*
D14*
%TO.P,U4,1*%
%TO.N,BUSAK*%
X89319000Y-90760000D03*
%TD*%
D18*
%TO.P,J1,C32*%
%TO.N,GND*%
X79899000Y-44770000D03*
%TO.P,J1,C31*%
%TO.N,-RESET*%
X79899000Y-47310000D03*
%TO.P,J1,C30*%
%TO.N,-MREQv*%
X79899000Y-49850000D03*
%TO.P,J1,C29*%
%TO.N,PHI*%
X79899000Y-52390000D03*
%TO.P,J1,C28*%
%TO.N,A15v*%
X79899000Y-54930000D03*
%TO.P,J1,C27*%
%TO.N,A12v*%
X79899000Y-57470000D03*
%TO.P,J1,C26*%
%TO.N,N/C*%
X79899000Y-60010000D03*
%TO.P,J1,C25*%
%TO.N,-HALT*%
X79899000Y-62550000D03*
%TO.P,J1,C24*%
%TO.N,-RDv*%
X79899000Y-65090000D03*
%TO.P,J1,C23*%
%TO.N,N/C*%
X79899000Y-67630000D03*
%TO.P,J1,C22*%
%TO.N,-WRv*%
X79899000Y-70170000D03*
%TO.P,J1,C21*%
%TO.N,-INT*%
X79899000Y-72710000D03*
%TO.P,J1,C20*%
%TO.N,-NMI*%
X79899000Y-75250000D03*
%TO.P,J1,C19*%
%TO.N,N/C*%
X79899000Y-77790000D03*
%TO.P,J1,C18*%
%TO.N,A10v*%
X79899000Y-80330000D03*
%TO.P,J1,C17*%
%TO.N,A11v*%
X79899000Y-82870000D03*
%TO.P,J1,C16*%
%TO.N,N/C*%
X79899000Y-85410000D03*
%TO.P,J1,C15*%
X79899000Y-87950000D03*
%TO.P,J1,C14*%
%TO.N,D1v*%
X79899000Y-90490000D03*
%TO.P,J1,C13*%
%TO.N,N/C*%
X79899000Y-93030000D03*
%TO.P,J1,C12*%
X79899000Y-95570000D03*
%TO.P,J1,C11*%
X79899000Y-98110000D03*
%TO.P,J1,C10*%
X79899000Y-100650000D03*
%TO.P,J1,C9*%
%TO.N,A7v*%
X79899000Y-103190000D03*
%TO.P,J1,C8*%
%TO.N,A8v*%
X79899000Y-105730000D03*
%TO.P,J1,C7*%
%TO.N,A1v*%
X79899000Y-108270000D03*
%TO.P,J1,C6*%
%TO.N,A3v*%
X79899000Y-110810000D03*
%TO.P,J1,C5*%
%TO.N,A0v*%
X79899000Y-113350000D03*
%TO.P,J1,C4*%
%TO.N,D2v*%
X79899000Y-115890000D03*
%TO.P,J1,C3*%
%TO.N,D7v*%
X79899000Y-118430000D03*
%TO.P,J1,C2*%
%TO.N,D0v*%
X79899000Y-120970000D03*
%TO.P,J1,C1*%
%TO.N,+5V*%
X79899000Y-123510000D03*
%TO.P,J1,A32*%
%TO.N,GND*%
X74819000Y-44770000D03*
%TO.P,J1,A31*%
%TO.N,-BUSAK*%
X74819000Y-47310000D03*
%TO.P,J1,A30*%
%TO.N,A9v*%
X74819000Y-49850000D03*
%TO.P,J1,A29*%
%TO.N,A13v*%
X74819000Y-52390000D03*
%TO.P,J1,A28*%
%TO.N,-RFSHv*%
X74819000Y-54930000D03*
%TO.P,J1,A27*%
%TO.N,-IORQv*%
X74819000Y-57470000D03*
%TO.P,J1,A26*%
%TO.N,N/C*%
X74819000Y-60010000D03*
%TO.P,J1,A25*%
X74819000Y-62550000D03*
%TO.P,J1,A24*%
X74819000Y-65090000D03*
%TO.P,J1,A23*%
X74819000Y-67630000D03*
%TO.P,J1,A22*%
X74819000Y-70170000D03*
%TO.P,J1,A21*%
X74819000Y-72710000D03*
%TO.P,J1,A20*%
%TO.N,-M1v*%
X74819000Y-75250000D03*
%TO.P,J1,A19*%
%TO.N,N/C*%
X74819000Y-77790000D03*
%TO.P,J1,A18*%
%TO.N,A14v*%
X74819000Y-80330000D03*
%TO.P,J1,A17*%
%TO.N,N/C*%
X74819000Y-82870000D03*
%TO.P,J1,A16*%
X74819000Y-85410000D03*
%TO.P,J1,A15*%
X74819000Y-87950000D03*
%TO.P,J1,A14*%
X74819000Y-90490000D03*
%TO.P,J1,A13*%
X74819000Y-93030000D03*
%TO.P,J1,A12*%
X74819000Y-95570000D03*
%TO.P,J1,A11*%
%TO.N,-BUSRQ*%
X74819000Y-98110000D03*
%TO.P,J1,A10*%
%TO.N,-WAIT*%
X74819000Y-100650000D03*
%TO.P,J1,A9*%
%TO.N,A6v*%
X74819000Y-103190000D03*
%TO.P,J1,A8*%
%TO.N,A5v*%
X74819000Y-105730000D03*
%TO.P,J1,A7*%
%TO.N,A4v*%
X74819000Y-108270000D03*
%TO.P,J1,A6*%
%TO.N,A2v*%
X74819000Y-110810000D03*
%TO.P,J1,A5*%
%TO.N,D4v*%
X74819000Y-113350000D03*
%TO.P,J1,A4*%
%TO.N,D3v*%
X74819000Y-115890000D03*
%TO.P,J1,A3*%
%TO.N,D6v*%
X74819000Y-118430000D03*
%TO.P,J1,A2*%
%TO.N,D5v*%
X74819000Y-120970000D03*
%TO.P,J1,A1*%
%TO.N,+5V*%
%TA.AperFunction,ComponentPad*%
G36*
G01*
X75344450Y-124285000D02*
X74293550Y-124285000D01*
G75*
G02*
X74044000Y-124035450I0J249550D01*
G01*
X74044000Y-122984550D01*
G75*
G02*
X74293550Y-122735000I249550J0D01*
G01*
X75344450Y-122735000D01*
G75*
G02*
X75594000Y-122984550I0J-249550D01*
G01*
X75594000Y-124035450D01*
G75*
G02*
X75344450Y-124285000I-249550J0D01*
G01*
G37*
%TD.AperFunction*%
%TD*%
D11*
%TO.P,C3,2*%
%TO.N,+5V*%
X85979000Y-46148000D03*
%TO.P,C3,1*%
%TO.N,GND*%
X85979000Y-41148000D03*
%TD*%
D10*
%TO.P,U3,20*%
%TO.N,+5V*%
X89319000Y-65140000D03*
%TO.P,U3,10*%
%TO.N,GND*%
X112179000Y-72760000D03*
%TO.P,U3,19*%
%TO.N,BUSAK*%
X91859000Y-65140000D03*
%TO.P,U3,9*%
%TO.N,MREQ\u002A*%
X109639000Y-72760000D03*
%TO.P,U3,18*%
%TO.N,N/C*%
X94399000Y-65140000D03*
%TO.P,U3,8*%
%TO.N,IORQ\u002A*%
X107099000Y-72760000D03*
%TO.P,U3,17*%
%TO.N,N/C*%
X96939000Y-65140000D03*
%TO.P,U3,7*%
%TO.N,RD\u002A*%
X104559000Y-72760000D03*
%TO.P,U3,16*%
%TO.N,-M1v*%
X99479000Y-65140000D03*
%TO.P,U3,6*%
%TO.N,WR\u002A*%
X102019000Y-72760000D03*
%TO.P,U3,15*%
%TO.N,-RFSHv*%
X102019000Y-65140000D03*
%TO.P,U3,5*%
%TO.N,RFSH\u002A*%
X99479000Y-72760000D03*
%TO.P,U3,14*%
%TO.N,-WRv*%
X104559000Y-65140000D03*
%TO.P,U3,4*%
%TO.N,M1\u002A*%
X96939000Y-72760000D03*
%TO.P,U3,13*%
%TO.N,-RDv*%
X107099000Y-65140000D03*
%TO.P,U3,3*%
%TO.N,N/C*%
X94399000Y-72760000D03*
%TO.P,U3,12*%
%TO.N,-IORQv*%
X109639000Y-65140000D03*
%TO.P,U3,2*%
%TO.N,N/C*%
X91859000Y-72760000D03*
%TO.P,U3,11*%
%TO.N,-MREQv*%
X112179000Y-65140000D03*
D14*
%TO.P,U3,1*%
%TO.N,+5V*%
X89319000Y-72760000D03*
%TD*%
D10*
%TO.P,R11,2*%
%TO.N,+5V*%
X145669000Y-55880000D03*
D11*
%TO.P,R11,1*%
%TO.N,Net-(JP4-Pad2)*%
X155829000Y-55880000D03*
%TD*%
D10*
%TO.P,R10,2*%
%TO.N,+5V*%
X145669000Y-59055000D03*
D11*
%TO.P,R10,1*%
%TO.N,Net-(JP3-Pad1)*%
X155829000Y-59055000D03*
%TD*%
D10*
%TO.P,U7,8*%
%TO.N,+5V*%
X137143000Y-52512000D03*
%TO.P,U7,4*%
%TO.N,GND*%
X144763000Y-44892000D03*
%TO.P,U7,7*%
%TO.N,+5V*%
X137143000Y-49972000D03*
%TO.P,U7,3*%
%TO.N,Net-(C8-Pad1)*%
X144763000Y-47432000D03*
%TO.P,U7,6*%
%TO.N,+RESET*%
X137143000Y-47432000D03*
%TO.P,U7,2*%
%TO.N,Net-(JP2-Pad2)*%
X144763000Y-49972000D03*
%TO.P,U7,5*%
%TO.N,-RESET*%
X137143000Y-44892000D03*
D14*
%TO.P,U7,1*%
%TO.N,Net-(C9-Pad2)*%
X144763000Y-52512000D03*
%TD*%
D10*
%TO.P,R9,2*%
%TO.N,-RESET*%
X134163000Y-55072000D03*
D11*
%TO.P,R9,1*%
%TO.N,+5V*%
X134163000Y-44912000D03*
%TD*%
%TO.P,C9,2*%
%TO.N,Net-(C9-Pad2)*%
X147763000Y-52512000D03*
%TO.P,C9,1*%
%TO.N,GND*%
X152763000Y-52512000D03*
%TD*%
%TO.P,C8,2*%
%TO.N,GND*%
X149963000Y-48212000D03*
D14*
%TO.P,C8,1*%
%TO.N,Net-(C8-Pad1)*%
X149963000Y-45712000D03*
%TD*%
D12*
%TO.P,JP2,2*%
%TO.N,Net-(JP2-Pad2)*%
X145623000Y-40512000D03*
D13*
%TO.P,JP2,1*%
%TO.N,GND*%
X148163000Y-40512000D03*
%TD*%
D10*
%TO.P,R8,2*%
%TO.N,+5V*%
X131803000Y-40512000D03*
D11*
%TO.P,R8,1*%
%TO.N,Net-(JP2-Pad2)*%
X141963000Y-40512000D03*
%TD*%
D10*
%TO.P,U1,14*%
%TO.N,+5V*%
X92499000Y-55760000D03*
%TO.P,U1,7*%
%TO.N,GND*%
X100119000Y-40520000D03*
%TO.P,U1,13*%
%TO.N,-BUSAK*%
X92499000Y-53220000D03*
%TO.P,U1,6*%
%TO.N,Net-(U1-Pad6)*%
X100119000Y-43060000D03*
%TO.P,U1,12*%
%TO.N,BUSAK*%
X92499000Y-50680000D03*
%TO.P,U1,5*%
%TO.N,Net-(R6-Pad1)*%
X100119000Y-45600000D03*
%TO.P,U1,11*%
%TO.N,Net-(JP1-Pad2)*%
X92499000Y-48140000D03*
%TO.P,U1,4*%
%TO.N,Net-(R6-Pad1)*%
X100119000Y-48140000D03*
%TO.P,U1,10*%
%TO.N,PHI*%
X92499000Y-45600000D03*
%TO.P,U1,3*%
%TO.N,Net-(C1-Pad1)*%
X100119000Y-50680000D03*
%TO.P,U1,9*%
%TO.N,Net-(JP1-Pad2)*%
X92499000Y-43060000D03*
%TO.P,U1,2*%
%TO.N,Net-(C1-Pad2)*%
X100119000Y-53220000D03*
%TO.P,U1,8*%
%TO.N,CLK*%
X92499000Y-40520000D03*
D14*
%TO.P,U1,1*%
%TO.N,Net-(R5-Pad2)*%
X100119000Y-55760000D03*
%TD*%
D16*
%TO.P,Y1,2*%
%TO.N,Net-(R6-Pad1)*%
X115719000Y-41860000D03*
%TO.P,Y1,1*%
%TO.N,Net-(R5-Pad2)*%
X115719000Y-46760000D03*
%TD*%
D10*
%TO.P,R6,2*%
%TO.N,Net-(C1-Pad1)*%
X107719000Y-50720000D03*
D11*
%TO.P,R6,1*%
%TO.N,Net-(R6-Pad1)*%
X107719000Y-40560000D03*
%TD*%
D10*
%TO.P,R5,2*%
%TO.N,Net-(R5-Pad2)*%
X104319000Y-55920000D03*
D11*
%TO.P,R5,1*%
%TO.N,Net-(C1-Pad2)*%
X104319000Y-45760000D03*
%TD*%
D12*
%TO.P,JP1,3*%
%TO.N,Net-(JP1-Pad3)*%
X115697000Y-57912000D03*
%TO.P,JP1,2*%
%TO.N,Net-(JP1-Pad2)*%
X115697000Y-55372000D03*
D13*
%TO.P,JP1,1*%
%TO.N,Net-(JP1-Pad1)*%
X115697000Y-52832000D03*
%TD*%
D11*
%TO.P,C6,2*%
%TO.N,+5V*%
X138129000Y-55880000D03*
%TO.P,C6,1*%
%TO.N,GND*%
X143129000Y-55880000D03*
%TD*%
%TO.P,C4,2*%
%TO.N,+5V*%
X89234000Y-78105000D03*
%TO.P,C4,1*%
%TO.N,GND*%
X94234000Y-78105000D03*
%TD*%
%TO.P,C2,2*%
%TO.N,GND*%
X154305000Y-42886000D03*
D14*
%TO.P,C2,1*%
%TO.N,+5V*%
X154305000Y-40386000D03*
%TD*%
D11*
%TO.P,C1,2*%
%TO.N,Net-(C1-Pad2)*%
X111119000Y-45760000D03*
%TO.P,C1,1*%
%TO.N,Net-(C1-Pad1)*%
X111119000Y-50760000D03*
%TD*%
D19*
%TO.N,+5V*%
X142367000Y-112522000D03*
X168783000Y-112522000D03*
X164084000Y-112522000D03*
X87249000Y-91821000D03*
X163322000Y-132969000D03*
X182372000Y-127254000D03*
X182372000Y-132969000D03*
%TO.N,GND*%
X84709000Y-98552000D03*
X84582000Y-114427000D03*
X112268000Y-125984000D03*
X109728000Y-125984000D03*
X107061000Y-125984000D03*
X107061000Y-128651000D03*
X109728000Y-128651000D03*
X112268000Y-128651000D03*
X108331000Y-125984000D03*
X111125000Y-125984000D03*
X111125000Y-128651000D03*
X108331000Y-128651000D03*
X125539500Y-58864500D03*
X86360000Y-82550000D03*
X86360000Y-80010000D03*
X86360000Y-63881000D03*
X84709000Y-105620000D03*
X87319000Y-128760000D03*
X86819000Y-116260000D03*
X127381000Y-87376000D03*
X127381000Y-73660000D03*
X127381000Y-97536000D03*
%TO.N,-RESET*%
X117713000Y-59960000D03*
X186174999Y-42029999D03*
X155575000Y-44704000D03*
X117228990Y-122420010D03*
%TO.N,-HALT*%
X122047000Y-62230000D03*
%TO.N,-NMI*%
X123317000Y-77978000D03*
X155194000Y-115316000D03*
X127127000Y-115316000D03*
%TO.N,-INT*%
X124814999Y-75972001D03*
X130175000Y-75946000D03*
%TO.N,-WAIT*%
X127127000Y-127254000D03*
%TO.N,D5v*%
X102489000Y-130302000D03*
X102489000Y-128270000D03*
%TO.N,-MREQv*%
X142367000Y-100584000D03*
X125603000Y-100584000D03*
X125603000Y-65278000D03*
X112179000Y-59220000D03*
X186055000Y-43180000D03*
X186055000Y-65278000D03*
D20*
%TO.N,PHI*%
X82719000Y-44760000D03*
D19*
X211074000Y-41656000D03*
X87701000Y-44760000D03*
X211843001Y-100322999D03*
X212979000Y-36068000D03*
D20*
%TO.N,A15v*%
X84319000Y-80760000D03*
X84319000Y-54960000D03*
D19*
X95805000Y-81360000D03*
X95631000Y-88646000D03*
X109639000Y-88684000D03*
D20*
%TO.N,A12v*%
X82119000Y-85560000D03*
D19*
X99530000Y-87668000D03*
D20*
%TO.N,-RDv*%
X93119000Y-67160000D03*
D19*
X146431000Y-68072000D03*
X187071000Y-40640000D03*
X187071000Y-67754500D03*
X197485000Y-106807000D03*
X197485000Y-101854000D03*
%TO.N,-WRv*%
X126365000Y-63754000D03*
X152019000Y-63500000D03*
X126365000Y-94361000D03*
X160020000Y-94361000D03*
X160274000Y-105410000D03*
X176022000Y-105283000D03*
%TO.N,A10v*%
X78359000Y-93980000D03*
D20*
%TO.N,A11v*%
X84209000Y-82870000D03*
X84319000Y-94960000D03*
D19*
%TO.N,D1v*%
X85725000Y-90424000D03*
X85725000Y-121666000D03*
X85725000Y-101854000D03*
X94399000Y-121501000D03*
%TO.N,A7v*%
X109601000Y-103378000D03*
D20*
%TO.N,A8v*%
X81661000Y-105730000D03*
X81661000Y-89230000D03*
D19*
%TO.N,A3v*%
X97782000Y-111260000D03*
D20*
%TO.N,A0v*%
X91729000Y-113350000D03*
D19*
X97089000Y-113350000D03*
X142367000Y-125476000D03*
%TO.N,D2v*%
X83319000Y-121760000D03*
X95758000Y-120396000D03*
X95758000Y-104902000D03*
X118629999Y-95111001D03*
X118629999Y-104890001D03*
%TO.N,D7v*%
X114173000Y-128270000D03*
X114173000Y-130175000D03*
%TO.N,D0v*%
X91859000Y-122009000D03*
X100774500Y-121475500D03*
X105709001Y-106344001D03*
X112268000Y-103378000D03*
X112268000Y-106299000D03*
%TO.N,-BUSAK*%
X90551000Y-63500000D03*
X118745000Y-62992000D03*
X120269000Y-64516000D03*
X164973000Y-45720000D03*
X157099000Y-63500000D03*
X164973000Y-54356000D03*
%TO.N,A9v*%
X85344000Y-88265000D03*
X85344000Y-52070000D03*
%TO.N,A13*%
X157607000Y-104267000D03*
X162687000Y-104267000D03*
X157607000Y-83820000D03*
D20*
%TO.N,-RFSHv*%
X102319000Y-59960000D03*
%TO.N,-IORQv*%
X109493999Y-61185001D03*
D19*
X163449000Y-55880000D03*
X160274000Y-62230000D03*
D20*
%TO.N,A14v*%
X76719000Y-96760000D03*
D19*
%TO.N,A6v*%
X107099000Y-104051000D03*
%TO.N,A2v*%
X96647000Y-112141000D03*
%TO.N,D4v*%
X84455000Y-124124000D03*
X100711000Y-128270000D03*
X100711000Y-130302000D03*
%TO.N,D3v*%
X81819000Y-120760000D03*
X99441000Y-120142000D03*
X100711000Y-112268000D03*
X125857000Y-112268000D03*
X123190000Y-96647000D03*
%TO.N,D6v*%
X105537000Y-128270000D03*
X105537000Y-130302000D03*
%TO.N,D0*%
X134747000Y-112268000D03*
X138303000Y-112268000D03*
%TO.N,D1*%
X132207000Y-113538000D03*
X136086999Y-113468001D03*
%TO.N,D2*%
X139827000Y-114300000D03*
X133477000Y-114427000D03*
%TO.N,D3*%
X149987000Y-119888000D03*
X131064000Y-119888000D03*
%TO.N,D4*%
X152527000Y-117856000D03*
X132207000Y-106045000D03*
X152527000Y-106045000D03*
%TO.N,D5*%
X147447000Y-117602000D03*
X134747000Y-105029000D03*
X147193000Y-104902000D03*
%TO.N,D6*%
X144907000Y-117094000D03*
X137287000Y-104140000D03*
X144907000Y-104140000D03*
X137287000Y-77216000D03*
X165107001Y-81907999D03*
X164973000Y-77216000D03*
%TO.N,D7*%
X137225000Y-116140000D03*
X137287000Y-106807000D03*
X139827000Y-106807000D03*
%TO.N,A10*%
X169926000Y-99568000D03*
X144907000Y-99568000D03*
%TO.N,A9*%
X152527000Y-98679000D03*
X170815000Y-98679000D03*
X170815000Y-121666000D03*
%TO.N,A8*%
X155067000Y-97790000D03*
X171577000Y-97790000D03*
X171976999Y-120758001D03*
X97663000Y-78994000D03*
%TO.N,A7*%
X158877000Y-73660000D03*
X173863000Y-58928000D03*
X173863000Y-71564500D03*
%TO.N,A6*%
X156337000Y-119888000D03*
%TO.N,A5*%
X174555001Y-116516001D03*
X175006000Y-114300000D03*
X153866999Y-117532001D03*
%TO.N,A4*%
X151187001Y-114242999D03*
%TO.N,A3*%
X148786999Y-113468001D03*
%TO.N,A1*%
X143567001Y-116147999D03*
%TO.N,A15*%
X110998000Y-110363000D03*
X174879000Y-66675000D03*
X182626000Y-66675000D03*
X182626000Y-52197000D03*
X191516000Y-58801000D03*
X195326000Y-58801000D03*
X157607000Y-111506000D03*
X166497000Y-111506000D03*
X171746010Y-92286990D03*
X165227000Y-92329000D03*
%TO.N,A14*%
X124079000Y-93472000D03*
X124079000Y-81534000D03*
X160528000Y-70358000D03*
X188976000Y-69723000D03*
%TO.N,A12*%
X160147000Y-84582000D03*
X160147000Y-92964000D03*
X163957000Y-92964000D03*
X167894000Y-83185000D03*
%TO.N,A11*%
X149987000Y-100457000D03*
X166497000Y-100457000D03*
D20*
%TO.N,A13v*%
X83119000Y-84360000D03*
X81913999Y-53754999D03*
D19*
X103124000Y-86868000D03*
%TO.N,CLK*%
X155067000Y-111252000D03*
X103251000Y-111252000D03*
X108331000Y-56642000D03*
X96393000Y-54102000D03*
%TO.N,Net-(U11-Pad6)*%
X197873001Y-49410001D03*
%TO.N,-CS-ROM*%
X165989000Y-74676000D03*
X166377001Y-90797999D03*
X162687000Y-91694000D03*
X142367000Y-74676000D03*
X187706000Y-70104000D03*
%TO.N,IO-Data*%
X100965000Y-68834000D03*
X124294999Y-67779999D03*
X124294999Y-61252001D03*
X153631999Y-61252001D03*
%TO.N,Net-(U13-Pad13)*%
X175394001Y-47109999D03*
X175387000Y-43180000D03*
%TO.N,MREQ\u002A*%
X109639000Y-75222000D03*
X120777000Y-75184000D03*
%TO.N,IORQ\u002A*%
X119507000Y-76962000D03*
X107099000Y-76924000D03*
X119062500Y-72766500D03*
X119507000Y-120777000D03*
%TO.N,RD\u002A*%
X118237000Y-71628000D03*
%TO.N,WR\u002A*%
X120015000Y-69850000D03*
%TO.N,RFSH\u002A*%
X115189000Y-74422000D03*
X115189000Y-126111000D03*
%TO.N,M1\u002A*%
X116205000Y-68580000D03*
X141097000Y-121539000D03*
X175641000Y-118110000D03*
X116205000Y-125222000D03*
%TO.N,-CS-RAM*%
X167894000Y-100584000D03*
X170326999Y-67925001D03*
X178073999Y-67925001D03*
X177165000Y-52070000D03*
X178054000Y-58547000D03*
%TO.N,Net-(JP3-Pad2)*%
X170053000Y-88392000D03*
%TO.N,Net-(JP3-Pad1)*%
X162179000Y-60960000D03*
%TO.N,Net-(JP4-Pad2)*%
X162115500Y-59055000D03*
%TO.N,Net-(JP4-Pad1)*%
X167786999Y-67925001D03*
%TO.N,Net-(J2-Pad3)*%
X211320999Y-72270001D03*
%TO.N,Net-(J3-Pad10)*%
X173736000Y-106553000D03*
X175768000Y-58928000D03*
%TO.N,UART-CS*%
X177165000Y-53340000D03*
X177165000Y-59563000D03*
X181348999Y-117736001D03*
%TO.N,+RESET*%
X212979000Y-111633000D03*
X206248000Y-43434000D03*
X214503000Y-43434000D03*
%TO.N,RTS*%
X212725000Y-106553000D03*
%TO.N,TXD*%
X213106000Y-116586000D03*
%TO.N,RXD*%
X203327000Y-83566000D03*
%TO.N,BAUD*%
X209677000Y-101473000D03*
%TO.N,Net-(J2-Pad4)*%
X216598500Y-69405500D03*
%TD*%
D21*
%TO.N,+5V*%
X89199000Y-116140000D02*
X89319000Y-116140000D01*
X89319000Y-72760000D02*
X89319000Y-65140000D01*
X137143000Y-52512000D02*
X137143000Y-49972000D01*
D22*
X74819000Y-123510000D02*
X79899000Y-123510000D01*
D21*
X131803000Y-40512000D02*
X133095000Y-40512000D01*
X134163000Y-41580000D02*
X134163000Y-44912000D01*
X133095000Y-40512000D02*
X134163000Y-41580000D01*
X137143000Y-54386000D02*
X138383000Y-55626000D01*
X137143000Y-52512000D02*
X137143000Y-54386000D01*
D23*
X128387000Y-40512000D02*
X128339000Y-40560000D01*
D22*
X131803000Y-40512000D02*
X134469000Y-37846000D01*
D21*
X154305000Y-39878000D02*
X154305000Y-40386000D01*
D22*
X152273000Y-37846000D02*
X154305000Y-39878000D01*
X89281000Y-50546000D02*
X89281000Y-54610000D01*
X90431000Y-55760000D02*
X92499000Y-55760000D01*
X89281000Y-54610000D02*
X90431000Y-55760000D01*
D21*
X89319000Y-56872000D02*
X90431000Y-55760000D01*
X89319000Y-65140000D02*
X89319000Y-56872000D01*
X89319000Y-78020000D02*
X89234000Y-78105000D01*
X89319000Y-72760000D02*
X89319000Y-78020000D01*
X89234000Y-83055000D02*
X89319000Y-83140000D01*
X89234000Y-78105000D02*
X89234000Y-83055000D01*
X89319000Y-83140000D02*
X87675000Y-83140000D01*
X87675000Y-83140000D02*
X87249000Y-83566000D01*
X87249000Y-114070000D02*
X89319000Y-116140000D01*
X87305000Y-100640000D02*
X87249000Y-100584000D01*
X89319000Y-100640000D02*
X87305000Y-100640000D01*
X87249000Y-100584000D02*
X87249000Y-114070000D01*
X87249000Y-83566000D02*
X87249000Y-91821000D01*
D22*
X162687000Y-66548000D02*
X162687000Y-81788000D01*
X85979000Y-45466000D02*
X85979000Y-46148000D01*
X82804000Y-42291000D02*
X85979000Y-45466000D01*
X81026000Y-42291000D02*
X81026000Y-40259000D01*
X81026000Y-42291000D02*
X82804000Y-42291000D01*
D23*
X142367000Y-112522000D02*
X142367000Y-112522000D01*
D24*
X142367000Y-112522000D02*
X142367000Y-120650000D01*
X143706999Y-127751999D02*
X143971000Y-128016000D01*
X143706999Y-121989999D02*
X143706999Y-127751999D01*
X142367000Y-120650000D02*
X143706999Y-121989999D01*
D22*
X154305000Y-40386000D02*
X154305000Y-39624000D01*
X154305000Y-39624000D02*
X156083000Y-37846000D01*
X168021000Y-38608000D02*
X168783000Y-37846000D01*
X168021000Y-40640000D02*
X168021000Y-38608000D01*
X156083000Y-37846000D02*
X168783000Y-37846000D01*
X179705000Y-40640000D02*
X179705000Y-38100000D01*
X179705000Y-38100000D02*
X179451000Y-37846000D01*
X168783000Y-37846000D02*
X179451000Y-37846000D01*
X191643000Y-38100000D02*
X191389000Y-37846000D01*
X191643000Y-40640000D02*
X191643000Y-38100000D01*
X179451000Y-37846000D02*
X191389000Y-37846000D01*
X203327000Y-38354000D02*
X202819000Y-37846000D01*
X203327000Y-40640000D02*
X203327000Y-38354000D01*
D21*
X138129000Y-55880000D02*
X138129000Y-57738000D01*
X139319000Y-58928000D02*
X143129000Y-58928000D01*
X138129000Y-57738000D02*
X139319000Y-58928000D01*
D22*
X145542000Y-58928000D02*
X145669000Y-59055000D01*
X143129000Y-58928000D02*
X145542000Y-58928000D01*
X145669000Y-55880000D02*
X145669000Y-59055000D01*
D21*
X138129000Y-55880000D02*
X138129000Y-62945000D01*
X138129000Y-62945000D02*
X139954000Y-64770000D01*
X139954000Y-64770000D02*
X162179000Y-64770000D01*
X162687000Y-65278000D02*
X162687000Y-66548000D01*
X162179000Y-64770000D02*
X162687000Y-65278000D01*
D22*
X73660000Y-42291000D02*
X81026000Y-42291000D01*
X71755000Y-44196000D02*
X73660000Y-42291000D01*
X71755000Y-122428000D02*
X71755000Y-44196000D01*
X74819000Y-123510000D02*
X72837000Y-123510000D01*
X72837000Y-123510000D02*
X71755000Y-122428000D01*
D24*
X167767000Y-102616000D02*
X169325990Y-104174990D01*
X169325990Y-104174990D02*
X169325990Y-111852010D01*
X169325990Y-111852010D02*
X168783000Y-112395000D01*
X163703000Y-128016000D02*
X163703000Y-125730000D01*
X163703000Y-125730000D02*
X163957000Y-125476000D01*
X163957000Y-112649000D02*
X164084000Y-112522000D01*
X163957000Y-125476000D02*
X163957000Y-112649000D01*
D21*
X87249000Y-91821000D02*
X87249000Y-100584000D01*
D22*
X212979000Y-63500000D02*
X212979000Y-40005000D01*
X212979000Y-40005000D02*
X210820000Y-37846000D01*
D21*
X208915000Y-38100000D02*
X209169000Y-37846000D01*
D22*
X209169000Y-37846000D02*
X202819000Y-37846000D01*
D21*
X208915000Y-40720000D02*
X208915000Y-38100000D01*
D22*
X210820000Y-37846000D02*
X209169000Y-37846000D01*
D23*
X142367000Y-108458000D02*
X142367000Y-112522000D01*
D22*
X201041000Y-37846000D02*
X202819000Y-37846000D01*
X191389000Y-37846000D02*
X201041000Y-37846000D01*
D21*
X201041000Y-57531000D02*
X191135000Y-67437000D01*
X201041000Y-37846000D02*
X201041000Y-57531000D01*
X216615000Y-98853000D02*
X216535000Y-98933000D01*
X219456000Y-98853000D02*
X216615000Y-98853000D01*
X191135000Y-69977000D02*
X191135000Y-67437000D01*
X186309000Y-74803000D02*
X191135000Y-69977000D01*
D22*
X125752000Y-37973000D02*
X128339000Y-40560000D01*
X125752000Y-37973000D02*
X90297000Y-37973000D01*
X89281000Y-38989000D02*
X89281000Y-47752000D01*
X90297000Y-37973000D02*
X89281000Y-38989000D01*
X88980000Y-49149000D02*
X89281000Y-49149000D01*
X85979000Y-46148000D02*
X88980000Y-49149000D01*
X89281000Y-49149000D02*
X89281000Y-50546000D01*
X89281000Y-47752000D02*
X89281000Y-49149000D01*
D23*
X163595999Y-127996001D02*
X163449000Y-128143000D01*
D22*
X139700000Y-128016000D02*
X143717000Y-128016000D01*
D23*
X163322000Y-128270000D02*
X163449000Y-128143000D01*
X186309000Y-108966000D02*
X184658000Y-108966000D01*
X184658000Y-108966000D02*
X182372000Y-111252000D01*
X182372000Y-111252000D02*
X182372000Y-127254000D01*
X182372000Y-127254000D02*
X182372000Y-127254000D01*
D21*
X79899000Y-123510000D02*
X79899000Y-128286000D01*
X84582000Y-132969000D02*
X163322000Y-132969000D01*
X79899000Y-128286000D02*
X84582000Y-132969000D01*
X163322000Y-132969000D02*
X217932000Y-132969000D01*
X219456000Y-131445000D02*
X217932000Y-132969000D01*
X219456000Y-98853000D02*
X219456000Y-131445000D01*
D22*
X138129000Y-55880000D02*
X139573000Y-54436000D01*
X139573000Y-38354000D02*
X140081000Y-37846000D01*
X139573000Y-54436000D02*
X139573000Y-38354000D01*
X140081000Y-37846000D02*
X152273000Y-37846000D01*
X134469000Y-37846000D02*
X140081000Y-37846000D01*
D23*
%TO.N,GND*%
X149963000Y-49712000D02*
X152763000Y-52512000D01*
X149963000Y-48212000D02*
X149963000Y-49712000D01*
D21*
X91859000Y-83140000D02*
X91859000Y-79972000D01*
X93726000Y-78105000D02*
X94234000Y-78105000D01*
X91859000Y-79972000D02*
X93726000Y-78105000D01*
D24*
X91859000Y-100640000D02*
X91859000Y-104610000D01*
X90658999Y-105810001D02*
X90658999Y-114153999D01*
X91859000Y-104610000D02*
X90658999Y-105810001D01*
X91859000Y-115354000D02*
X91859000Y-116140000D01*
X90658999Y-114153999D02*
X91859000Y-115354000D01*
D21*
X112179000Y-90760000D02*
X112179000Y-95034000D01*
X113929001Y-106509999D02*
X112179000Y-108260000D01*
X113929001Y-96784001D02*
X113929001Y-106509999D01*
X112179000Y-95034000D02*
X113929001Y-96784001D01*
X112179000Y-123660000D02*
X112179000Y-123760000D01*
X114173000Y-121666000D02*
X112179000Y-123660000D01*
X114173000Y-110998000D02*
X114173000Y-121666000D01*
X112179000Y-109004000D02*
X114173000Y-110998000D01*
X112179000Y-108260000D02*
X112179000Y-109004000D01*
D23*
X107061000Y-126111000D02*
X107061000Y-128651000D01*
X109728000Y-126111000D02*
X109728000Y-128651000D01*
X112268000Y-126111000D02*
X112268000Y-128651000D01*
X108331000Y-125984000D02*
X108331000Y-128651000D01*
X111125000Y-128524000D02*
X110998000Y-128651000D01*
X111125000Y-125984000D02*
X111125000Y-128524000D01*
D21*
X120719000Y-55800000D02*
X122475000Y-55800000D01*
X122475000Y-55800000D02*
X125539500Y-58864500D01*
D24*
X86360000Y-80010000D02*
X86360000Y-82550000D01*
X86360000Y-80010000D02*
X86360000Y-63881000D01*
X86360000Y-63881000D02*
X86360000Y-63881000D01*
D23*
X86319000Y-123260000D02*
X86319000Y-126010000D01*
X86819000Y-122760000D02*
X86319000Y-123260000D01*
X87319000Y-127010000D02*
X87319000Y-128760000D01*
X86319000Y-126010000D02*
X87319000Y-127010000D01*
X86819000Y-116260000D02*
X86819000Y-122760000D01*
X84709000Y-114300000D02*
X84582000Y-114427000D01*
X84709000Y-105620000D02*
X84709000Y-114300000D01*
X84709000Y-98552000D02*
X84709000Y-105620000D01*
D24*
X127381000Y-73660000D02*
X127381000Y-87376000D01*
X127381000Y-87376000D02*
X127381000Y-97536000D01*
D21*
X125539500Y-58864500D02*
X129667000Y-62992000D01*
X129667000Y-62992000D02*
X129667000Y-66548000D01*
X112179000Y-72760000D02*
X112179000Y-74460000D01*
X112179000Y-74460000D02*
X114173000Y-76454000D01*
X114173000Y-76454000D02*
X114173000Y-88646000D01*
X112179000Y-90640000D02*
X112179000Y-90760000D01*
X114173000Y-88646000D02*
X112179000Y-90640000D01*
D25*
%TO.N,-RESET*%
X117228990Y-60952010D02*
X117983000Y-60198000D01*
X186174999Y-42029999D02*
X158249001Y-42029999D01*
X158249001Y-42029999D02*
X156591000Y-43688000D01*
X156591000Y-43688000D02*
X155575000Y-44704000D01*
X155575000Y-44704000D02*
X155575000Y-44704000D01*
X117228990Y-122420010D02*
X117228990Y-60952010D01*
D26*
%TO.N,-HALT*%
X79999000Y-62650000D02*
X79899000Y-62550000D01*
D25*
X124587000Y-108458000D02*
X124587000Y-106934000D01*
X124587000Y-106934000D02*
X122047000Y-104394000D01*
X122047000Y-104394000D02*
X122047000Y-62738000D01*
X122047000Y-62738000D02*
X122047000Y-62738000D01*
X122047000Y-62738000D02*
X122047000Y-62230000D01*
X122047000Y-62230000D02*
X122047000Y-62230000D01*
%TO.N,-NMI*%
X127127000Y-107696000D02*
X127127000Y-108458000D01*
X123317000Y-77978000D02*
X123317000Y-77978000D01*
X123317000Y-77978000D02*
X123317000Y-81026000D01*
X123317000Y-80264000D02*
X123317000Y-81026000D01*
X153677001Y-127881999D02*
X154058001Y-127881999D01*
X153543000Y-128016000D02*
X153677001Y-127881999D01*
X156217001Y-123197001D02*
X155194000Y-122174000D01*
X156217001Y-125722999D02*
X156217001Y-123197001D01*
X154058001Y-127881999D02*
X156217001Y-125722999D01*
X155194000Y-122174000D02*
X155194000Y-115316000D01*
X155194000Y-115316000D02*
X155194000Y-115316000D01*
X127127000Y-108458000D02*
X127127000Y-115316000D01*
X127127000Y-107188000D02*
X127127000Y-108458000D01*
X124079000Y-104140000D02*
X127127000Y-107188000D01*
X124079000Y-94869000D02*
X124079000Y-104140000D01*
X123317000Y-94107000D02*
X124079000Y-94869000D01*
X123317000Y-81026000D02*
X123317000Y-94107000D01*
%TO.N,-INT*%
X124841000Y-77724000D02*
X124841000Y-77724000D01*
X124841000Y-75998002D02*
X124814999Y-75972001D01*
X124841000Y-103632000D02*
X124841000Y-75998002D01*
X129667000Y-108458000D02*
X124841000Y-103632000D01*
D24*
X132969000Y-58928000D02*
X132969000Y-60198000D01*
X131006999Y-62160001D02*
X131006999Y-73844001D01*
X132969000Y-60198000D02*
X131006999Y-62160001D01*
X131006999Y-73844001D02*
X130175000Y-74676000D01*
X130175000Y-74676000D02*
X130175000Y-75946000D01*
X130175000Y-75946000D02*
X130175000Y-75946000D01*
D26*
%TO.N,-BUSRQ*%
X74889002Y-98110000D02*
X74819000Y-98110000D01*
D24*
X129667000Y-123698000D02*
X129667000Y-128270000D01*
%TO.N,-WAIT*%
X127127000Y-123698000D02*
X127127000Y-127254000D01*
D25*
%TO.N,D5v*%
X102489000Y-130302000D02*
X102489000Y-130302000D01*
X102489000Y-128270000D02*
X102489000Y-128270000D01*
X102489000Y-128270000D02*
X102489000Y-127000000D01*
X104559000Y-124930000D02*
X104559000Y-123760000D01*
X102489000Y-127000000D02*
X104559000Y-124930000D01*
X103632000Y-131445000D02*
X102489000Y-130302000D01*
X104374011Y-131425011D02*
X104354022Y-131445000D01*
X138322989Y-131425011D02*
X104374011Y-131425011D01*
X138938000Y-130810000D02*
X138322989Y-131425011D01*
X204288120Y-130810000D02*
X138938000Y-130810000D01*
X104354022Y-131445000D02*
X103632000Y-131445000D01*
X206121000Y-109728000D02*
X206121000Y-128977120D01*
X202946000Y-106553000D02*
X206121000Y-109728000D01*
X206121000Y-128977120D02*
X204288120Y-130810000D01*
X201295000Y-106553000D02*
X202946000Y-106553000D01*
%TO.N,-MREQv*%
X142367000Y-102616000D02*
X142367000Y-100584000D01*
X142367000Y-100584000D02*
X142367000Y-100584000D01*
X125603000Y-100584000D02*
X125603000Y-65278000D01*
X125603000Y-65278000D02*
X125603000Y-65278000D01*
D24*
X112179000Y-65140000D02*
X112179000Y-59220000D01*
X112179000Y-59220000D02*
X112179000Y-59220000D01*
D25*
X186055000Y-43180000D02*
X186055000Y-65278000D01*
D24*
%TO.N,PHI*%
X79899000Y-52390000D02*
X81289000Y-52390000D01*
X81289000Y-52390000D02*
X82719000Y-50960000D01*
X82719000Y-50960000D02*
X82719000Y-44760000D01*
X82719000Y-44760000D02*
X82719000Y-44760000D01*
D25*
X211074000Y-62372831D02*
X211074000Y-41656000D01*
X211074000Y-41656000D02*
X211074000Y-41656000D01*
X211074000Y-41656000D02*
X211074000Y-41656000D01*
X87701000Y-37013000D02*
X87701000Y-44760000D01*
X88646000Y-36068000D02*
X87701000Y-37013000D01*
X211074000Y-36068000D02*
X88646000Y-36068000D01*
X208788000Y-64658831D02*
X208788000Y-67056000D01*
X211074000Y-62372831D02*
X208788000Y-64658831D01*
X211074000Y-36068000D02*
X212979000Y-36068000D01*
X212979000Y-36068000D02*
X213233000Y-36068000D01*
X211843001Y-100322999D02*
X211843001Y-86621001D01*
X211843001Y-86621001D02*
X208788000Y-83566000D01*
X208788000Y-83566000D02*
X208788000Y-66929000D01*
X208788000Y-66929000D02*
X208788000Y-66675000D01*
X208788000Y-67056000D02*
X208788000Y-66929000D01*
D24*
%TO.N,A15v*%
X84319000Y-80760000D02*
X84319000Y-54960000D01*
X84319000Y-54960000D02*
X84319000Y-54960000D01*
X95805000Y-82497998D02*
X95631000Y-82671998D01*
X95805000Y-81360000D02*
X95805000Y-82497998D01*
X95631000Y-82671998D02*
X95631000Y-88646000D01*
X95631000Y-88646000D02*
X95631000Y-88646000D01*
X109639000Y-90760000D02*
X109639000Y-88684000D01*
X109639000Y-88684000D02*
X109639000Y-88684000D01*
%TO.N,A12v*%
X82119000Y-85560000D02*
X82119000Y-58160000D01*
X81429000Y-57470000D02*
X79899000Y-57470000D01*
X82119000Y-58160000D02*
X81429000Y-57470000D01*
D26*
X99530000Y-87668000D02*
X100241000Y-87668000D01*
X102019000Y-89446000D02*
X102019000Y-90760000D01*
X100241000Y-87668000D02*
X102019000Y-89446000D01*
D24*
%TO.N,-RDv*%
X107099000Y-66380000D02*
X107099000Y-66180000D01*
X93119000Y-67160000D02*
X93119000Y-67160000D01*
X107099000Y-66180000D02*
X107099000Y-65140000D01*
X106319000Y-67160000D02*
X107099000Y-66380000D01*
X99119000Y-67160000D02*
X106119000Y-67160000D01*
X99119000Y-67160000D02*
X93119000Y-67160000D01*
D25*
X147447000Y-81788000D02*
X147447000Y-69088000D01*
X147447000Y-69088000D02*
X146431000Y-68072000D01*
X146431000Y-68072000D02*
X146431000Y-68072000D01*
X146431000Y-68072000D02*
X146431000Y-68072000D01*
X187071000Y-40640000D02*
X187071000Y-65372002D01*
X187071000Y-65372002D02*
X187071000Y-67754500D01*
X187071000Y-67754500D02*
X186118500Y-67754500D01*
X186118500Y-67754500D02*
X184150000Y-69723000D01*
X184150000Y-69723000D02*
X184150000Y-95250000D01*
X184150000Y-95250000D02*
X185420000Y-96520000D01*
X185420000Y-96520000D02*
X185420000Y-101219000D01*
X185420000Y-101219000D02*
X186055000Y-101854000D01*
X201295000Y-124333000D02*
X199136000Y-124333000D01*
X199136000Y-124333000D02*
X198882000Y-124333000D01*
X198882000Y-124333000D02*
X197485000Y-122936000D01*
X197485000Y-122936000D02*
X197485000Y-106807000D01*
X197485000Y-106807000D02*
X197485000Y-106807000D01*
X186055000Y-101854000D02*
X192405000Y-101854000D01*
X192405000Y-101854000D02*
X197485000Y-101854000D01*
X197485000Y-101854000D02*
X197485000Y-101854000D01*
%TO.N,-WRv*%
X126365000Y-63754000D02*
X126365000Y-63754000D01*
X160401000Y-43180000D02*
X159004000Y-43180000D01*
X159004000Y-43180000D02*
X155194000Y-46990000D01*
X155194000Y-46990000D02*
X155194000Y-52632880D01*
X155194000Y-52632880D02*
X152019000Y-55807880D01*
X152019000Y-55807880D02*
X152019000Y-55807880D01*
X152019000Y-55807880D02*
X152019000Y-62230000D01*
X152019000Y-62230000D02*
X152019000Y-63500000D01*
X126365000Y-94361000D02*
X126365000Y-63754000D01*
X160020000Y-102489000D02*
X160147000Y-102616000D01*
X160020000Y-94361000D02*
X160020000Y-102489000D01*
X160147000Y-102616000D02*
X160147000Y-105283000D01*
X160147000Y-105283000D02*
X160274000Y-105410000D01*
X160274000Y-105410000D02*
X160274000Y-105410000D01*
X199517000Y-116713000D02*
X201295000Y-116713000D01*
X198755000Y-115951000D02*
X199517000Y-116713000D01*
X198755000Y-106172000D02*
X198755000Y-115951000D01*
X197866000Y-105283000D02*
X198755000Y-106172000D01*
X176022000Y-105283000D02*
X197866000Y-105283000D01*
D24*
%TO.N,A10v*%
X78359000Y-93980000D02*
X78359000Y-81280000D01*
X79309000Y-80330000D02*
X79899000Y-80330000D01*
X78359000Y-81280000D02*
X79309000Y-80330000D01*
%TO.N,A11v*%
X84209000Y-94850000D02*
X84319000Y-94960000D01*
X84209000Y-82870000D02*
X84209000Y-94850000D01*
%TO.N,D1v*%
X85725000Y-90424000D02*
X85725000Y-90424000D01*
X85725000Y-90424000D02*
X85725000Y-101854000D01*
X85725000Y-121666000D02*
X85725000Y-121666000D01*
X85725000Y-101854000D02*
X85725000Y-121666000D01*
D25*
X94399000Y-123760000D02*
X94399000Y-121501000D01*
D24*
%TO.N,A7v*%
X109601000Y-108222000D02*
X109639000Y-108260000D01*
X109601000Y-103378000D02*
X109601000Y-108222000D01*
D26*
%TO.N,A8v*%
X81819000Y-105700000D02*
X81789000Y-105730000D01*
D25*
X81661000Y-105730000D02*
X81661000Y-89230000D01*
D24*
X81789000Y-89230000D02*
X81789000Y-89230000D01*
%TO.N,A3v*%
X99319000Y-108420000D02*
X99479000Y-108260000D01*
D25*
X97782000Y-111260000D02*
X99568000Y-109474000D01*
X99479000Y-109385000D02*
X99479000Y-108260000D01*
X99568000Y-109474000D02*
X99479000Y-109385000D01*
D24*
%TO.N,A0v*%
X91729000Y-108390000D02*
X91859000Y-108260000D01*
X91729000Y-113350000D02*
X91729000Y-108390000D01*
D25*
X98166000Y-114427000D02*
X98166000Y-128392000D01*
X97089000Y-113350000D02*
X98166000Y-114427000D01*
X142367000Y-125476000D02*
X138811000Y-125476000D01*
X105219500Y-129349500D02*
X105283000Y-129413000D01*
X134874000Y-129413000D02*
X135064500Y-129222500D01*
X105283000Y-129413000D02*
X134874000Y-129413000D01*
X135064500Y-129222500D02*
X135001000Y-129286000D01*
X138811000Y-125476000D02*
X135064500Y-129222500D01*
X99187000Y-129413000D02*
X98166000Y-128392000D01*
X105283000Y-129413000D02*
X99187000Y-129413000D01*
D24*
%TO.N,D2v*%
X79899000Y-115890000D02*
X82449000Y-115890000D01*
X82449000Y-115890000D02*
X83319000Y-116760000D01*
X83319000Y-116760000D02*
X83319000Y-117260000D01*
X83319000Y-117260000D02*
X83319000Y-117260000D01*
X83319000Y-117260000D02*
X83319000Y-121760000D01*
X83319000Y-121760000D02*
X83319000Y-121760000D01*
D25*
X95758000Y-120396000D02*
X95758000Y-104902000D01*
X95758000Y-104902000D02*
X95758000Y-104902000D01*
X118629999Y-95111001D02*
X118629999Y-104890001D01*
X118629999Y-104890001D02*
X118629999Y-104890001D01*
X95758000Y-120396000D02*
X96393000Y-120396000D01*
X96939000Y-120942000D02*
X96939000Y-123760000D01*
X96393000Y-120396000D02*
X96939000Y-120942000D01*
D24*
%TO.N,D7v*%
X80229000Y-118760000D02*
X79899000Y-118430000D01*
D25*
X109639000Y-123760000D02*
X110974000Y-125095000D01*
X110974000Y-125095000D02*
X113284000Y-125095000D01*
X113284000Y-125095000D02*
X114173000Y-125984000D01*
X114173000Y-125984000D02*
X114173000Y-128270000D01*
X114173000Y-128270000D02*
X114173000Y-128270000D01*
X204216000Y-112776000D02*
X203073000Y-111633000D01*
X203073000Y-111633000D02*
X201295000Y-111633000D01*
X204216000Y-128397000D02*
X204216000Y-112776000D01*
X203073000Y-129540000D02*
X204216000Y-128397000D01*
X137613120Y-129540000D02*
X203073000Y-129540000D01*
X136978120Y-130175000D02*
X137613120Y-129540000D01*
X114173000Y-130175000D02*
X136978120Y-130175000D01*
%TO.N,D0v*%
X91859000Y-123760000D02*
X91859000Y-122009000D01*
X91859000Y-122009000D02*
X91859000Y-122009000D01*
X100774500Y-121475500D02*
X103251000Y-118999000D01*
X103251000Y-118999000D02*
X103251000Y-113919000D01*
X105709001Y-111460999D02*
X105709001Y-106344001D01*
X103251000Y-113919000D02*
X105709001Y-111460999D01*
X105709001Y-106344001D02*
X105709001Y-106344001D01*
X112268000Y-103378000D02*
X112268000Y-106299000D01*
X112268000Y-106299000D02*
X112268000Y-106299000D01*
%TO.N,-BUSAK*%
X124587000Y-123698000D02*
X124587000Y-112014000D01*
X121546990Y-104601110D02*
X121546990Y-65793990D01*
X123197001Y-106251121D02*
X121546990Y-104601110D01*
X123197001Y-110624001D02*
X123197001Y-106251121D01*
X124587000Y-112014000D02*
X123197001Y-110624001D01*
X121546990Y-65793990D02*
X120269000Y-64516000D01*
X119253000Y-63500000D02*
X119253000Y-63500000D01*
X94107000Y-54828000D02*
X92499000Y-53220000D01*
X94107000Y-59944000D02*
X94107000Y-54828000D01*
X90551000Y-63500000D02*
X94107000Y-59944000D01*
X119253000Y-63500000D02*
X118999000Y-63246000D01*
X118999000Y-63246000D02*
X118745000Y-62992000D01*
X118745000Y-62992000D02*
X118745000Y-62992000D01*
X120269000Y-64516000D02*
X119253000Y-63500000D01*
X168021000Y-45720000D02*
X164973000Y-45720000D01*
X164973000Y-45720000D02*
X164973000Y-45720000D01*
X168021000Y-45720000D02*
X169545000Y-45720000D01*
X170695001Y-44569999D02*
X181094999Y-44569999D01*
X169545000Y-45720000D02*
X170695001Y-44569999D01*
X181094999Y-44569999D02*
X181483000Y-44958000D01*
X181483000Y-49022000D02*
X179705000Y-50800000D01*
X181483000Y-44958000D02*
X181483000Y-49022000D01*
D24*
X164973000Y-54356000D02*
X164719000Y-54610000D01*
X164719000Y-54610000D02*
X159639000Y-54610000D01*
X159639000Y-54610000D02*
X157734000Y-56515000D01*
X157734000Y-62865000D02*
X157099000Y-63500000D01*
X157734000Y-56515000D02*
X157734000Y-62865000D01*
%TO.N,A9v*%
X74819000Y-49850000D02*
X75209000Y-49850000D01*
X85344000Y-88265000D02*
X85344000Y-52070000D01*
X85344000Y-52070000D02*
X85344000Y-52070000D01*
%TO.N,A13*%
X157607000Y-102616000D02*
X157607000Y-104267000D01*
X157607000Y-104267000D02*
X157607000Y-104267000D01*
X162687000Y-104267000D02*
X162687000Y-108458000D01*
X156267001Y-87952001D02*
X156267001Y-86376543D01*
X157607000Y-89292000D02*
X156267001Y-87952001D01*
X156267001Y-86376543D02*
X157607000Y-85036544D01*
X157607000Y-102616000D02*
X157607000Y-89292000D01*
X157607000Y-85036544D02*
X157607000Y-83820000D01*
X157607000Y-83820000D02*
X157607000Y-83820000D01*
%TO.N,-RFSHv*%
X102319000Y-64840000D02*
X102019000Y-65140000D01*
X102319000Y-59960000D02*
X102319000Y-64840000D01*
%TO.N,-IORQv*%
X109493999Y-64994999D02*
X109639000Y-65140000D01*
X109493999Y-61185001D02*
X109493999Y-64994999D01*
D25*
X160274000Y-59055000D02*
X160274000Y-62230000D01*
X163449000Y-55880000D02*
X160274000Y-59055000D01*
D24*
%TO.N,A14v*%
X74819000Y-80330000D02*
X75289000Y-80330000D01*
X76719000Y-81760000D02*
X76719000Y-96760000D01*
X75289000Y-80330000D02*
X76719000Y-81760000D01*
%TO.N,A6v*%
X107061000Y-108222000D02*
X107099000Y-108260000D01*
D25*
X107099000Y-108260000D02*
X107099000Y-104051000D01*
X107099000Y-104051000D02*
X107099000Y-104051000D01*
D24*
%TO.N,A2v*%
X96819000Y-108380000D02*
X96939000Y-108260000D01*
D25*
X96647000Y-112141000D02*
X96647000Y-109728000D01*
X96939000Y-109436000D02*
X96939000Y-108260000D01*
X96647000Y-109728000D02*
X96939000Y-109436000D01*
D24*
%TO.N,D4v*%
X74819000Y-113350000D02*
X76139000Y-113350000D01*
X77503999Y-114714999D02*
X83345999Y-114714999D01*
X76139000Y-113350000D02*
X77503999Y-114714999D01*
X83345999Y-114714999D02*
X84455000Y-115824000D01*
X84455000Y-115824000D02*
X84455000Y-124124000D01*
X101981000Y-123798000D02*
X102019000Y-123760000D01*
D25*
X102019000Y-123760000D02*
X100711000Y-125068000D01*
X100711000Y-125068000D02*
X100711000Y-128270000D01*
X100711000Y-128270000D02*
X100711000Y-128270000D01*
X207264000Y-112776000D02*
X207264000Y-112776000D01*
X204470000Y-104013000D02*
X201295000Y-104013000D01*
X207264000Y-129032000D02*
X207264000Y-106807000D01*
X204851000Y-131445000D02*
X207264000Y-129032000D01*
X139573000Y-131445000D02*
X204851000Y-131445000D01*
X207264000Y-106807000D02*
X204470000Y-104013000D01*
X138938000Y-132080000D02*
X139573000Y-131445000D01*
X102489000Y-132080000D02*
X138938000Y-132080000D01*
X100711000Y-130302000D02*
X102489000Y-132080000D01*
D24*
%TO.N,D3v*%
X81819000Y-120760000D02*
X81819000Y-120760000D01*
X74819000Y-115890000D02*
X76449000Y-115890000D01*
X77813999Y-117254999D02*
X81313999Y-117254999D01*
X76449000Y-115890000D02*
X77813999Y-117254999D01*
X81819000Y-117760000D02*
X81819000Y-120760000D01*
X81313999Y-117254999D02*
X81819000Y-117760000D01*
X81819000Y-120760000D02*
X81819000Y-120760000D01*
D25*
X99441000Y-120142000D02*
X100711000Y-118872000D01*
X100711000Y-118872000D02*
X100711000Y-116713000D01*
X100711000Y-116713000D02*
X100711000Y-112268000D01*
X100711000Y-112268000D02*
X100711000Y-112268000D01*
X123190000Y-96647000D02*
X123190000Y-104140000D01*
X125976999Y-112148001D02*
X125857000Y-112268000D01*
X125976999Y-106926999D02*
X125976999Y-112148001D01*
X123190000Y-104140000D02*
X125976999Y-106926999D01*
X99441000Y-123722000D02*
X99479000Y-123760000D01*
X99441000Y-120142000D02*
X99441000Y-123722000D01*
%TO.N,D6v*%
X107099000Y-123760000D02*
X105537000Y-125322000D01*
X105537000Y-125322000D02*
X105537000Y-128270000D01*
X105537000Y-128270000D02*
X105537000Y-128270000D01*
X204851000Y-111633000D02*
X204851000Y-111633000D01*
X204851000Y-129540000D02*
X204851000Y-110617000D01*
X204216000Y-130175000D02*
X204851000Y-129540000D01*
X204851000Y-110617000D02*
X203327000Y-109093000D01*
X138533002Y-130175000D02*
X204216000Y-130175000D01*
X137783001Y-130925001D02*
X138533002Y-130175000D01*
X106160001Y-130925001D02*
X137783001Y-130925001D01*
X203327000Y-109093000D02*
X201295000Y-109093000D01*
X105537000Y-130302000D02*
X106160001Y-130925001D01*
D24*
%TO.N,D0*%
X134747000Y-112268000D02*
X134747000Y-108458000D01*
X138303000Y-112268000D02*
X138303000Y-112268000D01*
X137287000Y-66548000D02*
X137287000Y-67310000D01*
X138626999Y-68649999D02*
X138626999Y-85274001D01*
X137287000Y-67310000D02*
X138626999Y-68649999D01*
X137287000Y-86614000D02*
X137287000Y-87376000D01*
X138626999Y-85274001D02*
X137287000Y-86614000D01*
X137287000Y-87376000D02*
X137287000Y-88392000D01*
X138487001Y-112083999D02*
X138303000Y-112268000D01*
X138487001Y-89592001D02*
X138487001Y-96843999D01*
X137287000Y-88392000D02*
X138487001Y-89592001D01*
X138487001Y-96843999D02*
X138487001Y-96843999D01*
X138487001Y-96843999D02*
X138487001Y-112083999D01*
%TO.N,D1*%
X132207000Y-108458000D02*
X132207000Y-113538000D01*
X136086999Y-113468001D02*
X136086999Y-113468001D01*
X134747000Y-66548000D02*
X134747000Y-67310000D01*
X136086999Y-68649999D02*
X136086999Y-85528001D01*
X134747000Y-67310000D02*
X136086999Y-68649999D01*
X134747000Y-86868000D02*
X134747000Y-87376000D01*
X136086999Y-85528001D02*
X134747000Y-86868000D01*
D25*
X136086999Y-89847369D02*
X136086999Y-113468001D01*
X134747000Y-88507370D02*
X136086999Y-89847369D01*
X134747000Y-87376000D02*
X134747000Y-88507370D01*
D24*
%TO.N,D2*%
X139827000Y-108458000D02*
X139827000Y-114300000D01*
X132207000Y-66548000D02*
X132207000Y-67564000D01*
X133407001Y-86175999D02*
X132207000Y-87376000D01*
X133407001Y-68764001D02*
X133407001Y-86175999D01*
X132207000Y-67564000D02*
X133407001Y-68764001D01*
X133546999Y-114357001D02*
X133546999Y-96958001D01*
X133350000Y-114554000D02*
X133477000Y-114427000D01*
X132207000Y-88265000D02*
X132207000Y-87376000D01*
X133546999Y-89604999D02*
X132207000Y-88265000D01*
X133477000Y-114427000D02*
X133546999Y-114357001D01*
X133546999Y-96958001D02*
X133546999Y-94672001D01*
X133546999Y-94672001D02*
X133546999Y-89604999D01*
%TO.N,D3*%
X149987000Y-108458000D02*
X149987000Y-119888000D01*
X149987000Y-119888000D02*
X149987000Y-119888000D01*
X129667000Y-102616000D02*
X129667000Y-103251000D01*
X131006999Y-104590999D02*
X131006999Y-119703999D01*
X129667000Y-103251000D02*
X131006999Y-104590999D01*
X131006999Y-119703999D02*
X131006999Y-119818001D01*
D25*
X129667000Y-101473000D02*
X129667000Y-102616000D01*
X128516999Y-100322999D02*
X129667000Y-101473000D01*
X129667000Y-84328000D02*
X128516999Y-85478001D01*
X129667000Y-81788000D02*
X129667000Y-84328000D01*
X128516999Y-85478001D02*
X128516999Y-100322999D01*
D24*
%TO.N,D4*%
X152527000Y-117856000D02*
X152527000Y-108458000D01*
X132207000Y-102616000D02*
X132207000Y-106045000D01*
X132207000Y-106045000D02*
X132207000Y-106045000D01*
X152527000Y-108458000D02*
X152527000Y-106045000D01*
X152527000Y-106045000D02*
X152527000Y-106045000D01*
D25*
X132207000Y-81788000D02*
X132207000Y-84963000D01*
X131056999Y-86113001D02*
X131056999Y-89781999D01*
X132207000Y-84963000D02*
X131056999Y-86113001D01*
X132207000Y-90932000D02*
X132207000Y-102616000D01*
X131056999Y-89781999D02*
X132207000Y-90932000D01*
D24*
%TO.N,D5*%
X147447000Y-108458000D02*
X147447000Y-117602000D01*
X134747000Y-105029000D02*
X134747000Y-102616000D01*
D25*
X133596999Y-86823999D02*
X133596999Y-88511999D01*
X134747000Y-85673998D02*
X133596999Y-86823999D01*
X134747000Y-81788000D02*
X134747000Y-85673998D01*
X134747000Y-89662000D02*
X134747000Y-102616000D01*
X133596999Y-88511999D02*
X134747000Y-89662000D01*
X147193000Y-104902000D02*
X147193000Y-106426000D01*
X147447000Y-106934000D02*
X147447000Y-108458000D01*
X147193000Y-106680000D02*
X147447000Y-106934000D01*
X147193000Y-106426000D02*
X147193000Y-106680000D01*
D24*
%TO.N,D6*%
X144907000Y-108458000D02*
X144907000Y-117094000D01*
X137287000Y-102616000D02*
X137287000Y-104140000D01*
X137287000Y-104140000D02*
X137287000Y-104140000D01*
X144907000Y-104140000D02*
X144907000Y-108458000D01*
D25*
X137287000Y-81788000D02*
X137287000Y-85598000D01*
X136136999Y-86748001D02*
X136136999Y-88511999D01*
X137287000Y-85598000D02*
X136136999Y-86748001D01*
X137287000Y-89662000D02*
X137287000Y-102616000D01*
X136136999Y-88511999D02*
X137287000Y-89662000D01*
X137287000Y-81788000D02*
X137287000Y-77216000D01*
X137287000Y-77216000D02*
X137287000Y-77216000D01*
X165107001Y-81907999D02*
X165107001Y-77350001D01*
X165107001Y-77350001D02*
X164973000Y-77216000D01*
X164973000Y-77216000D02*
X164973000Y-77216000D01*
D24*
%TO.N,D7*%
X137287000Y-116078000D02*
X137225000Y-116140000D01*
X137287000Y-108458000D02*
X137287000Y-116078000D01*
X137287000Y-108458000D02*
X137287000Y-106807000D01*
X139827000Y-102616000D02*
X139827000Y-106807000D01*
X137287000Y-106807000D02*
X137287000Y-106807000D01*
X139827000Y-106807000D02*
X139827000Y-106807000D01*
D25*
X139827000Y-81788000D02*
X139827000Y-85217000D01*
X138437001Y-86606999D02*
X138437001Y-88272001D01*
X139827000Y-85217000D02*
X138437001Y-86606999D01*
X139827000Y-89662000D02*
X139827000Y-96774000D01*
X138437001Y-88272001D02*
X139827000Y-89662000D01*
X139827000Y-96774000D02*
X139827000Y-96774000D01*
X139827000Y-96774000D02*
X139827000Y-102616000D01*
D24*
%TO.N,A10*%
X144907000Y-102616000D02*
X144907000Y-99568000D01*
X144907000Y-99568000D02*
X144907000Y-99568000D01*
D25*
X144907000Y-89646170D02*
X144907000Y-99568000D01*
X143756999Y-88496169D02*
X144907000Y-89646170D01*
X143756999Y-85493832D02*
X143756999Y-88496169D01*
X144117011Y-85133820D02*
X143756999Y-85493832D01*
X144117011Y-85117989D02*
X144117011Y-85133820D01*
X144907000Y-84328000D02*
X144117011Y-85117989D01*
X144907000Y-81788000D02*
X144907000Y-84328000D01*
D24*
X169291000Y-123698000D02*
X167767000Y-123698000D01*
X169926000Y-123063000D02*
X169291000Y-123698000D01*
X169926000Y-99568000D02*
X169926000Y-123063000D01*
X144907000Y-99568000D02*
X144907000Y-99568000D01*
%TO.N,A9*%
X152527000Y-102616000D02*
X152527000Y-98679000D01*
X152527000Y-98679000D02*
X152527000Y-98679000D01*
X170815000Y-98679000D02*
X170815000Y-121666000D01*
X170815000Y-121666000D02*
X170815000Y-121666000D01*
D25*
X152527000Y-81788000D02*
X152527000Y-85090000D01*
X151376999Y-86240001D02*
X151376999Y-88511999D01*
X152527000Y-85090000D02*
X151376999Y-86240001D01*
X152527000Y-89662000D02*
X152527000Y-98679000D01*
X151376999Y-88511999D02*
X152527000Y-89662000D01*
D24*
%TO.N,A8*%
X153866999Y-86799999D02*
X153866999Y-88334999D01*
X155067000Y-85599998D02*
X153866999Y-86799999D01*
X155067000Y-81788000D02*
X155067000Y-85599998D01*
X155067000Y-89535000D02*
X155067000Y-97790000D01*
X153866999Y-88334999D02*
X155067000Y-89535000D01*
X155067000Y-97790000D02*
X155067000Y-102616000D01*
X171976999Y-98189999D02*
X171976999Y-120758001D01*
X171577000Y-97790000D02*
X171976999Y-98189999D01*
X171976999Y-120758001D02*
X171976999Y-120758001D01*
D25*
X94399000Y-81655998D02*
X97060998Y-78994000D01*
X94399000Y-83140000D02*
X94399000Y-81655998D01*
X97060998Y-78994000D02*
X97663000Y-78994000D01*
X97663000Y-78994000D02*
X97663000Y-78994000D01*
D24*
%TO.N,A7*%
X157607000Y-86614000D02*
X157607000Y-87376000D01*
X158877000Y-85344000D02*
X157607000Y-86614000D01*
X158877000Y-69088000D02*
X158877000Y-73660000D01*
X157607000Y-67818000D02*
X158877000Y-69088000D01*
X157607000Y-66548000D02*
X157607000Y-67818000D01*
X157607000Y-87376000D02*
X157607000Y-88392000D01*
X158946999Y-89731999D02*
X158946999Y-120973999D01*
X157607000Y-88392000D02*
X158946999Y-89731999D01*
X160147000Y-122174000D02*
X160147000Y-123698000D01*
X158946999Y-120973999D02*
X160147000Y-122174000D01*
X158877000Y-73660000D02*
X158877000Y-85344000D01*
D25*
X173863000Y-58928000D02*
X173863000Y-58928000D01*
X173863000Y-71564500D02*
X173863000Y-70421500D01*
X173863000Y-70421500D02*
X173863000Y-58928000D01*
X173863000Y-70866000D02*
X173863000Y-70421500D01*
D24*
%TO.N,A6*%
X155067000Y-66548000D02*
X155067000Y-67564000D01*
X156267001Y-68764001D02*
X156267001Y-85528001D01*
X155067000Y-67564000D02*
X156267001Y-68764001D01*
X155067000Y-86728002D02*
X155067000Y-87376000D01*
X156267001Y-85528001D02*
X155067000Y-86728002D01*
X155067000Y-87376000D02*
X155067000Y-88011000D01*
X156267001Y-89211001D02*
X156267001Y-117671999D01*
X155067000Y-88011000D02*
X156267001Y-89211001D01*
X156267001Y-117671999D02*
X156267001Y-119830999D01*
X156267001Y-119830999D02*
X156267001Y-119830999D01*
X156267001Y-119830999D02*
X156337000Y-119888000D01*
D25*
X156337000Y-119888000D02*
X157734000Y-121285000D01*
X157734000Y-123571000D02*
X157607000Y-123698000D01*
X157734000Y-121285000D02*
X157734000Y-123571000D01*
D24*
%TO.N,A5*%
X152527000Y-66548000D02*
X152527000Y-67564000D01*
X153727001Y-68764001D02*
X153727001Y-85528001D01*
X152527000Y-67564000D02*
X153727001Y-68764001D01*
X152527000Y-86728002D02*
X152527000Y-87376000D01*
X153727001Y-85528001D02*
X152527000Y-86728002D01*
X152527000Y-87376000D02*
X152527000Y-88519000D01*
X153866999Y-89858999D02*
X153866999Y-116516001D01*
X152527000Y-88519000D02*
X153866999Y-89858999D01*
X155067000Y-123050002D02*
X155067000Y-123698000D01*
X153866999Y-121850001D02*
X155067000Y-123050002D01*
X153866999Y-116516001D02*
X153866999Y-117532001D01*
D25*
X174555001Y-116516001D02*
X174555001Y-114750999D01*
X174555001Y-114750999D02*
X175006000Y-114300000D01*
X175006000Y-114300000D02*
X175006000Y-114300000D01*
D24*
X153866999Y-117532001D02*
X153866999Y-121850001D01*
%TO.N,A4*%
X149987000Y-66548000D02*
X149987000Y-67818000D01*
X149987000Y-67818000D02*
X151257000Y-69088000D01*
X151257000Y-69088000D02*
X151257000Y-84836000D01*
X149987000Y-86106000D02*
X149987000Y-87376000D01*
X151257000Y-84836000D02*
X149987000Y-86106000D01*
X149987000Y-87376000D02*
X149987000Y-88392000D01*
X151187001Y-89592001D02*
X151187001Y-114242999D01*
X149987000Y-88392000D02*
X151187001Y-89592001D01*
X152527000Y-123075998D02*
X152527000Y-123698000D01*
X151187001Y-121735999D02*
X152527000Y-123075998D01*
X151187001Y-114242999D02*
X151187001Y-121735999D01*
%TO.N,A3*%
X147447000Y-66548000D02*
X147447000Y-67564000D01*
X148647001Y-68764001D02*
X148647001Y-73793499D01*
X147447000Y-67564000D02*
X148647001Y-68764001D01*
X147447000Y-86868000D02*
X147447000Y-87376000D01*
X148647001Y-85667999D02*
X147447000Y-86868000D01*
X147447000Y-87376000D02*
X147447000Y-88392000D01*
X148786999Y-89731999D02*
X148786999Y-113468001D01*
X147447000Y-88392000D02*
X148786999Y-89731999D01*
X149987000Y-123190000D02*
X149987000Y-123698000D01*
X148786999Y-121989999D02*
X149987000Y-123190000D01*
X148647001Y-73793499D02*
X148647001Y-85667999D01*
X148786999Y-113468001D02*
X148786999Y-121989999D01*
%TO.N,A2*%
X144907000Y-86360000D02*
X144907000Y-87376000D01*
X146246999Y-85020001D02*
X144907000Y-86360000D01*
X146246999Y-69157999D02*
X146246999Y-85020001D01*
X144907000Y-67818000D02*
X146246999Y-69157999D01*
X144907000Y-66548000D02*
X144907000Y-67818000D01*
X144907000Y-87376000D02*
X144907000Y-88011000D01*
X146107001Y-89211001D02*
X146107001Y-121977001D01*
X144907000Y-88011000D02*
X146107001Y-89211001D01*
X146107001Y-121977001D02*
X147320000Y-123190000D01*
X147320000Y-123571000D02*
X147447000Y-123698000D01*
X147320000Y-123190000D02*
X147320000Y-123571000D01*
%TO.N,A1*%
X142367000Y-86106000D02*
X142367000Y-87376000D01*
X143567001Y-84905999D02*
X142367000Y-86106000D01*
X143567001Y-67748001D02*
X143567001Y-84905999D01*
X142367000Y-66548000D02*
X143567001Y-67748001D01*
X142367000Y-87376000D02*
X142367000Y-87884000D01*
X143567001Y-89084001D02*
X143567001Y-116147999D01*
X142367000Y-87884000D02*
X143567001Y-89084001D01*
X143567001Y-118548001D02*
X144907000Y-119888000D01*
X143567001Y-116147999D02*
X143567001Y-118548001D01*
X144907000Y-119888000D02*
X144907000Y-123698000D01*
X144907000Y-123444000D02*
X144907000Y-123698000D01*
%TO.N,A0*%
X139827000Y-66548000D02*
X139827000Y-67310000D01*
X141166999Y-68649999D02*
X141166999Y-85528001D01*
X139827000Y-67310000D02*
X141166999Y-68649999D01*
X139827000Y-86868000D02*
X139827000Y-87376000D01*
X141166999Y-85528001D02*
X139827000Y-86868000D01*
X139827000Y-87376000D02*
X139827000Y-88265000D01*
X139827000Y-88265000D02*
X141166999Y-89604999D01*
X142367000Y-123444000D02*
X142367000Y-123698000D01*
D25*
X142367000Y-121539000D02*
X142367000Y-123698000D01*
X141732000Y-120904000D02*
X142367000Y-121539000D01*
X141732000Y-117729000D02*
X141732000Y-120904000D01*
X141166999Y-117163999D02*
X141732000Y-117729000D01*
X141166999Y-89604999D02*
X141166999Y-117163999D01*
%TO.N,A15*%
X165227000Y-102616000D02*
X165227000Y-103759000D01*
X165227000Y-103759000D02*
X165227000Y-106045000D01*
X166566999Y-107384999D02*
X166566999Y-110432999D01*
X165227000Y-106045000D02*
X166566999Y-107384999D01*
D24*
X166566999Y-110432999D02*
X166566999Y-110432999D01*
X112179000Y-83140000D02*
X112179000Y-84290000D01*
X110978999Y-110343999D02*
X110998000Y-110363000D01*
X110978999Y-85490001D02*
X110978999Y-110343999D01*
X112179000Y-84290000D02*
X110978999Y-85490001D01*
X195707000Y-40640000D02*
X195707000Y-43180000D01*
D25*
X171746010Y-92388819D02*
X171746010Y-92286990D01*
X174879000Y-71696189D02*
X174879000Y-66675000D01*
X174879000Y-66675000D02*
X174879000Y-66675000D01*
X182626000Y-66675000D02*
X182626000Y-52197000D01*
X182626000Y-52197000D02*
X182626000Y-52197000D01*
X191643000Y-50800000D02*
X190246000Y-50800000D01*
X190246000Y-50800000D02*
X189357000Y-51689000D01*
X189357000Y-51689000D02*
X189357000Y-57150000D01*
X189357000Y-57150000D02*
X191008000Y-58801000D01*
X191008000Y-58801000D02*
X191516000Y-58801000D01*
X191516000Y-58801000D02*
X191516000Y-58801000D01*
X171746010Y-74829179D02*
X174879000Y-71696189D01*
X195326000Y-58801000D02*
X197104000Y-58801000D01*
X197104000Y-58801000D02*
X199009000Y-56896000D01*
X199009000Y-56896000D02*
X199009000Y-44958000D01*
X197231000Y-43180000D02*
X195707000Y-43180000D01*
X199009000Y-44958000D02*
X197231000Y-43180000D01*
X166566999Y-111436001D02*
X166497000Y-111506000D01*
X166566999Y-110432999D02*
X166566999Y-111436001D01*
X157607000Y-108458000D02*
X157607000Y-111506000D01*
X171746010Y-92286990D02*
X171746010Y-74829179D01*
X165227000Y-102616000D02*
X165227000Y-92329000D01*
X165227000Y-92329000D02*
X165227000Y-92329000D01*
D24*
%TO.N,A14*%
X161347001Y-107257999D02*
X160147000Y-108458000D01*
X161347001Y-91255999D02*
X161347001Y-107257999D01*
X162687000Y-89916000D02*
X161347001Y-91255999D01*
X162687000Y-87376000D02*
X162687000Y-89916000D01*
X124079000Y-93472000D02*
X124079000Y-93218000D01*
X124079000Y-93218000D02*
X124079000Y-81534000D01*
X124079000Y-81534000D02*
X124079000Y-81534000D01*
X162687000Y-87376000D02*
X162687000Y-84836000D01*
X161347001Y-83496001D02*
X161347001Y-79178001D01*
X162687000Y-84836000D02*
X161347001Y-83496001D01*
X161347001Y-79178001D02*
X160528000Y-78359000D01*
X160528000Y-78359000D02*
X160528000Y-70358000D01*
X160528000Y-70358000D02*
X160528000Y-70358000D01*
D25*
X188976000Y-69723000D02*
X188976000Y-61087000D01*
X188976000Y-61087000D02*
X190373000Y-59690000D01*
X195707000Y-50800000D02*
X194945000Y-50800000D01*
X194945000Y-50800000D02*
X193929000Y-51816000D01*
X193929000Y-51816000D02*
X193929000Y-59182000D01*
X193421000Y-59690000D02*
X190373000Y-59690000D01*
X193929000Y-59182000D02*
X193421000Y-59690000D01*
D24*
%TO.N,A12*%
X160147000Y-87376000D02*
X160147000Y-84582000D01*
X160147000Y-84582000D02*
X160147000Y-84582000D01*
D25*
X160147000Y-87376000D02*
X160147000Y-92964000D01*
X160147000Y-92964000D02*
X160147000Y-92964000D01*
X164076999Y-107307999D02*
X164076999Y-93083999D01*
X165227000Y-108458000D02*
X164076999Y-107307999D01*
X164076999Y-93083999D02*
X163957000Y-92964000D01*
X163957000Y-92964000D02*
X163957000Y-92964000D01*
D24*
X167747001Y-83038001D02*
X167894000Y-83185000D01*
X171577000Y-62865000D02*
X171323000Y-62865000D01*
X167786999Y-83077999D02*
X167894000Y-83185000D01*
D25*
X171577000Y-62865000D02*
X171577000Y-64008000D01*
X171577000Y-64008000D02*
X168783000Y-66802000D01*
X168783000Y-66802000D02*
X168783000Y-70104000D01*
X167836999Y-83127999D02*
X167894000Y-83185000D01*
X167836999Y-71050001D02*
X167836999Y-83127999D01*
X168783000Y-70104000D02*
X167836999Y-71050001D01*
D24*
%TO.N,A11*%
X149987000Y-102616000D02*
X149987000Y-100457000D01*
X149987000Y-100457000D02*
X149987000Y-100457000D01*
X167767000Y-107696000D02*
X167767000Y-108458000D01*
X166497000Y-106426000D02*
X167767000Y-107696000D01*
D25*
X148836999Y-88511999D02*
X149987000Y-89662000D01*
X149987000Y-89662000D02*
X149987000Y-100457000D01*
X149436992Y-82338008D02*
X149436992Y-86224006D01*
X149436992Y-86224006D02*
X148836999Y-86823999D01*
X148836999Y-86823999D02*
X148836999Y-88511999D01*
X149987000Y-81788000D02*
X149436992Y-82338008D01*
D24*
X166497000Y-100457000D02*
X166497000Y-106426000D01*
%TO.N,A13v*%
X83119000Y-84360000D02*
X83119000Y-54960000D01*
X83119000Y-54960000D02*
X81913999Y-53754999D01*
X81913999Y-53754999D02*
X81913999Y-53754999D01*
D26*
X103124000Y-86868000D02*
X103124000Y-87884000D01*
X104559000Y-89319000D02*
X104559000Y-90760000D01*
X103124000Y-87884000D02*
X104559000Y-89319000D01*
D24*
%TO.N,Net-(C1-Pad2)*%
X100119000Y-53220000D02*
X103259000Y-53220000D01*
X104319000Y-52160000D02*
X104319000Y-45760000D01*
X103259000Y-53220000D02*
X104319000Y-52160000D01*
X104319000Y-45760000D02*
X111119000Y-45760000D01*
%TO.N,Net-(JP1-Pad2)*%
X92499000Y-43060000D02*
X94019000Y-43060000D01*
X94019000Y-43060000D02*
X94719000Y-43760000D01*
X94719000Y-43760000D02*
X94719000Y-47360000D01*
X93939000Y-48140000D02*
X92499000Y-48140000D01*
X94719000Y-47360000D02*
X93939000Y-48140000D01*
%TO.N,Net-(JP1-Pad1)*%
X120719000Y-50720000D02*
X122359000Y-50720000D01*
X124899000Y-48180000D02*
X128339000Y-48180000D01*
X122359000Y-50720000D02*
X124899000Y-48180000D01*
%TO.N,Net-(R5-Pad2)*%
X104159000Y-55760000D02*
X104319000Y-55920000D01*
X100119000Y-55760000D02*
X104159000Y-55760000D01*
X104319000Y-55920000D02*
X105519000Y-54720000D01*
X105519000Y-54720000D02*
X105519000Y-49160000D01*
X105519000Y-49160000D02*
X106519000Y-48160000D01*
X114319000Y-48160000D02*
X115719000Y-46760000D01*
X106519000Y-48160000D02*
X114319000Y-48160000D01*
%TO.N,Net-(R6-Pad1)*%
X100119000Y-45600000D02*
X100119000Y-48140000D01*
X100119000Y-45600000D02*
X98359000Y-45600000D01*
X98359000Y-45600000D02*
X97719000Y-44960000D01*
X97719000Y-44960000D02*
X97719000Y-42560000D01*
X98419001Y-41859999D02*
X106418999Y-41859999D01*
X97719000Y-42560000D02*
X98419001Y-41859999D01*
X106919001Y-41359999D02*
X107719000Y-40560000D01*
X106418999Y-41859999D02*
X106919001Y-41359999D01*
X114419000Y-40560000D02*
X115719000Y-41860000D01*
X107719000Y-40560000D02*
X114419000Y-40560000D01*
%TO.N,BUSAK*%
X89319000Y-90760000D02*
X89319000Y-88960000D01*
X90658999Y-66340001D02*
X91859000Y-65140000D01*
X90658999Y-87620001D02*
X90658999Y-66340001D01*
X89319000Y-88960000D02*
X90658999Y-87620001D01*
X92499000Y-50680000D02*
X94039000Y-50680000D01*
X94039000Y-50680000D02*
X94719000Y-51360000D01*
X94719000Y-62280000D02*
X91859000Y-65140000D01*
X94719000Y-51360000D02*
X94719000Y-62280000D01*
X89319000Y-105118000D02*
X89319000Y-108260000D01*
X90551000Y-103886000D02*
X89319000Y-105118000D01*
X90551000Y-92964000D02*
X90551000Y-103886000D01*
X89319000Y-91732000D02*
X90551000Y-92964000D01*
X89319000Y-90760000D02*
X89319000Y-91732000D01*
D21*
%TO.N,CLK*%
X92365000Y-40386000D02*
X92499000Y-40520000D01*
D25*
X155067000Y-108458000D02*
X155067000Y-111252000D01*
X155067000Y-111252000D02*
X155067000Y-111252000D01*
X103251000Y-111252000D02*
X103251000Y-92075000D01*
X103251000Y-71882000D02*
X105029000Y-70104000D01*
X105029000Y-70104000D02*
X108077000Y-67056000D01*
X108077000Y-67056000D02*
X108331000Y-66802000D01*
X108331000Y-66802000D02*
X108331000Y-56642000D01*
X108331000Y-56642000D02*
X108331000Y-56642000D01*
X96393000Y-54102000D02*
X96393000Y-41656000D01*
X95257000Y-40520000D02*
X92499000Y-40520000D01*
X96393000Y-41656000D02*
X95257000Y-40520000D01*
X103251000Y-81026000D02*
X103251000Y-71882000D01*
D26*
X103251000Y-81026000D02*
X103251000Y-84455000D01*
X103251000Y-84455000D02*
X102362000Y-85344000D01*
X102362000Y-85344000D02*
X102362000Y-88265000D01*
X103251000Y-89154000D02*
X103251000Y-92075000D01*
X102362000Y-88265000D02*
X103251000Y-89154000D01*
D25*
%TO.N,Net-(U2-Pad2)*%
X120719000Y-43100000D02*
X119587000Y-43100000D01*
X119587000Y-43100000D02*
X118935500Y-43751500D01*
X118935500Y-43751500D02*
X118935500Y-52070000D01*
X120125500Y-53260000D02*
X120719000Y-53260000D01*
X118935500Y-52070000D02*
X120125500Y-53260000D01*
%TO.N,Net-(U2-Pad12)*%
X128339000Y-45640000D02*
X129777500Y-45640000D01*
X129777500Y-45640000D02*
X130556000Y-46418500D01*
X130556000Y-46418500D02*
X130556000Y-55181500D01*
X129937500Y-55800000D02*
X128339000Y-55800000D01*
X130556000Y-55181500D02*
X129937500Y-55800000D01*
D23*
%TO.N,Net-(C8-Pad1)*%
X144763000Y-47432000D02*
X146043000Y-47432000D01*
X146043000Y-47432000D02*
X147763000Y-45712000D01*
X147763000Y-45712000D02*
X149963000Y-45712000D01*
D24*
%TO.N,Net-(U8-Pad12)*%
X191643000Y-45720000D02*
X192405000Y-45720000D01*
X192405000Y-45720000D02*
X193167000Y-46482000D01*
X193167000Y-46482000D02*
X193167000Y-54864000D01*
X192151000Y-55880000D02*
X191643000Y-55880000D01*
X193167000Y-54864000D02*
X192151000Y-55880000D01*
D25*
%TO.N,Net-(U11-Pad6)*%
X197873001Y-49410001D02*
X197873001Y-52458001D01*
X196991002Y-53340000D02*
X195707000Y-53340000D01*
X197873001Y-52458001D02*
X196991002Y-53340000D01*
%TO.N,Net-(U11-Pad12)*%
X203327000Y-45720000D02*
X204343000Y-45720000D01*
X204343000Y-45720000D02*
X205105000Y-46482000D01*
X205105000Y-46482000D02*
X205105000Y-55054500D01*
X204279500Y-55880000D02*
X203327000Y-55880000D01*
X205105000Y-55054500D02*
X204279500Y-55880000D01*
D24*
%TO.N,Net-(U11-Pad10)*%
X203327000Y-48260000D02*
X203327000Y-50800000D01*
%TO.N,Net-(U11-Pad3)*%
X195707000Y-45720000D02*
X195707000Y-48260000D01*
D25*
%TO.N,-CS-ROM*%
X142367000Y-74676000D02*
X142367000Y-74676000D01*
X165989000Y-74676000D02*
X165989000Y-82136002D01*
X165989000Y-82136002D02*
X165989000Y-85090000D01*
X166377001Y-85478001D02*
X166377001Y-90797999D01*
X165989000Y-85090000D02*
X166377001Y-85478001D01*
X166377001Y-90797999D02*
X166377001Y-90797999D01*
X162687000Y-91694000D02*
X162687000Y-102616000D01*
X142367000Y-81788000D02*
X142367000Y-74676000D01*
X191643000Y-48260000D02*
X188722000Y-48260000D01*
X188722000Y-48260000D02*
X188087000Y-48895000D01*
X188087000Y-48895000D02*
X188087000Y-69723000D01*
X188087000Y-69723000D02*
X187706000Y-70104000D01*
X187706000Y-70104000D02*
X187706000Y-70104000D01*
D23*
%TO.N,Net-(C9-Pad2)*%
X144763000Y-52512000D02*
X147763000Y-52512000D01*
%TO.N,Net-(JP2-Pad2)*%
X141963000Y-40512000D02*
X141963000Y-49312000D01*
X142623000Y-49972000D02*
X144763000Y-49972000D01*
X141963000Y-49312000D02*
X142623000Y-49972000D01*
X141963000Y-40512000D02*
X145623000Y-40512000D01*
D24*
%TO.N,IO-Data*%
X89319000Y-123760000D02*
X89319000Y-122390000D01*
X93198999Y-118510001D02*
X93198999Y-81934001D01*
X89319000Y-122390000D02*
X93198999Y-118510001D01*
X93198999Y-81934001D02*
X94361000Y-80772000D01*
X94361000Y-80772000D02*
X96393000Y-78740000D01*
X98278999Y-76854001D02*
X98278999Y-72183999D01*
X96393000Y-78740000D02*
X98278999Y-76854001D01*
X98278999Y-72183999D02*
X98278999Y-71520001D01*
X98278999Y-71520001D02*
X100965000Y-68834000D01*
X100965000Y-68834000D02*
X100965000Y-68834000D01*
X100965000Y-68834000D02*
X100965000Y-68834000D01*
X124294999Y-67779999D02*
X124294999Y-61252001D01*
X124294999Y-61252001D02*
X124294999Y-61252001D01*
D25*
X153631999Y-61252001D02*
X153631999Y-54902001D01*
X153631999Y-54902001D02*
X155194000Y-53340000D01*
X155194000Y-53340000D02*
X160401000Y-53340000D01*
%TO.N,Net-(U13-Pad13)*%
X168021000Y-48260000D02*
X169171001Y-47109999D01*
X169171001Y-47109999D02*
X175394001Y-47109999D01*
X179705000Y-43180000D02*
X175387000Y-43180000D01*
X175387000Y-43180000D02*
X175387000Y-43180000D01*
%TO.N,Net-(U13-Pad12)*%
X172085000Y-45720000D02*
X179705000Y-45720000D01*
%TO.N,Net-(U13-Pad11)*%
X160401000Y-48260000D02*
X165227000Y-48260000D01*
X166377001Y-49410001D02*
X177538999Y-49410001D01*
X165227000Y-48260000D02*
X166377001Y-49410001D01*
X178689000Y-48260000D02*
X179705000Y-48260000D01*
X177538999Y-49410001D02*
X178689000Y-48260000D01*
%TO.N,Net-(U13-Pad9)*%
X178435000Y-54610000D02*
X179705000Y-53340000D01*
X169291000Y-54610000D02*
X178435000Y-54610000D01*
X168021000Y-55880000D02*
X169291000Y-54610000D01*
%TO.N,Net-(U13-Pad8)*%
X160401000Y-50800000D02*
X164973000Y-50800000D01*
X164973000Y-50800000D02*
X165989000Y-51816000D01*
X165989000Y-51816000D02*
X165989000Y-57150000D01*
X165989000Y-57150000D02*
X166497000Y-57658000D01*
X177927000Y-57658000D02*
X179705000Y-55880000D01*
X166497000Y-57658000D02*
X177927000Y-57658000D01*
%TO.N,Net-(U13-Pad2)*%
X170815000Y-43180000D02*
X172085000Y-43180000D01*
X169425001Y-44569999D02*
X170815000Y-43180000D01*
X161551001Y-44569999D02*
X169425001Y-44569999D01*
X160401000Y-45720000D02*
X161551001Y-44569999D01*
%TO.N,MREQ\u002A*%
X122047000Y-108458000D02*
X122047000Y-106934000D01*
X122047000Y-106934000D02*
X122047000Y-106426000D01*
X122047000Y-106426000D02*
X120777000Y-105156000D01*
X120777000Y-105156000D02*
X120777000Y-75438000D01*
X120777000Y-75438000D02*
X120777000Y-75438000D01*
X120777000Y-75438000D02*
X120777000Y-75438000D01*
X109639000Y-72760000D02*
X109639000Y-75222000D01*
X109639000Y-75222000D02*
X109639000Y-75222000D01*
X120777000Y-75438000D02*
X120777000Y-75184000D01*
X120777000Y-75184000D02*
X120777000Y-75184000D01*
%TO.N,IORQ\u002A*%
X119507000Y-108458000D02*
X119507000Y-76962000D01*
X119507000Y-76708000D02*
X119507000Y-76708000D01*
X119507000Y-76708000D02*
X119507000Y-76708000D01*
X107099000Y-72760000D02*
X107099000Y-76670000D01*
X107099000Y-76670000D02*
X107099000Y-76670000D01*
X119507000Y-76962000D02*
X119507000Y-76708000D01*
X107099000Y-76670000D02*
X107099000Y-76924000D01*
X107099000Y-76924000D02*
X107099000Y-76924000D01*
X119507000Y-76962000D02*
X119062500Y-76517500D01*
X119062500Y-76517500D02*
X119062500Y-73342500D01*
X119062500Y-73342500D02*
X119062500Y-73342500D01*
X119062500Y-73342500D02*
X119062500Y-72766500D01*
X119062500Y-72766500D02*
X119062500Y-72766500D01*
X119507000Y-108458000D02*
X119507000Y-120777000D01*
%TO.N,RD\u002A*%
X117729000Y-72136000D02*
X118237000Y-71628000D01*
X117729000Y-121158000D02*
X117729000Y-72136000D01*
X119507000Y-122936000D02*
X117729000Y-121158000D01*
X119507000Y-123698000D02*
X119507000Y-122936000D01*
%TO.N,WR\u002A*%
X122047000Y-123698000D02*
X122047000Y-112268000D01*
X120257001Y-76347999D02*
X120015000Y-76105998D01*
X120257001Y-105343121D02*
X120257001Y-76347999D01*
X120896999Y-111117999D02*
X120896999Y-105983119D01*
X120896999Y-105983119D02*
X120257001Y-105343121D01*
X122047000Y-112268000D02*
X120896999Y-111117999D01*
X120015000Y-76105998D02*
X120015000Y-69850000D01*
X120015000Y-69850000D02*
X120015000Y-69850000D01*
%TO.N,RFSH\u002A*%
X115189000Y-74422000D02*
X115189000Y-74422000D01*
X115189000Y-74422000D02*
X115189000Y-74422000D01*
X115189000Y-126111000D02*
X115189000Y-74422000D01*
%TO.N,M1\u002A*%
X116205000Y-68580000D02*
X116205000Y-68580000D01*
X134747000Y-123698000D02*
X134747000Y-122809000D01*
X136017000Y-121539000D02*
X139827000Y-121539000D01*
X134747000Y-122809000D02*
X136017000Y-121539000D01*
X139827000Y-121539000D02*
X141097000Y-121539000D01*
X175641000Y-118110000D02*
X175641000Y-120777000D01*
X176530000Y-121666000D02*
X178689000Y-121666000D01*
X175641000Y-120777000D02*
X176530000Y-121666000D01*
X116205000Y-125222000D02*
X116205000Y-125222000D01*
X116205000Y-125222000D02*
X116205000Y-68580000D01*
D24*
%TO.N,-CS-RAM*%
X184023000Y-45720000D02*
X184023000Y-48260000D01*
X168021000Y-50800000D02*
X168021000Y-53340000D01*
X170326999Y-68052001D02*
X170326999Y-67925001D01*
D25*
X168021000Y-50800000D02*
X169291000Y-52070000D01*
X169291000Y-52070000D02*
X177165000Y-52070000D01*
X178073999Y-67925001D02*
X178073999Y-60598999D01*
X178073999Y-60598999D02*
X178689000Y-59983998D01*
X178689000Y-59983998D02*
X178689000Y-59182000D01*
X178689000Y-59182000D02*
X178054000Y-58547000D01*
X178054000Y-58547000D02*
X178054000Y-58547000D01*
X177165000Y-52070000D02*
X180721000Y-52070000D01*
X180721000Y-52070000D02*
X182245000Y-50546000D01*
X182245000Y-50038000D02*
X184023000Y-48260000D01*
X182245000Y-50546000D02*
X182245000Y-50038000D01*
X167894000Y-91059000D02*
X167894000Y-100584000D01*
X168529000Y-90424000D02*
X167894000Y-91059000D01*
X169926000Y-90424000D02*
X168529000Y-90424000D01*
X170803001Y-89546999D02*
X169926000Y-90424000D01*
X170803001Y-74283001D02*
X170803001Y-89546999D01*
X170326999Y-73806999D02*
X170803001Y-74283001D01*
X170326999Y-67925001D02*
X170326999Y-73806999D01*
D24*
%TO.N,Net-(JP3-Pad2)*%
X170053000Y-88392000D02*
X170053000Y-76200000D01*
X170053000Y-76200000D02*
X169037000Y-75184000D01*
X169037000Y-75184000D02*
X169037000Y-72390000D01*
%TO.N,Net-(JP3-Pad1)*%
X166497000Y-71247000D02*
X166497000Y-72390000D01*
X166624000Y-71120000D02*
X166497000Y-71247000D01*
X165354000Y-69850000D02*
X166624000Y-71120000D01*
X165354000Y-66040000D02*
X165354000Y-69850000D01*
X162179000Y-62865000D02*
X165354000Y-66040000D01*
X162179000Y-60960000D02*
X162179000Y-62865000D01*
D25*
%TO.N,Net-(JP4-Pad2)*%
X162115500Y-59055000D02*
X163004500Y-59055000D01*
X163004500Y-59055000D02*
X164147500Y-60198000D01*
X164147500Y-60198000D02*
X164147500Y-62166500D01*
X164846000Y-62865000D02*
X166497000Y-62865000D01*
X164147500Y-62166500D02*
X164846000Y-62865000D01*
D24*
%TO.N,Net-(JP4-Pad1)*%
X169037000Y-60325000D02*
X168402000Y-60325000D01*
X167786999Y-67925001D02*
X167786999Y-67925001D01*
D23*
X169037000Y-60325000D02*
X171577000Y-60325000D01*
X166497000Y-60325000D02*
X169037000Y-60325000D01*
D25*
X167786999Y-61614999D02*
X166497000Y-60325000D01*
X167786999Y-67925001D02*
X167786999Y-61614999D01*
D24*
%TO.N,Net-(C12-Pad2)*%
X200914000Y-66635000D02*
X202144000Y-66635000D01*
X202144000Y-66635000D02*
X203835000Y-68326000D01*
X205105000Y-68326000D02*
X205359000Y-68580000D01*
X203835000Y-68326000D02*
X205105000Y-68326000D01*
%TO.N,Net-(C12-Pad1)*%
X200914000Y-64135000D02*
X203200000Y-64135000D01*
X203835000Y-63500000D02*
X205359000Y-63500000D01*
X203200000Y-64135000D02*
X203835000Y-63500000D01*
%TO.N,Net-(C13-Pad2)*%
X200914000Y-72985000D02*
X202398000Y-72985000D01*
X203073000Y-73660000D02*
X205359000Y-73660000D01*
X202398000Y-72985000D02*
X203073000Y-73660000D01*
%TO.N,Net-(C13-Pad1)*%
X200914000Y-70485000D02*
X201930000Y-70485000D01*
X202565000Y-71120000D02*
X205359000Y-71120000D01*
X201930000Y-70485000D02*
X202565000Y-71120000D01*
%TO.N,Net-(C15-Pad2)*%
X200914000Y-76875000D02*
X201636000Y-76875000D01*
X202311000Y-76200000D02*
X205359000Y-76200000D01*
X201636000Y-76875000D02*
X202311000Y-76200000D01*
D25*
%TO.N,Net-(J2-Pad8)*%
X209677000Y-65532000D02*
X210439000Y-64770000D01*
X209677000Y-69596000D02*
X209677000Y-65532000D01*
X211201000Y-71120000D02*
X209677000Y-69596000D01*
X212979000Y-71120000D02*
X211201000Y-71120000D01*
X215011000Y-64770000D02*
X215773000Y-64770000D01*
X210439000Y-64770000D02*
X215011000Y-64770000D01*
X215011000Y-64770000D02*
X215265000Y-64770000D01*
X215773000Y-64770000D02*
X216535000Y-64008000D01*
X216535000Y-64008000D02*
X220091000Y-64008000D01*
X220091000Y-64008000D02*
X221107000Y-65024000D01*
X221107000Y-65556000D02*
X222159000Y-66608000D01*
X221107000Y-65024000D02*
X221107000Y-65556000D01*
%TO.N,Net-(J2-Pad7)*%
X221361000Y-68580000D02*
X222159000Y-69378000D01*
X221361000Y-67818000D02*
X221361000Y-68580000D01*
X220345000Y-66802000D02*
X221361000Y-67818000D01*
X214757000Y-66802000D02*
X220345000Y-66802000D01*
X212979000Y-68580000D02*
X214757000Y-66802000D01*
%TO.N,Net-(J2-Pad3)*%
X215598000Y-67993000D02*
X219319000Y-67993000D01*
X215265000Y-68326000D02*
X215598000Y-67993000D01*
X215265000Y-71628000D02*
X215265000Y-68326000D01*
X214622999Y-72270001D02*
X215265000Y-71628000D01*
X211320999Y-72270001D02*
X214622999Y-72270001D01*
%TO.N,Net-(J3-Pad15)*%
X178689000Y-124206000D02*
X180086000Y-124206000D01*
X180086000Y-124206000D02*
X181356000Y-125476000D01*
X181356000Y-125476000D02*
X181356000Y-127635000D01*
X181356000Y-127635000D02*
X182118000Y-128397000D01*
X188722000Y-128397000D02*
X190373000Y-126746000D01*
X182118000Y-128397000D02*
X188722000Y-128397000D01*
%TO.N,Net-(J3-Pad13)*%
X187833000Y-126746000D02*
X190373000Y-124206000D01*
X186309000Y-126746000D02*
X187833000Y-126746000D01*
%TO.N,Net-(J3-Pad11)*%
X187833000Y-124206000D02*
X190373000Y-121666000D01*
X186309000Y-124206000D02*
X187833000Y-124206000D01*
%TO.N,Net-(J3-Pad10)*%
X172847000Y-105664000D02*
X173736000Y-106553000D01*
X172847000Y-76327000D02*
X172847000Y-105664000D01*
D23*
X192913000Y-108966000D02*
X192913000Y-126746000D01*
D25*
X173736000Y-106553000D02*
X173863000Y-106680000D01*
X172847000Y-76327000D02*
X172847000Y-74930000D01*
X172847000Y-74930000D02*
X175895000Y-71882000D01*
X175895000Y-61595000D02*
X175895000Y-59055000D01*
X175895000Y-71882000D02*
X175895000Y-61595000D01*
X175895000Y-61595000D02*
X175895000Y-61341000D01*
X175895000Y-59055000D02*
X175768000Y-58928000D01*
X175768000Y-58928000D02*
X175768000Y-58928000D01*
%TO.N,Net-(J3-Pad9)*%
X187833000Y-121666000D02*
X190373000Y-119126000D01*
X186309000Y-121666000D02*
X187833000Y-121666000D01*
%TO.N,Net-(J3-Pad7)*%
X187833000Y-119126000D02*
X190373000Y-116586000D01*
X186309000Y-119126000D02*
X187833000Y-119126000D01*
%TO.N,Net-(J3-Pad5)*%
X187833000Y-116586000D02*
X190373000Y-114046000D01*
X186309000Y-116586000D02*
X187833000Y-116586000D01*
%TO.N,Net-(J3-Pad3)*%
X187833000Y-114046000D02*
X190373000Y-111506000D01*
X186309000Y-114046000D02*
X187833000Y-114046000D01*
%TO.N,Net-(J3-Pad1)*%
X187833000Y-111506000D02*
X190373000Y-108966000D01*
X186309000Y-111506000D02*
X187833000Y-111506000D01*
%TO.N,UART-CS*%
X172085000Y-53340000D02*
X177165000Y-53340000D01*
X177165000Y-53340000D02*
X177165000Y-53340000D01*
X177165000Y-59563000D02*
X177165000Y-71755000D01*
X177165000Y-71755000D02*
X173863000Y-75057000D01*
X173863000Y-75057000D02*
X174879000Y-76073000D01*
X174879000Y-76073000D02*
X174879000Y-110998000D01*
X175779999Y-111898999D02*
X175779999Y-116320001D01*
X174879000Y-110998000D02*
X175779999Y-111898999D01*
X175779999Y-116320001D02*
X175779999Y-116470999D01*
X177045001Y-117736001D02*
X181348999Y-117736001D01*
X175779999Y-116470999D02*
X177045001Y-117736001D01*
X181348999Y-117736001D02*
X181348999Y-117736001D01*
%TO.N,+RESET*%
X132776000Y-47432000D02*
X137143000Y-47432000D01*
X130175000Y-44831000D02*
X132776000Y-47432000D01*
X130175000Y-38354000D02*
X130175000Y-44831000D01*
X131960990Y-36568010D02*
X130175000Y-38354000D01*
X209423000Y-36568010D02*
X131960990Y-36568010D01*
X212979000Y-111633000D02*
X212979000Y-109855000D01*
X212979000Y-109855000D02*
X211455000Y-108331000D01*
X206248000Y-43434000D02*
X206248000Y-43434000D01*
X209423000Y-36568010D02*
X211701010Y-36568010D01*
X211701010Y-36568010D02*
X214503000Y-39370000D01*
X214503000Y-39370000D02*
X214503000Y-43434000D01*
X214503000Y-43434000D02*
X214503000Y-43434000D01*
X211455000Y-101727000D02*
X211455000Y-101600000D01*
X211455000Y-108331000D02*
X211455000Y-101727000D01*
X209296000Y-99441000D02*
X209296000Y-88900000D01*
X211455000Y-101600000D02*
X209296000Y-99441000D01*
X209296000Y-86487000D02*
X209296000Y-88900000D01*
X207772000Y-84963000D02*
X209296000Y-86487000D01*
X207772000Y-62103000D02*
X207772000Y-84963000D01*
X206248000Y-60579000D02*
X207772000Y-62103000D01*
X206248000Y-43434000D02*
X206248000Y-60579000D01*
%TO.N,CTS*%
X212979000Y-73660000D02*
X214503000Y-73660000D01*
X214503000Y-73660000D02*
X214757000Y-73914000D01*
X215900000Y-121793000D02*
X216535000Y-121793000D01*
X214757000Y-120650000D02*
X215900000Y-121793000D01*
X222504000Y-93726000D02*
X222504000Y-92456000D01*
X221615000Y-91567000D02*
X214757000Y-91567000D01*
X222504000Y-92456000D02*
X221615000Y-91567000D01*
X214757000Y-91567000D02*
X214757000Y-120650000D01*
X214757000Y-73914000D02*
X214757000Y-91567000D01*
%TO.N,RTS*%
X212725000Y-98425000D02*
X212725000Y-98552000D01*
X212725000Y-98552000D02*
X212725000Y-106553000D01*
X212979000Y-76200000D02*
X211201000Y-76200000D01*
X211201000Y-76200000D02*
X210312000Y-77089000D01*
X210312000Y-77089000D02*
X210312000Y-83693000D01*
X212725000Y-86106000D02*
X212725000Y-87249000D01*
X210312000Y-83693000D02*
X212725000Y-86106000D01*
X212725000Y-87249000D02*
X212725000Y-86360000D01*
X212725000Y-98552000D02*
X212725000Y-87249000D01*
%TO.N,TXD*%
X212979000Y-78740000D02*
X212090000Y-78740000D01*
X212090000Y-78740000D02*
X211201000Y-79629000D01*
X211201000Y-79629000D02*
X211201000Y-83439000D01*
X211201000Y-83439000D02*
X213995000Y-86233000D01*
X213995000Y-86233000D02*
X213995000Y-115697000D01*
X213995000Y-115697000D02*
X213233000Y-116459000D01*
%TO.N,RXD*%
X201295000Y-98933000D02*
X202438000Y-98933000D01*
X202438000Y-98933000D02*
X203327000Y-98044000D01*
X203327000Y-98044000D02*
X203327000Y-83566000D01*
X203327000Y-83566000D02*
X203327000Y-83566000D01*
%TO.N,Net-(U17-Pad22)*%
X216535000Y-104013000D02*
X218186000Y-105664000D01*
X218186000Y-105664000D02*
X218186000Y-108331000D01*
X217424000Y-109093000D02*
X216535000Y-109093000D01*
X218186000Y-108331000D02*
X217424000Y-109093000D01*
D23*
%TO.N,Net-(C16-Pad2)*%
X195638000Y-90424000D02*
X195673000Y-90459000D01*
D25*
X190119000Y-92705000D02*
X190323000Y-92909000D01*
X186309000Y-90043000D02*
X189865000Y-90043000D01*
X190323000Y-90501000D02*
X190323000Y-92909000D01*
X189865000Y-90043000D02*
X190323000Y-90501000D01*
X192773000Y-90459000D02*
X190323000Y-92909000D01*
X195673000Y-90459000D02*
X192773000Y-90459000D01*
D24*
X195673000Y-90459000D02*
X197105000Y-89027000D01*
X200232000Y-89027000D02*
X200359000Y-88900000D01*
X197105000Y-89027000D02*
X200232000Y-89027000D01*
D25*
%TO.N,BAUD*%
X201295000Y-114173000D02*
X200279000Y-114173000D01*
X200279000Y-114173000D02*
X199644000Y-113538000D01*
X199644000Y-113538000D02*
X199644000Y-103251000D01*
X199644000Y-103251000D02*
X200032001Y-102862999D01*
X209677000Y-101981000D02*
X209677000Y-101473000D01*
X208795001Y-102862999D02*
X209677000Y-101981000D01*
X182499000Y-97790000D02*
X182499000Y-102870000D01*
X200264998Y-102870000D02*
X200271999Y-102862999D01*
X182499000Y-102870000D02*
X200264998Y-102870000D01*
X200271999Y-102862999D02*
X208795001Y-102862999D01*
X200032001Y-102862999D02*
X200271999Y-102862999D01*
D23*
%TO.N,Net-(C17-Pad2)*%
X192863000Y-82749000D02*
X195673000Y-85559000D01*
X190323000Y-82749000D02*
X192863000Y-82749000D01*
X186309000Y-87503000D02*
X188595000Y-87503000D01*
X190323000Y-85775000D02*
X190323000Y-82749000D01*
X188595000Y-87503000D02*
X190323000Y-85775000D01*
D24*
X200320000Y-85559000D02*
X200359000Y-85598000D01*
X195673000Y-85559000D02*
X200320000Y-85559000D01*
D25*
%TO.N,Net-(J2-Pad6)*%
X222159000Y-72148000D02*
X224917000Y-74906000D01*
X224917000Y-86281500D02*
X224995500Y-86360000D01*
X224917000Y-74906000D02*
X224917000Y-86281500D01*
%TO.N,Net-(J2-Pad4)*%
X223695500Y-86360000D02*
X217360500Y-86360000D01*
X217360500Y-86360000D02*
X216154000Y-85153500D01*
X216154000Y-85153500D02*
X216154000Y-69850000D01*
X216154000Y-69850000D02*
X216598500Y-69405500D01*
X216598500Y-69405500D02*
X216598500Y-69405500D01*
%TO.N,Net-(JP8-Pad1)*%
X178689000Y-82423000D02*
X176530000Y-82423000D01*
X176530000Y-82423000D02*
X175641000Y-83312000D01*
X175641000Y-83312000D02*
X175641000Y-101727000D01*
X176784000Y-102870000D02*
X179959000Y-102870000D01*
X175641000Y-101727000D02*
X176784000Y-102870000D01*
%TO.N,Net-(JP9-Pad1)*%
X178689000Y-84963000D02*
X177673000Y-84963000D01*
X177673000Y-84963000D02*
X176657000Y-85979000D01*
X176657000Y-85979000D02*
X176657000Y-98679000D01*
X178308000Y-100330000D02*
X179959000Y-100330000D01*
X176657000Y-98679000D02*
X178308000Y-100330000D01*
%TO.N,Net-(JP10-Pad1)*%
X178689000Y-90043000D02*
X180213000Y-90043000D01*
X180213000Y-90043000D02*
X180594000Y-90424000D01*
X180594000Y-90424000D02*
X180594000Y-94996000D01*
X179959000Y-95631000D02*
X179959000Y-97790000D01*
X180594000Y-94996000D02*
X179959000Y-95631000D01*
%TD*%
M02*
