%TF.GenerationSoftware,KiCad,Pcbnew,(5.1.12)-1*%
%TF.CreationDate,2026-05-12T19:31:19+02:00*%
%TF.ProjectId,SYS-80S,5359532d-3830-4532-9e6b-696361645f70,rev?*%
%TF.SameCoordinates,Original*%
%TF.FileFunction,Soldermask,Top*%
%TF.FilePolarity,Negative*%
%FSLAX46Y46*%
G04 Gerber Fmt 4.6, Leading zero omitted, Abs format (unit mm)*
G04 Created by KiCad (PCBNEW (5.1.12)-1) date 2026-05-12 19:31:19*
%MOMM*%
%LPD*%
G01*
G04 APERTURE LIST*
%ADD10O,1.700000X1.700000*%
%ADD11R,1.700000X1.700000*%
%ADD12O,1.600000X1.600000*%
%ADD13C,1.600000*%
%ADD14R,1.600000X1.600000*%
%ADD15R,1.000000X1.500000*%
%ADD16C,1.500000*%
%ADD17C,2.700000*%
%ADD18C,4.000000*%
%ADD19C,1.550000*%
%ADD20C,2.850000*%
G04 APERTURE END LIST*
D10*
%TO.C,JP9*%
X174879000Y-97790000D03*
D11*
X172339000Y-97790000D03*
%TD*%
D10*
%TO.C,JP10*%
X174879000Y-95250000D03*
D11*
X172339000Y-95250000D03*
%TD*%
D10*
%TO.C,JP8*%
X174879000Y-100330000D03*
D11*
X172339000Y-100330000D03*
%TD*%
D12*
%TO.C,R7*%
X201676000Y-86360000D03*
D13*
X211836000Y-86360000D03*
%TD*%
D12*
%TO.C,U9*%
X160147000Y-100076000D03*
X122047000Y-84836000D03*
X157607000Y-100076000D03*
X124587000Y-84836000D03*
X155067000Y-100076000D03*
X127127000Y-84836000D03*
X152527000Y-100076000D03*
X129667000Y-84836000D03*
X149987000Y-100076000D03*
X132207000Y-84836000D03*
X147447000Y-100076000D03*
X134747000Y-84836000D03*
X144907000Y-100076000D03*
X137287000Y-84836000D03*
X142367000Y-100076000D03*
X139827000Y-84836000D03*
X139827000Y-100076000D03*
X142367000Y-84836000D03*
X137287000Y-100076000D03*
X144907000Y-84836000D03*
X134747000Y-100076000D03*
X147447000Y-84836000D03*
X132207000Y-100076000D03*
X149987000Y-84836000D03*
X129667000Y-100076000D03*
X152527000Y-84836000D03*
X127127000Y-100076000D03*
X155067000Y-84836000D03*
X124587000Y-100076000D03*
X157607000Y-84836000D03*
X122047000Y-100076000D03*
D14*
X160147000Y-84836000D03*
%TD*%
D12*
%TO.C,U19*%
X178689000Y-72263000D03*
X171069000Y-90043000D03*
X178689000Y-74803000D03*
X171069000Y-87503000D03*
X178689000Y-77343000D03*
X171069000Y-84963000D03*
X178689000Y-79883000D03*
X171069000Y-82423000D03*
X178689000Y-82423000D03*
X171069000Y-79883000D03*
X178689000Y-84963000D03*
X171069000Y-77343000D03*
X178689000Y-87503000D03*
X171069000Y-74803000D03*
X178689000Y-90043000D03*
D14*
X171069000Y-72263000D03*
%TD*%
D15*
%TO.C,JP7*%
X217375500Y-83820000D03*
X216075500Y-83820000D03*
%TD*%
D12*
%TO.C,U13*%
X172085000Y-38100000D03*
X164465000Y-53340000D03*
X172085000Y-40640000D03*
X164465000Y-50800000D03*
X172085000Y-43180000D03*
X164465000Y-48260000D03*
X172085000Y-45720000D03*
X164465000Y-45720000D03*
X172085000Y-48260000D03*
X164465000Y-43180000D03*
X172085000Y-50800000D03*
X164465000Y-40640000D03*
X172085000Y-53340000D03*
D14*
X164465000Y-38100000D03*
%TD*%
D12*
%TO.C,R12*%
X182703000Y-80209000D03*
D13*
X182703000Y-90369000D03*
%TD*%
D16*
%TO.C,Y2*%
X188053000Y-83019000D03*
X188053000Y-87919000D03*
%TD*%
D13*
%TO.C,C17*%
X192739000Y-83058000D03*
X197739000Y-83058000D03*
%TD*%
%TO.C,C16*%
X192739000Y-86360000D03*
X197739000Y-86360000D03*
%TD*%
D12*
%TO.C,U10*%
X160147000Y-121158000D03*
X111887000Y-105918000D03*
X157607000Y-121158000D03*
X114427000Y-105918000D03*
X155067000Y-121158000D03*
X116967000Y-105918000D03*
X152527000Y-121158000D03*
X119507000Y-105918000D03*
X149987000Y-121158000D03*
X122047000Y-105918000D03*
X147447000Y-121158000D03*
X124587000Y-105918000D03*
X144907000Y-121158000D03*
X127127000Y-105918000D03*
X142367000Y-121158000D03*
X129667000Y-105918000D03*
X139827000Y-121158000D03*
X132207000Y-105918000D03*
X137287000Y-121158000D03*
X134747000Y-105918000D03*
X134747000Y-121158000D03*
X137287000Y-105918000D03*
X132207000Y-121158000D03*
X139827000Y-105918000D03*
X129667000Y-121158000D03*
X142367000Y-105918000D03*
X127127000Y-121158000D03*
X144907000Y-105918000D03*
X124587000Y-121158000D03*
X147447000Y-105918000D03*
X122047000Y-121158000D03*
X149987000Y-105918000D03*
X119507000Y-121158000D03*
X152527000Y-105918000D03*
X116967000Y-121158000D03*
X155067000Y-105918000D03*
X114427000Y-121158000D03*
X157607000Y-105918000D03*
X111887000Y-121158000D03*
D14*
X160147000Y-105918000D03*
%TD*%
D12*
%TO.C,U17*%
X208915000Y-91313000D03*
X193675000Y-124333000D03*
X208915000Y-93853000D03*
X193675000Y-121793000D03*
X208915000Y-96393000D03*
X193675000Y-119253000D03*
X208915000Y-98933000D03*
X193675000Y-116713000D03*
X208915000Y-101473000D03*
X193675000Y-114173000D03*
X208915000Y-104013000D03*
X193675000Y-111633000D03*
X208915000Y-106553000D03*
X193675000Y-109093000D03*
X208915000Y-109093000D03*
X193675000Y-106553000D03*
X208915000Y-111633000D03*
X193675000Y-104013000D03*
X208915000Y-114173000D03*
X193675000Y-101473000D03*
X208915000Y-116713000D03*
X193675000Y-98933000D03*
X208915000Y-119253000D03*
X193675000Y-96393000D03*
X208915000Y-121793000D03*
X193675000Y-93853000D03*
X208915000Y-124333000D03*
D14*
X193675000Y-91313000D03*
%TD*%
D12*
%TO.C,U16*%
X178689000Y-106426000D03*
X171069000Y-124206000D03*
X178689000Y-108966000D03*
X171069000Y-121666000D03*
X178689000Y-111506000D03*
X171069000Y-119126000D03*
X178689000Y-114046000D03*
X171069000Y-116586000D03*
X178689000Y-116586000D03*
X171069000Y-114046000D03*
X178689000Y-119126000D03*
X171069000Y-111506000D03*
X178689000Y-121666000D03*
X171069000Y-108966000D03*
X178689000Y-124206000D03*
D14*
X171069000Y-106426000D03*
%TD*%
D10*
%TO.C,J3*%
X185293000Y-124206000D03*
X182753000Y-124206000D03*
X185293000Y-121666000D03*
X182753000Y-121666000D03*
X185293000Y-119126000D03*
X182753000Y-119126000D03*
X185293000Y-116586000D03*
X182753000Y-116586000D03*
X185293000Y-114046000D03*
X182753000Y-114046000D03*
X185293000Y-111506000D03*
X182753000Y-111506000D03*
X185293000Y-108966000D03*
X182753000Y-108966000D03*
X185293000Y-106426000D03*
D11*
X182753000Y-106426000D03*
%TD*%
D17*
%TO.C,H2*%
X218199000Y-125820000D03*
%TD*%
%TO.C,H1*%
X218199000Y-37020000D03*
%TD*%
D12*
%TO.C,U15*%
X205359000Y-60960000D03*
X197739000Y-78740000D03*
X205359000Y-63500000D03*
X197739000Y-76200000D03*
X205359000Y-66040000D03*
X197739000Y-73660000D03*
X205359000Y-68580000D03*
X197739000Y-71120000D03*
X205359000Y-71120000D03*
X197739000Y-68580000D03*
X205359000Y-73660000D03*
X197739000Y-66040000D03*
X205359000Y-76200000D03*
X197739000Y-63500000D03*
X205359000Y-78740000D03*
D14*
X197739000Y-60960000D03*
%TD*%
D18*
%TO.C,J2*%
X211999000Y-52953000D03*
X211999000Y-77953000D03*
D13*
X214539000Y-61298000D03*
X214539000Y-64068000D03*
X214539000Y-66838000D03*
X214539000Y-69608000D03*
X211699000Y-59913000D03*
X211699000Y-62683000D03*
X211699000Y-65453000D03*
X211699000Y-68223000D03*
D14*
X211699000Y-70993000D03*
%TD*%
D13*
%TO.C,C15*%
X193294000Y-74335000D03*
D14*
X193294000Y-76835000D03*
%TD*%
D13*
%TO.C,C14*%
X201549000Y-54015000D03*
D14*
X201549000Y-56515000D03*
%TD*%
D13*
%TO.C,C13*%
X193294000Y-70445000D03*
D14*
X193294000Y-67945000D03*
%TD*%
D13*
%TO.C,C12*%
X193294000Y-64095000D03*
D14*
X193294000Y-61595000D03*
%TD*%
D10*
%TO.C,JP3*%
X163957000Y-69469000D03*
X161417000Y-69469000D03*
D11*
X158877000Y-69469000D03*
%TD*%
D10*
%TO.C,JP6*%
X163957000Y-60325000D03*
D11*
X163957000Y-57785000D03*
%TD*%
D10*
%TO.C,JP5*%
X161417000Y-60325000D03*
D11*
X161417000Y-57785000D03*
%TD*%
D10*
%TO.C,JP4*%
X158877000Y-60325000D03*
D11*
X158877000Y-57785000D03*
%TD*%
D13*
%TO.C,C10*%
X136097000Y-125476000D03*
X141097000Y-125476000D03*
%TD*%
D12*
%TO.C,U6*%
X81699000Y-113600000D03*
X104559000Y-121220000D03*
X84239000Y-113600000D03*
X102019000Y-121220000D03*
X86779000Y-113600000D03*
X99479000Y-121220000D03*
X89319000Y-113600000D03*
X96939000Y-121220000D03*
X91859000Y-113600000D03*
X94399000Y-121220000D03*
X94399000Y-113600000D03*
X91859000Y-121220000D03*
X96939000Y-113600000D03*
X89319000Y-121220000D03*
X99479000Y-113600000D03*
X86779000Y-121220000D03*
X102019000Y-113600000D03*
X84239000Y-121220000D03*
X104559000Y-113600000D03*
D14*
X81699000Y-121220000D03*
%TD*%
D12*
%TO.C,U5*%
X81699000Y-98100000D03*
X104559000Y-105720000D03*
X84239000Y-98100000D03*
X102019000Y-105720000D03*
X86779000Y-98100000D03*
X99479000Y-105720000D03*
X89319000Y-98100000D03*
X96939000Y-105720000D03*
X91859000Y-98100000D03*
X94399000Y-105720000D03*
X94399000Y-98100000D03*
X91859000Y-105720000D03*
X96939000Y-98100000D03*
X89319000Y-105720000D03*
X99479000Y-98100000D03*
X86779000Y-105720000D03*
X102019000Y-98100000D03*
X84239000Y-105720000D03*
X104559000Y-98100000D03*
D14*
X81699000Y-105720000D03*
%TD*%
D12*
%TO.C,U14*%
X160401000Y-38100000D03*
X152781000Y-53340000D03*
X160401000Y-40640000D03*
X152781000Y-50800000D03*
X160401000Y-43180000D03*
X152781000Y-48260000D03*
X160401000Y-45720000D03*
X152781000Y-45720000D03*
X160401000Y-48260000D03*
X152781000Y-43180000D03*
X160401000Y-50800000D03*
X152781000Y-40640000D03*
X160401000Y-53340000D03*
D14*
X152781000Y-38100000D03*
%TD*%
D12*
%TO.C,U12*%
X155067000Y-79248000D03*
X122047000Y-64008000D03*
X152527000Y-79248000D03*
X124587000Y-64008000D03*
X149987000Y-79248000D03*
X127127000Y-64008000D03*
X147447000Y-79248000D03*
X129667000Y-64008000D03*
X144907000Y-79248000D03*
X132207000Y-64008000D03*
X142367000Y-79248000D03*
X134747000Y-64008000D03*
X139827000Y-79248000D03*
X137287000Y-64008000D03*
X137287000Y-79248000D03*
X139827000Y-64008000D03*
X134747000Y-79248000D03*
X142367000Y-64008000D03*
X132207000Y-79248000D03*
X144907000Y-64008000D03*
X129667000Y-79248000D03*
X147447000Y-64008000D03*
X127127000Y-79248000D03*
X149987000Y-64008000D03*
X124587000Y-79248000D03*
X152527000Y-64008000D03*
X122047000Y-79248000D03*
D14*
X155067000Y-64008000D03*
%TD*%
D12*
%TO.C,U11*%
X195707000Y-38100000D03*
X188087000Y-53340000D03*
X195707000Y-40640000D03*
X188087000Y-50800000D03*
X195707000Y-43180000D03*
X188087000Y-48260000D03*
X195707000Y-45720000D03*
X188087000Y-45720000D03*
X195707000Y-48260000D03*
X188087000Y-43180000D03*
X195707000Y-50800000D03*
X188087000Y-40640000D03*
X195707000Y-53340000D03*
D14*
X188087000Y-38100000D03*
%TD*%
D12*
%TO.C,U8*%
X184023000Y-38100000D03*
X176403000Y-53340000D03*
X184023000Y-40640000D03*
X176403000Y-50800000D03*
X184023000Y-43180000D03*
X176403000Y-48260000D03*
X184023000Y-45720000D03*
X176403000Y-45720000D03*
X184023000Y-48260000D03*
X176403000Y-43180000D03*
X184023000Y-50800000D03*
X176403000Y-40640000D03*
X184023000Y-53340000D03*
D14*
X176403000Y-38100000D03*
%TD*%
D12*
%TO.C,R4*%
X121920000Y-125476000D03*
D13*
X132080000Y-125476000D03*
%TD*%
D12*
%TO.C,R3*%
X125349000Y-56388000D03*
D13*
X135509000Y-56388000D03*
%TD*%
D12*
%TO.C,R2*%
X75311000Y-99314000D03*
D13*
X75311000Y-89154000D03*
%TD*%
D12*
%TO.C,R1*%
X145669000Y-125603000D03*
D13*
X155829000Y-125603000D03*
%TD*%
%TO.C,C11*%
X71033000Y-37211000D03*
D14*
X73533000Y-37211000D03*
%TD*%
D13*
%TO.C,C7*%
X201295000Y-38180000D03*
X201295000Y-43180000D03*
%TD*%
%TO.C,C5*%
X211836000Y-96313000D03*
X211836000Y-91313000D03*
%TD*%
D12*
%TO.C,U2*%
X120719000Y-38020000D03*
X113099000Y-53260000D03*
X120719000Y-40560000D03*
X113099000Y-50720000D03*
X120719000Y-43100000D03*
X113099000Y-48180000D03*
X120719000Y-45640000D03*
X113099000Y-45640000D03*
X120719000Y-48180000D03*
X113099000Y-43100000D03*
X120719000Y-50720000D03*
X113099000Y-40560000D03*
X120719000Y-53260000D03*
D14*
X113099000Y-38020000D03*
%TD*%
D12*
%TO.C,U4*%
X81699000Y-80600000D03*
X104559000Y-88220000D03*
X84239000Y-80600000D03*
X102019000Y-88220000D03*
X86779000Y-80600000D03*
X99479000Y-88220000D03*
X89319000Y-80600000D03*
X96939000Y-88220000D03*
X91859000Y-80600000D03*
X94399000Y-88220000D03*
X94399000Y-80600000D03*
X91859000Y-88220000D03*
X96939000Y-80600000D03*
X89319000Y-88220000D03*
X99479000Y-80600000D03*
X86779000Y-88220000D03*
X102019000Y-80600000D03*
X84239000Y-88220000D03*
X104559000Y-80600000D03*
D14*
X81699000Y-88220000D03*
%TD*%
D19*
%TO.C,J1*%
X72279000Y-42230000D03*
X72279000Y-44770000D03*
X72279000Y-47310000D03*
X72279000Y-49850000D03*
X72279000Y-52390000D03*
X72279000Y-54930000D03*
X72279000Y-57470000D03*
X72279000Y-60010000D03*
X72279000Y-62550000D03*
X72279000Y-65090000D03*
X72279000Y-67630000D03*
X72279000Y-70170000D03*
X72279000Y-72710000D03*
X72279000Y-75250000D03*
X72279000Y-77790000D03*
X72279000Y-80330000D03*
X72279000Y-82870000D03*
X72279000Y-85410000D03*
X72279000Y-87950000D03*
X72279000Y-90490000D03*
X72279000Y-93030000D03*
X72279000Y-95570000D03*
X72279000Y-98110000D03*
X72279000Y-100650000D03*
X72279000Y-103190000D03*
X72279000Y-105730000D03*
X72279000Y-108270000D03*
X72279000Y-110810000D03*
X72279000Y-113350000D03*
X72279000Y-115890000D03*
X72279000Y-118430000D03*
X72279000Y-120970000D03*
X67199000Y-42230000D03*
X67199000Y-44770000D03*
X67199000Y-47310000D03*
X67199000Y-49850000D03*
X67199000Y-52390000D03*
X67199000Y-54930000D03*
X67199000Y-57470000D03*
X67199000Y-60010000D03*
X67199000Y-62550000D03*
X67199000Y-65090000D03*
X67199000Y-67630000D03*
X67199000Y-70170000D03*
X67199000Y-72710000D03*
X67199000Y-75250000D03*
X67199000Y-77790000D03*
X67199000Y-80330000D03*
X67199000Y-82870000D03*
X67199000Y-85410000D03*
X67199000Y-87950000D03*
X67199000Y-90490000D03*
X67199000Y-93030000D03*
X67199000Y-95570000D03*
X67199000Y-98110000D03*
X67199000Y-100650000D03*
X67199000Y-103190000D03*
X67199000Y-105730000D03*
X67199000Y-108270000D03*
X67199000Y-110810000D03*
X67199000Y-113350000D03*
X67199000Y-115890000D03*
X67199000Y-118430000D03*
G36*
G01*
X67724450Y-121745000D02*
X66673550Y-121745000D01*
G75*
G02*
X66424000Y-121495450I0J249550D01*
G01*
X66424000Y-120444550D01*
G75*
G02*
X66673550Y-120195000I249550J0D01*
G01*
X67724450Y-120195000D01*
G75*
G02*
X67974000Y-120444550I0J-249550D01*
G01*
X67974000Y-121495450D01*
G75*
G02*
X67724450Y-121745000I-249550J0D01*
G01*
G37*
D20*
X64659000Y-37150000D03*
X64659000Y-126050000D03*
%TD*%
D13*
%TO.C,C3*%
X78359000Y-43608000D03*
X78359000Y-38608000D03*
%TD*%
D12*
%TO.C,U3*%
X81699000Y-62600000D03*
X104559000Y-70220000D03*
X84239000Y-62600000D03*
X102019000Y-70220000D03*
X86779000Y-62600000D03*
X99479000Y-70220000D03*
X89319000Y-62600000D03*
X96939000Y-70220000D03*
X91859000Y-62600000D03*
X94399000Y-70220000D03*
X94399000Y-62600000D03*
X91859000Y-70220000D03*
X96939000Y-62600000D03*
X89319000Y-70220000D03*
X99479000Y-62600000D03*
X86779000Y-70220000D03*
X102019000Y-62600000D03*
X84239000Y-70220000D03*
X104559000Y-62600000D03*
D14*
X81699000Y-70220000D03*
%TD*%
D12*
%TO.C,R11*%
X138049000Y-53340000D03*
D13*
X148209000Y-53340000D03*
%TD*%
D12*
%TO.C,R10*%
X138049000Y-56515000D03*
D13*
X148209000Y-56515000D03*
%TD*%
D12*
%TO.C,U7*%
X129523000Y-49972000D03*
X137143000Y-42352000D03*
X129523000Y-47432000D03*
X137143000Y-44892000D03*
X129523000Y-44892000D03*
X137143000Y-47432000D03*
X129523000Y-42352000D03*
D14*
X137143000Y-49972000D03*
%TD*%
D12*
%TO.C,R9*%
X126543000Y-52532000D03*
D13*
X126543000Y-42372000D03*
%TD*%
%TO.C,C9*%
X140143000Y-49972000D03*
X145143000Y-49972000D03*
%TD*%
%TO.C,C8*%
X142343000Y-45672000D03*
D14*
X142343000Y-43172000D03*
%TD*%
D10*
%TO.C,JP2*%
X138003000Y-37972000D03*
D11*
X140543000Y-37972000D03*
%TD*%
D12*
%TO.C,R8*%
X124183000Y-37972000D03*
D13*
X134343000Y-37972000D03*
%TD*%
D12*
%TO.C,U1*%
X84879000Y-53220000D03*
X92499000Y-37980000D03*
X84879000Y-50680000D03*
X92499000Y-40520000D03*
X84879000Y-48140000D03*
X92499000Y-43060000D03*
X84879000Y-45600000D03*
X92499000Y-45600000D03*
X84879000Y-43060000D03*
X92499000Y-48140000D03*
X84879000Y-40520000D03*
X92499000Y-50680000D03*
X84879000Y-37980000D03*
D14*
X92499000Y-53220000D03*
%TD*%
D16*
%TO.C,Y1*%
X108099000Y-39320000D03*
X108099000Y-44220000D03*
%TD*%
D12*
%TO.C,R6*%
X100099000Y-48180000D03*
D13*
X100099000Y-38020000D03*
%TD*%
D12*
%TO.C,R5*%
X96699000Y-53380000D03*
D13*
X96699000Y-43220000D03*
%TD*%
D10*
%TO.C,JP1*%
X108077000Y-55372000D03*
X108077000Y-52832000D03*
D11*
X108077000Y-50292000D03*
%TD*%
D13*
%TO.C,C6*%
X130509000Y-53340000D03*
X135509000Y-53340000D03*
%TD*%
%TO.C,C4*%
X81614000Y-75565000D03*
X86614000Y-75565000D03*
%TD*%
%TO.C,C2*%
X146685000Y-40346000D03*
D14*
X146685000Y-37846000D03*
%TD*%
D13*
%TO.C,C1*%
X103499000Y-43220000D03*
X103499000Y-48220000D03*
%TD*%
M02*
