M48
; DRILL file {KiCad (5.1.12)-1} date 05/18/26 10:42:34
; FORMAT={-:-/ absolute / inch / decimal}
; #@! TF.CreationDate,2026-05-18T10:42:34+02:00
; #@! TF.GenerationSoftware,Kicad,Pcbnew,(5.1.12)-1
; #@! TF.FileFunction,Plated,1,2,PTH
FMAT,2
INCH
T1C0.0157
T2C0.0197
T3C0.0315
T4C0.0394
T5C0.1260
%
G90
G05
T1
X3.085Y-3.7
X3.2212Y-4.7543
X3.2803Y-4.7937
X3.325Y-4.8868
X3.33Y-4.505
X3.335Y-3.88
X3.335Y-4.1583
X3.36Y-2.05
X3.36Y-3.475
X3.375Y-3.56
X3.375Y-4.01
X3.375Y-4.79
X3.4Y-2.515
X3.4Y-3.15
X3.4Y-3.25
X3.4181Y-4.5772
X3.435Y-3.615
X3.4378Y-5.0693
X3.4528Y-1.7622
X3.565Y-2.5
X3.6165Y-4.8035
X3.7165Y-4.7835
X3.765Y-3.49
X3.77Y-4.13
X3.77Y-4.74
X3.7719Y-3.2031
X3.795Y-2.13
X3.805Y-4.415
X3.8224Y-4.4626
X3.845Y-3.11
X3.8497Y-4.3803
X3.915Y-4.73
X3.9185Y-3.4515
X3.965Y-4.42
X3.965Y-5.05
X3.965Y-5.13
X3.9675Y-4.7825
X3.975Y-2.71
X4.035Y-5.05
X4.035Y-5.13
X4.06Y-3.42
X4.065Y-4.38
X4.155Y-5.05
X4.155Y-5.13
X4.1618Y-4.1868
X4.215Y-4.96
X4.215Y-5.065
X4.2165Y-3.0285
X4.2165Y-4.0965
X4.265Y-2.23
X4.265Y-4.96
X4.265Y-5.065
X4.315Y-4.07
X4.3165Y-2.9615
X4.3165Y-3.4915
X4.32Y-4.96
X4.32Y-5.065
X4.37Y-4.345
X4.375Y-4.96
X4.375Y-5.065
X4.4165Y-2.3315
X4.42Y-4.07
X4.42Y-4.185
X4.42Y-4.96
X4.42Y-5.065
X4.495Y-5.05
X4.495Y-5.125
X4.535Y-2.93
X4.535Y-4.965
X4.575Y-2.7
X4.575Y-4.93
X4.6153Y-4.8197
X4.6344Y-2.3606
X4.655Y-2.82
X4.6705Y-3.7445
X4.6705Y-4.1295
X4.675Y-2.48
X4.6875Y-2.8648
X4.705Y-3.03
X4.705Y-4.755
X4.725Y-2.75
X4.735Y-2.54
X4.755Y-2.96
X4.805Y-2.45
X4.85Y-3.805
X4.855Y-3.07
X4.885Y-3.21
X4.885Y-3.68
X4.8935Y-2.4115
X4.8935Y-2.6685
X4.914Y-2.991
X4.9425Y-2.3175
X4.945Y-2.57
X4.945Y-3.96
X4.955Y-4.42
X4.975Y-2.51
X4.975Y-3.715
X5.005Y-4.54
X5.005Y-5.01
X5.015Y-2.9
X5.015Y-3.44
X5.015Y-3.84
X5.125Y-2.99
X5.16Y-4.72
X5.205Y-4.175
X5.205Y-4.47
X5.255Y-4.505
X5.305Y-4.135
X5.305Y-4.42
X5.3578Y-4.4672
X5.4026Y-4.5724
X5.405Y-3.04
X5.405Y-4.1
X5.405Y-4.205
X5.445Y-4.42
X5.505Y-4.205
X5.505Y-4.5
X5.555Y-4.785
X5.605Y-2.94
X5.605Y-3.96
X5.605Y-4.43
X5.605Y-4.94
X5.6522Y-4.5728
X5.705Y-3.92
X5.705Y-4.1
X5.705Y-4.61
X5.765Y-2.68
X5.795Y-4.13
X5.805Y-4.63
X5.8578Y-4.4672
X5.905Y-3.955
X5.905Y-4.72
X5.9522Y-4.4978
X5.985Y-2.5
X6.005Y-3.885
X6.005Y-4.175
X6.005Y-4.64
X6.0485Y-2.4115
X6.0578Y-4.6272
X6.105Y-3.85
X6.105Y-4.38
X6.11Y-4.54
X6.125Y-1.76
X6.155Y-4.72
X6.185Y-2.5
X6.205Y-3.3
X6.205Y-4.105
X6.205Y-4.39
X6.255Y-2.9
X6.3Y-3.715
X6.305Y-3.33
X6.305Y-3.66
X6.31Y-2.45
X6.32Y-2.77
X6.3825Y-2.325
X6.385Y-2.4
X6.405Y-3.61
X6.405Y-4.105
X6.43Y-5.235
X6.435Y-2.2
X6.455Y-3.66
X6.46Y-4.43
X6.495Y-1.8
X6.495Y-2.14
X6.495Y-3.04
X6.5003Y-3.2247
X6.505Y-3.635
X6.535Y-2.94
X6.5503Y-3.5747
X6.555Y-3.955
X6.555Y-4.39
X6.6058Y-2.6742
X6.61Y-3.275
X6.61Y-3.96
X6.645Y-4.43
X6.69Y-3.92
X6.695Y-3.48
X6.7058Y-2.6742
X6.725Y-3.885
X6.725Y-4.79
X6.755Y-3.85
X6.7617Y-3.6333
X6.7707Y-4.7543
X6.84Y-4.195
X6.845Y-2.32
X6.845Y-2.8175
X6.8722Y-4.5872
X6.885Y-2.625
X6.89Y-4.5
X6.905Y-1.7
X6.9053Y-1.8547
X6.915Y-4.65
X6.92Y-2.32
X6.975Y-2.05
X6.975Y-2.1
X6.975Y-2.345
X7.0025Y-2.8575
X7.01Y-2.305
X7.0108Y-2.6742
X7.1397Y-4.6353
X7.18Y-5.01
X7.18Y-5.235
X7.19Y-2.055
X7.19Y-2.625
X7.325Y-1.7
X7.325Y-2.57
X7.3297Y-1.6547
X7.365Y-1.6
X7.365Y-2.6675
X7.44Y-2.745
X7.54Y-2.315
X7.69Y-2.315
X7.7903Y-1.9453
X8.005Y-3.29
X8.12Y-1.71
X8.255Y-3.995
X8.31Y-1.64
X8.3197Y-2.8453
X8.3403Y-3.9497
X8.375Y-4.195
X8.385Y-1.42
X8.385Y-4.395
X8.39Y-4.59
X8.445Y-1.71
X8.5275Y-2.7325
T2
X3.0204Y-3.8094
X3.215Y-3.513
X3.215Y-4.1626
X3.225Y-2.1163
X3.233Y-3.3685
X3.2567Y-1.7622
X3.2724Y-3.3213
X3.3153Y-3.2626
X3.3196Y-2.1638
X3.3196Y-3.1795
X3.3196Y-3.7386
X3.6114Y-4.4626
X3.6661Y-2.6441
X4.0283Y-2.3606
X4.3108Y-2.4089
T3
X3.0966Y-1.565
X3.195Y-1.565
X3.265Y-3.61
X3.265Y-4.01
X3.385Y-1.62
X3.385Y-1.8169
X3.5131Y-3.075
X3.5165Y-2.5646
X3.5165Y-2.8646
X3.5165Y-3.2732
X3.5165Y-3.5732
X3.5165Y-3.9622
X3.5165Y-4.2622
X3.5165Y-4.5724
X3.5165Y-4.8724
X3.6165Y-2.5646
X3.6165Y-2.8646
X3.6165Y-3.2732
X3.6165Y-3.5732
X3.6165Y-3.9622
X3.6165Y-4.2622
X3.6165Y-4.5724
X3.6165Y-4.8724
X3.6417Y-1.5953
X3.6417Y-1.6953
X3.6417Y-1.7953
X3.6417Y-1.8953
X3.6417Y-1.9953
X3.6417Y-2.0953
X3.6417Y-2.1953
X3.71Y-3.075
X3.7165Y-2.5646
X3.7165Y-2.8646
X3.7165Y-3.2732
X3.7165Y-3.5732
X3.7165Y-3.9622
X3.7165Y-4.2622
X3.7165Y-4.5724
X3.7165Y-4.8724
X3.8165Y-2.5646
X3.8165Y-2.8646
X3.8165Y-3.2732
X3.8165Y-3.5732
X3.8165Y-3.9622
X3.8165Y-4.2622
X3.8165Y-4.5724
X3.8165Y-4.8724
X3.9165Y-2.5646
X3.9165Y-2.8646
X3.9165Y-3.2732
X3.9165Y-3.5732
X3.9165Y-3.9622
X3.9165Y-4.2622
X3.9165Y-4.5724
X3.9165Y-4.8724
X3.9417Y-1.5953
X3.9417Y-1.6953
X3.9417Y-1.7953
X3.9417Y-1.8953
X3.9417Y-1.9953
X3.9417Y-2.0953
X3.9417Y-2.1953
X4.0165Y-2.5646
X4.0165Y-2.8646
X4.0165Y-3.2732
X4.0165Y-3.5732
X4.0165Y-3.9622
X4.0165Y-4.2622
X4.0165Y-4.5724
X4.0165Y-4.8724
X4.107Y-1.8016
X4.107Y-2.2016
X4.1165Y-2.5646
X4.1165Y-2.8646
X4.1165Y-3.2732
X4.1165Y-3.5732
X4.1165Y-3.9622
X4.1165Y-4.2622
X4.1165Y-4.5724
X4.1165Y-4.8724
X4.2165Y-2.5646
X4.2165Y-2.8646
X4.2165Y-3.2732
X4.2165Y-3.5732
X4.2165Y-3.9622
X4.2165Y-4.2622
X4.2165Y-4.5724
X4.2165Y-4.8724
X4.2409Y-1.5969
X4.2409Y-1.9969
X4.3165Y-2.5646
X4.3165Y-2.8646
X4.3165Y-3.2732
X4.3165Y-3.5732
X4.3165Y-3.9622
X4.3165Y-4.2622
X4.3165Y-4.5724
X4.3165Y-4.8724
X4.3748Y-1.8016
X4.3748Y-1.9984
X4.4165Y-2.5646
X4.4165Y-2.8646
X4.4165Y-3.2732
X4.4165Y-3.5732
X4.4165Y-3.9622
X4.4165Y-4.2622
X4.4165Y-4.5724
X4.4165Y-4.8724
X4.5559Y-1.648
X4.5559Y-1.8409
X4.705Y-4.27
X4.705Y-4.87
X4.7527Y-1.5969
X4.7527Y-1.6969
X4.7527Y-1.7969
X4.7527Y-1.8969
X4.7527Y-1.9969
X4.7527Y-2.0969
X4.7527Y-2.1969
X4.805Y-4.27
X4.805Y-4.87
X4.905Y-4.27
X4.905Y-4.87
X5.005Y-4.27
X5.005Y-4.87
X5.0527Y-1.5969
X5.0527Y-1.6969
X5.0527Y-1.7969
X5.0527Y-1.8969
X5.0527Y-1.9969
X5.0527Y-2.0969
X5.0527Y-2.1969
X5.1Y-5.04
X5.105Y-2.62
X5.105Y-3.22
X5.105Y-3.44
X5.105Y-4.04
X5.105Y-4.27
X5.105Y-4.87
X5.1891Y-1.595
X5.205Y-2.62
X5.205Y-3.22
X5.205Y-3.44
X5.205Y-4.04
X5.205Y-4.27
X5.205Y-4.87
X5.235Y-2.32
X5.282Y-1.7682
X5.282Y-2.1682
X5.305Y-2.62
X5.305Y-3.22
X5.305Y-3.44
X5.305Y-4.04
X5.305Y-4.27
X5.305Y-4.87
X5.3993Y-1.7674
X5.3993Y-1.8674
X5.3993Y-1.9674
X5.3993Y-2.0674
X5.405Y-2.62
X5.405Y-3.22
X5.405Y-3.44
X5.405Y-4.04
X5.405Y-4.27
X5.405Y-4.87
X5.4381Y-2.2
X5.5Y-5.04
X5.505Y-2.62
X5.505Y-3.22
X5.505Y-3.44
X5.505Y-4.04
X5.505Y-4.27
X5.505Y-4.87
X5.5891Y-1.595
X5.605Y-2.62
X5.605Y-3.22
X5.605Y-3.44
X5.605Y-4.04
X5.605Y-4.27
X5.605Y-4.87
X5.635Y-2.2
X5.635Y-2.32
X5.6581Y-5.04
X5.6993Y-1.7674
X5.6993Y-1.8674
X5.6993Y-1.9674
X5.6993Y-2.0674
X5.705Y-2.62
X5.705Y-3.22
X5.705Y-3.44
X5.705Y-4.04
X5.705Y-4.27
X5.705Y-4.87
X5.735Y-2.2
X5.735Y-2.325
X5.805Y-2.62
X5.805Y-3.22
X5.805Y-3.44
X5.805Y-4.04
X5.805Y-4.27
X5.805Y-4.87
X5.8174Y-2.0674
X5.855Y-5.04
X5.9041Y-1.7997
X5.9041Y-1.8981
X5.905Y-2.62
X5.905Y-3.22
X5.905Y-3.44
X5.905Y-4.04
X5.905Y-4.27
X5.905Y-4.87
X6.005Y-2.62
X6.005Y-3.22
X6.005Y-3.44
X6.005Y-4.04
X6.005Y-4.27
X6.005Y-4.87
X6.0143Y-2.0674
X6.035Y-5.045
X6.075Y-1.59
X6.075Y-1.6884
X6.105Y-2.62
X6.105Y-3.22
X6.105Y-3.44
X6.105Y-4.04
X6.105Y-4.27
X6.105Y-4.87
X6.135Y-2.2
X6.135Y-2.325
X6.205Y-2.62
X6.205Y-3.22
X6.205Y-3.44
X6.205Y-4.04
X6.205Y-4.27
X6.205Y-4.87
X6.305Y-2.62
X6.305Y-3.22
X6.305Y-3.44
X6.305Y-4.04
X6.305Y-4.27
X6.305Y-4.87
X6.315Y-1.6
X6.315Y-1.7
X6.315Y-1.8
X6.315Y-1.9
X6.315Y-2.0
X6.315Y-2.1
X6.315Y-2.2
X6.405Y-2.62
X6.405Y-3.22
X6.405Y-3.44
X6.405Y-4.04
X6.405Y-4.27
X6.405Y-4.87
X6.435Y-5.045
X6.505Y-3.44
X6.505Y-4.04
X6.505Y-4.27
X6.505Y-4.87
X6.605Y-3.44
X6.605Y-4.04
X6.605Y-4.27
X6.605Y-4.87
X6.615Y-1.6
X6.615Y-1.7
X6.615Y-1.8
X6.615Y-1.9
X6.615Y-2.0
X6.615Y-2.1
X6.615Y-2.2
X6.775Y-1.6
X6.775Y-1.7
X6.775Y-1.8
X6.775Y-1.9
X6.775Y-2.0
X6.775Y-2.1
X6.775Y-2.2
X7.035Y-2.945
X7.035Y-3.045
X7.035Y-3.145
X7.035Y-3.245
X7.035Y-3.345
X7.035Y-3.445
X7.035Y-3.545
X7.035Y-3.645
X7.035Y-4.29
X7.035Y-4.39
X7.035Y-4.49
X7.035Y-4.59
X7.035Y-4.69
X7.035Y-4.79
X7.035Y-4.89
X7.035Y-4.99
X7.075Y-1.6
X7.075Y-1.7
X7.075Y-1.8
X7.075Y-1.9
X7.075Y-2.0
X7.075Y-2.1
X7.075Y-2.2
X7.245Y-1.6
X7.245Y-1.7
X7.245Y-1.8
X7.245Y-1.9
X7.245Y-2.0
X7.245Y-2.1
X7.245Y-2.2
X7.335Y-2.945
X7.335Y-3.045
X7.335Y-3.145
X7.335Y-3.245
X7.335Y-3.345
X7.335Y-3.445
X7.335Y-3.545
X7.335Y-3.645
X7.335Y-4.29
X7.335Y-4.39
X7.335Y-4.49
X7.335Y-4.59
X7.335Y-4.69
X7.335Y-4.79
X7.335Y-4.89
X7.335Y-4.99
X7.493Y-3.2578
X7.493Y-3.6578
X7.545Y-1.6
X7.545Y-1.7
X7.545Y-1.8
X7.545Y-1.9
X7.545Y-2.0
X7.545Y-2.1
X7.545Y-2.2
X7.7037Y-3.3685
X7.7037Y-3.5614
X7.705Y-1.6
X7.705Y-1.7
X7.705Y-1.8
X7.705Y-1.9
X7.705Y-2.0
X7.705Y-2.1
X7.705Y-2.2
X7.8881Y-3.37
X7.8881Y-3.5
X7.91Y-2.525
X7.91Y-2.6234
X7.91Y-2.775
X7.91Y-2.8734
X7.91Y-3.0266
X7.91Y-3.125
X7.925Y-3.695
X7.925Y-3.795
X7.925Y-3.895
X7.925Y-3.995
X7.925Y-4.095
X7.925Y-4.195
X7.925Y-4.295
X7.925Y-4.395
X7.925Y-4.495
X7.925Y-4.595
X7.925Y-4.695
X7.925Y-4.795
X7.925Y-4.895
X7.925Y-4.995
X8.005Y-1.6
X8.005Y-1.7
X8.005Y-1.8
X8.005Y-1.9
X8.005Y-2.0
X8.005Y-2.1
X8.005Y-2.2
X8.085Y-2.5
X8.085Y-2.6
X8.085Y-2.7
X8.085Y-2.8
X8.085Y-2.9
X8.085Y-3.0
X8.085Y-3.1
X8.085Y-3.2
X8.085Y-3.37
X8.085Y-3.5
X8.225Y-1.6031
X8.225Y-1.8
X8.235Y-2.2266
X8.235Y-2.325
X8.24Y-3.5
X8.385Y-2.5
X8.385Y-2.6
X8.385Y-2.7
X8.385Y-2.8
X8.385Y-2.9
X8.385Y-3.0
X8.385Y-3.1
X8.385Y-3.2
X8.525Y-3.695
X8.525Y-3.795
X8.525Y-3.895
X8.525Y-3.995
X8.525Y-4.095
X8.525Y-4.195
X8.525Y-4.295
X8.525Y-4.395
X8.525Y-4.495
X8.525Y-4.595
X8.525Y-4.695
X8.525Y-4.795
X8.525Y-4.895
X8.525Y-4.995
X8.64Y-3.5
X8.64Y-3.695
X8.64Y-3.8919
X8.76Y-3.69
X8.76Y-4.09
T4
X2.9456Y-1.7626
X2.9456Y-1.8626
X2.9456Y-1.9626
X2.9456Y-2.0626
X2.9456Y-2.1626
X2.9456Y-2.2626
X2.9456Y-2.3626
X2.9456Y-2.4626
X2.9456Y-2.5626
X2.9456Y-2.6626
X2.9456Y-2.7626
X2.9456Y-2.8626
X2.9456Y-2.9626
X2.9456Y-3.0626
X2.9456Y-3.1626
X2.9456Y-3.2626
X2.9456Y-3.3626
X2.9456Y-3.4626
X2.9456Y-3.5626
X2.9456Y-3.6626
X2.9456Y-3.7626
X2.9456Y-3.8626
X2.9456Y-3.9626
X2.9456Y-4.0626
X2.9456Y-4.1626
X2.9456Y-4.2626
X2.9456Y-4.3626
X2.9456Y-4.4626
X2.9456Y-4.5626
X2.9456Y-4.6626
X2.9456Y-4.7626
X2.9456Y-4.8626
X3.1456Y-1.7626
X3.1456Y-1.8626
X3.1456Y-1.9626
X3.1456Y-2.0626
X3.1456Y-2.1626
X3.1456Y-2.2626
X3.1456Y-2.3626
X3.1456Y-2.4626
X3.1456Y-2.5626
X3.1456Y-2.6626
X3.1456Y-2.7626
X3.1456Y-2.8626
X3.1456Y-2.9626
X3.1456Y-3.0626
X3.1456Y-3.1626
X3.1456Y-3.2626
X3.1456Y-3.3626
X3.1456Y-3.4626
X3.1456Y-3.5626
X3.1456Y-3.6626
X3.1456Y-3.7626
X3.1456Y-3.8626
X3.1456Y-3.9626
X3.1456Y-4.0626
X3.1456Y-4.1626
X3.1456Y-4.2626
X3.1456Y-4.3626
X3.1456Y-4.4626
X3.1456Y-4.5626
X3.1456Y-4.6626
X3.1456Y-4.7626
X3.1456Y-4.8626
X4.555Y-2.08
X4.555Y-2.18
X4.555Y-2.28
X5.7332Y-1.595
X5.8332Y-1.595
X6.555Y-2.375
X6.555Y-2.475
X6.555Y-2.835
X6.655Y-2.375
X6.655Y-2.475
X6.655Y-2.835
X6.755Y-2.375
X6.755Y-2.475
X6.755Y-2.835
X7.085Y-3.85
X7.085Y-3.95
X7.085Y-4.05
X7.185Y-3.85
X7.185Y-3.95
X7.185Y-4.05
X7.495Y-4.29
X7.495Y-4.39
X7.495Y-4.49
X7.495Y-4.59
X7.495Y-4.69
X7.495Y-4.79
X7.495Y-4.89
X7.495Y-4.99
X7.595Y-4.29
X7.595Y-4.39
X7.595Y-4.49
X7.595Y-4.59
X7.595Y-4.69
X7.595Y-4.79
X7.595Y-4.89
X7.595Y-4.99
X8.6346Y-2.4588
X8.6346Y-2.5678
X8.6346Y-2.6769
X8.6346Y-2.7859
X8.6346Y-2.895
X8.7464Y-2.5133
X8.7464Y-2.6224
X8.7464Y-2.7314
X8.7464Y-2.8405
T5
X8.6464Y-2.1848
X8.6464Y-3.169
T0
M30
