M48
; DRILL file {KiCad (5.1.12)-1} date 05/12/26 19:31:34
; FORMAT={-:-/ absolute / inch / decimal}
; #@! TF.CreationDate,2026-05-12T19:31:34+02:00
; #@! TF.GenerationSoftware,Kicad,Pcbnew,(5.1.12)-1
; #@! TF.FileFunction,Plated,1,2,PTH
FMAT,2
INCH
T1C0.0157
T2C0.0197
T3C0.0315
T4C0.0394
T5C0.1260
%
G90
G05
T1
X2.785Y-3.6
X2.9212Y-4.6543
X2.9803Y-4.6937
X3.025Y-4.7868
X3.03Y-4.405
X3.035Y-3.78
X3.035Y-4.0583
X3.06Y-1.95
X3.06Y-3.375
X3.075Y-3.46
X3.075Y-3.91
X3.075Y-4.69
X3.1Y-2.415
X3.1Y-3.05
X3.1Y-3.15
X3.1181Y-4.4772
X3.135Y-3.515
X3.1378Y-4.9693
X3.1528Y-1.6622
X3.265Y-2.4
X3.3165Y-4.7035
X3.4165Y-4.6835
X3.465Y-3.39
X3.47Y-4.03
X3.47Y-4.64
X3.4719Y-3.1031
X3.495Y-2.03
X3.505Y-4.315
X3.5224Y-4.3626
X3.545Y-3.01
X3.5497Y-4.2803
X3.615Y-4.63
X3.6185Y-3.3515
X3.665Y-4.32
X3.665Y-4.95
X3.665Y-5.03
X3.6675Y-4.6825
X3.675Y-2.61
X3.735Y-4.95
X3.735Y-5.03
X3.76Y-3.32
X3.765Y-4.28
X3.855Y-4.95
X3.855Y-5.03
X3.8618Y-4.0868
X3.915Y-4.86
X3.915Y-4.965
X3.9165Y-2.9285
X3.9165Y-3.9965
X3.965Y-2.13
X3.965Y-4.86
X3.965Y-4.965
X4.015Y-3.97
X4.0165Y-2.8615
X4.0165Y-3.3915
X4.02Y-4.86
X4.02Y-4.965
X4.07Y-4.245
X4.075Y-4.86
X4.075Y-4.965
X4.1165Y-2.2315
X4.12Y-3.97
X4.12Y-4.085
X4.12Y-4.86
X4.12Y-4.965
X4.195Y-4.95
X4.195Y-5.025
X4.235Y-2.83
X4.235Y-4.865
X4.275Y-2.6
X4.275Y-4.83
X4.3153Y-4.7197
X4.3344Y-2.2606
X4.355Y-2.72
X4.3705Y-3.6445
X4.3705Y-4.0295
X4.375Y-2.38
X4.3875Y-2.7648
X4.405Y-2.93
X4.405Y-4.655
X4.425Y-2.65
X4.435Y-2.44
X4.455Y-2.86
X4.505Y-2.35
X4.55Y-3.705
X4.555Y-2.97
X4.585Y-3.11
X4.585Y-3.58
X4.5935Y-2.3115
X4.5935Y-2.5685
X4.614Y-2.891
X4.6425Y-2.2175
X4.645Y-2.47
X4.645Y-3.86
X4.655Y-4.32
X4.675Y-2.41
X4.675Y-3.615
X4.705Y-4.44
X4.705Y-4.91
X4.715Y-2.8
X4.715Y-3.34
X4.715Y-3.74
X4.825Y-2.89
X4.86Y-4.62
X4.905Y-4.075
X4.905Y-4.37
X4.955Y-4.405
X5.005Y-4.035
X5.005Y-4.32
X5.0578Y-4.3672
X5.1026Y-4.4724
X5.105Y-2.94
X5.105Y-4.0
X5.105Y-4.105
X5.145Y-4.32
X5.205Y-4.105
X5.205Y-4.4
X5.255Y-4.685
X5.305Y-2.84
X5.305Y-3.86
X5.305Y-4.33
X5.305Y-4.84
X5.3522Y-4.4728
X5.405Y-3.82
X5.405Y-4.0
X5.405Y-4.51
X5.465Y-2.58
X5.495Y-4.03
X5.505Y-4.53
X5.5578Y-4.3672
X5.605Y-3.855
X5.605Y-4.62
X5.6522Y-4.3978
X5.685Y-2.4
X5.705Y-3.785
X5.705Y-4.075
X5.705Y-4.54
X5.7485Y-2.3115
X5.7578Y-4.5272
X5.805Y-3.75
X5.805Y-4.28
X5.81Y-4.44
X5.825Y-1.66
X5.855Y-4.62
X5.885Y-2.4
X5.905Y-3.2
X5.905Y-4.005
X5.905Y-4.29
X5.955Y-2.8
X6.0Y-3.615
X6.005Y-3.23
X6.005Y-3.56
X6.01Y-2.35
X6.02Y-2.67
X6.0825Y-2.225
X6.085Y-2.3
X6.105Y-3.51
X6.105Y-4.005
X6.13Y-5.135
X6.135Y-2.1
X6.155Y-3.56
X6.16Y-4.33
X6.195Y-1.7
X6.195Y-2.04
X6.195Y-2.94
X6.2003Y-3.1247
X6.205Y-3.535
X6.235Y-2.84
X6.2503Y-3.4747
X6.255Y-3.855
X6.255Y-4.29
X6.3058Y-2.5742
X6.31Y-3.175
X6.31Y-3.86
X6.345Y-4.33
X6.39Y-3.82
X6.395Y-3.38
X6.4058Y-2.5742
X6.425Y-3.785
X6.425Y-4.69
X6.455Y-3.75
X6.4617Y-3.5333
X6.4707Y-4.6543
X6.54Y-4.095
X6.545Y-2.22
X6.545Y-2.7175
X6.5722Y-4.4872
X6.585Y-2.525
X6.59Y-4.4
X6.605Y-1.6
X6.6053Y-1.7547
X6.615Y-4.55
X6.62Y-2.22
X6.675Y-1.95
X6.675Y-2.0
X6.675Y-2.245
X6.7025Y-2.7575
X6.71Y-2.205
X6.7108Y-2.5742
X6.8397Y-4.5353
X6.88Y-4.91
X6.88Y-5.135
X6.89Y-1.955
X6.89Y-2.525
X7.025Y-1.6
X7.025Y-2.47
X7.0297Y-1.5547
X7.065Y-1.5
X7.065Y-2.5675
X7.14Y-2.645
X7.24Y-2.215
X7.39Y-2.215
X7.4903Y-1.8453
X7.705Y-3.19
X7.82Y-1.61
X7.955Y-3.895
X8.01Y-1.54
X8.0197Y-2.7453
X8.0403Y-3.8497
X8.075Y-4.095
X8.085Y-1.32
X8.085Y-4.295
X8.09Y-4.49
X8.145Y-1.61
X8.2275Y-2.6325
T2
X2.7204Y-3.7094
X2.915Y-3.413
X2.915Y-4.0626
X2.925Y-2.0163
X2.933Y-3.2685
X2.9567Y-1.6622
X2.9724Y-3.2213
X3.0153Y-3.1626
X3.0196Y-2.0638
X3.0196Y-3.0795
X3.0196Y-3.6386
X3.3114Y-4.3626
X3.3661Y-2.5441
X3.7283Y-2.2606
X4.0108Y-2.3089
T3
X2.7966Y-1.465
X2.895Y-1.465
X2.965Y-3.51
X2.965Y-3.91
X3.085Y-1.52
X3.085Y-1.7169
X3.2131Y-2.975
X3.2165Y-2.4646
X3.2165Y-2.7646
X3.2165Y-3.1732
X3.2165Y-3.4732
X3.2165Y-3.8622
X3.2165Y-4.1622
X3.2165Y-4.4724
X3.2165Y-4.7724
X3.3165Y-2.4646
X3.3165Y-2.7646
X3.3165Y-3.1732
X3.3165Y-3.4732
X3.3165Y-3.8622
X3.3165Y-4.1622
X3.3165Y-4.4724
X3.3165Y-4.7724
X3.3417Y-1.4953
X3.3417Y-1.5953
X3.3417Y-1.6953
X3.3417Y-1.7953
X3.3417Y-1.8953
X3.3417Y-1.9953
X3.3417Y-2.0953
X3.41Y-2.975
X3.4165Y-2.4646
X3.4165Y-2.7646
X3.4165Y-3.1732
X3.4165Y-3.4732
X3.4165Y-3.8622
X3.4165Y-4.1622
X3.4165Y-4.4724
X3.4165Y-4.7724
X3.5165Y-2.4646
X3.5165Y-2.7646
X3.5165Y-3.1732
X3.5165Y-3.4732
X3.5165Y-3.8622
X3.5165Y-4.1622
X3.5165Y-4.4724
X3.5165Y-4.7724
X3.6165Y-2.4646
X3.6165Y-2.7646
X3.6165Y-3.1732
X3.6165Y-3.4732
X3.6165Y-3.8622
X3.6165Y-4.1622
X3.6165Y-4.4724
X3.6165Y-4.7724
X3.6417Y-1.4953
X3.6417Y-1.5953
X3.6417Y-1.6953
X3.6417Y-1.7953
X3.6417Y-1.8953
X3.6417Y-1.9953
X3.6417Y-2.0953
X3.7165Y-2.4646
X3.7165Y-2.7646
X3.7165Y-3.1732
X3.7165Y-3.4732
X3.7165Y-3.8622
X3.7165Y-4.1622
X3.7165Y-4.4724
X3.7165Y-4.7724
X3.807Y-1.7016
X3.807Y-2.1016
X3.8165Y-2.4646
X3.8165Y-2.7646
X3.8165Y-3.1732
X3.8165Y-3.4732
X3.8165Y-3.8622
X3.8165Y-4.1622
X3.8165Y-4.4724
X3.8165Y-4.7724
X3.9165Y-2.4646
X3.9165Y-2.7646
X3.9165Y-3.1732
X3.9165Y-3.4732
X3.9165Y-3.8622
X3.9165Y-4.1622
X3.9165Y-4.4724
X3.9165Y-4.7724
X3.9409Y-1.4969
X3.9409Y-1.8969
X4.0165Y-2.4646
X4.0165Y-2.7646
X4.0165Y-3.1732
X4.0165Y-3.4732
X4.0165Y-3.8622
X4.0165Y-4.1622
X4.0165Y-4.4724
X4.0165Y-4.7724
X4.0748Y-1.7016
X4.0748Y-1.8984
X4.1165Y-2.4646
X4.1165Y-2.7646
X4.1165Y-3.1732
X4.1165Y-3.4732
X4.1165Y-3.8622
X4.1165Y-4.1622
X4.1165Y-4.4724
X4.1165Y-4.7724
X4.2559Y-1.548
X4.2559Y-1.7409
X4.405Y-4.17
X4.405Y-4.77
X4.4527Y-1.4969
X4.4527Y-1.5969
X4.4527Y-1.6969
X4.4527Y-1.7969
X4.4527Y-1.8969
X4.4527Y-1.9969
X4.4527Y-2.0969
X4.505Y-4.17
X4.505Y-4.77
X4.605Y-4.17
X4.605Y-4.77
X4.705Y-4.17
X4.705Y-4.77
X4.7527Y-1.4969
X4.7527Y-1.5969
X4.7527Y-1.6969
X4.7527Y-1.7969
X4.7527Y-1.8969
X4.7527Y-1.9969
X4.7527Y-2.0969
X4.8Y-4.94
X4.805Y-2.52
X4.805Y-3.12
X4.805Y-3.34
X4.805Y-3.94
X4.805Y-4.17
X4.805Y-4.77
X4.8891Y-1.495
X4.905Y-2.52
X4.905Y-3.12
X4.905Y-3.34
X4.905Y-3.94
X4.905Y-4.17
X4.905Y-4.77
X4.935Y-2.22
X4.982Y-1.6682
X4.982Y-2.0682
X5.005Y-2.52
X5.005Y-3.12
X5.005Y-3.34
X5.005Y-3.94
X5.005Y-4.17
X5.005Y-4.77
X5.0993Y-1.6674
X5.0993Y-1.7674
X5.0993Y-1.8674
X5.0993Y-1.9674
X5.105Y-2.52
X5.105Y-3.12
X5.105Y-3.34
X5.105Y-3.94
X5.105Y-4.17
X5.105Y-4.77
X5.1381Y-2.1
X5.2Y-4.94
X5.205Y-2.52
X5.205Y-3.12
X5.205Y-3.34
X5.205Y-3.94
X5.205Y-4.17
X5.205Y-4.77
X5.2891Y-1.495
X5.305Y-2.52
X5.305Y-3.12
X5.305Y-3.34
X5.305Y-3.94
X5.305Y-4.17
X5.305Y-4.77
X5.335Y-2.1
X5.335Y-2.22
X5.3581Y-4.94
X5.3993Y-1.6674
X5.3993Y-1.7674
X5.3993Y-1.8674
X5.3993Y-1.9674
X5.405Y-2.52
X5.405Y-3.12
X5.405Y-3.34
X5.405Y-3.94
X5.405Y-4.17
X5.405Y-4.77
X5.435Y-2.1
X5.435Y-2.225
X5.505Y-2.52
X5.505Y-3.12
X5.505Y-3.34
X5.505Y-3.94
X5.505Y-4.17
X5.505Y-4.77
X5.5174Y-1.9674
X5.555Y-4.94
X5.6041Y-1.6997
X5.6041Y-1.7981
X5.605Y-2.52
X5.605Y-3.12
X5.605Y-3.34
X5.605Y-3.94
X5.605Y-4.17
X5.605Y-4.77
X5.705Y-2.52
X5.705Y-3.12
X5.705Y-3.34
X5.705Y-3.94
X5.705Y-4.17
X5.705Y-4.77
X5.7143Y-1.9674
X5.735Y-4.945
X5.775Y-1.49
X5.775Y-1.5884
X5.805Y-2.52
X5.805Y-3.12
X5.805Y-3.34
X5.805Y-3.94
X5.805Y-4.17
X5.805Y-4.77
X5.835Y-2.1
X5.835Y-2.225
X5.905Y-2.52
X5.905Y-3.12
X5.905Y-3.34
X5.905Y-3.94
X5.905Y-4.17
X5.905Y-4.77
X6.005Y-2.52
X6.005Y-3.12
X6.005Y-3.34
X6.005Y-3.94
X6.005Y-4.17
X6.005Y-4.77
X6.015Y-1.5
X6.015Y-1.6
X6.015Y-1.7
X6.015Y-1.8
X6.015Y-1.9
X6.015Y-2.0
X6.015Y-2.1
X6.105Y-2.52
X6.105Y-3.12
X6.105Y-3.34
X6.105Y-3.94
X6.105Y-4.17
X6.105Y-4.77
X6.135Y-4.945
X6.205Y-3.34
X6.205Y-3.94
X6.205Y-4.17
X6.205Y-4.77
X6.305Y-3.34
X6.305Y-3.94
X6.305Y-4.17
X6.305Y-4.77
X6.315Y-1.5
X6.315Y-1.6
X6.315Y-1.7
X6.315Y-1.8
X6.315Y-1.9
X6.315Y-2.0
X6.315Y-2.1
X6.475Y-1.5
X6.475Y-1.6
X6.475Y-1.7
X6.475Y-1.8
X6.475Y-1.9
X6.475Y-2.0
X6.475Y-2.1
X6.735Y-2.845
X6.735Y-2.945
X6.735Y-3.045
X6.735Y-3.145
X6.735Y-3.245
X6.735Y-3.345
X6.735Y-3.445
X6.735Y-3.545
X6.735Y-4.19
X6.735Y-4.29
X6.735Y-4.39
X6.735Y-4.49
X6.735Y-4.59
X6.735Y-4.69
X6.735Y-4.79
X6.735Y-4.89
X6.775Y-1.5
X6.775Y-1.6
X6.775Y-1.7
X6.775Y-1.8
X6.775Y-1.9
X6.775Y-2.0
X6.775Y-2.1
X6.945Y-1.5
X6.945Y-1.6
X6.945Y-1.7
X6.945Y-1.8
X6.945Y-1.9
X6.945Y-2.0
X6.945Y-2.1
X7.035Y-2.845
X7.035Y-2.945
X7.035Y-3.045
X7.035Y-3.145
X7.035Y-3.245
X7.035Y-3.345
X7.035Y-3.445
X7.035Y-3.545
X7.035Y-4.19
X7.035Y-4.29
X7.035Y-4.39
X7.035Y-4.49
X7.035Y-4.59
X7.035Y-4.69
X7.035Y-4.79
X7.035Y-4.89
X7.193Y-3.1578
X7.193Y-3.5578
X7.245Y-1.5
X7.245Y-1.6
X7.245Y-1.7
X7.245Y-1.8
X7.245Y-1.9
X7.245Y-2.0
X7.245Y-2.1
X7.4037Y-3.2685
X7.4037Y-3.4614
X7.405Y-1.5
X7.405Y-1.6
X7.405Y-1.7
X7.405Y-1.8
X7.405Y-1.9
X7.405Y-2.0
X7.405Y-2.1
X7.5881Y-3.27
X7.5881Y-3.4
X7.61Y-2.425
X7.61Y-2.5234
X7.61Y-2.675
X7.61Y-2.7734
X7.61Y-2.9266
X7.61Y-3.025
X7.625Y-3.595
X7.625Y-3.695
X7.625Y-3.795
X7.625Y-3.895
X7.625Y-3.995
X7.625Y-4.095
X7.625Y-4.195
X7.625Y-4.295
X7.625Y-4.395
X7.625Y-4.495
X7.625Y-4.595
X7.625Y-4.695
X7.625Y-4.795
X7.625Y-4.895
X7.705Y-1.5
X7.705Y-1.6
X7.705Y-1.7
X7.705Y-1.8
X7.705Y-1.9
X7.705Y-2.0
X7.705Y-2.1
X7.785Y-2.4
X7.785Y-2.5
X7.785Y-2.6
X7.785Y-2.7
X7.785Y-2.8
X7.785Y-2.9
X7.785Y-3.0
X7.785Y-3.1
X7.785Y-3.27
X7.785Y-3.4
X7.925Y-1.5031
X7.925Y-1.7
X7.935Y-2.1266
X7.935Y-2.225
X7.94Y-3.4
X8.085Y-2.4
X8.085Y-2.5
X8.085Y-2.6
X8.085Y-2.7
X8.085Y-2.8
X8.085Y-2.9
X8.085Y-3.0
X8.085Y-3.1
X8.225Y-3.595
X8.225Y-3.695
X8.225Y-3.795
X8.225Y-3.895
X8.225Y-3.995
X8.225Y-4.095
X8.225Y-4.195
X8.225Y-4.295
X8.225Y-4.395
X8.225Y-4.495
X8.225Y-4.595
X8.225Y-4.695
X8.225Y-4.795
X8.225Y-4.895
X8.34Y-3.4
X8.34Y-3.595
X8.34Y-3.7919
T4
X2.6456Y-1.6626
X2.6456Y-1.7626
X2.6456Y-1.8626
X2.6456Y-1.9626
X2.6456Y-2.0626
X2.6456Y-2.1626
X2.6456Y-2.2626
X2.6456Y-2.3626
X2.6456Y-2.4626
X2.6456Y-2.5626
X2.6456Y-2.6626
X2.6456Y-2.7626
X2.6456Y-2.8626
X2.6456Y-2.9626
X2.6456Y-3.0626
X2.6456Y-3.1626
X2.6456Y-3.2626
X2.6456Y-3.3626
X2.6456Y-3.4626
X2.6456Y-3.5626
X2.6456Y-3.6626
X2.6456Y-3.7626
X2.6456Y-3.8626
X2.6456Y-3.9626
X2.6456Y-4.0626
X2.6456Y-4.1626
X2.6456Y-4.2626
X2.6456Y-4.3626
X2.6456Y-4.4626
X2.6456Y-4.5626
X2.6456Y-4.6626
X2.6456Y-4.7626
X2.8456Y-1.6626
X2.8456Y-1.7626
X2.8456Y-1.8626
X2.8456Y-1.9626
X2.8456Y-2.0626
X2.8456Y-2.1626
X2.8456Y-2.2626
X2.8456Y-2.3626
X2.8456Y-2.4626
X2.8456Y-2.5626
X2.8456Y-2.6626
X2.8456Y-2.7626
X2.8456Y-2.8626
X2.8456Y-2.9626
X2.8456Y-3.0626
X2.8456Y-3.1626
X2.8456Y-3.2626
X2.8456Y-3.3626
X2.8456Y-3.4626
X2.8456Y-3.5626
X2.8456Y-3.6626
X2.8456Y-3.7626
X2.8456Y-3.8626
X2.8456Y-3.9626
X2.8456Y-4.0626
X2.8456Y-4.1626
X2.8456Y-4.2626
X2.8456Y-4.3626
X2.8456Y-4.4626
X2.8456Y-4.5626
X2.8456Y-4.6626
X2.8456Y-4.7626
X4.255Y-1.98
X4.255Y-2.08
X4.255Y-2.18
X5.4332Y-1.495
X5.5332Y-1.495
X6.255Y-2.275
X6.255Y-2.375
X6.255Y-2.735
X6.355Y-2.275
X6.355Y-2.375
X6.355Y-2.735
X6.455Y-2.275
X6.455Y-2.375
X6.455Y-2.735
X6.785Y-3.75
X6.785Y-3.85
X6.785Y-3.95
X6.885Y-3.75
X6.885Y-3.85
X6.885Y-3.95
X7.195Y-4.19
X7.195Y-4.29
X7.195Y-4.39
X7.195Y-4.49
X7.195Y-4.59
X7.195Y-4.69
X7.195Y-4.79
X7.195Y-4.89
X7.295Y-4.19
X7.295Y-4.29
X7.295Y-4.39
X7.295Y-4.49
X7.295Y-4.59
X7.295Y-4.69
X7.295Y-4.79
X7.295Y-4.89
X8.3346Y-2.3588
X8.3346Y-2.4678
X8.3346Y-2.5769
X8.3346Y-2.6859
X8.3346Y-2.795
X8.4464Y-2.4133
X8.4464Y-2.5224
X8.4464Y-2.6314
X8.4464Y-2.7405
T5
X8.3464Y-2.0848
X8.3464Y-3.069
T0
M30
