%TF.GenerationSoftware,KiCad,Pcbnew,(5.1.12)-1*%
%TF.CreationDate,2026-05-18T10:42:30+02:00*%
%TF.ProjectId,SYS-80S,5359532d-3830-4532-9e6b-696361645f70,1.2*%
%TF.SameCoordinates,Original*%
%TF.FileFunction,Soldermask,Bot*%
%TF.FilePolarity,Negative*%
%FSLAX46Y46*%
G04 Gerber Fmt 4.6, Leading zero omitted, Abs format (unit mm)*
G04 Created by KiCad (PCBNEW (5.1.12)-1) date 2026-05-18 10:42:30*
%MOMM*%
%LPD*%
G01*
G04 APERTURE LIST*
%ADD10O,1.600000X1.600000*%
%ADD11C,1.600000*%
%ADD12O,1.700000X1.700000*%
%ADD13R,1.700000X1.700000*%
%ADD14R,1.600000X1.600000*%
%ADD15C,1.500000*%
%ADD16C,2.700000*%
%ADD17C,4.000000*%
%ADD18C,1.550000*%
%ADD19C,2.850000*%
G04 APERTURE END LIST*
D10*
%TO.C,R13*%
X222504000Y-103886000D03*
D11*
X222504000Y-93726000D03*
%TD*%
D12*
%TO.C,JP9*%
X182499000Y-100330000D03*
D13*
X179959000Y-100330000D03*
%TD*%
D12*
%TO.C,JP10*%
X182499000Y-97790000D03*
D13*
X179959000Y-97790000D03*
%TD*%
D12*
%TO.C,JP8*%
X182499000Y-102870000D03*
D13*
X179959000Y-102870000D03*
%TD*%
D10*
%TO.C,R7*%
X209296000Y-88900000D03*
D11*
X219456000Y-88900000D03*
%TD*%
D10*
%TO.C,U9*%
X167767000Y-102616000D03*
X129667000Y-87376000D03*
X165227000Y-102616000D03*
X132207000Y-87376000D03*
X162687000Y-102616000D03*
X134747000Y-87376000D03*
X160147000Y-102616000D03*
X137287000Y-87376000D03*
X157607000Y-102616000D03*
X139827000Y-87376000D03*
X155067000Y-102616000D03*
X142367000Y-87376000D03*
X152527000Y-102616000D03*
X144907000Y-87376000D03*
X149987000Y-102616000D03*
X147447000Y-87376000D03*
X147447000Y-102616000D03*
X149987000Y-87376000D03*
X144907000Y-102616000D03*
X152527000Y-87376000D03*
X142367000Y-102616000D03*
X155067000Y-87376000D03*
X139827000Y-102616000D03*
X157607000Y-87376000D03*
X137287000Y-102616000D03*
X160147000Y-87376000D03*
X134747000Y-102616000D03*
X162687000Y-87376000D03*
X132207000Y-102616000D03*
X165227000Y-87376000D03*
X129667000Y-102616000D03*
D14*
X167767000Y-87376000D03*
%TD*%
D10*
%TO.C,U19*%
X186309000Y-74803000D03*
X178689000Y-92583000D03*
X186309000Y-77343000D03*
X178689000Y-90043000D03*
X186309000Y-79883000D03*
X178689000Y-87503000D03*
X186309000Y-82423000D03*
X178689000Y-84963000D03*
X186309000Y-84963000D03*
X178689000Y-82423000D03*
X186309000Y-87503000D03*
X178689000Y-79883000D03*
X186309000Y-90043000D03*
X178689000Y-77343000D03*
X186309000Y-92583000D03*
D14*
X178689000Y-74803000D03*
%TD*%
D10*
%TO.C,U13*%
X179705000Y-40640000D03*
X172085000Y-55880000D03*
X179705000Y-43180000D03*
X172085000Y-53340000D03*
X179705000Y-45720000D03*
X172085000Y-50800000D03*
X179705000Y-48260000D03*
X172085000Y-48260000D03*
X179705000Y-50800000D03*
X172085000Y-45720000D03*
X179705000Y-53340000D03*
X172085000Y-43180000D03*
X179705000Y-55880000D03*
D14*
X172085000Y-40640000D03*
%TD*%
D10*
%TO.C,R12*%
X190323000Y-82749000D03*
D11*
X190323000Y-92909000D03*
%TD*%
D15*
%TO.C,Y2*%
X195673000Y-85559000D03*
X195673000Y-90459000D03*
%TD*%
D11*
%TO.C,C17*%
X200359000Y-85598000D03*
X205359000Y-85598000D03*
%TD*%
%TO.C,C16*%
X200359000Y-88900000D03*
X205359000Y-88900000D03*
%TD*%
D10*
%TO.C,U10*%
X167767000Y-123698000D03*
X119507000Y-108458000D03*
X165227000Y-123698000D03*
X122047000Y-108458000D03*
X162687000Y-123698000D03*
X124587000Y-108458000D03*
X160147000Y-123698000D03*
X127127000Y-108458000D03*
X157607000Y-123698000D03*
X129667000Y-108458000D03*
X155067000Y-123698000D03*
X132207000Y-108458000D03*
X152527000Y-123698000D03*
X134747000Y-108458000D03*
X149987000Y-123698000D03*
X137287000Y-108458000D03*
X147447000Y-123698000D03*
X139827000Y-108458000D03*
X144907000Y-123698000D03*
X142367000Y-108458000D03*
X142367000Y-123698000D03*
X144907000Y-108458000D03*
X139827000Y-123698000D03*
X147447000Y-108458000D03*
X137287000Y-123698000D03*
X149987000Y-108458000D03*
X134747000Y-123698000D03*
X152527000Y-108458000D03*
X132207000Y-123698000D03*
X155067000Y-108458000D03*
X129667000Y-123698000D03*
X157607000Y-108458000D03*
X127127000Y-123698000D03*
X160147000Y-108458000D03*
X124587000Y-123698000D03*
X162687000Y-108458000D03*
X122047000Y-123698000D03*
X165227000Y-108458000D03*
X119507000Y-123698000D03*
D14*
X167767000Y-108458000D03*
%TD*%
D10*
%TO.C,U17*%
X216535000Y-93853000D03*
X201295000Y-126873000D03*
X216535000Y-96393000D03*
X201295000Y-124333000D03*
X216535000Y-98933000D03*
X201295000Y-121793000D03*
X216535000Y-101473000D03*
X201295000Y-119253000D03*
X216535000Y-104013000D03*
X201295000Y-116713000D03*
X216535000Y-106553000D03*
X201295000Y-114173000D03*
X216535000Y-109093000D03*
X201295000Y-111633000D03*
X216535000Y-111633000D03*
X201295000Y-109093000D03*
X216535000Y-114173000D03*
X201295000Y-106553000D03*
X216535000Y-116713000D03*
X201295000Y-104013000D03*
X216535000Y-119253000D03*
X201295000Y-101473000D03*
X216535000Y-121793000D03*
X201295000Y-98933000D03*
X216535000Y-124333000D03*
X201295000Y-96393000D03*
X216535000Y-126873000D03*
D14*
X201295000Y-93853000D03*
%TD*%
D10*
%TO.C,U16*%
X186309000Y-108966000D03*
X178689000Y-126746000D03*
X186309000Y-111506000D03*
X178689000Y-124206000D03*
X186309000Y-114046000D03*
X178689000Y-121666000D03*
X186309000Y-116586000D03*
X178689000Y-119126000D03*
X186309000Y-119126000D03*
X178689000Y-116586000D03*
X186309000Y-121666000D03*
X178689000Y-114046000D03*
X186309000Y-124206000D03*
X178689000Y-111506000D03*
X186309000Y-126746000D03*
D14*
X178689000Y-108966000D03*
%TD*%
D12*
%TO.C,J3*%
X192913000Y-126746000D03*
X190373000Y-126746000D03*
X192913000Y-124206000D03*
X190373000Y-124206000D03*
X192913000Y-121666000D03*
X190373000Y-121666000D03*
X192913000Y-119126000D03*
X190373000Y-119126000D03*
X192913000Y-116586000D03*
X190373000Y-116586000D03*
X192913000Y-114046000D03*
X190373000Y-114046000D03*
X192913000Y-111506000D03*
X190373000Y-111506000D03*
X192913000Y-108966000D03*
D13*
X190373000Y-108966000D03*
%TD*%
D16*
%TO.C,H2*%
X225819000Y-128360000D03*
%TD*%
%TO.C,H1*%
X225819000Y-39560000D03*
%TD*%
D10*
%TO.C,U15*%
X212979000Y-63500000D03*
X205359000Y-81280000D03*
X212979000Y-66040000D03*
X205359000Y-78740000D03*
X212979000Y-68580000D03*
X205359000Y-76200000D03*
X212979000Y-71120000D03*
X205359000Y-73660000D03*
X212979000Y-73660000D03*
X205359000Y-71120000D03*
X212979000Y-76200000D03*
X205359000Y-68580000D03*
X212979000Y-78740000D03*
X205359000Y-66040000D03*
X212979000Y-81280000D03*
D14*
X205359000Y-63500000D03*
%TD*%
D17*
%TO.C,J2*%
X219619000Y-55493000D03*
X219619000Y-80493000D03*
D11*
X222159000Y-63838000D03*
X222159000Y-66608000D03*
X222159000Y-69378000D03*
X222159000Y-72148000D03*
X219319000Y-62453000D03*
X219319000Y-65223000D03*
X219319000Y-67993000D03*
X219319000Y-70763000D03*
D14*
X219319000Y-73533000D03*
%TD*%
D11*
%TO.C,C15*%
X200914000Y-76875000D03*
D14*
X200914000Y-79375000D03*
%TD*%
D11*
%TO.C,C14*%
X209169000Y-56555000D03*
D14*
X209169000Y-59055000D03*
%TD*%
D11*
%TO.C,C13*%
X200914000Y-72985000D03*
D14*
X200914000Y-70485000D03*
%TD*%
D11*
%TO.C,C12*%
X200914000Y-66635000D03*
D14*
X200914000Y-64135000D03*
%TD*%
D12*
%TO.C,JP3*%
X171577000Y-72009000D03*
X169037000Y-72009000D03*
D13*
X166497000Y-72009000D03*
%TD*%
D12*
%TO.C,JP6*%
X171577000Y-62865000D03*
D13*
X171577000Y-60325000D03*
%TD*%
D12*
%TO.C,JP5*%
X169037000Y-62865000D03*
D13*
X169037000Y-60325000D03*
%TD*%
D12*
%TO.C,JP4*%
X166497000Y-62865000D03*
D13*
X166497000Y-60325000D03*
%TD*%
D11*
%TO.C,C10*%
X143717000Y-128016000D03*
X148717000Y-128016000D03*
%TD*%
D10*
%TO.C,U6*%
X89319000Y-116140000D03*
X112179000Y-123760000D03*
X91859000Y-116140000D03*
X109639000Y-123760000D03*
X94399000Y-116140000D03*
X107099000Y-123760000D03*
X96939000Y-116140000D03*
X104559000Y-123760000D03*
X99479000Y-116140000D03*
X102019000Y-123760000D03*
X102019000Y-116140000D03*
X99479000Y-123760000D03*
X104559000Y-116140000D03*
X96939000Y-123760000D03*
X107099000Y-116140000D03*
X94399000Y-123760000D03*
X109639000Y-116140000D03*
X91859000Y-123760000D03*
X112179000Y-116140000D03*
D14*
X89319000Y-123760000D03*
%TD*%
D10*
%TO.C,U5*%
X89319000Y-100640000D03*
X112179000Y-108260000D03*
X91859000Y-100640000D03*
X109639000Y-108260000D03*
X94399000Y-100640000D03*
X107099000Y-108260000D03*
X96939000Y-100640000D03*
X104559000Y-108260000D03*
X99479000Y-100640000D03*
X102019000Y-108260000D03*
X102019000Y-100640000D03*
X99479000Y-108260000D03*
X104559000Y-100640000D03*
X96939000Y-108260000D03*
X107099000Y-100640000D03*
X94399000Y-108260000D03*
X109639000Y-100640000D03*
X91859000Y-108260000D03*
X112179000Y-100640000D03*
D14*
X89319000Y-108260000D03*
%TD*%
D10*
%TO.C,U14*%
X168021000Y-40640000D03*
X160401000Y-55880000D03*
X168021000Y-43180000D03*
X160401000Y-53340000D03*
X168021000Y-45720000D03*
X160401000Y-50800000D03*
X168021000Y-48260000D03*
X160401000Y-48260000D03*
X168021000Y-50800000D03*
X160401000Y-45720000D03*
X168021000Y-53340000D03*
X160401000Y-43180000D03*
X168021000Y-55880000D03*
D14*
X160401000Y-40640000D03*
%TD*%
D10*
%TO.C,U12*%
X162687000Y-81788000D03*
X129667000Y-66548000D03*
X160147000Y-81788000D03*
X132207000Y-66548000D03*
X157607000Y-81788000D03*
X134747000Y-66548000D03*
X155067000Y-81788000D03*
X137287000Y-66548000D03*
X152527000Y-81788000D03*
X139827000Y-66548000D03*
X149987000Y-81788000D03*
X142367000Y-66548000D03*
X147447000Y-81788000D03*
X144907000Y-66548000D03*
X144907000Y-81788000D03*
X147447000Y-66548000D03*
X142367000Y-81788000D03*
X149987000Y-66548000D03*
X139827000Y-81788000D03*
X152527000Y-66548000D03*
X137287000Y-81788000D03*
X155067000Y-66548000D03*
X134747000Y-81788000D03*
X157607000Y-66548000D03*
X132207000Y-81788000D03*
X160147000Y-66548000D03*
X129667000Y-81788000D03*
D14*
X162687000Y-66548000D03*
%TD*%
D10*
%TO.C,U11*%
X203327000Y-40640000D03*
X195707000Y-55880000D03*
X203327000Y-43180000D03*
X195707000Y-53340000D03*
X203327000Y-45720000D03*
X195707000Y-50800000D03*
X203327000Y-48260000D03*
X195707000Y-48260000D03*
X203327000Y-50800000D03*
X195707000Y-45720000D03*
X203327000Y-53340000D03*
X195707000Y-43180000D03*
X203327000Y-55880000D03*
D14*
X195707000Y-40640000D03*
%TD*%
D10*
%TO.C,U8*%
X191643000Y-40640000D03*
X184023000Y-55880000D03*
X191643000Y-43180000D03*
X184023000Y-53340000D03*
X191643000Y-45720000D03*
X184023000Y-50800000D03*
X191643000Y-48260000D03*
X184023000Y-48260000D03*
X191643000Y-50800000D03*
X184023000Y-45720000D03*
X191643000Y-53340000D03*
X184023000Y-43180000D03*
X191643000Y-55880000D03*
D14*
X184023000Y-40640000D03*
%TD*%
D10*
%TO.C,R4*%
X129540000Y-128016000D03*
D11*
X139700000Y-128016000D03*
%TD*%
D10*
%TO.C,R3*%
X132969000Y-58928000D03*
D11*
X143129000Y-58928000D03*
%TD*%
D10*
%TO.C,R2*%
X82931000Y-101854000D03*
D11*
X82931000Y-91694000D03*
%TD*%
D10*
%TO.C,R1*%
X153289000Y-128143000D03*
D11*
X163449000Y-128143000D03*
%TD*%
%TO.C,C11*%
X78653000Y-39751000D03*
D14*
X81153000Y-39751000D03*
%TD*%
D11*
%TO.C,C7*%
X208915000Y-40720000D03*
X208915000Y-45720000D03*
%TD*%
%TO.C,C5*%
X219456000Y-98853000D03*
X219456000Y-93853000D03*
%TD*%
D10*
%TO.C,U2*%
X128339000Y-40560000D03*
X120719000Y-55800000D03*
X128339000Y-43100000D03*
X120719000Y-53260000D03*
X128339000Y-45640000D03*
X120719000Y-50720000D03*
X128339000Y-48180000D03*
X120719000Y-48180000D03*
X128339000Y-50720000D03*
X120719000Y-45640000D03*
X128339000Y-53260000D03*
X120719000Y-43100000D03*
X128339000Y-55800000D03*
D14*
X120719000Y-40560000D03*
%TD*%
D10*
%TO.C,U4*%
X89319000Y-83140000D03*
X112179000Y-90760000D03*
X91859000Y-83140000D03*
X109639000Y-90760000D03*
X94399000Y-83140000D03*
X107099000Y-90760000D03*
X96939000Y-83140000D03*
X104559000Y-90760000D03*
X99479000Y-83140000D03*
X102019000Y-90760000D03*
X102019000Y-83140000D03*
X99479000Y-90760000D03*
X104559000Y-83140000D03*
X96939000Y-90760000D03*
X107099000Y-83140000D03*
X94399000Y-90760000D03*
X109639000Y-83140000D03*
X91859000Y-90760000D03*
X112179000Y-83140000D03*
D14*
X89319000Y-90760000D03*
%TD*%
D18*
%TO.C,J1*%
X79899000Y-44770000D03*
X79899000Y-47310000D03*
X79899000Y-49850000D03*
X79899000Y-52390000D03*
X79899000Y-54930000D03*
X79899000Y-57470000D03*
X79899000Y-60010000D03*
X79899000Y-62550000D03*
X79899000Y-65090000D03*
X79899000Y-67630000D03*
X79899000Y-70170000D03*
X79899000Y-72710000D03*
X79899000Y-75250000D03*
X79899000Y-77790000D03*
X79899000Y-80330000D03*
X79899000Y-82870000D03*
X79899000Y-85410000D03*
X79899000Y-87950000D03*
X79899000Y-90490000D03*
X79899000Y-93030000D03*
X79899000Y-95570000D03*
X79899000Y-98110000D03*
X79899000Y-100650000D03*
X79899000Y-103190000D03*
X79899000Y-105730000D03*
X79899000Y-108270000D03*
X79899000Y-110810000D03*
X79899000Y-113350000D03*
X79899000Y-115890000D03*
X79899000Y-118430000D03*
X79899000Y-120970000D03*
X79899000Y-123510000D03*
X74819000Y-44770000D03*
X74819000Y-47310000D03*
X74819000Y-49850000D03*
X74819000Y-52390000D03*
X74819000Y-54930000D03*
X74819000Y-57470000D03*
X74819000Y-60010000D03*
X74819000Y-62550000D03*
X74819000Y-65090000D03*
X74819000Y-67630000D03*
X74819000Y-70170000D03*
X74819000Y-72710000D03*
X74819000Y-75250000D03*
X74819000Y-77790000D03*
X74819000Y-80330000D03*
X74819000Y-82870000D03*
X74819000Y-85410000D03*
X74819000Y-87950000D03*
X74819000Y-90490000D03*
X74819000Y-93030000D03*
X74819000Y-95570000D03*
X74819000Y-98110000D03*
X74819000Y-100650000D03*
X74819000Y-103190000D03*
X74819000Y-105730000D03*
X74819000Y-108270000D03*
X74819000Y-110810000D03*
X74819000Y-113350000D03*
X74819000Y-115890000D03*
X74819000Y-118430000D03*
X74819000Y-120970000D03*
G36*
G01*
X75344450Y-124285000D02*
X74293550Y-124285000D01*
G75*
G02*
X74044000Y-124035450I0J249550D01*
G01*
X74044000Y-122984550D01*
G75*
G02*
X74293550Y-122735000I249550J0D01*
G01*
X75344450Y-122735000D01*
G75*
G02*
X75594000Y-122984550I0J-249550D01*
G01*
X75594000Y-124035450D01*
G75*
G02*
X75344450Y-124285000I-249550J0D01*
G01*
G37*
D19*
X72279000Y-39690000D03*
X72279000Y-128590000D03*
%TD*%
D11*
%TO.C,C3*%
X85979000Y-46148000D03*
X85979000Y-41148000D03*
%TD*%
D10*
%TO.C,U3*%
X89319000Y-65140000D03*
X112179000Y-72760000D03*
X91859000Y-65140000D03*
X109639000Y-72760000D03*
X94399000Y-65140000D03*
X107099000Y-72760000D03*
X96939000Y-65140000D03*
X104559000Y-72760000D03*
X99479000Y-65140000D03*
X102019000Y-72760000D03*
X102019000Y-65140000D03*
X99479000Y-72760000D03*
X104559000Y-65140000D03*
X96939000Y-72760000D03*
X107099000Y-65140000D03*
X94399000Y-72760000D03*
X109639000Y-65140000D03*
X91859000Y-72760000D03*
X112179000Y-65140000D03*
D14*
X89319000Y-72760000D03*
%TD*%
D10*
%TO.C,R11*%
X145669000Y-55880000D03*
D11*
X155829000Y-55880000D03*
%TD*%
D10*
%TO.C,R10*%
X145669000Y-59055000D03*
D11*
X155829000Y-59055000D03*
%TD*%
D10*
%TO.C,U7*%
X137143000Y-52512000D03*
X144763000Y-44892000D03*
X137143000Y-49972000D03*
X144763000Y-47432000D03*
X137143000Y-47432000D03*
X144763000Y-49972000D03*
X137143000Y-44892000D03*
D14*
X144763000Y-52512000D03*
%TD*%
D10*
%TO.C,R9*%
X134163000Y-55072000D03*
D11*
X134163000Y-44912000D03*
%TD*%
%TO.C,C9*%
X147763000Y-52512000D03*
X152763000Y-52512000D03*
%TD*%
%TO.C,C8*%
X149963000Y-48212000D03*
D14*
X149963000Y-45712000D03*
%TD*%
D12*
%TO.C,JP2*%
X145623000Y-40512000D03*
D13*
X148163000Y-40512000D03*
%TD*%
D10*
%TO.C,R8*%
X131803000Y-40512000D03*
D11*
X141963000Y-40512000D03*
%TD*%
D10*
%TO.C,U1*%
X92499000Y-55760000D03*
X100119000Y-40520000D03*
X92499000Y-53220000D03*
X100119000Y-43060000D03*
X92499000Y-50680000D03*
X100119000Y-45600000D03*
X92499000Y-48140000D03*
X100119000Y-48140000D03*
X92499000Y-45600000D03*
X100119000Y-50680000D03*
X92499000Y-43060000D03*
X100119000Y-53220000D03*
X92499000Y-40520000D03*
D14*
X100119000Y-55760000D03*
%TD*%
D15*
%TO.C,Y1*%
X115719000Y-41860000D03*
X115719000Y-46760000D03*
%TD*%
D10*
%TO.C,R6*%
X107719000Y-50720000D03*
D11*
X107719000Y-40560000D03*
%TD*%
D10*
%TO.C,R5*%
X104319000Y-55920000D03*
D11*
X104319000Y-45760000D03*
%TD*%
D12*
%TO.C,JP1*%
X115697000Y-57912000D03*
X115697000Y-55372000D03*
D13*
X115697000Y-52832000D03*
%TD*%
D11*
%TO.C,C6*%
X138129000Y-55880000D03*
X143129000Y-55880000D03*
%TD*%
%TO.C,C4*%
X89234000Y-78105000D03*
X94234000Y-78105000D03*
%TD*%
%TO.C,C2*%
X154305000Y-42886000D03*
D14*
X154305000Y-40386000D03*
%TD*%
D11*
%TO.C,C1*%
X111119000Y-45760000D03*
X111119000Y-50760000D03*
%TD*%
M02*
