M48
; DRILL file {KiCad 9.0.7} date 2026-05-02T08:12:08+0200
; FORMAT={-:-/ absolute / metric / decimal}
; #@! TF.CreationDate,2026-05-02T08:12:08+02:00
; #@! TF.GenerationSoftware,Kicad,Pcbnew,9.0.7
; #@! TF.FileFunction,Plated,1,2,PTH
FMAT,2
METRIC
; #@! TA.AperFunction,Plated,PTH,ComponentDrill
T1C1.000
%
G90
G05
T1
X127.254Y-61.0
X127.254Y-63.54
X127.254Y-66.08
X127.254Y-68.62
X127.254Y-71.16
X127.254Y-73.7
X127.254Y-76.24
X127.254Y-78.78
X127.254Y-81.32
X127.254Y-83.86
X127.254Y-86.4
X127.254Y-88.94
X127.254Y-91.48
X127.254Y-94.02
X127.254Y-96.56
X127.254Y-99.1
X127.254Y-101.64
X129.794Y-61.0
X129.794Y-63.54
X129.794Y-66.08
X129.794Y-68.62
X129.794Y-71.16
X129.794Y-73.7
X129.794Y-76.24
X129.794Y-78.78
X129.794Y-81.32
X129.794Y-83.86
X129.794Y-86.4
X129.794Y-88.94
X129.794Y-91.48
X129.794Y-94.02
X129.794Y-96.56
X129.794Y-99.1
X129.794Y-101.64
X134.366Y-92.964
X134.366Y-95.504
X134.366Y-98.044
X134.371Y-90.424
X136.906Y-92.964
X136.906Y-95.504
X136.906Y-98.044
X136.911Y-90.424
X140.97Y-60.96
X140.97Y-63.5
X140.97Y-66.04
X140.97Y-68.58
X140.97Y-71.12
X140.97Y-73.66
X140.97Y-76.2
X140.97Y-78.74
X140.97Y-81.28
X140.97Y-83.82
X140.97Y-86.36
X140.97Y-88.9
X140.97Y-91.44
X140.97Y-93.98
X140.97Y-96.52
X140.97Y-99.06
X140.97Y-101.6
X143.51Y-60.96
X143.51Y-63.5
X143.51Y-66.04
X143.51Y-68.58
X143.51Y-71.12
X143.51Y-73.66
X143.51Y-76.2
X143.51Y-78.74
X143.51Y-81.28
X143.51Y-83.82
X143.51Y-86.36
X143.51Y-88.9
X143.51Y-91.44
X143.51Y-93.98
X143.51Y-96.52
X143.51Y-99.06
X143.51Y-101.6
M30
