%TF.GenerationSoftware,KiCad,Pcbnew,9.0.7*%
%TF.CreationDate,2026-05-02T08:11:59+02:00*%
%TF.ProjectId,MC_CPM_Floppyadapter,4d435f43-504d-45f4-966c-6f7070796164,rev?*%
%TF.SameCoordinates,Original*%
%TF.FileFunction,Copper,L1,Top*%
%TF.FilePolarity,Positive*%
%FSLAX46Y46*%
G04 Gerber Fmt 4.6, Leading zero omitted, Abs format (unit mm)*
G04 Created by KiCad (PCBNEW 9.0.7) date 2026-05-02 08:11:59*
%MOMM*%
%LPD*%
G01*
G04 APERTURE LIST*
%TA.AperFunction,ComponentPad*%
%ADD10R,1.700000X1.700000*%
%TD*%
%TA.AperFunction,ComponentPad*%
%ADD11C,1.700000*%
%TD*%
%TA.AperFunction,Conductor*%
%ADD12C,0.400000*%
%TD*%
%TA.AperFunction,Conductor*%
%ADD13C,0.254000*%
%TD*%
G04 APERTURE END LIST*
D10*
%TO.P,J1,1,Pin_1*%
%TO.N,Net-(J1-Pin_1)*%
X127254000Y-101640000D03*
D11*
%TO.P,J1,2,Pin_2*%
%TO.N,unconnected-(J1-Pin_2-Pad2)*%
X129794000Y-101640000D03*
%TO.P,J1,3,Pin_3*%
%TO.N,Net-(J1-Pin_1)*%
X127254000Y-99100000D03*
%TO.P,J1,4,Pin_4*%
%TO.N,unconnected-(J1-Pin_4-Pad4)*%
X129794000Y-99100000D03*
%TO.P,J1,5,Pin_5*%
%TO.N,Net-(J1-Pin_1)*%
X127254000Y-96560000D03*
%TO.P,J1,6,Pin_6*%
%TO.N,unconnected-(J1-Pin_6-Pad6)*%
X129794000Y-96560000D03*
%TO.P,J1,7,Pin_7*%
%TO.N,Net-(J1-Pin_1)*%
X127254000Y-94020000D03*
%TO.P,J1,8,Pin_8*%
%TO.N,INDEX*%
X129794000Y-94020000D03*
%TO.P,J1,9,Pin_9*%
%TO.N,Net-(J1-Pin_1)*%
X127254000Y-91480000D03*
%TO.P,J1,10,Pin_10*%
%TO.N,/MOT_ON_A*%
X129794000Y-91480000D03*
%TO.P,J1,11,Pin_11*%
%TO.N,Net-(J1-Pin_1)*%
X127254000Y-88940000D03*
%TO.P,J1,12,Pin_12*%
%TO.N,/DS_B*%
X129794000Y-88940000D03*
%TO.P,J1,13,Pin_13*%
%TO.N,Net-(J1-Pin_1)*%
X127254000Y-86400000D03*
%TO.P,J1,14,Pin_14*%
%TO.N,/DS_A*%
X129794000Y-86400000D03*
%TO.P,J1,15,Pin_15*%
%TO.N,Net-(J1-Pin_1)*%
X127254000Y-83860000D03*
%TO.P,J1,16,Pin_16*%
%TO.N,/MOT_ON_B*%
X129794000Y-83860000D03*
%TO.P,J1,17,Pin_17*%
%TO.N,Net-(J1-Pin_1)*%
X127254000Y-81320000D03*
%TO.P,J1,18,Pin_18*%
%TO.N,DIRC*%
X129794000Y-81320000D03*
%TO.P,J1,19,Pin_19*%
%TO.N,Net-(J1-Pin_1)*%
X127254000Y-78780000D03*
%TO.P,J1,20,Pin_20*%
%TO.N,STEP*%
X129794000Y-78780000D03*
%TO.P,J1,21,Pin_21*%
%TO.N,Net-(J1-Pin_1)*%
X127254000Y-76240000D03*
%TO.P,J1,22,Pin_22*%
%TO.N,WDATA*%
X129794000Y-76240000D03*
%TO.P,J1,23,Pin_23*%
%TO.N,Net-(J1-Pin_1)*%
X127254000Y-73700000D03*
%TO.P,J1,24,Pin_24*%
%TO.N,WE*%
X129794000Y-73700000D03*
%TO.P,J1,25,Pin_25*%
%TO.N,Net-(J1-Pin_1)*%
X127254000Y-71160000D03*
%TO.P,J1,26,Pin_26*%
%TO.N,TRACK0*%
X129794000Y-71160000D03*
%TO.P,J1,27,Pin_27*%
%TO.N,Net-(J1-Pin_1)*%
X127254000Y-68620000D03*
%TO.P,J1,28,Pin_28*%
%TO.N,WRPROT*%
X129794000Y-68620000D03*
%TO.P,J1,29,Pin_29*%
%TO.N,Net-(J1-Pin_1)*%
X127254000Y-66080000D03*
%TO.P,J1,30,Pin_30*%
%TO.N,RDATA*%
X129794000Y-66080000D03*
%TO.P,J1,31,Pin_31*%
%TO.N,Net-(J1-Pin_1)*%
X127254000Y-63540000D03*
%TO.P,J1,32,Pin_32*%
%TO.N,SS*%
X129794000Y-63540000D03*
%TO.P,J1,33,Pin_33*%
%TO.N,Net-(J1-Pin_1)*%
X127254000Y-61000000D03*
%TO.P,J1,34,Pin_34*%
%TO.N,READY*%
X129794000Y-61000000D03*
%TD*%
D10*
%TO.P,JP3,1,A*%
%TO.N,/DS_AB*%
X134366000Y-92964000D03*
D11*
%TO.P,JP3,2,B*%
%TO.N,DS3*%
X136906000Y-92964000D03*
%TD*%
D10*
%TO.P,JP4,1,A*%
%TO.N,/DS_AB*%
X134371000Y-90424000D03*
D11*
%TO.P,JP4,2,B*%
%TO.N,DS4*%
X136911000Y-90424000D03*
%TD*%
D10*
%TO.P,JP1,1,A*%
%TO.N,/DS_AB*%
X134366000Y-98044000D03*
D11*
%TO.P,JP1,2,B*%
%TO.N,DS1*%
X136906000Y-98044000D03*
%TD*%
D10*
%TO.P,J2,1,Pin_1*%
%TO.N,Net-(J1-Pin_1)*%
X143510000Y-101600000D03*
D11*
%TO.P,J2,2,Pin_2*%
%TO.N,unconnected-(J2-Pin_2-Pad2)*%
X140970000Y-101600000D03*
%TO.P,J2,3,Pin_3*%
%TO.N,Net-(J1-Pin_1)*%
X143510000Y-99060000D03*
%TO.P,J2,4,Pin_4*%
%TO.N,unconnected-(J2-Pin_4-Pad4)*%
X140970000Y-99060000D03*
%TO.P,J2,5,Pin_5*%
%TO.N,Net-(J1-Pin_1)*%
X143510000Y-96520000D03*
%TO.P,J2,6,Pin_6*%
%TO.N,DS4*%
X140970000Y-96520000D03*
%TO.P,J2,7,Pin_7*%
%TO.N,Net-(J1-Pin_1)*%
X143510000Y-93980000D03*
%TO.P,J2,8,Pin_8*%
%TO.N,INDEX*%
X140970000Y-93980000D03*
%TO.P,J2,9,Pin_9*%
%TO.N,Net-(J1-Pin_1)*%
X143510000Y-91440000D03*
%TO.P,J2,10,Pin_10*%
%TO.N,DS1*%
X140970000Y-91440000D03*
%TO.P,J2,11,Pin_11*%
%TO.N,Net-(J1-Pin_1)*%
X143510000Y-88900000D03*
%TO.P,J2,12,Pin_12*%
%TO.N,DS2*%
X140970000Y-88900000D03*
%TO.P,J2,13,Pin_13*%
%TO.N,Net-(J1-Pin_1)*%
X143510000Y-86360000D03*
%TO.P,J2,14,Pin_14*%
%TO.N,DS3*%
X140970000Y-86360000D03*
%TO.P,J2,15,Pin_15*%
%TO.N,Net-(J1-Pin_1)*%
X143510000Y-83820000D03*
%TO.P,J2,16,Pin_16*%
%TO.N,MOT_ON*%
X140970000Y-83820000D03*
%TO.P,J2,17,Pin_17*%
%TO.N,Net-(J1-Pin_1)*%
X143510000Y-81280000D03*
%TO.P,J2,18,Pin_18*%
%TO.N,DIRC*%
X140970000Y-81280000D03*
%TO.P,J2,19,Pin_19*%
%TO.N,Net-(J1-Pin_1)*%
X143510000Y-78740000D03*
%TO.P,J2,20,Pin_20*%
%TO.N,STEP*%
X140970000Y-78740000D03*
%TO.P,J2,21,Pin_21*%
%TO.N,Net-(J1-Pin_1)*%
X143510000Y-76200000D03*
%TO.P,J2,22,Pin_22*%
%TO.N,WDATA*%
X140970000Y-76200000D03*
%TO.P,J2,23,Pin_23*%
%TO.N,Net-(J1-Pin_1)*%
X143510000Y-73660000D03*
%TO.P,J2,24,Pin_24*%
%TO.N,WE*%
X140970000Y-73660000D03*
%TO.P,J2,25,Pin_25*%
%TO.N,Net-(J1-Pin_1)*%
X143510000Y-71120000D03*
%TO.P,J2,26,Pin_26*%
%TO.N,TRACK0*%
X140970000Y-71120000D03*
%TO.P,J2,27,Pin_27*%
%TO.N,Net-(J1-Pin_1)*%
X143510000Y-68580000D03*
%TO.P,J2,28,Pin_28*%
%TO.N,WRPROT*%
X140970000Y-68580000D03*
%TO.P,J2,29,Pin_29*%
%TO.N,Net-(J1-Pin_1)*%
X143510000Y-66040000D03*
%TO.P,J2,30,Pin_30*%
%TO.N,RDATA*%
X140970000Y-66040000D03*
%TO.P,J2,31,Pin_31*%
%TO.N,Net-(J1-Pin_1)*%
X143510000Y-63500000D03*
%TO.P,J2,32,Pin_32*%
%TO.N,SS*%
X140970000Y-63500000D03*
%TO.P,J2,33,Pin_33*%
%TO.N,Net-(J1-Pin_1)*%
X143510000Y-60960000D03*
%TO.P,J2,34,Pin_34*%
%TO.N,READY*%
X140970000Y-60960000D03*
%TD*%
D10*
%TO.P,JP2,1,A*%
%TO.N,/DS_AB*%
X134366000Y-95504000D03*
D11*
%TO.P,JP2,2,B*%
%TO.N,DS2*%
X136906000Y-95504000D03*
%TD*%
D12*
%TO.N,Net-(J1-Pin_1)*%
X127595000Y-101640000D02*
X127254000Y-101640000D01*
D13*
%TO.N,INDEX*%
X140835000Y-94115000D02*
X129889000Y-94115000D01*
X140970000Y-93980000D02*
X140835000Y-94115000D01*
X129889000Y-94115000D02*
X129794000Y-94020000D01*
%TO.N,DIRC*%
X129540000Y-81320000D02*
X141000000Y-81320000D01*
%TO.N,DS4*%
X142240000Y-92964000D02*
X142240000Y-95250000D01*
X137165000Y-90170000D02*
X141605000Y-90170000D01*
X142240000Y-95250000D02*
X140970000Y-96520000D01*
X141605000Y-90170000D02*
X142240000Y-90805000D01*
X136911000Y-90424000D02*
X137165000Y-90170000D01*
X142240000Y-90805000D02*
X142240000Y-92964000D01*
%TD*%
M02*
