%TF.GenerationSoftware,KiCad,Pcbnew,9.0.7*%
%TF.CreationDate,2026-05-02T08:11:59+02:00*%
%TF.ProjectId,MC_CPM_Floppyadapter,4d435f43-504d-45f4-966c-6f7070796164,rev?*%
%TF.SameCoordinates,Original*%
%TF.FileFunction,Legend,Top*%
%TF.FilePolarity,Positive*%
%FSLAX46Y46*%
G04 Gerber Fmt 4.6, Leading zero omitted, Abs format (unit mm)*
G04 Created by KiCad (PCBNEW 9.0.7) date 2026-05-02 08:11:59*
%MOMM*%
%LPD*%
G01*
G04 APERTURE LIST*
%ADD10C,0.100000*%
%ADD11C,0.125000*%
%ADD12C,0.150000*%
%ADD13C,0.120000*%
G04 APERTURE END LIST*
D10*
X132034646Y-92598419D02*
X132653693Y-92598419D01*
X132653693Y-92598419D02*
X132320360Y-92979371D01*
X132320360Y-92979371D02*
X132463217Y-92979371D01*
X132463217Y-92979371D02*
X132558455Y-93026990D01*
X132558455Y-93026990D02*
X132606074Y-93074609D01*
X132606074Y-93074609D02*
X132653693Y-93169847D01*
X132653693Y-93169847D02*
X132653693Y-93407942D01*
X132653693Y-93407942D02*
X132606074Y-93503180D01*
X132606074Y-93503180D02*
X132558455Y-93550800D01*
X132558455Y-93550800D02*
X132463217Y-93598419D01*
X132463217Y-93598419D02*
X132177503Y-93598419D01*
X132177503Y-93598419D02*
X132082265Y-93550800D01*
X132082265Y-93550800D02*
X132034646Y-93503180D01*
X132558455Y-90391752D02*
X132558455Y-91058419D01*
X132320360Y-90010800D02*
X132082265Y-90725085D01*
X132082265Y-90725085D02*
X132701312Y-90725085D01*
X132082265Y-95233657D02*
X132129884Y-95186038D01*
X132129884Y-95186038D02*
X132225122Y-95138419D01*
X132225122Y-95138419D02*
X132463217Y-95138419D01*
X132463217Y-95138419D02*
X132558455Y-95186038D01*
X132558455Y-95186038D02*
X132606074Y-95233657D01*
X132606074Y-95233657D02*
X132653693Y-95328895D01*
X132653693Y-95328895D02*
X132653693Y-95424133D01*
X132653693Y-95424133D02*
X132606074Y-95566990D01*
X132606074Y-95566990D02*
X132034646Y-96138419D01*
X132034646Y-96138419D02*
X132653693Y-96138419D01*
D11*
X132670140Y-98423119D02*
X132098712Y-98423119D01*
X132384426Y-98423119D02*
X132384426Y-97423119D01*
X132384426Y-97423119D02*
X132289188Y-97565976D01*
X132289188Y-97565976D02*
X132193950Y-97661214D01*
X132193950Y-97661214D02*
X132098712Y-97708833D01*
D12*
X132170666Y-101954819D02*
X132170666Y-102669104D01*
X132170666Y-102669104D02*
X132123047Y-102811961D01*
X132123047Y-102811961D02*
X132027809Y-102907200D01*
X132027809Y-102907200D02*
X131884952Y-102954819D01*
X131884952Y-102954819D02*
X131789714Y-102954819D01*
X133170666Y-102954819D02*
X132599238Y-102954819D01*
X132884952Y-102954819D02*
X132884952Y-101954819D01*
X132884952Y-101954819D02*
X132789714Y-102097676D01*
X132789714Y-102097676D02*
X132694476Y-102192914D01*
X132694476Y-102192914D02*
X132599238Y-102240533D01*
X131788819Y-82216095D02*
X131788819Y-81597048D01*
X131788819Y-81597048D02*
X132169771Y-81930381D01*
X132169771Y-81930381D02*
X132169771Y-81787524D01*
X132169771Y-81787524D02*
X132217390Y-81692286D01*
X132217390Y-81692286D02*
X132265009Y-81644667D01*
X132265009Y-81644667D02*
X132360247Y-81597048D01*
X132360247Y-81597048D02*
X132598342Y-81597048D01*
X132598342Y-81597048D02*
X132693580Y-81644667D01*
X132693580Y-81644667D02*
X132741200Y-81692286D01*
X132741200Y-81692286D02*
X132788819Y-81787524D01*
X132788819Y-81787524D02*
X132788819Y-82073238D01*
X132788819Y-82073238D02*
X132741200Y-82168476D01*
X132741200Y-82168476D02*
X132693580Y-82216095D01*
X132693580Y-81168476D02*
X132741200Y-81120857D01*
X132741200Y-81120857D02*
X132788819Y-81168476D01*
X132788819Y-81168476D02*
X132741200Y-81216095D01*
X132741200Y-81216095D02*
X132693580Y-81168476D01*
X132693580Y-81168476D02*
X132788819Y-81168476D01*
X131788819Y-80216096D02*
X131788819Y-80692286D01*
X131788819Y-80692286D02*
X132265009Y-80739905D01*
X132265009Y-80739905D02*
X132217390Y-80692286D01*
X132217390Y-80692286D02*
X132169771Y-80597048D01*
X132169771Y-80597048D02*
X132169771Y-80358953D01*
X132169771Y-80358953D02*
X132217390Y-80263715D01*
X132217390Y-80263715D02*
X132265009Y-80216096D01*
X132265009Y-80216096D02*
X132360247Y-80168477D01*
X132360247Y-80168477D02*
X132598342Y-80168477D01*
X132598342Y-80168477D02*
X132693580Y-80216096D01*
X132693580Y-80216096D02*
X132741200Y-80263715D01*
X132741200Y-80263715D02*
X132788819Y-80358953D01*
X132788819Y-80358953D02*
X132788819Y-80597048D01*
X132788819Y-80597048D02*
X132741200Y-80692286D01*
X132741200Y-80692286D02*
X132693580Y-80739905D01*
X131788819Y-79787524D02*
X131979295Y-79787524D01*
X131788819Y-79406572D02*
X131979295Y-79406572D01*
X132265009Y-77882762D02*
X132265009Y-78216095D01*
X132788819Y-78216095D02*
X131788819Y-78216095D01*
X131788819Y-78216095D02*
X131788819Y-77739905D01*
X132788819Y-77216095D02*
X132741200Y-77311333D01*
X132741200Y-77311333D02*
X132645961Y-77358952D01*
X132645961Y-77358952D02*
X131788819Y-77358952D01*
X132788819Y-76692285D02*
X132741200Y-76787523D01*
X132741200Y-76787523D02*
X132693580Y-76835142D01*
X132693580Y-76835142D02*
X132598342Y-76882761D01*
X132598342Y-76882761D02*
X132312628Y-76882761D01*
X132312628Y-76882761D02*
X132217390Y-76835142D01*
X132217390Y-76835142D02*
X132169771Y-76787523D01*
X132169771Y-76787523D02*
X132122152Y-76692285D01*
X132122152Y-76692285D02*
X132122152Y-76549428D01*
X132122152Y-76549428D02*
X132169771Y-76454190D01*
X132169771Y-76454190D02*
X132217390Y-76406571D01*
X132217390Y-76406571D02*
X132312628Y-76358952D01*
X132312628Y-76358952D02*
X132598342Y-76358952D01*
X132598342Y-76358952D02*
X132693580Y-76406571D01*
X132693580Y-76406571D02*
X132741200Y-76454190D01*
X132741200Y-76454190D02*
X132788819Y-76549428D01*
X132788819Y-76549428D02*
X132788819Y-76692285D01*
X132122152Y-75930380D02*
X133122152Y-75930380D01*
X132169771Y-75930380D02*
X132122152Y-75835142D01*
X132122152Y-75835142D02*
X132122152Y-75644666D01*
X132122152Y-75644666D02*
X132169771Y-75549428D01*
X132169771Y-75549428D02*
X132217390Y-75501809D01*
X132217390Y-75501809D02*
X132312628Y-75454190D01*
X132312628Y-75454190D02*
X132598342Y-75454190D01*
X132598342Y-75454190D02*
X132693580Y-75501809D01*
X132693580Y-75501809D02*
X132741200Y-75549428D01*
X132741200Y-75549428D02*
X132788819Y-75644666D01*
X132788819Y-75644666D02*
X132788819Y-75835142D01*
X132788819Y-75835142D02*
X132741200Y-75930380D01*
X132122152Y-75025618D02*
X133122152Y-75025618D01*
X132169771Y-75025618D02*
X132122152Y-74930380D01*
X132122152Y-74930380D02*
X132122152Y-74739904D01*
X132122152Y-74739904D02*
X132169771Y-74644666D01*
X132169771Y-74644666D02*
X132217390Y-74597047D01*
X132217390Y-74597047D02*
X132312628Y-74549428D01*
X132312628Y-74549428D02*
X132598342Y-74549428D01*
X132598342Y-74549428D02*
X132693580Y-74597047D01*
X132693580Y-74597047D02*
X132741200Y-74644666D01*
X132741200Y-74644666D02*
X132788819Y-74739904D01*
X132788819Y-74739904D02*
X132788819Y-74930380D01*
X132788819Y-74930380D02*
X132741200Y-75025618D01*
X132122152Y-74216094D02*
X132788819Y-73977999D01*
X132122152Y-73739904D02*
X132788819Y-73977999D01*
X132788819Y-73977999D02*
X133026914Y-74073237D01*
X133026914Y-74073237D02*
X133074533Y-74120856D01*
X133074533Y-74120856D02*
X133122152Y-74216094D01*
X137886666Y-101914819D02*
X137886666Y-102629104D01*
X137886666Y-102629104D02*
X137839047Y-102771961D01*
X137839047Y-102771961D02*
X137743809Y-102867200D01*
X137743809Y-102867200D02*
X137600952Y-102914819D01*
X137600952Y-102914819D02*
X137505714Y-102914819D01*
X138315238Y-102010057D02*
X138362857Y-101962438D01*
X138362857Y-101962438D02*
X138458095Y-101914819D01*
X138458095Y-101914819D02*
X138696190Y-101914819D01*
X138696190Y-101914819D02*
X138791428Y-101962438D01*
X138791428Y-101962438D02*
X138839047Y-102010057D01*
X138839047Y-102010057D02*
X138886666Y-102105295D01*
X138886666Y-102105295D02*
X138886666Y-102200533D01*
X138886666Y-102200533D02*
X138839047Y-102343390D01*
X138839047Y-102343390D02*
X138267619Y-102914819D01*
X138267619Y-102914819D02*
X138886666Y-102914819D01*
X138361009Y-83922382D02*
X138361009Y-84255715D01*
X138884819Y-84255715D02*
X137884819Y-84255715D01*
X137884819Y-84255715D02*
X137884819Y-83779525D01*
X138884819Y-82922382D02*
X138884819Y-83398572D01*
X138884819Y-83398572D02*
X137884819Y-83398572D01*
X137884819Y-82398572D02*
X137884819Y-82208096D01*
X137884819Y-82208096D02*
X137932438Y-82112858D01*
X137932438Y-82112858D02*
X138027676Y-82017620D01*
X138027676Y-82017620D02*
X138218152Y-81970001D01*
X138218152Y-81970001D02*
X138551485Y-81970001D01*
X138551485Y-81970001D02*
X138741961Y-82017620D01*
X138741961Y-82017620D02*
X138837200Y-82112858D01*
X138837200Y-82112858D02*
X138884819Y-82208096D01*
X138884819Y-82208096D02*
X138884819Y-82398572D01*
X138884819Y-82398572D02*
X138837200Y-82493810D01*
X138837200Y-82493810D02*
X138741961Y-82589048D01*
X138741961Y-82589048D02*
X138551485Y-82636667D01*
X138551485Y-82636667D02*
X138218152Y-82636667D01*
X138218152Y-82636667D02*
X138027676Y-82589048D01*
X138027676Y-82589048D02*
X137932438Y-82493810D01*
X137932438Y-82493810D02*
X137884819Y-82398572D01*
X138503866Y-81541429D02*
X138503866Y-80779525D01*
X138313390Y-80160477D02*
X138265771Y-80255715D01*
X138265771Y-80255715D02*
X138218152Y-80303334D01*
X138218152Y-80303334D02*
X138122914Y-80350953D01*
X138122914Y-80350953D02*
X138075295Y-80350953D01*
X138075295Y-80350953D02*
X137980057Y-80303334D01*
X137980057Y-80303334D02*
X137932438Y-80255715D01*
X137932438Y-80255715D02*
X137884819Y-80160477D01*
X137884819Y-80160477D02*
X137884819Y-79970001D01*
X137884819Y-79970001D02*
X137932438Y-79874763D01*
X137932438Y-79874763D02*
X137980057Y-79827144D01*
X137980057Y-79827144D02*
X138075295Y-79779525D01*
X138075295Y-79779525D02*
X138122914Y-79779525D01*
X138122914Y-79779525D02*
X138218152Y-79827144D01*
X138218152Y-79827144D02*
X138265771Y-79874763D01*
X138265771Y-79874763D02*
X138313390Y-79970001D01*
X138313390Y-79970001D02*
X138313390Y-80160477D01*
X138313390Y-80160477D02*
X138361009Y-80255715D01*
X138361009Y-80255715D02*
X138408628Y-80303334D01*
X138408628Y-80303334D02*
X138503866Y-80350953D01*
X138503866Y-80350953D02*
X138694342Y-80350953D01*
X138694342Y-80350953D02*
X138789580Y-80303334D01*
X138789580Y-80303334D02*
X138837200Y-80255715D01*
X138837200Y-80255715D02*
X138884819Y-80160477D01*
X138884819Y-80160477D02*
X138884819Y-79970001D01*
X138884819Y-79970001D02*
X138837200Y-79874763D01*
X138837200Y-79874763D02*
X138789580Y-79827144D01*
X138789580Y-79827144D02*
X138694342Y-79779525D01*
X138694342Y-79779525D02*
X138503866Y-79779525D01*
X138503866Y-79779525D02*
X138408628Y-79827144D01*
X138408628Y-79827144D02*
X138361009Y-79874763D01*
X138361009Y-79874763D02*
X138313390Y-79970001D01*
X137884819Y-79160477D02*
X137884819Y-79065239D01*
X137884819Y-79065239D02*
X137932438Y-78970001D01*
X137932438Y-78970001D02*
X137980057Y-78922382D01*
X137980057Y-78922382D02*
X138075295Y-78874763D01*
X138075295Y-78874763D02*
X138265771Y-78827144D01*
X138265771Y-78827144D02*
X138503866Y-78827144D01*
X138503866Y-78827144D02*
X138694342Y-78874763D01*
X138694342Y-78874763D02*
X138789580Y-78922382D01*
X138789580Y-78922382D02*
X138837200Y-78970001D01*
X138837200Y-78970001D02*
X138884819Y-79065239D01*
X138884819Y-79065239D02*
X138884819Y-79160477D01*
X138884819Y-79160477D02*
X138837200Y-79255715D01*
X138837200Y-79255715D02*
X138789580Y-79303334D01*
X138789580Y-79303334D02*
X138694342Y-79350953D01*
X138694342Y-79350953D02*
X138503866Y-79398572D01*
X138503866Y-79398572D02*
X138265771Y-79398572D01*
X138265771Y-79398572D02*
X138075295Y-79350953D01*
X138075295Y-79350953D02*
X137980057Y-79303334D01*
X137980057Y-79303334D02*
X137932438Y-79255715D01*
X137932438Y-79255715D02*
X137884819Y-79160477D01*
X138789580Y-77065239D02*
X138837200Y-77112858D01*
X138837200Y-77112858D02*
X138884819Y-77255715D01*
X138884819Y-77255715D02*
X138884819Y-77350953D01*
X138884819Y-77350953D02*
X138837200Y-77493810D01*
X138837200Y-77493810D02*
X138741961Y-77589048D01*
X138741961Y-77589048D02*
X138646723Y-77636667D01*
X138646723Y-77636667D02*
X138456247Y-77684286D01*
X138456247Y-77684286D02*
X138313390Y-77684286D01*
X138313390Y-77684286D02*
X138122914Y-77636667D01*
X138122914Y-77636667D02*
X138027676Y-77589048D01*
X138027676Y-77589048D02*
X137932438Y-77493810D01*
X137932438Y-77493810D02*
X137884819Y-77350953D01*
X137884819Y-77350953D02*
X137884819Y-77255715D01*
X137884819Y-77255715D02*
X137932438Y-77112858D01*
X137932438Y-77112858D02*
X137980057Y-77065239D01*
X138884819Y-76493810D02*
X138837200Y-76589048D01*
X138837200Y-76589048D02*
X138789580Y-76636667D01*
X138789580Y-76636667D02*
X138694342Y-76684286D01*
X138694342Y-76684286D02*
X138408628Y-76684286D01*
X138408628Y-76684286D02*
X138313390Y-76636667D01*
X138313390Y-76636667D02*
X138265771Y-76589048D01*
X138265771Y-76589048D02*
X138218152Y-76493810D01*
X138218152Y-76493810D02*
X138218152Y-76350953D01*
X138218152Y-76350953D02*
X138265771Y-76255715D01*
X138265771Y-76255715D02*
X138313390Y-76208096D01*
X138313390Y-76208096D02*
X138408628Y-76160477D01*
X138408628Y-76160477D02*
X138694342Y-76160477D01*
X138694342Y-76160477D02*
X138789580Y-76208096D01*
X138789580Y-76208096D02*
X138837200Y-76255715D01*
X138837200Y-76255715D02*
X138884819Y-76350953D01*
X138884819Y-76350953D02*
X138884819Y-76493810D01*
X138218152Y-75731905D02*
X138884819Y-75731905D01*
X138313390Y-75731905D02*
X138265771Y-75684286D01*
X138265771Y-75684286D02*
X138218152Y-75589048D01*
X138218152Y-75589048D02*
X138218152Y-75446191D01*
X138218152Y-75446191D02*
X138265771Y-75350953D01*
X138265771Y-75350953D02*
X138361009Y-75303334D01*
X138361009Y-75303334D02*
X138884819Y-75303334D01*
X138218152Y-74970000D02*
X138218152Y-74589048D01*
X137884819Y-74827143D02*
X138741961Y-74827143D01*
X138741961Y-74827143D02*
X138837200Y-74779524D01*
X138837200Y-74779524D02*
X138884819Y-74684286D01*
X138884819Y-74684286D02*
X138884819Y-74589048D01*
X138884819Y-74255714D02*
X138218152Y-74255714D01*
X138408628Y-74255714D02*
X138313390Y-74208095D01*
X138313390Y-74208095D02*
X138265771Y-74160476D01*
X138265771Y-74160476D02*
X138218152Y-74065238D01*
X138218152Y-74065238D02*
X138218152Y-73970000D01*
X138884819Y-73493809D02*
X138837200Y-73589047D01*
X138837200Y-73589047D02*
X138789580Y-73636666D01*
X138789580Y-73636666D02*
X138694342Y-73684285D01*
X138694342Y-73684285D02*
X138408628Y-73684285D01*
X138408628Y-73684285D02*
X138313390Y-73636666D01*
X138313390Y-73636666D02*
X138265771Y-73589047D01*
X138265771Y-73589047D02*
X138218152Y-73493809D01*
X138218152Y-73493809D02*
X138218152Y-73350952D01*
X138218152Y-73350952D02*
X138265771Y-73255714D01*
X138265771Y-73255714D02*
X138313390Y-73208095D01*
X138313390Y-73208095D02*
X138408628Y-73160476D01*
X138408628Y-73160476D02*
X138694342Y-73160476D01*
X138694342Y-73160476D02*
X138789580Y-73208095D01*
X138789580Y-73208095D02*
X138837200Y-73255714D01*
X138837200Y-73255714D02*
X138884819Y-73350952D01*
X138884819Y-73350952D02*
X138884819Y-73493809D01*
X138884819Y-72589047D02*
X138837200Y-72684285D01*
X138837200Y-72684285D02*
X138741961Y-72731904D01*
X138741961Y-72731904D02*
X137884819Y-72731904D01*
X138884819Y-72065237D02*
X138837200Y-72160475D01*
X138837200Y-72160475D02*
X138741961Y-72208094D01*
X138741961Y-72208094D02*
X137884819Y-72208094D01*
X138837200Y-71303332D02*
X138884819Y-71398570D01*
X138884819Y-71398570D02*
X138884819Y-71589046D01*
X138884819Y-71589046D02*
X138837200Y-71684284D01*
X138837200Y-71684284D02*
X138741961Y-71731903D01*
X138741961Y-71731903D02*
X138361009Y-71731903D01*
X138361009Y-71731903D02*
X138265771Y-71684284D01*
X138265771Y-71684284D02*
X138218152Y-71589046D01*
X138218152Y-71589046D02*
X138218152Y-71398570D01*
X138218152Y-71398570D02*
X138265771Y-71303332D01*
X138265771Y-71303332D02*
X138361009Y-71255713D01*
X138361009Y-71255713D02*
X138456247Y-71255713D01*
X138456247Y-71255713D02*
X138551485Y-71731903D01*
X138884819Y-70827141D02*
X138218152Y-70827141D01*
X138408628Y-70827141D02*
X138313390Y-70779522D01*
X138313390Y-70779522D02*
X138265771Y-70731903D01*
X138265771Y-70731903D02*
X138218152Y-70636665D01*
X138218152Y-70636665D02*
X138218152Y-70541427D01*
D13*
%TO.C,J1*%
X125924000Y-100370000D02*
X125924000Y-59670000D01*
X125924000Y-102970000D02*
X125924000Y-101640000D01*
X127254000Y-102970000D02*
X125924000Y-102970000D01*
X128524000Y-100370000D02*
X125924000Y-100370000D01*
X128524000Y-102970000D02*
X128524000Y-100370000D01*
X131124000Y-59670000D02*
X125924000Y-59670000D01*
X131124000Y-102970000D02*
X128524000Y-102970000D01*
X131124000Y-102970000D02*
X131124000Y-59670000D01*
%TO.C,JP3*%
X132986000Y-94344000D02*
X132986000Y-92964000D01*
X134366000Y-94344000D02*
X132986000Y-94344000D01*
X135636000Y-91584000D02*
X138286000Y-91584000D01*
X135636000Y-94344000D02*
X135636000Y-91584000D01*
X135636000Y-94344000D02*
X138286000Y-94344000D01*
X138286000Y-94344000D02*
X138286000Y-91584000D01*
%TO.C,JP4*%
X132991000Y-91804000D02*
X132991000Y-90424000D01*
X134371000Y-91804000D02*
X132991000Y-91804000D01*
X135641000Y-89044000D02*
X138291000Y-89044000D01*
X135641000Y-91804000D02*
X135641000Y-89044000D01*
X135641000Y-91804000D02*
X138291000Y-91804000D01*
X138291000Y-91804000D02*
X138291000Y-89044000D01*
%TO.C,JP1*%
X132986000Y-99424000D02*
X132986000Y-98044000D01*
X134366000Y-99424000D02*
X132986000Y-99424000D01*
X135636000Y-96664000D02*
X138286000Y-96664000D01*
X135636000Y-99424000D02*
X135636000Y-96664000D01*
X135636000Y-99424000D02*
X138286000Y-99424000D01*
X138286000Y-99424000D02*
X138286000Y-96664000D01*
%TO.C,J2*%
X139590000Y-102980000D02*
X139590000Y-59580000D01*
X142240000Y-100330000D02*
X142240000Y-102980000D01*
X142240000Y-102980000D02*
X139590000Y-102980000D01*
X144890000Y-59580000D02*
X139590000Y-59580000D01*
X144890000Y-100330000D02*
X142240000Y-100330000D01*
X144890000Y-100330000D02*
X144890000Y-59580000D01*
X144890000Y-101600000D02*
X144890000Y-102980000D01*
X144890000Y-102980000D02*
X143510000Y-102980000D01*
%TO.C,JP2*%
X132986000Y-96884000D02*
X132986000Y-95504000D01*
X134366000Y-96884000D02*
X132986000Y-96884000D01*
X135636000Y-94124000D02*
X138286000Y-94124000D01*
X135636000Y-96884000D02*
X135636000Y-94124000D01*
X135636000Y-96884000D02*
X138286000Y-96884000D01*
X138286000Y-96884000D02*
X138286000Y-94124000D01*
%TD*%
M02*
