%TF.GenerationSoftware,KiCad,Pcbnew,9.0.7*%
%TF.CreationDate,2026-05-02T08:11:59+02:00*%
%TF.ProjectId,MC_CPM_Floppyadapter,4d435f43-504d-45f4-966c-6f7070796164,rev?*%
%TF.SameCoordinates,Original*%
%TF.FileFunction,Copper,L2,Bot*%
%TF.FilePolarity,Positive*%
%FSLAX46Y46*%
G04 Gerber Fmt 4.6, Leading zero omitted, Abs format (unit mm)*
G04 Created by KiCad (PCBNEW 9.0.7) date 2026-05-02 08:11:59*
%MOMM*%
%LPD*%
G01*
G04 APERTURE LIST*
G04 Aperture macros list*
%AMFreePoly0*
4,1,23,0.550000,-0.750000,0.000000,-0.750000,0.000000,-0.745722,-0.065263,-0.745722,-0.191342,-0.711940,-0.304381,-0.646677,-0.396677,-0.554381,-0.461940,-0.441342,-0.495722,-0.315263,-0.495722,-0.250000,-0.500000,-0.250000,-0.500000,0.250000,-0.495722,0.250000,-0.495722,0.315263,-0.461940,0.441342,-0.396677,0.554381,-0.304381,0.646677,-0.191342,0.711940,-0.065263,0.745722,0.000000,0.745722,
0.000000,0.750000,0.550000,0.750000,0.550000,-0.750000,0.550000,-0.750000,$1*%
%AMFreePoly1*
4,1,23,0.000000,0.745722,0.065263,0.745722,0.191342,0.711940,0.304381,0.646677,0.396677,0.554381,0.461940,0.441342,0.495722,0.315263,0.495722,0.250000,0.500000,0.250000,0.500000,-0.250000,0.495722,-0.250000,0.495722,-0.315263,0.461940,-0.441342,0.396677,-0.554381,0.304381,-0.646677,0.191342,-0.711940,0.065263,-0.745722,0.000000,-0.745722,0.000000,-0.750000,-0.550000,-0.750000,
-0.550000,0.750000,0.000000,0.750000,0.000000,0.745722,0.000000,0.745722,$1*%
G04 Aperture macros list end*
%TA.AperFunction,EtchedComponent*%
%ADD10C,0.000000*%
%TD*%
%TA.AperFunction,ComponentPad*%
%ADD11R,1.700000X1.700000*%
%TD*%
%TA.AperFunction,ComponentPad*%
%ADD12C,1.700000*%
%TD*%
%TA.AperFunction,SMDPad,CuDef*%
%ADD13FreePoly0,0.000000*%
%TD*%
%TA.AperFunction,SMDPad,CuDef*%
%ADD14R,1.000000X1.500000*%
%TD*%
%TA.AperFunction,SMDPad,CuDef*%
%ADD15FreePoly1,0.000000*%
%TD*%
%TA.AperFunction,Conductor*%
%ADD16C,0.254000*%
%TD*%
%TA.AperFunction,Conductor*%
%ADD17C,0.400000*%
%TD*%
G04 APERTURE END LIST*
D10*
%TA.AperFunction,EtchedComponent*%
%TO.C,JP5*%
G36*
X134825000Y-85525000D02*
G01*
X134325000Y-85525000D01*
X134325000Y-85125000D01*
X134825000Y-85125000D01*
X134825000Y-85525000D01*
G37*
%TD.AperFunction*%
%TA.AperFunction,EtchedComponent*%
G36*
X134825000Y-86325000D02*
G01*
X134325000Y-86325000D01*
X134325000Y-85925000D01*
X134825000Y-85925000D01*
X134825000Y-86325000D01*
G37*
%TD.AperFunction*%
%TA.AperFunction,EtchedComponent*%
%TO.C,JP6*%
G36*
X134825000Y-82350000D02*
G01*
X134325000Y-82350000D01*
X134325000Y-81950000D01*
X134825000Y-81950000D01*
X134825000Y-82350000D01*
G37*
%TD.AperFunction*%
%TA.AperFunction,EtchedComponent*%
G36*
X134825000Y-83150000D02*
G01*
X134325000Y-83150000D01*
X134325000Y-82750000D01*
X134825000Y-82750000D01*
X134825000Y-83150000D01*
G37*
%TD.AperFunction*%
%TD*%
D11*
%TO.P,J1,1,Pin_1*%
%TO.N,Net-(J1-Pin_1)*%
X127254000Y-101640000D03*
D12*
%TO.P,J1,2,Pin_2*%
%TO.N,unconnected-(J1-Pin_2-Pad2)*%
X129794000Y-101640000D03*
%TO.P,J1,3,Pin_3*%
%TO.N,Net-(J1-Pin_1)*%
X127254000Y-99100000D03*
%TO.P,J1,4,Pin_4*%
%TO.N,unconnected-(J1-Pin_4-Pad4)*%
X129794000Y-99100000D03*
%TO.P,J1,5,Pin_5*%
%TO.N,Net-(J1-Pin_1)*%
X127254000Y-96560000D03*
%TO.P,J1,6,Pin_6*%
%TO.N,unconnected-(J1-Pin_6-Pad6)*%
X129794000Y-96560000D03*
%TO.P,J1,7,Pin_7*%
%TO.N,Net-(J1-Pin_1)*%
X127254000Y-94020000D03*
%TO.P,J1,8,Pin_8*%
%TO.N,INDEX*%
X129794000Y-94020000D03*
%TO.P,J1,9,Pin_9*%
%TO.N,Net-(J1-Pin_1)*%
X127254000Y-91480000D03*
%TO.P,J1,10,Pin_10*%
%TO.N,/MOT_ON_A*%
X129794000Y-91480000D03*
%TO.P,J1,11,Pin_11*%
%TO.N,Net-(J1-Pin_1)*%
X127254000Y-88940000D03*
%TO.P,J1,12,Pin_12*%
%TO.N,/DS_B*%
X129794000Y-88940000D03*
%TO.P,J1,13,Pin_13*%
%TO.N,Net-(J1-Pin_1)*%
X127254000Y-86400000D03*
%TO.P,J1,14,Pin_14*%
%TO.N,/DS_A*%
X129794000Y-86400000D03*
%TO.P,J1,15,Pin_15*%
%TO.N,Net-(J1-Pin_1)*%
X127254000Y-83860000D03*
%TO.P,J1,16,Pin_16*%
%TO.N,/MOT_ON_B*%
X129794000Y-83860000D03*
%TO.P,J1,17,Pin_17*%
%TO.N,Net-(J1-Pin_1)*%
X127254000Y-81320000D03*
%TO.P,J1,18,Pin_18*%
%TO.N,DIRC*%
X129794000Y-81320000D03*
%TO.P,J1,19,Pin_19*%
%TO.N,Net-(J1-Pin_1)*%
X127254000Y-78780000D03*
%TO.P,J1,20,Pin_20*%
%TO.N,STEP*%
X129794000Y-78780000D03*
%TO.P,J1,21,Pin_21*%
%TO.N,Net-(J1-Pin_1)*%
X127254000Y-76240000D03*
%TO.P,J1,22,Pin_22*%
%TO.N,WDATA*%
X129794000Y-76240000D03*
%TO.P,J1,23,Pin_23*%
%TO.N,Net-(J1-Pin_1)*%
X127254000Y-73700000D03*
%TO.P,J1,24,Pin_24*%
%TO.N,WE*%
X129794000Y-73700000D03*
%TO.P,J1,25,Pin_25*%
%TO.N,Net-(J1-Pin_1)*%
X127254000Y-71160000D03*
%TO.P,J1,26,Pin_26*%
%TO.N,TRACK0*%
X129794000Y-71160000D03*
%TO.P,J1,27,Pin_27*%
%TO.N,Net-(J1-Pin_1)*%
X127254000Y-68620000D03*
%TO.P,J1,28,Pin_28*%
%TO.N,WRPROT*%
X129794000Y-68620000D03*
%TO.P,J1,29,Pin_29*%
%TO.N,Net-(J1-Pin_1)*%
X127254000Y-66080000D03*
%TO.P,J1,30,Pin_30*%
%TO.N,RDATA*%
X129794000Y-66080000D03*
%TO.P,J1,31,Pin_31*%
%TO.N,Net-(J1-Pin_1)*%
X127254000Y-63540000D03*
%TO.P,J1,32,Pin_32*%
%TO.N,SS*%
X129794000Y-63540000D03*
%TO.P,J1,33,Pin_33*%
%TO.N,Net-(J1-Pin_1)*%
X127254000Y-61000000D03*
%TO.P,J1,34,Pin_34*%
%TO.N,READY*%
X129794000Y-61000000D03*
%TD*%
D11*
%TO.P,JP3,1,A*%
%TO.N,/DS_AB*%
X134366000Y-92964000D03*
D12*
%TO.P,JP3,2,B*%
%TO.N,DS3*%
X136906000Y-92964000D03*
%TD*%
D11*
%TO.P,JP4,1,A*%
%TO.N,/DS_AB*%
X134371000Y-90424000D03*
D12*
%TO.P,JP4,2,B*%
%TO.N,DS4*%
X136911000Y-90424000D03*
%TD*%
D11*
%TO.P,JP1,1,A*%
%TO.N,/DS_AB*%
X134366000Y-98044000D03*
D12*
%TO.P,JP1,2,B*%
%TO.N,DS1*%
X136906000Y-98044000D03*
%TD*%
D11*
%TO.P,J2,1,Pin_1*%
%TO.N,Net-(J1-Pin_1)*%
X143510000Y-101600000D03*
D12*
%TO.P,J2,2,Pin_2*%
%TO.N,unconnected-(J2-Pin_2-Pad2)*%
X140970000Y-101600000D03*
%TO.P,J2,3,Pin_3*%
%TO.N,Net-(J1-Pin_1)*%
X143510000Y-99060000D03*
%TO.P,J2,4,Pin_4*%
%TO.N,unconnected-(J2-Pin_4-Pad4)*%
X140970000Y-99060000D03*
%TO.P,J2,5,Pin_5*%
%TO.N,Net-(J1-Pin_1)*%
X143510000Y-96520000D03*
%TO.P,J2,6,Pin_6*%
%TO.N,DS4*%
X140970000Y-96520000D03*
%TO.P,J2,7,Pin_7*%
%TO.N,Net-(J1-Pin_1)*%
X143510000Y-93980000D03*
%TO.P,J2,8,Pin_8*%
%TO.N,INDEX*%
X140970000Y-93980000D03*
%TO.P,J2,9,Pin_9*%
%TO.N,Net-(J1-Pin_1)*%
X143510000Y-91440000D03*
%TO.P,J2,10,Pin_10*%
%TO.N,DS1*%
X140970000Y-91440000D03*
%TO.P,J2,11,Pin_11*%
%TO.N,Net-(J1-Pin_1)*%
X143510000Y-88900000D03*
%TO.P,J2,12,Pin_12*%
%TO.N,DS2*%
X140970000Y-88900000D03*
%TO.P,J2,13,Pin_13*%
%TO.N,Net-(J1-Pin_1)*%
X143510000Y-86360000D03*
%TO.P,J2,14,Pin_14*%
%TO.N,DS3*%
X140970000Y-86360000D03*
%TO.P,J2,15,Pin_15*%
%TO.N,Net-(J1-Pin_1)*%
X143510000Y-83820000D03*
%TO.P,J2,16,Pin_16*%
%TO.N,MOT_ON*%
X140970000Y-83820000D03*
%TO.P,J2,17,Pin_17*%
%TO.N,Net-(J1-Pin_1)*%
X143510000Y-81280000D03*
%TO.P,J2,18,Pin_18*%
%TO.N,DIRC*%
X140970000Y-81280000D03*
%TO.P,J2,19,Pin_19*%
%TO.N,Net-(J1-Pin_1)*%
X143510000Y-78740000D03*
%TO.P,J2,20,Pin_20*%
%TO.N,STEP*%
X140970000Y-78740000D03*
%TO.P,J2,21,Pin_21*%
%TO.N,Net-(J1-Pin_1)*%
X143510000Y-76200000D03*
%TO.P,J2,22,Pin_22*%
%TO.N,WDATA*%
X140970000Y-76200000D03*
%TO.P,J2,23,Pin_23*%
%TO.N,Net-(J1-Pin_1)*%
X143510000Y-73660000D03*
%TO.P,J2,24,Pin_24*%
%TO.N,WE*%
X140970000Y-73660000D03*
%TO.P,J2,25,Pin_25*%
%TO.N,Net-(J1-Pin_1)*%
X143510000Y-71120000D03*
%TO.P,J2,26,Pin_26*%
%TO.N,TRACK0*%
X140970000Y-71120000D03*
%TO.P,J2,27,Pin_27*%
%TO.N,Net-(J1-Pin_1)*%
X143510000Y-68580000D03*
%TO.P,J2,28,Pin_28*%
%TO.N,WRPROT*%
X140970000Y-68580000D03*
%TO.P,J2,29,Pin_29*%
%TO.N,Net-(J1-Pin_1)*%
X143510000Y-66040000D03*
%TO.P,J2,30,Pin_30*%
%TO.N,RDATA*%
X140970000Y-66040000D03*
%TO.P,J2,31,Pin_31*%
%TO.N,Net-(J1-Pin_1)*%
X143510000Y-63500000D03*
%TO.P,J2,32,Pin_32*%
%TO.N,SS*%
X140970000Y-63500000D03*
%TO.P,J2,33,Pin_33*%
%TO.N,Net-(J1-Pin_1)*%
X143510000Y-60960000D03*
%TO.P,J2,34,Pin_34*%
%TO.N,READY*%
X140970000Y-60960000D03*
%TD*%
D11*
%TO.P,JP2,1,A*%
%TO.N,/DS_AB*%
X134366000Y-95504000D03*
D12*
%TO.P,JP2,2,B*%
%TO.N,DS2*%
X136906000Y-95504000D03*
%TD*%
D13*
%TO.P,JP5,1,A*%
%TO.N,/DS_B*%
X133925000Y-85725000D03*
D14*
%TO.P,JP5,2,C*%
%TO.N,/DS_AB*%
X135225000Y-85725000D03*
D15*
%TO.P,JP5,3,B*%
%TO.N,/DS_A*%
X136525000Y-85725000D03*
%TD*%
D13*
%TO.P,JP6,1,A*%
%TO.N,/MOT_ON_B*%
X133925000Y-82550000D03*
D14*
%TO.P,JP6,2,C*%
%TO.N,MOT_ON*%
X135225000Y-82550000D03*
D15*
%TO.P,JP6,3,B*%
%TO.N,/MOT_ON_A*%
X136525000Y-82550000D03*
%TD*%
D16*
%TO.N,SS*%
X129540000Y-63540000D02*
X141000000Y-63540000D01*
D17*
%TO.N,Net-(J1-Pin_1)*%
X127000000Y-61000000D02*
X127000000Y-101640000D01*
X143540000Y-61000000D02*
X143540000Y-101640000D01*
X143510000Y-101600000D02*
X142240000Y-100330000D01*
X128564000Y-100330000D02*
X127254000Y-101640000D01*
X142240000Y-100330000D02*
X128564000Y-100330000D01*
D16*
%TO.N,STEP*%
X129540000Y-78780000D02*
X141000000Y-78780000D01*
%TO.N,WE*%
X129540000Y-73700000D02*
X141000000Y-73700000D01*
%TO.N,RDATA*%
X129540000Y-66080000D02*
X141000000Y-66080000D01*
%TO.N,/DS_A*%
X135890000Y-84455000D02*
X131739000Y-84455000D01*
X136525000Y-85090000D02*
X135890000Y-84455000D01*
X136525000Y-85725000D02*
X136525000Y-85090000D01*
X131739000Y-84455000D02*
X129794000Y-86400000D01*
%TO.N,TRACK0*%
X129540000Y-71160000D02*
X141000000Y-71160000D01*
%TO.N,/DS_B*%
X130885642Y-88764358D02*
X129969642Y-88764358D01*
X133925000Y-85725000D02*
X130885642Y-88764358D01*
%TO.N,WRPROT*%
X129540000Y-68620000D02*
X141000000Y-68620000D01*
%TO.N,READY*%
X129540000Y-61000000D02*
X141000000Y-61000000D01*
%TO.N,WDATA*%
X129540000Y-76240000D02*
X141000000Y-76240000D01*
%TO.N,/MOT_ON_B*%
X133925000Y-82550000D02*
X131104000Y-82550000D01*
X131104000Y-82550000D02*
X129794000Y-83860000D01*
%TO.N,MOT_ON*%
X140970000Y-83820000D02*
X135890000Y-83820000D01*
X135890000Y-83820000D02*
X135225000Y-83155000D01*
X135225000Y-83155000D02*
X135225000Y-82550000D01*
%TO.N,DS1*%
X136906000Y-98044000D02*
X139700000Y-95250000D01*
X139700000Y-92710000D02*
X140970000Y-91440000D01*
X139700000Y-95250000D02*
X139700000Y-92710000D01*
%TO.N,DS2*%
X136906000Y-95504000D02*
X138938000Y-93472000D01*
X138938000Y-89408000D02*
X139446000Y-88900000D01*
X139446000Y-88900000D02*
X140970000Y-88900000D01*
X138938000Y-93472000D02*
X138938000Y-89408000D01*
%TO.N,DS3*%
X138684000Y-86360000D02*
X140970000Y-86360000D01*
X138176000Y-86868000D02*
X138684000Y-86360000D01*
X138176000Y-91694000D02*
X138176000Y-86868000D01*
X136906000Y-92964000D02*
X138176000Y-91694000D01*
%TO.N,/MOT_ON_A*%
X129794000Y-91480000D02*
X128524000Y-90210000D01*
X136525000Y-81280000D02*
X136525000Y-82550000D01*
X128524000Y-80391000D02*
X128905000Y-80010000D01*
X135255000Y-80010000D02*
X136525000Y-81280000D01*
X128524000Y-90210000D02*
X128524000Y-80391000D01*
X128905000Y-80010000D02*
X135255000Y-80010000D01*
%TO.N,/DS_AB*%
X135225000Y-87660000D02*
X134371000Y-88514000D01*
X134366000Y-95504000D02*
X134366000Y-98044000D01*
X134371000Y-90424000D02*
X134371000Y-92959000D01*
X134366000Y-92964000D02*
X134366000Y-95504000D01*
X134371000Y-88514000D02*
X134371000Y-89996000D01*
X134371000Y-92959000D02*
X134366000Y-92964000D01*
X135225000Y-85725000D02*
X135225000Y-87660000D01*
%TD*%
M02*
