%TF.GenerationSoftware,KiCad,Pcbnew,9.0.7*%
%TF.CreationDate,2026-05-02T08:11:59+02:00*%
%TF.ProjectId,MC_CPM_Floppyadapter,4d435f43-504d-45f4-966c-6f7070796164,rev?*%
%TF.SameCoordinates,Original*%
%TF.FileFunction,Soldermask,Bot*%
%TF.FilePolarity,Negative*%
%FSLAX46Y46*%
G04 Gerber Fmt 4.6, Leading zero omitted, Abs format (unit mm)*
G04 Created by KiCad (PCBNEW 9.0.7) date 2026-05-02 08:11:59*
%MOMM*%
%LPD*%
G01*
G04 APERTURE LIST*
G04 Aperture macros list*
%AMFreePoly0*
4,1,23,0.550000,-0.750000,0.000000,-0.750000,0.000000,-0.745722,-0.065263,-0.745722,-0.191342,-0.711940,-0.304381,-0.646677,-0.396677,-0.554381,-0.461940,-0.441342,-0.495722,-0.315263,-0.495722,-0.250000,-0.500000,-0.250000,-0.500000,0.250000,-0.495722,0.250000,-0.495722,0.315263,-0.461940,0.441342,-0.396677,0.554381,-0.304381,0.646677,-0.191342,0.711940,-0.065263,0.745722,0.000000,0.745722,
0.000000,0.750000,0.550000,0.750000,0.550000,-0.750000,0.550000,-0.750000,$1*%
%AMFreePoly1*
4,1,23,0.000000,0.745722,0.065263,0.745722,0.191342,0.711940,0.304381,0.646677,0.396677,0.554381,0.461940,0.441342,0.495722,0.315263,0.495722,0.250000,0.500000,0.250000,0.500000,-0.250000,0.495722,-0.250000,0.495722,-0.315263,0.461940,-0.441342,0.396677,-0.554381,0.304381,-0.646677,0.191342,-0.711940,0.065263,-0.745722,0.000000,-0.745722,0.000000,-0.750000,-0.550000,-0.750000,
-0.550000,0.750000,0.000000,0.750000,0.000000,0.745722,0.000000,0.745722,$1*%
G04 Aperture macros list end*
%ADD10R,1.700000X1.700000*%
%ADD11C,1.700000*%
%ADD12FreePoly0,0.000000*%
%ADD13R,1.000000X1.500000*%
%ADD14FreePoly1,0.000000*%
G04 APERTURE END LIST*
%TO.C,JP5*%
G36*
X134475000Y-86475000D02*
G01*
X135975000Y-86475000D01*
X135975000Y-84975000D01*
X134475000Y-84975000D01*
X134475000Y-86475000D01*
G37*
%TO.C,JP6*%
G36*
X134475000Y-83300000D02*
G01*
X135975000Y-83300000D01*
X135975000Y-81800000D01*
X134475000Y-81800000D01*
X134475000Y-83300000D01*
G37*
%TD*%
D10*
%TO.C,J1*%
X127254000Y-101640000D03*
D11*
X129794000Y-101640000D03*
X127254000Y-99100000D03*
X129794000Y-99100000D03*
X127254000Y-96560000D03*
X129794000Y-96560000D03*
X127254000Y-94020000D03*
X129794000Y-94020000D03*
X127254000Y-91480000D03*
X129794000Y-91480000D03*
X127254000Y-88940000D03*
X129794000Y-88940000D03*
X127254000Y-86400000D03*
X129794000Y-86400000D03*
X127254000Y-83860000D03*
X129794000Y-83860000D03*
X127254000Y-81320000D03*
X129794000Y-81320000D03*
X127254000Y-78780000D03*
X129794000Y-78780000D03*
X127254000Y-76240000D03*
X129794000Y-76240000D03*
X127254000Y-73700000D03*
X129794000Y-73700000D03*
X127254000Y-71160000D03*
X129794000Y-71160000D03*
X127254000Y-68620000D03*
X129794000Y-68620000D03*
X127254000Y-66080000D03*
X129794000Y-66080000D03*
X127254000Y-63540000D03*
X129794000Y-63540000D03*
X127254000Y-61000000D03*
X129794000Y-61000000D03*
%TD*%
D10*
%TO.C,JP3*%
X134366000Y-92964000D03*
D11*
X136906000Y-92964000D03*
%TD*%
D10*
%TO.C,JP4*%
X134371000Y-90424000D03*
D11*
X136911000Y-90424000D03*
%TD*%
D10*
%TO.C,JP1*%
X134366000Y-98044000D03*
D11*
X136906000Y-98044000D03*
%TD*%
D10*
%TO.C,J2*%
X143510000Y-101600000D03*
D11*
X140970000Y-101600000D03*
X143510000Y-99060000D03*
X140970000Y-99060000D03*
X143510000Y-96520000D03*
X140970000Y-96520000D03*
X143510000Y-93980000D03*
X140970000Y-93980000D03*
X143510000Y-91440000D03*
X140970000Y-91440000D03*
X143510000Y-88900000D03*
X140970000Y-88900000D03*
X143510000Y-86360000D03*
X140970000Y-86360000D03*
X143510000Y-83820000D03*
X140970000Y-83820000D03*
X143510000Y-81280000D03*
X140970000Y-81280000D03*
X143510000Y-78740000D03*
X140970000Y-78740000D03*
X143510000Y-76200000D03*
X140970000Y-76200000D03*
X143510000Y-73660000D03*
X140970000Y-73660000D03*
X143510000Y-71120000D03*
X140970000Y-71120000D03*
X143510000Y-68580000D03*
X140970000Y-68580000D03*
X143510000Y-66040000D03*
X140970000Y-66040000D03*
X143510000Y-63500000D03*
X140970000Y-63500000D03*
X143510000Y-60960000D03*
X140970000Y-60960000D03*
%TD*%
D10*
%TO.C,JP2*%
X134366000Y-95504000D03*
D11*
X136906000Y-95504000D03*
%TD*%
D12*
%TO.C,JP5*%
X133925000Y-85725000D03*
D13*
X135225000Y-85725000D03*
D14*
X136525000Y-85725000D03*
%TD*%
D12*
%TO.C,JP6*%
X133925000Y-82550000D03*
D13*
X135225000Y-82550000D03*
D14*
X136525000Y-82550000D03*
%TD*%
M02*
