%TF.GenerationSoftware,KiCad,Pcbnew,(5.1.12)-1*%
%TF.CreationDate,2026-04-12T11:16:25+02:00*%
%TF.ProjectId,CF1,4346312e-6b69-4636-9164-5f7063625858,rev?*%
%TF.SameCoordinates,Original*%
%TF.FileFunction,Legend,Top*%
%TF.FilePolarity,Positive*%
%FSLAX46Y46*%
G04 Gerber Fmt 4.6, Leading zero omitted, Abs format (unit mm)*
G04 Created by KiCad (PCBNEW (5.1.12)-1) date 2026-04-12 11:16:25*
%MOMM*%
%LPD*%
G01*
G04 APERTURE LIST*
%ADD10C,0.300000*%
%ADD11C,0.200000*%
%ADD12C,0.150000*%
%ADD13C,0.120000*%
G04 APERTURE END LIST*
D10*
X184924000Y-75945857D02*
X184852571Y-76088714D01*
X184852571Y-76303000D01*
X184924000Y-76517285D01*
X185066857Y-76660142D01*
X185209714Y-76731571D01*
X185495428Y-76803000D01*
X185709714Y-76803000D01*
X185995428Y-76731571D01*
X186138285Y-76660142D01*
X186281142Y-76517285D01*
X186352571Y-76303000D01*
X186352571Y-76160142D01*
X186281142Y-75945857D01*
X186209714Y-75874428D01*
X185709714Y-75874428D01*
X185709714Y-76160142D01*
X186352571Y-75231571D02*
X184852571Y-75231571D01*
X186352571Y-74374428D01*
X184852571Y-74374428D01*
X186352571Y-73660142D02*
X184852571Y-73660142D01*
X184852571Y-73303000D01*
X184924000Y-73088714D01*
X185066857Y-72945857D01*
X185209714Y-72874428D01*
X185495428Y-72803000D01*
X185709714Y-72803000D01*
X185995428Y-72874428D01*
X186138285Y-72945857D01*
X186281142Y-73088714D01*
X186352571Y-73303000D01*
X186352571Y-73660142D01*
X185654142Y-64666571D02*
X185654142Y-63523714D01*
X186225571Y-64095142D02*
X185082714Y-64095142D01*
X184725571Y-62095142D02*
X184725571Y-62809428D01*
X185439857Y-62880857D01*
X185368428Y-62809428D01*
X185297000Y-62666571D01*
X185297000Y-62309428D01*
X185368428Y-62166571D01*
X185439857Y-62095142D01*
X185582714Y-62023714D01*
X185939857Y-62023714D01*
X186082714Y-62095142D01*
X186154142Y-62166571D01*
X186225571Y-62309428D01*
X186225571Y-62666571D01*
X186154142Y-62809428D01*
X186082714Y-62880857D01*
X184725571Y-61595142D02*
X186225571Y-61095142D01*
X184725571Y-60595142D01*
D11*
X77653809Y-101288571D02*
X77653809Y-101174285D01*
X77730000Y-101060000D01*
X77806190Y-101002857D01*
X77958571Y-100945714D01*
X78263333Y-100888571D01*
X78644285Y-100888571D01*
X78949047Y-100945714D01*
X79101428Y-101002857D01*
X79177619Y-101060000D01*
X79253809Y-101174285D01*
X79253809Y-101288571D01*
X79177619Y-101402857D01*
X79101428Y-101460000D01*
X78949047Y-101517142D01*
X78644285Y-101574285D01*
X78263333Y-101574285D01*
X77958571Y-101517142D01*
X77806190Y-101460000D01*
X77730000Y-101402857D01*
X77653809Y-101288571D01*
X79253809Y-100488571D02*
X78187142Y-99860000D01*
X78187142Y-100488571D02*
X79253809Y-99860000D01*
X79253809Y-98774285D02*
X79253809Y-99460000D01*
X79253809Y-99117142D02*
X77653809Y-99117142D01*
X77882380Y-99231428D01*
X78034761Y-99345714D01*
X78110952Y-99460000D01*
X77653809Y-98031428D02*
X77653809Y-97917142D01*
X77730000Y-97802857D01*
X77806190Y-97745714D01*
X77958571Y-97688571D01*
X78263333Y-97631428D01*
X78644285Y-97631428D01*
X78949047Y-97688571D01*
X79101428Y-97745714D01*
X79177619Y-97802857D01*
X79253809Y-97917142D01*
X79253809Y-98031428D01*
X79177619Y-98145714D01*
X79101428Y-98202857D01*
X78949047Y-98260000D01*
X78644285Y-98317142D01*
X78263333Y-98317142D01*
X77958571Y-98260000D01*
X77806190Y-98202857D01*
X77730000Y-98145714D01*
X77653809Y-98031428D01*
X79253809Y-97117142D02*
X77653809Y-97117142D01*
X79253809Y-96602857D02*
X78415714Y-96602857D01*
X78263333Y-96660000D01*
X78187142Y-96774285D01*
X78187142Y-96945714D01*
X78263333Y-97060000D01*
X78339523Y-97117142D01*
X80253809Y-101288571D02*
X80253809Y-101174285D01*
X80330000Y-101060000D01*
X80406190Y-101002857D01*
X80558571Y-100945714D01*
X80863333Y-100888571D01*
X81244285Y-100888571D01*
X81549047Y-100945714D01*
X81701428Y-101002857D01*
X81777619Y-101060000D01*
X81853809Y-101174285D01*
X81853809Y-101288571D01*
X81777619Y-101402857D01*
X81701428Y-101460000D01*
X81549047Y-101517142D01*
X81244285Y-101574285D01*
X80863333Y-101574285D01*
X80558571Y-101517142D01*
X80406190Y-101460000D01*
X80330000Y-101402857D01*
X80253809Y-101288571D01*
X81853809Y-100488571D02*
X80787142Y-99860000D01*
X80787142Y-100488571D02*
X81853809Y-99860000D01*
X81853809Y-98774285D02*
X81853809Y-99460000D01*
X81853809Y-99117142D02*
X80253809Y-99117142D01*
X80482380Y-99231428D01*
X80634761Y-99345714D01*
X80710952Y-99460000D01*
X80939523Y-98088571D02*
X80863333Y-98202857D01*
X80787142Y-98260000D01*
X80634761Y-98317142D01*
X80558571Y-98317142D01*
X80406190Y-98260000D01*
X80330000Y-98202857D01*
X80253809Y-98088571D01*
X80253809Y-97860000D01*
X80330000Y-97745714D01*
X80406190Y-97688571D01*
X80558571Y-97631428D01*
X80634761Y-97631428D01*
X80787142Y-97688571D01*
X80863333Y-97745714D01*
X80939523Y-97860000D01*
X80939523Y-98088571D01*
X81015714Y-98202857D01*
X81091904Y-98260000D01*
X81244285Y-98317142D01*
X81549047Y-98317142D01*
X81701428Y-98260000D01*
X81777619Y-98202857D01*
X81853809Y-98088571D01*
X81853809Y-97860000D01*
X81777619Y-97745714D01*
X81701428Y-97688571D01*
X81549047Y-97631428D01*
X81244285Y-97631428D01*
X81091904Y-97688571D01*
X81015714Y-97745714D01*
X80939523Y-97860000D01*
X81853809Y-97117142D02*
X80253809Y-97117142D01*
X81853809Y-96602857D02*
X81015714Y-96602857D01*
X80863333Y-96660000D01*
X80787142Y-96774285D01*
X80787142Y-96945714D01*
X80863333Y-97060000D01*
X80939523Y-97117142D01*
X82853809Y-101288571D02*
X82853809Y-101174285D01*
X82930000Y-101060000D01*
X83006190Y-101002857D01*
X83158571Y-100945714D01*
X83463333Y-100888571D01*
X83844285Y-100888571D01*
X84149047Y-100945714D01*
X84301428Y-101002857D01*
X84377619Y-101060000D01*
X84453809Y-101174285D01*
X84453809Y-101288571D01*
X84377619Y-101402857D01*
X84301428Y-101460000D01*
X84149047Y-101517142D01*
X83844285Y-101574285D01*
X83463333Y-101574285D01*
X83158571Y-101517142D01*
X83006190Y-101460000D01*
X82930000Y-101402857D01*
X82853809Y-101288571D01*
X84453809Y-100488571D02*
X83387142Y-99860000D01*
X83387142Y-100488571D02*
X84453809Y-99860000D01*
X82853809Y-99517142D02*
X82853809Y-98774285D01*
X83463333Y-99174285D01*
X83463333Y-99002857D01*
X83539523Y-98888571D01*
X83615714Y-98831428D01*
X83768095Y-98774285D01*
X84149047Y-98774285D01*
X84301428Y-98831428D01*
X84377619Y-98888571D01*
X84453809Y-99002857D01*
X84453809Y-99345714D01*
X84377619Y-99460000D01*
X84301428Y-99517142D01*
X82853809Y-98031428D02*
X82853809Y-97917142D01*
X82930000Y-97802857D01*
X83006190Y-97745714D01*
X83158571Y-97688571D01*
X83463333Y-97631428D01*
X83844285Y-97631428D01*
X84149047Y-97688571D01*
X84301428Y-97745714D01*
X84377619Y-97802857D01*
X84453809Y-97917142D01*
X84453809Y-98031428D01*
X84377619Y-98145714D01*
X84301428Y-98202857D01*
X84149047Y-98260000D01*
X83844285Y-98317142D01*
X83463333Y-98317142D01*
X83158571Y-98260000D01*
X83006190Y-98202857D01*
X82930000Y-98145714D01*
X82853809Y-98031428D01*
X84453809Y-97117142D02*
X82853809Y-97117142D01*
X84453809Y-96602857D02*
X83615714Y-96602857D01*
X83463333Y-96660000D01*
X83387142Y-96774285D01*
X83387142Y-96945714D01*
X83463333Y-97060000D01*
X83539523Y-97117142D01*
X85453809Y-101288571D02*
X85453809Y-101174285D01*
X85530000Y-101060000D01*
X85606190Y-101002857D01*
X85758571Y-100945714D01*
X86063333Y-100888571D01*
X86444285Y-100888571D01*
X86749047Y-100945714D01*
X86901428Y-101002857D01*
X86977619Y-101060000D01*
X87053809Y-101174285D01*
X87053809Y-101288571D01*
X86977619Y-101402857D01*
X86901428Y-101460000D01*
X86749047Y-101517142D01*
X86444285Y-101574285D01*
X86063333Y-101574285D01*
X85758571Y-101517142D01*
X85606190Y-101460000D01*
X85530000Y-101402857D01*
X85453809Y-101288571D01*
X87053809Y-100488571D02*
X85987142Y-99860000D01*
X85987142Y-100488571D02*
X87053809Y-99860000D01*
X85453809Y-99517142D02*
X85453809Y-98774285D01*
X86063333Y-99174285D01*
X86063333Y-99002857D01*
X86139523Y-98888571D01*
X86215714Y-98831428D01*
X86368095Y-98774285D01*
X86749047Y-98774285D01*
X86901428Y-98831428D01*
X86977619Y-98888571D01*
X87053809Y-99002857D01*
X87053809Y-99345714D01*
X86977619Y-99460000D01*
X86901428Y-99517142D01*
X86139523Y-98088571D02*
X86063333Y-98202857D01*
X85987142Y-98260000D01*
X85834761Y-98317142D01*
X85758571Y-98317142D01*
X85606190Y-98260000D01*
X85530000Y-98202857D01*
X85453809Y-98088571D01*
X85453809Y-97860000D01*
X85530000Y-97745714D01*
X85606190Y-97688571D01*
X85758571Y-97631428D01*
X85834761Y-97631428D01*
X85987142Y-97688571D01*
X86063333Y-97745714D01*
X86139523Y-97860000D01*
X86139523Y-98088571D01*
X86215714Y-98202857D01*
X86291904Y-98260000D01*
X86444285Y-98317142D01*
X86749047Y-98317142D01*
X86901428Y-98260000D01*
X86977619Y-98202857D01*
X87053809Y-98088571D01*
X87053809Y-97860000D01*
X86977619Y-97745714D01*
X86901428Y-97688571D01*
X86749047Y-97631428D01*
X86444285Y-97631428D01*
X86291904Y-97688571D01*
X86215714Y-97745714D01*
X86139523Y-97860000D01*
X87053809Y-97117142D02*
X85453809Y-97117142D01*
X87053809Y-96602857D02*
X86215714Y-96602857D01*
X86063333Y-96660000D01*
X85987142Y-96774285D01*
X85987142Y-96945714D01*
X86063333Y-97060000D01*
X86139523Y-97117142D01*
X88053809Y-101288571D02*
X88053809Y-101174285D01*
X88130000Y-101060000D01*
X88206190Y-101002857D01*
X88358571Y-100945714D01*
X88663333Y-100888571D01*
X89044285Y-100888571D01*
X89349047Y-100945714D01*
X89501428Y-101002857D01*
X89577619Y-101060000D01*
X89653809Y-101174285D01*
X89653809Y-101288571D01*
X89577619Y-101402857D01*
X89501428Y-101460000D01*
X89349047Y-101517142D01*
X89044285Y-101574285D01*
X88663333Y-101574285D01*
X88358571Y-101517142D01*
X88206190Y-101460000D01*
X88130000Y-101402857D01*
X88053809Y-101288571D01*
X89653809Y-100488571D02*
X88587142Y-99860000D01*
X88587142Y-100488571D02*
X89653809Y-99860000D01*
X88053809Y-98831428D02*
X88053809Y-99402857D01*
X88815714Y-99460000D01*
X88739523Y-99402857D01*
X88663333Y-99288571D01*
X88663333Y-99002857D01*
X88739523Y-98888571D01*
X88815714Y-98831428D01*
X88968095Y-98774285D01*
X89349047Y-98774285D01*
X89501428Y-98831428D01*
X89577619Y-98888571D01*
X89653809Y-99002857D01*
X89653809Y-99288571D01*
X89577619Y-99402857D01*
X89501428Y-99460000D01*
X88053809Y-98031428D02*
X88053809Y-97917142D01*
X88130000Y-97802857D01*
X88206190Y-97745714D01*
X88358571Y-97688571D01*
X88663333Y-97631428D01*
X89044285Y-97631428D01*
X89349047Y-97688571D01*
X89501428Y-97745714D01*
X89577619Y-97802857D01*
X89653809Y-97917142D01*
X89653809Y-98031428D01*
X89577619Y-98145714D01*
X89501428Y-98202857D01*
X89349047Y-98260000D01*
X89044285Y-98317142D01*
X88663333Y-98317142D01*
X88358571Y-98260000D01*
X88206190Y-98202857D01*
X88130000Y-98145714D01*
X88053809Y-98031428D01*
X89653809Y-97117142D02*
X88053809Y-97117142D01*
X89653809Y-96602857D02*
X88815714Y-96602857D01*
X88663333Y-96660000D01*
X88587142Y-96774285D01*
X88587142Y-96945714D01*
X88663333Y-97060000D01*
X88739523Y-97117142D01*
X90653809Y-101288571D02*
X90653809Y-101174285D01*
X90730000Y-101060000D01*
X90806190Y-101002857D01*
X90958571Y-100945714D01*
X91263333Y-100888571D01*
X91644285Y-100888571D01*
X91949047Y-100945714D01*
X92101428Y-101002857D01*
X92177619Y-101060000D01*
X92253809Y-101174285D01*
X92253809Y-101288571D01*
X92177619Y-101402857D01*
X92101428Y-101460000D01*
X91949047Y-101517142D01*
X91644285Y-101574285D01*
X91263333Y-101574285D01*
X90958571Y-101517142D01*
X90806190Y-101460000D01*
X90730000Y-101402857D01*
X90653809Y-101288571D01*
X92253809Y-100488571D02*
X91187142Y-99860000D01*
X91187142Y-100488571D02*
X92253809Y-99860000D01*
X90653809Y-98831428D02*
X90653809Y-99402857D01*
X91415714Y-99460000D01*
X91339523Y-99402857D01*
X91263333Y-99288571D01*
X91263333Y-99002857D01*
X91339523Y-98888571D01*
X91415714Y-98831428D01*
X91568095Y-98774285D01*
X91949047Y-98774285D01*
X92101428Y-98831428D01*
X92177619Y-98888571D01*
X92253809Y-99002857D01*
X92253809Y-99288571D01*
X92177619Y-99402857D01*
X92101428Y-99460000D01*
X91339523Y-98088571D02*
X91263333Y-98202857D01*
X91187142Y-98260000D01*
X91034761Y-98317142D01*
X90958571Y-98317142D01*
X90806190Y-98260000D01*
X90730000Y-98202857D01*
X90653809Y-98088571D01*
X90653809Y-97860000D01*
X90730000Y-97745714D01*
X90806190Y-97688571D01*
X90958571Y-97631428D01*
X91034761Y-97631428D01*
X91187142Y-97688571D01*
X91263333Y-97745714D01*
X91339523Y-97860000D01*
X91339523Y-98088571D01*
X91415714Y-98202857D01*
X91491904Y-98260000D01*
X91644285Y-98317142D01*
X91949047Y-98317142D01*
X92101428Y-98260000D01*
X92177619Y-98202857D01*
X92253809Y-98088571D01*
X92253809Y-97860000D01*
X92177619Y-97745714D01*
X92101428Y-97688571D01*
X91949047Y-97631428D01*
X91644285Y-97631428D01*
X91491904Y-97688571D01*
X91415714Y-97745714D01*
X91339523Y-97860000D01*
X92253809Y-97117142D02*
X90653809Y-97117142D01*
X92253809Y-96602857D02*
X91415714Y-96602857D01*
X91263333Y-96660000D01*
X91187142Y-96774285D01*
X91187142Y-96945714D01*
X91263333Y-97060000D01*
X91339523Y-97117142D01*
X93253809Y-101288571D02*
X93253809Y-101174285D01*
X93330000Y-101060000D01*
X93406190Y-101002857D01*
X93558571Y-100945714D01*
X93863333Y-100888571D01*
X94244285Y-100888571D01*
X94549047Y-100945714D01*
X94701428Y-101002857D01*
X94777619Y-101060000D01*
X94853809Y-101174285D01*
X94853809Y-101288571D01*
X94777619Y-101402857D01*
X94701428Y-101460000D01*
X94549047Y-101517142D01*
X94244285Y-101574285D01*
X93863333Y-101574285D01*
X93558571Y-101517142D01*
X93406190Y-101460000D01*
X93330000Y-101402857D01*
X93253809Y-101288571D01*
X94853809Y-100488571D02*
X93787142Y-99860000D01*
X93787142Y-100488571D02*
X94853809Y-99860000D01*
X93253809Y-99517142D02*
X93253809Y-98717142D01*
X94853809Y-99231428D01*
X93253809Y-98031428D02*
X93253809Y-97917142D01*
X93330000Y-97802857D01*
X93406190Y-97745714D01*
X93558571Y-97688571D01*
X93863333Y-97631428D01*
X94244285Y-97631428D01*
X94549047Y-97688571D01*
X94701428Y-97745714D01*
X94777619Y-97802857D01*
X94853809Y-97917142D01*
X94853809Y-98031428D01*
X94777619Y-98145714D01*
X94701428Y-98202857D01*
X94549047Y-98260000D01*
X94244285Y-98317142D01*
X93863333Y-98317142D01*
X93558571Y-98260000D01*
X93406190Y-98202857D01*
X93330000Y-98145714D01*
X93253809Y-98031428D01*
X94853809Y-97117142D02*
X93253809Y-97117142D01*
X94853809Y-96602857D02*
X94015714Y-96602857D01*
X93863333Y-96660000D01*
X93787142Y-96774285D01*
X93787142Y-96945714D01*
X93863333Y-97060000D01*
X93939523Y-97117142D01*
X95853809Y-101288571D02*
X95853809Y-101174285D01*
X95930000Y-101060000D01*
X96006190Y-101002857D01*
X96158571Y-100945714D01*
X96463333Y-100888571D01*
X96844285Y-100888571D01*
X97149047Y-100945714D01*
X97301428Y-101002857D01*
X97377619Y-101060000D01*
X97453809Y-101174285D01*
X97453809Y-101288571D01*
X97377619Y-101402857D01*
X97301428Y-101460000D01*
X97149047Y-101517142D01*
X96844285Y-101574285D01*
X96463333Y-101574285D01*
X96158571Y-101517142D01*
X96006190Y-101460000D01*
X95930000Y-101402857D01*
X95853809Y-101288571D01*
X97453809Y-100488571D02*
X96387142Y-99860000D01*
X96387142Y-100488571D02*
X97453809Y-99860000D01*
X95853809Y-99517142D02*
X95853809Y-98717142D01*
X97453809Y-99231428D01*
X96539523Y-98088571D02*
X96463333Y-98202857D01*
X96387142Y-98260000D01*
X96234761Y-98317142D01*
X96158571Y-98317142D01*
X96006190Y-98260000D01*
X95930000Y-98202857D01*
X95853809Y-98088571D01*
X95853809Y-97860000D01*
X95930000Y-97745714D01*
X96006190Y-97688571D01*
X96158571Y-97631428D01*
X96234761Y-97631428D01*
X96387142Y-97688571D01*
X96463333Y-97745714D01*
X96539523Y-97860000D01*
X96539523Y-98088571D01*
X96615714Y-98202857D01*
X96691904Y-98260000D01*
X96844285Y-98317142D01*
X97149047Y-98317142D01*
X97301428Y-98260000D01*
X97377619Y-98202857D01*
X97453809Y-98088571D01*
X97453809Y-97860000D01*
X97377619Y-97745714D01*
X97301428Y-97688571D01*
X97149047Y-97631428D01*
X96844285Y-97631428D01*
X96691904Y-97688571D01*
X96615714Y-97745714D01*
X96539523Y-97860000D01*
X97453809Y-97117142D02*
X95853809Y-97117142D01*
X97453809Y-96602857D02*
X96615714Y-96602857D01*
X96463333Y-96660000D01*
X96387142Y-96774285D01*
X96387142Y-96945714D01*
X96463333Y-97060000D01*
X96539523Y-97117142D01*
D10*
X157353000Y-78934571D02*
X157353000Y-79291714D01*
X156995857Y-79148857D02*
X157353000Y-79291714D01*
X157710142Y-79148857D01*
X157138714Y-79577428D02*
X157353000Y-79291714D01*
X157567285Y-79577428D01*
D12*
X186608333Y-117125047D02*
X186608333Y-116601238D01*
X186922619Y-117229809D02*
X185822619Y-116863142D01*
X186922619Y-116496476D01*
X185822619Y-116286952D02*
X185822619Y-115658380D01*
X186922619Y-115972666D02*
X185822619Y-115972666D01*
X186608333Y-115344095D02*
X186608333Y-114820285D01*
X186922619Y-115448857D02*
X185822619Y-115082190D01*
X186922619Y-114715523D01*
X185770238Y-113563142D02*
X187184523Y-114506000D01*
X186922619Y-113196476D02*
X185822619Y-113196476D01*
X186922619Y-112672666D02*
X185822619Y-112672666D01*
X185822619Y-112410761D01*
X185875000Y-112253619D01*
X185979761Y-112148857D01*
X186084523Y-112096476D01*
X186294047Y-112044095D01*
X186451190Y-112044095D01*
X186660714Y-112096476D01*
X186765476Y-112148857D01*
X186870238Y-112253619D01*
X186922619Y-112410761D01*
X186922619Y-112672666D01*
X186346428Y-111572666D02*
X186346428Y-111206000D01*
X186922619Y-111048857D02*
X186922619Y-111572666D01*
X185822619Y-111572666D01*
X185822619Y-111048857D01*
X185770238Y-109791714D02*
X187184523Y-110734571D01*
X186870238Y-109477428D02*
X186922619Y-109320285D01*
X186922619Y-109058380D01*
X186870238Y-108953619D01*
X186817857Y-108901238D01*
X186713095Y-108848857D01*
X186608333Y-108848857D01*
X186503571Y-108901238D01*
X186451190Y-108953619D01*
X186398809Y-109058380D01*
X186346428Y-109267904D01*
X186294047Y-109372666D01*
X186241666Y-109425047D01*
X186136904Y-109477428D01*
X186032142Y-109477428D01*
X185927380Y-109425047D01*
X185875000Y-109372666D01*
X185822619Y-109267904D01*
X185822619Y-109006000D01*
X185875000Y-108848857D01*
X186870238Y-108429809D02*
X186922619Y-108272666D01*
X186922619Y-108010761D01*
X186870238Y-107906000D01*
X186817857Y-107853619D01*
X186713095Y-107801238D01*
X186608333Y-107801238D01*
X186503571Y-107853619D01*
X186451190Y-107906000D01*
X186398809Y-108010761D01*
X186346428Y-108220285D01*
X186294047Y-108325047D01*
X186241666Y-108377428D01*
X186136904Y-108429809D01*
X186032142Y-108429809D01*
X185927380Y-108377428D01*
X185875000Y-108325047D01*
X185822619Y-108220285D01*
X185822619Y-107958380D01*
X185875000Y-107801238D01*
X186922619Y-107329809D02*
X185822619Y-107329809D01*
X185822619Y-107067904D01*
X185875000Y-106910761D01*
X185979761Y-106806000D01*
X186084523Y-106753619D01*
X186294047Y-106701238D01*
X186451190Y-106701238D01*
X186660714Y-106753619D01*
X186765476Y-106806000D01*
X186870238Y-106910761D01*
X186922619Y-107067904D01*
X186922619Y-107329809D01*
X185770238Y-105444095D02*
X187184523Y-106386952D01*
X186922619Y-104239333D02*
X185822619Y-104239333D01*
X185822619Y-103977428D01*
X185875000Y-103820285D01*
X185979761Y-103715523D01*
X186084523Y-103663142D01*
X186294047Y-103610761D01*
X186451190Y-103610761D01*
X186660714Y-103663142D01*
X186765476Y-103715523D01*
X186870238Y-103820285D01*
X186922619Y-103977428D01*
X186922619Y-104239333D01*
X186922619Y-103139333D02*
X186189285Y-103139333D01*
X185822619Y-103139333D02*
X185875000Y-103191714D01*
X185927380Y-103139333D01*
X185875000Y-103086952D01*
X185822619Y-103139333D01*
X185927380Y-103139333D01*
X186870238Y-102667904D02*
X186922619Y-102563142D01*
X186922619Y-102353619D01*
X186870238Y-102248857D01*
X186765476Y-102196476D01*
X186713095Y-102196476D01*
X186608333Y-102248857D01*
X186555952Y-102353619D01*
X186555952Y-102510761D01*
X186503571Y-102615523D01*
X186398809Y-102667904D01*
X186346428Y-102667904D01*
X186241666Y-102615523D01*
X186189285Y-102510761D01*
X186189285Y-102353619D01*
X186241666Y-102248857D01*
X186922619Y-101725047D02*
X185822619Y-101725047D01*
X186503571Y-101620285D02*
X186922619Y-101306000D01*
X186189285Y-101306000D02*
X186608333Y-101725047D01*
X186922619Y-99996476D02*
X185822619Y-99996476D01*
X186189285Y-99472666D02*
X186922619Y-99472666D01*
X186294047Y-99472666D02*
X186241666Y-99420285D01*
X186189285Y-99315523D01*
X186189285Y-99158380D01*
X186241666Y-99053619D01*
X186346428Y-99001238D01*
X186922619Y-99001238D01*
X186189285Y-98634571D02*
X186189285Y-98215523D01*
X185822619Y-98477428D02*
X186765476Y-98477428D01*
X186870238Y-98425047D01*
X186922619Y-98320285D01*
X186922619Y-98215523D01*
X186870238Y-97429809D02*
X186922619Y-97534571D01*
X186922619Y-97744095D01*
X186870238Y-97848857D01*
X186765476Y-97901238D01*
X186346428Y-97901238D01*
X186241666Y-97848857D01*
X186189285Y-97744095D01*
X186189285Y-97534571D01*
X186241666Y-97429809D01*
X186346428Y-97377428D01*
X186451190Y-97377428D01*
X186555952Y-97901238D01*
X186922619Y-96906000D02*
X186189285Y-96906000D01*
X186398809Y-96906000D02*
X186294047Y-96853619D01*
X186241666Y-96801238D01*
X186189285Y-96696476D01*
X186189285Y-96591714D01*
X186189285Y-96382190D02*
X186189285Y-95963142D01*
X186922619Y-96225047D02*
X185979761Y-96225047D01*
X185875000Y-96172666D01*
X185822619Y-96067904D01*
X185822619Y-95963142D01*
X186922619Y-95125047D02*
X186346428Y-95125047D01*
X186241666Y-95177428D01*
X186189285Y-95282190D01*
X186189285Y-95491714D01*
X186241666Y-95596476D01*
X186870238Y-95125047D02*
X186922619Y-95229809D01*
X186922619Y-95491714D01*
X186870238Y-95596476D01*
X186765476Y-95648857D01*
X186660714Y-95648857D01*
X186555952Y-95596476D01*
X186503571Y-95491714D01*
X186503571Y-95229809D01*
X186451190Y-95125047D01*
X186870238Y-94129809D02*
X186922619Y-94234571D01*
X186922619Y-94444095D01*
X186870238Y-94548857D01*
X186817857Y-94601238D01*
X186713095Y-94653619D01*
X186398809Y-94653619D01*
X186294047Y-94601238D01*
X186241666Y-94548857D01*
X186189285Y-94444095D01*
X186189285Y-94234571D01*
X186241666Y-94129809D01*
X186870238Y-93239333D02*
X186922619Y-93344095D01*
X186922619Y-93553619D01*
X186870238Y-93658380D01*
X186765476Y-93710761D01*
X186346428Y-93710761D01*
X186241666Y-93658380D01*
X186189285Y-93553619D01*
X186189285Y-93344095D01*
X186241666Y-93239333D01*
X186346428Y-93186952D01*
X186451190Y-93186952D01*
X186555952Y-93710761D01*
X188722619Y-113458380D02*
X187622619Y-113458380D01*
X187570238Y-112148857D02*
X188984523Y-113091714D01*
X187622619Y-111572666D02*
X187622619Y-111363142D01*
X187675000Y-111258380D01*
X187779761Y-111153619D01*
X187989285Y-111101238D01*
X188355952Y-111101238D01*
X188565476Y-111153619D01*
X188670238Y-111258380D01*
X188722619Y-111363142D01*
X188722619Y-111572666D01*
X188670238Y-111677428D01*
X188565476Y-111782190D01*
X188355952Y-111834571D01*
X187989285Y-111834571D01*
X187779761Y-111782190D01*
X187675000Y-111677428D01*
X187622619Y-111572666D01*
X188722619Y-109791714D02*
X187622619Y-109791714D01*
X187622619Y-109372666D01*
X187675000Y-109267904D01*
X187727380Y-109215523D01*
X187832142Y-109163142D01*
X187989285Y-109163142D01*
X188094047Y-109215523D01*
X188146428Y-109267904D01*
X188198809Y-109372666D01*
X188198809Y-109791714D01*
X188722619Y-108534571D02*
X188670238Y-108639333D01*
X188617857Y-108691714D01*
X188513095Y-108744095D01*
X188198809Y-108744095D01*
X188094047Y-108691714D01*
X188041666Y-108639333D01*
X187989285Y-108534571D01*
X187989285Y-108377428D01*
X188041666Y-108272666D01*
X188094047Y-108220285D01*
X188198809Y-108167904D01*
X188513095Y-108167904D01*
X188617857Y-108220285D01*
X188670238Y-108272666D01*
X188722619Y-108377428D01*
X188722619Y-108534571D01*
X188722619Y-107696476D02*
X187989285Y-107696476D01*
X188198809Y-107696476D02*
X188094047Y-107644095D01*
X188041666Y-107591714D01*
X187989285Y-107486952D01*
X187989285Y-107382190D01*
X187989285Y-107172666D02*
X187989285Y-106753619D01*
X187622619Y-107015523D02*
X188565476Y-107015523D01*
X188670238Y-106963142D01*
X188722619Y-106858380D01*
X188722619Y-106753619D01*
X187622619Y-105339333D02*
X187622619Y-105234571D01*
X187675000Y-105129809D01*
X187727380Y-105077428D01*
X187832142Y-105025047D01*
X188041666Y-104972666D01*
X188303571Y-104972666D01*
X188513095Y-105025047D01*
X188617857Y-105077428D01*
X188670238Y-105129809D01*
X188722619Y-105234571D01*
X188722619Y-105339333D01*
X188670238Y-105444095D01*
X188617857Y-105496476D01*
X188513095Y-105548857D01*
X188303571Y-105601238D01*
X188041666Y-105601238D01*
X187832142Y-105548857D01*
X187727380Y-105496476D01*
X187675000Y-105444095D01*
X187622619Y-105339333D01*
X188094047Y-104344095D02*
X188041666Y-104448857D01*
X187989285Y-104501238D01*
X187884523Y-104553619D01*
X187832142Y-104553619D01*
X187727380Y-104501238D01*
X187675000Y-104448857D01*
X187622619Y-104344095D01*
X187622619Y-104134571D01*
X187675000Y-104029809D01*
X187727380Y-103977428D01*
X187832142Y-103925047D01*
X187884523Y-103925047D01*
X187989285Y-103977428D01*
X188041666Y-104029809D01*
X188094047Y-104134571D01*
X188094047Y-104344095D01*
X188146428Y-104448857D01*
X188198809Y-104501238D01*
X188303571Y-104553619D01*
X188513095Y-104553619D01*
X188617857Y-104501238D01*
X188670238Y-104448857D01*
X188722619Y-104344095D01*
X188722619Y-104134571D01*
X188670238Y-104029809D01*
X188617857Y-103977428D01*
X188513095Y-103925047D01*
X188303571Y-103925047D01*
X188198809Y-103977428D01*
X188146428Y-104029809D01*
X188094047Y-104134571D01*
X188722619Y-103453619D02*
X187622619Y-103453619D01*
X188722619Y-102982190D02*
X188146428Y-102982190D01*
X188041666Y-103034571D01*
X187989285Y-103139333D01*
X187989285Y-103296476D01*
X188041666Y-103401238D01*
X188094047Y-103453619D01*
X188303571Y-101620285D02*
X188303571Y-100782190D01*
X188722619Y-98844095D02*
X188722619Y-99472666D01*
X188722619Y-99158380D02*
X187622619Y-99158380D01*
X187779761Y-99263142D01*
X187884523Y-99367904D01*
X187936904Y-99472666D01*
X187622619Y-97848857D02*
X187622619Y-98372666D01*
X188146428Y-98425047D01*
X188094047Y-98372666D01*
X188041666Y-98267904D01*
X188041666Y-98006000D01*
X188094047Y-97901238D01*
X188146428Y-97848857D01*
X188251190Y-97796476D01*
X188513095Y-97796476D01*
X188617857Y-97848857D01*
X188670238Y-97901238D01*
X188722619Y-98006000D01*
X188722619Y-98267904D01*
X188670238Y-98372666D01*
X188617857Y-98425047D01*
X188722619Y-97325047D02*
X187622619Y-97325047D01*
X188722619Y-96853619D02*
X188146428Y-96853619D01*
X188041666Y-96906000D01*
X187989285Y-97010761D01*
X187989285Y-97167904D01*
X188041666Y-97272666D01*
X188094047Y-97325047D01*
D10*
X162413071Y-78958000D02*
X160913071Y-78958000D01*
X160913071Y-78386571D01*
X160984500Y-78243714D01*
X161055928Y-78172285D01*
X161198785Y-78100857D01*
X161413071Y-78100857D01*
X161555928Y-78172285D01*
X161627357Y-78243714D01*
X161698785Y-78386571D01*
X161698785Y-78958000D01*
X162413071Y-77458000D02*
X160913071Y-77458000D01*
X162413071Y-76743714D02*
X160913071Y-76743714D01*
X162413071Y-75886571D01*
X160913071Y-75886571D01*
X162413071Y-74386571D02*
X162413071Y-75243714D01*
X162413071Y-74815142D02*
X160913071Y-74815142D01*
X161127357Y-74958000D01*
X161270214Y-75100857D01*
X161341642Y-75243714D01*
X177208571Y-83085428D02*
X175708571Y-83085428D01*
X175708571Y-82514000D01*
X175780000Y-82371142D01*
X175851428Y-82299714D01*
X175994285Y-82228285D01*
X176208571Y-82228285D01*
X176351428Y-82299714D01*
X176422857Y-82371142D01*
X176494285Y-82514000D01*
X176494285Y-83085428D01*
X177208571Y-81585428D02*
X175708571Y-81585428D01*
X177208571Y-80871142D02*
X175708571Y-80871142D01*
X177208571Y-80014000D01*
X175708571Y-80014000D01*
X177208571Y-77371142D02*
X177208571Y-78228285D01*
X177208571Y-77799714D02*
X175708571Y-77799714D01*
X175922857Y-77942571D01*
X176065714Y-78085428D01*
X176137142Y-78228285D01*
D11*
X140325000Y-142532428D02*
X140325000Y-144032428D01*
X139610714Y-142532428D02*
X139610714Y-144032428D01*
X139253571Y-144032428D01*
X139039285Y-143961000D01*
X138896428Y-143818142D01*
X138825000Y-143675285D01*
X138753571Y-143389571D01*
X138753571Y-143175285D01*
X138825000Y-142889571D01*
X138896428Y-142746714D01*
X139039285Y-142603857D01*
X139253571Y-142532428D01*
X139610714Y-142532428D01*
X138110714Y-143318142D02*
X137610714Y-143318142D01*
X137396428Y-142532428D02*
X138110714Y-142532428D01*
X138110714Y-144032428D01*
X137396428Y-144032428D01*
X136753571Y-143103857D02*
X135610714Y-143103857D01*
X134682142Y-143389571D02*
X134825000Y-143461000D01*
X134896428Y-143532428D01*
X134967857Y-143675285D01*
X134967857Y-143746714D01*
X134896428Y-143889571D01*
X134825000Y-143961000D01*
X134682142Y-144032428D01*
X134396428Y-144032428D01*
X134253571Y-143961000D01*
X134182142Y-143889571D01*
X134110714Y-143746714D01*
X134110714Y-143675285D01*
X134182142Y-143532428D01*
X134253571Y-143461000D01*
X134396428Y-143389571D01*
X134682142Y-143389571D01*
X134825000Y-143318142D01*
X134896428Y-143246714D01*
X134967857Y-143103857D01*
X134967857Y-142818142D01*
X134896428Y-142675285D01*
X134825000Y-142603857D01*
X134682142Y-142532428D01*
X134396428Y-142532428D01*
X134253571Y-142603857D01*
X134182142Y-142675285D01*
X134110714Y-142818142D01*
X134110714Y-143103857D01*
X134182142Y-143246714D01*
X134253571Y-143318142D01*
X134396428Y-143389571D01*
X133182142Y-144032428D02*
X133039285Y-144032428D01*
X132896428Y-143961000D01*
X132825000Y-143889571D01*
X132753571Y-143746714D01*
X132682142Y-143461000D01*
X132682142Y-143103857D01*
X132753571Y-142818142D01*
X132825000Y-142675285D01*
X132896428Y-142603857D01*
X133039285Y-142532428D01*
X133182142Y-142532428D01*
X133325000Y-142603857D01*
X133396428Y-142675285D01*
X133467857Y-142818142D01*
X133539285Y-143103857D01*
X133539285Y-143461000D01*
X133467857Y-143746714D01*
X133396428Y-143889571D01*
X133325000Y-143961000D01*
X133182142Y-144032428D01*
X130039285Y-142675285D02*
X130110714Y-142603857D01*
X130325000Y-142532428D01*
X130467857Y-142532428D01*
X130682142Y-142603857D01*
X130825000Y-142746714D01*
X130896428Y-142889571D01*
X130967857Y-143175285D01*
X130967857Y-143389571D01*
X130896428Y-143675285D01*
X130825000Y-143818142D01*
X130682142Y-143961000D01*
X130467857Y-144032428D01*
X130325000Y-144032428D01*
X130110714Y-143961000D01*
X130039285Y-143889571D01*
X128896428Y-143318142D02*
X129396428Y-143318142D01*
X129396428Y-142532428D02*
X129396428Y-144032428D01*
X128682142Y-144032428D01*
X128110714Y-143103857D02*
X126967857Y-143103857D01*
X126325000Y-142961000D02*
X125610714Y-142961000D01*
X126467857Y-142532428D02*
X125967857Y-144032428D01*
X125467857Y-142532428D01*
X124325000Y-142532428D02*
X124325000Y-144032428D01*
X124325000Y-142603857D02*
X124467857Y-142532428D01*
X124753571Y-142532428D01*
X124896428Y-142603857D01*
X124967857Y-142675285D01*
X125039285Y-142818142D01*
X125039285Y-143246714D01*
X124967857Y-143389571D01*
X124896428Y-143461000D01*
X124753571Y-143532428D01*
X124467857Y-143532428D01*
X124325000Y-143461000D01*
X122967857Y-142532428D02*
X122967857Y-143318142D01*
X123039285Y-143461000D01*
X123182142Y-143532428D01*
X123467857Y-143532428D01*
X123610714Y-143461000D01*
X122967857Y-142603857D02*
X123110714Y-142532428D01*
X123467857Y-142532428D01*
X123610714Y-142603857D01*
X123682142Y-142746714D01*
X123682142Y-142889571D01*
X123610714Y-143032428D01*
X123467857Y-143103857D01*
X123110714Y-143103857D01*
X122967857Y-143175285D01*
X122253571Y-143532428D02*
X122253571Y-142032428D01*
X122253571Y-143461000D02*
X122110714Y-143532428D01*
X121825000Y-143532428D01*
X121682142Y-143461000D01*
X121610714Y-143389571D01*
X121539285Y-143246714D01*
X121539285Y-142818142D01*
X121610714Y-142675285D01*
X121682142Y-142603857D01*
X121825000Y-142532428D01*
X122110714Y-142532428D01*
X122253571Y-142603857D01*
X121110714Y-143532428D02*
X120539285Y-143532428D01*
X120896428Y-144032428D02*
X120896428Y-142746714D01*
X120825000Y-142603857D01*
X120682142Y-142532428D01*
X120539285Y-142532428D01*
X119467857Y-142603857D02*
X119610714Y-142532428D01*
X119896428Y-142532428D01*
X120039285Y-142603857D01*
X120110714Y-142746714D01*
X120110714Y-143318142D01*
X120039285Y-143461000D01*
X119896428Y-143532428D01*
X119610714Y-143532428D01*
X119467857Y-143461000D01*
X119396428Y-143318142D01*
X119396428Y-143175285D01*
X120110714Y-143032428D01*
X118753571Y-142532428D02*
X118753571Y-143532428D01*
X118753571Y-143246714D02*
X118682142Y-143389571D01*
X118610714Y-143461000D01*
X118467857Y-143532428D01*
X118325000Y-143532428D01*
X115753571Y-144032428D02*
X115253571Y-142532428D01*
X114753571Y-144032428D01*
X113682142Y-142603857D02*
X113825000Y-142532428D01*
X114110714Y-142532428D01*
X114253571Y-142603857D01*
X114325000Y-142746714D01*
X114325000Y-143318142D01*
X114253571Y-143461000D01*
X114110714Y-143532428D01*
X113825000Y-143532428D01*
X113682142Y-143461000D01*
X113610714Y-143318142D01*
X113610714Y-143175285D01*
X114325000Y-143032428D01*
X112967857Y-142532428D02*
X112967857Y-143532428D01*
X112967857Y-143246714D02*
X112896428Y-143389571D01*
X112825000Y-143461000D01*
X112682142Y-143532428D01*
X112539285Y-143532428D01*
X112039285Y-142675285D02*
X111967857Y-142603857D01*
X112039285Y-142532428D01*
X112110714Y-142603857D01*
X112039285Y-142675285D01*
X112039285Y-142532428D01*
X109396428Y-142532428D02*
X110253571Y-142532428D01*
X109825000Y-142532428D02*
X109825000Y-144032428D01*
X109967857Y-143818142D01*
X110110714Y-143675285D01*
X110253571Y-143603857D01*
X108753571Y-142675285D02*
X108682142Y-142603857D01*
X108753571Y-142532428D01*
X108825000Y-142603857D01*
X108753571Y-142675285D01*
X108753571Y-142532428D01*
X107253571Y-142532428D02*
X108110714Y-142532428D01*
X107682142Y-142532428D02*
X107682142Y-144032428D01*
X107825000Y-143818142D01*
X107967857Y-143675285D01*
X108110714Y-143603857D01*
X138039285Y-141582428D02*
X138039285Y-140368142D01*
X137967857Y-140225285D01*
X137896428Y-140153857D01*
X137753571Y-140082428D01*
X137467857Y-140082428D01*
X137325000Y-140153857D01*
X137253571Y-140225285D01*
X137182142Y-140368142D01*
X137182142Y-141582428D01*
X136253571Y-140082428D02*
X136396428Y-140153857D01*
X136467857Y-140296714D01*
X136467857Y-141582428D01*
X135682142Y-140082428D02*
X135682142Y-141082428D01*
X135682142Y-140796714D02*
X135610714Y-140939571D01*
X135539285Y-141011000D01*
X135396428Y-141082428D01*
X135253571Y-141082428D01*
X134753571Y-140082428D02*
X134753571Y-141082428D01*
X134753571Y-141582428D02*
X134825000Y-141511000D01*
X134753571Y-141439571D01*
X134682142Y-141511000D01*
X134753571Y-141582428D01*
X134753571Y-141439571D01*
X133396428Y-140153857D02*
X133539285Y-140082428D01*
X133825000Y-140082428D01*
X133967857Y-140153857D01*
X134039285Y-140225285D01*
X134110714Y-140368142D01*
X134110714Y-140796714D01*
X134039285Y-140939571D01*
X133967857Y-141011000D01*
X133825000Y-141082428D01*
X133539285Y-141082428D01*
X133396428Y-141011000D01*
X132753571Y-140082428D02*
X132753571Y-141582428D01*
X132110714Y-140082428D02*
X132110714Y-140868142D01*
X132182142Y-141011000D01*
X132325000Y-141082428D01*
X132539285Y-141082428D01*
X132682142Y-141011000D01*
X132753571Y-140939571D01*
X130253571Y-140082428D02*
X130253571Y-141582428D01*
X130253571Y-140868142D02*
X129396428Y-140868142D01*
X129396428Y-140082428D02*
X129396428Y-141582428D01*
X128039285Y-140082428D02*
X128039285Y-140868142D01*
X128110714Y-141011000D01*
X128253571Y-141082428D01*
X128539285Y-141082428D01*
X128682142Y-141011000D01*
X128039285Y-140153857D02*
X128182142Y-140082428D01*
X128539285Y-140082428D01*
X128682142Y-140153857D01*
X128753571Y-140296714D01*
X128753571Y-140439571D01*
X128682142Y-140582428D01*
X128539285Y-140653857D01*
X128182142Y-140653857D01*
X128039285Y-140725285D01*
X126682142Y-141082428D02*
X126682142Y-140082428D01*
X127325000Y-141082428D02*
X127325000Y-140296714D01*
X127253571Y-140153857D01*
X127110714Y-140082428D01*
X126896428Y-140082428D01*
X126753571Y-140153857D01*
X126682142Y-140225285D01*
X125967857Y-140082428D02*
X125967857Y-141082428D01*
X125967857Y-140939571D02*
X125896428Y-141011000D01*
X125753571Y-141082428D01*
X125539285Y-141082428D01*
X125396428Y-141011000D01*
X125325000Y-140868142D01*
X125325000Y-140082428D01*
X125325000Y-140868142D02*
X125253571Y-141011000D01*
X125110714Y-141082428D01*
X124896428Y-141082428D01*
X124753571Y-141011000D01*
X124682142Y-140868142D01*
X124682142Y-140082428D01*
X123325000Y-140082428D02*
X123325000Y-140868142D01*
X123396428Y-141011000D01*
X123539285Y-141082428D01*
X123825000Y-141082428D01*
X123967857Y-141011000D01*
X123325000Y-140153857D02*
X123467857Y-140082428D01*
X123825000Y-140082428D01*
X123967857Y-140153857D01*
X124039285Y-140296714D01*
X124039285Y-140439571D01*
X123967857Y-140582428D01*
X123825000Y-140653857D01*
X123467857Y-140653857D01*
X123325000Y-140725285D01*
X122610714Y-141082428D02*
X122610714Y-140082428D01*
X122610714Y-140939571D02*
X122539285Y-141011000D01*
X122396428Y-141082428D01*
X122182142Y-141082428D01*
X122039285Y-141011000D01*
X121967857Y-140868142D01*
X121967857Y-140082428D01*
X121253571Y-141082428D02*
X121253571Y-140082428D01*
X121253571Y-140939571D02*
X121182142Y-141011000D01*
X121039285Y-141082428D01*
X120825000Y-141082428D01*
X120682142Y-141011000D01*
X120610714Y-140868142D01*
X120610714Y-140082428D01*
X116967857Y-141082428D02*
X116967857Y-140082428D01*
X117325000Y-141653857D02*
X117682142Y-140582428D01*
X116753571Y-140582428D01*
X115110714Y-141653857D02*
X116396428Y-139725285D01*
X114682142Y-141439571D02*
X114610714Y-141511000D01*
X114467857Y-141582428D01*
X114110714Y-141582428D01*
X113967857Y-141511000D01*
X113896428Y-141439571D01*
X113825000Y-141296714D01*
X113825000Y-141153857D01*
X113896428Y-140939571D01*
X114753571Y-140082428D01*
X113825000Y-140082428D01*
X112896428Y-141582428D02*
X112753571Y-141582428D01*
X112610714Y-141511000D01*
X112539285Y-141439571D01*
X112467857Y-141296714D01*
X112396428Y-141011000D01*
X112396428Y-140653857D01*
X112467857Y-140368142D01*
X112539285Y-140225285D01*
X112610714Y-140153857D01*
X112753571Y-140082428D01*
X112896428Y-140082428D01*
X113039285Y-140153857D01*
X113110714Y-140225285D01*
X113182142Y-140368142D01*
X113253571Y-140653857D01*
X113253571Y-141011000D01*
X113182142Y-141296714D01*
X113110714Y-141439571D01*
X113039285Y-141511000D01*
X112896428Y-141582428D01*
X111825000Y-141439571D02*
X111753571Y-141511000D01*
X111610714Y-141582428D01*
X111253571Y-141582428D01*
X111110714Y-141511000D01*
X111039285Y-141439571D01*
X110967857Y-141296714D01*
X110967857Y-141153857D01*
X111039285Y-140939571D01*
X111896428Y-140082428D01*
X110967857Y-140082428D01*
X109682142Y-141582428D02*
X109967857Y-141582428D01*
X110110714Y-141511000D01*
X110182142Y-141439571D01*
X110325000Y-141225285D01*
X110396428Y-140939571D01*
X110396428Y-140368142D01*
X110325000Y-140225285D01*
X110253571Y-140153857D01*
X110110714Y-140082428D01*
X109825000Y-140082428D01*
X109682142Y-140153857D01*
X109610714Y-140225285D01*
X109539285Y-140368142D01*
X109539285Y-140725285D01*
X109610714Y-140868142D01*
X109682142Y-140939571D01*
X109825000Y-141011000D01*
X110110714Y-141011000D01*
X110253571Y-140939571D01*
X110325000Y-140868142D01*
X110396428Y-140725285D01*
D13*
%TO.C,JP1*%
X70933000Y-96206000D02*
X72263000Y-96206000D01*
X70933000Y-97536000D02*
X70933000Y-96206000D01*
X70933000Y-98806000D02*
X73593000Y-98806000D01*
X73593000Y-98806000D02*
X73593000Y-101406000D01*
X70933000Y-98806000D02*
X70933000Y-101406000D01*
X70933000Y-101406000D02*
X73593000Y-101406000D01*
%TO.C,U2*%
X77410000Y-72120000D02*
X77410000Y-73770000D01*
X77410000Y-73770000D02*
X95310000Y-73770000D01*
X95310000Y-73770000D02*
X95310000Y-68470000D01*
X95310000Y-68470000D02*
X77410000Y-68470000D01*
X77410000Y-68470000D02*
X77410000Y-70120000D01*
X77410000Y-70120000D02*
G75*
G02*
X77410000Y-72120000I0J-1000000D01*
G01*
%TO.C,J4*%
X97850000Y-108010000D02*
X97850000Y-102810000D01*
X80010000Y-108010000D02*
X97850000Y-108010000D01*
X77410000Y-102810000D02*
X97850000Y-102810000D01*
X80010000Y-108010000D02*
X80010000Y-105410000D01*
X80010000Y-105410000D02*
X77410000Y-105410000D01*
X77410000Y-105410000D02*
X77410000Y-102810000D01*
X78740000Y-108010000D02*
X77410000Y-108010000D01*
X77410000Y-108010000D02*
X77410000Y-106680000D01*
%TO.C,U1*%
X77410000Y-115300000D02*
X77410000Y-116950000D01*
X77410000Y-116950000D02*
X97850000Y-116950000D01*
X97850000Y-116950000D02*
X97850000Y-111650000D01*
X97850000Y-111650000D02*
X77410000Y-111650000D01*
X77410000Y-111650000D02*
X77410000Y-113300000D01*
X77410000Y-113300000D02*
G75*
G02*
X77410000Y-115300000I0J-1000000D01*
G01*
%TO.C,J1*%
X57073000Y-145116000D02*
X62633000Y-145116000D01*
X62633000Y-145116000D02*
X62633000Y-139596000D01*
X62633000Y-139596000D02*
X61633000Y-139596000D01*
X57073000Y-50596000D02*
X62633000Y-50596000D01*
X62633000Y-50596000D02*
X62633000Y-56116000D01*
X62633000Y-56116000D02*
X61633000Y-56116000D01*
X61633000Y-139597000D02*
X61633000Y-138321000D01*
X61633000Y-136131000D02*
X61633000Y-135555000D01*
X61633000Y-133816000D02*
X61633000Y-133015000D01*
X61633000Y-131276000D02*
X61633000Y-130475000D01*
X61633000Y-128736000D02*
X61633000Y-127935000D01*
X61633000Y-126196000D02*
X61633000Y-125395000D01*
X61633000Y-123656000D02*
X61633000Y-122855000D01*
X61633000Y-121116000D02*
X61633000Y-120315000D01*
X61633000Y-118576000D02*
X61633000Y-117775000D01*
X61633000Y-116036000D02*
X61633000Y-115235000D01*
X61633000Y-113496000D02*
X61633000Y-112695000D01*
X61633000Y-110956000D02*
X61633000Y-110155000D01*
X61633000Y-108416000D02*
X61633000Y-107615000D01*
X61633000Y-105876000D02*
X61633000Y-105075000D01*
X61633000Y-103336000D02*
X61633000Y-102535000D01*
X61633000Y-100796000D02*
X61633000Y-99995000D01*
X61633000Y-98256000D02*
X61633000Y-97455000D01*
X61633000Y-95716000D02*
X61633000Y-94915000D01*
X61633000Y-93176000D02*
X61633000Y-92375000D01*
X61633000Y-90636000D02*
X61633000Y-89835000D01*
X61633000Y-88096000D02*
X61633000Y-87295000D01*
X61633000Y-85556000D02*
X61633000Y-84755000D01*
X61633000Y-83016000D02*
X61633000Y-82215000D01*
X61633000Y-80476000D02*
X61633000Y-79675000D01*
X61633000Y-77936000D02*
X61633000Y-77135000D01*
X61633000Y-75396000D02*
X61633000Y-74595000D01*
X61633000Y-72856000D02*
X61633000Y-72055000D01*
X61633000Y-70316000D02*
X61633000Y-69515000D01*
X61633000Y-67776000D02*
X61633000Y-66975000D01*
X61633000Y-65236000D02*
X61633000Y-64435000D01*
X61633000Y-62696000D02*
X61633000Y-61895000D01*
X61633000Y-60156000D02*
X61633000Y-59355000D01*
X61633000Y-57616000D02*
X61633000Y-56116000D01*
X62373000Y-138321000D02*
X62073000Y-138921000D01*
X62073000Y-138921000D02*
X62673000Y-138921000D01*
X62673000Y-138921000D02*
X62373000Y-138321000D01*
%TO.C,U3*%
X77410000Y-83550000D02*
X77410000Y-85200000D01*
X77410000Y-85200000D02*
X95310000Y-85200000D01*
X95310000Y-85200000D02*
X95310000Y-79900000D01*
X95310000Y-79900000D02*
X77410000Y-79900000D01*
X77410000Y-79900000D02*
X77410000Y-81550000D01*
X77410000Y-81550000D02*
G75*
G02*
X77410000Y-83550000I0J-1000000D01*
G01*
%TO.C,R7*%
X201390000Y-68680000D02*
X201390000Y-65940000D01*
X201390000Y-65940000D02*
X194850000Y-65940000D01*
X194850000Y-65940000D02*
X194850000Y-68680000D01*
X194850000Y-68680000D02*
X201390000Y-68680000D01*
X202160000Y-67310000D02*
X201390000Y-67310000D01*
X194080000Y-67310000D02*
X194850000Y-67310000D01*
%TO.C,JP4*%
X186750000Y-65980000D02*
X184090000Y-65980000D01*
X186750000Y-68580000D02*
X186750000Y-65980000D01*
X184090000Y-68580000D02*
X184090000Y-65980000D01*
X186750000Y-68580000D02*
X184090000Y-68580000D01*
X186750000Y-69850000D02*
X186750000Y-71180000D01*
X186750000Y-71180000D02*
X185420000Y-71180000D01*
%TO.C,D2*%
X211110000Y-68546000D02*
X211110000Y-68390000D01*
X211110000Y-66230000D02*
X211110000Y-66074000D01*
X208508870Y-66230163D02*
G75*
G02*
X210590961Y-66230000I1041130J-1079837D01*
G01*
X208508870Y-68389837D02*
G75*
G03*
X210590961Y-68390000I1041130J1079837D01*
G01*
X207877665Y-66231392D02*
G75*
G02*
X211110000Y-66074484I1672335J-1078608D01*
G01*
X207877665Y-68388608D02*
G75*
G03*
X211110000Y-68545516I1672335J1078608D01*
G01*
%TO.C,C8*%
X169371000Y-138410000D02*
G75*
G03*
X169371000Y-138410000I-2620000J0D01*
G01*
X169331000Y-138410000D02*
X164171000Y-138410000D01*
X169331000Y-138450000D02*
X164171000Y-138450000D01*
X169330000Y-138490000D02*
X164172000Y-138490000D01*
X169329000Y-138530000D02*
X164173000Y-138530000D01*
X169327000Y-138570000D02*
X164175000Y-138570000D01*
X169324000Y-138610000D02*
X164178000Y-138610000D01*
X169320000Y-138650000D02*
X167791000Y-138650000D01*
X165711000Y-138650000D02*
X164182000Y-138650000D01*
X169316000Y-138690000D02*
X167791000Y-138690000D01*
X165711000Y-138690000D02*
X164186000Y-138690000D01*
X169312000Y-138730000D02*
X167791000Y-138730000D01*
X165711000Y-138730000D02*
X164190000Y-138730000D01*
X169307000Y-138770000D02*
X167791000Y-138770000D01*
X165711000Y-138770000D02*
X164195000Y-138770000D01*
X169301000Y-138810000D02*
X167791000Y-138810000D01*
X165711000Y-138810000D02*
X164201000Y-138810000D01*
X169294000Y-138850000D02*
X167791000Y-138850000D01*
X165711000Y-138850000D02*
X164208000Y-138850000D01*
X169287000Y-138890000D02*
X167791000Y-138890000D01*
X165711000Y-138890000D02*
X164215000Y-138890000D01*
X169279000Y-138930000D02*
X167791000Y-138930000D01*
X165711000Y-138930000D02*
X164223000Y-138930000D01*
X169271000Y-138970000D02*
X167791000Y-138970000D01*
X165711000Y-138970000D02*
X164231000Y-138970000D01*
X169262000Y-139010000D02*
X167791000Y-139010000D01*
X165711000Y-139010000D02*
X164240000Y-139010000D01*
X169252000Y-139050000D02*
X167791000Y-139050000D01*
X165711000Y-139050000D02*
X164250000Y-139050000D01*
X169242000Y-139090000D02*
X167791000Y-139090000D01*
X165711000Y-139090000D02*
X164260000Y-139090000D01*
X169231000Y-139131000D02*
X167791000Y-139131000D01*
X165711000Y-139131000D02*
X164271000Y-139131000D01*
X169219000Y-139171000D02*
X167791000Y-139171000D01*
X165711000Y-139171000D02*
X164283000Y-139171000D01*
X169206000Y-139211000D02*
X167791000Y-139211000D01*
X165711000Y-139211000D02*
X164296000Y-139211000D01*
X169193000Y-139251000D02*
X167791000Y-139251000D01*
X165711000Y-139251000D02*
X164309000Y-139251000D01*
X169179000Y-139291000D02*
X167791000Y-139291000D01*
X165711000Y-139291000D02*
X164323000Y-139291000D01*
X169165000Y-139331000D02*
X167791000Y-139331000D01*
X165711000Y-139331000D02*
X164337000Y-139331000D01*
X169149000Y-139371000D02*
X167791000Y-139371000D01*
X165711000Y-139371000D02*
X164353000Y-139371000D01*
X169133000Y-139411000D02*
X167791000Y-139411000D01*
X165711000Y-139411000D02*
X164369000Y-139411000D01*
X169116000Y-139451000D02*
X167791000Y-139451000D01*
X165711000Y-139451000D02*
X164386000Y-139451000D01*
X169099000Y-139491000D02*
X167791000Y-139491000D01*
X165711000Y-139491000D02*
X164403000Y-139491000D01*
X169080000Y-139531000D02*
X167791000Y-139531000D01*
X165711000Y-139531000D02*
X164422000Y-139531000D01*
X169061000Y-139571000D02*
X167791000Y-139571000D01*
X165711000Y-139571000D02*
X164441000Y-139571000D01*
X169041000Y-139611000D02*
X167791000Y-139611000D01*
X165711000Y-139611000D02*
X164461000Y-139611000D01*
X169019000Y-139651000D02*
X167791000Y-139651000D01*
X165711000Y-139651000D02*
X164483000Y-139651000D01*
X168998000Y-139691000D02*
X167791000Y-139691000D01*
X165711000Y-139691000D02*
X164504000Y-139691000D01*
X168975000Y-139731000D02*
X167791000Y-139731000D01*
X165711000Y-139731000D02*
X164527000Y-139731000D01*
X168951000Y-139771000D02*
X167791000Y-139771000D01*
X165711000Y-139771000D02*
X164551000Y-139771000D01*
X168926000Y-139811000D02*
X167791000Y-139811000D01*
X165711000Y-139811000D02*
X164576000Y-139811000D01*
X168900000Y-139851000D02*
X167791000Y-139851000D01*
X165711000Y-139851000D02*
X164602000Y-139851000D01*
X168873000Y-139891000D02*
X167791000Y-139891000D01*
X165711000Y-139891000D02*
X164629000Y-139891000D01*
X168846000Y-139931000D02*
X167791000Y-139931000D01*
X165711000Y-139931000D02*
X164656000Y-139931000D01*
X168816000Y-139971000D02*
X167791000Y-139971000D01*
X165711000Y-139971000D02*
X164686000Y-139971000D01*
X168786000Y-140011000D02*
X167791000Y-140011000D01*
X165711000Y-140011000D02*
X164716000Y-140011000D01*
X168755000Y-140051000D02*
X167791000Y-140051000D01*
X165711000Y-140051000D02*
X164747000Y-140051000D01*
X168722000Y-140091000D02*
X167791000Y-140091000D01*
X165711000Y-140091000D02*
X164780000Y-140091000D01*
X168688000Y-140131000D02*
X167791000Y-140131000D01*
X165711000Y-140131000D02*
X164814000Y-140131000D01*
X168652000Y-140171000D02*
X167791000Y-140171000D01*
X165711000Y-140171000D02*
X164850000Y-140171000D01*
X168615000Y-140211000D02*
X167791000Y-140211000D01*
X165711000Y-140211000D02*
X164887000Y-140211000D01*
X168577000Y-140251000D02*
X167791000Y-140251000D01*
X165711000Y-140251000D02*
X164925000Y-140251000D01*
X168536000Y-140291000D02*
X167791000Y-140291000D01*
X165711000Y-140291000D02*
X164966000Y-140291000D01*
X168494000Y-140331000D02*
X167791000Y-140331000D01*
X165711000Y-140331000D02*
X165008000Y-140331000D01*
X168450000Y-140371000D02*
X167791000Y-140371000D01*
X165711000Y-140371000D02*
X165052000Y-140371000D01*
X168404000Y-140411000D02*
X167791000Y-140411000D01*
X165711000Y-140411000D02*
X165098000Y-140411000D01*
X168356000Y-140451000D02*
X167791000Y-140451000D01*
X165711000Y-140451000D02*
X165146000Y-140451000D01*
X168305000Y-140491000D02*
X167791000Y-140491000D01*
X165711000Y-140491000D02*
X165197000Y-140491000D01*
X168251000Y-140531000D02*
X167791000Y-140531000D01*
X165711000Y-140531000D02*
X165251000Y-140531000D01*
X168194000Y-140571000D02*
X167791000Y-140571000D01*
X165711000Y-140571000D02*
X165308000Y-140571000D01*
X168134000Y-140611000D02*
X167791000Y-140611000D01*
X165711000Y-140611000D02*
X165368000Y-140611000D01*
X168070000Y-140651000D02*
X167791000Y-140651000D01*
X165711000Y-140651000D02*
X165432000Y-140651000D01*
X168002000Y-140691000D02*
X167791000Y-140691000D01*
X165711000Y-140691000D02*
X165500000Y-140691000D01*
X167929000Y-140731000D02*
X165573000Y-140731000D01*
X167849000Y-140771000D02*
X165653000Y-140771000D01*
X167762000Y-140811000D02*
X165740000Y-140811000D01*
X167666000Y-140851000D02*
X165836000Y-140851000D01*
X167556000Y-140891000D02*
X165946000Y-140891000D01*
X167428000Y-140931000D02*
X166074000Y-140931000D01*
X167269000Y-140971000D02*
X166233000Y-140971000D01*
X167035000Y-141011000D02*
X166467000Y-141011000D01*
X168226000Y-135605225D02*
X168226000Y-136105225D01*
X168476000Y-135855225D02*
X167976000Y-135855225D01*
%TO.C,C5*%
X177823000Y-71351000D02*
X177823000Y-64111000D01*
X180063000Y-71351000D02*
X180063000Y-64111000D01*
X177823000Y-71351000D02*
X180063000Y-71351000D01*
X177823000Y-64111000D02*
X180063000Y-64111000D01*
%TO.C,C4*%
X71905000Y-75415000D02*
X71905000Y-68175000D01*
X74145000Y-75415000D02*
X74145000Y-68175000D01*
X71905000Y-75415000D02*
X74145000Y-75415000D01*
X71905000Y-68175000D02*
X74145000Y-68175000D01*
%TO.C,C3*%
X71905000Y-86210000D02*
X71905000Y-78970000D01*
X74145000Y-86210000D02*
X74145000Y-78970000D01*
X71905000Y-86210000D02*
X74145000Y-86210000D01*
X71905000Y-78970000D02*
X74145000Y-78970000D01*
%TO.C,C2*%
X185524000Y-138280000D02*
X178284000Y-138280000D01*
X185524000Y-136040000D02*
X178284000Y-136040000D01*
X185524000Y-138280000D02*
X185524000Y-136040000D01*
X178284000Y-138280000D02*
X178284000Y-136040000D01*
%TO.C,C1*%
X82610000Y-55880000D02*
G75*
G03*
X82610000Y-55880000I-2620000J0D01*
G01*
X79990000Y-53300000D02*
X79990000Y-58460000D01*
X80030000Y-53300000D02*
X80030000Y-58460000D01*
X80070000Y-53301000D02*
X80070000Y-58459000D01*
X80110000Y-53302000D02*
X80110000Y-58458000D01*
X80150000Y-53304000D02*
X80150000Y-58456000D01*
X80190000Y-53307000D02*
X80190000Y-58453000D01*
X80230000Y-53311000D02*
X80230000Y-54840000D01*
X80230000Y-56920000D02*
X80230000Y-58449000D01*
X80270000Y-53315000D02*
X80270000Y-54840000D01*
X80270000Y-56920000D02*
X80270000Y-58445000D01*
X80310000Y-53319000D02*
X80310000Y-54840000D01*
X80310000Y-56920000D02*
X80310000Y-58441000D01*
X80350000Y-53324000D02*
X80350000Y-54840000D01*
X80350000Y-56920000D02*
X80350000Y-58436000D01*
X80390000Y-53330000D02*
X80390000Y-54840000D01*
X80390000Y-56920000D02*
X80390000Y-58430000D01*
X80430000Y-53337000D02*
X80430000Y-54840000D01*
X80430000Y-56920000D02*
X80430000Y-58423000D01*
X80470000Y-53344000D02*
X80470000Y-54840000D01*
X80470000Y-56920000D02*
X80470000Y-58416000D01*
X80510000Y-53352000D02*
X80510000Y-54840000D01*
X80510000Y-56920000D02*
X80510000Y-58408000D01*
X80550000Y-53360000D02*
X80550000Y-54840000D01*
X80550000Y-56920000D02*
X80550000Y-58400000D01*
X80590000Y-53369000D02*
X80590000Y-54840000D01*
X80590000Y-56920000D02*
X80590000Y-58391000D01*
X80630000Y-53379000D02*
X80630000Y-54840000D01*
X80630000Y-56920000D02*
X80630000Y-58381000D01*
X80670000Y-53389000D02*
X80670000Y-54840000D01*
X80670000Y-56920000D02*
X80670000Y-58371000D01*
X80711000Y-53400000D02*
X80711000Y-54840000D01*
X80711000Y-56920000D02*
X80711000Y-58360000D01*
X80751000Y-53412000D02*
X80751000Y-54840000D01*
X80751000Y-56920000D02*
X80751000Y-58348000D01*
X80791000Y-53425000D02*
X80791000Y-54840000D01*
X80791000Y-56920000D02*
X80791000Y-58335000D01*
X80831000Y-53438000D02*
X80831000Y-54840000D01*
X80831000Y-56920000D02*
X80831000Y-58322000D01*
X80871000Y-53452000D02*
X80871000Y-54840000D01*
X80871000Y-56920000D02*
X80871000Y-58308000D01*
X80911000Y-53466000D02*
X80911000Y-54840000D01*
X80911000Y-56920000D02*
X80911000Y-58294000D01*
X80951000Y-53482000D02*
X80951000Y-54840000D01*
X80951000Y-56920000D02*
X80951000Y-58278000D01*
X80991000Y-53498000D02*
X80991000Y-54840000D01*
X80991000Y-56920000D02*
X80991000Y-58262000D01*
X81031000Y-53515000D02*
X81031000Y-54840000D01*
X81031000Y-56920000D02*
X81031000Y-58245000D01*
X81071000Y-53532000D02*
X81071000Y-54840000D01*
X81071000Y-56920000D02*
X81071000Y-58228000D01*
X81111000Y-53551000D02*
X81111000Y-54840000D01*
X81111000Y-56920000D02*
X81111000Y-58209000D01*
X81151000Y-53570000D02*
X81151000Y-54840000D01*
X81151000Y-56920000D02*
X81151000Y-58190000D01*
X81191000Y-53590000D02*
X81191000Y-54840000D01*
X81191000Y-56920000D02*
X81191000Y-58170000D01*
X81231000Y-53612000D02*
X81231000Y-54840000D01*
X81231000Y-56920000D02*
X81231000Y-58148000D01*
X81271000Y-53633000D02*
X81271000Y-54840000D01*
X81271000Y-56920000D02*
X81271000Y-58127000D01*
X81311000Y-53656000D02*
X81311000Y-54840000D01*
X81311000Y-56920000D02*
X81311000Y-58104000D01*
X81351000Y-53680000D02*
X81351000Y-54840000D01*
X81351000Y-56920000D02*
X81351000Y-58080000D01*
X81391000Y-53705000D02*
X81391000Y-54840000D01*
X81391000Y-56920000D02*
X81391000Y-58055000D01*
X81431000Y-53731000D02*
X81431000Y-54840000D01*
X81431000Y-56920000D02*
X81431000Y-58029000D01*
X81471000Y-53758000D02*
X81471000Y-54840000D01*
X81471000Y-56920000D02*
X81471000Y-58002000D01*
X81511000Y-53785000D02*
X81511000Y-54840000D01*
X81511000Y-56920000D02*
X81511000Y-57975000D01*
X81551000Y-53815000D02*
X81551000Y-54840000D01*
X81551000Y-56920000D02*
X81551000Y-57945000D01*
X81591000Y-53845000D02*
X81591000Y-54840000D01*
X81591000Y-56920000D02*
X81591000Y-57915000D01*
X81631000Y-53876000D02*
X81631000Y-54840000D01*
X81631000Y-56920000D02*
X81631000Y-57884000D01*
X81671000Y-53909000D02*
X81671000Y-54840000D01*
X81671000Y-56920000D02*
X81671000Y-57851000D01*
X81711000Y-53943000D02*
X81711000Y-54840000D01*
X81711000Y-56920000D02*
X81711000Y-57817000D01*
X81751000Y-53979000D02*
X81751000Y-54840000D01*
X81751000Y-56920000D02*
X81751000Y-57781000D01*
X81791000Y-54016000D02*
X81791000Y-54840000D01*
X81791000Y-56920000D02*
X81791000Y-57744000D01*
X81831000Y-54054000D02*
X81831000Y-54840000D01*
X81831000Y-56920000D02*
X81831000Y-57706000D01*
X81871000Y-54095000D02*
X81871000Y-54840000D01*
X81871000Y-56920000D02*
X81871000Y-57665000D01*
X81911000Y-54137000D02*
X81911000Y-54840000D01*
X81911000Y-56920000D02*
X81911000Y-57623000D01*
X81951000Y-54181000D02*
X81951000Y-54840000D01*
X81951000Y-56920000D02*
X81951000Y-57579000D01*
X81991000Y-54227000D02*
X81991000Y-54840000D01*
X81991000Y-56920000D02*
X81991000Y-57533000D01*
X82031000Y-54275000D02*
X82031000Y-54840000D01*
X82031000Y-56920000D02*
X82031000Y-57485000D01*
X82071000Y-54326000D02*
X82071000Y-54840000D01*
X82071000Y-56920000D02*
X82071000Y-57434000D01*
X82111000Y-54380000D02*
X82111000Y-54840000D01*
X82111000Y-56920000D02*
X82111000Y-57380000D01*
X82151000Y-54437000D02*
X82151000Y-54840000D01*
X82151000Y-56920000D02*
X82151000Y-57323000D01*
X82191000Y-54497000D02*
X82191000Y-54840000D01*
X82191000Y-56920000D02*
X82191000Y-57263000D01*
X82231000Y-54561000D02*
X82231000Y-54840000D01*
X82231000Y-56920000D02*
X82231000Y-57199000D01*
X82271000Y-54629000D02*
X82271000Y-54840000D01*
X82271000Y-56920000D02*
X82271000Y-57131000D01*
X82311000Y-54702000D02*
X82311000Y-57058000D01*
X82351000Y-54782000D02*
X82351000Y-56978000D01*
X82391000Y-54869000D02*
X82391000Y-56891000D01*
X82431000Y-54965000D02*
X82431000Y-56795000D01*
X82471000Y-55075000D02*
X82471000Y-56685000D01*
X82511000Y-55203000D02*
X82511000Y-56557000D01*
X82551000Y-55362000D02*
X82551000Y-56398000D01*
X82591000Y-55596000D02*
X82591000Y-56164000D01*
X77185225Y-54405000D02*
X77685225Y-54405000D01*
X77435225Y-54155000D02*
X77435225Y-54655000D01*
%TO.C,J2*%
X160655000Y-80264000D02*
X161925000Y-80264000D01*
X160655000Y-81534000D02*
X160655000Y-80264000D01*
X162967929Y-130174000D02*
X163422071Y-130174000D01*
X162967929Y-129414000D02*
X163422071Y-129414000D01*
X165507929Y-130174000D02*
X165905000Y-130174000D01*
X165507929Y-129414000D02*
X165905000Y-129414000D01*
X174565000Y-130174000D02*
X168565000Y-130174000D01*
X174565000Y-129414000D02*
X174565000Y-130174000D01*
X168565000Y-129414000D02*
X174565000Y-129414000D01*
X165905000Y-128524000D02*
X168565000Y-128524000D01*
X162967929Y-127634000D02*
X163422071Y-127634000D01*
X162967929Y-126874000D02*
X163422071Y-126874000D01*
X165507929Y-127634000D02*
X165905000Y-127634000D01*
X165507929Y-126874000D02*
X165905000Y-126874000D01*
X174565000Y-127634000D02*
X168565000Y-127634000D01*
X174565000Y-126874000D02*
X174565000Y-127634000D01*
X168565000Y-126874000D02*
X174565000Y-126874000D01*
X165905000Y-125984000D02*
X168565000Y-125984000D01*
X162967929Y-125094000D02*
X163422071Y-125094000D01*
X162967929Y-124334000D02*
X163422071Y-124334000D01*
X165507929Y-125094000D02*
X165905000Y-125094000D01*
X165507929Y-124334000D02*
X165905000Y-124334000D01*
X174565000Y-125094000D02*
X168565000Y-125094000D01*
X174565000Y-124334000D02*
X174565000Y-125094000D01*
X168565000Y-124334000D02*
X174565000Y-124334000D01*
X165905000Y-123444000D02*
X168565000Y-123444000D01*
X162967929Y-122554000D02*
X163422071Y-122554000D01*
X162967929Y-121794000D02*
X163422071Y-121794000D01*
X165507929Y-122554000D02*
X165905000Y-122554000D01*
X165507929Y-121794000D02*
X165905000Y-121794000D01*
X174565000Y-122554000D02*
X168565000Y-122554000D01*
X174565000Y-121794000D02*
X174565000Y-122554000D01*
X168565000Y-121794000D02*
X174565000Y-121794000D01*
X165905000Y-120904000D02*
X168565000Y-120904000D01*
X162967929Y-120014000D02*
X163422071Y-120014000D01*
X162967929Y-119254000D02*
X163422071Y-119254000D01*
X165507929Y-120014000D02*
X165905000Y-120014000D01*
X165507929Y-119254000D02*
X165905000Y-119254000D01*
X174565000Y-120014000D02*
X168565000Y-120014000D01*
X174565000Y-119254000D02*
X174565000Y-120014000D01*
X168565000Y-119254000D02*
X174565000Y-119254000D01*
X165905000Y-118364000D02*
X168565000Y-118364000D01*
X162967929Y-117474000D02*
X163422071Y-117474000D01*
X162967929Y-116714000D02*
X163422071Y-116714000D01*
X165507929Y-117474000D02*
X165905000Y-117474000D01*
X165507929Y-116714000D02*
X165905000Y-116714000D01*
X174565000Y-117474000D02*
X168565000Y-117474000D01*
X174565000Y-116714000D02*
X174565000Y-117474000D01*
X168565000Y-116714000D02*
X174565000Y-116714000D01*
X165905000Y-115824000D02*
X168565000Y-115824000D01*
X162967929Y-114934000D02*
X163422071Y-114934000D01*
X162967929Y-114174000D02*
X163422071Y-114174000D01*
X165507929Y-114934000D02*
X165905000Y-114934000D01*
X165507929Y-114174000D02*
X165905000Y-114174000D01*
X174565000Y-114934000D02*
X168565000Y-114934000D01*
X174565000Y-114174000D02*
X174565000Y-114934000D01*
X168565000Y-114174000D02*
X174565000Y-114174000D01*
X165905000Y-113284000D02*
X168565000Y-113284000D01*
X162967929Y-112394000D02*
X163422071Y-112394000D01*
X162967929Y-111634000D02*
X163422071Y-111634000D01*
X165507929Y-112394000D02*
X165905000Y-112394000D01*
X165507929Y-111634000D02*
X165905000Y-111634000D01*
X174565000Y-112394000D02*
X168565000Y-112394000D01*
X174565000Y-111634000D02*
X174565000Y-112394000D01*
X168565000Y-111634000D02*
X174565000Y-111634000D01*
X165905000Y-110744000D02*
X168565000Y-110744000D01*
X162967929Y-109854000D02*
X163422071Y-109854000D01*
X162967929Y-109094000D02*
X163422071Y-109094000D01*
X165507929Y-109854000D02*
X165905000Y-109854000D01*
X165507929Y-109094000D02*
X165905000Y-109094000D01*
X174565000Y-109854000D02*
X168565000Y-109854000D01*
X174565000Y-109094000D02*
X174565000Y-109854000D01*
X168565000Y-109094000D02*
X174565000Y-109094000D01*
X165905000Y-108204000D02*
X168565000Y-108204000D01*
X162967929Y-107314000D02*
X163422071Y-107314000D01*
X162967929Y-106554000D02*
X163422071Y-106554000D01*
X165507929Y-107314000D02*
X165905000Y-107314000D01*
X165507929Y-106554000D02*
X165905000Y-106554000D01*
X174565000Y-107314000D02*
X168565000Y-107314000D01*
X174565000Y-106554000D02*
X174565000Y-107314000D01*
X168565000Y-106554000D02*
X174565000Y-106554000D01*
X165905000Y-105664000D02*
X168565000Y-105664000D01*
X162967929Y-104774000D02*
X163422071Y-104774000D01*
X162967929Y-104014000D02*
X163422071Y-104014000D01*
X165507929Y-104774000D02*
X165905000Y-104774000D01*
X165507929Y-104014000D02*
X165905000Y-104014000D01*
X174565000Y-104774000D02*
X168565000Y-104774000D01*
X174565000Y-104014000D02*
X174565000Y-104774000D01*
X168565000Y-104014000D02*
X174565000Y-104014000D01*
X165905000Y-103124000D02*
X168565000Y-103124000D01*
X162967929Y-102234000D02*
X163422071Y-102234000D01*
X162967929Y-101474000D02*
X163422071Y-101474000D01*
X165507929Y-102234000D02*
X165905000Y-102234000D01*
X165507929Y-101474000D02*
X165905000Y-101474000D01*
X174565000Y-102234000D02*
X168565000Y-102234000D01*
X174565000Y-101474000D02*
X174565000Y-102234000D01*
X168565000Y-101474000D02*
X174565000Y-101474000D01*
X165905000Y-100584000D02*
X168565000Y-100584000D01*
X162967929Y-99694000D02*
X163422071Y-99694000D01*
X162967929Y-98934000D02*
X163422071Y-98934000D01*
X165507929Y-99694000D02*
X165905000Y-99694000D01*
X165507929Y-98934000D02*
X165905000Y-98934000D01*
X174565000Y-99694000D02*
X168565000Y-99694000D01*
X174565000Y-98934000D02*
X174565000Y-99694000D01*
X168565000Y-98934000D02*
X174565000Y-98934000D01*
X165905000Y-98044000D02*
X168565000Y-98044000D01*
X162967929Y-97154000D02*
X163422071Y-97154000D01*
X162967929Y-96394000D02*
X163422071Y-96394000D01*
X165507929Y-97154000D02*
X165905000Y-97154000D01*
X165507929Y-96394000D02*
X165905000Y-96394000D01*
X174565000Y-97154000D02*
X168565000Y-97154000D01*
X174565000Y-96394000D02*
X174565000Y-97154000D01*
X168565000Y-96394000D02*
X174565000Y-96394000D01*
X165905000Y-95504000D02*
X168565000Y-95504000D01*
X162967929Y-94614000D02*
X163422071Y-94614000D01*
X162967929Y-93854000D02*
X163422071Y-93854000D01*
X165507929Y-94614000D02*
X165905000Y-94614000D01*
X165507929Y-93854000D02*
X165905000Y-93854000D01*
X174565000Y-94614000D02*
X168565000Y-94614000D01*
X174565000Y-93854000D02*
X174565000Y-94614000D01*
X168565000Y-93854000D02*
X174565000Y-93854000D01*
X165905000Y-92964000D02*
X168565000Y-92964000D01*
X162967929Y-92074000D02*
X163422071Y-92074000D01*
X162967929Y-91314000D02*
X163422071Y-91314000D01*
X165507929Y-92074000D02*
X165905000Y-92074000D01*
X165507929Y-91314000D02*
X165905000Y-91314000D01*
X174565000Y-92074000D02*
X168565000Y-92074000D01*
X174565000Y-91314000D02*
X174565000Y-92074000D01*
X168565000Y-91314000D02*
X174565000Y-91314000D01*
X165905000Y-90424000D02*
X168565000Y-90424000D01*
X162967929Y-89534000D02*
X163422071Y-89534000D01*
X162967929Y-88774000D02*
X163422071Y-88774000D01*
X165507929Y-89534000D02*
X165905000Y-89534000D01*
X165507929Y-88774000D02*
X165905000Y-88774000D01*
X174565000Y-89534000D02*
X168565000Y-89534000D01*
X174565000Y-88774000D02*
X174565000Y-89534000D01*
X168565000Y-88774000D02*
X174565000Y-88774000D01*
X165905000Y-87884000D02*
X168565000Y-87884000D01*
X162967929Y-86994000D02*
X163422071Y-86994000D01*
X162967929Y-86234000D02*
X163422071Y-86234000D01*
X165507929Y-86994000D02*
X165905000Y-86994000D01*
X165507929Y-86234000D02*
X165905000Y-86234000D01*
X174565000Y-86994000D02*
X168565000Y-86994000D01*
X174565000Y-86234000D02*
X174565000Y-86994000D01*
X168565000Y-86234000D02*
X174565000Y-86234000D01*
X165905000Y-85344000D02*
X168565000Y-85344000D01*
X162967929Y-84454000D02*
X163422071Y-84454000D01*
X162967929Y-83694000D02*
X163422071Y-83694000D01*
X165507929Y-84454000D02*
X165905000Y-84454000D01*
X165507929Y-83694000D02*
X165905000Y-83694000D01*
X174565000Y-84454000D02*
X168565000Y-84454000D01*
X174565000Y-83694000D02*
X174565000Y-84454000D01*
X168565000Y-83694000D02*
X174565000Y-83694000D01*
X165905000Y-82804000D02*
X168565000Y-82804000D01*
X163035000Y-81914000D02*
X163422071Y-81914000D01*
X163035000Y-81154000D02*
X163422071Y-81154000D01*
X165507929Y-81914000D02*
X165905000Y-81914000D01*
X165507929Y-81154000D02*
X165905000Y-81154000D01*
X168565000Y-81814000D02*
X174565000Y-81814000D01*
X168565000Y-81694000D02*
X174565000Y-81694000D01*
X168565000Y-81574000D02*
X174565000Y-81574000D01*
X168565000Y-81454000D02*
X174565000Y-81454000D01*
X168565000Y-81334000D02*
X174565000Y-81334000D01*
X168565000Y-81214000D02*
X174565000Y-81214000D01*
X174565000Y-81914000D02*
X168565000Y-81914000D01*
X174565000Y-81154000D02*
X174565000Y-81914000D01*
X168565000Y-81154000D02*
X174565000Y-81154000D01*
X168565000Y-80204000D02*
X165905000Y-80204000D01*
X168565000Y-131124000D02*
X168565000Y-80204000D01*
X165905000Y-131124000D02*
X168565000Y-131124000D01*
X165905000Y-80204000D02*
X165905000Y-131124000D01*
%TO.C,J3*%
X175851000Y-84792000D02*
X176911000Y-84792000D01*
X175851000Y-85852000D02*
X175851000Y-84792000D01*
X177911000Y-84792000D02*
X179971000Y-84792000D01*
X177911000Y-86852000D02*
X177911000Y-84792000D01*
X175851000Y-86852000D02*
X177911000Y-86852000D01*
X179971000Y-84792000D02*
X179971000Y-128912000D01*
X175851000Y-86852000D02*
X175851000Y-128912000D01*
X175851000Y-128912000D02*
X179971000Y-128912000D01*
%TO.C,RN1*%
X158753000Y-82804000D02*
X155953000Y-82804000D01*
X158753000Y-103294000D02*
X158753000Y-80094000D01*
X155953000Y-103294000D02*
X158753000Y-103294000D01*
X155953000Y-80094000D02*
X155953000Y-103294000D01*
X158753000Y-80094000D02*
X155953000Y-80094000D01*
%TO.C,JP1*%
D12*
X71715380Y-94940333D02*
X72429666Y-94940333D01*
X72572523Y-94987952D01*
X72667761Y-95083190D01*
X72715380Y-95226047D01*
X72715380Y-95321285D01*
X72715380Y-94464142D02*
X71715380Y-94464142D01*
X71715380Y-94083190D01*
X71763000Y-93987952D01*
X71810619Y-93940333D01*
X71905857Y-93892714D01*
X72048714Y-93892714D01*
X72143952Y-93940333D01*
X72191571Y-93987952D01*
X72239190Y-94083190D01*
X72239190Y-94464142D01*
X72715380Y-92940333D02*
X72715380Y-93511761D01*
X72715380Y-93226047D02*
X71715380Y-93226047D01*
X71858238Y-93321285D01*
X71953476Y-93416523D01*
X72001095Y-93511761D01*
%TO.C,U2*%
X75525380Y-71881904D02*
X76334904Y-71881904D01*
X76430142Y-71834285D01*
X76477761Y-71786666D01*
X76525380Y-71691428D01*
X76525380Y-71500952D01*
X76477761Y-71405714D01*
X76430142Y-71358095D01*
X76334904Y-71310476D01*
X75525380Y-71310476D01*
X75620619Y-70881904D02*
X75573000Y-70834285D01*
X75525380Y-70739047D01*
X75525380Y-70500952D01*
X75573000Y-70405714D01*
X75620619Y-70358095D01*
X75715857Y-70310476D01*
X75811095Y-70310476D01*
X75953952Y-70358095D01*
X76525380Y-70929523D01*
X76525380Y-70310476D01*
X96226380Y-73762857D02*
X96226380Y-73096190D01*
X97226380Y-73524761D01*
X96559714Y-72286666D02*
X97226380Y-72286666D01*
X96178761Y-72524761D02*
X96893047Y-72762857D01*
X96893047Y-72143809D01*
X97226380Y-71286666D02*
X97226380Y-71762857D01*
X96226380Y-71762857D01*
X97178761Y-71000952D02*
X97226380Y-70858095D01*
X97226380Y-70620000D01*
X97178761Y-70524761D01*
X97131142Y-70477142D01*
X97035904Y-70429523D01*
X96940666Y-70429523D01*
X96845428Y-70477142D01*
X96797809Y-70524761D01*
X96750190Y-70620000D01*
X96702571Y-70810476D01*
X96654952Y-70905714D01*
X96607333Y-70953333D01*
X96512095Y-71000952D01*
X96416857Y-71000952D01*
X96321619Y-70953333D01*
X96274000Y-70905714D01*
X96226380Y-70810476D01*
X96226380Y-70572380D01*
X96274000Y-70429523D01*
X96226380Y-70096190D02*
X96226380Y-69429523D01*
X97226380Y-69858095D01*
X96559714Y-68620000D02*
X97226380Y-68620000D01*
X96178761Y-68858095D02*
X96893047Y-69096190D01*
X96893047Y-68477142D01*
%TO.C,J4*%
X75862380Y-105743333D02*
X76576666Y-105743333D01*
X76719523Y-105790952D01*
X76814761Y-105886190D01*
X76862380Y-106029047D01*
X76862380Y-106124285D01*
X76195714Y-104838571D02*
X76862380Y-104838571D01*
X75814761Y-105076666D02*
X76529047Y-105314761D01*
X76529047Y-104695714D01*
X100496666Y-108600476D02*
X100496666Y-108124285D01*
X100782380Y-108695714D02*
X99782380Y-108362380D01*
X100782380Y-108029047D01*
X100782380Y-107695714D02*
X99782380Y-107695714D01*
X99782380Y-107457619D01*
X99830000Y-107314761D01*
X99925238Y-107219523D01*
X100020476Y-107171904D01*
X100210952Y-107124285D01*
X100353809Y-107124285D01*
X100544285Y-107171904D01*
X100639523Y-107219523D01*
X100734761Y-107314761D01*
X100782380Y-107457619D01*
X100782380Y-107695714D01*
X100782380Y-106124285D02*
X100306190Y-106457619D01*
X100782380Y-106695714D02*
X99782380Y-106695714D01*
X99782380Y-106314761D01*
X99830000Y-106219523D01*
X99877619Y-106171904D01*
X99972857Y-106124285D01*
X100115714Y-106124285D01*
X100210952Y-106171904D01*
X100258571Y-106219523D01*
X100306190Y-106314761D01*
X100306190Y-106695714D01*
X100401428Y-105695714D02*
X100401428Y-104933809D01*
X100734761Y-104505238D02*
X100782380Y-104362380D01*
X100782380Y-104124285D01*
X100734761Y-104029047D01*
X100687142Y-103981428D01*
X100591904Y-103933809D01*
X100496666Y-103933809D01*
X100401428Y-103981428D01*
X100353809Y-104029047D01*
X100306190Y-104124285D01*
X100258571Y-104314761D01*
X100210952Y-104410000D01*
X100163333Y-104457619D01*
X100068095Y-104505238D01*
X99972857Y-104505238D01*
X99877619Y-104457619D01*
X99830000Y-104410000D01*
X99782380Y-104314761D01*
X99782380Y-104076666D01*
X99830000Y-103933809D01*
X100258571Y-103505238D02*
X100258571Y-103171904D01*
X100782380Y-103029047D02*
X100782380Y-103505238D01*
X99782380Y-103505238D01*
X99782380Y-103029047D01*
X100782380Y-102124285D02*
X100782380Y-102600476D01*
X99782380Y-102600476D01*
%TO.C,U1*%
X75525380Y-114934904D02*
X76334904Y-114934904D01*
X76430142Y-114887285D01*
X76477761Y-114839666D01*
X76525380Y-114744428D01*
X76525380Y-114553952D01*
X76477761Y-114458714D01*
X76430142Y-114411095D01*
X76334904Y-114363476D01*
X75525380Y-114363476D01*
X76525380Y-113363476D02*
X76525380Y-113934904D01*
X76525380Y-113649190D02*
X75525380Y-113649190D01*
X75668238Y-113744428D01*
X75763476Y-113839666D01*
X75811095Y-113934904D01*
X99782380Y-117419047D02*
X99782380Y-116752380D01*
X100782380Y-117180952D01*
X100115714Y-115942857D02*
X100782380Y-115942857D01*
X99734761Y-116180952D02*
X100449047Y-116419047D01*
X100449047Y-115800000D01*
X100782380Y-114942857D02*
X100782380Y-115419047D01*
X99782380Y-115419047D01*
X100734761Y-114657142D02*
X100782380Y-114514285D01*
X100782380Y-114276190D01*
X100734761Y-114180952D01*
X100687142Y-114133333D01*
X100591904Y-114085714D01*
X100496666Y-114085714D01*
X100401428Y-114133333D01*
X100353809Y-114180952D01*
X100306190Y-114276190D01*
X100258571Y-114466666D01*
X100210952Y-114561904D01*
X100163333Y-114609523D01*
X100068095Y-114657142D01*
X99972857Y-114657142D01*
X99877619Y-114609523D01*
X99830000Y-114561904D01*
X99782380Y-114466666D01*
X99782380Y-114228571D01*
X99830000Y-114085714D01*
X100782380Y-113133333D02*
X100782380Y-113704761D01*
X100782380Y-113419047D02*
X99782380Y-113419047D01*
X99925238Y-113514285D01*
X100020476Y-113609523D01*
X100068095Y-113704761D01*
X99782380Y-112800000D02*
X99782380Y-112180952D01*
X100163333Y-112514285D01*
X100163333Y-112371428D01*
X100210952Y-112276190D01*
X100258571Y-112228571D01*
X100353809Y-112180952D01*
X100591904Y-112180952D01*
X100687142Y-112228571D01*
X100734761Y-112276190D01*
X100782380Y-112371428D01*
X100782380Y-112657142D01*
X100734761Y-112752380D01*
X100687142Y-112800000D01*
X100210952Y-111609523D02*
X100163333Y-111704761D01*
X100115714Y-111752380D01*
X100020476Y-111800000D01*
X99972857Y-111800000D01*
X99877619Y-111752380D01*
X99830000Y-111704761D01*
X99782380Y-111609523D01*
X99782380Y-111419047D01*
X99830000Y-111323809D01*
X99877619Y-111276190D01*
X99972857Y-111228571D01*
X100020476Y-111228571D01*
X100115714Y-111276190D01*
X100163333Y-111323809D01*
X100210952Y-111419047D01*
X100210952Y-111609523D01*
X100258571Y-111704761D01*
X100306190Y-111752380D01*
X100401428Y-111800000D01*
X100591904Y-111800000D01*
X100687142Y-111752380D01*
X100734761Y-111704761D01*
X100782380Y-111609523D01*
X100782380Y-111419047D01*
X100734761Y-111323809D01*
X100687142Y-111276190D01*
X100591904Y-111228571D01*
X100401428Y-111228571D01*
X100306190Y-111276190D01*
X100258571Y-111323809D01*
X100210952Y-111419047D01*
%TO.C,J1*%
X63725380Y-140609333D02*
X64439666Y-140609333D01*
X64582523Y-140656952D01*
X64677761Y-140752190D01*
X64725380Y-140895047D01*
X64725380Y-140990285D01*
X64725380Y-139609333D02*
X64725380Y-140180761D01*
X64725380Y-139895047D02*
X63725380Y-139895047D01*
X63868238Y-139990285D01*
X63963476Y-140085523D01*
X64011095Y-140180761D01*
%TO.C,U3*%
X75525380Y-83311904D02*
X76334904Y-83311904D01*
X76430142Y-83264285D01*
X76477761Y-83216666D01*
X76525380Y-83121428D01*
X76525380Y-82930952D01*
X76477761Y-82835714D01*
X76430142Y-82788095D01*
X76334904Y-82740476D01*
X75525380Y-82740476D01*
X75525380Y-82359523D02*
X75525380Y-81740476D01*
X75906333Y-82073809D01*
X75906333Y-81930952D01*
X75953952Y-81835714D01*
X76001571Y-81788095D01*
X76096809Y-81740476D01*
X76334904Y-81740476D01*
X76430142Y-81788095D01*
X76477761Y-81835714D01*
X76525380Y-81930952D01*
X76525380Y-82216666D01*
X76477761Y-82311904D01*
X76430142Y-82359523D01*
X96226380Y-85192857D02*
X96226380Y-84526190D01*
X97226380Y-84954761D01*
X96559714Y-83716666D02*
X97226380Y-83716666D01*
X96178761Y-83954761D02*
X96893047Y-84192857D01*
X96893047Y-83573809D01*
X97226380Y-82716666D02*
X97226380Y-83192857D01*
X96226380Y-83192857D01*
X97178761Y-82430952D02*
X97226380Y-82288095D01*
X97226380Y-82050000D01*
X97178761Y-81954761D01*
X97131142Y-81907142D01*
X97035904Y-81859523D01*
X96940666Y-81859523D01*
X96845428Y-81907142D01*
X96797809Y-81954761D01*
X96750190Y-82050000D01*
X96702571Y-82240476D01*
X96654952Y-82335714D01*
X96607333Y-82383333D01*
X96512095Y-82430952D01*
X96416857Y-82430952D01*
X96321619Y-82383333D01*
X96274000Y-82335714D01*
X96226380Y-82240476D01*
X96226380Y-82002380D01*
X96274000Y-81859523D01*
X96226380Y-81526190D02*
X96226380Y-80907142D01*
X96607333Y-81240476D01*
X96607333Y-81097619D01*
X96654952Y-81002380D01*
X96702571Y-80954761D01*
X96797809Y-80907142D01*
X97035904Y-80907142D01*
X97131142Y-80954761D01*
X97178761Y-81002380D01*
X97226380Y-81097619D01*
X97226380Y-81383333D01*
X97178761Y-81478571D01*
X97131142Y-81526190D01*
X96321619Y-80526190D02*
X96274000Y-80478571D01*
X96226380Y-80383333D01*
X96226380Y-80145238D01*
X96274000Y-80050000D01*
X96321619Y-80002380D01*
X96416857Y-79954761D01*
X96512095Y-79954761D01*
X96654952Y-80002380D01*
X97226380Y-80573809D01*
X97226380Y-79954761D01*
%TO.C,R7*%
X197953333Y-70132380D02*
X197620000Y-69656190D01*
X197381904Y-70132380D02*
X197381904Y-69132380D01*
X197762857Y-69132380D01*
X197858095Y-69180000D01*
X197905714Y-69227619D01*
X197953333Y-69322857D01*
X197953333Y-69465714D01*
X197905714Y-69560952D01*
X197858095Y-69608571D01*
X197762857Y-69656190D01*
X197381904Y-69656190D01*
X198286666Y-69132380D02*
X198953333Y-69132380D01*
X198524761Y-70132380D01*
X196858095Y-64725714D02*
X196858095Y-65392380D01*
X196620000Y-64344761D02*
X196381904Y-65059047D01*
X197000952Y-65059047D01*
X197286666Y-64392380D02*
X197953333Y-64392380D01*
X197524761Y-65392380D01*
X198524761Y-64392380D02*
X198620000Y-64392380D01*
X198715238Y-64440000D01*
X198762857Y-64487619D01*
X198810476Y-64582857D01*
X198858095Y-64773333D01*
X198858095Y-65011428D01*
X198810476Y-65201904D01*
X198762857Y-65297142D01*
X198715238Y-65344761D01*
X198620000Y-65392380D01*
X198524761Y-65392380D01*
X198429523Y-65344761D01*
X198381904Y-65297142D01*
X198334285Y-65201904D01*
X198286666Y-65011428D01*
X198286666Y-64773333D01*
X198334285Y-64582857D01*
X198381904Y-64487619D01*
X198429523Y-64440000D01*
X198524761Y-64392380D01*
X199858095Y-65392380D02*
X199524761Y-64916190D01*
X199286666Y-65392380D02*
X199286666Y-64392380D01*
X199667619Y-64392380D01*
X199762857Y-64440000D01*
X199810476Y-64487619D01*
X199858095Y-64582857D01*
X199858095Y-64725714D01*
X199810476Y-64820952D01*
X199762857Y-64868571D01*
X199667619Y-64916190D01*
X199286666Y-64916190D01*
%TO.C,D2*%
X206446380Y-71254476D02*
X205446380Y-71254476D01*
X205446380Y-71016380D01*
X205494000Y-70873523D01*
X205589238Y-70778285D01*
X205684476Y-70730666D01*
X205874952Y-70683047D01*
X206017809Y-70683047D01*
X206208285Y-70730666D01*
X206303523Y-70778285D01*
X206398761Y-70873523D01*
X206446380Y-71016380D01*
X206446380Y-71254476D01*
X206446380Y-70254476D02*
X205779714Y-70254476D01*
X205446380Y-70254476D02*
X205494000Y-70302095D01*
X205541619Y-70254476D01*
X205494000Y-70206857D01*
X205446380Y-70254476D01*
X205541619Y-70254476D01*
X206398761Y-69825904D02*
X206446380Y-69730666D01*
X206446380Y-69540190D01*
X206398761Y-69444952D01*
X206303523Y-69397333D01*
X206255904Y-69397333D01*
X206160666Y-69444952D01*
X206113047Y-69540190D01*
X206113047Y-69683047D01*
X206065428Y-69778285D01*
X205970190Y-69825904D01*
X205922571Y-69825904D01*
X205827333Y-69778285D01*
X205779714Y-69683047D01*
X205779714Y-69540190D01*
X205827333Y-69444952D01*
X206446380Y-68968761D02*
X205446380Y-68968761D01*
X206065428Y-68873523D02*
X206446380Y-68587809D01*
X205779714Y-68587809D02*
X206160666Y-68968761D01*
X206065428Y-68159238D02*
X206065428Y-67397333D01*
X206446380Y-66492571D02*
X205922571Y-66492571D01*
X205827333Y-66540190D01*
X205779714Y-66635428D01*
X205779714Y-66825904D01*
X205827333Y-66921142D01*
X206398761Y-66492571D02*
X206446380Y-66587809D01*
X206446380Y-66825904D01*
X206398761Y-66921142D01*
X206303523Y-66968761D01*
X206208285Y-66968761D01*
X206113047Y-66921142D01*
X206065428Y-66825904D01*
X206065428Y-66587809D01*
X206017809Y-66492571D01*
X206446380Y-66016380D02*
X205446380Y-66016380D01*
X206065428Y-65921142D02*
X206446380Y-65635428D01*
X205779714Y-65635428D02*
X206160666Y-66016380D01*
X205779714Y-65349714D02*
X205779714Y-64968761D01*
X205446380Y-65206857D02*
X206303523Y-65206857D01*
X206398761Y-65159238D01*
X206446380Y-65064000D01*
X206446380Y-64968761D01*
X206446380Y-64635428D02*
X205779714Y-64635428D01*
X205446380Y-64635428D02*
X205494000Y-64683047D01*
X205541619Y-64635428D01*
X205494000Y-64587809D01*
X205446380Y-64635428D01*
X205541619Y-64635428D01*
X205779714Y-64254476D02*
X206446380Y-64016380D01*
X205779714Y-63778285D01*
%TO.C,C8*%
X170858142Y-138576666D02*
X170905761Y-138624285D01*
X170953380Y-138767142D01*
X170953380Y-138862380D01*
X170905761Y-139005238D01*
X170810523Y-139100476D01*
X170715285Y-139148095D01*
X170524809Y-139195714D01*
X170381952Y-139195714D01*
X170191476Y-139148095D01*
X170096238Y-139100476D01*
X170001000Y-139005238D01*
X169953380Y-138862380D01*
X169953380Y-138767142D01*
X170001000Y-138624285D01*
X170048619Y-138576666D01*
X170381952Y-138005238D02*
X170334333Y-138100476D01*
X170286714Y-138148095D01*
X170191476Y-138195714D01*
X170143857Y-138195714D01*
X170048619Y-138148095D01*
X170001000Y-138100476D01*
X169953380Y-138005238D01*
X169953380Y-137814761D01*
X170001000Y-137719523D01*
X170048619Y-137671904D01*
X170143857Y-137624285D01*
X170191476Y-137624285D01*
X170286714Y-137671904D01*
X170334333Y-137719523D01*
X170381952Y-137814761D01*
X170381952Y-138005238D01*
X170429571Y-138100476D01*
X170477190Y-138148095D01*
X170572428Y-138195714D01*
X170762904Y-138195714D01*
X170858142Y-138148095D01*
X170905761Y-138100476D01*
X170953380Y-138005238D01*
X170953380Y-137814761D01*
X170905761Y-137719523D01*
X170858142Y-137671904D01*
X170762904Y-137624285D01*
X170572428Y-137624285D01*
X170477190Y-137671904D01*
X170429571Y-137719523D01*
X170381952Y-137814761D01*
%TO.C,C5*%
X177050142Y-67897666D02*
X177097761Y-67945285D01*
X177145380Y-68088142D01*
X177145380Y-68183380D01*
X177097761Y-68326238D01*
X177002523Y-68421476D01*
X176907285Y-68469095D01*
X176716809Y-68516714D01*
X176573952Y-68516714D01*
X176383476Y-68469095D01*
X176288238Y-68421476D01*
X176193000Y-68326238D01*
X176145380Y-68183380D01*
X176145380Y-68088142D01*
X176193000Y-67945285D01*
X176240619Y-67897666D01*
X176145380Y-66992904D02*
X176145380Y-67469095D01*
X176621571Y-67516714D01*
X176573952Y-67469095D01*
X176526333Y-67373857D01*
X176526333Y-67135761D01*
X176573952Y-67040523D01*
X176621571Y-66992904D01*
X176716809Y-66945285D01*
X176954904Y-66945285D01*
X177050142Y-66992904D01*
X177097761Y-67040523D01*
X177145380Y-67135761D01*
X177145380Y-67373857D01*
X177097761Y-67469095D01*
X177050142Y-67516714D01*
%TO.C,C4*%
X73382142Y-77001666D02*
X73429761Y-77049285D01*
X73477380Y-77192142D01*
X73477380Y-77287380D01*
X73429761Y-77430238D01*
X73334523Y-77525476D01*
X73239285Y-77573095D01*
X73048809Y-77620714D01*
X72905952Y-77620714D01*
X72715476Y-77573095D01*
X72620238Y-77525476D01*
X72525000Y-77430238D01*
X72477380Y-77287380D01*
X72477380Y-77192142D01*
X72525000Y-77049285D01*
X72572619Y-77001666D01*
X72810714Y-76144523D02*
X73477380Y-76144523D01*
X72429761Y-76382619D02*
X73144047Y-76620714D01*
X73144047Y-76001666D01*
X71572380Y-72914047D02*
X71572380Y-73485476D01*
X71572380Y-73199761D02*
X70572380Y-73199761D01*
X70715238Y-73295000D01*
X70810476Y-73390238D01*
X70858095Y-73485476D01*
X70572380Y-72295000D02*
X70572380Y-72199761D01*
X70620000Y-72104523D01*
X70667619Y-72056904D01*
X70762857Y-72009285D01*
X70953333Y-71961666D01*
X71191428Y-71961666D01*
X71381904Y-72009285D01*
X71477142Y-72056904D01*
X71524761Y-72104523D01*
X71572380Y-72199761D01*
X71572380Y-72295000D01*
X71524761Y-72390238D01*
X71477142Y-72437857D01*
X71381904Y-72485476D01*
X71191428Y-72533095D01*
X70953333Y-72533095D01*
X70762857Y-72485476D01*
X70667619Y-72437857D01*
X70620000Y-72390238D01*
X70572380Y-72295000D01*
X70572380Y-71342619D02*
X70572380Y-71247380D01*
X70620000Y-71152142D01*
X70667619Y-71104523D01*
X70762857Y-71056904D01*
X70953333Y-71009285D01*
X71191428Y-71009285D01*
X71381904Y-71056904D01*
X71477142Y-71104523D01*
X71524761Y-71152142D01*
X71572380Y-71247380D01*
X71572380Y-71342619D01*
X71524761Y-71437857D01*
X71477142Y-71485476D01*
X71381904Y-71533095D01*
X71191428Y-71580714D01*
X70953333Y-71580714D01*
X70762857Y-71533095D01*
X70667619Y-71485476D01*
X70620000Y-71437857D01*
X70572380Y-71342619D01*
X70905714Y-70580714D02*
X71572380Y-70580714D01*
X71000952Y-70580714D02*
X70953333Y-70533095D01*
X70905714Y-70437857D01*
X70905714Y-70295000D01*
X70953333Y-70199761D01*
X71048571Y-70152142D01*
X71572380Y-70152142D01*
%TO.C,C3*%
X73382142Y-87796666D02*
X73429761Y-87844285D01*
X73477380Y-87987142D01*
X73477380Y-88082380D01*
X73429761Y-88225238D01*
X73334523Y-88320476D01*
X73239285Y-88368095D01*
X73048809Y-88415714D01*
X72905952Y-88415714D01*
X72715476Y-88368095D01*
X72620238Y-88320476D01*
X72525000Y-88225238D01*
X72477380Y-88082380D01*
X72477380Y-87987142D01*
X72525000Y-87844285D01*
X72572619Y-87796666D01*
X72477380Y-87463333D02*
X72477380Y-86844285D01*
X72858333Y-87177619D01*
X72858333Y-87034761D01*
X72905952Y-86939523D01*
X72953571Y-86891904D01*
X73048809Y-86844285D01*
X73286904Y-86844285D01*
X73382142Y-86891904D01*
X73429761Y-86939523D01*
X73477380Y-87034761D01*
X73477380Y-87320476D01*
X73429761Y-87415714D01*
X73382142Y-87463333D01*
X71572380Y-83669047D02*
X71572380Y-84240476D01*
X71572380Y-83954761D02*
X70572380Y-83954761D01*
X70715238Y-84050000D01*
X70810476Y-84145238D01*
X70858095Y-84240476D01*
X70572380Y-83050000D02*
X70572380Y-82954761D01*
X70620000Y-82859523D01*
X70667619Y-82811904D01*
X70762857Y-82764285D01*
X70953333Y-82716666D01*
X71191428Y-82716666D01*
X71381904Y-82764285D01*
X71477142Y-82811904D01*
X71524761Y-82859523D01*
X71572380Y-82954761D01*
X71572380Y-83050000D01*
X71524761Y-83145238D01*
X71477142Y-83192857D01*
X71381904Y-83240476D01*
X71191428Y-83288095D01*
X70953333Y-83288095D01*
X70762857Y-83240476D01*
X70667619Y-83192857D01*
X70620000Y-83145238D01*
X70572380Y-83050000D01*
X70572380Y-82097619D02*
X70572380Y-82002380D01*
X70620000Y-81907142D01*
X70667619Y-81859523D01*
X70762857Y-81811904D01*
X70953333Y-81764285D01*
X71191428Y-81764285D01*
X71381904Y-81811904D01*
X71477142Y-81859523D01*
X71524761Y-81907142D01*
X71572380Y-82002380D01*
X71572380Y-82097619D01*
X71524761Y-82192857D01*
X71477142Y-82240476D01*
X71381904Y-82288095D01*
X71191428Y-82335714D01*
X70953333Y-82335714D01*
X70762857Y-82288095D01*
X70667619Y-82240476D01*
X70620000Y-82192857D01*
X70572380Y-82097619D01*
X70905714Y-81335714D02*
X71572380Y-81335714D01*
X71000952Y-81335714D02*
X70953333Y-81288095D01*
X70905714Y-81192857D01*
X70905714Y-81050000D01*
X70953333Y-80954761D01*
X71048571Y-80907142D01*
X71572380Y-80907142D01*
%TO.C,C2*%
X181737333Y-139767142D02*
X181689714Y-139814761D01*
X181546857Y-139862380D01*
X181451619Y-139862380D01*
X181308761Y-139814761D01*
X181213523Y-139719523D01*
X181165904Y-139624285D01*
X181118285Y-139433809D01*
X181118285Y-139290952D01*
X181165904Y-139100476D01*
X181213523Y-139005238D01*
X181308761Y-138910000D01*
X181451619Y-138862380D01*
X181546857Y-138862380D01*
X181689714Y-138910000D01*
X181737333Y-138957619D01*
X182118285Y-138957619D02*
X182165904Y-138910000D01*
X182261142Y-138862380D01*
X182499238Y-138862380D01*
X182594476Y-138910000D01*
X182642095Y-138957619D01*
X182689714Y-139052857D01*
X182689714Y-139148095D01*
X182642095Y-139290952D01*
X182070666Y-139862380D01*
X182689714Y-139862380D01*
%TO.C,C1*%
X79823333Y-52487142D02*
X79775714Y-52534761D01*
X79632857Y-52582380D01*
X79537619Y-52582380D01*
X79394761Y-52534761D01*
X79299523Y-52439523D01*
X79251904Y-52344285D01*
X79204285Y-52153809D01*
X79204285Y-52010952D01*
X79251904Y-51820476D01*
X79299523Y-51725238D01*
X79394761Y-51630000D01*
X79537619Y-51582380D01*
X79632857Y-51582380D01*
X79775714Y-51630000D01*
X79823333Y-51677619D01*
X80775714Y-52582380D02*
X80204285Y-52582380D01*
X80490000Y-52582380D02*
X80490000Y-51582380D01*
X80394761Y-51725238D01*
X80299523Y-51820476D01*
X80204285Y-51868095D01*
%TO.C,J2*%
X163726880Y-78628833D02*
X164441166Y-78628833D01*
X164584023Y-78676452D01*
X164679261Y-78771690D01*
X164726880Y-78914547D01*
X164726880Y-79009785D01*
X163822119Y-78200261D02*
X163774500Y-78152642D01*
X163726880Y-78057404D01*
X163726880Y-77819309D01*
X163774500Y-77724071D01*
X163822119Y-77676452D01*
X163917357Y-77628833D01*
X164012595Y-77628833D01*
X164155452Y-77676452D01*
X164726880Y-78247880D01*
X164726880Y-77628833D01*
%TO.C,J3*%
X178585880Y-82946833D02*
X179300166Y-82946833D01*
X179443023Y-82994452D01*
X179538261Y-83089690D01*
X179585880Y-83232547D01*
X179585880Y-83327785D01*
X178585880Y-82565880D02*
X178585880Y-81946833D01*
X178966833Y-82280166D01*
X178966833Y-82137309D01*
X179014452Y-82042071D01*
X179062071Y-81994452D01*
X179157309Y-81946833D01*
X179395404Y-81946833D01*
X179490642Y-81994452D01*
X179538261Y-82042071D01*
X179585880Y-82137309D01*
X179585880Y-82423023D01*
X179538261Y-82518261D01*
X179490642Y-82565880D01*
%TO.C,RN1*%
X155011380Y-92320976D02*
X154535190Y-92654309D01*
X155011380Y-92892404D02*
X154011380Y-92892404D01*
X154011380Y-92511452D01*
X154059000Y-92416214D01*
X154106619Y-92368595D01*
X154201857Y-92320976D01*
X154344714Y-92320976D01*
X154439952Y-92368595D01*
X154487571Y-92416214D01*
X154535190Y-92511452D01*
X154535190Y-92892404D01*
X155011380Y-91892404D02*
X154011380Y-91892404D01*
X155011380Y-91320976D01*
X154011380Y-91320976D01*
X155011380Y-90320976D02*
X155011380Y-90892404D01*
X155011380Y-90606690D02*
X154011380Y-90606690D01*
X154154238Y-90701928D01*
X154249476Y-90797166D01*
X154297095Y-90892404D01*
X155011380Y-88860285D02*
X155011380Y-89431714D01*
X155011380Y-89146000D02*
X154011380Y-89146000D01*
X154154238Y-89241238D01*
X154249476Y-89336476D01*
X154297095Y-89431714D01*
X155011380Y-88431714D02*
X154011380Y-88431714D01*
X155011380Y-87860285D02*
X154439952Y-88288857D01*
X154011380Y-87860285D02*
X154582809Y-88431714D01*
%TD*%
M02*
