M48
; DRILL file {KiCad (5.1.12)-1} date 04/12/26 11:16:28
; FORMAT={-:-/ absolute / inch / decimal}
; #@! TF.CreationDate,2026-04-12T11:16:28+02:00
; #@! TF.GenerationSoftware,Kicad,Pcbnew,(5.1.12)-1
; #@! TF.FileFunction,Plated,1,2,PTH
FMAT,2
INCH
T1C0.0157
T2C0.0315
T3C0.0354
T4C0.0394
%
G90
G05
T1
X2.75Y-4.75
X2.8Y-2.5
X2.9Y-4.1
X2.9Y-4.75
X3.0974Y-4.9026
X3.3Y-4.55
X5.6Y-4.95
X5.6417Y-4.8583
X5.65Y-4.35
X5.65Y-4.75
X5.65Y-5.05
X5.65Y-5.15
X5.6974Y-5.1026
X5.7Y-4.41
X5.7Y-4.7
X5.7Y-4.8
X5.7Y-4.9
X5.8Y-5.15
X5.9Y-4.95
X5.95Y-5.05
X6.0Y-5.1
X6.05Y-4.75
X6.175Y-4.7
X6.175Y-5.0
X6.575Y-4.125
X6.5772Y-4.5628
X6.7975Y-3.22
X6.7975Y-3.305
X6.97Y-5.2
X7.285Y-5.2
T2
X2.875Y-2.7281
X2.875Y-2.925
X2.875Y-3.1531
X2.875Y-3.35
X3.1Y-2.2
X3.1Y-2.65
X3.1Y-2.95
X3.1Y-3.1
X3.1Y-3.4
X3.1Y-4.35
X3.1Y-4.65
X3.1984Y-2.2
X3.2Y-2.65
X3.2Y-2.95
X3.2Y-3.1
X3.2Y-3.4
X3.2Y-4.35
X3.2Y-4.65
X3.3Y-2.65
X3.3Y-2.95
X3.3Y-3.1
X3.3Y-3.4
X3.3Y-4.35
X3.3Y-4.65
X3.4Y-2.65
X3.4Y-2.95
X3.4Y-3.1
X3.4Y-3.4
X3.4Y-4.35
X3.4Y-4.65
X3.5Y-2.65
X3.5Y-2.95
X3.5Y-3.1
X3.5Y-3.4
X3.5Y-4.35
X3.5Y-4.65
X3.6Y-2.65
X3.6Y-2.95
X3.6Y-3.1
X3.6Y-3.4
X3.6Y-4.35
X3.6Y-4.65
X3.7Y-2.65
X3.7Y-2.95
X3.7Y-3.1
X3.7Y-3.4
X3.7Y-4.35
X3.7Y-4.65
X3.8Y-4.35
X3.8Y-4.65
X6.195Y-3.21
X6.195Y-3.31
X6.195Y-3.41
X6.195Y-3.51
X6.195Y-3.61
X6.195Y-3.71
X6.195Y-3.81
X6.195Y-3.91
X6.195Y-4.01
X6.565Y-5.4
X6.565Y-5.4984
X6.965Y-3.38
X6.965Y-3.4587
X6.965Y-3.5375
X6.965Y-3.6162
X6.965Y-3.695
X6.965Y-3.7737
X6.965Y-3.8524
X6.965Y-3.9312
X6.965Y-4.0099
X6.965Y-4.0887
X6.965Y-4.1674
X6.965Y-4.2461
X6.965Y-4.3249
X6.965Y-4.4036
X6.965Y-4.4824
X6.965Y-4.5611
X6.965Y-4.6398
X6.965Y-4.7186
X6.965Y-4.7973
X6.965Y-4.8761
X6.965Y-4.9548
X6.965Y-5.0335
X7.0437Y-3.38
X7.0437Y-3.4587
X7.0437Y-3.5375
X7.0437Y-3.6162
X7.0437Y-3.695
X7.0437Y-3.7737
X7.0437Y-3.8524
X7.0437Y-3.9312
X7.0437Y-4.0099
X7.0437Y-4.0887
X7.0437Y-4.1674
X7.0437Y-4.2461
X7.0437Y-4.3249
X7.0437Y-4.4036
X7.0437Y-4.4824
X7.0437Y-4.5611
X7.0437Y-4.6398
X7.0437Y-4.7186
X7.0437Y-4.7973
X7.0437Y-4.8761
X7.0437Y-4.9548
X7.0437Y-5.0335
X7.045Y-2.5681
X7.045Y-2.765
X7.0631Y-5.4
X7.26Y-5.4
X7.6Y-2.65
X8.0Y-2.65
T3
X8.2Y-2.65
X8.3Y-2.65
T4
X2.4556Y-2.3026
X2.4556Y-2.4026
X2.4556Y-2.5026
X2.4556Y-2.6026
X2.4556Y-2.7026
X2.4556Y-2.8026
X2.4556Y-2.9026
X2.4556Y-3.0026
X2.4556Y-3.1026
X2.4556Y-3.2026
X2.4556Y-3.3026
X2.4556Y-3.4026
X2.4556Y-3.5026
X2.4556Y-3.6026
X2.4556Y-3.7026
X2.4556Y-3.8026
X2.4556Y-3.9026
X2.4556Y-4.0026
X2.4556Y-4.1026
X2.4556Y-4.2026
X2.4556Y-4.3026
X2.4556Y-4.4026
X2.4556Y-4.5026
X2.4556Y-4.6026
X2.4556Y-4.7026
X2.4556Y-4.8026
X2.4556Y-4.9026
X2.4556Y-5.0026
X2.4556Y-5.1026
X2.4556Y-5.2026
X2.4556Y-5.3026
X2.4556Y-5.4026
X2.6556Y-2.3026
X2.6556Y-2.4026
X2.6556Y-2.5026
X2.6556Y-2.6026
X2.6556Y-2.7026
X2.6556Y-2.8026
X2.6556Y-2.9026
X2.6556Y-3.0026
X2.6556Y-3.1026
X2.6556Y-3.2026
X2.6556Y-3.3026
X2.6556Y-3.4026
X2.6556Y-3.5026
X2.6556Y-3.6026
X2.6556Y-3.7026
X2.6556Y-3.8026
X2.6556Y-3.9026
X2.6556Y-4.0026
X2.6556Y-4.1026
X2.6556Y-4.2026
X2.6556Y-4.3026
X2.6556Y-4.4026
X2.6556Y-4.5026
X2.6556Y-4.6026
X2.6556Y-4.7026
X2.6556Y-4.8026
X2.6556Y-4.9026
X2.6556Y-5.0026
X2.6556Y-5.1026
X2.6556Y-5.2026
X2.6556Y-5.3026
X2.6556Y-5.4026
X2.845Y-3.84
X2.845Y-3.94
X3.1Y-4.1
X3.1Y-4.2
X3.2Y-4.1
X3.2Y-4.2
X3.3Y-4.1
X3.3Y-4.2
X3.4Y-4.1
X3.4Y-4.2
X3.5Y-4.1
X3.5Y-4.2
X3.6Y-4.1
X3.6Y-4.2
X3.7Y-4.1
X3.7Y-4.2
X3.8Y-4.1
X3.8Y-4.2
X6.375Y-3.21
X6.375Y-3.31
X6.375Y-3.41
X6.375Y-3.51
X6.375Y-3.61
X6.375Y-3.71
X6.375Y-3.81
X6.375Y-3.91
X6.375Y-4.01
X6.375Y-4.11
X6.375Y-4.21
X6.375Y-4.31
X6.375Y-4.41
X6.375Y-4.51
X6.375Y-4.61
X6.375Y-4.71
X6.375Y-4.81
X6.375Y-4.91
X6.375Y-5.01
X6.375Y-5.11
X6.475Y-3.21
X6.475Y-3.31
X6.475Y-3.41
X6.475Y-3.51
X6.475Y-3.61
X6.475Y-3.71
X6.475Y-3.81
X6.475Y-3.91
X6.475Y-4.01
X6.475Y-4.11
X6.475Y-4.21
X6.475Y-4.31
X6.475Y-4.41
X6.475Y-4.51
X6.475Y-4.61
X6.475Y-4.71
X6.475Y-4.81
X6.475Y-4.91
X6.475Y-5.01
X6.475Y-5.11
X7.3Y-2.65
X7.3Y-2.75
T0
M30
