%TF.GenerationSoftware,KiCad,Pcbnew,(5.1.12)-1*%
%TF.CreationDate,2026-04-12T11:16:25+02:00*%
%TF.ProjectId,CF1,4346312e-6b69-4636-9164-5f7063625858,rev?*%
%TF.SameCoordinates,Original*%
%TF.FileFunction,Soldermask,Top*%
%TF.FilePolarity,Negative*%
%FSLAX46Y46*%
G04 Gerber Fmt 4.6, Leading zero omitted, Abs format (unit mm)*
G04 Created by KiCad (PCBNEW (5.1.12)-1) date 2026-04-12 11:16:25*
%MOMM*%
%LPD*%
G01*
G04 APERTURE LIST*
%ADD10O,1.700000X1.700000*%
%ADD11R,1.700000X1.700000*%
%ADD12O,1.600000X1.600000*%
%ADD13R,1.600000X1.600000*%
%ADD14C,1.550000*%
%ADD15C,2.850000*%
%ADD16C,1.600000*%
%ADD17C,1.800000*%
%ADD18R,1.800000X1.800000*%
%ADD19C,2.700000*%
%ADD20O,1.350000X1.350000*%
%ADD21R,1.350000X1.350000*%
G04 APERTURE END LIST*
D10*
%TO.C,JP1*%
X72263000Y-100076000D03*
D11*
X72263000Y-97536000D03*
%TD*%
D12*
%TO.C,U2*%
X78740000Y-67310000D03*
X93980000Y-74930000D03*
X81280000Y-67310000D03*
X91440000Y-74930000D03*
X83820000Y-67310000D03*
X88900000Y-74930000D03*
X86360000Y-67310000D03*
X86360000Y-74930000D03*
X88900000Y-67310000D03*
X83820000Y-74930000D03*
X91440000Y-67310000D03*
X81280000Y-74930000D03*
X93980000Y-67310000D03*
D13*
X78740000Y-74930000D03*
%TD*%
D10*
%TO.C,J4*%
X96520000Y-104140000D03*
X96520000Y-106680000D03*
X93980000Y-104140000D03*
X93980000Y-106680000D03*
X91440000Y-104140000D03*
X91440000Y-106680000D03*
X88900000Y-104140000D03*
X88900000Y-106680000D03*
X86360000Y-104140000D03*
X86360000Y-106680000D03*
X83820000Y-104140000D03*
X83820000Y-106680000D03*
X81280000Y-104140000D03*
X81280000Y-106680000D03*
X78740000Y-104140000D03*
D11*
X78740000Y-106680000D03*
%TD*%
D12*
%TO.C,U1*%
X78740000Y-110490000D03*
X96520000Y-118110000D03*
X81280000Y-110490000D03*
X93980000Y-118110000D03*
X83820000Y-110490000D03*
X91440000Y-118110000D03*
X86360000Y-110490000D03*
X88900000Y-118110000D03*
X88900000Y-110490000D03*
X86360000Y-118110000D03*
X91440000Y-110490000D03*
X83820000Y-118110000D03*
X93980000Y-110490000D03*
X81280000Y-118110000D03*
X96520000Y-110490000D03*
D13*
X78740000Y-118110000D03*
%TD*%
D14*
%TO.C,J1*%
X67453000Y-58486000D03*
X67453000Y-61026000D03*
X67453000Y-63566000D03*
X67453000Y-66106000D03*
X67453000Y-68646000D03*
X67453000Y-71186000D03*
X67453000Y-73726000D03*
X67453000Y-76266000D03*
X67453000Y-78806000D03*
X67453000Y-81346000D03*
X67453000Y-83886000D03*
X67453000Y-86426000D03*
X67453000Y-88966000D03*
X67453000Y-91506000D03*
X67453000Y-94046000D03*
X67453000Y-96586000D03*
X67453000Y-99126000D03*
X67453000Y-101666000D03*
X67453000Y-104206000D03*
X67453000Y-106746000D03*
X67453000Y-109286000D03*
X67453000Y-111826000D03*
X67453000Y-114366000D03*
X67453000Y-116906000D03*
X67453000Y-119446000D03*
X67453000Y-121986000D03*
X67453000Y-124526000D03*
X67453000Y-127066000D03*
X67453000Y-129606000D03*
X67453000Y-132146000D03*
X67453000Y-134686000D03*
X67453000Y-137226000D03*
X62373000Y-58486000D03*
X62373000Y-61026000D03*
X62373000Y-63566000D03*
X62373000Y-66106000D03*
X62373000Y-68646000D03*
X62373000Y-71186000D03*
X62373000Y-73726000D03*
X62373000Y-76266000D03*
X62373000Y-78806000D03*
X62373000Y-81346000D03*
X62373000Y-83886000D03*
X62373000Y-86426000D03*
X62373000Y-88966000D03*
X62373000Y-91506000D03*
X62373000Y-94046000D03*
X62373000Y-96586000D03*
X62373000Y-99126000D03*
X62373000Y-101666000D03*
X62373000Y-104206000D03*
X62373000Y-106746000D03*
X62373000Y-109286000D03*
X62373000Y-111826000D03*
X62373000Y-114366000D03*
X62373000Y-116906000D03*
X62373000Y-119446000D03*
X62373000Y-121986000D03*
X62373000Y-124526000D03*
X62373000Y-127066000D03*
X62373000Y-129606000D03*
X62373000Y-132146000D03*
X62373000Y-134686000D03*
G36*
G01*
X62898450Y-138001000D02*
X61847550Y-138001000D01*
G75*
G02*
X61598000Y-137751450I0J249550D01*
G01*
X61598000Y-136700550D01*
G75*
G02*
X61847550Y-136451000I249550J0D01*
G01*
X62898450Y-136451000D01*
G75*
G02*
X63148000Y-136700550I0J-249550D01*
G01*
X63148000Y-137751450D01*
G75*
G02*
X62898450Y-138001000I-249550J0D01*
G01*
G37*
D15*
X59833000Y-53406000D03*
X59833000Y-142306000D03*
%TD*%
D12*
%TO.C,U3*%
X78740000Y-78740000D03*
X93980000Y-86360000D03*
X81280000Y-78740000D03*
X91440000Y-86360000D03*
X83820000Y-78740000D03*
X88900000Y-86360000D03*
X86360000Y-78740000D03*
X86360000Y-86360000D03*
X88900000Y-78740000D03*
X83820000Y-86360000D03*
X91440000Y-78740000D03*
X81280000Y-86360000D03*
X93980000Y-78740000D03*
D13*
X78740000Y-86360000D03*
%TD*%
D12*
%TO.C,R7*%
X193040000Y-67310000D03*
D16*
X203200000Y-67310000D03*
%TD*%
D10*
%TO.C,JP4*%
X185420000Y-67310000D03*
D11*
X185420000Y-69850000D03*
%TD*%
D17*
%TO.C,D2*%
X208280000Y-67310000D03*
D18*
X210820000Y-67310000D03*
%TD*%
D16*
%TO.C,C8*%
X166751000Y-139660000D03*
D13*
X166751000Y-137160000D03*
%TD*%
D16*
%TO.C,C5*%
X178943000Y-65231000D03*
X178943000Y-70231000D03*
%TD*%
%TO.C,C4*%
X73025000Y-69295000D03*
X73025000Y-74295000D03*
%TD*%
%TO.C,C3*%
X73025000Y-80090000D03*
X73025000Y-85090000D03*
%TD*%
%TO.C,C2*%
X179404000Y-137160000D03*
X184404000Y-137160000D03*
%TD*%
%TO.C,C1*%
X81240000Y-55880000D03*
D13*
X78740000Y-55880000D03*
%TD*%
D10*
%TO.C,J2*%
X164465000Y-129794000D03*
X161925000Y-129794000D03*
X164465000Y-127254000D03*
X161925000Y-127254000D03*
X164465000Y-124714000D03*
X161925000Y-124714000D03*
X164465000Y-122174000D03*
X161925000Y-122174000D03*
X164465000Y-119634000D03*
X161925000Y-119634000D03*
X164465000Y-117094000D03*
X161925000Y-117094000D03*
X164465000Y-114554000D03*
X161925000Y-114554000D03*
X164465000Y-112014000D03*
X161925000Y-112014000D03*
X164465000Y-109474000D03*
X161925000Y-109474000D03*
X164465000Y-106934000D03*
X161925000Y-106934000D03*
X164465000Y-104394000D03*
X161925000Y-104394000D03*
X164465000Y-101854000D03*
X161925000Y-101854000D03*
X164465000Y-99314000D03*
X161925000Y-99314000D03*
X164465000Y-96774000D03*
X161925000Y-96774000D03*
X164465000Y-94234000D03*
X161925000Y-94234000D03*
X164465000Y-91694000D03*
X161925000Y-91694000D03*
X164465000Y-89154000D03*
X161925000Y-89154000D03*
X164465000Y-86614000D03*
X161925000Y-86614000D03*
X164465000Y-84074000D03*
X161925000Y-84074000D03*
X164465000Y-81534000D03*
D11*
X161925000Y-81534000D03*
%TD*%
D19*
%TO.C,H2*%
X213233000Y-142240000D03*
%TD*%
%TO.C,H1*%
X213233000Y-53340000D03*
%TD*%
D20*
%TO.C,J3*%
X178911000Y-127852000D03*
X176911000Y-127852000D03*
X178911000Y-125852000D03*
X176911000Y-125852000D03*
X178911000Y-123852000D03*
X176911000Y-123852000D03*
X178911000Y-121852000D03*
X176911000Y-121852000D03*
X178911000Y-119852000D03*
X176911000Y-119852000D03*
X178911000Y-117852000D03*
X176911000Y-117852000D03*
X178911000Y-115852000D03*
X176911000Y-115852000D03*
X178911000Y-113852000D03*
X176911000Y-113852000D03*
X178911000Y-111852000D03*
X176911000Y-111852000D03*
X178911000Y-109852000D03*
X176911000Y-109852000D03*
X178911000Y-107852000D03*
X176911000Y-107852000D03*
X178911000Y-105852000D03*
X176911000Y-105852000D03*
X178911000Y-103852000D03*
X176911000Y-103852000D03*
X178911000Y-101852000D03*
X176911000Y-101852000D03*
X178911000Y-99852000D03*
X176911000Y-99852000D03*
X178911000Y-97852000D03*
X176911000Y-97852000D03*
X178911000Y-95852000D03*
X176911000Y-95852000D03*
X178911000Y-93852000D03*
X176911000Y-93852000D03*
X178911000Y-91852000D03*
X176911000Y-91852000D03*
X178911000Y-89852000D03*
X176911000Y-89852000D03*
X178911000Y-87852000D03*
X176911000Y-87852000D03*
X178911000Y-85852000D03*
D21*
X176911000Y-85852000D03*
%TD*%
D12*
%TO.C,RN1*%
X157353000Y-101854000D03*
X157353000Y-99314000D03*
X157353000Y-96774000D03*
X157353000Y-94234000D03*
X157353000Y-91694000D03*
X157353000Y-89154000D03*
X157353000Y-86614000D03*
X157353000Y-84074000D03*
D13*
X157353000Y-81534000D03*
%TD*%
M02*
