%TF.GenerationSoftware,KiCad,Pcbnew,(5.1.12)-1*%
%TF.CreationDate,2026-04-12T11:16:25+02:00*%
%TF.ProjectId,CF1,4346312e-6b69-4636-9164-5f7063625858,rev?*%
%TF.SameCoordinates,Original*%
%TF.FileFunction,Copper,L1,Top*%
%TF.FilePolarity,Positive*%
%FSLAX46Y46*%
G04 Gerber Fmt 4.6, Leading zero omitted, Abs format (unit mm)*
G04 Created by KiCad (PCBNEW (5.1.12)-1) date 2026-04-12 11:16:25*
%MOMM*%
%LPD*%
G01*
G04 APERTURE LIST*
%TA.AperFunction,ComponentPad*%
%ADD10O,1.700000X1.700000*%
%TD*%
%TA.AperFunction,ComponentPad*%
%ADD11R,1.700000X1.700000*%
%TD*%
%TA.AperFunction,ComponentPad*%
%ADD12O,1.600000X1.600000*%
%TD*%
%TA.AperFunction,ComponentPad*%
%ADD13R,1.600000X1.600000*%
%TD*%
%TA.AperFunction,ComponentPad*%
%ADD14C,1.550000*%
%TD*%
%TA.AperFunction,ComponentPad*%
%ADD15C,1.600000*%
%TD*%
%TA.AperFunction,ComponentPad*%
%ADD16C,1.800000*%
%TD*%
%TA.AperFunction,ComponentPad*%
%ADD17R,1.800000X1.800000*%
%TD*%
%TA.AperFunction,ComponentPad*%
%ADD18O,1.350000X1.350000*%
%TD*%
%TA.AperFunction,ComponentPad*%
%ADD19R,1.350000X1.350000*%
%TD*%
%TA.AperFunction,ViaPad*%
%ADD20C,0.800000*%
%TD*%
%TA.AperFunction,Conductor*%
%ADD21C,1.500000*%
%TD*%
%TA.AperFunction,Conductor*%
%ADD22C,0.300000*%
%TD*%
%TA.AperFunction,Conductor*%
%ADD23C,0.500000*%
%TD*%
%TA.AperFunction,Conductor*%
%ADD24C,0.400000*%
%TD*%
%TA.AperFunction,Conductor*%
%ADD25C,1.000000*%
%TD*%
%TA.AperFunction,Conductor*%
%ADD26C,0.250000*%
%TD*%
G04 APERTURE END LIST*
D10*
%TO.P,JP1,2*%
%TO.N,IEI*%
X72263000Y-100076000D03*
D11*
%TO.P,JP1,1*%
%TO.N,IEO*%
X72263000Y-97536000D03*
%TD*%
D12*
%TO.P,U2,14*%
%TO.N,+5V*%
X78740000Y-67310000D03*
%TO.P,U2,7*%
%TO.N,GND*%
X93980000Y-74930000D03*
%TO.P,U2,13*%
%TO.N,-IORQv*%
X81280000Y-67310000D03*
%TO.P,U2,6*%
%TO.N,N/C*%
X91440000Y-74930000D03*
%TO.P,U2,12*%
%TO.N,+5V*%
X83820000Y-67310000D03*
%TO.P,U2,5*%
%TO.N,Net-(U2-Pad5)*%
X88900000Y-74930000D03*
%TO.P,U2,11*%
%TO.N,CLK*%
X86360000Y-67310000D03*
%TO.P,U2,4*%
%TO.N,+5V*%
X86360000Y-74930000D03*
%TO.P,U2,10*%
%TO.N,A4v*%
X88900000Y-67310000D03*
%TO.P,U2,3*%
%TO.N,CLK*%
X83820000Y-74930000D03*
%TO.P,U2,9*%
%TO.N,Net-(U1-Pad5)*%
X91440000Y-67310000D03*
%TO.P,U2,2*%
%TO.N,-RDv*%
X81280000Y-74930000D03*
%TO.P,U2,8*%
%TO.N,N/C*%
X93980000Y-67310000D03*
D13*
%TO.P,U2,1*%
%TO.N,Net-(U2-Pad1)*%
X78740000Y-74930000D03*
%TD*%
D10*
%TO.P,J4,16*%
%TO.N,-CS1-DSK*%
X96520000Y-104140000D03*
%TO.P,J4,15*%
%TO.N,Net-(J4-Pad15)*%
X96520000Y-106680000D03*
%TO.P,J4,14*%
%TO.N,-CS1-DSK*%
X93980000Y-104140000D03*
%TO.P,J4,13*%
%TO.N,Net-(J4-Pad13)*%
X93980000Y-106680000D03*
%TO.P,J4,12*%
%TO.N,-CS1-DSK*%
X91440000Y-104140000D03*
%TO.P,J4,11*%
%TO.N,Net-(J4-Pad11)*%
X91440000Y-106680000D03*
%TO.P,J4,10*%
%TO.N,-CS1-DSK*%
X88900000Y-104140000D03*
%TO.P,J4,9*%
%TO.N,Net-(J4-Pad9)*%
X88900000Y-106680000D03*
%TO.P,J4,8*%
%TO.N,-CS1-DSK*%
X86360000Y-104140000D03*
%TO.P,J4,7*%
%TO.N,Net-(J4-Pad7)*%
X86360000Y-106680000D03*
%TO.P,J4,6*%
%TO.N,-CS1-DSK*%
X83820000Y-104140000D03*
%TO.P,J4,5*%
%TO.N,Net-(J4-Pad5)*%
X83820000Y-106680000D03*
%TO.P,J4,4*%
%TO.N,-CS1-DSK*%
X81280000Y-104140000D03*
%TO.P,J4,3*%
%TO.N,Net-(J4-Pad3)*%
X81280000Y-106680000D03*
%TO.P,J4,2*%
%TO.N,-CS1-DSK*%
X78740000Y-104140000D03*
D11*
%TO.P,J4,1*%
%TO.N,Net-(J4-Pad1)*%
X78740000Y-106680000D03*
%TD*%
D12*
%TO.P,U1,16*%
%TO.N,+5V*%
X78740000Y-110490000D03*
%TO.P,U1,8*%
%TO.N,GND*%
X96520000Y-118110000D03*
%TO.P,U1,15*%
%TO.N,Net-(J4-Pad1)*%
X81280000Y-110490000D03*
%TO.P,U1,7*%
%TO.N,Net-(J4-Pad15)*%
X93980000Y-118110000D03*
%TO.P,U1,14*%
%TO.N,Net-(J4-Pad3)*%
X83820000Y-110490000D03*
%TO.P,U1,6*%
%TO.N,-M1v*%
X91440000Y-118110000D03*
%TO.P,U1,13*%
%TO.N,Net-(J4-Pad5)*%
X86360000Y-110490000D03*
%TO.P,U1,5*%
%TO.N,Net-(U1-Pad5)*%
X88900000Y-118110000D03*
%TO.P,U1,12*%
%TO.N,Net-(J4-Pad7)*%
X88900000Y-110490000D03*
%TO.P,U1,4*%
%TO.N,A7v*%
X86360000Y-118110000D03*
%TO.P,U1,11*%
%TO.N,Net-(J4-Pad9)*%
X91440000Y-110490000D03*
%TO.P,U1,3*%
%TO.N,A6v*%
X83820000Y-118110000D03*
%TO.P,U1,10*%
%TO.N,Net-(J4-Pad11)*%
X93980000Y-110490000D03*
%TO.P,U1,2*%
%TO.N,A5v*%
X81280000Y-118110000D03*
%TO.P,U1,9*%
%TO.N,Net-(J4-Pad13)*%
X96520000Y-110490000D03*
D13*
%TO.P,U1,1*%
%TO.N,A3v*%
X78740000Y-118110000D03*
%TD*%
D14*
%TO.P,J1,C32*%
%TO.N,GND*%
X67453000Y-58486000D03*
%TO.P,J1,C31*%
%TO.N,-RESET*%
X67453000Y-61026000D03*
%TO.P,J1,C30*%
%TO.N,N/C*%
X67453000Y-63566000D03*
%TO.P,J1,C29*%
%TO.N,CLK*%
X67453000Y-66106000D03*
%TO.P,J1,C28*%
%TO.N,N/C*%
X67453000Y-68646000D03*
%TO.P,J1,C27*%
X67453000Y-71186000D03*
%TO.P,J1,C26*%
X67453000Y-73726000D03*
%TO.P,J1,C25*%
X67453000Y-76266000D03*
%TO.P,J1,C24*%
%TO.N,-RDv*%
X67453000Y-78806000D03*
%TO.P,J1,C23*%
%TO.N,N/C*%
X67453000Y-81346000D03*
%TO.P,J1,C22*%
%TO.N,-WRv*%
X67453000Y-83886000D03*
%TO.P,J1,C21*%
%TO.N,N/C*%
X67453000Y-86426000D03*
%TO.P,J1,C20*%
X67453000Y-88966000D03*
%TO.P,J1,C19*%
X67453000Y-91506000D03*
%TO.P,J1,C18*%
X67453000Y-94046000D03*
%TO.P,J1,C17*%
X67453000Y-96586000D03*
%TO.P,J1,C16*%
%TO.N,IEO*%
X67453000Y-99126000D03*
%TO.P,J1,C15*%
%TO.N,N/C*%
X67453000Y-101666000D03*
%TO.P,J1,C14*%
%TO.N,D1v*%
X67453000Y-104206000D03*
%TO.P,J1,C13*%
%TO.N,N/C*%
X67453000Y-106746000D03*
%TO.P,J1,C12*%
X67453000Y-109286000D03*
%TO.P,J1,C11*%
%TO.N,IEI*%
X67453000Y-111826000D03*
%TO.P,J1,C10*%
%TO.N,N/C*%
X67453000Y-114366000D03*
%TO.P,J1,C9*%
%TO.N,A7v*%
X67453000Y-116906000D03*
%TO.P,J1,C8*%
%TO.N,N/C*%
X67453000Y-119446000D03*
%TO.P,J1,C7*%
%TO.N,A1v*%
X67453000Y-121986000D03*
%TO.P,J1,C6*%
%TO.N,A3v*%
X67453000Y-124526000D03*
%TO.P,J1,C5*%
%TO.N,A0v*%
X67453000Y-127066000D03*
%TO.P,J1,C4*%
%TO.N,D2v*%
X67453000Y-129606000D03*
%TO.P,J1,C3*%
%TO.N,D7v*%
X67453000Y-132146000D03*
%TO.P,J1,C2*%
%TO.N,D0v*%
X67453000Y-134686000D03*
%TO.P,J1,C1*%
%TO.N,+5V*%
X67453000Y-137226000D03*
%TO.P,J1,A32*%
%TO.N,GND*%
X62373000Y-58486000D03*
%TO.P,J1,A31*%
%TO.N,N/C*%
X62373000Y-61026000D03*
%TO.P,J1,A30*%
X62373000Y-63566000D03*
%TO.P,J1,A29*%
X62373000Y-66106000D03*
%TO.P,J1,A28*%
X62373000Y-68646000D03*
%TO.P,J1,A27*%
%TO.N,-IORQv*%
X62373000Y-71186000D03*
%TO.P,J1,A26*%
%TO.N,N/C*%
X62373000Y-73726000D03*
%TO.P,J1,A25*%
X62373000Y-76266000D03*
%TO.P,J1,A24*%
X62373000Y-78806000D03*
%TO.P,J1,A23*%
X62373000Y-81346000D03*
%TO.P,J1,A22*%
X62373000Y-83886000D03*
%TO.P,J1,A21*%
X62373000Y-86426000D03*
%TO.P,J1,A20*%
%TO.N,-M1v*%
X62373000Y-88966000D03*
%TO.P,J1,A19*%
%TO.N,N/C*%
X62373000Y-91506000D03*
%TO.P,J1,A18*%
X62373000Y-94046000D03*
%TO.P,J1,A17*%
X62373000Y-96586000D03*
%TO.P,J1,A16*%
X62373000Y-99126000D03*
%TO.P,J1,A15*%
X62373000Y-101666000D03*
%TO.P,J1,A14*%
X62373000Y-104206000D03*
%TO.P,J1,A13*%
X62373000Y-106746000D03*
%TO.P,J1,A12*%
X62373000Y-109286000D03*
%TO.P,J1,A11*%
X62373000Y-111826000D03*
%TO.P,J1,A10*%
X62373000Y-114366000D03*
%TO.P,J1,A9*%
%TO.N,A6v*%
X62373000Y-116906000D03*
%TO.P,J1,A8*%
%TO.N,A5v*%
X62373000Y-119446000D03*
%TO.P,J1,A7*%
%TO.N,A4v*%
X62373000Y-121986000D03*
%TO.P,J1,A6*%
%TO.N,A2v*%
X62373000Y-124526000D03*
%TO.P,J1,A5*%
%TO.N,D4v*%
X62373000Y-127066000D03*
%TO.P,J1,A4*%
%TO.N,D3v*%
X62373000Y-129606000D03*
%TO.P,J1,A3*%
%TO.N,D6v*%
X62373000Y-132146000D03*
%TO.P,J1,A2*%
%TO.N,D5v*%
X62373000Y-134686000D03*
%TO.P,J1,A1*%
%TO.N,+5V*%
%TA.AperFunction,ComponentPad*%
G36*
G01*
X62898450Y-138001000D02*
X61847550Y-138001000D01*
G75*
G02*
X61598000Y-137751450I0J249550D01*
G01*
X61598000Y-136700550D01*
G75*
G02*
X61847550Y-136451000I249550J0D01*
G01*
X62898450Y-136451000D01*
G75*
G02*
X63148000Y-136700550I0J-249550D01*
G01*
X63148000Y-137751450D01*
G75*
G02*
X62898450Y-138001000I-249550J0D01*
G01*
G37*
%TD.AperFunction*%
%TD*%
D12*
%TO.P,U3,14*%
%TO.N,+5V*%
X78740000Y-78740000D03*
%TO.P,U3,7*%
%TO.N,GND*%
X93980000Y-86360000D03*
%TO.P,U3,13*%
%TO.N,-RDv*%
X81280000Y-78740000D03*
%TO.P,U3,6*%
%TO.N,IOWR\u002A*%
X91440000Y-86360000D03*
%TO.P,U3,12*%
%TO.N,CLK*%
X83820000Y-78740000D03*
%TO.P,U3,5*%
%TO.N,Net-(U3-Pad3)*%
X88900000Y-86360000D03*
%TO.P,U3,11*%
%TO.N,Net-(U2-Pad1)*%
X86360000Y-78740000D03*
%TO.P,U3,4*%
%TO.N,GND*%
X86360000Y-86360000D03*
%TO.P,U3,10*%
%TO.N,Net-(U2-Pad5)*%
X88900000Y-78740000D03*
%TO.P,U3,3*%
%TO.N,Net-(U3-Pad3)*%
X83820000Y-86360000D03*
%TO.P,U3,9*%
%TO.N,-RDv*%
X91440000Y-78740000D03*
%TO.P,U3,2*%
%TO.N,-WRv*%
X81280000Y-86360000D03*
%TO.P,U3,8*%
%TO.N,IORD\u002A*%
X93980000Y-78740000D03*
D13*
%TO.P,U3,1*%
%TO.N,-CS1-DSK*%
X78740000Y-86360000D03*
%TD*%
D12*
%TO.P,R7,2*%
%TO.N,+5V*%
X193040000Y-67310000D03*
D15*
%TO.P,R7,1*%
%TO.N,Net-(D2-Pad2)*%
X203200000Y-67310000D03*
%TD*%
D10*
%TO.P,JP4,2*%
%TO.N,+5V*%
X185420000Y-67310000D03*
D11*
%TO.P,JP4,1*%
%TO.N,GND*%
X185420000Y-69850000D03*
%TD*%
D16*
%TO.P,D2,2*%
%TO.N,Net-(D2-Pad2)*%
X208280000Y-67310000D03*
D17*
%TO.P,D2,1*%
%TO.N,Net-(D2-Pad1)*%
X210820000Y-67310000D03*
%TD*%
D15*
%TO.P,C8,2*%
%TO.N,GND*%
X166751000Y-139660000D03*
D13*
%TO.P,C8,1*%
%TO.N,+5V*%
X166751000Y-137160000D03*
%TD*%
D15*
%TO.P,C5,2*%
%TO.N,+5V*%
X178943000Y-65231000D03*
%TO.P,C5,1*%
%TO.N,GND*%
X178943000Y-70231000D03*
%TD*%
%TO.P,C4,2*%
%TO.N,+5V*%
X73025000Y-69295000D03*
%TO.P,C4,1*%
%TO.N,GND*%
X73025000Y-74295000D03*
%TD*%
%TO.P,C3,2*%
%TO.N,+5V*%
X73025000Y-80090000D03*
%TO.P,C3,1*%
%TO.N,GND*%
X73025000Y-85090000D03*
%TD*%
%TO.P,C2,2*%
%TO.N,+5V*%
X179404000Y-137160000D03*
%TO.P,C2,1*%
%TO.N,GND*%
X184404000Y-137160000D03*
%TD*%
%TO.P,C1,2*%
%TO.N,GND*%
X81240000Y-55880000D03*
D13*
%TO.P,C1,1*%
%TO.N,+5V*%
X78740000Y-55880000D03*
%TD*%
D10*
%TO.P,J2,40*%
%TO.N,GND*%
X164465000Y-129794000D03*
%TO.P,J2,39*%
%TO.N,Net-(D2-Pad1)*%
X161925000Y-129794000D03*
%TO.P,J2,38*%
%TO.N,+5V*%
X164465000Y-127254000D03*
%TO.P,J2,37*%
%TO.N,-CS1-DSK*%
X161925000Y-127254000D03*
%TO.P,J2,36*%
%TO.N,A2v*%
X164465000Y-124714000D03*
%TO.P,J2,35*%
%TO.N,A0v*%
X161925000Y-124714000D03*
%TO.P,J2,34*%
%TO.N,N/C*%
X164465000Y-122174000D03*
%TO.P,J2,33*%
%TO.N,A1v*%
X161925000Y-122174000D03*
%TO.P,J2,32*%
%TO.N,N/C*%
X164465000Y-119634000D03*
%TO.P,J2,31*%
X161925000Y-119634000D03*
%TO.P,J2,30*%
%TO.N,GND*%
X164465000Y-117094000D03*
%TO.P,J2,29*%
%TO.N,+5V*%
X161925000Y-117094000D03*
%TO.P,J2,28*%
%TO.N,N/C*%
X164465000Y-114554000D03*
%TO.P,J2,27*%
X161925000Y-114554000D03*
%TO.P,J2,26*%
%TO.N,GND*%
X164465000Y-112014000D03*
%TO.P,J2,25*%
%TO.N,IORD\u002A*%
X161925000Y-112014000D03*
%TO.P,J2,24*%
%TO.N,GND*%
X164465000Y-109474000D03*
%TO.P,J2,23*%
%TO.N,IOWR\u002A*%
X161925000Y-109474000D03*
%TO.P,J2,22*%
%TO.N,GND*%
X164465000Y-106934000D03*
%TO.P,J2,21*%
%TO.N,N/C*%
X161925000Y-106934000D03*
%TO.P,J2,20*%
%TO.N,+5V*%
X164465000Y-104394000D03*
%TO.P,J2,19*%
%TO.N,GND*%
X161925000Y-104394000D03*
%TO.P,J2,18*%
%TO.N,RGND8*%
X164465000Y-101854000D03*
%TO.P,J2,17*%
%TO.N,D0v*%
X161925000Y-101854000D03*
%TO.P,J2,16*%
%TO.N,RGND7*%
X164465000Y-99314000D03*
%TO.P,J2,15*%
%TO.N,D1v*%
X161925000Y-99314000D03*
%TO.P,J2,14*%
%TO.N,RGND6*%
X164465000Y-96774000D03*
%TO.P,J2,13*%
%TO.N,D2v*%
X161925000Y-96774000D03*
%TO.P,J2,12*%
%TO.N,RGND5*%
X164465000Y-94234000D03*
%TO.P,J2,11*%
%TO.N,D3v*%
X161925000Y-94234000D03*
%TO.P,J2,10*%
%TO.N,RGND4*%
X164465000Y-91694000D03*
%TO.P,J2,9*%
%TO.N,D4v*%
X161925000Y-91694000D03*
%TO.P,J2,8*%
%TO.N,RGND3*%
X164465000Y-89154000D03*
%TO.P,J2,7*%
%TO.N,D5v*%
X161925000Y-89154000D03*
%TO.P,J2,6*%
%TO.N,RGND2*%
X164465000Y-86614000D03*
%TO.P,J2,5*%
%TO.N,D6v*%
X161925000Y-86614000D03*
%TO.P,J2,4*%
%TO.N,RGND1*%
X164465000Y-84074000D03*
%TO.P,J2,3*%
%TO.N,D7v*%
X161925000Y-84074000D03*
%TO.P,J2,2*%
%TO.N,GND*%
X164465000Y-81534000D03*
D11*
%TO.P,J2,1*%
%TO.N,-RESET*%
X161925000Y-81534000D03*
%TD*%
D18*
%TO.P,J3,44*%
%TO.N,N/C*%
X178911000Y-127852000D03*
%TO.P,J3,43*%
%TO.N,GND*%
X176911000Y-127852000D03*
%TO.P,J3,42*%
%TO.N,+5V*%
X178911000Y-125852000D03*
%TO.P,J3,41*%
X176911000Y-125852000D03*
%TO.P,J3,40*%
%TO.N,GND*%
X178911000Y-123852000D03*
%TO.P,J3,39*%
%TO.N,Net-(D2-Pad1)*%
X176911000Y-123852000D03*
%TO.P,J3,38*%
%TO.N,+5V*%
X178911000Y-121852000D03*
%TO.P,J3,37*%
%TO.N,-CS1-DSK*%
X176911000Y-121852000D03*
%TO.P,J3,36*%
%TO.N,A2v*%
X178911000Y-119852000D03*
%TO.P,J3,35*%
%TO.N,A0v*%
X176911000Y-119852000D03*
%TO.P,J3,34*%
%TO.N,N/C*%
X178911000Y-117852000D03*
%TO.P,J3,33*%
%TO.N,A1v*%
X176911000Y-117852000D03*
%TO.P,J3,32*%
%TO.N,N/C*%
X178911000Y-115852000D03*
%TO.P,J3,31*%
X176911000Y-115852000D03*
%TO.P,J3,30*%
%TO.N,GND*%
X178911000Y-113852000D03*
%TO.P,J3,29*%
%TO.N,+5V*%
X176911000Y-113852000D03*
%TO.P,J3,28*%
%TO.N,N/C*%
X178911000Y-111852000D03*
%TO.P,J3,27*%
X176911000Y-111852000D03*
%TO.P,J3,26*%
%TO.N,GND*%
X178911000Y-109852000D03*
%TO.P,J3,25*%
%TO.N,IORD\u002A*%
X176911000Y-109852000D03*
%TO.P,J3,24*%
%TO.N,GND*%
X178911000Y-107852000D03*
%TO.P,J3,23*%
%TO.N,IOWR\u002A*%
X176911000Y-107852000D03*
%TO.P,J3,22*%
%TO.N,GND*%
X178911000Y-105852000D03*
%TO.P,J3,21*%
%TO.N,N/C*%
X176911000Y-105852000D03*
%TO.P,J3,20*%
%TO.N,+5V*%
X178911000Y-103852000D03*
%TO.P,J3,19*%
%TO.N,GND*%
X176911000Y-103852000D03*
%TO.P,J3,18*%
%TO.N,RGND8*%
X178911000Y-101852000D03*
%TO.P,J3,17*%
%TO.N,D0v*%
X176911000Y-101852000D03*
%TO.P,J3,16*%
%TO.N,RGND7*%
X178911000Y-99852000D03*
%TO.P,J3,15*%
%TO.N,D1v*%
X176911000Y-99852000D03*
%TO.P,J3,14*%
%TO.N,RGND6*%
X178911000Y-97852000D03*
%TO.P,J3,13*%
%TO.N,D2v*%
X176911000Y-97852000D03*
%TO.P,J3,12*%
%TO.N,RGND5*%
X178911000Y-95852000D03*
%TO.P,J3,11*%
%TO.N,D3v*%
X176911000Y-95852000D03*
%TO.P,J3,10*%
%TO.N,RGND4*%
X178911000Y-93852000D03*
%TO.P,J3,9*%
%TO.N,D4v*%
X176911000Y-93852000D03*
%TO.P,J3,8*%
%TO.N,RGND3*%
X178911000Y-91852000D03*
%TO.P,J3,7*%
%TO.N,D5v*%
X176911000Y-91852000D03*
%TO.P,J3,6*%
%TO.N,RGND2*%
X178911000Y-89852000D03*
%TO.P,J3,5*%
%TO.N,D6v*%
X176911000Y-89852000D03*
%TO.P,J3,4*%
%TO.N,RGND1*%
X178911000Y-87852000D03*
%TO.P,J3,3*%
%TO.N,D7v*%
X176911000Y-87852000D03*
%TO.P,J3,2*%
%TO.N,GND*%
X178911000Y-85852000D03*
D19*
%TO.P,J3,1*%
%TO.N,-RESET*%
X176911000Y-85852000D03*
%TD*%
D12*
%TO.P,RN1,9*%
%TO.N,RGND8*%
X157353000Y-101854000D03*
%TO.P,RN1,8*%
%TO.N,RGND7*%
X157353000Y-99314000D03*
%TO.P,RN1,7*%
%TO.N,RGND6*%
X157353000Y-96774000D03*
%TO.P,RN1,6*%
%TO.N,RGND5*%
X157353000Y-94234000D03*
%TO.P,RN1,5*%
%TO.N,RGND4*%
X157353000Y-91694000D03*
%TO.P,RN1,4*%
%TO.N,RGND3*%
X157353000Y-89154000D03*
%TO.P,RN1,3*%
%TO.N,RGND2*%
X157353000Y-86614000D03*
%TO.P,RN1,2*%
%TO.N,RGND1*%
X157353000Y-84074000D03*
D13*
%TO.P,RN1,1*%
%TO.N,GND*%
X157353000Y-81534000D03*
%TD*%
D20*
%TO.N,+5V*%
X167005000Y-104775000D03*
X167062001Y-115893999D03*
%TO.N,D1v*%
X143510000Y-120650000D03*
X153670000Y-120650000D03*
X73660000Y-120650000D03*
X73660000Y-104140000D03*
%TO.N,A1v*%
X144780000Y-121920000D03*
%TO.N,A3v*%
X78674000Y-124526000D03*
%TO.N,A0v*%
X144780000Y-124460000D03*
%TO.N,D2v*%
X144714000Y-129606000D03*
X152400000Y-129540000D03*
%TO.N,A6v*%
X83820000Y-115570000D03*
%TO.N,A4v*%
X69850000Y-120650000D03*
X71120000Y-63500000D03*
%TO.N,A2v*%
X143299001Y-123400999D03*
%TO.N,D4v*%
X142240000Y-125730000D03*
X149860000Y-125730000D03*
%TO.N,D3v*%
X143510000Y-128270000D03*
X151130000Y-128270000D03*
%TO.N,D6v*%
X143510000Y-130810000D03*
X147320000Y-130810000D03*
%TO.N,RGND1*%
X172656500Y-81788000D03*
X172656500Y-83947000D03*
%TO.N,-CS1-DSK*%
X144780000Y-119380000D03*
X156845000Y-119380000D03*
X156845000Y-127000000D03*
%TO.N,Net-(D2-Pad1)*%
X177038000Y-132080000D03*
X185039000Y-132080000D03*
%TO.N,IORD\u002A*%
X144780000Y-112014000D03*
%TO.N,IOWR\u002A*%
X143510000Y-110490000D03*
%TD*%
D21*
%TO.N,+5V*%
X62373000Y-137226000D02*
X67453000Y-137226000D01*
D22*
X175835000Y-113852000D02*
X176911000Y-113852000D01*
X173793001Y-115893999D02*
X175835000Y-113852000D01*
X163125001Y-115893999D02*
X167062001Y-115893999D01*
X161925000Y-117094000D02*
X163125001Y-115893999D01*
X78740000Y-67310000D02*
X80010000Y-66040000D01*
X80010000Y-66040000D02*
X82550000Y-66040000D01*
X82550000Y-66040000D02*
X83820000Y-67310000D01*
X167316001Y-115893999D02*
X167316001Y-115893999D01*
D21*
X67453000Y-137226000D02*
X158684000Y-137226000D01*
X158684000Y-137226000D02*
X166939000Y-137226000D01*
D23*
X158684000Y-137226000D02*
X158684000Y-118176000D01*
X158684000Y-118176000D02*
X159766000Y-117094000D01*
D22*
X163125001Y-105733999D02*
X159061001Y-105733999D01*
X164465000Y-104394000D02*
X163125001Y-105733999D01*
X159061001Y-105733999D02*
X158750000Y-106045000D01*
D23*
X160274000Y-117094000D02*
X161925000Y-117094000D01*
D22*
X158750000Y-115570000D02*
X160274000Y-117094000D01*
X158750000Y-106045000D02*
X158750000Y-115570000D01*
D23*
X159766000Y-117094000D02*
X160274000Y-117094000D01*
D22*
X164465000Y-104394000D02*
X166624000Y-104394000D01*
X166624000Y-104394000D02*
X167005000Y-104775000D01*
X167005000Y-104775000D02*
X167005000Y-104775000D01*
X167316001Y-115893999D02*
X173793001Y-115893999D01*
D24*
X185420000Y-67310000D02*
X193040000Y-67310000D01*
D22*
X167062001Y-115893999D02*
X167316001Y-115893999D01*
D21*
X166751000Y-137160000D02*
X179578000Y-137160000D01*
X179578000Y-137160000D02*
X181991000Y-134747000D01*
X181991000Y-104394000D02*
X181991000Y-103886000D01*
D23*
X181957000Y-103852000D02*
X181991000Y-103886000D01*
X178911000Y-103852000D02*
X181957000Y-103852000D01*
X181551000Y-121852000D02*
X181991000Y-121412000D01*
X178911000Y-121852000D02*
X181551000Y-121852000D01*
D21*
X181991000Y-121412000D02*
X181991000Y-103886000D01*
X181991000Y-122555000D02*
X181991000Y-121412000D01*
X181991000Y-103886000D02*
X181991000Y-66708000D01*
X180514000Y-65231000D02*
X181991000Y-66708000D01*
X178943000Y-65231000D02*
X180514000Y-65231000D01*
X182593000Y-67310000D02*
X181991000Y-66708000D01*
X185420000Y-67310000D02*
X182593000Y-67310000D01*
D25*
X181869000Y-125852000D02*
X181991000Y-125730000D01*
X178911000Y-125852000D02*
X181869000Y-125852000D01*
D21*
X181991000Y-125730000D02*
X181991000Y-122555000D01*
X181991000Y-134747000D02*
X181991000Y-125730000D01*
D22*
%TO.N,-RESET*%
X161925000Y-81534000D02*
X162179000Y-81534000D01*
X163125001Y-82734001D02*
X175825001Y-82734001D01*
X161925000Y-81534000D02*
X163125001Y-82734001D01*
X176911000Y-83820000D02*
X176911000Y-85852000D01*
X175825001Y-82734001D02*
X176911000Y-83820000D01*
D24*
X67453000Y-61026000D02*
X95316000Y-61026000D01*
X95316000Y-61026000D02*
X99060000Y-64770000D01*
X99060000Y-64770000D02*
X99060000Y-74295000D01*
X99060000Y-74295000D02*
X103505000Y-78740000D01*
X103505000Y-78740000D02*
X160655000Y-78740000D01*
X161925000Y-80010000D02*
X161925000Y-81534000D01*
X160655000Y-78740000D02*
X161925000Y-80010000D01*
D26*
%TO.N,D5v*%
X173259000Y-91852000D02*
X176911000Y-91852000D01*
X171925999Y-90518999D02*
X173259000Y-91852000D01*
X163289999Y-90518999D02*
X171925999Y-90518999D01*
X161925000Y-89154000D02*
X163289999Y-90518999D01*
D22*
X157905001Y-90304001D02*
X153535999Y-90304001D01*
X159055002Y-89154000D02*
X157905001Y-90304001D01*
X161925000Y-89154000D02*
X159055002Y-89154000D01*
X153535999Y-90304001D02*
X148590000Y-95250000D01*
X148590000Y-95250000D02*
X148590000Y-132080000D01*
X62373000Y-134686000D02*
X63709000Y-133350000D01*
X63709000Y-133350000D02*
X147320000Y-133350000D01*
X147320000Y-133350000D02*
X148590000Y-132080000D01*
%TO.N,-RDv*%
X81280000Y-80010000D02*
X81280000Y-78740000D01*
X81280000Y-80010000D02*
X82550000Y-81280000D01*
X82550000Y-81280000D02*
X90170000Y-81280000D01*
X90170000Y-81280000D02*
X91440000Y-80010000D01*
X91440000Y-80010000D02*
X91440000Y-78740000D01*
D24*
X67453000Y-78806000D02*
X69149000Y-78806000D01*
X69149000Y-78806000D02*
X71120000Y-76835000D01*
X80645000Y-76835000D02*
X81280000Y-77470000D01*
D22*
X81280000Y-77470000D02*
X81280000Y-78740000D01*
D24*
X71120000Y-76835000D02*
X80645000Y-76835000D01*
D22*
X81280000Y-74930000D02*
X81280000Y-77470000D01*
D24*
%TO.N,-WRv*%
X67453000Y-83886000D02*
X69281000Y-83886000D01*
X69281000Y-83886000D02*
X70485000Y-85090000D01*
X70485000Y-85090000D02*
X70485000Y-86995000D01*
X70485000Y-86995000D02*
X71755000Y-88265000D01*
X71755000Y-88265000D02*
X80645000Y-88265000D01*
X81280000Y-87630000D02*
X81280000Y-86360000D01*
X80645000Y-88265000D02*
X81280000Y-87630000D01*
D26*
%TO.N,D1v*%
X163100001Y-100489001D02*
X174465999Y-100489001D01*
X161925000Y-99314000D02*
X163100001Y-100489001D01*
X175103000Y-99852000D02*
X176911000Y-99852000D01*
X174465999Y-100489001D02*
X175103000Y-99852000D01*
D22*
X161925000Y-99314000D02*
X160274000Y-99314000D01*
X159123999Y-100464001D02*
X156075999Y-100464001D01*
X160274000Y-99314000D02*
X159123999Y-100464001D01*
X156075999Y-100464001D02*
X153670000Y-102870000D01*
X153670000Y-102870000D02*
X153670000Y-120650000D01*
X73660000Y-120650000D02*
X73660000Y-120650000D01*
X143510000Y-120650000D02*
X143510000Y-120650000D01*
X73660000Y-120650000D02*
X143510000Y-120650000D01*
X67453000Y-104206000D02*
X73594000Y-104206000D01*
X73594000Y-104206000D02*
X73660000Y-104140000D01*
X73660000Y-104140000D02*
X73660000Y-104140000D01*
%TO.N,A7v*%
X86228000Y-118110000D02*
X86360000Y-118110000D01*
X85024000Y-116906000D02*
X86228000Y-118110000D01*
X67453000Y-116906000D02*
X85024000Y-116906000D01*
%TO.N,A1v*%
X163175001Y-120923999D02*
X167874001Y-120923999D01*
X161925000Y-122174000D02*
X163175001Y-120923999D01*
X170946000Y-117852000D02*
X176911000Y-117852000D01*
X167874001Y-120923999D02*
X170946000Y-117852000D01*
X67453000Y-121986000D02*
X144714000Y-121986000D01*
X144714000Y-121986000D02*
X144780000Y-121920000D01*
X144780000Y-121920000D02*
X144780000Y-121920000D01*
%TO.N,A3v*%
X67453000Y-124526000D02*
X78674000Y-124526000D01*
X78674000Y-124526000D02*
X78674000Y-124526000D01*
%TO.N,A0v*%
X163175001Y-123463999D02*
X168255001Y-123463999D01*
X161925000Y-124714000D02*
X163175001Y-123463999D01*
X171867000Y-119852000D02*
X176911000Y-119852000D01*
X168255001Y-123463999D02*
X171867000Y-119852000D01*
X67453000Y-127066000D02*
X143444000Y-127066000D01*
X143444000Y-127066000D02*
X144780000Y-125730000D01*
X144780000Y-125730000D02*
X144780000Y-124460000D01*
X144780000Y-124460000D02*
X144780000Y-124460000D01*
D26*
%TO.N,D2v*%
X176813999Y-97949001D02*
X176911000Y-97852000D01*
X163900999Y-97949001D02*
X176813999Y-97949001D01*
X162725998Y-96774000D02*
X163900999Y-97949001D01*
X161925000Y-96774000D02*
X162725998Y-96774000D01*
D22*
X157905001Y-97924001D02*
X154805999Y-97924001D01*
X159055002Y-96774000D02*
X157905001Y-97924001D01*
X161925000Y-96774000D02*
X159055002Y-96774000D01*
X154805999Y-97924001D02*
X152400000Y-100330000D01*
X152400000Y-100330000D02*
X152400000Y-129540000D01*
X67453000Y-129606000D02*
X144714000Y-129606000D01*
X144714000Y-129606000D02*
X144714000Y-129606000D01*
%TO.N,D7v*%
X159766000Y-84074000D02*
X161449992Y-84074000D01*
X158615999Y-85224001D02*
X159766000Y-84074000D01*
X154805999Y-85224001D02*
X158615999Y-85224001D01*
X153670000Y-86360000D02*
X154805999Y-85224001D01*
D26*
X174339000Y-87852000D02*
X176911000Y-87852000D01*
X171925999Y-85438999D02*
X174339000Y-87852000D01*
X163289999Y-85438999D02*
X171925999Y-85438999D01*
X161925000Y-84074000D02*
X163289999Y-85438999D01*
D22*
X153670000Y-86360000D02*
X146050000Y-93980000D01*
X146050000Y-93980000D02*
X146050000Y-129540000D01*
X67453000Y-132146000D02*
X144714000Y-132146000D01*
X144714000Y-132146000D02*
X146050000Y-130810000D01*
X146050000Y-130810000D02*
X146050000Y-128270000D01*
D26*
%TO.N,D0v*%
X175544001Y-103218999D02*
X176911000Y-101852000D01*
X163289999Y-103218999D02*
X175544001Y-103218999D01*
X161925000Y-101854000D02*
X163289999Y-103218999D01*
D22*
X153604000Y-134686000D02*
X67453000Y-134686000D01*
X155448000Y-132842000D02*
X153604000Y-134686000D01*
X155448000Y-106680000D02*
X155448000Y-132842000D01*
X160274000Y-101854000D02*
X155448000Y-106680000D01*
X161925000Y-101854000D02*
X160274000Y-101854000D01*
%TO.N,-IORQv*%
X81280000Y-69850000D02*
X81280000Y-67310000D01*
X80010000Y-71120000D02*
X81280000Y-69850000D01*
X70485000Y-71120000D02*
X80010000Y-71120000D01*
X69215000Y-69850000D02*
X70485000Y-71120000D01*
X64770000Y-69850000D02*
X69215000Y-69850000D01*
X63434000Y-71186000D02*
X64770000Y-69850000D01*
X62373000Y-71186000D02*
X63434000Y-71186000D01*
%TO.N,-M1v*%
X62373000Y-88966000D02*
X63434000Y-88966000D01*
X63434000Y-88966000D02*
X64770000Y-90302000D01*
X64770000Y-90302000D02*
X64770000Y-111760000D01*
X64770000Y-111760000D02*
X66040000Y-113030000D01*
X66040000Y-113030000D02*
X90170000Y-113030000D01*
X91440000Y-114300000D02*
X91440000Y-118110000D01*
X90170000Y-113030000D02*
X91440000Y-114300000D01*
%TO.N,A6v*%
X62373000Y-116906000D02*
X63709000Y-115570000D01*
X63709000Y-115570000D02*
X74930000Y-115570000D01*
X74930000Y-115570000D02*
X83820000Y-115570000D01*
%TO.N,A5v*%
X62373000Y-119446000D02*
X63709000Y-118110000D01*
X63709000Y-118110000D02*
X74930000Y-118110000D01*
X74930000Y-118110000D02*
X76969990Y-120149990D01*
X76969990Y-120149990D02*
X80510010Y-120149990D01*
X81280000Y-119380000D02*
X81280000Y-118110000D01*
X80510010Y-120149990D02*
X81280000Y-119380000D01*
%TO.N,A4v*%
X62373000Y-121986000D02*
X63709000Y-120650000D01*
X63709000Y-120650000D02*
X69850000Y-120650000D01*
X69850000Y-120650000D02*
X69850000Y-120650000D01*
X71120000Y-63500000D02*
X86360000Y-63500000D01*
X86360000Y-63500000D02*
X88900000Y-66040000D01*
X88900000Y-66040000D02*
X88900000Y-67310000D01*
D26*
%TO.N,A2v*%
X164465000Y-124714000D02*
X168402000Y-124714000D01*
X168402000Y-124714000D02*
X172264000Y-120852000D01*
X172264000Y-120852000D02*
X177621000Y-120852000D01*
X178621000Y-119852000D02*
X178911000Y-119852000D01*
X177621000Y-120852000D02*
X178621000Y-119852000D01*
D22*
X62373000Y-124526000D02*
X63434000Y-124526000D01*
X64559001Y-123400999D02*
X143299001Y-123400999D01*
X63434000Y-124526000D02*
X64559001Y-123400999D01*
X143299001Y-123400999D02*
X143299001Y-123400999D01*
D26*
%TO.N,D4v*%
X161925000Y-91694000D02*
X163195000Y-92964000D01*
X163195000Y-92964000D02*
X171577000Y-92964000D01*
X172465000Y-93852000D02*
X176911000Y-93852000D01*
X171577000Y-92964000D02*
X172465000Y-93852000D01*
D22*
X157905001Y-92844001D02*
X153535999Y-92844001D01*
X159055002Y-91694000D02*
X157905001Y-92844001D01*
X161925000Y-91694000D02*
X159055002Y-91694000D01*
X153535999Y-92844001D02*
X149860000Y-96520000D01*
X149860000Y-96520000D02*
X149860000Y-125730000D01*
X62373000Y-127066000D02*
X63709000Y-125730000D01*
X63709000Y-125730000D02*
X142240000Y-125730000D01*
X142240000Y-125730000D02*
X142240000Y-125730000D01*
D26*
%TO.N,D3v*%
X175227000Y-95852000D02*
X176911000Y-95852000D01*
X174973999Y-95598999D02*
X175227000Y-95852000D01*
X163289999Y-95598999D02*
X174973999Y-95598999D01*
X161925000Y-94234000D02*
X163289999Y-95598999D01*
D22*
X157905001Y-95384001D02*
X153535999Y-95384001D01*
X159055002Y-94234000D02*
X157905001Y-95384001D01*
X161925000Y-94234000D02*
X159055002Y-94234000D01*
X153535999Y-95384001D02*
X151130000Y-97790000D01*
X151130000Y-97790000D02*
X151130000Y-128270000D01*
X143510000Y-128270000D02*
X143510000Y-128270000D01*
X66991998Y-128270000D02*
X67310000Y-128270000D01*
X67310000Y-128270000D02*
X143510000Y-128270000D01*
X63434000Y-129606000D02*
X62373000Y-129606000D01*
X64770000Y-128270000D02*
X63434000Y-129606000D01*
X67310000Y-128270000D02*
X64770000Y-128270000D01*
D26*
%TO.N,D6v*%
X173545000Y-89852000D02*
X176911000Y-89852000D01*
X171482001Y-87789001D02*
X173545000Y-89852000D01*
X163100001Y-87789001D02*
X171482001Y-87789001D01*
X161925000Y-86614000D02*
X163100001Y-87789001D01*
D22*
X158144763Y-87764001D02*
X153535999Y-87764001D01*
X159294764Y-86614000D02*
X158144763Y-87764001D01*
X161925000Y-86614000D02*
X159294764Y-86614000D01*
X153535999Y-87764001D02*
X147320000Y-93980000D01*
X147320000Y-93980000D02*
X147320000Y-130810000D01*
X62373000Y-132146000D02*
X63709000Y-130810000D01*
X63709000Y-130810000D02*
X115570000Y-130810000D01*
X115570000Y-130810000D02*
X143510000Y-130810000D01*
X143510000Y-130810000D02*
X143510000Y-130810000D01*
X147320000Y-130810000D02*
X147320000Y-130810000D01*
%TO.N,CLK*%
X83820000Y-74930000D02*
X83820000Y-78740000D01*
X85090000Y-64770000D02*
X86360000Y-66040000D01*
X86360000Y-66040000D02*
X86360000Y-67310000D01*
X69850000Y-64770000D02*
X85090000Y-64770000D01*
X68514000Y-66106000D02*
X69850000Y-64770000D01*
X67453000Y-66106000D02*
X68514000Y-66106000D01*
X83820000Y-74930000D02*
X83820000Y-72390000D01*
X83820000Y-72390000D02*
X86360000Y-69850000D01*
X86360000Y-69850000D02*
X86360000Y-67310000D01*
D26*
%TO.N,RGND8*%
X164465000Y-101854000D02*
X174371000Y-101854000D01*
X175373000Y-100852000D02*
X177659000Y-100852000D01*
X174371000Y-101854000D02*
X175373000Y-100852000D01*
X178659000Y-101852000D02*
X178911000Y-101852000D01*
X177659000Y-100852000D02*
X178659000Y-101852000D01*
X162489001Y-100678999D02*
X159798001Y-100678999D01*
X163664002Y-101854000D02*
X162489001Y-100678999D01*
X164465000Y-101854000D02*
X163664002Y-101854000D01*
X158623000Y-101854000D02*
X157353000Y-101854000D01*
X159798001Y-100678999D02*
X158623000Y-101854000D01*
%TO.N,RGND7*%
X163100001Y-97949001D02*
X158971999Y-97949001D01*
X164465000Y-99314000D02*
X163100001Y-97949001D01*
X157607000Y-99314000D02*
X157353000Y-99314000D01*
X158971999Y-97949001D02*
X157607000Y-99314000D01*
X164465000Y-99314000D02*
X174625000Y-99314000D01*
X175087000Y-98852000D02*
X177881000Y-98852000D01*
X174625000Y-99314000D02*
X175087000Y-98852000D01*
X178881000Y-99852000D02*
X178911000Y-99852000D01*
X177881000Y-98852000D02*
X178881000Y-99852000D01*
%TO.N,RGND6*%
X163664002Y-96774000D02*
X162394002Y-95504000D01*
X164465000Y-96774000D02*
X163664002Y-96774000D01*
X158623000Y-95504000D02*
X157353000Y-96774000D01*
X162394002Y-95504000D02*
X158623000Y-95504000D01*
X164543000Y-96852000D02*
X177751000Y-96852000D01*
X164465000Y-96774000D02*
X164543000Y-96852000D01*
X178751000Y-97852000D02*
X178911000Y-97852000D01*
X177751000Y-96852000D02*
X178751000Y-97852000D01*
%TO.N,RGND5*%
X164465000Y-94234000D02*
X171577000Y-94234000D01*
X171577000Y-94234000D02*
X171831000Y-94488000D01*
X171831000Y-94488000D02*
X175387000Y-94488000D01*
X175751000Y-94852000D02*
X177783000Y-94852000D01*
X175387000Y-94488000D02*
X175751000Y-94852000D01*
X178783000Y-95852000D02*
X178911000Y-95852000D01*
X177783000Y-94852000D02*
X178783000Y-95852000D01*
X162338001Y-92869001D02*
X159544001Y-92869001D01*
X163703000Y-94234000D02*
X162338001Y-92869001D01*
X164465000Y-94234000D02*
X163703000Y-94234000D01*
X158179002Y-94234000D02*
X157353000Y-94234000D01*
X159544001Y-92869001D02*
X158179002Y-94234000D01*
%TO.N,RGND4*%
X164465000Y-91694000D02*
X171577000Y-91694000D01*
X172735000Y-92852000D02*
X177815000Y-92852000D01*
X171577000Y-91694000D02*
X172735000Y-92852000D01*
X178815000Y-93852000D02*
X178911000Y-93852000D01*
X177815000Y-92852000D02*
X178815000Y-93852000D01*
X162394002Y-90424000D02*
X159385000Y-90424000D01*
X163664002Y-91694000D02*
X162394002Y-90424000D01*
X164465000Y-91694000D02*
X163664002Y-91694000D01*
X158115000Y-91694000D02*
X157353000Y-91694000D01*
X159385000Y-90424000D02*
X158115000Y-91694000D01*
%TO.N,RGND3*%
X178847000Y-91852000D02*
X178911000Y-91852000D01*
X177847000Y-90852000D02*
X178847000Y-91852000D01*
X173529000Y-90852000D02*
X177847000Y-90852000D01*
X171831000Y-89154000D02*
X173529000Y-90852000D01*
X164465000Y-89154000D02*
X171831000Y-89154000D01*
X162489001Y-87978999D02*
X159290001Y-87978999D01*
X163664002Y-89154000D02*
X162489001Y-87978999D01*
X164465000Y-89154000D02*
X163664002Y-89154000D01*
X158115000Y-89154000D02*
X157353000Y-89154000D01*
X159290001Y-87978999D02*
X158115000Y-89154000D01*
%TO.N,RGND2*%
X157353000Y-86614000D02*
X158623000Y-86614000D01*
X158623000Y-86614000D02*
X159893000Y-85344000D01*
X162394002Y-85344000D02*
X163195000Y-86144998D01*
X159893000Y-85344000D02*
X162394002Y-85344000D01*
X163995998Y-86144998D02*
X164465000Y-86614000D01*
X163195000Y-86144998D02*
X163995998Y-86144998D01*
X177911000Y-88852000D02*
X173815000Y-88852000D01*
X178911000Y-89852000D02*
X177911000Y-88852000D01*
X171577000Y-86614000D02*
X164465000Y-86614000D01*
X173815000Y-88852000D02*
X171577000Y-86614000D01*
D22*
%TO.N,RGND1*%
X159823001Y-82873999D02*
X162501001Y-82873999D01*
X163701002Y-84074000D02*
X164465000Y-84074000D01*
X162501001Y-82873999D02*
X163701002Y-84074000D01*
D26*
X157353000Y-84074000D02*
X158623000Y-84074000D01*
X158623000Y-84074000D02*
X159893000Y-82804000D01*
X179229000Y-87852000D02*
X178911000Y-87852000D01*
D22*
X178911000Y-87852000D02*
X179800500Y-87852000D01*
X179800500Y-87852000D02*
X180530500Y-87122000D01*
X180530500Y-87122000D02*
X180530500Y-84518500D01*
X180530500Y-84518500D02*
X180467000Y-84455000D01*
X180467000Y-84455000D02*
X180467000Y-82677000D01*
X180467000Y-82677000D02*
X179578000Y-81788000D01*
X179578000Y-81788000D02*
X172656500Y-81788000D01*
X172656500Y-81788000D02*
X172656500Y-81788000D01*
X164465000Y-84074000D02*
X172529500Y-84074000D01*
X172529500Y-84074000D02*
X172656500Y-83947000D01*
X172656500Y-83947000D02*
X172656500Y-83947000D01*
D24*
%TO.N,Net-(D2-Pad2)*%
X203200000Y-67310000D02*
X208280000Y-67310000D01*
D22*
%TO.N,-CS1-DSK*%
X164028997Y-125914001D02*
X168979999Y-125914001D01*
X162688998Y-127254000D02*
X164028997Y-125914001D01*
X161925000Y-127254000D02*
X162688998Y-127254000D01*
X173042000Y-121852000D02*
X176911000Y-121852000D01*
X168979999Y-125914001D02*
X173042000Y-121852000D01*
D23*
X78740000Y-104140000D02*
X96520000Y-104140000D01*
D24*
X96520000Y-104140000D02*
X97790000Y-104140000D01*
X100330000Y-104140000D02*
X101600000Y-105410000D01*
X101600000Y-105410000D02*
X101600000Y-118110000D01*
X101600000Y-118110000D02*
X102870000Y-119380000D01*
X102870000Y-119380000D02*
X144780000Y-119380000D01*
D23*
X144780000Y-119380000D02*
X144780000Y-119380000D01*
D24*
X156845000Y-119380000D02*
X156845000Y-127000000D01*
X156845000Y-127000000D02*
X156845000Y-127000000D01*
D22*
X100330000Y-104140000D02*
X96520000Y-104140000D01*
%TO.N,Net-(D2-Pad1)*%
X163125001Y-128593999D02*
X168586001Y-128593999D01*
X161925000Y-129794000D02*
X163125001Y-128593999D01*
X173328000Y-123852000D02*
X176911000Y-123852000D01*
X168586001Y-128593999D02*
X173328000Y-123852000D01*
D24*
X161925000Y-129794000D02*
X161925000Y-130937000D01*
X161925000Y-130937000D02*
X163068000Y-132080000D01*
X163068000Y-132080000D02*
X177038000Y-132080000D01*
X214503000Y-130048000D02*
X214503000Y-126873000D01*
X212471000Y-132080000D02*
X214503000Y-130048000D01*
X214503000Y-127508000D02*
X214503000Y-126873000D01*
X185039000Y-132080000D02*
X212471000Y-132080000D01*
X213995000Y-67310000D02*
X212090000Y-67310000D01*
X214503000Y-126873000D02*
X214503000Y-67818000D01*
X214503000Y-67818000D02*
X213995000Y-67310000D01*
X212090000Y-67310000D02*
X210820000Y-67310000D01*
X212725000Y-67310000D02*
X212090000Y-67310000D01*
D22*
%TO.N,Net-(U2-Pad5)*%
X88900000Y-74930000D02*
X88900000Y-78740000D01*
%TO.N,Net-(U3-Pad3)*%
X83820000Y-86360000D02*
X83820000Y-85090000D01*
X83820000Y-85090000D02*
X85090000Y-83820000D01*
X85090000Y-83820000D02*
X87630000Y-83820000D01*
X87630000Y-83820000D02*
X88900000Y-85090000D01*
X88900000Y-85090000D02*
X88900000Y-86360000D01*
%TO.N,Net-(J4-Pad7)*%
X86360000Y-106680000D02*
X86360000Y-107696000D01*
X88900000Y-110236000D02*
X88900000Y-110490000D01*
X86360000Y-107696000D02*
X88900000Y-110236000D01*
%TO.N,Net-(J4-Pad5)*%
X83820000Y-106680000D02*
X83820000Y-107823000D01*
X86360000Y-110363000D02*
X86360000Y-110490000D01*
X83820000Y-107823000D02*
X86360000Y-110363000D01*
%TO.N,Net-(J4-Pad3)*%
X81280000Y-106680000D02*
X81280000Y-107950000D01*
X81280000Y-107950000D02*
X83820000Y-110490000D01*
%TO.N,Net-(J4-Pad1)*%
X78740000Y-107950000D02*
X81280000Y-110490000D01*
X78740000Y-106680000D02*
X78740000Y-107950000D01*
%TO.N,Net-(J4-Pad15)*%
X97790000Y-114300000D02*
X95250000Y-114300000D01*
X95250000Y-114300000D02*
X93980000Y-115570000D01*
X93980000Y-115570000D02*
X93980000Y-118110000D01*
X96520000Y-106680000D02*
X98044000Y-106680000D01*
X98933000Y-107569000D02*
X98933000Y-113157000D01*
X98044000Y-106680000D02*
X98933000Y-107569000D01*
X98933000Y-113157000D02*
X97790000Y-114300000D01*
X99060000Y-113030000D02*
X98933000Y-113157000D01*
%TO.N,Net-(J4-Pad13)*%
X93980000Y-106680000D02*
X93980000Y-107315000D01*
X96520000Y-109855000D02*
X96520000Y-110490000D01*
X93980000Y-107315000D02*
X96520000Y-109855000D01*
%TO.N,Net-(J4-Pad11)*%
X91440000Y-106680000D02*
X91440000Y-107696000D01*
X93980000Y-110236000D02*
X93980000Y-110490000D01*
X91440000Y-107696000D02*
X93980000Y-110236000D01*
%TO.N,Net-(J4-Pad9)*%
X88900000Y-106680000D02*
X88900000Y-107696000D01*
X91440000Y-110236000D02*
X91440000Y-110490000D01*
X88900000Y-107696000D02*
X91440000Y-110236000D01*
D24*
%TO.N,IORD\u002A*%
X163175001Y-110763999D02*
X174605001Y-110763999D01*
X161925000Y-112014000D02*
X163175001Y-110763999D01*
X175517000Y-109852000D02*
X176911000Y-109852000D01*
X174605001Y-110763999D02*
X175517000Y-109852000D01*
D22*
X93980000Y-78740000D02*
X100330000Y-78740000D01*
X100330000Y-78740000D02*
X102235000Y-80645000D01*
X144780000Y-83185000D02*
X142240000Y-80645000D01*
X144780000Y-112014000D02*
X144780000Y-83185000D01*
X102235000Y-80645000D02*
X142240000Y-80645000D01*
D24*
%TO.N,IOWR\u002A*%
X176539001Y-108223999D02*
X176911000Y-107852000D01*
X163175001Y-108223999D02*
X176539001Y-108223999D01*
X161925000Y-109474000D02*
X163175001Y-108223999D01*
D22*
X143510000Y-110490000D02*
X104140000Y-110490000D01*
X104140000Y-110490000D02*
X102870000Y-109220000D01*
X102870000Y-109220000D02*
X102870000Y-91440000D01*
X102870000Y-91440000D02*
X101600000Y-90170000D01*
X101600000Y-90170000D02*
X92710000Y-90170000D01*
X92710000Y-90170000D02*
X91440000Y-88900000D01*
X91440000Y-88900000D02*
X91440000Y-86360000D01*
D24*
%TO.N,IEO*%
X67453000Y-99126000D02*
X68641000Y-99126000D01*
X70231000Y-97536000D02*
X72263000Y-97536000D01*
X68641000Y-99126000D02*
X70231000Y-97536000D01*
%TO.N,IEI*%
X72037999Y-100301001D02*
X72263000Y-100076000D01*
X66322999Y-100301001D02*
X72037999Y-100301001D01*
X65659000Y-100965000D02*
X66322999Y-100301001D01*
X65659000Y-110490000D02*
X65659000Y-100965000D01*
X66995000Y-111826000D02*
X65659000Y-110490000D01*
X67453000Y-111826000D02*
X66995000Y-111826000D01*
%TD*%
M02*
