%TF.GenerationSoftware,KiCad,Pcbnew,(5.1.12)-1*%
%TF.CreationDate,2026-03-17T11:36:50+01:00*%
%TF.ProjectId,OUT-80,4f55542d-3830-42e6-9b69-6361645f7063,rev?*%
%TF.SameCoordinates,Original*%
%TF.FileFunction,Soldermask,Bot*%
%TF.FilePolarity,Negative*%
%FSLAX46Y46*%
G04 Gerber Fmt 4.6, Leading zero omitted, Abs format (unit mm)*
G04 Created by KiCad (PCBNEW (5.1.12)-1) date 2026-03-17 11:36:50*
%MOMM*%
%LPD*%
G01*
G04 APERTURE LIST*
%ADD10C,1.600000*%
%ADD11C,4.000000*%
%ADD12R,1.600000X1.600000*%
%ADD13O,1.700000X1.700000*%
%ADD14R,1.700000X1.700000*%
%ADD15O,1.600000X1.600000*%
%ADD16C,1.800000*%
%ADD17R,1.800000X1.800000*%
%ADD18C,2.000000*%
%ADD19C,1.550000*%
%ADD20C,2.850000*%
%ADD21C,1.500000*%
G04 APERTURE END LIST*
D10*
%TO.C,.*%
X172720000Y-85090000D03*
%TD*%
%TO.C,.*%
X170180000Y-85090000D03*
%TD*%
%TO.C,.*%
X167640000Y-85090000D03*
%TD*%
%TO.C,.*%
X165100000Y-85090000D03*
%TD*%
%TO.C,.*%
X162560000Y-85090000D03*
%TD*%
%TO.C,.*%
X160020000Y-85090000D03*
%TD*%
%TO.C,.*%
X157480000Y-85090000D03*
%TD*%
%TO.C,.*%
X154940000Y-85090000D03*
%TD*%
%TO.C,.*%
X152400000Y-85090000D03*
%TD*%
%TO.C,.*%
X149860000Y-85090000D03*
%TD*%
%TO.C,.*%
X147320000Y-85090000D03*
%TD*%
%TO.C,.*%
X144780000Y-85090000D03*
%TD*%
%TO.C,.*%
X142240000Y-85090000D03*
%TD*%
%TO.C,.*%
X139700000Y-85090000D03*
%TD*%
%TO.C,.*%
X137160000Y-85090000D03*
%TD*%
%TO.C,.*%
X134620000Y-85090000D03*
%TD*%
%TO.C,.*%
X172720000Y-82550000D03*
%TD*%
%TO.C,.*%
X170180000Y-82550000D03*
%TD*%
%TO.C,.*%
X167640000Y-82550000D03*
%TD*%
%TO.C,.*%
X165100000Y-82550000D03*
%TD*%
%TO.C,.*%
X162560000Y-82550000D03*
%TD*%
%TO.C,.*%
X160020000Y-82550000D03*
%TD*%
%TO.C,.*%
X157480000Y-82550000D03*
%TD*%
%TO.C,.*%
X154940000Y-82550000D03*
%TD*%
%TO.C,.*%
X152400000Y-82550000D03*
%TD*%
%TO.C,.*%
X149860000Y-82550000D03*
%TD*%
%TO.C,.*%
X147320000Y-82550000D03*
%TD*%
%TO.C,.*%
X144780000Y-82550000D03*
%TD*%
%TO.C,.*%
X142240000Y-82550000D03*
%TD*%
%TO.C,.*%
X139700000Y-82550000D03*
%TD*%
%TO.C,.*%
X137160000Y-82550000D03*
%TD*%
%TO.C,.*%
X134620000Y-82550000D03*
%TD*%
%TO.C,.*%
X172720000Y-80010000D03*
%TD*%
%TO.C,.*%
X170180000Y-80010000D03*
%TD*%
%TO.C,.*%
X167640000Y-80010000D03*
%TD*%
%TO.C,.*%
X165100000Y-80010000D03*
%TD*%
%TO.C,.*%
X162560000Y-80010000D03*
%TD*%
%TO.C,.*%
X160020000Y-80010000D03*
%TD*%
%TO.C,.*%
X157480000Y-80010000D03*
%TD*%
%TO.C,.*%
X154940000Y-80010000D03*
%TD*%
%TO.C,.*%
X152400000Y-80010000D03*
%TD*%
%TO.C,.*%
X149860000Y-80010000D03*
%TD*%
%TO.C,.*%
X147320000Y-80010000D03*
%TD*%
%TO.C,.*%
X144780000Y-80010000D03*
%TD*%
%TO.C,.*%
X142240000Y-80010000D03*
%TD*%
%TO.C,.*%
X139700000Y-80010000D03*
%TD*%
%TO.C,.*%
X137160000Y-80010000D03*
%TD*%
%TO.C,.*%
X134620000Y-80010000D03*
%TD*%
%TO.C,.*%
X172720000Y-77470000D03*
%TD*%
%TO.C,.*%
X170180000Y-77470000D03*
%TD*%
%TO.C,.*%
X167640000Y-77470000D03*
%TD*%
%TO.C,.*%
X165100000Y-77470000D03*
%TD*%
%TO.C,.*%
X162560000Y-77470000D03*
%TD*%
%TO.C,.*%
X160020000Y-77470000D03*
%TD*%
%TO.C,.*%
X157480000Y-77470000D03*
%TD*%
%TO.C,.*%
X154940000Y-77470000D03*
%TD*%
%TO.C,.*%
X152400000Y-77470000D03*
%TD*%
%TO.C,.*%
X149860000Y-77470000D03*
%TD*%
%TO.C,.*%
X147320000Y-77470000D03*
%TD*%
%TO.C,.*%
X144780000Y-77470000D03*
%TD*%
%TO.C,.*%
X142240000Y-77470000D03*
%TD*%
%TO.C,.*%
X139700000Y-77470000D03*
%TD*%
%TO.C,.*%
X137160000Y-77470000D03*
%TD*%
%TO.C,.*%
X134620000Y-77470000D03*
%TD*%
%TO.C,.*%
X172720000Y-74930000D03*
%TD*%
%TO.C,.*%
X170180000Y-74930000D03*
%TD*%
%TO.C,.*%
X167640000Y-74930000D03*
%TD*%
%TO.C,.*%
X165100000Y-74930000D03*
%TD*%
%TO.C,.*%
X162560000Y-74930000D03*
%TD*%
%TO.C,.*%
X160020000Y-74930000D03*
%TD*%
%TO.C,.*%
X157480000Y-74930000D03*
%TD*%
%TO.C,.*%
X154940000Y-74930000D03*
%TD*%
%TO.C,.*%
X152400000Y-74930000D03*
%TD*%
%TO.C,.*%
X149860000Y-74930000D03*
%TD*%
%TO.C,.*%
X147320000Y-74930000D03*
%TD*%
%TO.C,.*%
X144780000Y-74930000D03*
%TD*%
%TO.C,.*%
X142240000Y-74930000D03*
%TD*%
%TO.C,.*%
X139700000Y-74930000D03*
%TD*%
%TO.C,.*%
X137160000Y-74930000D03*
%TD*%
%TO.C,.*%
X134620000Y-74930000D03*
%TD*%
%TO.C,.*%
X172720000Y-72390000D03*
%TD*%
%TO.C,.*%
X170180000Y-72390000D03*
%TD*%
%TO.C,.*%
X167640000Y-72390000D03*
%TD*%
%TO.C,.*%
X165100000Y-72390000D03*
%TD*%
%TO.C,.*%
X162560000Y-72390000D03*
%TD*%
%TO.C,.*%
X160020000Y-72390000D03*
%TD*%
%TO.C,.*%
X157480000Y-72390000D03*
%TD*%
%TO.C,.*%
X154940000Y-72390000D03*
%TD*%
%TO.C,.*%
X152400000Y-72390000D03*
%TD*%
%TO.C,.*%
X149860000Y-72390000D03*
%TD*%
%TO.C,.*%
X147320000Y-72390000D03*
%TD*%
%TO.C,.*%
X144780000Y-72390000D03*
%TD*%
%TO.C,.*%
X142240000Y-72390000D03*
%TD*%
%TO.C,.*%
X139700000Y-72390000D03*
%TD*%
%TO.C,.*%
X137160000Y-72390000D03*
%TD*%
%TO.C,.*%
X134620000Y-72390000D03*
%TD*%
%TO.C,.*%
X172720000Y-69850000D03*
%TD*%
%TO.C,.*%
X170180000Y-69850000D03*
%TD*%
%TO.C,.*%
X167640000Y-69850000D03*
%TD*%
%TO.C,.*%
X165100000Y-69850000D03*
%TD*%
%TO.C,.*%
X162560000Y-69850000D03*
%TD*%
%TO.C,.*%
X160020000Y-69850000D03*
%TD*%
%TO.C,.*%
X157480000Y-69850000D03*
%TD*%
%TO.C,.*%
X154940000Y-69850000D03*
%TD*%
%TO.C,.*%
X152400000Y-69850000D03*
%TD*%
%TO.C,.*%
X149860000Y-69850000D03*
%TD*%
%TO.C,.*%
X147320000Y-69850000D03*
%TD*%
%TO.C,.*%
X144780000Y-69850000D03*
%TD*%
%TO.C,.*%
X142240000Y-69850000D03*
%TD*%
%TO.C,.*%
X139700000Y-69850000D03*
%TD*%
%TO.C,.*%
X137160000Y-69850000D03*
%TD*%
%TO.C,.*%
X134620000Y-69850000D03*
%TD*%
%TO.C,.*%
X172720000Y-67310000D03*
%TD*%
%TO.C,.*%
X170180000Y-67310000D03*
%TD*%
%TO.C,.*%
X167640000Y-67310000D03*
%TD*%
%TO.C,.*%
X165100000Y-67310000D03*
%TD*%
%TO.C,.*%
X162560000Y-67310000D03*
%TD*%
%TO.C,.*%
X160020000Y-67310000D03*
%TD*%
%TO.C,.*%
X157480000Y-67310000D03*
%TD*%
%TO.C,.*%
X154940000Y-67310000D03*
%TD*%
%TO.C,.*%
X152400000Y-67310000D03*
%TD*%
%TO.C,.*%
X149860000Y-67310000D03*
%TD*%
%TO.C,.*%
X147320000Y-67310000D03*
%TD*%
%TO.C,.*%
X144780000Y-67310000D03*
%TD*%
%TO.C,.*%
X142240000Y-67310000D03*
%TD*%
%TO.C,.*%
X139700000Y-67310000D03*
%TD*%
%TO.C,.*%
X137160000Y-67310000D03*
%TD*%
%TO.C,.*%
X134620000Y-67310000D03*
%TD*%
%TO.C,.*%
X172720000Y-64770000D03*
%TD*%
%TO.C,.*%
X170180000Y-64770000D03*
%TD*%
%TO.C,.*%
X167640000Y-64770000D03*
%TD*%
%TO.C,.*%
X165100000Y-64770000D03*
%TD*%
%TO.C,.*%
X162560000Y-64770000D03*
%TD*%
%TO.C,.*%
X160020000Y-64770000D03*
%TD*%
%TO.C,.*%
X157480000Y-64770000D03*
%TD*%
%TO.C,.*%
X154940000Y-64770000D03*
%TD*%
%TO.C,.*%
X152400000Y-64770000D03*
%TD*%
%TO.C,.*%
X149860000Y-64770000D03*
%TD*%
%TO.C,.*%
X147320000Y-64770000D03*
%TD*%
%TO.C,.*%
X144780000Y-64770000D03*
%TD*%
%TO.C,.*%
X142240000Y-64770000D03*
%TD*%
%TO.C,.*%
X139700000Y-64770000D03*
%TD*%
%TO.C,.*%
X137160000Y-64770000D03*
%TD*%
%TO.C,.*%
X134620000Y-64770000D03*
%TD*%
%TO.C,.*%
X172720000Y-62230000D03*
%TD*%
%TO.C,.*%
X170180000Y-62230000D03*
%TD*%
%TO.C,.*%
X167640000Y-62230000D03*
%TD*%
%TO.C,.*%
X165100000Y-62230000D03*
%TD*%
%TO.C,.*%
X162560000Y-62230000D03*
%TD*%
%TO.C,.*%
X160020000Y-62230000D03*
%TD*%
%TO.C,.*%
X157480000Y-62230000D03*
%TD*%
%TO.C,.*%
X154940000Y-62230000D03*
%TD*%
%TO.C,.*%
X152400000Y-62230000D03*
%TD*%
%TO.C,.*%
X149860000Y-62230000D03*
%TD*%
%TO.C,.*%
X147320000Y-62230000D03*
%TD*%
%TO.C,.*%
X144780000Y-62230000D03*
%TD*%
%TO.C,.*%
X142240000Y-62230000D03*
%TD*%
%TO.C,.*%
X139700000Y-62230000D03*
%TD*%
%TO.C,.*%
X137160000Y-62230000D03*
%TD*%
%TO.C,.*%
X134620000Y-62230000D03*
%TD*%
%TO.C,.*%
X172720000Y-59690000D03*
%TD*%
%TO.C,.*%
X170180000Y-59690000D03*
%TD*%
%TO.C,.*%
X167640000Y-59690000D03*
%TD*%
%TO.C,.*%
X165100000Y-59690000D03*
%TD*%
%TO.C,.*%
X162560000Y-59690000D03*
%TD*%
%TO.C,.*%
X160020000Y-59690000D03*
%TD*%
%TO.C,.*%
X157480000Y-59690000D03*
%TD*%
%TO.C,.*%
X154940000Y-59690000D03*
%TD*%
%TO.C,.*%
X152400000Y-59690000D03*
%TD*%
%TO.C,.*%
X149860000Y-59690000D03*
%TD*%
%TO.C,.*%
X147320000Y-59690000D03*
%TD*%
%TO.C,.*%
X144780000Y-59690000D03*
%TD*%
%TO.C,.*%
X142240000Y-59690000D03*
%TD*%
%TO.C,.*%
X139700000Y-59690000D03*
%TD*%
%TO.C,.*%
X137160000Y-59690000D03*
%TD*%
%TO.C,.*%
X134620000Y-59690000D03*
%TD*%
%TO.C,.*%
X172720000Y-57150000D03*
%TD*%
%TO.C,.*%
X170180000Y-57150000D03*
%TD*%
%TO.C,.*%
X167640000Y-57150000D03*
%TD*%
%TO.C,.*%
X165100000Y-57150000D03*
%TD*%
%TO.C,.*%
X162560000Y-57150000D03*
%TD*%
%TO.C,.*%
X160020000Y-57150000D03*
%TD*%
%TO.C,.*%
X157480000Y-57150000D03*
%TD*%
%TO.C,.*%
X154940000Y-57150000D03*
%TD*%
%TO.C,.*%
X152400000Y-57150000D03*
%TD*%
%TO.C,.*%
X149860000Y-57150000D03*
%TD*%
%TO.C,.*%
X147320000Y-57150000D03*
%TD*%
%TO.C,.*%
X144780000Y-57150000D03*
%TD*%
%TO.C,.*%
X142240000Y-57150000D03*
%TD*%
%TO.C,.*%
X139700000Y-57150000D03*
%TD*%
%TO.C,.*%
X137160000Y-57150000D03*
%TD*%
%TO.C,.*%
X134620000Y-57150000D03*
%TD*%
%TO.C,.*%
X172720000Y-54610000D03*
%TD*%
%TO.C,.*%
X170180000Y-54610000D03*
%TD*%
%TO.C,.*%
X167640000Y-54610000D03*
%TD*%
%TO.C,.*%
X165100000Y-54610000D03*
%TD*%
%TO.C,.*%
X162560000Y-54610000D03*
%TD*%
%TO.C,.*%
X160020000Y-54610000D03*
%TD*%
%TO.C,.*%
X157480000Y-54610000D03*
%TD*%
%TO.C,.*%
X154940000Y-54610000D03*
%TD*%
%TO.C,.*%
X152400000Y-54610000D03*
%TD*%
%TO.C,.*%
X149860000Y-54610000D03*
%TD*%
%TO.C,.*%
X147320000Y-54610000D03*
%TD*%
%TO.C,.*%
X144780000Y-54610000D03*
%TD*%
%TO.C,.*%
X142240000Y-54610000D03*
%TD*%
%TO.C,.*%
X139700000Y-54610000D03*
%TD*%
%TO.C,.*%
X137160000Y-54610000D03*
%TD*%
%TO.C,.*%
X134620000Y-54610000D03*
%TD*%
%TO.C,.*%
X172720000Y-52070000D03*
%TD*%
%TO.C,.*%
X170180000Y-52070000D03*
%TD*%
%TO.C,.*%
X167640000Y-52070000D03*
%TD*%
%TO.C,.*%
X165100000Y-52070000D03*
%TD*%
%TO.C,.*%
X162560000Y-52070000D03*
%TD*%
%TO.C,.*%
X160020000Y-52070000D03*
%TD*%
%TO.C,.*%
X157480000Y-52070000D03*
%TD*%
%TO.C,.*%
X154940000Y-52070000D03*
%TD*%
%TO.C,.*%
X152400000Y-52070000D03*
%TD*%
%TO.C,.*%
X149860000Y-52070000D03*
%TD*%
%TO.C,.*%
X147320000Y-52070000D03*
%TD*%
%TO.C,.*%
X144780000Y-52070000D03*
%TD*%
%TO.C,.*%
X142240000Y-52070000D03*
%TD*%
%TO.C,.*%
X139700000Y-52070000D03*
%TD*%
%TO.C,.*%
X137160000Y-52070000D03*
%TD*%
%TO.C,.*%
X134620000Y-52070000D03*
%TD*%
%TO.C,.*%
X172720000Y-49530000D03*
%TD*%
%TO.C,.*%
X170180000Y-49530000D03*
%TD*%
%TO.C,.*%
X167640000Y-49530000D03*
%TD*%
%TO.C,.*%
X165100000Y-49530000D03*
%TD*%
%TO.C,.*%
X162560000Y-49530000D03*
%TD*%
%TO.C,.*%
X160020000Y-49530000D03*
%TD*%
%TO.C,.*%
X157480000Y-49530000D03*
%TD*%
%TO.C,.*%
X154940000Y-49530000D03*
%TD*%
%TO.C,.*%
X152400000Y-49530000D03*
%TD*%
%TO.C,.*%
X149860000Y-49530000D03*
%TD*%
%TO.C,.*%
X147320000Y-49530000D03*
%TD*%
%TO.C,.*%
X144780000Y-49530000D03*
%TD*%
%TO.C,.*%
X142240000Y-49530000D03*
%TD*%
%TO.C,.*%
X139700000Y-49530000D03*
%TD*%
%TO.C,.*%
X137160000Y-49530000D03*
%TD*%
%TO.C,.*%
X134620000Y-49530000D03*
%TD*%
D11*
%TO.C,J2*%
X200920000Y-56460000D03*
X200920000Y-81460000D03*
D10*
X202340000Y-64805000D03*
X202340000Y-67575000D03*
X202340000Y-70345000D03*
X202340000Y-73115000D03*
X199500000Y-63420000D03*
X199500000Y-66190000D03*
X199500000Y-68960000D03*
X199500000Y-71730000D03*
D12*
X199500000Y-74500000D03*
%TD*%
D13*
%TO.C,JA1*%
X194500000Y-81040000D03*
D14*
X194500000Y-78500000D03*
%TD*%
D11*
%TO.C,J5*%
X200920000Y-98250000D03*
X200920000Y-123250000D03*
D10*
X202340000Y-106595000D03*
X202340000Y-109365000D03*
X202340000Y-112135000D03*
X202340000Y-114905000D03*
X199500000Y-105210000D03*
X199500000Y-107980000D03*
X199500000Y-110750000D03*
X199500000Y-113520000D03*
D12*
X199500000Y-116290000D03*
%TD*%
D15*
%TO.C,R5*%
X101700000Y-70414000D03*
D10*
X91540000Y-70414000D03*
%TD*%
D15*
%TO.C,R4*%
X101660000Y-67000000D03*
D10*
X91500000Y-67000000D03*
%TD*%
D16*
%TO.C,LED2*%
X97282000Y-87376000D03*
D17*
X97282000Y-89916000D03*
%TD*%
D16*
%TO.C,LED1*%
X97282000Y-81026000D03*
D17*
X97282000Y-83566000D03*
%TD*%
D10*
%TO.C,C13*%
X180000000Y-103500000D03*
D12*
X180000000Y-106000000D03*
%TD*%
D15*
%TO.C,U6*%
X107260000Y-125750000D03*
X122500000Y-77490000D03*
X107260000Y-123210000D03*
X122500000Y-80030000D03*
X107260000Y-120670000D03*
X122500000Y-82570000D03*
X107260000Y-118130000D03*
X122500000Y-85110000D03*
X107260000Y-115590000D03*
X122500000Y-87650000D03*
X107260000Y-113050000D03*
X122500000Y-90190000D03*
X107260000Y-110510000D03*
X122500000Y-92730000D03*
X107260000Y-107970000D03*
X122500000Y-95270000D03*
X107260000Y-105430000D03*
X122500000Y-97810000D03*
X107260000Y-102890000D03*
X122500000Y-100350000D03*
X107260000Y-100350000D03*
X122500000Y-102890000D03*
X107260000Y-97810000D03*
X122500000Y-105430000D03*
X107260000Y-95270000D03*
X122500000Y-107970000D03*
X107260000Y-92730000D03*
X122500000Y-110510000D03*
X107260000Y-90190000D03*
X122500000Y-113050000D03*
X107260000Y-87650000D03*
X122500000Y-115590000D03*
X107260000Y-85110000D03*
X122500000Y-118130000D03*
X107260000Y-82570000D03*
X122500000Y-120670000D03*
X107260000Y-80030000D03*
X122500000Y-123210000D03*
X107260000Y-77490000D03*
D12*
X122500000Y-125750000D03*
%TD*%
D10*
%TO.C,C8*%
X180000000Y-58000000D03*
D12*
X180000000Y-55500000D03*
%TD*%
D13*
%TO.C,JB1*%
X194500000Y-119040000D03*
D14*
X194500000Y-116500000D03*
%TD*%
D15*
%TO.C,U7*%
X193870000Y-55250000D03*
X186250000Y-73030000D03*
X193870000Y-57790000D03*
X186250000Y-70490000D03*
X193870000Y-60330000D03*
X186250000Y-67950000D03*
X193870000Y-62870000D03*
X186250000Y-65410000D03*
X193870000Y-65410000D03*
X186250000Y-62870000D03*
X193870000Y-67950000D03*
X186250000Y-60330000D03*
X193870000Y-70490000D03*
X186250000Y-57790000D03*
X193870000Y-73030000D03*
D12*
X186250000Y-55250000D03*
%TD*%
D13*
%TO.C,SIOB1*%
X107696000Y-71750000D03*
D14*
X110236000Y-71750000D03*
%TD*%
D13*
%TO.C,SIOA1*%
X119253000Y-71750000D03*
D14*
X121793000Y-71750000D03*
%TD*%
D15*
%TO.C,R3*%
X126750000Y-113160000D03*
D10*
X126750000Y-103000000D03*
%TD*%
D18*
%TO.C,C19*%
X183000000Y-131000000D03*
X183000000Y-136000000D03*
%TD*%
D13*
%TO.C,J4*%
X139520000Y-104040000D03*
X139520000Y-101500000D03*
X142060000Y-104040000D03*
X142060000Y-101500000D03*
X144600000Y-104040000D03*
X144600000Y-101500000D03*
X147140000Y-104040000D03*
X147140000Y-101500000D03*
X149680000Y-104040000D03*
X149680000Y-101500000D03*
X152220000Y-104040000D03*
X152220000Y-101500000D03*
X154760000Y-104040000D03*
X154760000Y-101500000D03*
X157300000Y-104040000D03*
X157300000Y-101500000D03*
X159840000Y-104040000D03*
X159840000Y-101500000D03*
X162380000Y-104040000D03*
X162380000Y-101500000D03*
X164920000Y-104040000D03*
X164920000Y-101500000D03*
X167460000Y-104040000D03*
X167460000Y-101500000D03*
X170000000Y-104040000D03*
D14*
X170000000Y-101500000D03*
%TD*%
D15*
%TO.C,U9*%
X134500000Y-110760000D03*
X182760000Y-126000000D03*
X137040000Y-110760000D03*
X180220000Y-126000000D03*
X139580000Y-110760000D03*
X177680000Y-126000000D03*
X142120000Y-110760000D03*
X175140000Y-126000000D03*
X144660000Y-110760000D03*
X172600000Y-126000000D03*
X147200000Y-110760000D03*
X170060000Y-126000000D03*
X149740000Y-110760000D03*
X167520000Y-126000000D03*
X152280000Y-110760000D03*
X164980000Y-126000000D03*
X154820000Y-110760000D03*
X162440000Y-126000000D03*
X157360000Y-110760000D03*
X159900000Y-126000000D03*
X159900000Y-110760000D03*
X157360000Y-126000000D03*
X162440000Y-110760000D03*
X154820000Y-126000000D03*
X164980000Y-110760000D03*
X152280000Y-126000000D03*
X167520000Y-110760000D03*
X149740000Y-126000000D03*
X170060000Y-110760000D03*
X147200000Y-126000000D03*
X172600000Y-110760000D03*
X144660000Y-126000000D03*
X175140000Y-110760000D03*
X142120000Y-126000000D03*
X177680000Y-110760000D03*
X139580000Y-126000000D03*
X180220000Y-110760000D03*
X137040000Y-126000000D03*
X182760000Y-110760000D03*
D12*
X134500000Y-126000000D03*
%TD*%
D15*
%TO.C,SW2*%
X114880000Y-62250000D03*
X122500000Y-49550000D03*
X114880000Y-59710000D03*
X122500000Y-52090000D03*
X114880000Y-57170000D03*
X122500000Y-54630000D03*
X114880000Y-54630000D03*
X122500000Y-57170000D03*
X114880000Y-52090000D03*
X122500000Y-59710000D03*
X114880000Y-49550000D03*
D12*
X122500000Y-62250000D03*
%TD*%
D15*
%TO.C,SW1*%
X100630000Y-62250000D03*
X108250000Y-49550000D03*
X100630000Y-59710000D03*
X108250000Y-52090000D03*
X100630000Y-57170000D03*
X108250000Y-54630000D03*
X100630000Y-54630000D03*
X108250000Y-57170000D03*
X100630000Y-52090000D03*
X108250000Y-59710000D03*
X100630000Y-49550000D03*
D12*
X108250000Y-62250000D03*
%TD*%
D15*
%TO.C,U8*%
X194084759Y-88650000D03*
X186464759Y-106430000D03*
X194084759Y-91190000D03*
X186464759Y-103890000D03*
X194084759Y-93730000D03*
X186464759Y-101350000D03*
X194084759Y-96270000D03*
X186464759Y-98810000D03*
X194084759Y-98810000D03*
X186464759Y-96270000D03*
X194084759Y-101350000D03*
X186464759Y-93730000D03*
X194084759Y-103890000D03*
X186464759Y-91190000D03*
X194084759Y-106430000D03*
D12*
X186464759Y-88650000D03*
%TD*%
D10*
%TO.C,C17*%
X180000000Y-98500000D03*
D12*
X180000000Y-96000000D03*
%TD*%
D10*
%TO.C,C16*%
X187500000Y-47250000D03*
D12*
X187500000Y-49750000D03*
%TD*%
D10*
%TO.C,C15*%
X180000000Y-91000000D03*
D12*
X180000000Y-88500000D03*
%TD*%
D10*
%TO.C,C14*%
X180000000Y-81000000D03*
D12*
X180000000Y-83500000D03*
%TD*%
D10*
%TO.C,C12*%
X201250000Y-91000000D03*
D12*
X201250000Y-88500000D03*
%TD*%
D10*
%TO.C,C11*%
X180000000Y-65500000D03*
D12*
X180000000Y-63000000D03*
%TD*%
D10*
%TO.C,C10*%
X180000000Y-47500000D03*
D12*
X180000000Y-50000000D03*
%TD*%
D10*
%TO.C,C9*%
X180000000Y-70500000D03*
D12*
X180000000Y-73000000D03*
%TD*%
D15*
%TO.C,U3*%
X73250000Y-102380000D03*
X88490000Y-110000000D03*
X75790000Y-102380000D03*
X85950000Y-110000000D03*
X78330000Y-102380000D03*
X83410000Y-110000000D03*
X80870000Y-102380000D03*
X80870000Y-110000000D03*
X83410000Y-102380000D03*
X78330000Y-110000000D03*
X85950000Y-102380000D03*
X75790000Y-110000000D03*
X88490000Y-102380000D03*
D12*
X73250000Y-110000000D03*
%TD*%
D19*
%TO.C,J1*%
X60330000Y-50510000D03*
X60330000Y-53050000D03*
X60330000Y-55590000D03*
X60330000Y-58130000D03*
X60330000Y-60670000D03*
X60330000Y-63210000D03*
X60330000Y-65750000D03*
X60330000Y-68290000D03*
X60330000Y-70830000D03*
X60330000Y-73370000D03*
X60330000Y-75910000D03*
X60330000Y-78450000D03*
X60330000Y-80990000D03*
X60330000Y-83530000D03*
X60330000Y-86070000D03*
X60330000Y-88610000D03*
X60330000Y-91150000D03*
X60330000Y-93690000D03*
X60330000Y-96230000D03*
X60330000Y-98770000D03*
X60330000Y-101310000D03*
X60330000Y-103850000D03*
X60330000Y-106390000D03*
X60330000Y-108930000D03*
X60330000Y-111470000D03*
X60330000Y-114010000D03*
X60330000Y-116550000D03*
X60330000Y-119090000D03*
X60330000Y-121630000D03*
X60330000Y-124170000D03*
X60330000Y-126710000D03*
X60330000Y-129250000D03*
X55250000Y-50510000D03*
X55250000Y-53050000D03*
X55250000Y-55590000D03*
X55250000Y-58130000D03*
X55250000Y-60670000D03*
X55250000Y-63210000D03*
X55250000Y-65750000D03*
X55250000Y-68290000D03*
X55250000Y-70830000D03*
X55250000Y-73370000D03*
X55250000Y-75910000D03*
X55250000Y-78450000D03*
X55250000Y-80990000D03*
X55250000Y-83530000D03*
X55250000Y-86070000D03*
X55250000Y-88610000D03*
X55250000Y-91150000D03*
X55250000Y-93690000D03*
X55250000Y-96230000D03*
X55250000Y-98770000D03*
X55250000Y-101310000D03*
X55250000Y-103850000D03*
X55250000Y-106390000D03*
X55250000Y-108930000D03*
X55250000Y-111470000D03*
X55250000Y-114010000D03*
X55250000Y-116550000D03*
X55250000Y-119090000D03*
X55250000Y-121630000D03*
X55250000Y-124170000D03*
X55250000Y-126710000D03*
G36*
G01*
X55775450Y-130025000D02*
X54724550Y-130025000D01*
G75*
G02*
X54475000Y-129775450I0J249550D01*
G01*
X54475000Y-128724550D01*
G75*
G02*
X54724550Y-128475000I249550J0D01*
G01*
X55775450Y-128475000D01*
G75*
G02*
X56025000Y-128724550I0J-249550D01*
G01*
X56025000Y-129775450D01*
G75*
G02*
X55775450Y-130025000I-249550J0D01*
G01*
G37*
D20*
X52710000Y-45430000D03*
X52710000Y-134330000D03*
%TD*%
D21*
%TO.C,Y1*%
X78250000Y-70400000D03*
X78250000Y-65500000D03*
%TD*%
D15*
%TO.C,U5*%
X73250000Y-117880000D03*
X96110000Y-125500000D03*
X75790000Y-117880000D03*
X93570000Y-125500000D03*
X78330000Y-117880000D03*
X91030000Y-125500000D03*
X80870000Y-117880000D03*
X88490000Y-125500000D03*
X83410000Y-117880000D03*
X85950000Y-125500000D03*
X85950000Y-117880000D03*
X83410000Y-125500000D03*
X88490000Y-117880000D03*
X80870000Y-125500000D03*
X91030000Y-117880000D03*
X78330000Y-125500000D03*
X93570000Y-117880000D03*
X75790000Y-125500000D03*
X96110000Y-117880000D03*
D12*
X73250000Y-125500000D03*
%TD*%
D15*
%TO.C,U4*%
X73000000Y-90380000D03*
X90780000Y-98000000D03*
X75540000Y-90380000D03*
X88240000Y-98000000D03*
X78080000Y-90380000D03*
X85700000Y-98000000D03*
X80620000Y-90380000D03*
X83160000Y-98000000D03*
X83160000Y-90380000D03*
X80620000Y-98000000D03*
X85700000Y-90380000D03*
X78080000Y-98000000D03*
X88240000Y-90380000D03*
X75540000Y-98000000D03*
X90780000Y-90380000D03*
D12*
X73000000Y-98000000D03*
%TD*%
D15*
%TO.C,U2*%
X72500000Y-48880000D03*
X87740000Y-56500000D03*
X75040000Y-48880000D03*
X85200000Y-56500000D03*
X77580000Y-48880000D03*
X82660000Y-56500000D03*
X80120000Y-48880000D03*
X80120000Y-56500000D03*
X82660000Y-48880000D03*
X77580000Y-56500000D03*
X85200000Y-48880000D03*
X75040000Y-56500000D03*
X87740000Y-48880000D03*
D12*
X72500000Y-56500000D03*
%TD*%
D15*
%TO.C,U1*%
X73000000Y-76130000D03*
X88240000Y-83750000D03*
X75540000Y-76130000D03*
X85700000Y-83750000D03*
X78080000Y-76130000D03*
X83160000Y-83750000D03*
X80620000Y-76130000D03*
X80620000Y-83750000D03*
X83160000Y-76130000D03*
X78080000Y-83750000D03*
X85700000Y-76130000D03*
X75540000Y-83750000D03*
X88240000Y-76130000D03*
D12*
X73000000Y-83750000D03*
%TD*%
D15*
%TO.C,R2*%
X83500000Y-62840000D03*
D10*
X83500000Y-73000000D03*
%TD*%
D15*
%TO.C,R1*%
X72750000Y-72910000D03*
D10*
X72750000Y-62750000D03*
%TD*%
D18*
%TO.C,C7*%
X102750000Y-128750000D03*
X102750000Y-133750000D03*
%TD*%
%TO.C,C6*%
X84500000Y-113500000D03*
X79500000Y-113500000D03*
%TD*%
%TO.C,C5*%
X193000000Y-44250000D03*
X193000000Y-49250000D03*
%TD*%
%TO.C,C4*%
X68000000Y-82500000D03*
X68000000Y-77500000D03*
%TD*%
%TO.C,C3*%
X112500000Y-104500000D03*
X117500000Y-104500000D03*
%TD*%
D10*
%TO.C,C2*%
X96000000Y-131250000D03*
D12*
X96000000Y-133750000D03*
%TD*%
D10*
%TO.C,C1*%
X65250000Y-50500000D03*
D12*
X67750000Y-50500000D03*
%TD*%
M02*
