M48
; DRILL file {KiCad (5.1.12)-1} date 03/17/26 11:36:53
; FORMAT={-:-/ absolute / inch / decimal}
; #@! TF.CreationDate,2026-03-17T11:36:53+01:00
; #@! TF.GenerationSoftware,Kicad,Pcbnew,(5.1.12)-1
; #@! TF.FileFunction,Plated,1,2,PTH
FMAT,2
INCH
T1C0.0157
T2C0.0197
T3C0.0315
T4C0.0354
T5C0.0394
T6C0.1260
%
G90
G05
T1
X2.2638Y-3.8583
X2.5197Y-5.1476
X2.5709Y-4.9409
X2.5709Y-5.0689
X2.615Y-4.8886
X2.6181Y-5.1476
X2.6575Y-3.937
X2.6575Y-4.5276
X2.6575Y-4.5768
X2.6575Y-4.685
X2.6673Y-4.8425
X2.6673Y-5.1083
X2.7165Y-3.7894
X2.7165Y-4.8425
X2.8839Y-5.2067
X3.3071Y-3.4843
X3.3268Y-3.3858
X3.5236Y-3.2087
X3.6713Y-4.0945
X3.6713Y-4.3996
X3.7303Y-4.4094
X3.7795Y-4.1634
X3.7795Y-4.5669
X3.8354Y-2.9646
X3.8386Y-3.0512
X3.8386Y-4.5472
X3.922Y-4.6508
X4.69Y-2.965
X5.1575Y-4.4783
X5.4192Y-3.8508
X5.648Y-4.7031
X5.752Y-4.7776
X5.7972Y-4.5571
X5.8425Y-4.8287
X6.7953Y-4.7776
X6.8882Y-4.7031
T2
X2.7854Y-5.3642
X3.2874Y-4.1732
X3.4449Y-4.1732
X4.3134Y-4.3035
X4.3701Y-5.1673
X4.4232Y-4.4035
X4.4291Y-5.1083
X4.4783Y-5.0591
X4.7539Y-5.0591
X4.7539Y-5.1673
X4.7933Y-5.1181
X5.2098Y-4.7508
X5.2165Y-4.439
X5.2937Y-4.8508
X5.3886Y-4.6508
X5.4429Y-4.7736
X5.6972Y-4.598
T3
X2.5689Y-1.9882
X2.6673Y-1.9882
X2.8543Y-1.9244
X2.8543Y-2.2244
X2.8642Y-2.4705
X2.8642Y-2.8705
X2.874Y-2.9972
X2.874Y-3.2972
X2.874Y-3.5583
X2.874Y-3.8583
X2.8839Y-4.0307
X2.8839Y-4.3307
X2.8839Y-4.6409
X2.8839Y-4.9409
X2.9543Y-1.9244
X2.9543Y-2.2244
X2.974Y-2.9972
X2.974Y-3.2972
X2.974Y-3.5583
X2.974Y-3.8583
X2.9839Y-4.0307
X2.9839Y-4.3307
X2.9839Y-4.6409
X2.9839Y-4.9409
X3.0543Y-1.9244
X3.0543Y-2.2244
X3.074Y-2.9972
X3.074Y-3.2972
X3.074Y-3.5583
X3.074Y-3.8583
X3.0807Y-2.5787
X3.0807Y-2.7717
X3.0839Y-4.0307
X3.0839Y-4.3307
X3.0839Y-4.6409
X3.0839Y-4.9409
X3.1543Y-1.9244
X3.1543Y-2.2244
X3.174Y-2.9972
X3.174Y-3.2972
X3.174Y-3.5583
X3.174Y-3.8583
X3.1839Y-4.0307
X3.1839Y-4.3307
X3.1839Y-4.6409
X3.1839Y-4.9409
X3.2543Y-1.9244
X3.2543Y-2.2244
X3.274Y-2.9972
X3.274Y-3.2972
X3.274Y-3.5583
X3.274Y-3.8583
X3.2839Y-4.0307
X3.2839Y-4.3307
X3.2839Y-4.6409
X3.2839Y-4.9409
X3.2874Y-2.474
X3.2874Y-2.874
X3.3543Y-1.9244
X3.3543Y-2.2244
X3.374Y-2.9972
X3.374Y-3.2972
X3.374Y-3.5583
X3.374Y-3.8583
X3.3839Y-4.0307
X3.3839Y-4.3307
X3.3839Y-4.6409
X3.3839Y-4.9409
X3.4543Y-1.9244
X3.4543Y-2.2244
X3.474Y-2.9972
X3.474Y-3.2972
X3.474Y-3.5583
X3.474Y-3.8583
X3.4839Y-4.0307
X3.4839Y-4.3307
X3.4839Y-4.6409
X3.4839Y-4.9409
X3.574Y-3.5583
X3.574Y-3.8583
X3.5839Y-4.6409
X3.5839Y-4.9409
X3.6024Y-2.6378
X3.6039Y-2.7722
X3.6839Y-4.6409
X3.6839Y-4.9409
X3.7795Y-5.1673
X3.7795Y-5.2657
X3.7839Y-4.6409
X3.7839Y-4.9409
X3.9618Y-1.9508
X3.9618Y-2.0508
X3.9618Y-2.1508
X3.9618Y-2.2508
X3.9618Y-2.3508
X3.9618Y-2.4508
X4.0024Y-2.6378
X4.0039Y-2.7722
X4.2228Y-3.0508
X4.2228Y-3.1508
X4.2228Y-3.2508
X4.2228Y-3.3508
X4.2228Y-3.4508
X4.2228Y-3.5508
X4.2228Y-3.6508
X4.2228Y-3.7508
X4.2228Y-3.8508
X4.2228Y-3.9508
X4.2228Y-4.0508
X4.2228Y-4.1508
X4.2228Y-4.2508
X4.2228Y-4.3508
X4.2228Y-4.4508
X4.2228Y-4.5508
X4.2228Y-4.6508
X4.2228Y-4.7508
X4.2228Y-4.8508
X4.2228Y-4.9508
X4.2618Y-1.9508
X4.2618Y-2.0508
X4.2618Y-2.1508
X4.2618Y-2.2508
X4.2618Y-2.3508
X4.2618Y-2.4508
X4.5228Y-1.9508
X4.5228Y-2.0508
X4.5228Y-2.1508
X4.5228Y-2.2508
X4.5228Y-2.3508
X4.5228Y-2.4508
X4.8228Y-1.9508
X4.8228Y-2.0508
X4.8228Y-2.1508
X4.8228Y-2.2508
X4.8228Y-2.3508
X4.8228Y-2.4508
X4.8228Y-3.0508
X4.8228Y-3.1508
X4.8228Y-3.2508
X4.8228Y-3.3508
X4.8228Y-3.4508
X4.8228Y-3.5508
X4.8228Y-3.6508
X4.8228Y-3.7508
X4.8228Y-3.8508
X4.8228Y-3.9508
X4.8228Y-4.0508
X4.8228Y-4.1508
X4.8228Y-4.2508
X4.8228Y-4.3508
X4.8228Y-4.4508
X4.8228Y-4.5508
X4.8228Y-4.6508
X4.8228Y-4.7508
X4.8228Y-4.8508
X4.8228Y-4.9508
X4.9902Y-4.0551
X4.9902Y-4.4551
X5.2953Y-4.3606
X5.2953Y-4.9606
X5.3Y-1.95
X5.3Y-2.05
X5.3Y-2.15
X5.3Y-2.25
X5.3Y-2.35
X5.3Y-2.45
X5.3Y-2.55
X5.3Y-2.65
X5.3Y-2.75
X5.3Y-2.85
X5.3Y-2.95
X5.3Y-3.05
X5.3Y-3.15
X5.3Y-3.25
X5.3Y-3.35
X5.3953Y-4.3606
X5.3953Y-4.9606
X5.4Y-1.95
X5.4Y-2.05
X5.4Y-2.15
X5.4Y-2.25
X5.4Y-2.35
X5.4Y-2.45
X5.4Y-2.55
X5.4Y-2.65
X5.4Y-2.75
X5.4Y-2.85
X5.4Y-2.95
X5.4Y-3.05
X5.4Y-3.15
X5.4Y-3.25
X5.4Y-3.35
X5.4953Y-4.3606
X5.4953Y-4.9606
X5.5Y-1.95
X5.5Y-2.05
X5.5Y-2.15
X5.5Y-2.25
X5.5Y-2.35
X5.5Y-2.45
X5.5Y-2.55
X5.5Y-2.65
X5.5Y-2.75
X5.5Y-2.85
X5.5Y-2.95
X5.5Y-3.05
X5.5Y-3.15
X5.5Y-3.25
X5.5Y-3.35
X5.5953Y-4.3606
X5.5953Y-4.9606
X5.6Y-1.95
X5.6Y-2.05
X5.6Y-2.15
X5.6Y-2.25
X5.6Y-2.35
X5.6Y-2.45
X5.6Y-2.55
X5.6Y-2.65
X5.6Y-2.75
X5.6Y-2.85
X5.6Y-2.95
X5.6Y-3.05
X5.6Y-3.15
X5.6Y-3.25
X5.6Y-3.35
X5.6953Y-4.3606
X5.6953Y-4.9606
X5.7Y-1.95
X5.7Y-2.05
X5.7Y-2.15
X5.7Y-2.25
X5.7Y-2.35
X5.7Y-2.45
X5.7Y-2.55
X5.7Y-2.65
X5.7Y-2.75
X5.7Y-2.85
X5.7Y-2.95
X5.7Y-3.05
X5.7Y-3.15
X5.7Y-3.25
X5.7Y-3.35
X5.7953Y-4.3606
X5.7953Y-4.9606
X5.8Y-1.95
X5.8Y-2.05
X5.8Y-2.15
X5.8Y-2.25
X5.8Y-2.35
X5.8Y-2.45
X5.8Y-2.55
X5.8Y-2.65
X5.8Y-2.75
X5.8Y-2.85
X5.8Y-2.95
X5.8Y-3.05
X5.8Y-3.15
X5.8Y-3.25
X5.8Y-3.35
X5.8953Y-4.3606
X5.8953Y-4.9606
X5.9Y-1.95
X5.9Y-2.05
X5.9Y-2.15
X5.9Y-2.25
X5.9Y-2.35
X5.9Y-2.45
X5.9Y-2.55
X5.9Y-2.65
X5.9Y-2.75
X5.9Y-2.85
X5.9Y-2.95
X5.9Y-3.05
X5.9Y-3.15
X5.9Y-3.25
X5.9Y-3.35
X5.9953Y-4.3606
X5.9953Y-4.9606
X6.0Y-1.95
X6.0Y-2.05
X6.0Y-2.15
X6.0Y-2.25
X6.0Y-2.35
X6.0Y-2.45
X6.0Y-2.55
X6.0Y-2.65
X6.0Y-2.75
X6.0Y-2.85
X6.0Y-2.95
X6.0Y-3.05
X6.0Y-3.15
X6.0Y-3.25
X6.0Y-3.35
X6.0953Y-4.3606
X6.0953Y-4.9606
X6.1Y-1.95
X6.1Y-2.05
X6.1Y-2.15
X6.1Y-2.25
X6.1Y-2.35
X6.1Y-2.45
X6.1Y-2.55
X6.1Y-2.65
X6.1Y-2.75
X6.1Y-2.85
X6.1Y-2.95
X6.1Y-3.05
X6.1Y-3.15
X6.1Y-3.25
X6.1Y-3.35
X6.1953Y-4.3606
X6.1953Y-4.9606
X6.2Y-1.95
X6.2Y-2.05
X6.2Y-2.15
X6.2Y-2.25
X6.2Y-2.35
X6.2Y-2.45
X6.2Y-2.55
X6.2Y-2.65
X6.2Y-2.75
X6.2Y-2.85
X6.2Y-2.95
X6.2Y-3.05
X6.2Y-3.15
X6.2Y-3.25
X6.2Y-3.35
X6.2953Y-4.3606
X6.2953Y-4.9606
X6.3Y-1.95
X6.3Y-2.05
X6.3Y-2.15
X6.3Y-2.25
X6.3Y-2.35
X6.3Y-2.45
X6.3Y-2.55
X6.3Y-2.65
X6.3Y-2.75
X6.3Y-2.85
X6.3Y-2.95
X6.3Y-3.05
X6.3Y-3.15
X6.3Y-3.25
X6.3Y-3.35
X6.3953Y-4.3606
X6.3953Y-4.9606
X6.4Y-1.95
X6.4Y-2.05
X6.4Y-2.15
X6.4Y-2.25
X6.4Y-2.35
X6.4Y-2.45
X6.4Y-2.55
X6.4Y-2.65
X6.4Y-2.75
X6.4Y-2.85
X6.4Y-2.95
X6.4Y-3.05
X6.4Y-3.15
X6.4Y-3.25
X6.4Y-3.35
X6.4953Y-4.3606
X6.4953Y-4.9606
X6.5Y-1.95
X6.5Y-2.05
X6.5Y-2.15
X6.5Y-2.25
X6.5Y-2.35
X6.5Y-2.45
X6.5Y-2.55
X6.5Y-2.65
X6.5Y-2.75
X6.5Y-2.85
X6.5Y-2.95
X6.5Y-3.05
X6.5Y-3.15
X6.5Y-3.25
X6.5Y-3.35
X6.5953Y-4.3606
X6.5953Y-4.9606
X6.6Y-1.95
X6.6Y-2.05
X6.6Y-2.15
X6.6Y-2.25
X6.6Y-2.35
X6.6Y-2.45
X6.6Y-2.55
X6.6Y-2.65
X6.6Y-2.75
X6.6Y-2.85
X6.6Y-2.95
X6.6Y-3.05
X6.6Y-3.15
X6.6Y-3.25
X6.6Y-3.35
X6.6953Y-4.3606
X6.6953Y-4.9606
X6.7Y-1.95
X6.7Y-2.05
X6.7Y-2.15
X6.7Y-2.25
X6.7Y-2.35
X6.7Y-2.45
X6.7Y-2.55
X6.7Y-2.65
X6.7Y-2.75
X6.7Y-2.85
X6.7Y-2.95
X6.7Y-3.05
X6.7Y-3.15
X6.7Y-3.25
X6.7Y-3.35
X6.7953Y-4.3606
X6.7953Y-4.9606
X6.8Y-1.95
X6.8Y-2.05
X6.8Y-2.15
X6.8Y-2.25
X6.8Y-2.35
X6.8Y-2.45
X6.8Y-2.55
X6.8Y-2.65
X6.8Y-2.75
X6.8Y-2.85
X6.8Y-2.95
X6.8Y-3.05
X6.8Y-3.15
X6.8Y-3.25
X6.8Y-3.35
X6.8953Y-4.3606
X6.8953Y-4.9606
X6.9953Y-4.3606
X6.9953Y-4.9606
X7.0866Y-1.8701
X7.0866Y-1.9685
X7.0866Y-2.185
X7.0866Y-2.2835
X7.0866Y-2.4803
X7.0866Y-2.5787
X7.0866Y-2.7756
X7.0866Y-2.874
X7.0866Y-3.189
X7.0866Y-3.2874
X7.0866Y-3.4843
X7.0866Y-3.5827
X7.0866Y-3.7795
X7.0866Y-3.878
X7.0866Y-4.0748
X7.0866Y-4.1732
X7.0953Y-4.3606
X7.0953Y-4.9606
X7.1953Y-4.3606
X7.1953Y-4.9606
X7.3327Y-2.1752
X7.3327Y-2.2752
X7.3327Y-2.3752
X7.3327Y-2.4752
X7.3327Y-2.5752
X7.3327Y-2.6752
X7.3327Y-2.7752
X7.3327Y-2.8752
X7.3411Y-3.4902
X7.3411Y-3.5902
X7.3411Y-3.6902
X7.3411Y-3.7902
X7.3411Y-3.8902
X7.3411Y-3.9902
X7.3411Y-4.0902
X7.3411Y-4.1902
X7.3819Y-1.8602
X7.3819Y-1.9587
X7.6327Y-2.1752
X7.6327Y-2.2752
X7.6327Y-2.3752
X7.6327Y-2.4752
X7.6327Y-2.5752
X7.6327Y-2.6752
X7.6327Y-2.7752
X7.6327Y-2.8752
X7.6411Y-3.4902
X7.6411Y-3.5902
X7.6411Y-3.6902
X7.6411Y-3.7902
X7.6411Y-3.8902
X7.6411Y-3.9902
X7.6411Y-4.0902
X7.6411Y-4.1902
X7.9232Y-3.4843
X7.9232Y-3.5827
T4
X3.83Y-3.19
X3.83Y-3.29
X3.83Y-3.44
X3.83Y-3.54
T5
X2.1752Y-1.9886
X2.1752Y-2.0886
X2.1752Y-2.1886
X2.1752Y-2.2886
X2.1752Y-2.3886
X2.1752Y-2.4886
X2.1752Y-2.5886
X2.1752Y-2.6886
X2.1752Y-2.7886
X2.1752Y-2.8886
X2.1752Y-2.9886
X2.1752Y-3.0886
X2.1752Y-3.1886
X2.1752Y-3.2886
X2.1752Y-3.3886
X2.1752Y-3.4886
X2.1752Y-3.5886
X2.1752Y-3.6886
X2.1752Y-3.7886
X2.1752Y-3.8886
X2.1752Y-3.9886
X2.1752Y-4.0886
X2.1752Y-4.1886
X2.1752Y-4.2886
X2.1752Y-4.3886
X2.1752Y-4.4886
X2.1752Y-4.5886
X2.1752Y-4.6886
X2.1752Y-4.7886
X2.1752Y-4.8886
X2.1752Y-4.9886
X2.1752Y-5.0886
X2.3752Y-1.9886
X2.3752Y-2.0886
X2.3752Y-2.1886
X2.3752Y-2.2886
X2.3752Y-2.3886
X2.3752Y-2.4886
X2.3752Y-2.5886
X2.3752Y-2.6886
X2.3752Y-2.7886
X2.3752Y-2.8886
X2.3752Y-2.9886
X2.3752Y-3.0886
X2.3752Y-3.1886
X2.3752Y-3.2886
X2.3752Y-3.3886
X2.3752Y-3.4886
X2.3752Y-3.5886
X2.3752Y-3.6886
X2.3752Y-3.7886
X2.3752Y-3.8886
X2.3752Y-3.9886
X2.3752Y-4.0886
X2.3752Y-4.1886
X2.3752Y-4.2886
X2.3752Y-4.3886
X2.3752Y-4.4886
X2.3752Y-4.5886
X2.3752Y-4.6886
X2.3752Y-4.7886
X2.3752Y-4.8886
X2.3752Y-4.9886
X2.3752Y-5.0886
X2.6772Y-3.0512
X2.6772Y-3.248
X3.1299Y-4.4685
X3.3268Y-4.4685
X4.0453Y-5.0689
X4.0453Y-5.2657
X4.24Y-2.8248
X4.34Y-2.8248
X4.4291Y-4.1142
X4.626Y-4.1142
X4.695Y-2.8248
X4.795Y-2.8248
X5.4929Y-3.9961
X5.4929Y-4.0961
X5.5929Y-3.9961
X5.5929Y-4.0961
X5.6929Y-3.9961
X5.6929Y-4.0961
X5.7929Y-3.9961
X5.7929Y-4.0961
X5.8929Y-3.9961
X5.8929Y-4.0961
X5.9929Y-3.9961
X5.9929Y-4.0961
X6.0929Y-3.9961
X6.0929Y-4.0961
X6.1929Y-3.9961
X6.1929Y-4.0961
X6.2929Y-3.9961
X6.2929Y-4.0961
X6.3929Y-3.9961
X6.3929Y-4.0961
X6.4929Y-3.9961
X6.4929Y-4.0961
X6.5929Y-3.9961
X6.5929Y-4.0961
X6.6929Y-3.9961
X6.6929Y-4.0961
X7.2047Y-5.1575
X7.2047Y-5.3543
X7.5984Y-1.7421
X7.5984Y-1.939
X7.6575Y-3.0906
X7.6575Y-3.1906
X7.6575Y-4.5866
X7.6575Y-4.6866
X7.8543Y-2.4969
X7.8543Y-2.6059
X7.8543Y-2.715
X7.8543Y-2.824
X7.8543Y-2.9331
X7.8543Y-4.1421
X7.8543Y-4.2512
X7.8543Y-4.3602
X7.8543Y-4.4693
X7.8543Y-4.5783
X7.9661Y-2.5514
X7.9661Y-2.6604
X7.9661Y-2.7695
X7.9661Y-2.8785
X7.9661Y-4.1967
X7.9661Y-4.3057
X7.9661Y-4.4148
X7.9661Y-4.5238
T6
X7.9102Y-2.2228
X7.9102Y-3.2071
X7.9102Y-3.8681
X7.9102Y-4.8524
T0
M30
