%TF.GenerationSoftware,KiCad,Pcbnew,(5.1.12)-1*%
%TF.CreationDate,2026-03-17T11:36:50+01:00*%
%TF.ProjectId,OUT-80,4f55542d-3830-42e6-9b69-6361645f7063,rev?*%
%TF.SameCoordinates,Original*%
%TF.FileFunction,Copper,L1,Top*%
%TF.FilePolarity,Positive*%
%FSLAX46Y46*%
G04 Gerber Fmt 4.6, Leading zero omitted, Abs format (unit mm)*
G04 Created by KiCad (PCBNEW (5.1.12)-1) date 2026-03-17 11:36:50*
%MOMM*%
%LPD*%
G01*
G04 APERTURE LIST*
%TA.AperFunction,ComponentPad*%
%ADD10C,1.600000*%
%TD*%
%TA.AperFunction,ComponentPad*%
%ADD11C,4.000000*%
%TD*%
%TA.AperFunction,ComponentPad*%
%ADD12R,1.600000X1.600000*%
%TD*%
%TA.AperFunction,ComponentPad*%
%ADD13O,1.700000X1.700000*%
%TD*%
%TA.AperFunction,ComponentPad*%
%ADD14R,1.700000X1.700000*%
%TD*%
%TA.AperFunction,ComponentPad*%
%ADD15O,1.600000X1.600000*%
%TD*%
%TA.AperFunction,ComponentPad*%
%ADD16C,1.800000*%
%TD*%
%TA.AperFunction,ComponentPad*%
%ADD17R,1.800000X1.800000*%
%TD*%
%TA.AperFunction,ComponentPad*%
%ADD18C,2.000000*%
%TD*%
%TA.AperFunction,ComponentPad*%
%ADD19C,1.550000*%
%TD*%
%TA.AperFunction,ComponentPad*%
%ADD20C,1.500000*%
%TD*%
%TA.AperFunction,ViaPad*%
%ADD21C,1.000000*%
%TD*%
%TA.AperFunction,ViaPad*%
%ADD22C,0.800000*%
%TD*%
%TA.AperFunction,Conductor*%
%ADD23C,1.500000*%
%TD*%
%TA.AperFunction,Conductor*%
%ADD24C,2.000000*%
%TD*%
%TA.AperFunction,Conductor*%
%ADD25C,2.500000*%
%TD*%
%TA.AperFunction,Conductor*%
%ADD26C,1.000000*%
%TD*%
%TA.AperFunction,Conductor*%
%ADD27C,0.800000*%
%TD*%
%TA.AperFunction,Conductor*%
%ADD28C,0.400000*%
%TD*%
%TA.AperFunction,Conductor*%
%ADD29C,0.250000*%
%TD*%
G04 APERTURE END LIST*
D10*
%TO.P,.,1*%
%TO.N,+5V*%
X172720000Y-85090000D03*
%TD*%
%TO.P,.,1*%
%TO.N,N/C*%
X170180000Y-85090000D03*
%TD*%
%TO.P,.,1*%
%TO.N,N/C*%
X167640000Y-85090000D03*
%TD*%
%TO.P,.,1*%
%TO.N,N/C*%
X165100000Y-85090000D03*
%TD*%
%TO.P,.,1*%
%TO.N,N/C*%
X162560000Y-85090000D03*
%TD*%
%TO.P,.,1*%
%TO.N,N/C*%
X160020000Y-85090000D03*
%TD*%
%TO.P,.,1*%
%TO.N,N/C*%
X157480000Y-85090000D03*
%TD*%
%TO.P,.,1*%
%TO.N,N/C*%
X154940000Y-85090000D03*
%TD*%
%TO.P,.,1*%
%TO.N,N/C*%
X152400000Y-85090000D03*
%TD*%
%TO.P,.,1*%
%TO.N,N/C*%
X149860000Y-85090000D03*
%TD*%
%TO.P,.,1*%
%TO.N,N/C*%
X147320000Y-85090000D03*
%TD*%
%TO.P,.,1*%
%TO.N,N/C*%
X144780000Y-85090000D03*
%TD*%
%TO.P,.,1*%
%TO.N,N/C*%
X142240000Y-85090000D03*
%TD*%
%TO.P,.,1*%
%TO.N,N/C*%
X139700000Y-85090000D03*
%TD*%
%TO.P,.,1*%
%TO.N,N/C*%
X137160000Y-85090000D03*
%TD*%
%TO.P,.,1*%
%TO.N,N/C*%
X134620000Y-85090000D03*
%TD*%
%TO.P,.,1*%
%TO.N,+5V*%
X172720000Y-82550000D03*
%TD*%
%TO.P,.,1*%
%TO.N,N/C*%
X170180000Y-82550000D03*
%TD*%
%TO.P,.,1*%
%TO.N,N/C*%
X167640000Y-82550000D03*
%TD*%
%TO.P,.,1*%
%TO.N,N/C*%
X165100000Y-82550000D03*
%TD*%
%TO.P,.,1*%
%TO.N,N/C*%
X162560000Y-82550000D03*
%TD*%
%TO.P,.,1*%
%TO.N,N/C*%
X160020000Y-82550000D03*
%TD*%
%TO.P,.,1*%
%TO.N,N/C*%
X157480000Y-82550000D03*
%TD*%
%TO.P,.,1*%
%TO.N,N/C*%
X154940000Y-82550000D03*
%TD*%
%TO.P,.,1*%
%TO.N,N/C*%
X152400000Y-82550000D03*
%TD*%
%TO.P,.,1*%
%TO.N,N/C*%
X149860000Y-82550000D03*
%TD*%
%TO.P,.,1*%
%TO.N,N/C*%
X147320000Y-82550000D03*
%TD*%
%TO.P,.,1*%
%TO.N,N/C*%
X144780000Y-82550000D03*
%TD*%
%TO.P,.,1*%
%TO.N,N/C*%
X142240000Y-82550000D03*
%TD*%
%TO.P,.,1*%
%TO.N,N/C*%
X139700000Y-82550000D03*
%TD*%
%TO.P,.,1*%
%TO.N,N/C*%
X137160000Y-82550000D03*
%TD*%
%TO.P,.,1*%
%TO.N,N/C*%
X134620000Y-82550000D03*
%TD*%
%TO.P,.,1*%
%TO.N,+5V*%
X172720000Y-80010000D03*
%TD*%
%TO.P,.,1*%
%TO.N,N/C*%
X170180000Y-80010000D03*
%TD*%
%TO.P,.,1*%
%TO.N,N/C*%
X167640000Y-80010000D03*
%TD*%
%TO.P,.,1*%
%TO.N,N/C*%
X165100000Y-80010000D03*
%TD*%
%TO.P,.,1*%
%TO.N,N/C*%
X162560000Y-80010000D03*
%TD*%
%TO.P,.,1*%
%TO.N,N/C*%
X160020000Y-80010000D03*
%TD*%
%TO.P,.,1*%
%TO.N,N/C*%
X157480000Y-80010000D03*
%TD*%
%TO.P,.,1*%
%TO.N,N/C*%
X154940000Y-80010000D03*
%TD*%
%TO.P,.,1*%
%TO.N,N/C*%
X152400000Y-80010000D03*
%TD*%
%TO.P,.,1*%
%TO.N,N/C*%
X149860000Y-80010000D03*
%TD*%
%TO.P,.,1*%
%TO.N,N/C*%
X147320000Y-80010000D03*
%TD*%
%TO.P,.,1*%
%TO.N,N/C*%
X144780000Y-80010000D03*
%TD*%
%TO.P,.,1*%
%TO.N,N/C*%
X142240000Y-80010000D03*
%TD*%
%TO.P,.,1*%
%TO.N,N/C*%
X139700000Y-80010000D03*
%TD*%
%TO.P,.,1*%
%TO.N,N/C*%
X137160000Y-80010000D03*
%TD*%
%TO.P,.,1*%
%TO.N,N/C*%
X134620000Y-80010000D03*
%TD*%
%TO.P,.,1*%
%TO.N,+5V*%
X172720000Y-77470000D03*
%TD*%
%TO.P,.,1*%
%TO.N,N/C*%
X170180000Y-77470000D03*
%TD*%
%TO.P,.,1*%
%TO.N,N/C*%
X167640000Y-77470000D03*
%TD*%
%TO.P,.,1*%
%TO.N,N/C*%
X165100000Y-77470000D03*
%TD*%
%TO.P,.,1*%
%TO.N,N/C*%
X162560000Y-77470000D03*
%TD*%
%TO.P,.,1*%
%TO.N,N/C*%
X160020000Y-77470000D03*
%TD*%
%TO.P,.,1*%
%TO.N,N/C*%
X157480000Y-77470000D03*
%TD*%
%TO.P,.,1*%
%TO.N,N/C*%
X154940000Y-77470000D03*
%TD*%
%TO.P,.,1*%
%TO.N,N/C*%
X152400000Y-77470000D03*
%TD*%
%TO.P,.,1*%
%TO.N,N/C*%
X149860000Y-77470000D03*
%TD*%
%TO.P,.,1*%
%TO.N,N/C*%
X147320000Y-77470000D03*
%TD*%
%TO.P,.,1*%
%TO.N,N/C*%
X144780000Y-77470000D03*
%TD*%
%TO.P,.,1*%
%TO.N,N/C*%
X142240000Y-77470000D03*
%TD*%
%TO.P,.,1*%
%TO.N,N/C*%
X139700000Y-77470000D03*
%TD*%
%TO.P,.,1*%
%TO.N,N/C*%
X137160000Y-77470000D03*
%TD*%
%TO.P,.,1*%
%TO.N,N/C*%
X134620000Y-77470000D03*
%TD*%
%TO.P,.,1*%
%TO.N,+5V*%
X172720000Y-74930000D03*
%TD*%
%TO.P,.,1*%
%TO.N,N/C*%
X170180000Y-74930000D03*
%TD*%
%TO.P,.,1*%
%TO.N,N/C*%
X167640000Y-74930000D03*
%TD*%
%TO.P,.,1*%
%TO.N,N/C*%
X165100000Y-74930000D03*
%TD*%
%TO.P,.,1*%
%TO.N,N/C*%
X162560000Y-74930000D03*
%TD*%
%TO.P,.,1*%
%TO.N,N/C*%
X160020000Y-74930000D03*
%TD*%
%TO.P,.,1*%
%TO.N,N/C*%
X157480000Y-74930000D03*
%TD*%
%TO.P,.,1*%
%TO.N,N/C*%
X154940000Y-74930000D03*
%TD*%
%TO.P,.,1*%
%TO.N,N/C*%
X152400000Y-74930000D03*
%TD*%
%TO.P,.,1*%
%TO.N,N/C*%
X149860000Y-74930000D03*
%TD*%
%TO.P,.,1*%
%TO.N,N/C*%
X147320000Y-74930000D03*
%TD*%
%TO.P,.,1*%
%TO.N,N/C*%
X144780000Y-74930000D03*
%TD*%
%TO.P,.,1*%
%TO.N,N/C*%
X142240000Y-74930000D03*
%TD*%
%TO.P,.,1*%
%TO.N,N/C*%
X139700000Y-74930000D03*
%TD*%
%TO.P,.,1*%
%TO.N,N/C*%
X137160000Y-74930000D03*
%TD*%
%TO.P,.,1*%
%TO.N,N/C*%
X134620000Y-74930000D03*
%TD*%
%TO.P,.,1*%
%TO.N,+5V*%
X172720000Y-72390000D03*
%TD*%
%TO.P,.,1*%
%TO.N,N/C*%
X170180000Y-72390000D03*
%TD*%
%TO.P,.,1*%
%TO.N,N/C*%
X167640000Y-72390000D03*
%TD*%
%TO.P,.,1*%
%TO.N,N/C*%
X165100000Y-72390000D03*
%TD*%
%TO.P,.,1*%
%TO.N,N/C*%
X162560000Y-72390000D03*
%TD*%
%TO.P,.,1*%
%TO.N,N/C*%
X160020000Y-72390000D03*
%TD*%
%TO.P,.,1*%
%TO.N,N/C*%
X157480000Y-72390000D03*
%TD*%
%TO.P,.,1*%
%TO.N,N/C*%
X154940000Y-72390000D03*
%TD*%
%TO.P,.,1*%
%TO.N,N/C*%
X152400000Y-72390000D03*
%TD*%
%TO.P,.,1*%
%TO.N,N/C*%
X149860000Y-72390000D03*
%TD*%
%TO.P,.,1*%
%TO.N,N/C*%
X147320000Y-72390000D03*
%TD*%
%TO.P,.,1*%
%TO.N,N/C*%
X144780000Y-72390000D03*
%TD*%
%TO.P,.,1*%
%TO.N,N/C*%
X142240000Y-72390000D03*
%TD*%
%TO.P,.,1*%
%TO.N,N/C*%
X139700000Y-72390000D03*
%TD*%
%TO.P,.,1*%
%TO.N,N/C*%
X137160000Y-72390000D03*
%TD*%
%TO.P,.,1*%
%TO.N,N/C*%
X134620000Y-72390000D03*
%TD*%
%TO.P,.,1*%
%TO.N,+5V*%
X172720000Y-69850000D03*
%TD*%
%TO.P,.,1*%
%TO.N,N/C*%
X170180000Y-69850000D03*
%TD*%
%TO.P,.,1*%
%TO.N,N/C*%
X167640000Y-69850000D03*
%TD*%
%TO.P,.,1*%
%TO.N,N/C*%
X165100000Y-69850000D03*
%TD*%
%TO.P,.,1*%
%TO.N,N/C*%
X162560000Y-69850000D03*
%TD*%
%TO.P,.,1*%
%TO.N,N/C*%
X160020000Y-69850000D03*
%TD*%
%TO.P,.,1*%
%TO.N,N/C*%
X157480000Y-69850000D03*
%TD*%
%TO.P,.,1*%
%TO.N,N/C*%
X154940000Y-69850000D03*
%TD*%
%TO.P,.,1*%
%TO.N,N/C*%
X152400000Y-69850000D03*
%TD*%
%TO.P,.,1*%
%TO.N,N/C*%
X149860000Y-69850000D03*
%TD*%
%TO.P,.,1*%
%TO.N,N/C*%
X147320000Y-69850000D03*
%TD*%
%TO.P,.,1*%
%TO.N,N/C*%
X144780000Y-69850000D03*
%TD*%
%TO.P,.,1*%
%TO.N,N/C*%
X142240000Y-69850000D03*
%TD*%
%TO.P,.,1*%
%TO.N,N/C*%
X139700000Y-69850000D03*
%TD*%
%TO.P,.,1*%
%TO.N,N/C*%
X137160000Y-69850000D03*
%TD*%
%TO.P,.,1*%
%TO.N,N/C*%
X134620000Y-69850000D03*
%TD*%
%TO.P,.,1*%
%TO.N,+5V*%
X172720000Y-67310000D03*
%TD*%
%TO.P,.,1*%
%TO.N,N/C*%
X170180000Y-67310000D03*
%TD*%
%TO.P,.,1*%
%TO.N,N/C*%
X167640000Y-67310000D03*
%TD*%
%TO.P,.,1*%
%TO.N,N/C*%
X165100000Y-67310000D03*
%TD*%
%TO.P,.,1*%
%TO.N,N/C*%
X162560000Y-67310000D03*
%TD*%
%TO.P,.,1*%
%TO.N,N/C*%
X160020000Y-67310000D03*
%TD*%
%TO.P,.,1*%
%TO.N,N/C*%
X157480000Y-67310000D03*
%TD*%
%TO.P,.,1*%
%TO.N,N/C*%
X154940000Y-67310000D03*
%TD*%
%TO.P,.,1*%
%TO.N,N/C*%
X152400000Y-67310000D03*
%TD*%
%TO.P,.,1*%
%TO.N,N/C*%
X149860000Y-67310000D03*
%TD*%
%TO.P,.,1*%
%TO.N,N/C*%
X147320000Y-67310000D03*
%TD*%
%TO.P,.,1*%
%TO.N,N/C*%
X144780000Y-67310000D03*
%TD*%
%TO.P,.,1*%
%TO.N,N/C*%
X142240000Y-67310000D03*
%TD*%
%TO.P,.,1*%
%TO.N,N/C*%
X139700000Y-67310000D03*
%TD*%
%TO.P,.,1*%
%TO.N,N/C*%
X137160000Y-67310000D03*
%TD*%
%TO.P,.,1*%
%TO.N,N/C*%
X134620000Y-67310000D03*
%TD*%
%TO.P,.,1*%
%TO.N,+5V*%
X172720000Y-64770000D03*
%TD*%
%TO.P,.,1*%
%TO.N,N/C*%
X170180000Y-64770000D03*
%TD*%
%TO.P,.,1*%
%TO.N,N/C*%
X167640000Y-64770000D03*
%TD*%
%TO.P,.,1*%
%TO.N,N/C*%
X165100000Y-64770000D03*
%TD*%
%TO.P,.,1*%
%TO.N,N/C*%
X162560000Y-64770000D03*
%TD*%
%TO.P,.,1*%
%TO.N,N/C*%
X160020000Y-64770000D03*
%TD*%
%TO.P,.,1*%
%TO.N,N/C*%
X157480000Y-64770000D03*
%TD*%
%TO.P,.,1*%
%TO.N,N/C*%
X154940000Y-64770000D03*
%TD*%
%TO.P,.,1*%
%TO.N,N/C*%
X152400000Y-64770000D03*
%TD*%
%TO.P,.,1*%
%TO.N,N/C*%
X149860000Y-64770000D03*
%TD*%
%TO.P,.,1*%
%TO.N,N/C*%
X147320000Y-64770000D03*
%TD*%
%TO.P,.,1*%
%TO.N,N/C*%
X144780000Y-64770000D03*
%TD*%
%TO.P,.,1*%
%TO.N,N/C*%
X142240000Y-64770000D03*
%TD*%
%TO.P,.,1*%
%TO.N,N/C*%
X139700000Y-64770000D03*
%TD*%
%TO.P,.,1*%
%TO.N,N/C*%
X137160000Y-64770000D03*
%TD*%
%TO.P,.,1*%
%TO.N,N/C*%
X134620000Y-64770000D03*
%TD*%
%TO.P,.,1*%
%TO.N,+5V*%
X172720000Y-62230000D03*
%TD*%
%TO.P,.,1*%
%TO.N,N/C*%
X170180000Y-62230000D03*
%TD*%
%TO.P,.,1*%
%TO.N,N/C*%
X167640000Y-62230000D03*
%TD*%
%TO.P,.,1*%
%TO.N,N/C*%
X165100000Y-62230000D03*
%TD*%
%TO.P,.,1*%
%TO.N,N/C*%
X162560000Y-62230000D03*
%TD*%
%TO.P,.,1*%
%TO.N,N/C*%
X160020000Y-62230000D03*
%TD*%
%TO.P,.,1*%
%TO.N,N/C*%
X157480000Y-62230000D03*
%TD*%
%TO.P,.,1*%
%TO.N,N/C*%
X154940000Y-62230000D03*
%TD*%
%TO.P,.,1*%
%TO.N,N/C*%
X152400000Y-62230000D03*
%TD*%
%TO.P,.,1*%
%TO.N,N/C*%
X149860000Y-62230000D03*
%TD*%
%TO.P,.,1*%
%TO.N,N/C*%
X147320000Y-62230000D03*
%TD*%
%TO.P,.,1*%
%TO.N,N/C*%
X144780000Y-62230000D03*
%TD*%
%TO.P,.,1*%
%TO.N,N/C*%
X142240000Y-62230000D03*
%TD*%
%TO.P,.,1*%
%TO.N,N/C*%
X139700000Y-62230000D03*
%TD*%
%TO.P,.,1*%
%TO.N,N/C*%
X137160000Y-62230000D03*
%TD*%
%TO.P,.,1*%
%TO.N,N/C*%
X134620000Y-62230000D03*
%TD*%
%TO.P,.,1*%
%TO.N,+5V*%
X172720000Y-59690000D03*
%TD*%
%TO.P,.,1*%
%TO.N,N/C*%
X170180000Y-59690000D03*
%TD*%
%TO.P,.,1*%
%TO.N,N/C*%
X167640000Y-59690000D03*
%TD*%
%TO.P,.,1*%
%TO.N,N/C*%
X165100000Y-59690000D03*
%TD*%
%TO.P,.,1*%
%TO.N,N/C*%
X162560000Y-59690000D03*
%TD*%
%TO.P,.,1*%
%TO.N,N/C*%
X160020000Y-59690000D03*
%TD*%
%TO.P,.,1*%
%TO.N,N/C*%
X157480000Y-59690000D03*
%TD*%
%TO.P,.,1*%
%TO.N,N/C*%
X154940000Y-59690000D03*
%TD*%
%TO.P,.,1*%
%TO.N,N/C*%
X152400000Y-59690000D03*
%TD*%
%TO.P,.,1*%
%TO.N,N/C*%
X149860000Y-59690000D03*
%TD*%
%TO.P,.,1*%
%TO.N,N/C*%
X147320000Y-59690000D03*
%TD*%
%TO.P,.,1*%
%TO.N,N/C*%
X144780000Y-59690000D03*
%TD*%
%TO.P,.,1*%
%TO.N,N/C*%
X142240000Y-59690000D03*
%TD*%
%TO.P,.,1*%
%TO.N,N/C*%
X139700000Y-59690000D03*
%TD*%
%TO.P,.,1*%
%TO.N,N/C*%
X137160000Y-59690000D03*
%TD*%
%TO.P,.,1*%
%TO.N,N/C*%
X134620000Y-59690000D03*
%TD*%
%TO.P,.,1*%
%TO.N,+5V*%
X172720000Y-57150000D03*
%TD*%
%TO.P,.,1*%
%TO.N,N/C*%
X170180000Y-57150000D03*
%TD*%
%TO.P,.,1*%
%TO.N,N/C*%
X167640000Y-57150000D03*
%TD*%
%TO.P,.,1*%
%TO.N,N/C*%
X165100000Y-57150000D03*
%TD*%
%TO.P,.,1*%
%TO.N,N/C*%
X162560000Y-57150000D03*
%TD*%
%TO.P,.,1*%
%TO.N,N/C*%
X160020000Y-57150000D03*
%TD*%
%TO.P,.,1*%
%TO.N,N/C*%
X157480000Y-57150000D03*
%TD*%
%TO.P,.,1*%
%TO.N,N/C*%
X154940000Y-57150000D03*
%TD*%
%TO.P,.,1*%
%TO.N,N/C*%
X152400000Y-57150000D03*
%TD*%
%TO.P,.,1*%
%TO.N,N/C*%
X149860000Y-57150000D03*
%TD*%
%TO.P,.,1*%
%TO.N,N/C*%
X147320000Y-57150000D03*
%TD*%
%TO.P,.,1*%
%TO.N,N/C*%
X144780000Y-57150000D03*
%TD*%
%TO.P,.,1*%
%TO.N,N/C*%
X142240000Y-57150000D03*
%TD*%
%TO.P,.,1*%
%TO.N,N/C*%
X139700000Y-57150000D03*
%TD*%
%TO.P,.,1*%
%TO.N,N/C*%
X137160000Y-57150000D03*
%TD*%
%TO.P,.,1*%
%TO.N,N/C*%
X134620000Y-57150000D03*
%TD*%
%TO.P,.,1*%
%TO.N,+5V*%
X172720000Y-54610000D03*
%TD*%
%TO.P,.,1*%
%TO.N,N/C*%
X170180000Y-54610000D03*
%TD*%
%TO.P,.,1*%
%TO.N,N/C*%
X167640000Y-54610000D03*
%TD*%
%TO.P,.,1*%
%TO.N,N/C*%
X165100000Y-54610000D03*
%TD*%
%TO.P,.,1*%
%TO.N,N/C*%
X162560000Y-54610000D03*
%TD*%
%TO.P,.,1*%
%TO.N,N/C*%
X160020000Y-54610000D03*
%TD*%
%TO.P,.,1*%
%TO.N,N/C*%
X157480000Y-54610000D03*
%TD*%
%TO.P,.,1*%
%TO.N,N/C*%
X154940000Y-54610000D03*
%TD*%
%TO.P,.,1*%
%TO.N,N/C*%
X152400000Y-54610000D03*
%TD*%
%TO.P,.,1*%
%TO.N,N/C*%
X149860000Y-54610000D03*
%TD*%
%TO.P,.,1*%
%TO.N,N/C*%
X147320000Y-54610000D03*
%TD*%
%TO.P,.,1*%
%TO.N,N/C*%
X144780000Y-54610000D03*
%TD*%
%TO.P,.,1*%
%TO.N,N/C*%
X142240000Y-54610000D03*
%TD*%
%TO.P,.,1*%
%TO.N,N/C*%
X139700000Y-54610000D03*
%TD*%
%TO.P,.,1*%
%TO.N,N/C*%
X137160000Y-54610000D03*
%TD*%
%TO.P,.,1*%
%TO.N,N/C*%
X134620000Y-54610000D03*
%TD*%
%TO.P,.,1*%
%TO.N,+5V*%
X172720000Y-52070000D03*
%TD*%
%TO.P,.,1*%
%TO.N,N/C*%
X170180000Y-52070000D03*
%TD*%
%TO.P,.,1*%
%TO.N,N/C*%
X167640000Y-52070000D03*
%TD*%
%TO.P,.,1*%
%TO.N,N/C*%
X165100000Y-52070000D03*
%TD*%
%TO.P,.,1*%
%TO.N,N/C*%
X162560000Y-52070000D03*
%TD*%
%TO.P,.,1*%
%TO.N,N/C*%
X160020000Y-52070000D03*
%TD*%
%TO.P,.,1*%
%TO.N,N/C*%
X157480000Y-52070000D03*
%TD*%
%TO.P,.,1*%
%TO.N,N/C*%
X154940000Y-52070000D03*
%TD*%
%TO.P,.,1*%
%TO.N,N/C*%
X152400000Y-52070000D03*
%TD*%
%TO.P,.,1*%
%TO.N,N/C*%
X149860000Y-52070000D03*
%TD*%
%TO.P,.,1*%
%TO.N,N/C*%
X147320000Y-52070000D03*
%TD*%
%TO.P,.,1*%
%TO.N,N/C*%
X144780000Y-52070000D03*
%TD*%
%TO.P,.,1*%
%TO.N,N/C*%
X142240000Y-52070000D03*
%TD*%
%TO.P,.,1*%
%TO.N,N/C*%
X139700000Y-52070000D03*
%TD*%
%TO.P,.,1*%
%TO.N,N/C*%
X137160000Y-52070000D03*
%TD*%
%TO.P,.,1*%
%TO.N,N/C*%
X134620000Y-52070000D03*
%TD*%
%TO.P,.,1*%
%TO.N,+5V*%
X172720000Y-49530000D03*
%TD*%
%TO.P,.,1*%
%TO.N,N/C*%
X170180000Y-49530000D03*
%TD*%
%TO.P,.,1*%
%TO.N,N/C*%
X167640000Y-49530000D03*
%TD*%
%TO.P,.,1*%
%TO.N,N/C*%
X165100000Y-49530000D03*
%TD*%
%TO.P,.,1*%
%TO.N,N/C*%
X162560000Y-49530000D03*
%TD*%
%TO.P,.,1*%
%TO.N,N/C*%
X160020000Y-49530000D03*
%TD*%
%TO.P,.,1*%
%TO.N,N/C*%
X157480000Y-49530000D03*
%TD*%
%TO.P,.,1*%
%TO.N,N/C*%
X154940000Y-49530000D03*
%TD*%
%TO.P,.,1*%
%TO.N,N/C*%
X152400000Y-49530000D03*
%TD*%
%TO.P,.,1*%
%TO.N,N/C*%
X149860000Y-49530000D03*
%TD*%
%TO.P,.,1*%
%TO.N,N/C*%
X147320000Y-49530000D03*
%TD*%
%TO.P,.,1*%
%TO.N,N/C*%
X144780000Y-49530000D03*
%TD*%
%TO.P,.,1*%
%TO.N,N/C*%
X142240000Y-49530000D03*
%TD*%
%TO.P,.,1*%
%TO.N,N/C*%
X139700000Y-49530000D03*
%TD*%
%TO.P,.,1*%
%TO.N,N/C*%
X137160000Y-49530000D03*
%TD*%
%TO.P,.,1*%
%TO.N,GND*%
X134620000Y-49530000D03*
%TD*%
D11*
%TO.P,J2,0*%
%TO.N,Net-(J2-Pad0)*%
X200920000Y-56460000D03*
X200920000Y-81460000D03*
D10*
%TO.P,J2,9*%
%TO.N,N/C*%
X202340000Y-64805000D03*
%TO.P,J2,8*%
%TO.N,Net-(J2-Pad8)*%
X202340000Y-67575000D03*
%TO.P,J2,7*%
%TO.N,Net-(J2-Pad7)*%
X202340000Y-70345000D03*
%TO.P,J2,6*%
%TO.N,N/C*%
X202340000Y-73115000D03*
%TO.P,J2,5*%
%TO.N,GND*%
X199500000Y-63420000D03*
%TO.P,J2,4*%
%TO.N,N/C*%
X199500000Y-66190000D03*
%TO.P,J2,3*%
%TO.N,Net-(J2-Pad3)*%
X199500000Y-68960000D03*
%TO.P,J2,2*%
%TO.N,Net-(J2-Pad2)*%
X199500000Y-71730000D03*
D12*
%TO.P,J2,1*%
%TO.N,N/C*%
X199500000Y-74500000D03*
%TD*%
D13*
%TO.P,JA1,2*%
%TO.N,Net-(J2-Pad8)*%
X194500000Y-81040000D03*
D14*
%TO.P,JA1,1*%
%TO.N,Net-(J2-Pad7)*%
X194500000Y-78500000D03*
%TD*%
D11*
%TO.P,J5,0*%
%TO.N,Net-(J5-Pad0)*%
X200920000Y-98250000D03*
X200920000Y-123250000D03*
D10*
%TO.P,J5,9*%
%TO.N,N/C*%
X202340000Y-106595000D03*
%TO.P,J5,8*%
%TO.N,Net-(J5-Pad8)*%
X202340000Y-109365000D03*
%TO.P,J5,7*%
%TO.N,Net-(J5-Pad7)*%
X202340000Y-112135000D03*
%TO.P,J5,6*%
%TO.N,N/C*%
X202340000Y-114905000D03*
%TO.P,J5,5*%
%TO.N,GND*%
X199500000Y-105210000D03*
%TO.P,J5,4*%
%TO.N,N/C*%
X199500000Y-107980000D03*
%TO.P,J5,3*%
%TO.N,Net-(J5-Pad3)*%
X199500000Y-110750000D03*
%TO.P,J5,2*%
%TO.N,Net-(J5-Pad2)*%
X199500000Y-113520000D03*
D12*
%TO.P,J5,1*%
%TO.N,N/C*%
X199500000Y-116290000D03*
%TD*%
D15*
%TO.P,R5,2*%
%TO.N,Net-(LED2-Pad1)*%
X101700000Y-70414000D03*
D10*
%TO.P,R5,1*%
%TO.N,GND*%
X91540000Y-70414000D03*
%TD*%
D15*
%TO.P,R4,2*%
%TO.N,Net-(LED1-Pad1)*%
X101660000Y-67000000D03*
D10*
%TO.P,R4,1*%
%TO.N,GND*%
X91500000Y-67000000D03*
%TD*%
D16*
%TO.P,LED2,2*%
%TO.N,Net-(LED2-Pad2)*%
X97282000Y-87376000D03*
D17*
%TO.P,LED2,1*%
%TO.N,Net-(LED2-Pad1)*%
X97282000Y-89916000D03*
%TD*%
D16*
%TO.P,LED1,2*%
%TO.N,Net-(LED1-Pad2)*%
X97282000Y-81026000D03*
D17*
%TO.P,LED1,1*%
%TO.N,Net-(LED1-Pad1)*%
X97282000Y-83566000D03*
%TD*%
D10*
%TO.P,C13,2*%
%TO.N,Net-(C13-Pad2)*%
X180000000Y-103500000D03*
D12*
%TO.P,C13,1*%
%TO.N,GND*%
X180000000Y-106000000D03*
%TD*%
D15*
%TO.P,U6,40*%
%TO.N,D0\u002A*%
X107260000Y-125750000D03*
%TO.P,U6,20*%
%TO.N,CLOCK*%
X122500000Y-77490000D03*
%TO.P,U6,39*%
%TO.N,D2\u002A*%
X107260000Y-123210000D03*
%TO.P,U6,19*%
%TO.N,DCDA*%
X122500000Y-80030000D03*
%TO.P,U6,38*%
%TO.N,D4\u002A*%
X107260000Y-120670000D03*
%TO.P,U6,18*%
%TO.N,CTSA*%
X122500000Y-82570000D03*
%TO.P,U6,37*%
%TO.N,D6\u002A*%
X107260000Y-118130000D03*
%TO.P,U6,17*%
%TO.N,RTSA*%
X122500000Y-85110000D03*
%TO.P,U6,36*%
%TO.N,-IOREQ*%
X107260000Y-115590000D03*
%TO.P,U6,16*%
%TO.N,DTRA*%
X122500000Y-87650000D03*
%TO.P,U6,35*%
%TO.N,-CE-SIO*%
X107260000Y-113050000D03*
%TO.P,U6,15*%
%TO.N,TXDA*%
X122500000Y-90190000D03*
%TO.P,U6,34*%
%TO.N,A1*%
X107260000Y-110510000D03*
%TO.P,U6,14*%
%TO.N,Net-(SW2-Pad1)*%
X122500000Y-92730000D03*
%TO.P,U6,33*%
%TO.N,A0*%
X107260000Y-107970000D03*
%TO.P,U6,13*%
%TO.N,Net-(SW2-Pad1)*%
X122500000Y-95270000D03*
%TO.P,U6,32*%
%TO.N,-RD*%
X107260000Y-105430000D03*
%TO.P,U6,12*%
%TO.N,RXDA*%
X122500000Y-97810000D03*
%TO.P,U6,31*%
%TO.N,GND*%
X107260000Y-102890000D03*
%TO.P,U6,11*%
%TO.N,N/C*%
X122500000Y-100350000D03*
%TO.P,U6,30*%
X107260000Y-100350000D03*
%TO.P,U6,10*%
X122500000Y-102890000D03*
%TO.P,U6,29*%
X107260000Y-97810000D03*
%TO.P,U6,9*%
%TO.N,+5V*%
X122500000Y-105430000D03*
%TO.P,U6,28*%
%TO.N,RXDB*%
X107260000Y-95270000D03*
%TO.P,U6,8*%
%TO.N,-M1*%
X122500000Y-107970000D03*
%TO.P,U6,27*%
%TO.N,Net-(SW1-Pad1)*%
X107260000Y-92730000D03*
%TO.P,U6,7*%
%TO.N,Net-(U6-Pad7)*%
X122500000Y-110510000D03*
%TO.P,U6,26*%
%TO.N,TXDB*%
X107260000Y-90190000D03*
%TO.P,U6,6*%
%TO.N,Net-(R3-Pad2)*%
X122500000Y-113050000D03*
%TO.P,U6,25*%
%TO.N,DTRB*%
X107260000Y-87650000D03*
%TO.P,U6,5*%
%TO.N,N/C*%
X122500000Y-115590000D03*
%TO.P,U6,24*%
%TO.N,RTSB*%
X107260000Y-85110000D03*
%TO.P,U6,4*%
%TO.N,D7\u002A*%
X122500000Y-118130000D03*
%TO.P,U6,23*%
%TO.N,CTSB*%
X107260000Y-82570000D03*
%TO.P,U6,3*%
%TO.N,D5\u002A*%
X122500000Y-120670000D03*
%TO.P,U6,22*%
%TO.N,DCDB*%
X107260000Y-80030000D03*
%TO.P,U6,2*%
%TO.N,D3\u002A*%
X122500000Y-123210000D03*
%TO.P,U6,21*%
%TO.N,-RESET*%
X107260000Y-77490000D03*
D12*
%TO.P,U6,1*%
%TO.N,D1\u002A*%
X122500000Y-125750000D03*
%TD*%
D10*
%TO.P,C8,2*%
%TO.N,Net-(C8-Pad2)*%
X180000000Y-58000000D03*
D12*
%TO.P,C8,1*%
%TO.N,Net-(C8-Pad1)*%
X180000000Y-55500000D03*
%TD*%
D13*
%TO.P,JB1,2*%
%TO.N,Net-(J5-Pad8)*%
X194500000Y-119040000D03*
D14*
%TO.P,JB1,1*%
%TO.N,Net-(J5-Pad7)*%
X194500000Y-116500000D03*
%TD*%
D15*
%TO.P,U7,16*%
%TO.N,+5V*%
X193870000Y-55250000D03*
%TO.P,U7,8*%
%TO.N,Net-(J2-Pad2)*%
X186250000Y-73030000D03*
%TO.P,U7,15*%
%TO.N,GND*%
X193870000Y-57790000D03*
%TO.P,U7,7*%
%TO.N,Net-(J2-Pad3)*%
X186250000Y-70490000D03*
%TO.P,U7,14*%
%TO.N,Net-(J2-Pad7)*%
X193870000Y-60330000D03*
%TO.P,U7,6*%
%TO.N,Net-(C9-Pad2)*%
X186250000Y-67950000D03*
%TO.P,U7,13*%
%TO.N,Net-(J2-Pad8)*%
X193870000Y-62870000D03*
%TO.P,U7,5*%
%TO.N,Net-(C11-Pad2)*%
X186250000Y-65410000D03*
%TO.P,U7,12*%
%TO.N,CTSA*%
X193870000Y-65410000D03*
%TO.P,U7,4*%
%TO.N,Net-(C11-Pad1)*%
X186250000Y-62870000D03*
%TO.P,U7,11*%
%TO.N,RTSA*%
X193870000Y-67950000D03*
%TO.P,U7,3*%
%TO.N,Net-(C8-Pad2)*%
X186250000Y-60330000D03*
%TO.P,U7,10*%
%TO.N,TXDA*%
X193870000Y-70490000D03*
%TO.P,U7,2*%
%TO.N,Net-(C10-Pad1)*%
X186250000Y-57790000D03*
%TO.P,U7,9*%
%TO.N,RXDA*%
X193870000Y-73030000D03*
D12*
%TO.P,U7,1*%
%TO.N,Net-(C8-Pad1)*%
X186250000Y-55250000D03*
%TD*%
D13*
%TO.P,SIOB1,2*%
%TO.N,DCDB*%
X107696000Y-71750000D03*
D14*
%TO.P,SIOB1,1*%
%TO.N,DTRB*%
X110236000Y-71750000D03*
%TD*%
D13*
%TO.P,SIOA1,2*%
%TO.N,DCDA*%
X119253000Y-71750000D03*
D14*
%TO.P,SIOA1,1*%
%TO.N,DTRA*%
X121793000Y-71750000D03*
%TD*%
D15*
%TO.P,R3,2*%
%TO.N,Net-(R3-Pad2)*%
X126750000Y-113160000D03*
D10*
%TO.P,R3,1*%
%TO.N,+5V*%
X126750000Y-103000000D03*
%TD*%
D18*
%TO.P,C19,2*%
%TO.N,GND*%
X183000000Y-131000000D03*
%TO.P,C19,1*%
%TO.N,+5V*%
X183000000Y-136000000D03*
%TD*%
D13*
%TO.P,J4,26*%
%TO.N,GND*%
X139520000Y-104040000D03*
%TO.P,J4,25*%
X139520000Y-101500000D03*
%TO.P,J4,24*%
%TO.N,N/C*%
X142060000Y-104040000D03*
%TO.P,J4,23*%
X142060000Y-101500000D03*
%TO.P,J4,22*%
%TO.N,-BSTB*%
X144600000Y-104040000D03*
%TO.P,J4,21*%
%TO.N,-ASTY*%
X144600000Y-101500000D03*
%TO.P,J4,20*%
%TO.N,BRDY*%
X147140000Y-104040000D03*
%TO.P,J4,19*%
%TO.N,ARDY*%
X147140000Y-101500000D03*
%TO.P,J4,18*%
%TO.N,PB7*%
X149680000Y-104040000D03*
%TO.P,J4,17*%
%TO.N,PA7*%
X149680000Y-101500000D03*
%TO.P,J4,16*%
%TO.N,PB6*%
X152220000Y-104040000D03*
%TO.P,J4,15*%
%TO.N,PA6*%
X152220000Y-101500000D03*
%TO.P,J4,14*%
%TO.N,PB5*%
X154760000Y-104040000D03*
%TO.P,J4,13*%
%TO.N,PA5*%
X154760000Y-101500000D03*
%TO.P,J4,12*%
%TO.N,PB4*%
X157300000Y-104040000D03*
%TO.P,J4,11*%
%TO.N,PA4*%
X157300000Y-101500000D03*
%TO.P,J4,10*%
%TO.N,PB3*%
X159840000Y-104040000D03*
%TO.P,J4,9*%
%TO.N,PA3*%
X159840000Y-101500000D03*
%TO.P,J4,8*%
%TO.N,PB2*%
X162380000Y-104040000D03*
%TO.P,J4,7*%
%TO.N,PA2*%
X162380000Y-101500000D03*
%TO.P,J4,6*%
%TO.N,PB1*%
X164920000Y-104040000D03*
%TO.P,J4,5*%
%TO.N,PA1*%
X164920000Y-101500000D03*
%TO.P,J4,4*%
%TO.N,PB0*%
X167460000Y-104040000D03*
%TO.P,J4,3*%
%TO.N,PA0*%
X167460000Y-101500000D03*
%TO.P,J4,2*%
%TO.N,+5V*%
X170000000Y-104040000D03*
D14*
%TO.P,J4,1*%
X170000000Y-101500000D03*
%TD*%
D15*
%TO.P,U9,40*%
%TO.N,D3\u002A*%
X134500000Y-110760000D03*
%TO.P,U9,20*%
%TO.N,D1\u002A*%
X182760000Y-126000000D03*
%TO.P,U9,39*%
%TO.N,D4\u002A*%
X137040000Y-110760000D03*
%TO.P,U9,19*%
%TO.N,D0\u002A*%
X180220000Y-126000000D03*
%TO.P,U9,38*%
%TO.N,D5\u002A*%
X139580000Y-110760000D03*
%TO.P,U9,18*%
%TO.N,ARDY*%
X177680000Y-126000000D03*
%TO.P,U9,37*%
%TO.N,-M1*%
X142120000Y-110760000D03*
%TO.P,U9,17*%
%TO.N,-BSTB*%
X175140000Y-126000000D03*
%TO.P,U9,36*%
%TO.N,-IOREQ*%
X144660000Y-110760000D03*
%TO.P,U9,16*%
%TO.N,-ASTY*%
X172600000Y-126000000D03*
%TO.P,U9,35*%
%TO.N,-RD*%
X147200000Y-110760000D03*
%TO.P,U9,15*%
%TO.N,PA0*%
X170060000Y-126000000D03*
%TO.P,U9,34*%
%TO.N,PB7*%
X149740000Y-110760000D03*
%TO.P,U9,14*%
%TO.N,PA1*%
X167520000Y-126000000D03*
%TO.P,U9,33*%
%TO.N,PB6*%
X152280000Y-110760000D03*
%TO.P,U9,13*%
%TO.N,PA2*%
X164980000Y-126000000D03*
%TO.P,U9,32*%
%TO.N,PB5*%
X154820000Y-110760000D03*
%TO.P,U9,12*%
%TO.N,PA3*%
X162440000Y-126000000D03*
%TO.P,U9,31*%
%TO.N,PB4*%
X157360000Y-110760000D03*
%TO.P,U9,11*%
%TO.N,GND*%
X159900000Y-126000000D03*
%TO.P,U9,30*%
%TO.N,PB3*%
X159900000Y-110760000D03*
%TO.P,U9,10*%
%TO.N,PA4*%
X157360000Y-126000000D03*
%TO.P,U9,29*%
%TO.N,PB2*%
X162440000Y-110760000D03*
%TO.P,U9,9*%
%TO.N,PA5*%
X154820000Y-126000000D03*
%TO.P,U9,28*%
%TO.N,PB1*%
X164980000Y-110760000D03*
%TO.P,U9,8*%
%TO.N,PA6*%
X152280000Y-126000000D03*
%TO.P,U9,27*%
%TO.N,PB0*%
X167520000Y-110760000D03*
%TO.P,U9,7*%
%TO.N,PA7*%
X149740000Y-126000000D03*
%TO.P,U9,26*%
%TO.N,+5V*%
X170060000Y-110760000D03*
%TO.P,U9,6*%
%TO.N,A1*%
X147200000Y-126000000D03*
%TO.P,U9,25*%
%TO.N,CLOCK*%
X172600000Y-110760000D03*
%TO.P,U9,5*%
%TO.N,A0*%
X144660000Y-126000000D03*
%TO.P,U9,24*%
%TO.N,Net-(U6-Pad7)*%
X175140000Y-110760000D03*
%TO.P,U9,4*%
%TO.N,-CE-PIO*%
X142120000Y-126000000D03*
%TO.P,U9,23*%
%TO.N,N/C*%
X177680000Y-110760000D03*
%TO.P,U9,3*%
%TO.N,D6\u002A*%
X139580000Y-126000000D03*
%TO.P,U9,22*%
%TO.N,N/C*%
X180220000Y-110760000D03*
%TO.P,U9,2*%
%TO.N,D7\u002A*%
X137040000Y-126000000D03*
%TO.P,U9,21*%
%TO.N,BRDY*%
X182760000Y-110760000D03*
D12*
%TO.P,U9,1*%
%TO.N,D2\u002A*%
X134500000Y-126000000D03*
%TD*%
D15*
%TO.P,SW2,12*%
%TO.N,76\u002C6K_Baud*%
X114880000Y-62250000D03*
%TO.P,SW2,6*%
%TO.N,Net-(SW2-Pad1)*%
X122500000Y-49550000D03*
%TO.P,SW2,11*%
%TO.N,38\u002C4K_Baud*%
X114880000Y-59710000D03*
%TO.P,SW2,5*%
%TO.N,Net-(SW2-Pad1)*%
X122500000Y-52090000D03*
%TO.P,SW2,10*%
%TO.N,19\u002C2K_Baud*%
X114880000Y-57170000D03*
%TO.P,SW2,4*%
%TO.N,Net-(SW2-Pad1)*%
X122500000Y-54630000D03*
%TO.P,SW2,9*%
%TO.N,9\u002C6K_Baud*%
X114880000Y-54630000D03*
%TO.P,SW2,3*%
%TO.N,Net-(SW2-Pad1)*%
X122500000Y-57170000D03*
%TO.P,SW2,8*%
%TO.N,4\u002C8K_Baud*%
X114880000Y-52090000D03*
%TO.P,SW2,2*%
%TO.N,Net-(SW2-Pad1)*%
X122500000Y-59710000D03*
%TO.P,SW2,7*%
%TO.N,2\u002C4K_Baud*%
X114880000Y-49550000D03*
D12*
%TO.P,SW2,1*%
%TO.N,Net-(SW2-Pad1)*%
X122500000Y-62250000D03*
%TD*%
D15*
%TO.P,SW1,12*%
%TO.N,76\u002C6K_Baud*%
X100630000Y-62250000D03*
%TO.P,SW1,6*%
%TO.N,Net-(SW1-Pad1)*%
X108250000Y-49550000D03*
%TO.P,SW1,11*%
%TO.N,38\u002C4K_Baud*%
X100630000Y-59710000D03*
%TO.P,SW1,5*%
%TO.N,Net-(SW1-Pad1)*%
X108250000Y-52090000D03*
%TO.P,SW1,10*%
%TO.N,19\u002C2K_Baud*%
X100630000Y-57170000D03*
%TO.P,SW1,4*%
%TO.N,Net-(SW1-Pad1)*%
X108250000Y-54630000D03*
%TO.P,SW1,9*%
%TO.N,9\u002C6K_Baud*%
X100630000Y-54630000D03*
%TO.P,SW1,3*%
%TO.N,Net-(SW1-Pad1)*%
X108250000Y-57170000D03*
%TO.P,SW1,8*%
%TO.N,4\u002C8K_Baud*%
X100630000Y-52090000D03*
%TO.P,SW1,2*%
%TO.N,Net-(SW1-Pad1)*%
X108250000Y-59710000D03*
%TO.P,SW1,7*%
%TO.N,2\u002C4K_Baud*%
X100630000Y-49550000D03*
D12*
%TO.P,SW1,1*%
%TO.N,Net-(SW1-Pad1)*%
X108250000Y-62250000D03*
%TD*%
D15*
%TO.P,U8,16*%
%TO.N,+5V*%
X194084759Y-88650000D03*
%TO.P,U8,8*%
%TO.N,Net-(J5-Pad2)*%
X186464759Y-106430000D03*
%TO.P,U8,15*%
%TO.N,GND*%
X194084759Y-91190000D03*
%TO.P,U8,7*%
%TO.N,Net-(J5-Pad3)*%
X186464759Y-103890000D03*
%TO.P,U8,14*%
%TO.N,Net-(J5-Pad7)*%
X194084759Y-93730000D03*
%TO.P,U8,6*%
%TO.N,Net-(C13-Pad2)*%
X186464759Y-101350000D03*
%TO.P,U8,13*%
%TO.N,Net-(J5-Pad8)*%
X194084759Y-96270000D03*
%TO.P,U8,5*%
%TO.N,Net-(C17-Pad2)*%
X186464759Y-98810000D03*
%TO.P,U8,12*%
%TO.N,CTSB*%
X194084759Y-98810000D03*
%TO.P,U8,4*%
%TO.N,Net-(C17-Pad1)*%
X186464759Y-96270000D03*
%TO.P,U8,11*%
%TO.N,RTSB*%
X194084759Y-101350000D03*
%TO.P,U8,3*%
%TO.N,Net-(C15-Pad2)*%
X186464759Y-93730000D03*
%TO.P,U8,10*%
%TO.N,TXDB*%
X194084759Y-103890000D03*
%TO.P,U8,2*%
%TO.N,Net-(C14-Pad1)*%
X186464759Y-91190000D03*
%TO.P,U8,9*%
%TO.N,RXDB*%
X194084759Y-106430000D03*
D12*
%TO.P,U8,1*%
%TO.N,Net-(C15-Pad1)*%
X186464759Y-88650000D03*
%TD*%
D10*
%TO.P,C17,2*%
%TO.N,Net-(C17-Pad2)*%
X180000000Y-98500000D03*
D12*
%TO.P,C17,1*%
%TO.N,Net-(C17-Pad1)*%
X180000000Y-96000000D03*
%TD*%
D10*
%TO.P,C16,2*%
%TO.N,GND*%
X187500000Y-47250000D03*
D12*
%TO.P,C16,1*%
%TO.N,+5V*%
X187500000Y-49750000D03*
%TD*%
D10*
%TO.P,C15,2*%
%TO.N,Net-(C15-Pad2)*%
X180000000Y-91000000D03*
D12*
%TO.P,C15,1*%
%TO.N,Net-(C15-Pad1)*%
X180000000Y-88500000D03*
%TD*%
D10*
%TO.P,C14,2*%
%TO.N,GND*%
X180000000Y-81000000D03*
D12*
%TO.P,C14,1*%
%TO.N,Net-(C14-Pad1)*%
X180000000Y-83500000D03*
%TD*%
D10*
%TO.P,C12,2*%
%TO.N,GND*%
X201250000Y-91000000D03*
D12*
%TO.P,C12,1*%
%TO.N,+5V*%
X201250000Y-88500000D03*
%TD*%
D10*
%TO.P,C11,2*%
%TO.N,Net-(C11-Pad2)*%
X180000000Y-65500000D03*
D12*
%TO.P,C11,1*%
%TO.N,Net-(C11-Pad1)*%
X180000000Y-63000000D03*
%TD*%
D10*
%TO.P,C10,2*%
%TO.N,GND*%
X180000000Y-47500000D03*
D12*
%TO.P,C10,1*%
%TO.N,Net-(C10-Pad1)*%
X180000000Y-50000000D03*
%TD*%
D10*
%TO.P,C9,2*%
%TO.N,Net-(C9-Pad2)*%
X180000000Y-70500000D03*
D12*
%TO.P,C9,1*%
%TO.N,GND*%
X180000000Y-73000000D03*
%TD*%
D15*
%TO.P,U3,14*%
%TO.N,+5V*%
X73250000Y-102380000D03*
%TO.P,U3,7*%
%TO.N,GND*%
X88490000Y-110000000D03*
%TO.P,U3,13*%
%TO.N,Net-(U3-Pad12)*%
X75790000Y-102380000D03*
%TO.P,U3,6*%
%TO.N,Net-(U3-Pad6)*%
X85950000Y-110000000D03*
%TO.P,U3,12*%
%TO.N,Net-(U3-Pad12)*%
X78330000Y-102380000D03*
%TO.P,U3,5*%
%TO.N,A6*%
X83410000Y-110000000D03*
%TO.P,U3,11*%
%TO.N,-CS_DATA*%
X80870000Y-102380000D03*
%TO.P,U3,4*%
%TO.N,A7*%
X80870000Y-110000000D03*
%TO.P,U3,10*%
%TO.N,-CE-PIO*%
X83410000Y-102380000D03*
%TO.P,U3,3*%
%TO.N,Net-(U3-Pad3)*%
X78330000Y-110000000D03*
%TO.P,U3,9*%
%TO.N,-CE-SIO*%
X85950000Y-102380000D03*
%TO.P,U3,2*%
%TO.N,A4*%
X75790000Y-110000000D03*
%TO.P,U3,8*%
%TO.N,Net-(U3-Pad12)*%
X88490000Y-102380000D03*
D12*
%TO.P,U3,1*%
%TO.N,A5*%
X73250000Y-110000000D03*
%TD*%
D19*
%TO.P,J1,C32*%
%TO.N,GND*%
X60330000Y-50510000D03*
%TO.P,J1,C31*%
%TO.N,-RESET*%
X60330000Y-53050000D03*
%TO.P,J1,C30*%
%TO.N,N/C*%
X60330000Y-55590000D03*
%TO.P,J1,C29*%
%TO.N,CLOCK*%
X60330000Y-58130000D03*
%TO.P,J1,C28*%
%TO.N,N/C*%
X60330000Y-60670000D03*
%TO.P,J1,C27*%
X60330000Y-63210000D03*
%TO.P,J1,C26*%
X60330000Y-65750000D03*
%TO.P,J1,C25*%
X60330000Y-68290000D03*
%TO.P,J1,C24*%
%TO.N,-RD*%
X60330000Y-70830000D03*
%TO.P,J1,C23*%
%TO.N,N/C*%
X60330000Y-73370000D03*
%TO.P,J1,C22*%
X60330000Y-75910000D03*
%TO.P,J1,C21*%
X60330000Y-78450000D03*
%TO.P,J1,C20*%
X60330000Y-80990000D03*
%TO.P,J1,C19*%
X60330000Y-83530000D03*
%TO.P,J1,C18*%
X60330000Y-86070000D03*
%TO.P,J1,C17*%
X60330000Y-88610000D03*
%TO.P,J1,C16*%
%TO.N,Net-(J1-PadC11)*%
X60330000Y-91150000D03*
%TO.P,J1,C15*%
%TO.N,N/C*%
X60330000Y-93690000D03*
%TO.P,J1,C14*%
%TO.N,D1*%
X60330000Y-96230000D03*
%TO.P,J1,C13*%
%TO.N,N/C*%
X60330000Y-98770000D03*
%TO.P,J1,C12*%
X60330000Y-101310000D03*
%TO.P,J1,C11*%
%TO.N,Net-(J1-PadC11)*%
X60330000Y-103850000D03*
%TO.P,J1,C10*%
%TO.N,N/C*%
X60330000Y-106390000D03*
%TO.P,J1,C9*%
%TO.N,A7*%
X60330000Y-108930000D03*
%TO.P,J1,C8*%
%TO.N,N/C*%
X60330000Y-111470000D03*
%TO.P,J1,C7*%
%TO.N,A1*%
X60330000Y-114010000D03*
%TO.P,J1,C6*%
%TO.N,A3*%
X60330000Y-116550000D03*
%TO.P,J1,C5*%
%TO.N,A0*%
X60330000Y-119090000D03*
%TO.P,J1,C4*%
%TO.N,D2*%
X60330000Y-121630000D03*
%TO.P,J1,C3*%
%TO.N,D7*%
X60330000Y-124170000D03*
%TO.P,J1,C2*%
%TO.N,D0*%
X60330000Y-126710000D03*
%TO.P,J1,C1*%
%TO.N,+5V*%
X60330000Y-129250000D03*
%TO.P,J1,A32*%
%TO.N,GND*%
X55250000Y-50510000D03*
%TO.P,J1,A31*%
%TO.N,N/C*%
X55250000Y-53050000D03*
%TO.P,J1,A30*%
X55250000Y-55590000D03*
%TO.P,J1,A29*%
X55250000Y-58130000D03*
%TO.P,J1,A28*%
X55250000Y-60670000D03*
%TO.P,J1,A27*%
%TO.N,-IOREQ*%
X55250000Y-63210000D03*
%TO.P,J1,A26*%
%TO.N,N/C*%
X55250000Y-65750000D03*
%TO.P,J1,A25*%
X55250000Y-68290000D03*
%TO.P,J1,A24*%
X55250000Y-70830000D03*
%TO.P,J1,A23*%
X55250000Y-73370000D03*
%TO.P,J1,A22*%
X55250000Y-75910000D03*
%TO.P,J1,A21*%
X55250000Y-78450000D03*
%TO.P,J1,A20*%
%TO.N,-M1*%
X55250000Y-80990000D03*
%TO.P,J1,A19*%
%TO.N,N/C*%
X55250000Y-83530000D03*
%TO.P,J1,A18*%
X55250000Y-86070000D03*
%TO.P,J1,A17*%
X55250000Y-88610000D03*
%TO.P,J1,A16*%
X55250000Y-91150000D03*
%TO.P,J1,A15*%
X55250000Y-93690000D03*
%TO.P,J1,A14*%
X55250000Y-96230000D03*
%TO.P,J1,A13*%
X55250000Y-98770000D03*
%TO.P,J1,A12*%
X55250000Y-101310000D03*
%TO.P,J1,A11*%
X55250000Y-103850000D03*
%TO.P,J1,A10*%
X55250000Y-106390000D03*
%TO.P,J1,A9*%
%TO.N,A6*%
X55250000Y-108930000D03*
%TO.P,J1,A8*%
%TO.N,A5*%
X55250000Y-111470000D03*
%TO.P,J1,A7*%
%TO.N,A4*%
X55250000Y-114010000D03*
%TO.P,J1,A6*%
%TO.N,A2*%
X55250000Y-116550000D03*
%TO.P,J1,A5*%
%TO.N,D4*%
X55250000Y-119090000D03*
%TO.P,J1,A4*%
%TO.N,D3*%
X55250000Y-121630000D03*
%TO.P,J1,A3*%
%TO.N,D6*%
X55250000Y-124170000D03*
%TO.P,J1,A2*%
%TO.N,D5*%
X55250000Y-126710000D03*
%TO.P,J1,A1*%
%TO.N,+5V*%
%TA.AperFunction,ComponentPad*%
G36*
G01*
X55775450Y-130025000D02*
X54724550Y-130025000D01*
G75*
G02*
X54475000Y-129775450I0J249550D01*
G01*
X54475000Y-128724550D01*
G75*
G02*
X54724550Y-128475000I249550J0D01*
G01*
X55775450Y-128475000D01*
G75*
G02*
X56025000Y-128724550I0J-249550D01*
G01*
X56025000Y-129775450D01*
G75*
G02*
X55775450Y-130025000I-249550J0D01*
G01*
G37*
%TD.AperFunction*%
%TD*%
D20*
%TO.P,Y1,2*%
%TO.N,Net-(R2-Pad1)*%
X78250000Y-70400000D03*
%TO.P,Y1,1*%
%TO.N,Net-(R1-Pad2)*%
X78250000Y-65500000D03*
%TD*%
D15*
%TO.P,U5,20*%
%TO.N,+5V*%
X73250000Y-117880000D03*
%TO.P,U5,10*%
%TO.N,GND*%
X96110000Y-125500000D03*
%TO.P,U5,19*%
%TO.N,-CS_DATA*%
X75790000Y-117880000D03*
%TO.P,U5,9*%
%TO.N,D7*%
X93570000Y-125500000D03*
%TO.P,U5,18*%
%TO.N,D0\u002A*%
X78330000Y-117880000D03*
%TO.P,U5,8*%
%TO.N,D6*%
X91030000Y-125500000D03*
%TO.P,U5,17*%
%TO.N,D1\u002A*%
X80870000Y-117880000D03*
%TO.P,U5,7*%
%TO.N,D5*%
X88490000Y-125500000D03*
%TO.P,U5,16*%
%TO.N,D2\u002A*%
X83410000Y-117880000D03*
%TO.P,U5,6*%
%TO.N,D4*%
X85950000Y-125500000D03*
%TO.P,U5,15*%
%TO.N,D3\u002A*%
X85950000Y-117880000D03*
%TO.P,U5,5*%
%TO.N,D3*%
X83410000Y-125500000D03*
%TO.P,U5,14*%
%TO.N,D4\u002A*%
X88490000Y-117880000D03*
%TO.P,U5,4*%
%TO.N,D2*%
X80870000Y-125500000D03*
%TO.P,U5,13*%
%TO.N,D5\u002A*%
X91030000Y-117880000D03*
%TO.P,U5,3*%
%TO.N,D1*%
X78330000Y-125500000D03*
%TO.P,U5,12*%
%TO.N,D6\u002A*%
X93570000Y-117880000D03*
%TO.P,U5,2*%
%TO.N,D0*%
X75790000Y-125500000D03*
%TO.P,U5,11*%
%TO.N,D7\u002A*%
X96110000Y-117880000D03*
D12*
%TO.P,U5,1*%
%TO.N,-RD*%
X73250000Y-125500000D03*
%TD*%
D15*
%TO.P,U4,16*%
%TO.N,+5V*%
X73000000Y-90380000D03*
%TO.P,U4,8*%
%TO.N,GND*%
X90780000Y-98000000D03*
%TO.P,U4,15*%
%TO.N,-CE-SIO*%
X75540000Y-90380000D03*
%TO.P,U4,7*%
%TO.N,N/C*%
X88240000Y-98000000D03*
%TO.P,U4,14*%
%TO.N,-CE-PIO*%
X78080000Y-90380000D03*
%TO.P,U4,6*%
%TO.N,Net-(U1-Pad6)*%
X85700000Y-98000000D03*
%TO.P,U4,13*%
%TO.N,N/C*%
X80620000Y-90380000D03*
%TO.P,U4,5*%
%TO.N,Net-(U3-Pad6)*%
X83160000Y-98000000D03*
%TO.P,U4,12*%
%TO.N,N/C*%
X83160000Y-90380000D03*
%TO.P,U4,4*%
%TO.N,Net-(U3-Pad3)*%
X80620000Y-98000000D03*
%TO.P,U4,11*%
%TO.N,N/C*%
X85700000Y-90380000D03*
%TO.P,U4,3*%
%TO.N,GND*%
X78080000Y-98000000D03*
%TO.P,U4,10*%
%TO.N,N/C*%
X88240000Y-90380000D03*
%TO.P,U4,2*%
%TO.N,A3*%
X75540000Y-98000000D03*
%TO.P,U4,9*%
%TO.N,N/C*%
X90780000Y-90380000D03*
D12*
%TO.P,U4,1*%
%TO.N,A2*%
X73000000Y-98000000D03*
%TD*%
D15*
%TO.P,U2,14*%
%TO.N,+5V*%
X72500000Y-48880000D03*
%TO.P,U2,7*%
%TO.N,GND*%
X87740000Y-56500000D03*
%TO.P,U2,13*%
%TO.N,9\u002C6K_Baud*%
X75040000Y-48880000D03*
%TO.P,U2,6*%
X85200000Y-56500000D03*
%TO.P,U2,12*%
%TO.N,GND*%
X77580000Y-48880000D03*
%TO.P,U2,5*%
%TO.N,19\u002C2K_Baud*%
X82660000Y-56500000D03*
%TO.P,U2,11*%
%TO.N,4\u002C8K_Baud*%
X80120000Y-48880000D03*
%TO.P,U2,4*%
%TO.N,38\u002C4K_Baud*%
X80120000Y-56500000D03*
%TO.P,U2,10*%
%TO.N,2\u002C4K_Baud*%
X82660000Y-48880000D03*
%TO.P,U2,3*%
%TO.N,76\u002C6K_Baud*%
X77580000Y-56500000D03*
%TO.P,U2,9*%
%TO.N,N/C*%
X85200000Y-48880000D03*
%TO.P,U2,2*%
%TO.N,GND*%
X75040000Y-56500000D03*
%TO.P,U2,8*%
%TO.N,N/C*%
X87740000Y-48880000D03*
D12*
%TO.P,U2,1*%
%TO.N,Net-(U1-Pad8)*%
X72500000Y-56500000D03*
%TD*%
D15*
%TO.P,U1,14*%
%TO.N,+5V*%
X73000000Y-76130000D03*
%TO.P,U1,7*%
%TO.N,GND*%
X88240000Y-83750000D03*
%TO.P,U1,13*%
%TO.N,Net-(R1-Pad2)*%
X75540000Y-76130000D03*
%TO.P,U1,6*%
%TO.N,Net-(U1-Pad6)*%
X85700000Y-83750000D03*
%TO.P,U1,12*%
%TO.N,Net-(R1-Pad1)*%
X78080000Y-76130000D03*
%TO.P,U1,5*%
%TO.N,-IOREQ*%
X83160000Y-83750000D03*
%TO.P,U1,11*%
%TO.N,Net-(R1-Pad1)*%
X80620000Y-76130000D03*
%TO.P,U1,4*%
%TO.N,Net-(LED2-Pad2)*%
X80620000Y-83750000D03*
%TO.P,U1,10*%
%TO.N,Net-(R2-Pad1)*%
X83160000Y-76130000D03*
%TO.P,U1,3*%
%TO.N,-CE-PIO*%
X78080000Y-83750000D03*
%TO.P,U1,9*%
%TO.N,Net-(R2-Pad1)*%
X85700000Y-76130000D03*
%TO.P,U1,2*%
%TO.N,Net-(LED1-Pad2)*%
X75540000Y-83750000D03*
%TO.P,U1,8*%
%TO.N,Net-(U1-Pad8)*%
X88240000Y-76130000D03*
D12*
%TO.P,U1,1*%
%TO.N,-CE-SIO*%
X73000000Y-83750000D03*
%TD*%
D15*
%TO.P,R2,2*%
%TO.N,Net-(R1-Pad1)*%
X83500000Y-62840000D03*
D10*
%TO.P,R2,1*%
%TO.N,Net-(R2-Pad1)*%
X83500000Y-73000000D03*
%TD*%
D15*
%TO.P,R1,2*%
%TO.N,Net-(R1-Pad2)*%
X72750000Y-72910000D03*
D10*
%TO.P,R1,1*%
%TO.N,Net-(R1-Pad1)*%
X72750000Y-62750000D03*
%TD*%
D18*
%TO.P,C7,2*%
%TO.N,GND*%
X102750000Y-128750000D03*
%TO.P,C7,1*%
%TO.N,+5V*%
X102750000Y-133750000D03*
%TD*%
%TO.P,C6,2*%
%TO.N,GND*%
X84500000Y-113500000D03*
%TO.P,C6,1*%
%TO.N,+5V*%
X79500000Y-113500000D03*
%TD*%
%TO.P,C5,2*%
%TO.N,GND*%
X193000000Y-44250000D03*
%TO.P,C5,1*%
%TO.N,+5V*%
X193000000Y-49250000D03*
%TD*%
%TO.P,C4,2*%
%TO.N,GND*%
X68000000Y-82500000D03*
%TO.P,C4,1*%
%TO.N,+5V*%
X68000000Y-77500000D03*
%TD*%
%TO.P,C3,2*%
%TO.N,GND*%
X112500000Y-104500000D03*
%TO.P,C3,1*%
%TO.N,+5V*%
X117500000Y-104500000D03*
%TD*%
D10*
%TO.P,C2,2*%
%TO.N,GND*%
X96000000Y-131250000D03*
D12*
%TO.P,C2,1*%
%TO.N,+5V*%
X96000000Y-133750000D03*
%TD*%
D10*
%TO.P,C1,2*%
%TO.N,GND*%
X65250000Y-50500000D03*
D12*
%TO.P,C1,1*%
%TO.N,+5V*%
X67750000Y-50500000D03*
%TD*%
D21*
%TO.N,+5V*%
X70750000Y-136250000D03*
D22*
%TO.N,-IOREQ*%
X97500000Y-115500000D03*
D21*
X144709999Y-116790001D03*
%TO.N,-CE-PIO*%
X83500000Y-106000000D03*
X87500000Y-106000000D03*
X109559999Y-109309999D03*
X113750000Y-128500000D03*
X120750000Y-128500000D03*
D22*
%TO.N,-CE-SIO*%
X84000000Y-88500000D03*
%TO.N,A3*%
X67500000Y-100000000D03*
X67500000Y-115000000D03*
%TO.N,A2*%
X57500000Y-98000000D03*
%TO.N,D7*%
X66420000Y-124170000D03*
X66500000Y-130750000D03*
%TO.N,D6*%
X67750000Y-129750000D03*
X67750000Y-123000000D03*
%TO.N,D5*%
X65300010Y-125500000D03*
X65300010Y-128750000D03*
D21*
%TO.N,D3\u002A*%
X134460000Y-123210000D03*
%TO.N,D4\u002A*%
X138250000Y-121250000D03*
%TO.N,D5\u002A*%
X132330000Y-120670000D03*
X132500000Y-112750000D03*
D22*
%TO.N,D1*%
X69000000Y-123000000D03*
X69000000Y-96250000D03*
%TO.N,D6\u002A*%
X99620000Y-118130000D03*
D21*
%TO.N,D7\u002A*%
X136870000Y-118130000D03*
D22*
%TO.N,-RD*%
X73250000Y-132250000D03*
X64000000Y-130750000D03*
X147250000Y-115750000D03*
X96000000Y-105750000D03*
X96000000Y-116000000D03*
%TO.N,-RESET*%
X97500000Y-77500000D03*
%TO.N,CLOCK*%
X131000000Y-113750000D03*
X97418000Y-75302000D03*
X119126000Y-75311000D03*
%TO.N,A1*%
X93250000Y-111750000D03*
D21*
X120750000Y-131250000D03*
X111000000Y-131250000D03*
D22*
%TO.N,A0*%
X94750000Y-112000000D03*
X67500000Y-116250000D03*
X67500000Y-119000000D03*
D21*
X121750000Y-130000000D03*
X112500000Y-129750000D03*
X112349999Y-111849999D03*
D22*
%TO.N,-M1*%
X93250000Y-104000000D03*
%TO.N,RXDA*%
X137648000Y-97810000D03*
%TO.N,-BSTB*%
X143459999Y-119459999D03*
X174959999Y-119459999D03*
%TO.N,-ASTY*%
X172600000Y-121350000D03*
X146100000Y-121350000D03*
%TO.N,ARDY*%
X148400001Y-122650001D03*
%TO.N,Net-(LED1-Pad2)*%
X89500000Y-81500000D03*
%TO.N,Net-(LED2-Pad2)*%
X84500000Y-86000000D03*
%TD*%
D23*
%TO.N,GND*%
X96110000Y-131140000D02*
X96000000Y-131250000D01*
X102750000Y-128750000D02*
X96500000Y-128750000D01*
X96500000Y-128750000D02*
X96110000Y-129140000D01*
X96110000Y-129140000D02*
X96110000Y-131140000D01*
X96110000Y-125500000D02*
X96110000Y-129140000D01*
D24*
X55250000Y-50510000D02*
X60330000Y-50510000D01*
D25*
X60330000Y-50510000D02*
X60330000Y-49420000D01*
X60330000Y-49420000D02*
X65750000Y-44000000D01*
D23*
X88240000Y-83750000D02*
X91750000Y-83750000D01*
X91750000Y-83750000D02*
X93250000Y-85250000D01*
X93250000Y-85250000D02*
X93250000Y-97000000D01*
X92250000Y-98000000D02*
X90780000Y-98000000D01*
X93250000Y-97000000D02*
X92250000Y-98000000D01*
X107260000Y-102890000D02*
X96640000Y-102890000D01*
X91750000Y-98000000D02*
X90780000Y-98000000D01*
X96640000Y-102890000D02*
X91750000Y-98000000D01*
D24*
X60340000Y-50500000D02*
X60330000Y-50510000D01*
X65250000Y-50500000D02*
X60340000Y-50500000D01*
D26*
X77580000Y-44080000D02*
X77500000Y-44000000D01*
X77580000Y-48880000D02*
X77580000Y-44080000D01*
D25*
X77500000Y-44000000D02*
X90750000Y-44000000D01*
X65750000Y-44000000D02*
X77500000Y-44000000D01*
D24*
X91750000Y-45000000D02*
X90750000Y-44000000D01*
X91250000Y-56500000D02*
X91750000Y-57000000D01*
X87740000Y-56500000D02*
X91250000Y-56500000D01*
X91750000Y-57000000D02*
X91750000Y-45000000D01*
X91750000Y-83750000D02*
X91750000Y-57000000D01*
D27*
X170500000Y-44250000D02*
X170250000Y-44000000D01*
D25*
X102000000Y-44000000D02*
X90750000Y-44000000D01*
X102250000Y-44250000D02*
X102000000Y-44000000D01*
X161500000Y-44250000D02*
X102250000Y-44250000D01*
D26*
X107260000Y-102890000D02*
X112140000Y-102890000D01*
X112500000Y-103250000D02*
X112500000Y-104500000D01*
X112140000Y-102890000D02*
X112500000Y-103250000D01*
D25*
X186750000Y-44250000D02*
X193000000Y-44250000D01*
D27*
X180000000Y-45500000D02*
X178750000Y-44250000D01*
X180000000Y-47500000D02*
X180000000Y-45500000D01*
D25*
X178750000Y-44250000D02*
X186750000Y-44250000D01*
X183000000Y-131000000D02*
X201359000Y-131000000D01*
X201359000Y-131000000D02*
X207645000Y-124714000D01*
X207645000Y-52451000D02*
X206121000Y-50927000D01*
X206121000Y-50927000D02*
X201041000Y-50927000D01*
X194364000Y-44250000D02*
X193000000Y-44250000D01*
X201041000Y-50927000D02*
X194364000Y-44250000D01*
D23*
X199500000Y-63420000D02*
X201579000Y-61341000D01*
X206629000Y-61341000D02*
X207645000Y-60325000D01*
X201579000Y-61341000D02*
X206629000Y-61341000D01*
D25*
X207645000Y-60325000D02*
X207645000Y-52451000D01*
D23*
X193870000Y-57790000D02*
X195458000Y-57790000D01*
X199500000Y-61832000D02*
X199500000Y-63420000D01*
X195458000Y-57790000D02*
X199500000Y-61832000D01*
D26*
X201060000Y-91190000D02*
X201250000Y-91000000D01*
X207500000Y-91000000D02*
X207645000Y-90855000D01*
X201250000Y-91000000D02*
X207500000Y-91000000D01*
D25*
X207645000Y-90855000D02*
X207645000Y-60325000D01*
D26*
X187500000Y-45000000D02*
X186750000Y-44250000D01*
X187500000Y-47250000D02*
X187500000Y-45000000D01*
X199500000Y-105210000D02*
X200710000Y-104000000D01*
X206750000Y-104000000D02*
X207645000Y-103105000D01*
X200710000Y-104000000D02*
X206750000Y-104000000D01*
D25*
X207645000Y-103105000D02*
X207645000Y-90855000D01*
X207645000Y-124714000D02*
X207645000Y-103105000D01*
X163000000Y-44250000D02*
X161500000Y-44250000D01*
D23*
X172720000Y-44450000D02*
X172520000Y-44250000D01*
D25*
X172520000Y-44250000D02*
X178750000Y-44250000D01*
X163000000Y-44250000D02*
X172520000Y-44250000D01*
D23*
%TO.N,+5V*%
X172720000Y-49530000D02*
X172720000Y-85090000D01*
X73250000Y-117880000D02*
X71620000Y-117880000D01*
X71620000Y-117880000D02*
X70750000Y-118750000D01*
X70750000Y-118750000D02*
X70750000Y-136250000D01*
X71120000Y-90380000D02*
X73000000Y-90380000D01*
X70750000Y-90750000D02*
X71120000Y-90380000D01*
X71380000Y-102380000D02*
X70750000Y-101750000D01*
X73250000Y-102380000D02*
X71380000Y-102380000D01*
X70750000Y-101750000D02*
X70750000Y-90750000D01*
X70750000Y-118750000D02*
X70750000Y-101750000D01*
X73000000Y-76130000D02*
X72370000Y-76130000D01*
X70750000Y-77750000D02*
X70750000Y-90750000D01*
X72370000Y-76130000D02*
X70750000Y-77750000D01*
D24*
X69370000Y-48880000D02*
X67750000Y-50500000D01*
X72500000Y-48880000D02*
X69370000Y-48880000D01*
D28*
X126750000Y-103000000D02*
X126750000Y-104500000D01*
X125820000Y-105430000D02*
X122500000Y-105430000D01*
X126750000Y-104500000D02*
X125820000Y-105430000D01*
D24*
X67750000Y-77250000D02*
X68000000Y-77500000D01*
X67750000Y-50500000D02*
X67750000Y-77250000D01*
X69370000Y-76130000D02*
X73000000Y-76130000D01*
X68000000Y-77500000D02*
X69370000Y-76130000D01*
D26*
X73250000Y-117880000D02*
X73250000Y-115500000D01*
X75250000Y-113500000D02*
X79500000Y-113500000D01*
X73250000Y-115500000D02*
X75250000Y-113500000D01*
D23*
X170000000Y-110700000D02*
X170060000Y-110760000D01*
D26*
X201100000Y-88650000D02*
X201250000Y-88500000D01*
D23*
X185180000Y-52070000D02*
X187500000Y-49750000D01*
X172720000Y-52070000D02*
X185180000Y-52070000D01*
D28*
%TO.N,Net-(R1-Pad2)*%
X78250000Y-65500000D02*
X75500000Y-65500000D01*
X72750000Y-68250000D02*
X72750000Y-72910000D01*
X75500000Y-65500000D02*
X72750000Y-68250000D01*
X72750000Y-72910000D02*
X74160000Y-72910000D01*
X75540000Y-74290000D02*
X75540000Y-76130000D01*
X74160000Y-72910000D02*
X75540000Y-74290000D01*
%TO.N,Net-(R1-Pad1)*%
X83500000Y-62840000D02*
X83500000Y-66500000D01*
X83500000Y-66500000D02*
X81500000Y-68500000D01*
X81500000Y-68500000D02*
X76750000Y-68500000D01*
X76750000Y-68500000D02*
X76000000Y-69250000D01*
X76000000Y-69250000D02*
X76000000Y-72750000D01*
X78080000Y-74830000D02*
X78080000Y-76130000D01*
X76000000Y-72750000D02*
X78080000Y-74830000D01*
X82410000Y-61750000D02*
X83500000Y-62840000D01*
X73750000Y-61750000D02*
X82410000Y-61750000D01*
X72750000Y-62750000D02*
X73750000Y-61750000D01*
%TO.N,Net-(R2-Pad1)*%
X78250000Y-70400000D02*
X83150000Y-70400000D01*
X83500000Y-70750000D02*
X83500000Y-73000000D01*
X83150000Y-70400000D02*
X83500000Y-70750000D01*
X83500000Y-75790000D02*
X83160000Y-76130000D01*
X83500000Y-73000000D02*
X83500000Y-75790000D01*
%TO.N,Net-(U1-Pad6)*%
X85700000Y-83750000D02*
X85700000Y-85700000D01*
X85700000Y-85700000D02*
X87000000Y-87000000D01*
X87000000Y-87000000D02*
X87000000Y-95250000D01*
X85700000Y-96550000D02*
X85700000Y-98000000D01*
X87000000Y-95250000D02*
X85700000Y-96550000D01*
%TO.N,-IOREQ*%
X107170000Y-115500000D02*
X107260000Y-115590000D01*
X97500000Y-115500000D02*
X107170000Y-115500000D01*
X107260000Y-115590000D02*
X118090000Y-115590000D01*
X118090000Y-115590000D02*
X119290001Y-116790001D01*
X130709999Y-116790001D02*
X144709999Y-116790001D01*
X119290001Y-116790001D02*
X130709999Y-116790001D01*
%TO.N,Net-(U1-Pad8)*%
X72500000Y-56500000D02*
X72500000Y-59750000D01*
X72500000Y-59750000D02*
X73250000Y-60500000D01*
X73250000Y-60500000D02*
X86750000Y-60500000D01*
X88240000Y-61990000D02*
X88240000Y-76130000D01*
X86750000Y-60500000D02*
X88240000Y-61990000D01*
D26*
%TO.N,9\u002C6K_Baud*%
X75040000Y-48880000D02*
X75040000Y-50540000D01*
X75040000Y-50540000D02*
X77750000Y-53250000D01*
X77750000Y-53250000D02*
X83750000Y-53250000D01*
X85200000Y-54700000D02*
X85200000Y-56500000D01*
X83750000Y-53250000D02*
X85200000Y-54700000D01*
D28*
%TO.N,Net-(U3-Pad6)*%
X83160000Y-98000000D02*
X83160000Y-99160000D01*
X84610001Y-100610001D02*
X84610001Y-107360001D01*
X83160000Y-99160000D02*
X84610001Y-100610001D01*
X85950000Y-108700000D02*
X85950000Y-110000000D01*
X84610001Y-107360001D02*
X85950000Y-108700000D01*
%TO.N,-CS_DATA*%
X75790000Y-116710000D02*
X75790000Y-117880000D01*
X77100010Y-115399990D02*
X75790000Y-116710000D01*
X80850010Y-115399990D02*
X77100010Y-115399990D01*
X82070001Y-114179999D02*
X80850010Y-115399990D01*
X82070001Y-106070001D02*
X82070001Y-114179999D01*
X80870000Y-104870000D02*
X82070001Y-106070001D01*
X80870000Y-102380000D02*
X80870000Y-104870000D01*
%TO.N,-CE-PIO*%
X83410000Y-101660000D02*
X83410000Y-102380000D01*
X83410000Y-102380000D02*
X83410000Y-105910000D01*
X83500000Y-106000000D02*
X83410000Y-105910000D01*
X88269999Y-106769999D02*
X103019999Y-106769999D01*
X87500000Y-106000000D02*
X88269999Y-106769999D01*
X105559999Y-109309999D02*
X108809999Y-109309999D01*
X103019999Y-106769999D02*
X105559999Y-109309999D01*
X108809999Y-109309999D02*
X109559999Y-109309999D01*
X113750000Y-128500000D02*
X120750000Y-128500000D01*
X78080000Y-83750000D02*
X78080000Y-90380000D01*
D29*
X78080000Y-91080000D02*
X78080000Y-90380000D01*
X78080000Y-90380000D02*
X78080000Y-92080000D01*
X78080000Y-92080000D02*
X79000000Y-93000000D01*
X79000000Y-93000000D02*
X81000000Y-93000000D01*
X81000000Y-93000000D02*
X82000000Y-94000000D01*
X82000000Y-100250000D02*
X83410000Y-101660000D01*
X82000000Y-94000000D02*
X82000000Y-100250000D01*
D28*
%TO.N,Net-(U3-Pad3)*%
X80620000Y-98000000D02*
X80620000Y-99130000D01*
X79669999Y-100080001D02*
X79669999Y-106669999D01*
X80620000Y-99130000D02*
X79669999Y-100080001D01*
X78330000Y-108009998D02*
X78330000Y-110000000D01*
X79669999Y-106669999D02*
X78330000Y-108009998D01*
%TO.N,-CE-SIO*%
X85950000Y-100700000D02*
X85950000Y-102380000D01*
X84499999Y-88999999D02*
X84499999Y-99249999D01*
X84000000Y-88500000D02*
X84000000Y-88500000D01*
X84499999Y-99249999D02*
X85950000Y-100700000D01*
X85950000Y-102380000D02*
X85950000Y-106950000D01*
X85950000Y-106950000D02*
X87250000Y-108250000D01*
X107210000Y-113000000D02*
X107260000Y-113050000D01*
X93250000Y-113000000D02*
X107210000Y-113000000D01*
X87250000Y-108250000D02*
X90250000Y-108250000D01*
X91500000Y-109500000D02*
X91500000Y-111250000D01*
X91500000Y-111250000D02*
X93250000Y-113000000D01*
X90250000Y-108250000D02*
X91500000Y-109500000D01*
X73000000Y-87840000D02*
X75540000Y-90380000D01*
X73000000Y-83750000D02*
X73000000Y-87840000D01*
X84000000Y-88500000D02*
X84499999Y-88999999D01*
%TO.N,A3*%
X67500000Y-100000000D02*
X67500000Y-115000000D01*
%TO.N,A2*%
X55250000Y-116550000D02*
X56450000Y-116550000D01*
X56450000Y-116550000D02*
X57500000Y-115500000D01*
X57500000Y-115500000D02*
X57500000Y-98000000D01*
%TO.N,D7*%
X66420000Y-130670000D02*
X66500000Y-130750000D01*
X66420000Y-124170000D02*
X66420000Y-130670000D01*
%TO.N,D0\u002A*%
X78330000Y-117880000D02*
X78330000Y-122330000D01*
X78330000Y-122330000D02*
X79750000Y-123750000D01*
X79750000Y-123750000D02*
X100500000Y-123750000D01*
X102500000Y-125750000D02*
X107260000Y-125750000D01*
X100500000Y-123750000D02*
X102500000Y-125750000D01*
X107260000Y-131510000D02*
X107260000Y-125750000D01*
X108500000Y-132750000D02*
X107260000Y-131510000D01*
X180220000Y-130780000D02*
X178250000Y-132750000D01*
X180220000Y-126000000D02*
X180220000Y-130780000D01*
X178250000Y-132750000D02*
X108500000Y-132750000D01*
%TO.N,D6*%
X67750000Y-129750000D02*
X67750000Y-123000000D01*
%TO.N,D1\u002A*%
X80870000Y-117880000D02*
X80870000Y-121370000D01*
X80870000Y-121370000D02*
X82500000Y-123000000D01*
X82500000Y-123000000D02*
X101750000Y-123000000D01*
X101750000Y-123000000D02*
X103299999Y-124549999D01*
X122500000Y-125750000D02*
X122500000Y-128250000D01*
X122500000Y-128250000D02*
X125500000Y-131250000D01*
X178880001Y-129369999D02*
X178880001Y-124380001D01*
X177000000Y-131250000D02*
X178880001Y-129369999D01*
X178880001Y-124380001D02*
X179260002Y-124000000D01*
X179260002Y-124000000D02*
X182000000Y-124000000D01*
X182760000Y-124760000D02*
X182760000Y-126000000D01*
X182000000Y-124000000D02*
X182760000Y-124760000D01*
X103299999Y-124549999D02*
X110049999Y-124549999D01*
X110049999Y-124549999D02*
X111250000Y-125750000D01*
X111250000Y-125750000D02*
X122500000Y-125750000D01*
X125500000Y-131250000D02*
X177000000Y-131250000D01*
%TO.N,D5*%
X65300010Y-128750000D02*
X65300010Y-125500000D01*
%TO.N,D2\u002A*%
X83410000Y-117880000D02*
X83410000Y-120410000D01*
X83410000Y-120410000D02*
X85000000Y-122000000D01*
X85000000Y-122000000D02*
X102250000Y-122000000D01*
X102250000Y-122000000D02*
X103250000Y-123000000D01*
X107050000Y-123000000D02*
X107260000Y-123210000D01*
X103250000Y-123000000D02*
X107050000Y-123000000D01*
X107260000Y-123210000D02*
X111710000Y-123210000D01*
X111710000Y-123210000D02*
X113000000Y-124500000D01*
X113000000Y-124500000D02*
X126250000Y-124500000D01*
X126250000Y-124500000D02*
X127750000Y-126000000D01*
X127750000Y-126000000D02*
X134500000Y-126000000D01*
%TO.N,D3\u002A*%
X103000000Y-121000000D02*
X103870001Y-121870001D01*
X87000000Y-121000000D02*
X103000000Y-121000000D01*
X85950000Y-119950000D02*
X87000000Y-121000000D01*
X85950000Y-117880000D02*
X85950000Y-119950000D01*
X118960000Y-123210000D02*
X117620001Y-121870001D01*
X122500000Y-123210000D02*
X118960000Y-123210000D01*
X103870001Y-121870001D02*
X117620001Y-121870001D01*
X122500000Y-123210000D02*
X134460000Y-123210000D01*
%TO.N,D4\u002A*%
X104170000Y-120670000D02*
X107260000Y-120670000D01*
X103750000Y-120250000D02*
X104170000Y-120670000D01*
X89250000Y-120250000D02*
X103750000Y-120250000D01*
X88490000Y-119490000D02*
X89250000Y-120250000D01*
X88490000Y-117880000D02*
X88490000Y-119490000D01*
X117731458Y-120670000D02*
X118931459Y-121870001D01*
X107260000Y-120670000D02*
X117731458Y-120670000D01*
X137629999Y-121870001D02*
X138250000Y-121250000D01*
X118931459Y-121870001D02*
X137629999Y-121870001D01*
%TO.N,D5\u002A*%
X122500000Y-120670000D02*
X118580000Y-120670000D01*
X118580000Y-120670000D02*
X117410000Y-119500000D01*
X107836001Y-119469999D02*
X91969999Y-119469999D01*
X107866002Y-119500000D02*
X107836001Y-119469999D01*
X117410000Y-119500000D02*
X107866002Y-119500000D01*
X91030000Y-118530000D02*
X91030000Y-117880000D01*
X91969999Y-119469999D02*
X91030000Y-118530000D01*
X132330000Y-120670000D02*
X132500000Y-120500000D01*
X139580000Y-110760000D02*
X139580000Y-112170000D01*
X139580000Y-112170000D02*
X139000000Y-112750000D01*
X139000000Y-112750000D02*
X132500000Y-112750000D01*
X122500000Y-120670000D02*
X132330000Y-120670000D01*
%TO.N,D1*%
X69000000Y-123000000D02*
X69000000Y-96250000D01*
%TO.N,D6\u002A*%
X107260000Y-118130000D02*
X99620000Y-118130000D01*
X107260000Y-118130000D02*
X117130000Y-118130000D01*
X117130000Y-118130000D02*
X118469999Y-119469999D01*
X118469999Y-119469999D02*
X138969999Y-119469999D01*
X139580000Y-120080000D02*
X139580000Y-126000000D01*
X138969999Y-119469999D02*
X139580000Y-120080000D01*
%TO.N,D7\u002A*%
X122500000Y-118130000D02*
X118380000Y-118130000D01*
X97199999Y-116790001D02*
X96110000Y-117880000D01*
X117040001Y-116790001D02*
X97199999Y-116790001D01*
X118380000Y-118130000D02*
X117040001Y-116790001D01*
X122500000Y-118130000D02*
X136870000Y-118130000D01*
%TO.N,-RD*%
X73250000Y-125500000D02*
X73250000Y-132250000D01*
X77750000Y-116000000D02*
X94250000Y-116000000D01*
X77000000Y-116750000D02*
X77750000Y-116000000D01*
X77000000Y-121000000D02*
X77000000Y-116750000D01*
X73250000Y-124750000D02*
X77000000Y-121000000D01*
X73250000Y-125500000D02*
X73250000Y-124750000D01*
X107260000Y-105430000D02*
X108930000Y-105430000D01*
D29*
X108930000Y-105430000D02*
X109180000Y-105430000D01*
X109180000Y-105430000D02*
X115500000Y-111750000D01*
X128000000Y-111750000D02*
X128750000Y-112500000D01*
X128750000Y-112500000D02*
X128750000Y-115250000D01*
X128750000Y-115250000D02*
X129250000Y-115750000D01*
X140000000Y-115750000D02*
X147250000Y-115750000D01*
X129250000Y-115750000D02*
X145000000Y-115750000D01*
X140000000Y-115750000D02*
X140250000Y-115750000D01*
X115500000Y-111750000D02*
X128000000Y-111750000D01*
D28*
X107260000Y-105430000D02*
X105320000Y-105430000D01*
X105000000Y-105750000D02*
X96000000Y-105750000D01*
X105320000Y-105430000D02*
X105000000Y-105750000D01*
X94250000Y-116000000D02*
X96000000Y-116000000D01*
X63170000Y-70830000D02*
X60330000Y-70830000D01*
X63250000Y-70750000D02*
X63170000Y-70830000D01*
X64500000Y-72000000D02*
X63250000Y-70750000D01*
X64500000Y-84500000D02*
X64500000Y-72000000D01*
X66250000Y-86250000D02*
X64500000Y-84500000D01*
X66250000Y-120000000D02*
X66250000Y-86250000D01*
X64000000Y-122250000D02*
X66250000Y-120000000D01*
X64000000Y-130750000D02*
X64000000Y-122250000D01*
%TO.N,-RESET*%
X107250000Y-77500000D02*
X107260000Y-77490000D01*
X97500000Y-77500000D02*
X107250000Y-77500000D01*
%TO.N,CLOCK*%
X172600000Y-111900000D02*
X172600000Y-110760000D01*
X170750000Y-113750000D02*
X172600000Y-111900000D01*
X131250000Y-113750000D02*
X170750000Y-113750000D01*
X136250000Y-113750000D02*
X131000000Y-113750000D01*
X119135000Y-75302000D02*
X119126000Y-75311000D01*
X119126000Y-75311000D02*
X97418000Y-75302000D01*
X119135000Y-75302000D02*
X121530000Y-75302000D01*
X122500000Y-76272000D02*
X122500000Y-77490000D01*
X121530000Y-75302000D02*
X122500000Y-76272000D01*
%TO.N,Net-(J1-PadC11)*%
X60330000Y-91150000D02*
X61150000Y-91150000D01*
X64250000Y-102000000D02*
X62400000Y-103850000D01*
X64250000Y-92750000D02*
X64250000Y-102000000D01*
X62400000Y-103850000D02*
X61400000Y-103850000D01*
X62650000Y-91150000D02*
X64250000Y-92750000D01*
X60330000Y-91150000D02*
X62650000Y-91150000D01*
X61400000Y-103850000D02*
X61900000Y-103850000D01*
X60330000Y-103850000D02*
X61400000Y-103850000D01*
%TO.N,A1*%
X107260000Y-110510000D02*
X94240000Y-110510000D01*
X94240000Y-110510000D02*
X93250000Y-111500000D01*
X93250000Y-111500000D02*
X93250000Y-111750000D01*
X111000000Y-131250000D02*
X120750000Y-131250000D01*
%TO.N,A0*%
X67500000Y-116250000D02*
X67500000Y-119000000D01*
X94900001Y-111849999D02*
X109650001Y-111849999D01*
X94750000Y-112000000D02*
X94900001Y-111849999D01*
X121750000Y-130000000D02*
X112750000Y-130000000D01*
X112750000Y-130000000D02*
X112500000Y-129750000D01*
X109650001Y-111849999D02*
X112349999Y-111849999D01*
X107260000Y-107970000D02*
X110220000Y-107970000D01*
X112349999Y-110099999D02*
X112349999Y-111849999D01*
X110220000Y-107970000D02*
X112349999Y-110099999D01*
%TO.N,-M1*%
X93479999Y-104229999D02*
X109479999Y-104229999D01*
X93250000Y-104000000D02*
X93479999Y-104229999D01*
X113220000Y-107970000D02*
X113720000Y-107970000D01*
X109479999Y-104229999D02*
X113220000Y-107970000D01*
X113720000Y-107970000D02*
X122500000Y-107970000D01*
X142120000Y-109120000D02*
X142120000Y-110760000D01*
X142000000Y-109000000D02*
X142120000Y-109120000D01*
X129750000Y-109000000D02*
X138000000Y-109000000D01*
X128720000Y-107970000D02*
X129750000Y-109000000D01*
X122500000Y-107970000D02*
X128720000Y-107970000D01*
X133000000Y-109000000D02*
X142000000Y-109000000D01*
X132250000Y-109000000D02*
X133000000Y-109000000D01*
%TO.N,Net-(R3-Pad2)*%
X126960000Y-113050000D02*
X127000000Y-113090000D01*
X122500000Y-113050000D02*
X126960000Y-113050000D01*
%TO.N,Net-(U6-Pad7)*%
X175140000Y-113610000D02*
X175140000Y-110760000D01*
X129500000Y-114000000D02*
X130250000Y-114750000D01*
X129500000Y-111750000D02*
X129500000Y-114000000D01*
X174000000Y-114750000D02*
X175140000Y-113610000D01*
X128260000Y-110510000D02*
X129500000Y-111750000D01*
X122500000Y-110510000D02*
X128260000Y-110510000D01*
X130250000Y-114750000D02*
X174000000Y-114750000D01*
D27*
%TO.N,Net-(SW1-Pad1)*%
X108250000Y-49550000D02*
X108250000Y-52090000D01*
X108250000Y-52090000D02*
X108250000Y-54630000D01*
X108250000Y-54630000D02*
X108250000Y-57170000D01*
X108250000Y-57170000D02*
X108250000Y-59710000D01*
X108250000Y-59710000D02*
X108250000Y-62250000D01*
%TO.N,Net-(SW2-Pad1)*%
X122500000Y-49550000D02*
X122500000Y-52090000D01*
X122500000Y-52090000D02*
X122500000Y-54630000D01*
X122500000Y-54630000D02*
X122500000Y-57170000D01*
X122500000Y-57170000D02*
X122500000Y-59710000D01*
X122500000Y-59710000D02*
X122500000Y-62250000D01*
D28*
X122000000Y-62250000D02*
X122500000Y-62250000D01*
%TO.N,Net-(J2-Pad8)*%
X193289000Y-62870000D02*
X193870000Y-62870000D01*
X202340000Y-67575000D02*
X203575000Y-67575000D01*
X203575000Y-67575000D02*
X204500000Y-68500000D01*
X204500000Y-68500000D02*
X204500000Y-74500000D01*
X204500000Y-74500000D02*
X201500000Y-77500000D01*
X201500000Y-77500000D02*
X199000000Y-77500000D01*
X199000000Y-77500000D02*
X197500000Y-79000000D01*
X197500000Y-79000000D02*
X197500000Y-79500000D01*
X195960000Y-81040000D02*
X194500000Y-81040000D01*
X197500000Y-79500000D02*
X195960000Y-81040000D01*
%TO.N,Net-(J2-Pad3)*%
X186250000Y-70490000D02*
X189098000Y-70490000D01*
X189098000Y-70490000D02*
X190246000Y-69342000D01*
X199170001Y-69289999D02*
X199500000Y-68960000D01*
X193293999Y-69289999D02*
X199170001Y-69289999D01*
X193241998Y-69342000D02*
X193293999Y-69289999D01*
X190246000Y-69342000D02*
X193241998Y-69342000D01*
%TO.N,Net-(J2-Pad2)*%
X199460001Y-71690001D02*
X199500000Y-71730000D01*
X199500000Y-71730000D02*
X198018000Y-71730000D01*
X198018000Y-71730000D02*
X196596000Y-73152000D01*
X196596000Y-73152000D02*
X196596000Y-74676000D01*
X196596000Y-74676000D02*
X195580000Y-75692000D01*
X195580000Y-75692000D02*
X187452000Y-75692000D01*
X186250000Y-74490000D02*
X186250000Y-73030000D01*
X187452000Y-75692000D02*
X186250000Y-74490000D01*
D27*
%TO.N,Net-(C9-Pad2)*%
X180500000Y-70500000D02*
X180000000Y-70500000D01*
D28*
%TO.N,CTSA*%
X178500000Y-79000000D02*
X176000000Y-81500000D01*
X182000000Y-78000000D02*
X181000000Y-79000000D01*
X127930000Y-88000000D02*
X122500000Y-82570000D01*
X182000000Y-67500000D02*
X182000000Y-78000000D01*
X172000000Y-88000000D02*
X127930000Y-88000000D01*
X182750001Y-66749999D02*
X182000000Y-67500000D01*
X176000000Y-84000000D02*
X172000000Y-88000000D01*
X189750001Y-66749999D02*
X182750001Y-66749999D01*
X191090000Y-65410000D02*
X189750001Y-66749999D01*
X181000000Y-79000000D02*
X178500000Y-79000000D01*
X193870000Y-65410000D02*
X191090000Y-65410000D01*
X176000000Y-81500000D02*
X176000000Y-84000000D01*
%TO.N,RTSA*%
X193870000Y-67950000D02*
X190050000Y-67950000D01*
X188710001Y-69289999D02*
X184210001Y-69289999D01*
X190050000Y-67950000D02*
X188710001Y-69289999D01*
X184210001Y-69289999D02*
X183000000Y-70500000D01*
X183000000Y-70500000D02*
X183000000Y-84500000D01*
X183000000Y-84500000D02*
X182000000Y-85500000D01*
X182000000Y-85500000D02*
X176000000Y-85500000D01*
X176000000Y-85500000D02*
X172500000Y-89000000D01*
X172500000Y-89000000D02*
X127000000Y-89000000D01*
X123110000Y-85110000D02*
X122500000Y-85110000D01*
X127000000Y-89000000D02*
X123110000Y-85110000D01*
%TO.N,TXDA*%
X193870000Y-70490000D02*
X191638000Y-70490000D01*
X190298001Y-71829999D02*
X185218001Y-71829999D01*
X191638000Y-70490000D02*
X190298001Y-71829999D01*
X185218001Y-71829999D02*
X183896000Y-73152000D01*
X183896000Y-73152000D02*
X183896000Y-85598000D01*
X183896000Y-85598000D02*
X182880000Y-86614000D01*
X182880000Y-86614000D02*
X176276000Y-86614000D01*
X172700000Y-90190000D02*
X122500000Y-90190000D01*
X176276000Y-86614000D02*
X172700000Y-90190000D01*
%TO.N,RXDA*%
X130282000Y-97810000D02*
X130282000Y-97810000D01*
X130028000Y-97810000D02*
X137648000Y-97810000D01*
X122500000Y-97810000D02*
X130028000Y-97810000D01*
X130028000Y-97810000D02*
X130282000Y-97810000D01*
X137648000Y-97810000D02*
X137648000Y-97810000D01*
D27*
%TO.N,RXDB*%
X107070000Y-95460000D02*
X107260000Y-95270000D01*
D28*
X108732000Y-95270000D02*
X107260000Y-95270000D01*
X112472001Y-99010001D02*
X108732000Y-95270000D01*
X172924001Y-99010001D02*
X112472001Y-99010001D01*
X175768000Y-101854000D02*
X172924001Y-99010001D01*
X180848000Y-101854000D02*
X175768000Y-101854000D01*
X184223999Y-105229999D02*
X180848000Y-101854000D01*
X188541999Y-105229999D02*
X184223999Y-105229999D01*
X189742000Y-106430000D02*
X188541999Y-105229999D01*
X194084759Y-106430000D02*
X189742000Y-106430000D01*
%TO.N,TXDB*%
X108732000Y-90190000D02*
X107260000Y-90190000D01*
X115151999Y-96609999D02*
X108732000Y-90190000D01*
X172047999Y-96609999D02*
X115151999Y-96609999D01*
X176276000Y-100838000D02*
X172047999Y-96609999D01*
X181610000Y-100838000D02*
X176276000Y-100838000D01*
X183461999Y-102689999D02*
X181610000Y-100838000D01*
X191081999Y-102689999D02*
X183461999Y-102689999D01*
X192282000Y-103890000D02*
X191081999Y-102689999D01*
X194084759Y-103890000D02*
X192282000Y-103890000D01*
%TO.N,RTSB*%
X109982000Y-86614000D02*
X108478000Y-85110000D01*
X109982000Y-88646000D02*
X109982000Y-86614000D01*
X115405999Y-94069999D02*
X109982000Y-88646000D01*
X108478000Y-85110000D02*
X107260000Y-85110000D01*
X171285999Y-94069999D02*
X115405999Y-94069999D01*
X184256002Y-100076000D02*
X177292000Y-100076000D01*
X177292000Y-100076000D02*
X171285999Y-94069999D01*
X190827999Y-100149999D02*
X184330001Y-100149999D01*
X184330001Y-100149999D02*
X184256002Y-100076000D01*
X192028000Y-101350000D02*
X190827999Y-100149999D01*
X194084759Y-101350000D02*
X192028000Y-101350000D01*
%TO.N,CTSB*%
X194084759Y-98810000D02*
X192282000Y-98810000D01*
X188402001Y-94930001D02*
X183322001Y-94930001D01*
X192282000Y-98810000D02*
X188402001Y-94930001D01*
X183322001Y-94930001D02*
X182118000Y-93726000D01*
X182118000Y-93726000D02*
X172974000Y-93726000D01*
X170638001Y-91390001D02*
X115774001Y-91390001D01*
X172974000Y-93726000D02*
X170638001Y-91390001D01*
X115774001Y-91390001D02*
X112014000Y-87630000D01*
X112014000Y-87630000D02*
X112014000Y-83820000D01*
X110764000Y-82570000D02*
X107260000Y-82570000D01*
X112014000Y-83820000D02*
X110764000Y-82570000D01*
%TO.N,-BSTB*%
X143459999Y-119459999D02*
X174959999Y-119459999D01*
%TO.N,-ASTY*%
X172600000Y-121350000D02*
X146100000Y-121350000D01*
%TO.N,BRDY*%
X182760000Y-110760000D02*
X182760000Y-109354000D01*
X182760000Y-109354000D02*
X181864000Y-108458000D01*
X181864000Y-108458000D02*
X147701000Y-108458000D01*
X147140000Y-107897000D02*
X147140000Y-104040000D01*
X147701000Y-108458000D02*
X147140000Y-107897000D01*
%TO.N,ARDY*%
X148400001Y-122650001D02*
X176400001Y-122650001D01*
X177680000Y-123930000D02*
X177680000Y-126000000D01*
X176400001Y-122650001D02*
X177680000Y-123930000D01*
%TO.N,Net-(J5-Pad3)*%
X197500000Y-108750000D02*
X199500000Y-110750000D01*
X197500000Y-107500000D02*
X197500000Y-108750000D01*
X195090001Y-105090001D02*
X197500000Y-107500000D01*
X192090001Y-105090001D02*
X195090001Y-105090001D01*
X190890000Y-103890000D02*
X192090001Y-105090001D01*
X186464759Y-103890000D02*
X190890000Y-103890000D01*
%TO.N,Net-(J5-Pad2)*%
X186464759Y-106430000D02*
X186464759Y-108464759D01*
X191520000Y-113520000D02*
X199500000Y-113520000D01*
X186464759Y-108464759D02*
X191520000Y-113520000D01*
D29*
%TO.N,Net-(LED1-Pad2)*%
X89500000Y-81500000D02*
X77000000Y-81500000D01*
X75540000Y-82960000D02*
X75540000Y-83750000D01*
X77000000Y-81500000D02*
X75540000Y-82960000D01*
%TO.N,Net-(LED2-Pad2)*%
X84500000Y-86000000D02*
X81500000Y-86000000D01*
X80620000Y-85120000D02*
X80620000Y-83750000D01*
X81500000Y-86000000D02*
X80620000Y-85120000D01*
%TD*%
M02*
